<?xml version="1.0" encoding="UTF-8" standalone="no"?>
<!DOCTYPE svg PUBLIC "-//W3C//DTD SVG 1.1//EN"
 "http://www.w3.org/Graphics/SVG/1.1/DTD/svg11.dtd">
<!-- Generated by graphviz version 2.38.0 (20140413.2041)
 -->
<!-- Title: G Pages: 1 -->
<svg width="320pt" height="393pt"
 viewBox="0.00 0.00 319.77 393.36" xmlns="http://www.w3.org/2000/svg" xmlns:xlink="http://www.w3.org/1999/xlink">
<g id="graph0" class="graph" transform="scale(1 1) rotate(0) translate(4 389.361)">
<title>G</title>
<polygon fill="white" stroke="none" points="-4,4 -4,-389.361 315.774,-389.361 315.774,4 -4,4"/>
<!-- 0 -->
<g id="node1" class="node"><title>0</title>
<ellipse fill="none" stroke="black" cx="146.887" cy="-238.474" rx="146.774" ry="146.774"/>
<text text-anchor="middle" x="146.887" y="-234.774" font-family="Times,serif" font-size="14.00">Sunny,Yellow$$$SPACE$$$thing,1,2</text>
</g>
<!-- 0&#45;&gt;0 -->
<g id="edge1" class="edge"><title>0&#45;&gt;0</title>
<path fill="none" stroke="black" d="M290.768,-268.141C303.672,-261.937 311.774,-252.048 311.774,-238.474 311.774,-228.293 307.217,-220.185 299.494,-214.15"/>
<polygon fill="black" stroke="black" points="301.123,-211.044 290.768,-208.806 297.468,-217.014 301.123,-211.044"/>
</g>
<!-- 1 -->
<g id="node2" class="node"><title>1</title>
<ellipse fill="none" stroke="black" cx="146.887" cy="-37.5866" rx="140.275" ry="18"/>
<text text-anchor="middle" x="146.887" y="-33.8866" font-family="Times,serif" font-size="14.00">Rainy,Grey$$$SPACE$$$things,3,4</text>
</g>
<!-- 0&#45;&gt;1 -->
<g id="edge2" class="edge"><title>0&#45;&gt;1</title>
<path fill="none" stroke="black" d="M140.838,-91.6234C141.148,-82.1126 141.56,-73.3319 142.074,-65.7648"/>
<polygon fill="black" stroke="black" points="145.578,-65.8537 142.901,-55.6026 138.601,-65.2857 145.578,-65.8537"/>
</g>
<!-- 1&#45;&gt;0 -->
<g id="edge3" class="edge"><title>1&#45;&gt;0</title>
<path fill="none" stroke="black" d="M150.873,-55.6026C151.559,-62.5978 152.117,-71.3994 152.548,-81.3349"/>
<polygon fill="black" stroke="black" points="149.061,-81.7624 152.936,-91.6234 156.056,-81.4985 149.061,-81.7624"/>
</g>
<!-- 1&#45;&gt;1 -->
<g id="edge4" class="edge"><title>1&#45;&gt;1</title>
<path fill="none" stroke="black" d="M171.474,-55.5029C226.937,-86.6251 305.275,-80.653 305.275,-37.5866 305.275,3.20876 234.982,10.7189 180.425,-15.0561"/>
<polygon fill="black" stroke="black" points="178.759,-11.9771 171.474,-19.6703 181.966,-18.199 178.759,-11.9771"/>
</g>
</g>
</svg>
