<?xml version="1.0" encoding="UTF-8" standalone="no"?>
<!DOCTYPE svg PUBLIC "-//W3C//DTD SVG 1.1//EN"
 "http://www.w3.org/Graphics/SVG/1.1/DTD/svg11.dtd">
<!-- Generated by graphviz version 2.38.0 (20140413.2041)
 -->
<!-- Title: G Pages: 1 -->
<svg width="154pt" height="131pt"
 viewBox="0.00 0.00 154.29 131.00" xmlns="http://www.w3.org/2000/svg" xmlns:xlink="http://www.w3.org/1999/xlink">
<g id="graph0" class="graph" transform="scale(1 1) rotate(0) translate(4 127)">
<title>G</title>
<polygon fill="white" stroke="none" points="-4,4 -4,-127 150.294,-127 150.294,4 -4,4"/>
<!-- 0 -->
<g id="node1" class="node"><title>0</title>
<ellipse fill="none" stroke="black" cx="33.1471" cy="-105" rx="33.2948" ry="18"/>
<text text-anchor="middle" x="33.1471" y="-101.3" font-family="Times,serif" font-size="14.00">Sunny</text>
</g>
<!-- 0&#45;&gt;0 -->
<g id="edge1" class="edge"><title>0&#45;&gt;0</title>
<path fill="none" stroke="black" d="M63.0926,-112.844C74.6707,-113.193 84.2941,-110.578 84.2941,-105 84.2941,-101.165 79.7456,-98.7307 73.1404,-97.6971"/>
<polygon fill="black" stroke="black" points="73.2665,-94.1989 63.0926,-97.1558 72.8898,-101.189 73.2665,-94.1989"/>
<text text-anchor="middle" x="115.294" y="-101.3" font-family="Times,serif" font-size="14.00">Sometimes</text>
</g>
<!-- 1 -->
<g id="node2" class="node"><title>1</title>
<ellipse fill="none" stroke="black" cx="33.1471" cy="-18" rx="31.6951" ry="18"/>
<text text-anchor="middle" x="33.1471" y="-14.3" font-family="Times,serif" font-size="14.00">Rainy</text>
</g>
<!-- 0&#45;&gt;1 -->
<g id="edge2" class="edge"><title>0&#45;&gt;1</title>
<path fill="none" stroke="black" d="M18.3227,-88.5086C13.8329,-82.8226 9.47673,-76.0428 7.14706,-69 4.16847,-59.9955 7.17365,-50.641 12.058,-42.4928"/>
<polygon fill="black" stroke="black" points="15.0035,-44.389 17.9014,-34.1982 9.28093,-40.3575 15.0035,-44.389"/>
<text text-anchor="middle" x="22.6471" y="-57.8" font-family="Times,serif" font-size="14.00">Often</text>
</g>
<!-- 1&#45;&gt;0 -->
<g id="edge3" class="edge"><title>1&#45;&gt;0</title>
<path fill="none" stroke="black" d="M36.3085,-36.1036C37.7272,-45.7519 38.9263,-58.0356 38.1471,-69 37.9643,-71.5715 37.7069,-74.2413 37.4044,-76.908"/>
<polygon fill="black" stroke="black" points="33.9161,-76.5898 36.0755,-86.9622 40.8557,-77.507 33.9161,-76.5898"/>
<text text-anchor="middle" x="56.6471" y="-57.8" font-family="Times,serif" font-size="14.00">Rarely</text>
</g>
<!-- 1&#45;&gt;1 -->
<g id="edge4" class="edge"><title>1&#45;&gt;1</title>
<path fill="none" stroke="black" d="M61.8325,-25.8269C73.3376,-26.2691 82.9942,-23.6602 82.9942,-18 82.9942,-14.1086 78.4299,-11.6594 71.8387,-10.6524"/>
<polygon fill="black" stroke="black" points="71.9886,-7.15566 61.8325,-10.1731 71.6536,-14.1476 71.9886,-7.15566"/>
<text text-anchor="middle" x="102.994" y="-14.3" font-family="Times,serif" font-size="14.00">Mostly</text>
</g>
</g>
</svg>
