<?xml version="1.0" encoding="UTF-8" standalone="no"?>
<!DOCTYPE svg PUBLIC "-//W3C//DTD SVG 1.1//EN"
 "http://www.w3.org/Graphics/SVG/1.1/DTD/svg11.dtd">
<!-- Generated by graphviz version 2.36.0 (20140111.2315)
 -->
<!-- Title: G Pages: 1 -->
<svg width="934pt" height="620pt"
 viewBox="0.00 0.00 934.00 620.00" xmlns="http://www.w3.org/2000/svg" xmlns:xlink="http://www.w3.org/1999/xlink">
<g id="graph0" class="graph" transform="scale(1 1) rotate(0) translate(4 616)">
<title>G</title>
<polygon fill="white" stroke="none" points="-4,4 -4,-616 930,-616 930,4 -4,4"/>
<!-- 0 -->
<g id="node1" class="node"><title>0</title>
<ellipse fill="none" stroke="black" cx="714" cy="-594" rx="102.536" ry="18"/>
<text text-anchor="middle" x="714" y="-590.3" font-family="Times,serif" font-size="14.00">Graphs without properties</text>
</g>
<!-- 1 -->
<g id="node2" class="node"><title>1</title>
<ellipse fill="none" stroke="black" cx="597" cy="-522" rx="110.235" ry="18"/>
<text text-anchor="middle" x="597" y="-518.3" font-family="Times,serif" font-size="14.00">Graphs with named vertices</text>
</g>
<!-- 0&#45;&gt;1 -->
<g id="edge1" class="edge"><title>0&#45;&gt;1</title>
<path fill="none" stroke="black" d="M686.569,-576.588C670.694,-567.091 650.52,-555.02 633.338,-544.741"/>
<polygon fill="black" stroke="black" points="635.043,-541.682 624.665,-539.552 631.449,-547.689 635.043,-541.682"/>
</g>
<!-- 3 -->
<g id="node4" class="node"><title>3</title>
<ellipse fill="none" stroke="black" cx="142" cy="-378" rx="114.085" ry="18"/>
<text text-anchor="middle" x="142" y="-374.3" font-family="Times,serif" font-size="14.00">Graphs with bundled vertices</text>
</g>
<!-- 0&#45;&gt;3 -->
<g id="edge2" class="edge"><title>0&#45;&gt;3</title>
<path fill="none" stroke="black" d="M631.169,-583.366C497.696,-566.302 243.182,-526.919 176,-468 158.08,-452.284 149.561,-426.061 145.538,-406.14"/>
<polygon fill="black" stroke="black" points="148.953,-405.35 143.776,-396.107 142.058,-406.561 148.953,-405.35"/>
</g>
<!-- 5 -->
<g id="node6" class="node"><title>5</title>
<ellipse fill="none" stroke="black" cx="626" cy="-90" rx="112.16" ry="18"/>
<text text-anchor="middle" x="626" y="-86.3" font-family="Times,serif" font-size="14.00">Graphs with custom vertices</text>
</g>
<!-- 0&#45;&gt;5 -->
<g id="edge3" class="edge"><title>0&#45;&gt;5</title>
<path fill="none" stroke="black" d="M775.604,-579.555C838.198,-561.84 926,-523.983 926,-451 926,-451 926,-451 926,-233 926,-146.393 822.592,-112.534 737.199,-99.3394"/>
<polygon fill="black" stroke="black" points="737.55,-95.8535 727.148,-97.8673 736.535,-102.78 737.55,-95.8535"/>
</g>
<!-- 7 -->
<g id="node8" class="node"><title>7</title>
<ellipse fill="none" stroke="black" cx="425" cy="-234" rx="104.461" ry="18"/>
<text text-anchor="middle" x="425" y="-230.3" font-family="Times,serif" font-size="14.00">Graphs with a graph name</text>
</g>
<!-- 0&#45;&gt;7 -->
<g id="edge4" class="edge"><title>0&#45;&gt;7</title>
<path fill="none" stroke="black" d="M741.368,-576.593C776.227,-553.376 832,-507.415 832,-451 832,-451 832,-451 832,-377 832,-330.027 814.4,-313.574 775,-288 735.849,-262.588 619.938,-248.673 532.141,-241.558"/>
<polygon fill="black" stroke="black" points="532.366,-238.065 522.121,-240.766 531.814,-245.043 532.366,-238.065"/>
</g>
<!-- 2 -->
<g id="node3" class="node"><title>2</title>
<ellipse fill="none" stroke="black" cx="412" cy="-450" rx="147.305" ry="18"/>
<text text-anchor="middle" x="412" y="-446.3" font-family="Times,serif" font-size="14.00">Graphs with named edges and vertices</text>
</g>
<!-- 1&#45;&gt;2 -->
<g id="edge5" class="edge"><title>1&#45;&gt;2</title>
<path fill="none" stroke="black" d="M555.482,-505.291C528.587,-495.114 493.33,-481.773 464.496,-470.863"/>
<polygon fill="black" stroke="black" points="465.577,-467.53 454.985,-467.265 463.099,-474.077 465.577,-467.53"/>
</g>
<!-- 1&#45;&gt;3 -->
<g id="edge6" class="edge"><title>1&#45;&gt;3</title>
<path fill="none" stroke="black" d="M495.192,-514.973C398.113,-507.659 260.077,-493.08 213,-468 185.65,-453.429 163.013,-425.625 150.661,-404.954"/>
<polygon fill="black" stroke="black" points="153.631,-403.091 145.73,-396.031 147.504,-406.477 153.631,-403.091"/>
</g>
<!-- 1&#45;&gt;5 -->
<g id="edge7" class="edge"><title>1&#45;&gt;5</title>
<path fill="none" stroke="black" d="M618.982,-504.267C661.108,-474.608 751.1,-407.956 786,-324 818.649,-245.46 787.254,-197.338 721,-144 705.151,-131.24 685.735,-120.337 668.533,-111.796"/>
<polygon fill="black" stroke="black" points="669.766,-108.504 659.24,-107.297 666.716,-114.805 669.766,-108.504"/>
</g>
<!-- 1&#45;&gt;7 -->
<g id="edge8" class="edge"><title>1&#45;&gt;7</title>
<path fill="none" stroke="black" d="M587.472,-503.838C581.268,-485.064 573.377,-454.634 559,-432 521.406,-372.814 481.292,-383.377 444,-324 432.117,-305.08 424.911,-280.712 422.199,-262.258"/>
<polygon fill="black" stroke="black" points="425.663,-261.734 421.12,-252.163 418.703,-262.478 425.663,-261.734"/>
</g>
<!-- 2&#45;&gt;3 -->
<g id="edge9" class="edge"><title>2&#45;&gt;3</title>
<path fill="none" stroke="black" d="M352.078,-433.465C309.47,-422.418 252.23,-407.578 208.26,-396.179"/>
<polygon fill="black" stroke="black" points="209.082,-392.776 198.524,-393.654 207.325,-399.552 209.082,-392.776"/>
</g>
<!-- 2&#45;&gt;5 -->
<g id="edge10" class="edge"><title>2&#45;&gt;5</title>
<path fill="none" stroke="black" d="M540.911,-441.136C622.473,-428.689 722.168,-398.07 775,-324 828.416,-249.111 718.44,-155.822 659.706,-113.612"/>
<polygon fill="black" stroke="black" points="661.623,-110.681 651.438,-107.763 657.581,-116.395 661.623,-110.681"/>
</g>
<!-- 2&#45;&gt;7 -->
<g id="edge11" class="edge"><title>2&#45;&gt;7</title>
<path fill="none" stroke="black" d="M407.993,-431.868C401.707,-402.215 391.297,-339.55 402,-288 403.876,-278.965 407.374,-269.579 411.086,-261.261"/>
<polygon fill="black" stroke="black" points="414.322,-262.606 415.458,-252.072 408.001,-259.598 414.322,-262.606"/>
</g>
<!-- 3&#45;&gt;1 -->
<g id="edge12" class="edge"><title>3&#45;&gt;1</title>
<path fill="none" stroke="black" d="M158.271,-396.031C174.19,-416.798 199.462,-451.198 231,-468 274.628,-491.243 396.376,-505.466 487.601,-513.247"/>
<polygon fill="black" stroke="black" points="487.468,-516.748 497.725,-514.095 488.052,-509.773 487.468,-516.748"/>
</g>
<!-- 4 -->
<g id="node5" class="node"><title>4</title>
<ellipse fill="none" stroke="black" cx="614" cy="-306" rx="152.13" ry="18"/>
<text text-anchor="middle" x="614" y="-302.3" font-family="Times,serif" font-size="14.00">Graphs with bundled edges and vertices</text>
</g>
<!-- 3&#45;&gt;4 -->
<g id="edge13" class="edge"><title>3&#45;&gt;4</title>
<path fill="none" stroke="black" d="M222.068,-365.125C302.269,-353.231 425.956,-334.888 512.885,-321.996"/>
<polygon fill="black" stroke="black" points="513.655,-325.42 523.033,-320.491 512.628,-318.496 513.655,-325.42"/>
</g>
<!-- 3&#45;&gt;5 -->
<g id="edge14" class="edge"><title>3&#45;&gt;5</title>
<path fill="none" stroke="black" d="M133.467,-359.961C119.468,-316.897 101.826,-202.944 161,-144 185.145,-119.948 380.589,-104.377 510.335,-96.6903"/>
<polygon fill="black" stroke="black" points="510.558,-100.183 520.337,-96.1056 510.15,-93.1952 510.558,-100.183"/>
</g>
<!-- 3&#45;&gt;7 -->
<g id="edge15" class="edge"><title>3&#45;&gt;7</title>
<path fill="none" stroke="black" d="M170.493,-360.433C219.696,-334.322 320.531,-283.663 379.505,-255.368"/>
<polygon fill="black" stroke="black" points="381.081,-258.494 388.596,-251.026 378.064,-252.178 381.081,-258.494"/>
</g>
<!-- 4&#45;&gt;1 -->
<g id="edge16" class="edge"><title>4&#45;&gt;1</title>
<path fill="none" stroke="black" d="M617.308,-324.146C622.443,-353.819 630.69,-416.513 620,-468 618.124,-477.035 614.626,-486.421 610.914,-494.739"/>
<polygon fill="black" stroke="black" points="607.678,-493.394 606.542,-503.928 613.999,-496.402 607.678,-493.394"/>
</g>
<!-- 4&#45;&gt;5 -->
<g id="edge17" class="edge"><title>4&#45;&gt;5</title>
<path fill="none" stroke="black" d="M614.962,-287.849C617.037,-250.832 621.952,-163.181 624.464,-118.386"/>
<polygon fill="black" stroke="black" points="627.968,-118.413 625.034,-108.232 620.979,-118.021 627.968,-118.413"/>
</g>
<!-- 4&#45;&gt;7 -->
<g id="edge18" class="edge"><title>4&#45;&gt;7</title>
<path fill="none" stroke="black" d="M569.688,-288.588C541.849,-278.277 505.823,-264.934 476.684,-254.142"/>
<polygon fill="black" stroke="black" points="477.681,-250.779 467.088,-250.588 475.25,-257.344 477.681,-250.779"/>
</g>
<!-- 5&#45;&gt;1 -->
<g id="edge19" class="edge"><title>5&#45;&gt;1</title>
<path fill="none" stroke="black" d="M673.325,-106.395C694.817,-115.524 719.584,-128.369 739,-144 805.254,-197.338 836.649,-245.46 804,-324 770.901,-403.623 688.25,-467.682 637.84,-499.382"/>
<polygon fill="black" stroke="black" points="635.813,-496.52 629.127,-504.738 639.479,-502.483 635.813,-496.52"/>
</g>
<!-- 5&#45;&gt;3 -->
<g id="edge20" class="edge"><title>5&#45;&gt;3</title>
<path fill="none" stroke="black" d="M521.777,-96.7638C397.348,-104.476 203.068,-120.025 179,-144 123.987,-198.799 135.367,-301.144 141.061,-349.869"/>
<polygon fill="black" stroke="black" points="137.602,-350.427 142.224,-359.961 144.556,-349.626 137.602,-350.427"/>
</g>
<!-- 6 -->
<g id="node7" class="node"><title>6</title>
<ellipse fill="none" stroke="black" cx="290" cy="-18" rx="149.23" ry="18"/>
<text text-anchor="middle" x="290" y="-14.3" font-family="Times,serif" font-size="14.00">Graphs with custom edges and vertices</text>
</g>
<!-- 5&#45;&gt;6 -->
<g id="edge21" class="edge"><title>5&#45;&gt;6</title>
<path fill="none" stroke="black" d="M560.418,-75.3371C506.257,-64.0536 429.131,-47.9857 371.097,-35.8952"/>
<polygon fill="black" stroke="black" points="371.729,-32.4517 361.225,-33.8385 370.301,-39.3046 371.729,-32.4517"/>
</g>
<!-- 5&#45;&gt;7 -->
<g id="edge22" class="edge"><title>5&#45;&gt;7</title>
<path fill="none" stroke="black" d="M610.17,-108.067C588.375,-126.235 548.849,-155.662 514,-180 498.814,-190.606 481.729,-201.996 466.522,-211.489"/>
<polygon fill="black" stroke="black" points="464.503,-208.622 457.814,-216.839 468.167,-214.586 464.503,-208.622"/>
</g>
<!-- 6&#45;&gt;1 -->
<g id="edge23" class="edge"><title>6&#45;&gt;1</title>
<path fill="none" stroke="black" d="M175.801,-29.7129C94.6476,-44.3586 0,-79.0138 0,-161 0,-379 0,-379 0,-379 0,-476.667 306.228,-507.274 480.042,-516.78"/>
<polygon fill="black" stroke="black" points="480.097,-520.287 490.268,-517.323 480.468,-513.297 480.097,-520.287"/>
</g>
<!-- 6&#45;&gt;3 -->
<g id="edge24" class="edge"><title>6&#45;&gt;3</title>
<path fill="none" stroke="black" d="M231.494,-34.578C174.055,-53.8343 95,-92.737 95,-161 95,-235 95,-235 95,-235 95,-277.045 113.8,-322.707 127.62,-350.593"/>
<polygon fill="black" stroke="black" points="124.596,-352.367 132.262,-359.68 130.83,-349.183 124.596,-352.367"/>
</g>
<!-- 6&#45;&gt;7 -->
<g id="edge25" class="edge"><title>6&#45;&gt;7</title>
<path fill="none" stroke="black" d="M334.713,-35.3037C378.682,-54.0274 443.256,-89.3881 472,-144 479.452,-158.159 477.677,-165.041 472,-180 467.924,-190.74 460.565,-200.698 452.862,-209.016"/>
<polygon fill="black" stroke="black" points="450.327,-206.601 445.775,-216.168 455.3,-211.528 450.327,-206.601"/>
</g>
<!-- 7&#45;&gt;1 -->
<g id="edge26" class="edge"><title>7&#45;&gt;1</title>
<path fill="none" stroke="black" d="M434.301,-252.163C440.262,-270.937 447.785,-301.367 462,-324 499.292,-383.377 539.406,-372.814 577,-432 589.018,-450.921 596.504,-475.289 599.446,-493.742"/>
<polygon fill="black" stroke="black" points="595.99,-494.324 600.652,-503.838 602.941,-493.493 595.99,-494.324"/>
</g>
<!-- 7&#45;&gt;3 -->
<g id="edge27" class="edge"><title>7&#45;&gt;3</title>
<path fill="none" stroke="black" d="M396.907,-251.354C347.934,-277.359 246.966,-328.091 187.791,-356.49"/>
<polygon fill="black" stroke="black" points="186.181,-353.38 178.667,-360.849 189.199,-359.696 186.181,-353.38"/>
</g>
<!-- 7&#45;&gt;5 -->
<g id="edge28" class="edge"><title>7&#45;&gt;5</title>
<path fill="none" stroke="black" d="M443.337,-216.134C457.891,-205.875 478.243,-192.401 496,-180 527.502,-158 562.825,-131.841 588.851,-113.599"/>
<polygon fill="black" stroke="black" points="591.082,-116.311 597.302,-107.734 587.091,-110.56 591.082,-116.311"/>
</g>
<!-- 8 -->
<g id="node9" class="node"><title>8</title>
<ellipse fill="none" stroke="black" cx="321" cy="-162" rx="142.006" ry="18"/>
<text text-anchor="middle" x="321" y="-158.3" font-family="Times,serif" font-size="14.00">Graphs with custom graph properties</text>
</g>
<!-- 7&#45;&gt;8 -->
<g id="edge29" class="edge"><title>7&#45;&gt;8</title>
<path fill="none" stroke="black" d="M400.353,-216.411C386.696,-207.218 369.519,-195.657 354.642,-185.643"/>
<polygon fill="black" stroke="black" points="356.442,-182.636 346.192,-179.956 352.534,-188.444 356.442,-182.636"/>
</g>
<!-- 8&#45;&gt;1 -->
<g id="edge30" class="edge"><title>8&#45;&gt;1</title>
<path fill="none" stroke="black" d="M317.128,-180.007C308.306,-218.548 285.86,-315.451 265,-396 256.9,-427.275 233.977,-443.468 255,-468 283.582,-501.353 391.075,-513.896 478.018,-518.52"/>
<polygon fill="black" stroke="black" points="478.079,-522.028 488.242,-519.033 478.43,-515.037 478.079,-522.028"/>
</g>
<!-- 8&#45;&gt;3 -->
<g id="edge31" class="edge"><title>8&#45;&gt;3</title>
<path fill="none" stroke="black" d="M303.573,-180.275C293.515,-190.45 280.765,-203.7 270,-216 229.414,-262.373 185.379,-319.39 160.989,-351.626"/>
<polygon fill="black" stroke="black" points="158.165,-349.558 154.937,-359.649 163.754,-353.773 158.165,-349.558"/>
</g>
<!-- 8&#45;&gt;5 -->
<g id="edge32" class="edge"><title>8&#45;&gt;5</title>
<path fill="none" stroke="black" d="M386.43,-145.983C435.906,-134.628 503.768,-119.053 554.638,-107.378"/>
<polygon fill="black" stroke="black" points="555.611,-110.746 564.575,-105.098 554.045,-103.923 555.611,-110.746"/>
</g>
</g>
</svg>
