<?xml version="1.0" encoding="UTF-8" standalone="no"?>
<!DOCTYPE svg PUBLIC "-//W3C//DTD SVG 1.1//EN"
 "http://www.w3.org/Graphics/SVG/1.1/DTD/svg11.dtd">
<!-- Generated by graphviz version 2.38.0 (20140413.2041)
 -->
<!-- Title: G Pages: 1 -->
<svg width="104pt" height="116pt"
 viewBox="0.00 0.00 103.99 116.00" xmlns="http://www.w3.org/2000/svg" xmlns:xlink="http://www.w3.org/1999/xlink">
<g id="graph0" class="graph" transform="scale(1 1) rotate(0) translate(4 112)">
<title>G</title>
<polygon fill="white" stroke="none" points="-4,4 -4,-112 99.9931,-112 99.9931,4 -4,4"/>
<!-- 0 -->
<g id="node1" class="node"><title>0</title>
<ellipse fill="none" stroke="black" cx="38.9965" cy="-90" rx="30.5947" ry="18"/>
<text text-anchor="middle" x="38.9965" y="-86.3" font-family="Times,serif" font-size="14.00">Good</text>
</g>
<!-- 0&#45;&gt;0 -->
<g id="edge1" class="edge"><title>0&#45;&gt;0</title>
<path fill="none" stroke="black" d="M60.9646,-102.547C74.5833,-105.573 87.5438,-101.391 87.5438,-90 87.5438,-81.546 80.4046,-77.0626 71.1557,-76.5497"/>
<polygon fill="black" stroke="black" points="70.6167,-73.0836 60.9646,-77.4525 71.2344,-80.0563 70.6167,-73.0836"/>
</g>
<!-- 1 -->
<g id="node2" class="node"><title>1</title>
<ellipse fill="none" stroke="black" cx="38.9965" cy="-18" rx="38.9931" ry="18"/>
<text text-anchor="middle" x="38.9965" y="-14.3" font-family="Times,serif" font-size="14.00">Not bad</text>
</g>
<!-- 0&#45;&gt;1 -->
<g id="edge2" class="edge"><title>0&#45;&gt;1</title>
<path fill="none" stroke="black" d="M33.1183,-72.055C32.3002,-64.3456 32.0579,-55.0269 32.3914,-46.3642"/>
<polygon fill="black" stroke="black" points="35.8908,-46.4915 33.0837,-36.2753 28.9072,-46.0122 35.8908,-46.4915"/>
</g>
<!-- 1&#45;&gt;0 -->
<g id="edge3" class="edge"><title>1&#45;&gt;0</title>
<path fill="none" stroke="black" d="M44.9094,-36.2753C45.7111,-44.03 45.937,-53.3618 45.5871,-62.0054"/>
<polygon fill="black" stroke="black" points="42.0907,-61.8325 44.8748,-72.055 49.0731,-62.3275 42.0907,-61.8325"/>
</g>
<!-- 1&#45;&gt;1 -->
<g id="edge4" class="edge"><title>1&#45;&gt;1</title>
<path fill="none" stroke="black" d="M66.5605,-30.854C81.8831,-33.2534 95.9931,-28.9688 95.9931,-18 95.9931,-9.51636 87.5524,-5.03117 76.6384,-4.54444"/>
<polygon fill="black" stroke="black" points="76.3342,-1.05627 66.5605,-5.146 76.7513,-8.04383 76.3342,-1.05627"/>
</g>
</g>
</svg>
