<?xml version="1.0" encoding="UTF-8" standalone="no"?>
<!DOCTYPE svg PUBLIC "-//W3C//DTD SVG 1.1//EN"
 "http://www.w3.org/Graphics/SVG/1.1/DTD/svg11.dtd">
<!-- Generated by graphviz version 2.38.0 (20140413.2041)
 -->
<!-- Title: G Pages: 1 -->
<svg width="329pt" height="131pt"
 viewBox="0.00 0.00 329.08 131.00" xmlns="http://www.w3.org/2000/svg" xmlns:xlink="http://www.w3.org/1999/xlink">
<g id="graph0" class="graph" transform="scale(1 1) rotate(0) translate(4 127)">
<title>G</title>
<polygon fill="white" stroke="none" points="-4,4 -4,-127 325.083,-127 325.083,4 -4,4"/>
<!-- 0 -->
<g id="node1" class="node"><title>0</title>
<ellipse fill="none" stroke="black" cx="95.5415" cy="-105" rx="95.5831" ry="18"/>
<text text-anchor="middle" x="95.5415" y="-101.3" font-family="Times,serif" font-size="14.00">Sunny,Yellow thing,1,2</text>
</g>
<!-- 0&#45;&gt;0 -->
<g id="edge1" class="edge"><title>0&#45;&gt;0</title>
<path fill="none" stroke="black" d="M182.657,-112.413C198.216,-111.45 209.083,-108.979 209.083,-105 209.083,-101.954 202.713,-99.7916 192.744,-98.5128"/>
<polygon fill="black" stroke="black" points="192.935,-95.0158 182.657,-97.5869 192.296,-101.986 192.935,-95.0158"/>
<text text-anchor="middle" x="265.083" y="-101.3" font-family="Times,serif" font-size="14.00">Sometimes,20%,1,2</text>
</g>
<!-- 1 -->
<g id="node2" class="node"><title>1</title>
<ellipse fill="none" stroke="black" cx="95.5415" cy="-18" rx="89.0842" ry="18"/>
<text text-anchor="middle" x="95.5415" y="-14.3" font-family="Times,serif" font-size="14.00">Rainy,Grey things,3,4</text>
</g>
<!-- 0&#45;&gt;1 -->
<g id="edge2" class="edge"><title>0&#45;&gt;1</title>
<path fill="none" stroke="black" d="M62.3093,-88.0843C55.1881,-83.0265 48.5942,-76.6965 44.5415,-69 38.9801,-58.4383 44.8129,-48.7495 54.257,-40.7707"/>
<polygon fill="black" stroke="black" points="56.4646,-43.4921 62.4566,-34.7544 52.3235,-37.8483 56.4646,-43.4921"/>
<text text-anchor="middle" x="85.5415" y="-57.8" font-family="Times,serif" font-size="14.00">Often,80%,3,4</text>
</g>
<!-- 1&#45;&gt;0 -->
<g id="edge3" class="edge"><title>1&#45;&gt;0</title>
<path fill="none" stroke="black" d="M115.349,-35.7261C123.899,-45.0569 131.032,-57.1579 126.542,-69 125.196,-72.5482 123.308,-75.9678 121.121,-79.1872"/>
<polygon fill="black" stroke="black" points="118.249,-77.1761 114.799,-87.1932 123.743,-81.5144 118.249,-77.1761"/>
<text text-anchor="middle" x="171.042" y="-57.8" font-family="Times,serif" font-size="14.00">Rarely,10%,5,6</text>
</g>
<!-- 1&#45;&gt;1 -->
<g id="edge4" class="edge"><title>1&#45;&gt;1</title>
<path fill="none" stroke="black" d="M176.758,-25.4708C191.911,-24.5508 202.584,-22.0605 202.584,-18 202.584,-14.9229 196.455,-12.7475 186.891,-11.474"/>
<polygon fill="black" stroke="black" points="187.039,-7.97268 176.758,-10.5292 186.39,-14.9425 187.039,-7.97268"/>
<text text-anchor="middle" x="247.584" y="-14.3" font-family="Times,serif" font-size="14.00">Mostly,90%,7,8</text>
</g>
</g>
</svg>
