<?xml version="1.0" encoding="UTF-8" standalone="no"?>
<!DOCTYPE svg PUBLIC "-//W3C//DTD SVG 1.1//EN"
 "http://www.w3.org/Graphics/SVG/1.1/DTD/svg11.dtd">
<!-- Generated by graphviz version 2.38.0 (20140413.2041)
 -->
<!-- Title: G Pages: 1 -->
<svg width="116pt" height="188pt"
 viewBox="0.00 0.00 115.69 188.00" xmlns="http://www.w3.org/2000/svg" xmlns:xlink="http://www.w3.org/1999/xlink">
<g id="graph0" class="graph" transform="scale(1 1) rotate(0) translate(4 184)">
<title>G</title>
<polygon fill="white" stroke="none" points="-4,4 -4,-184 111.693,-184 111.693,4 -4,4"/>
<!-- 0 -->
<g id="node1" class="node"><title>0</title>
<ellipse fill="none" stroke="black" cx="65.4469" cy="-162" rx="32.4942" ry="18"/>
<text text-anchor="middle" x="65.4469" y="-158.3" font-family="Times,serif" font-size="14.00">Karen</text>
</g>
<!-- 1 -->
<g id="node2" class="node"><title>1</title>
<ellipse fill="none" stroke="black" cx="34.4469" cy="-90" rx="34.394" ry="18"/>
<text text-anchor="middle" x="34.4469" y="-86.3" font-family="Times,serif" font-size="14.00">Kristel</text>
</g>
<!-- 0&#45;&#45;1 -->
<g id="edge1" class="edge"><title>0&#45;&#45;1</title>
<path fill="none" stroke="black" d="M58.1004,-144.411C53.2303,-133.414 46.8591,-119.027 41.9561,-107.956"/>
</g>
<!-- 2 -->
<g id="node3" class="node"><title>2</title>
<ellipse fill="none" stroke="black" cx="65.4469" cy="-18" rx="42.4939" ry="18"/>
<text text-anchor="middle" x="65.4469" y="-14.3" font-family="Times,serif" font-size="14.00">Kathleen</text>
</g>
<!-- 1&#45;&#45;2 -->
<g id="edge2" class="edge"><title>1&#45;&#45;2</title>
<path fill="none" stroke="black" d="M41.7935,-72.411C46.6635,-61.4141 53.0348,-47.0274 57.9378,-35.9562"/>
</g>
<!-- 2&#45;&#45;0 -->
<g id="edge3" class="edge"><title>2&#45;&#45;0</title>
<path fill="none" stroke="black" d="M70.3161,-36.0209C73.0111,-46.3345 76.0843,-59.8114 77.4469,-72 79.2246,-87.9009 79.2246,-92.0991 77.4469,-108 76.0843,-120.189 73.0111,-133.665 70.3161,-143.979"/>
</g>
</g>
</svg>
