<?xml version="1.0" encoding="UTF-8" standalone="no"?>
<!DOCTYPE svg PUBLIC "-//W3C//DTD SVG 1.1//EN"
 "http://www.w3.org/Graphics/SVG/1.1/DTD/svg11.dtd">
<!-- Generated by graphviz version 2.38.0 (20140413.2041)
 -->
<!-- Title: G Pages: 1 -->
<svg width="300pt" height="372pt"
 viewBox="0.00 0.00 300.28 372.41" xmlns="http://www.w3.org/2000/svg" xmlns:xlink="http://www.w3.org/1999/xlink">
<g id="graph0" class="graph" transform="scale(1 1) rotate(0) translate(4 368.411)">
<title>G</title>
<polygon fill="white" stroke="none" points="-4,4 -4,-368.411 296.276,-368.411 296.276,4 -4,4"/>
<!-- 0 -->
<g id="node1" class="node"><title>0</title>
<ellipse fill="none" stroke="black" cx="137.138" cy="-227.273" rx="137.276" ry="137.276"/>
<text text-anchor="middle" x="137.138" y="-223.573" font-family="Times,serif" font-size="14.00">Sunny,Yellow[[:SPACE:]]thing,1,1</text>
</g>
<!-- 0&#45;&gt;0 -->
<g id="edge1" class="edge"><title>0&#45;&gt;0</title>
<path fill="none" stroke="black" d="M271.452,-255.957C284.208,-250.101 292.276,-240.54 292.276,-227.273 292.276,-217.323 287.737,-209.458 280.087,-203.676"/>
<polygon fill="black" stroke="black" points="281.845,-200.65 271.452,-198.59 278.292,-206.681 281.845,-200.65"/>
</g>
<!-- 1 -->
<g id="node2" class="node"><title>1</title>
<ellipse fill="none" stroke="black" cx="137.138" cy="-36.1356" rx="130.777" ry="18"/>
<text text-anchor="middle" x="137.138" y="-32.4356" font-family="Times,serif" font-size="14.00">Rainy,Grey[[:SPACE:]]things,3,3</text>
</g>
<!-- 0&#45;&gt;1 -->
<g id="edge2" class="edge"><title>0&#45;&gt;1</title>
<path fill="none" stroke="black" d="M131.006,-90.0725C131.306,-80.6406 131.713,-71.8989 132.229,-64.3483"/>
<polygon fill="black" stroke="black" points="135.733,-64.4493 133.063,-54.1964 128.756,-63.8762 135.733,-64.4493"/>
</g>
<!-- 1&#45;&gt;0 -->
<g id="edge3" class="edge"><title>1&#45;&gt;0</title>
<path fill="none" stroke="black" d="M141.212,-54.1964C141.907,-61.193 142.466,-69.9785 142.89,-79.8564"/>
<polygon fill="black" stroke="black" points="139.401,-80.2092 143.269,-90.0725 146.396,-79.9496 139.401,-80.2092"/>
</g>
<!-- 1&#45;&gt;1 -->
<g id="edge4" class="edge"><title>1&#45;&gt;1</title>
<path fill="none" stroke="black" d="M161.633,-53.9519C213.589,-82.6163 285.776,-76.6776 285.776,-36.1356 285.776,2.11009 221.535,9.56142 170.64,-13.7816"/>
<polygon fill="black" stroke="black" points="168.989,-10.694 161.633,-18.3193 172.139,-16.9454 168.989,-10.694"/>
</g>
</g>
</svg>
