<?xml version="1.0" encoding="UTF-8" standalone="no"?>
<!DOCTYPE svg PUBLIC "-//W3C//DTD SVG 1.1//EN"
 "http://www.w3.org/Graphics/SVG/1.1/DTD/svg11.dtd">
<!-- Generated by graphviz version 2.38.0 (20140413.2041)
 -->
<!-- Title: G Pages: 1 -->
<svg width="307pt" height="218pt"
 viewBox="0.00 0.00 306.74 218.00" xmlns="http://www.w3.org/2000/svg" xmlns:xlink="http://www.w3.org/1999/xlink">
<g id="graph0" class="graph" transform="scale(1 1) rotate(0) translate(4 214)">
<title>G</title>
<polygon fill="white" stroke="none" points="-4,4 -4,-214 302.743,-214 302.743,4 -4,4"/>
<!-- 0 -->
<g id="node1" class="node"><title>0</title>
<ellipse fill="none" stroke="black" cx="163.743" cy="-192" rx="61.1893" ry="18"/>
<text text-anchor="middle" x="163.743" y="-188.3" font-family="Times,serif" font-size="14.00">top,source,0,0</text>
</g>
<!-- 1 -->
<g id="node2" class="node"><title>1</title>
<ellipse fill="none" stroke="black" cx="74.7434" cy="-105" rx="74.9875" ry="18"/>
<text text-anchor="middle" x="74.7434" y="-101.3" font-family="Times,serif" font-size="14.00">right,target,3.14,0</text>
</g>
<!-- 0&#45;&#45;1 -->
<g id="edge1" class="edge"><title>0&#45;&#45;1</title>
<path fill="none" stroke="black" d="M139.856,-175.392C131.846,-169.697 123.09,-162.941 115.743,-156 105.135,-145.978 94.7283,-133.241 87.0536,-123.131"/>
<text text-anchor="middle" x="148.743" y="-144.8" font-family="Times,serif" font-size="14.00">AB,first,0,0</text>
</g>
<!-- 2 -->
<g id="node3" class="node"><title>2</title>
<ellipse fill="none" stroke="black" cx="130.743" cy="-18" rx="69.5877" ry="18"/>
<text text-anchor="middle" x="130.743" y="-14.3" font-family="Times,serif" font-size="14.00">left,target,0,3.14</text>
</g>
<!-- 1&#45;&#45;2 -->
<g id="edge2" class="edge"><title>1&#45;&#45;2</title>
<path fill="none" stroke="black" d="M66.6014,-86.73C63.0691,-76.5704 60.915,-63.8303 66.7434,-54 72.1686,-44.8496 80.9242,-37.9358 90.2404,-32.7761"/>
<text text-anchor="middle" x="124.243" y="-57.8" font-family="Times,serif" font-size="14.00">BC,second,3.14,3.14</text>
</g>
<!-- 2&#45;&#45;0 -->
<g id="edge3" class="edge"><title>2&#45;&#45;0</title>
<path fill="none" stroke="black" d="M162.651,-33.9936C170.273,-39.1972 177.441,-45.8284 181.743,-54 202.865,-94.1122 192.409,-111.939 181.743,-156 180.232,-162.243 177.404,-168.62 174.43,-174.191"/>
<text text-anchor="middle" x="246.743" y="-101.3" font-family="Times,serif" font-size="14.00">CA,third,3.14,3.14</text>
</g>
</g>
</svg>
