<?xml version="1.0" encoding="UTF-8" standalone="no"?>
<!DOCTYPE svg PUBLIC "-//W3C//DTD SVG 1.1//EN"
 "http://www.w3.org/Graphics/SVG/1.1/DTD/svg11.dtd">
<!-- Generated by graphviz version 2.36.0 (20140111.2315)
 -->
<!-- Title: G Pages: 1 -->
<svg width="216pt" height="116pt"
 viewBox="0.00 0.00 216.00 116.00" xmlns="http://www.w3.org/2000/svg" xmlns:xlink="http://www.w3.org/1999/xlink">
<g id="graph0" class="graph" transform="scale(1 1) rotate(0) translate(4 112)">
<title>G</title>
<polygon fill="white" stroke="none" points="-4,4 -4,-112 212,-112 212,4 -4,4"/>
<!-- 0 -->
<g id="node1" class="node"><title>0</title>
<ellipse fill="none" stroke="black" cx="95" cy="-90" rx="95.3122" ry="18"/>
<text text-anchor="middle" x="95" y="-86.3" font-family="Times,serif" font-size="14.00">Sunny,Yellow thing,1,2</text>
</g>
<!-- 0&#45;&gt;0 -->
<g id="edge1" class="edge"><title>0&#45;&gt;0</title>
<path fill="none" stroke="black" d="M158.891,-103.381C185.47,-104.304 208,-99.8438 208,-90 208,-81.4252 190.904,-76.9352 168.928,-76.5301"/>
<polygon fill="black" stroke="black" points="168.86,-73.0305 158.891,-76.6187 168.922,-80.0302 168.86,-73.0305"/>
</g>
<!-- 1 -->
<g id="node2" class="node"><title>1</title>
<ellipse fill="none" stroke="black" cx="95" cy="-18" rx="89.0632" ry="18"/>
<text text-anchor="middle" x="95" y="-14.3" font-family="Times,serif" font-size="14.00">Rainy,Grey things,3,4</text>
</g>
<!-- 0&#45;&gt;1 -->
<g id="edge2" class="edge"><title>0&#45;&gt;1</title>
<path fill="none" stroke="black" d="M89.0843,-71.6966C88.2886,-63.9827 88.0621,-54.7125 88.4047,-46.1124"/>
<polygon fill="black" stroke="black" points="91.8984,-46.3243 89.105,-36.1043 84.9154,-45.8356 91.8984,-46.3243"/>
</g>
<!-- 1&#45;&gt;0 -->
<g id="edge3" class="edge"><title>1&#45;&gt;0</title>
<path fill="none" stroke="black" d="M100.895,-36.1043C101.701,-43.7913 101.937,-53.0537 101.604,-61.6651"/>
<polygon fill="black" stroke="black" points="98.1085,-61.4805 100.916,-71.6966 105.092,-61.9597 98.1085,-61.4805"/>
</g>
<!-- 1&#45;&gt;1 -->
<g id="edge4" class="edge"><title>1&#45;&gt;1</title>
<path fill="none" stroke="black" d="M154.959,-31.3607C180.36,-32.3676 202,-27.9141 202,-18 202,-9.44138 185.873,-4.9522 165.121,-4.53247"/>
<polygon fill="black" stroke="black" points="164.922,-1.03427 154.959,-4.63925 164.995,-8.03388 164.922,-1.03427"/>
</g>
</g>
</svg>
