<?xml version="1.0" encoding="UTF-8" standalone="no"?>
<!DOCTYPE svg PUBLIC "-//W3C//DTD SVG 1.1//EN"
 "http://www.w3.org/Graphics/SVG/1.1/DTD/svg11.dtd">
<!-- Generated by graphviz version 2.38.0 (20140413.2041)
 -->
<!-- Title: G Pages: 1 -->
<svg width="255pt" height="827pt"
 viewBox="0.00 0.00 255.00 827.00" xmlns="http://www.w3.org/2000/svg" xmlns:xlink="http://www.w3.org/1999/xlink">
<g id="graph0" class="graph" transform="scale(1 1) rotate(0) translate(4 823)">
<title>G</title>
<polygon fill="white" stroke="none" points="-4,4 -4,-823 251,-823 251,4 -4,4"/>
<!-- 0 -->
<g id="node1" class="node"><title>0</title>
<ellipse fill="none" stroke="black" cx="202" cy="-801" rx="27" ry="18"/>
<text text-anchor="middle" x="202" y="-797.3" font-family="Times,serif" font-size="14.00">A</text>
</g>
<!-- 1 -->
<g id="node2" class="node"><title>1</title>
<ellipse fill="none" stroke="black" cx="147" cy="-714" rx="27" ry="18"/>
<text text-anchor="middle" x="147" y="-710.3" font-family="Times,serif" font-size="14.00">B</text>
</g>
<!-- 0&#45;&#45;1 -->
<g id="edge1" class="edge"><title>0&#45;&#45;1</title>
<path fill="none" stroke="black" d="M191.655,-784.012C181.822,-768.815 167.116,-746.089 157.299,-730.916"/>
<text text-anchor="middle" x="182" y="-753.8" font-family="Times,serif" font-size="14.00">F</text>
</g>
<!-- 5 -->
<g id="node6" class="node"><title>5</title>
<ellipse fill="none" stroke="black" cx="144" cy="-105" rx="27" ry="18"/>
<text text-anchor="middle" x="144" y="-101.3" font-family="Times,serif" font-size="14.00">a</text>
</g>
<!-- 0&#45;&#45;5 -->
<g id="edge6" class="edge"><title>0&#45;&#45;5</title>
<path fill="none" stroke="black" d="M213.608,-784.627C224.783,-768.269 240,-741.186 240,-715 240,-715 240,-715 240,-191 240,-152.266 195.65,-126.918 167.239,-114.654"/>
<text text-anchor="middle" x="243.5" y="-449.3" font-family="Times,serif" font-size="14.00">0</text>
</g>
<!-- 2 -->
<g id="node3" class="node"><title>2</title>
<ellipse fill="none" stroke="black" cx="74" cy="-627" rx="27" ry="18"/>
<text text-anchor="middle" x="74" y="-623.3" font-family="Times,serif" font-size="14.00">C</text>
</g>
<!-- 1&#45;&#45;2 -->
<g id="edge2" class="edge"><title>1&#45;&#45;2</title>
<path fill="none" stroke="black" d="M133.949,-697.804C120.662,-682.332 100.184,-658.489 86.9379,-643.065"/>
<text text-anchor="middle" x="120" y="-666.8" font-family="Times,serif" font-size="14.00">G</text>
</g>
<!-- 6 -->
<g id="node7" class="node"><title>6</title>
<ellipse fill="none" stroke="black" cx="144" cy="-279" rx="27" ry="18"/>
<text text-anchor="middle" x="144" y="-275.3" font-family="Times,serif" font-size="14.00">b</text>
</g>
<!-- 1&#45;&#45;6 -->
<g id="edge7" class="edge"><title>1&#45;&#45;6</title>
<path fill="none" stroke="black" d="M149.897,-695.8C152.528,-678.67 156,-651.595 156,-628 156,-628 156,-628 156,-365 156,-341.155 151.312,-313.913 147.797,-296.835"/>
<text text-anchor="middle" x="159.5" y="-492.8" font-family="Times,serif" font-size="14.00">1</text>
</g>
<!-- 3 -->
<g id="node4" class="node"><title>3</title>
<ellipse fill="none" stroke="black" cx="74" cy="-540" rx="27" ry="18"/>
<text text-anchor="middle" x="74" y="-536.3" font-family="Times,serif" font-size="14.00">D</text>
</g>
<!-- 2&#45;&#45;3 -->
<g id="edge3" class="edge"><title>2&#45;&#45;3</title>
<path fill="none" stroke="black" d="M74,-608.799C74,-594.052 74,-572.915 74,-558.175"/>
<text text-anchor="middle" x="79" y="-579.8" font-family="Times,serif" font-size="14.00">H</text>
</g>
<!-- 7 -->
<g id="node8" class="node"><title>7</title>
<ellipse fill="none" stroke="black" cx="89" cy="-18" rx="27" ry="18"/>
<text text-anchor="middle" x="89" y="-14.3" font-family="Times,serif" font-size="14.00">c</text>
</g>
<!-- 2&#45;&#45;7 -->
<g id="edge8" class="edge"><title>2&#45;&#45;7</title>
<path fill="none" stroke="black" d="M54.1694,-614.678C32.2497,-600.518 0,-574.066 0,-541 0,-541 0,-541 0,-104 0,-67.2502 40.176,-41.5126 66.5415,-28.579"/>
<text text-anchor="middle" x="3.5" y="-318.8" font-family="Times,serif" font-size="14.00">2</text>
</g>
<!-- 4 -->
<g id="node5" class="node"><title>4</title>
<ellipse fill="none" stroke="black" cx="101" cy="-453" rx="27" ry="18"/>
<text text-anchor="middle" x="101" y="-449.3" font-family="Times,serif" font-size="14.00">E</text>
</g>
<!-- 3&#45;&#45;4 -->
<g id="edge4" class="edge"><title>3&#45;&#45;4</title>
<path fill="none" stroke="black" d="M79.3343,-522.207C84.0678,-507.305 90.9466,-485.649 95.6768,-470.758"/>
<text text-anchor="middle" x="92.5" y="-492.8" font-family="Times,serif" font-size="14.00">I</text>
</g>
<!-- 8 -->
<g id="node9" class="node"><title>8</title>
<ellipse fill="none" stroke="black" cx="144" cy="-192" rx="27" ry="18"/>
<text text-anchor="middle" x="144" y="-188.3" font-family="Times,serif" font-size="14.00">d</text>
</g>
<!-- 3&#45;&#45;8 -->
<g id="edge9" class="edge"><title>3&#45;&#45;8</title>
<path fill="none" stroke="black" d="M65.2941,-522.906C57.0746,-506.185 46,-479.015 46,-454 46,-454 46,-454 46,-278 46,-238.587 91.7954,-213.338 120.775,-201.306"/>
<text text-anchor="middle" x="49.5" y="-362.3" font-family="Times,serif" font-size="14.00">3</text>
</g>
<!-- 4&#45;&#45;0 -->
<g id="edge5" class="edge"><title>4&#45;&#45;0</title>
<path fill="none" stroke="black" d="M124.68,-461.997C154.533,-473.757 202,-498.779 202,-539 202,-715 202,-715 202,-715 202,-738.464 202,-765.57 202,-782.744"/>
<text text-anchor="middle" x="205" y="-623.3" font-family="Times,serif" font-size="14.00">J</text>
</g>
<!-- 9 -->
<g id="node10" class="node"><title>9</title>
<ellipse fill="none" stroke="black" cx="101" cy="-366" rx="27" ry="18"/>
<text text-anchor="middle" x="101" y="-362.3" font-family="Times,serif" font-size="14.00">e</text>
</g>
<!-- 4&#45;&#45;9 -->
<g id="edge10" class="edge"><title>4&#45;&#45;9</title>
<path fill="none" stroke="black" d="M101,-434.799C101,-420.052 101,-398.915 101,-384.175"/>
<text text-anchor="middle" x="104.5" y="-405.8" font-family="Times,serif" font-size="14.00">4</text>
</g>
<!-- 5&#45;&#45;7 -->
<g id="edge11" class="edge"><title>5&#45;&#45;7</title>
<path fill="none" stroke="black" d="M133.655,-88.0122C123.822,-72.8155 109.116,-50.0891 99.2987,-34.9162"/>
<text text-anchor="middle" x="122.5" y="-57.8" font-family="Times,serif" font-size="14.00">f</text>
</g>
<!-- 6&#45;&#45;8 -->
<g id="edge12" class="edge"><title>6&#45;&#45;8</title>
<path fill="none" stroke="black" d="M144,-260.799C144,-246.052 144,-224.915 144,-210.175"/>
<text text-anchor="middle" x="147.5" y="-231.8" font-family="Times,serif" font-size="14.00">g</text>
</g>
<!-- 7&#45;&#45;9 -->
<g id="edge13" class="edge"><title>7&#45;&#45;9</title>
<path fill="none" stroke="black" d="M89,-36.2564C89,-53.4297 89,-80.5365 89,-104 89,-280 89,-280 89,-280 89,-303.845 93.6875,-331.087 97.2031,-348.165"/>
<text text-anchor="middle" x="92.5" y="-188.3" font-family="Times,serif" font-size="14.00">h</text>
</g>
<!-- 8&#45;&#45;5 -->
<g id="edge14" class="edge"><title>8&#45;&#45;5</title>
<path fill="none" stroke="black" d="M144,-173.799C144,-159.052 144,-137.915 144,-123.175"/>
<text text-anchor="middle" x="146" y="-144.8" font-family="Times,serif" font-size="14.00">i</text>
</g>
<!-- 9&#45;&#45;6 -->
<g id="edge15" class="edge"><title>9&#45;&#45;6</title>
<path fill="none" stroke="black" d="M109.291,-348.611C116.905,-333.56 128.128,-311.374 135.735,-296.339"/>
<text text-anchor="middle" x="128" y="-318.8" font-family="Times,serif" font-size="14.00">j</text>
</g>
</g>
</svg>
