<?xml version="1.0" encoding="UTF-8" standalone="no"?>
<!DOCTYPE svg PUBLIC "-//W3C//DTD SVG 1.1//EN"
 "http://www.w3.org/Graphics/SVG/1.1/DTD/svg11.dtd">
<!-- Generated by graphviz version 2.36.0 (20140111.2315)
 -->
<!-- Title: G Pages: 1 -->
<svg width="115pt" height="188pt"
 viewBox="0.00 0.00 115.00 188.00" xmlns="http://www.w3.org/2000/svg" xmlns:xlink="http://www.w3.org/1999/xlink">
<g id="graph0" class="graph" transform="scale(1 1) rotate(0) translate(4 184)">
<title>G</title>
<polygon fill="white" stroke="none" points="-4,4 -4,-184 111,-184 111,4 -4,4"/>
<!-- 0 -->
<g id="node1" class="node"><title>0</title>
<ellipse fill="none" stroke="black" cx="65" cy="-162" rx="32.2457" ry="18"/>
<text text-anchor="middle" x="65" y="-158.3" font-family="Times,serif" font-size="14.00">Karen</text>
</g>
<!-- 1 -->
<g id="node2" class="node"><title>1</title>
<ellipse fill="none" stroke="black" cx="34" cy="-90" rx="34.1708" ry="18"/>
<text text-anchor="middle" x="34" y="-86.3" font-family="Times,serif" font-size="14.00">Kristel</text>
</g>
<!-- 0&#45;&#45;1 -->
<g id="edge1" class="edge"><title>0&#45;&#45;1</title>
<path fill="none" stroke="black" d="M57.6534,-144.411C52.7834,-133.414 46.4122,-119.027 41.5092,-107.956"/>
</g>
<!-- 2 -->
<g id="node3" class="node"><title>2</title>
<ellipse fill="none" stroke="black" cx="65" cy="-18" rx="42.3701" ry="18"/>
<text text-anchor="middle" x="65" y="-14.3" font-family="Times,serif" font-size="14.00">Kathleen</text>
</g>
<!-- 1&#45;&#45;2 -->
<g id="edge2" class="edge"><title>1&#45;&#45;2</title>
<path fill="none" stroke="black" d="M41.3466,-72.411C46.2166,-61.4141 52.5878,-47.0274 57.4908,-35.9562"/>
</g>
<!-- 2&#45;&#45;0 -->
<g id="edge3" class="edge"><title>2&#45;&#45;0</title>
<path fill="none" stroke="black" d="M69.8691,-36.0209C72.5642,-46.3345 75.6374,-59.8114 77,-72 78.7776,-87.9009 78.7776,-92.0991 77,-108 75.6374,-120.189 72.5642,-133.665 69.8691,-143.979"/>
</g>
</g>
</svg>
