<?xml version="1.0" encoding="UTF-8" standalone="no"?>
<!DOCTYPE svg PUBLIC "-//W3C//DTD SVG 1.1//EN"
 "http://www.w3.org/Graphics/SVG/1.1/DTD/svg11.dtd">
<!-- Generated by graphviz version 2.38.0 (20140413.2041)
 -->
<!-- Title: G Pages: 1 -->
<svg width="206pt" height="131pt"
 viewBox="0.00 0.00 206.09 131.00" xmlns="http://www.w3.org/2000/svg" xmlns:xlink="http://www.w3.org/1999/xlink">
<g id="graph0" class="graph" transform="scale(1 1) rotate(0) translate(4 127)">
<title>G</title>
<polygon fill="white" stroke="none" points="-4,4 -4,-127 202.09,-127 202.09,4 -4,4"/>
<!-- 0 -->
<g id="node1" class="node"><title>0</title>
<ellipse fill="none" stroke="black" cx="56.545" cy="-105" rx="34.394" ry="18"/>
<text text-anchor="middle" x="56.545" y="-101.3" font-family="Times,serif" font-size="14.00">Happy</text>
</g>
<!-- 0&#45;&gt;0 -->
<g id="edge1" class="edge"><title>0&#45;&gt;0</title>
<path fill="none" stroke="black" d="M87.7741,-112.858C99.4121,-113.115 108.992,-110.496 108.992,-105 108.992,-101.221 104.464,-98.8026 97.8522,-97.7436"/>
<polygon fill="black" stroke="black" points="97.9648,-94.2442 87.7741,-97.1423 97.5478,-101.232 97.9648,-94.2442"/>
<text text-anchor="middle" x="122.492" y="-101.3" font-family="Times,serif" font-size="14.00">Fruit</text>
</g>
<!-- 1 -->
<g id="node2" class="node"><title>1</title>
<ellipse fill="none" stroke="black" cx="56.545" cy="-18" rx="56.59" ry="18"/>
<text text-anchor="middle" x="56.545" y="-14.3" font-family="Times,serif" font-size="14.00">Not unhappy</text>
</g>
<!-- 0&#45;&gt;1 -->
<g id="edge2" class="edge"><title>0&#45;&gt;1</title>
<path fill="none" stroke="black" d="M32.0303,-91.9589C23.274,-86.2944 14.3842,-78.6373 9.54498,-69 4.14544,-58.2468 10.3222,-48.1958 19.7814,-39.9667"/>
<polygon fill="black" stroke="black" points="22.0743,-42.6201 27.9127,-33.7792 17.8353,-37.0496 22.0743,-42.6201"/>
<text text-anchor="middle" x="46.045" y="-57.8" font-family="Times,serif" font-size="14.00">No chocolate</text>
</g>
<!-- 1&#45;&gt;0 -->
<g id="edge3" class="edge"><title>1&#45;&gt;0</title>
<path fill="none" stroke="black" d="M72.8448,-35.5313C80.1786,-45.0005 86.4166,-57.2958 82.545,-69 81.2709,-72.8515 79.3908,-76.6244 77.2142,-80.1827"/>
<polygon fill="black" stroke="black" points="74.2505,-78.313 71.3694,-88.5086 79.9797,-82.335 74.2505,-78.313"/>
<text text-anchor="middle" x="111.045" y="-57.8" font-family="Times,serif" font-size="14.00">Chocolate</text>
</g>
<!-- 1&#45;&gt;1 -->
<g id="edge4" class="edge"><title>1&#45;&gt;1</title>
<path fill="none" stroke="black" d="M107.762,-25.7938C121.061,-25.3147 131.09,-22.7168 131.09,-18 131.09,-14.573 125.796,-12.2644 117.8,-11.0745"/>
<polygon fill="black" stroke="black" points="118.026,-7.58107 107.762,-10.2062 117.423,-14.555 118.026,-7.58107"/>
<text text-anchor="middle" x="164.59" y="-14.3" font-family="Times,serif" font-size="14.00">Other candy</text>
</g>
</g>
</svg>
