<?xml version="1.0" encoding="UTF-8" standalone="no"?>
<!DOCTYPE svg PUBLIC "-//W3C//DTD SVG 1.1//EN"
 "http://www.w3.org/Graphics/SVG/1.1/DTD/svg11.dtd">
<!-- Generated by graphviz version 2.36.0 (20140111.2315)
 -->
<!-- Title: G Pages: 1 -->
<svg width="300pt" height="116pt"
 viewBox="0.00 0.00 300.00 116.00" xmlns="http://www.w3.org/2000/svg" xmlns:xlink="http://www.w3.org/1999/xlink">
<g id="graph0" class="graph" transform="scale(1 1) rotate(0) translate(4 112)">
<title>G</title>
<polygon fill="white" stroke="none" points="-4,4 -4,-112 296,-112 296,4 -4,4"/>
<!-- 0 -->
<g id="node1" class="node"><title>0</title>
<ellipse fill="none" stroke="black" cx="137" cy="-90" rx="137.207" ry="18"/>
<text text-anchor="middle" x="137" y="-86.3" font-family="Times,serif" font-size="14.00">Sunny,Yellow[[:SPACE:]]thing,1,1</text>
</g>
<!-- 0&#45;&gt;0 -->
<g id="edge1" class="edge"><title>0&#45;&gt;0</title>
<path fill="none" stroke="black" d="M228.136,-103.454C263.051,-104.012 292,-99.5273 292,-90 292,-81.4031 268.429,-76.9121 238.173,-76.5271"/>
<polygon fill="black" stroke="black" points="238.129,-73.0271 228.136,-76.5463 238.143,-80.027 238.129,-73.0271"/>
</g>
<!-- 1 -->
<g id="node2" class="node"><title>1</title>
<ellipse fill="none" stroke="black" cx="137" cy="-18" rx="130.457" ry="18"/>
<text text-anchor="middle" x="137" y="-14.3" font-family="Times,serif" font-size="14.00">Rainy,Grey[[:SPACE:]]things,3,3</text>
</g>
<!-- 0&#45;&gt;1 -->
<g id="edge2" class="edge"><title>0&#45;&gt;1</title>
<path fill="none" stroke="black" d="M131.084,-71.6966C130.289,-63.9827 130.062,-54.7125 130.405,-46.1124"/>
<polygon fill="black" stroke="black" points="133.898,-46.3243 131.105,-36.1043 126.915,-45.8356 133.898,-46.3243"/>
</g>
<!-- 1&#45;&gt;0 -->
<g id="edge3" class="edge"><title>1&#45;&gt;0</title>
<path fill="none" stroke="black" d="M142.895,-36.1043C143.701,-43.7913 143.937,-53.0537 143.604,-61.6651"/>
<polygon fill="black" stroke="black" points="140.109,-61.4805 142.916,-71.6966 147.092,-61.9597 140.109,-61.4805"/>
</g>
<!-- 1&#45;&gt;1 -->
<g id="edge4" class="edge"><title>1&#45;&gt;1</title>
<path fill="none" stroke="black" d="M223.651,-31.4473C257.154,-32.0449 285,-27.5625 285,-18 285,-9.40869 262.523,-4.91797 233.661,-4.52784"/>
<polygon fill="black" stroke="black" points="233.642,-1.02777 223.651,-4.55273 233.66,-8.02775 233.642,-1.02777"/>
</g>
</g>
</svg>
