<?xml version="1.0" encoding="UTF-8" standalone="no"?>
<!DOCTYPE svg PUBLIC "-//W3C//DTD SVG 1.1//EN"
 "http://www.w3.org/Graphics/SVG/1.1/DTD/svg11.dtd">
<!-- Generated by graphviz version 2.36.0 (20140111.2315)
 -->
<!-- Title: G Pages: 1 -->
<svg width="255pt" height="692pt"
 viewBox="0.00 0.00 255.00 692.00" xmlns="http://www.w3.org/2000/svg" xmlns:xlink="http://www.w3.org/1999/xlink">
<g id="graph0" class="graph" transform="scale(1 1) rotate(0) translate(4 688)">
<title>G</title>
<polygon fill="white" stroke="none" points="-4,4 -4,-688 251,-688 251,4 -4,4"/>
<!-- 0 -->
<g id="node1" class="node"><title>0</title>
<ellipse fill="none" stroke="black" cx="82" cy="-666" rx="27" ry="18"/>
<text text-anchor="middle" x="82" y="-662.3" font-family="Times,serif" font-size="14.00">0</text>
</g>
<!-- 1 -->
<g id="node2" class="node"><title>1</title>
<ellipse fill="none" stroke="black" cx="137" cy="-594" rx="27" ry="18"/>
<text text-anchor="middle" x="137" y="-590.3" font-family="Times,serif" font-size="14.00">1</text>
</g>
<!-- 0&#45;&#45;1 -->
<g id="edge1" class="edge"><title>0&#45;&#45;1</title>
<path fill="none" stroke="black" d="M93.9342,-649.811C103.16,-638.07 115.87,-621.893 125.089,-610.159"/>
</g>
<!-- 5 -->
<g id="node6" class="node"><title>5</title>
<ellipse fill="none" stroke="black" cx="27" cy="-90" rx="27" ry="18"/>
<text text-anchor="middle" x="27" y="-86.3" font-family="Times,serif" font-size="14.00">5</text>
</g>
<!-- 0&#45;&#45;5 -->
<g id="edge2" class="edge"><title>0&#45;&#45;5</title>
<path fill="none" stroke="black" d="M71.3954,-649.165C55.4131,-623.72 27,-571.645 27,-523 27,-523 27,-523 27,-233 27,-187.885 27,-134.708 27,-108.049"/>
</g>
<!-- 2 -->
<g id="node3" class="node"><title>2</title>
<ellipse fill="none" stroke="black" cx="192" cy="-522" rx="27" ry="18"/>
<text text-anchor="middle" x="192" y="-518.3" font-family="Times,serif" font-size="14.00">2</text>
</g>
<!-- 1&#45;&#45;2 -->
<g id="edge3" class="edge"><title>1&#45;&#45;2</title>
<path fill="none" stroke="black" d="M148.934,-577.811C158.16,-566.07 170.87,-549.893 180.089,-538.159"/>
</g>
<!-- 6 -->
<g id="node7" class="node"><title>6</title>
<ellipse fill="none" stroke="black" cx="137" cy="-234" rx="27" ry="18"/>
<text text-anchor="middle" x="137" y="-230.3" font-family="Times,serif" font-size="14.00">6</text>
</g>
<!-- 1&#45;&#45;6 -->
<g id="edge4" class="edge"><title>1&#45;&#45;6</title>
<path fill="none" stroke="black" d="M137,-575.951C137,-549.292 137,-496.115 137,-451 137,-451 137,-451 137,-377 137,-331.885 137,-278.708 137,-252.049"/>
</g>
<!-- 3 -->
<g id="node4" class="node"><title>3</title>
<ellipse fill="none" stroke="black" cx="192" cy="-450" rx="27" ry="18"/>
<text text-anchor="middle" x="192" y="-446.3" font-family="Times,serif" font-size="14.00">3</text>
</g>
<!-- 2&#45;&#45;3 -->
<g id="edge5" class="edge"><title>2&#45;&#45;3</title>
<path fill="none" stroke="black" d="M192,-503.697C192,-492.846 192,-478.917 192,-468.104"/>
</g>
<!-- 7 -->
<g id="node8" class="node"><title>7</title>
<ellipse fill="none" stroke="black" cx="82" cy="-18" rx="27" ry="18"/>
<text text-anchor="middle" x="82" y="-14.3" font-family="Times,serif" font-size="14.00">7</text>
</g>
<!-- 2&#45;&#45;7 -->
<g id="edge6" class="edge"><title>2&#45;&#45;7</title>
<path fill="none" stroke="black" d="M204.748,-505.702C212.559,-495.587 222.148,-481.708 228,-468 243.881,-430.801 247,-419.447 247,-379 247,-379 247,-379 247,-161 247,-87.3028 151.264,-43.4881 105.64,-26.792"/>
</g>
<!-- 4 -->
<g id="node5" class="node"><title>4</title>
<ellipse fill="none" stroke="black" cx="82" cy="-378" rx="27" ry="18"/>
<text text-anchor="middle" x="82" y="-374.3" font-family="Times,serif" font-size="14.00">4</text>
</g>
<!-- 3&#45;&#45;4 -->
<g id="edge7" class="edge"><title>3&#45;&#45;4</title>
<path fill="none" stroke="black" d="M172.839,-436.807C152.65,-423.959 121.048,-403.848 100.941,-391.053"/>
</g>
<!-- 8 -->
<g id="node9" class="node"><title>8</title>
<ellipse fill="none" stroke="black" cx="137" cy="-162" rx="27" ry="18"/>
<text text-anchor="middle" x="137" y="-158.3" font-family="Times,serif" font-size="14.00">8</text>
</g>
<!-- 3&#45;&#45;8 -->
<g id="edge8" class="edge"><title>3&#45;&#45;8</title>
<path fill="none" stroke="black" d="M193.502,-432.01C196.37,-392.695 200.129,-292.934 173,-216 168.043,-201.943 158.412,-188.081 150.358,-178.061"/>
</g>
<!-- 4&#45;&#45;0 -->
<g id="edge9" class="edge"><title>4&#45;&#45;0</title>
<path fill="none" stroke="black" d="M82,-396.306C82,-447.407 82,-597.218 82,-647.966"/>
</g>
<!-- 9 -->
<g id="node10" class="node"><title>9</title>
<ellipse fill="none" stroke="black" cx="82" cy="-306" rx="27" ry="18"/>
<text text-anchor="middle" x="82" y="-302.3" font-family="Times,serif" font-size="14.00">9</text>
</g>
<!-- 4&#45;&#45;9 -->
<g id="edge10" class="edge"><title>4&#45;&#45;9</title>
<path fill="none" stroke="black" d="M82,-359.697C82,-348.846 82,-334.917 82,-324.104"/>
</g>
<!-- 5&#45;&#45;7 -->
<g id="edge11" class="edge"><title>5&#45;&#45;7</title>
<path fill="none" stroke="black" d="M38.9342,-73.811C48.1595,-62.0697 60.8696,-45.8932 70.0891,-34.1593"/>
</g>
<!-- 6&#45;&#45;8 -->
<g id="edge12" class="edge"><title>6&#45;&#45;8</title>
<path fill="none" stroke="black" d="M137,-215.697C137,-204.846 137,-190.917 137,-180.104"/>
</g>
<!-- 7&#45;&#45;9 -->
<g id="edge13" class="edge"><title>7&#45;&#45;9</title>
<path fill="none" stroke="black" d="M82,-36.3065C82,-87.4066 82,-237.218 82,-287.966"/>
</g>
<!-- 8&#45;&#45;5 -->
<g id="edge14" class="edge"><title>8&#45;&#45;5</title>
<path fill="none" stroke="black" d="M117.839,-148.807C97.6497,-135.959 66.0475,-115.848 45.941,-103.053"/>
</g>
<!-- 9&#45;&#45;6 -->
<g id="edge15" class="edge"><title>9&#45;&#45;6</title>
<path fill="none" stroke="black" d="M93.9342,-289.811C103.16,-278.07 115.87,-261.893 125.089,-250.159"/>
</g>
</g>
</svg>
