<?xml version="1.0" encoding="UTF-8" standalone="no"?>
<!DOCTYPE svg PUBLIC "-//W3C//DTD SVG 1.1//EN"
 "http://www.w3.org/Graphics/SVG/1.1/DTD/svg11.dtd">
<!-- Generated by graphviz version 2.38.0 (20140413.2041)
 -->
<!-- Title: G Pages: 1 -->
<svg width="420pt" height="974pt"
 viewBox="0.00 0.00 420.00 974.00" xmlns="http://www.w3.org/2000/svg" xmlns:xlink="http://www.w3.org/1999/xlink">
<g id="graph0" class="graph" transform="scale(1 1) rotate(0) translate(4 970)">
<title>G</title>
<polygon fill="white" stroke="none" points="-4,4 -4,-970 416,-970 416,4 -4,4"/>
<!-- 0 -->
<!-- Not$$$SPACE$$$green -->
<g id="node1" class="node"><title>0</title>
<ellipse fill="none" stroke="black" cx="216" cy="-894" rx="36" ry="72"/>
<text text-anchor="middle" x="216" y="-890.3" font-family="Times,serif" font-size="14.00">Red</text>
</g>
<!-- 1 -->
<!-- Not$$$SPACE$$$dark -->
<g id="node2" class="node"><title>1</title>
<ellipse fill="none" stroke="black" cx="108" cy="-627" rx="108" ry="144"/>
<text text-anchor="middle" x="108" y="-623.3" font-family="Times,serif" font-size="14.00">Light$$$SPACE$$$red</text>
</g>
<!-- 0&#45;&#45;1 -->
<!-- Air -->
<g id="edge1" class="edge"><title>0&#45;&#45;1</title>
<path fill="none" stroke="black" d="M193.491,-837.77C183.507,-813.272 171.316,-783.358 159.303,-753.882"/>
<text text-anchor="middle" x="199.5" y="-792.8" font-family="Times,serif" font-size="14.00">Oxygen</text>
</g>
<!-- 2 -->
<!-- Orangy -->
<g id="node3" class="node"><title>2</title>
<ellipse fill="none" stroke="black" cx="202" cy="-216" rx="180" ry="216"/>
<text text-anchor="middle" x="202" y="-212.3" font-family="Times,serif" font-size="14.00">Orange</text>
</g>
<!-- 1&#45;&#45;2 -->
<!-- From$$$SPACE$$$tube -->
<g id="edge2" class="edge"><title>1&#45;&#45;2</title>
<path fill="none" stroke="black" d="M139.497,-488.956C144.272,-468.179 149.288,-446.355 154.314,-424.486"/>
<text text-anchor="middle" x="168" y="-453.8" font-family="Times,serif" font-size="14.00">Helium</text>
</g>
<!-- 2&#45;&#45;0 -->
<!-- Here -->
<g id="edge3" class="edge"><title>2&#45;&#45;0</title>
<path fill="none" stroke="black" d="M222.098,-430.679C223.268,-448.367 224.266,-465.981 225,-483 231.151,-625.534 232.186,-661.514 225,-804 224.679,-810.359 224.23,-816.964 223.703,-823.574"/>
<text text-anchor="middle" x="321" y="-623.3" font-family="Times,serif" font-size="14.00">Stable$$$SPACE$$$temperature</text>
</g>
</g>
</svg>
