<?xml version="1.0" encoding="UTF-8" standalone="no"?>
<!DOCTYPE svg PUBLIC "-//W3C//DTD SVG 1.1//EN"
 "http://www.w3.org/Graphics/SVG/1.1/DTD/svg11.dtd">
<!-- Generated by graphviz version 2.38.0 (20140413.2041)
 -->
<!-- Title: G Pages: 1 -->
<svg width="896pt" height="692pt"
 viewBox="0.00 0.00 896.00 692.00" xmlns="http://www.w3.org/2000/svg" xmlns:xlink="http://www.w3.org/1999/xlink">
<g id="graph0" class="graph" transform="scale(1 1) rotate(0) translate(4 688)">
<title>G</title>
<polygon fill="white" stroke="none" points="-4,4 -4,-688 892,-688 892,4 -4,4"/>
<!-- 0 -->
<g id="node1" class="node"><title>0</title>
<ellipse fill="none" stroke="black" cx="498" cy="-666" rx="102.882" ry="18"/>
<text text-anchor="middle" x="498" y="-662.3" font-family="Times,serif" font-size="14.00">Graphs without properties</text>
</g>
<!-- 1 -->
<g id="node2" class="node"><title>1</title>
<ellipse fill="none" stroke="black" cx="406" cy="-594" rx="110.48" ry="18"/>
<text text-anchor="middle" x="406" y="-590.3" font-family="Times,serif" font-size="14.00">Graphs with named vertices</text>
</g>
<!-- 0&#45;&gt;1 -->
<g id="edge1" class="edge"><title>0&#45;&gt;1</title>
<path fill="none" stroke="black" d="M475.729,-648.055C463.864,-639.027 449.097,-627.792 436.212,-617.987"/>
<polygon fill="black" stroke="black" points="438.143,-615.059 428.066,-611.789 433.905,-620.63 438.143,-615.059"/>
</g>
<!-- 3 -->
<g id="node4" class="node"><title>3</title>
<ellipse fill="none" stroke="black" cx="558" cy="-450" rx="114.28" ry="18"/>
<text text-anchor="middle" x="558" y="-446.3" font-family="Times,serif" font-size="14.00">Graphs with bundled vertices</text>
</g>
<!-- 0&#45;&gt;3 -->
<g id="edge2" class="edge"><title>0&#45;&gt;3</title>
<path fill="none" stroke="black" d="M507.305,-648.073C512.784,-637.793 519.663,-624.318 525,-612 538.526,-580.782 543.824,-573.257 551,-540 555.386,-519.675 557.097,-496.211 557.733,-478.479"/>
<polygon fill="black" stroke="black" points="561.237,-478.348 558.004,-468.259 554.24,-478.163 561.237,-478.348"/>
</g>
<!-- 5 -->
<g id="node6" class="node"><title>5</title>
<ellipse fill="none" stroke="black" cx="553" cy="-162" rx="112.38" ry="18"/>
<text text-anchor="middle" x="553" y="-158.3" font-family="Times,serif" font-size="14.00">Graphs with custom vertices</text>
</g>
<!-- 0&#45;&gt;5 -->
<g id="edge3" class="edge"><title>0&#45;&gt;5</title>
<path fill="none" stroke="black" d="M572.274,-653.513C685.429,-633.888 888,-589.472 888,-523 888,-523 888,-523 888,-305 888,-208.757 769.342,-176.775 673.265,-166.654"/>
<polygon fill="black" stroke="black" points="673.45,-163.155 663.156,-165.66 672.765,-170.122 673.45,-163.155"/>
</g>
<!-- 8 -->
<g id="node9" class="node"><title>8</title>
<ellipse fill="none" stroke="black" cx="217" cy="-306" rx="104.782" ry="18"/>
<text text-anchor="middle" x="217" y="-302.3" font-family="Times,serif" font-size="14.00">Graphs with a graph name</text>
</g>
<!-- 0&#45;&gt;8 -->
<g id="edge4" class="edge"><title>0&#45;&gt;8</title>
<path fill="none" stroke="black" d="M402.434,-659.346C322.909,-648.845 215.066,-619.727 166,-540 124.039,-471.817 139.697,-432.805 173,-360 177.675,-349.781 184.846,-339.923 192.051,-331.537"/>
<polygon fill="black" stroke="black" points="194.771,-333.748 198.889,-323.986 189.583,-329.049 194.771,-333.748"/>
</g>
<!-- 2 -->
<g id="node3" class="node"><title>2</title>
<ellipse fill="none" stroke="black" cx="359" cy="-522" rx="147.574" ry="18"/>
<text text-anchor="middle" x="359" y="-518.3" font-family="Times,serif" font-size="14.00">Graphs with named edges and vertices</text>
</g>
<!-- 1&#45;&gt;2 -->
<g id="edge5" class="edge"><title>1&#45;&gt;2</title>
<path fill="none" stroke="black" d="M394.623,-576.055C389.105,-567.837 382.36,-557.791 376.229,-548.66"/>
<polygon fill="black" stroke="black" points="379.079,-546.626 370.599,-540.275 373.268,-550.529 379.079,-546.626"/>
</g>
<!-- 1&#45;&gt;3 -->
<g id="edge6" class="edge"><title>1&#45;&gt;3</title>
<path fill="none" stroke="black" d="M447.946,-577.215C467.754,-568.778 490.504,-556.63 507,-540 524.214,-522.647 535.305,-496.894 543.311,-477.549"/>
<polygon fill="black" stroke="black" points="546.634,-478.674 547.233,-468.096 540.168,-475.991 546.634,-478.674"/>
</g>
<!-- 1&#45;&gt;5 -->
<g id="edge7" class="edge"><title>1&#45;&gt;5</title>
<path fill="none" stroke="black" d="M489.542,-582.202C613.644,-564.282 832,-523.045 832,-451 832,-451 832,-451 832,-305 832,-259.188 816.978,-243.044 780,-216 747.096,-191.935 705.212,-178.5 666.38,-171.094"/>
<polygon fill="black" stroke="black" points="666.51,-167.562 656.051,-169.249 665.28,-174.453 666.51,-167.562"/>
</g>
<!-- 1&#45;&gt;8 -->
<g id="edge8" class="edge"><title>1&#45;&gt;8</title>
<path fill="none" stroke="black" d="M315.653,-583.601C259.528,-575.501 195.024,-561.635 178,-540 129.765,-478.7 170.343,-378.95 197.709,-332.412"/>
<polygon fill="black" stroke="black" points="200.722,-334.194 202.975,-323.842 194.758,-330.529 200.722,-334.194"/>
</g>
<!-- 2&#45;&gt;3 -->
<g id="edge9" class="edge"><title>2&#45;&gt;3</title>
<path fill="none" stroke="black" d="M405.155,-504.765C434.579,-494.415 472.839,-480.956 503.718,-470.094"/>
<polygon fill="black" stroke="black" points="505.192,-473.286 513.464,-466.666 502.87,-466.682 505.192,-473.286"/>
</g>
<!-- 2&#45;&gt;5 -->
<g id="edge10" class="edge"><title>2&#45;&gt;5</title>
<path fill="none" stroke="black" d="M369.092,-503.879C381.887,-483.675 405.829,-450.498 435,-432 486.354,-399.435 530.089,-444.326 567,-396 613.1,-335.643 493.391,-342.353 455,-252 448.743,-237.274 446.808,-229.744 455,-216 463.693,-201.415 477.948,-190.601 492.927,-182.686"/>
<polygon fill="black" stroke="black" points="494.842,-185.647 502.304,-178.125 491.78,-179.352 494.842,-185.647"/>
</g>
<!-- 2&#45;&gt;8 -->
<g id="edge11" class="edge"><title>2&#45;&gt;8</title>
<path fill="none" stroke="black" d="M329.181,-504.363C295.694,-483.811 243.028,-445.422 220,-396 211.048,-376.788 210.824,-352.629 212.547,-334.332"/>
<polygon fill="black" stroke="black" points="216.032,-334.66 213.735,-324.317 209.081,-333.835 216.032,-334.66"/>
</g>
<!-- 3&#45;&gt;1 -->
<g id="edge12" class="edge"><title>3&#45;&gt;1</title>
<path fill="none" stroke="black" d="M560.146,-468.096C556.985,-487.661 545.214,-519.622 525,-540 510.182,-554.938 490.318,-566.26 471.024,-574.524"/>
<polygon fill="black" stroke="black" points="469.574,-571.336 461.623,-578.338 472.205,-577.822 469.574,-571.336"/>
</g>
<!-- 4 -->
<g id="node5" class="node"><title>4</title>
<ellipse fill="none" stroke="black" cx="406" cy="-378" rx="152.173" ry="18"/>
<text text-anchor="middle" x="406" y="-374.3" font-family="Times,serif" font-size="14.00">Graphs with bundled edges and vertices</text>
</g>
<!-- 3&#45;&gt;4 -->
<g id="edge13" class="edge"><title>3&#45;&gt;4</title>
<path fill="none" stroke="black" d="M522.746,-432.765C501.395,-422.932 473.952,-410.294 451.039,-399.742"/>
<polygon fill="black" stroke="black" points="452.401,-396.515 441.853,-395.511 449.472,-402.874 452.401,-396.515"/>
</g>
<!-- 3&#45;&gt;5 -->
<g id="edge14" class="edge"><title>3&#45;&gt;5</title>
<path fill="none" stroke="black" d="M590.66,-432.511C608.825,-423.546 630.967,-411.171 648,-396 716.338,-335.129 803.988,-288.392 748,-216 734.264,-198.239 686.819,-185.327 642.131,-176.697"/>
<polygon fill="black" stroke="black" points="642.528,-173.21 632.055,-174.812 641.24,-180.091 642.528,-173.21"/>
</g>
<!-- 3&#45;&gt;8 -->
<g id="edge15" class="edge"><title>3&#45;&gt;8</title>
<path fill="none" stroke="black" d="M451.502,-443.331C370.288,-436.822 267.317,-423.294 236,-396 218.403,-380.664 211.745,-354.393 210.892,-334.357"/>
<polygon fill="black" stroke="black" points="214.392,-334.283 210.964,-324.258 207.392,-334.233 214.392,-334.283"/>
</g>
<!-- 4&#45;&gt;1 -->
<g id="edge16" class="edge"><title>4&#45;&gt;1</title>
<path fill="none" stroke="black" d="M353.063,-394.981C277.093,-420.629 151.557,-474.777 202,-540 216.212,-558.376 266.508,-571.561 313.599,-580.185"/>
<polygon fill="black" stroke="black" points="313.127,-583.656 323.585,-581.956 314.35,-576.763 313.127,-583.656"/>
</g>
<!-- 4&#45;&gt;5 -->
<g id="edge17" class="edge"><title>4&#45;&gt;5</title>
<path fill="none" stroke="black" d="M402.439,-359.938C396.838,-328.148 389.676,-259.171 422,-216 434.637,-199.123 453.552,-187.604 473.106,-179.748"/>
<polygon fill="black" stroke="black" points="474.573,-182.937 482.732,-176.179 472.139,-176.374 474.573,-182.937"/>
</g>
<!-- 4&#45;&gt;8 -->
<g id="edge18" class="edge"><title>4&#45;&gt;8</title>
<path fill="none" stroke="black" d="M361.688,-360.588C333.849,-350.277 297.823,-336.934 268.684,-326.142"/>
<polygon fill="black" stroke="black" points="269.681,-322.779 259.088,-322.588 267.25,-329.344 269.681,-322.779"/>
</g>
<!-- 5&#45;&gt;1 -->
<g id="edge19" class="edge"><title>5&#45;&gt;1</title>
<path fill="none" stroke="black" d="M660.431,-167.415C706.54,-173.666 758.682,-187.244 798,-216 834.978,-243.044 850,-259.188 850,-305 850,-451 850,-451 850,-451 850,-522.474 635.093,-563.626 504.261,-581.771"/>
<polygon fill="black" stroke="black" points="503.647,-578.322 494.212,-583.142 504.593,-585.258 503.647,-578.322"/>
</g>
<!-- 5&#45;&gt;3 -->
<g id="edge20" class="edge"><title>5&#45;&gt;3</title>
<path fill="none" stroke="black" d="M639.694,-173.486C691.636,-181.986 750.441,-195.883 766,-216 821.988,-288.392 734.338,-335.129 666,-396 650.938,-409.416 631.879,-420.645 613.921,-429.263"/>
<polygon fill="black" stroke="black" points="612.277,-426.168 604.658,-433.53 615.205,-432.526 612.277,-426.168"/>
</g>
<!-- 6 -->
<g id="node7" class="node"><title>6</title>
<ellipse fill="none" stroke="black" cx="295" cy="-90" rx="164.371" ry="18"/>
<text text-anchor="middle" x="295" y="-86.3" font-family="Times,serif" font-size="14.00">Graphs with custom and selectable vertices</text>
</g>
<!-- 5&#45;&gt;6 -->
<g id="edge22" class="edge"><title>5&#45;&gt;6</title>
<path fill="none" stroke="black" d="M498.6,-146.24C459.099,-135.523 405.379,-120.948 363.038,-109.46"/>
<polygon fill="black" stroke="black" points="363.93,-106.076 353.363,-106.835 362.097,-112.831 363.93,-106.076"/>
</g>
<!-- 7 -->
<g id="node8" class="node"><title>7</title>
<ellipse fill="none" stroke="black" cx="295" cy="-18" rx="149.473" ry="18"/>
<text text-anchor="middle" x="295" y="-14.3" font-family="Times,serif" font-size="14.00">Graphs with custom edges and vertices</text>
</g>
<!-- 5&#45;&gt;7 -->
<g id="edge21" class="edge"><title>5&#45;&gt;7</title>
<path fill="none" stroke="black" d="M541.133,-144.074C526.252,-124.062 498.912,-91.0729 468,-72 441.82,-55.8468 410.354,-44.2962 381.477,-36.1907"/>
<polygon fill="black" stroke="black" points="382.361,-32.8043 371.794,-33.5723 380.534,-39.5616 382.361,-32.8043"/>
</g>
<!-- 5&#45;&gt;8 -->
<g id="edge23" class="edge"><title>5&#45;&gt;8</title>
<path fill="none" stroke="black" d="M503.225,-178.203C471.221,-187.644 429.16,-200.849 393,-216 345.853,-235.754 294.325,-264.373 259.138,-283.784"/>
<polygon fill="black" stroke="black" points="257.183,-280.865 250.111,-288.754 260.559,-286.997 257.183,-280.865"/>
</g>
<!-- 6&#45;&gt;1 -->
<g id="edge24" class="edge"><title>6&#45;&gt;1</title>
<path fill="none" stroke="black" d="M268.362,-107.949C224.051,-137.93 136.736,-205.051 103,-288 96.9722,-302.821 100.737,-308.161 103,-324 117.142,-422.995 92.9794,-471.677 166,-540 186.796,-559.458 251.157,-573.034 307.998,-581.572"/>
<polygon fill="black" stroke="black" points="307.743,-585.072 318.144,-583.055 308.755,-578.145 307.743,-585.072"/>
</g>
<!-- 6&#45;&gt;3 -->
<g id="edge25" class="edge"><title>6&#45;&gt;3</title>
<path fill="none" stroke="black" d="M311.698,-108.039C340.672,-137.552 402.221,-200.01 455,-252 504.264,-300.527 539.958,-296.356 567,-360 575.365,-379.687 572.124,-403.953 567.343,-422.171"/>
<polygon fill="black" stroke="black" points="563.958,-421.28 564.511,-431.861 570.676,-423.245 563.958,-421.28"/>
</g>
<!-- 6&#45;&gt;7 -->
<g id="edge26" class="edge"><title>6&#45;&gt;7</title>
<path fill="none" stroke="black" d="M295,-71.6966C295,-63.9827 295,-54.7125 295,-46.1124"/>
<polygon fill="black" stroke="black" points="298.5,-46.1043 295,-36.1043 291.5,-46.1044 298.5,-46.1043"/>
</g>
<!-- 6&#45;&gt;8 -->
<g id="edge27" class="edge"><title>6&#45;&gt;8</title>
<path fill="none" stroke="black" d="M288.719,-108.232C275.142,-145.481 242.979,-233.723 226.74,-278.278"/>
<polygon fill="black" stroke="black" points="223.387,-277.255 223.251,-287.849 229.964,-279.652 223.387,-277.255"/>
</g>
<!-- 7&#45;&gt;1 -->
<g id="edge28" class="edge"><title>7&#45;&gt;1</title>
<path fill="none" stroke="black" d="M177.984,-29.2305C95.6223,-43.6157 0,-78.156 0,-161 0,-451 0,-451 0,-451 0,-521.756 66.6151,-512.959 132,-540 186.05,-562.354 250.054,-575.411 302.604,-582.968"/>
<polygon fill="black" stroke="black" points="302.229,-586.45 312.616,-584.362 303.195,-579.516 302.229,-586.45"/>
</g>
<!-- 7&#45;&gt;3 -->
<g id="edge29" class="edge"><title>7&#45;&gt;3</title>
<path fill="none" stroke="black" d="M423.965,-27.1732C545.087,-42.8197 717.994,-87.7699 789,-216 832.043,-293.733 777.493,-349.139 702,-396 678.017,-410.887 649.216,-422.531 623.696,-431.065"/>
<polygon fill="black" stroke="black" points="622.522,-427.766 614.092,-434.184 624.684,-434.424 622.522,-427.766"/>
</g>
<!-- 7&#45;&gt;8 -->
<g id="edge30" class="edge"><title>7&#45;&gt;8</title>
<path fill="none" stroke="black" d="M185.554,-30.3224C160.853,-38.2522 137.409,-51.1633 122,-72 72.2782,-139.236 150.034,-236.199 192.425,-280.838"/>
<polygon fill="black" stroke="black" points="189.927,-283.29 199.395,-288.044 194.958,-278.423 189.927,-283.29"/>
</g>
<!-- 8&#45;&gt;1 -->
<g id="edge31" class="edge"><title>8&#45;&gt;1</title>
<path fill="none" stroke="black" d="M211.736,-324.149C193.906,-366.014 144.676,-474.773 196,-540 211.078,-559.162 263.402,-572.23 312.084,-580.594"/>
<polygon fill="black" stroke="black" points="311.641,-584.069 322.08,-582.257 312.79,-577.164 311.641,-584.069"/>
</g>
<!-- 8&#45;&gt;3 -->
<g id="edge32" class="edge"><title>8&#45;&gt;3</title>
<path fill="none" stroke="black" d="M223.693,-324.258C227.705,-344.597 233.241,-377.908 254,-396 282.472,-420.814 370.169,-434.25 444.136,-441.378"/>
<polygon fill="black" stroke="black" points="444.192,-444.898 454.474,-442.343 444.842,-437.929 444.192,-444.898"/>
</g>
<!-- 8&#45;&gt;5 -->
<g id="edge33" class="edge"><title>8&#45;&gt;5</title>
<path fill="none" stroke="black" d="M238.131,-288.241C268.081,-268.993 324.094,-237.329 375,-216 409.055,-201.731 448.345,-189.188 481.395,-179.89"/>
<polygon fill="black" stroke="black" points="482.734,-183.151 491.439,-177.11 480.867,-176.404 482.734,-183.151"/>
</g>
<!-- 9 -->
<g id="node10" class="node"><title>9</title>
<ellipse fill="none" stroke="black" cx="606" cy="-234" rx="142.175" ry="18"/>
<text text-anchor="middle" x="606" y="-230.3" font-family="Times,serif" font-size="14.00">Graphs with custom graph properties</text>
</g>
<!-- 8&#45;&gt;9 -->
<g id="edge34" class="edge"><title>8&#45;&gt;9</title>
<path fill="none" stroke="black" d="M286.545,-292.485C351.116,-280.866 447.549,-263.513 517.565,-250.914"/>
<polygon fill="black" stroke="black" points="518.475,-254.306 527.697,-249.091 517.235,-247.417 518.475,-254.306"/>
</g>
<!-- 9&#45;&gt;1 -->
<g id="edge35" class="edge"><title>9&#45;&gt;1</title>
<path fill="none" stroke="black" d="M626.862,-251.858C654.555,-276.28 700,-324.374 700,-377 700,-451 700,-451 700,-451 700,-536.517 597.893,-570.556 514.027,-584.092"/>
<polygon fill="black" stroke="black" points="513.253,-580.67 503.898,-585.643 514.312,-587.589 513.253,-580.67"/>
</g>
<!-- 9&#45;&gt;3 -->
<g id="edge36" class="edge"><title>9&#45;&gt;3</title>
<path fill="none" stroke="black" d="M616.393,-252.074C633.583,-282.718 663.618,-348.297 638,-396 630.891,-409.237 618.862,-419.726 606.262,-427.759"/>
<polygon fill="black" stroke="black" points="604.332,-424.834 597.501,-432.932 607.891,-430.861 604.332,-424.834"/>
</g>
<!-- 9&#45;&gt;5 -->
<g id="edge37" class="edge"><title>9&#45;&gt;5</title>
<path fill="none" stroke="black" d="M593.17,-216.055C586.884,-207.753 579.185,-197.584 572.215,-188.378"/>
<polygon fill="black" stroke="black" points="574.907,-186.135 566.08,-180.275 569.326,-190.361 574.907,-186.135"/>
</g>
</g>
</svg>
