<?xml version="1.0" encoding="UTF-8" standalone="no"?>
<!DOCTYPE svg PUBLIC "-//W3C//DTD SVG 1.1//EN"
 "http://www.w3.org/Graphics/SVG/1.1/DTD/svg11.dtd">
<!-- Generated by graphviz version 2.36.0 (20140111.2315)
 -->
<!-- Title: G Pages: 1 -->
<svg width="328pt" height="132pt"
 viewBox="0.00 0.00 328.00 132.00" xmlns="http://www.w3.org/2000/svg" xmlns:xlink="http://www.w3.org/1999/xlink">
<g id="graph0" class="graph" transform="scale(1 1) rotate(0) translate(4 128)">
<title>G</title>
<polygon fill="white" stroke="none" points="-4,4 -4,-128 324,-128 324,4 -4,4"/>
<!-- 0 -->
<g id="node1" class="node"><title>0</title>
<ellipse fill="none" stroke="black" cx="95" cy="-106" rx="95.3122" ry="18"/>
<text text-anchor="middle" x="95" y="-102.3" font-family="Times,serif" font-size="14.00">Sunny,Yellow thing,1,2</text>
</g>
<!-- 0&#45;&gt;0 -->
<g id="edge1" class="edge"><title>0&#45;&gt;0</title>
<path fill="none" stroke="black" d="M181.22,-113.797C196.96,-112.81 208,-110.211 208,-106 208,-102.776 201.529,-100.497 191.431,-99.1628"/>
<polygon fill="black" stroke="black" points="191.504,-95.6543 181.22,-98.2032 190.849,-102.624 191.504,-95.6543"/>
<text text-anchor="middle" x="264" y="-102.3" font-family="Times,serif" font-size="14.00">Sometimes,20%,1,2</text>
</g>
<!-- 1 -->
<g id="node2" class="node"><title>1</title>
<ellipse fill="none" stroke="black" cx="95" cy="-18" rx="89.0632" ry="18"/>
<text text-anchor="middle" x="95" y="-14.3" font-family="Times,serif" font-size="14.00">Rainy,Grey things,3,4</text>
</g>
<!-- 0&#45;&gt;1 -->
<g id="edge2" class="edge"><title>0&#45;&gt;1</title>
<path fill="none" stroke="black" d="M61.7678,-89.0843C54.6465,-84.0265 48.0527,-77.6965 44,-70 38.3378,-59.2468 44.2992,-49.3168 53.8846,-41.1313"/>
<polygon fill="black" stroke="black" points="56.2548,-43.7307 62.196,-34.9584 52.0811,-38.1111 56.2548,-43.7307"/>
<text text-anchor="middle" x="85" y="-58.3" font-family="Times,serif" font-size="14.00">Often,80%,3,4</text>
</g>
<!-- 1&#45;&gt;0 -->
<g id="edge3" class="edge"><title>1&#45;&gt;0</title>
<path fill="none" stroke="black" d="M114.257,-35.8068C119.013,-41.098 123.467,-47.321 126,-54 129.435,-63.0602 126.224,-72.3066 120.764,-80.3941"/>
<polygon fill="black" stroke="black" points="117.926,-78.3399 114.444,-88.3463 123.406,-82.6952 117.926,-78.3399"/>
<text text-anchor="middle" x="170.5" y="-58.3" font-family="Times,serif" font-size="14.00">Rarely,10%,5,6</text>
</g>
<!-- 1&#45;&gt;1 -->
<g id="edge4" class="edge"><title>1&#45;&gt;1</title>
<path fill="none" stroke="black" d="M175.261,-25.8829C190.897,-24.9675 202,-22.3398 202,-18 202,-14.6773 195.491,-12.3583 185.423,-11.0429"/>
<polygon fill="black" stroke="black" points="185.537,-7.53888 175.261,-10.1171 184.902,-14.51 185.537,-7.53888"/>
<text text-anchor="middle" x="247" y="-14.3" font-family="Times,serif" font-size="14.00">Mostly,90%,7,8</text>
</g>
</g>
</svg>
