<?xml version="1.0" encoding="UTF-8" standalone="no"?>
<!DOCTYPE svg PUBLIC "-//W3C//DTD SVG 1.1//EN"
 "http://www.w3.org/Graphics/SVG/1.1/DTD/svg11.dtd">
<!-- Generated by graphviz version 2.36.0 (20140111.2315)
 -->
<!-- Title: G Pages: 1 -->
<svg width="260pt" height="332pt"
 viewBox="0.00 0.00 260.00 332.00" xmlns="http://www.w3.org/2000/svg" xmlns:xlink="http://www.w3.org/1999/xlink">
<g id="graph0" class="graph" transform="scale(1 1) rotate(0) translate(4 328)">
<title>G</title>
<polygon fill="white" stroke="none" points="-4,4 -4,-328 256,-328 256,4 -4,4"/>
<!-- 0 -->
<g id="node1" class="node"><title>0</title>
<ellipse fill="none" stroke="black" cx="172" cy="-250" rx="73.1654" ry="73.387"/>
<text text-anchor="middle" x="172" y="-246.3" font-family="Times,serif" font-size="14.00">Karen,red,1.1,2.2</text>
</g>
<!-- 1 -->
<g id="node2" class="node"><title>1</title>
<ellipse fill="none" stroke="black" cx="83" cy="-106" rx="83.2892" ry="18"/>
<text text-anchor="middle" x="83" y="-102.3" font-family="Times,serif" font-size="14.00">Kristel,black,3.3,4.4</text>
</g>
<!-- 0&#45;&#45;1 -->
<g id="edge1" class="edge"><title>0&#45;&#45;1</title>
<path fill="none" stroke="black" d="M133.222,-187.13C118.795,-164.11 103.551,-139.789 93.694,-124.062"/>
<text text-anchor="middle" x="131" y="-146.3" font-family="Times,serif" font-size="14.00">1,,1,1</text>
</g>
<!-- 2 -->
<g id="node3" class="node"><title>2</title>
<ellipse fill="none" stroke="black" cx="160" cy="-18" rx="91.9385" ry="18"/>
<text text-anchor="middle" x="160" y="-14.3" font-family="Times,serif" font-size="14.00">Kathleen,blond,5.5,6.6</text>
</g>
<!-- 1&#45;&#45;2 -->
<g id="edge2" class="edge"><title>1&#45;&#45;2</title>
<path fill="none" stroke="black" d="M98.2127,-88.0092C111.712,-72.9322 131.329,-51.0218 144.819,-35.9555"/>
<text text-anchor="middle" x="145" y="-58.3" font-family="Times,serif" font-size="14.00">2,,1,1</text>
</g>
<!-- 2&#45;&#45;0 -->
<g id="edge3" class="edge"><title>2&#45;&#45;0</title>
<path fill="none" stroke="black" d="M164.795,-36.13C168.415,-49.9909 173.075,-70.0824 175,-88 178.106,-116.908 178.193,-148.9 177.202,-176.698"/>
<text text-anchor="middle" x="193" y="-102.3" font-family="Times,serif" font-size="14.00">3,,1,1</text>
</g>
</g>
</svg>
