<?xml version="1.0" encoding="UTF-8" standalone="no"?>
<!DOCTYPE svg PUBLIC "-//W3C//DTD SVG 1.1//EN"
 "http://www.w3.org/Graphics/SVG/1.1/DTD/svg11.dtd">
<!-- Generated by graphviz version 2.36.0 (20140111.2315)
 -->
<!-- Title: G Pages: 1 -->
<svg width="412pt" height="132pt"
 viewBox="0.00 0.00 412.00 132.00" xmlns="http://www.w3.org/2000/svg" xmlns:xlink="http://www.w3.org/1999/xlink">
<g id="graph0" class="graph" transform="scale(1 1) rotate(0) translate(4 128)">
<title>G</title>
<polygon fill="white" stroke="none" points="-4,4 -4,-128 408,-128 408,4 -4,4"/>
<!-- 0 -->
<g id="node1" class="node"><title>0</title>
<ellipse fill="none" stroke="black" cx="137" cy="-106" rx="137.207" ry="18"/>
<text text-anchor="middle" x="137" y="-102.3" font-family="Times,serif" font-size="14.00">Sunny,Yellow[[:SPACE:]]thing,1,1</text>
</g>
<!-- 0&#45;&gt;0 -->
<g id="edge1" class="edge"><title>0&#45;&gt;0</title>
<path fill="none" stroke="black" d="M261.973,-113.424C279.928,-112.234 292,-109.76 292,-106 292,-103.004 284.334,-100.824 272.135,-99.4599"/>
<polygon fill="black" stroke="black" points="272.239,-95.9559 261.973,-98.5759 271.632,-102.93 272.239,-95.9559"/>
<text text-anchor="middle" x="348" y="-102.3" font-family="Times,serif" font-size="14.00">Sometimes,20%,1,2</text>
</g>
<!-- 1 -->
<g id="node2" class="node"><title>1</title>
<ellipse fill="none" stroke="black" cx="137" cy="-18" rx="130.457" ry="18"/>
<text text-anchor="middle" x="137" y="-14.3" font-family="Times,serif" font-size="14.00">Rainy,Grey[[:SPACE:]]things,3,3</text>
</g>
<!-- 0&#45;&gt;1 -->
<g id="edge2" class="edge"><title>0&#45;&gt;1</title>
<path fill="none" stroke="black" d="M102.979,-88.5171C96.1616,-83.5558 89.9026,-77.4115 86,-70 80.4298,-59.4216 86.1084,-49.6399 95.4199,-41.532"/>
<polygon fill="black" stroke="black" points="97.6563,-44.2289 103.521,-35.4052 93.4339,-38.6458 97.6563,-44.2289"/>
<text text-anchor="middle" x="127" y="-58.3" font-family="Times,serif" font-size="14.00">Often,80%,3,4</text>
</g>
<!-- 1&#45;&gt;0 -->
<g id="edge3" class="edge"><title>1&#45;&gt;0</title>
<path fill="none" stroke="black" d="M156.257,-35.8068C161.013,-41.098 165.467,-47.321 168,-54 171.381,-62.9164 168.325,-72.0131 163.022,-80.0081"/>
<polygon fill="black" stroke="black" points="160.264,-77.8541 156.86,-87.8873 165.778,-82.1668 160.264,-77.8541"/>
<text text-anchor="middle" x="212.5" y="-58.3" font-family="Times,serif" font-size="14.00">Rarely,10%,5,6</text>
</g>
<!-- 1&#45;&gt;1 -->
<g id="edge4" class="edge"><title>1&#45;&gt;1</title>
<path fill="none" stroke="black" d="M255.739,-25.4644C273.208,-24.2909 285,-21.8027 285,-18 285,-14.9994 277.658,-12.8173 265.979,-11.4537"/>
<polygon fill="black" stroke="black" points="266.012,-7.94277 255.739,-10.5356 265.387,-14.9148 266.012,-7.94277"/>
<text text-anchor="middle" x="330" y="-14.3" font-family="Times,serif" font-size="14.00">Mostly,90%,7,8</text>
</g>
</g>
</svg>
