<?xml version="1.0" encoding="UTF-8" standalone="no"?>
<!DOCTYPE svg PUBLIC "-//W3C//DTD SVG 1.1//EN"
 "http://www.w3.org/Graphics/SVG/1.1/DTD/svg11.dtd">
<!-- Generated by graphviz version 2.36.0 (20140111.2315)
 -->
<!-- Title: G Pages: 1 -->
<svg width="430pt" height="132pt"
 viewBox="0.00 0.00 430.00 132.00" xmlns="http://www.w3.org/2000/svg" xmlns:xlink="http://www.w3.org/1999/xlink">
<g id="graph0" class="graph" transform="scale(1 1) rotate(0) translate(4 128)">
<title>G</title>
<polygon fill="white" stroke="none" points="-4,4 -4,-128 426,-128 426,4 -4,4"/>
<!-- 0 -->
<g id="node1" class="node"><title>0</title>
<ellipse fill="none" stroke="black" cx="146" cy="-106" rx="146.331" ry="18"/>
<text text-anchor="middle" x="146" y="-102.3" font-family="Times,serif" font-size="14.00">Sunny,Yellow$$$SPACE$$$thing,1,2</text>
</g>
<!-- 0&#45;&gt;0 -->
<g id="edge1" class="edge"><title>0&#45;&gt;0</title>
<path fill="none" stroke="black" d="M279.843,-113.319C297.947,-112.092 310,-109.652 310,-106 310,-103.09 302.346,-100.949 290.076,-99.5788"/>
<polygon fill="black" stroke="black" points="290.111,-96.0685 279.843,-98.681 289.499,-103.042 290.111,-96.0685"/>
<text text-anchor="middle" x="366" y="-102.3" font-family="Times,serif" font-size="14.00">Sometimes,20%,1,2</text>
</g>
<!-- 1 -->
<g id="node2" class="node"><title>1</title>
<ellipse fill="none" stroke="black" cx="146" cy="-18" rx="140.082" ry="18"/>
<text text-anchor="middle" x="146" y="-14.3" font-family="Times,serif" font-size="14.00">Rainy,Grey$$$SPACE$$$things,3,4</text>
</g>
<!-- 0&#45;&gt;1 -->
<g id="edge2" class="edge"><title>0&#45;&gt;1</title>
<path fill="none" stroke="black" d="M111.717,-88.3257C105.002,-83.398 98.8526,-77.3164 95,-70 89.4759,-59.5091 95.0153,-49.8016 104.19,-41.7334"/>
<polygon fill="black" stroke="black" points="106.36,-44.4802 112.185,-35.6305 102.112,-38.916 106.36,-44.4802"/>
<text text-anchor="middle" x="136" y="-58.3" font-family="Times,serif" font-size="14.00">Often,80%,3,4</text>
</g>
<!-- 1&#45;&gt;0 -->
<g id="edge3" class="edge"><title>1&#45;&gt;0</title>
<path fill="none" stroke="black" d="M165.581,-36.169C170.214,-41.3811 174.525,-47.4728 177,-54 180.381,-62.9164 177.325,-72.0131 172.022,-80.0081"/>
<polygon fill="black" stroke="black" points="169.264,-77.8541 165.86,-87.8873 174.778,-82.1668 169.264,-77.8541"/>
<text text-anchor="middle" x="221.5" y="-58.3" font-family="Times,serif" font-size="14.00">Rarely,10%,5,6</text>
</g>
<!-- 1&#45;&gt;1 -->
<g id="edge4" class="edge"><title>1&#45;&gt;1</title>
<path fill="none" stroke="black" d="M274.017,-25.3828C291.974,-24.1777 304,-21.7168 304,-18 304,-15.0382 296.363,-12.8738 284.175,-11.507"/>
<polygon fill="black" stroke="black" points="284.285,-8.00334 274.017,-10.6172 283.674,-14.9766 284.285,-8.00334"/>
<text text-anchor="middle" x="349" y="-14.3" font-family="Times,serif" font-size="14.00">Mostly,90%,7,8</text>
</g>
</g>
</svg>
