<?xml version="1.0" encoding="UTF-8" standalone="no"?>
<!DOCTYPE svg PUBLIC "-//W3C//DTD SVG 1.1//EN"
 "http://www.w3.org/Graphics/SVG/1.1/DTD/svg11.dtd">
<!-- Generated by graphviz version 2.38.0 (20140413.2041)
 -->
<!-- Title: G Pages: 1 -->
<svg width="300pt" height="116pt"
 viewBox="0.00 0.00 300.28 116.00" xmlns="http://www.w3.org/2000/svg" xmlns:xlink="http://www.w3.org/1999/xlink">
<g id="graph0" class="graph" transform="scale(1 1) rotate(0) translate(4 112)">
<title>G</title>
<polygon fill="white" stroke="none" points="-4,4 -4,-112 296.276,-112 296.276,4 -4,4"/>
<!-- 0 -->
<g id="node1" class="node"><title>0</title>
<ellipse fill="none" stroke="black" cx="137.138" cy="-90" rx="137.276" ry="18"/>
<text text-anchor="middle" x="137.138" y="-86.3" font-family="Times,serif" font-size="14.00">Sunny,Yellow[[:SPACE:]]thing,1,1</text>
</g>
<!-- 0&#45;&gt;0 -->
<g id="edge1" class="edge"><title>0&#45;&gt;0</title>
<path fill="none" stroke="black" d="M228.355,-103.454C263.301,-104.012 292.276,-99.5273 292.276,-90 292.276,-81.4031 268.683,-76.9121 238.401,-76.5271"/>
<polygon fill="black" stroke="black" points="238.348,-73.0271 228.355,-76.5463 238.362,-80.0271 238.348,-73.0271"/>
</g>
<!-- 1 -->
<g id="node2" class="node"><title>1</title>
<ellipse fill="none" stroke="black" cx="137.138" cy="-18" rx="130.777" ry="18"/>
<text text-anchor="middle" x="137.138" y="-14.3" font-family="Times,serif" font-size="14.00">Rainy,Grey[[:SPACE:]]things,3,3</text>
</g>
<!-- 0&#45;&gt;1 -->
<g id="edge2" class="edge"><title>0&#45;&gt;1</title>
<path fill="none" stroke="black" d="M131.222,-71.6966C130.426,-63.9827 130.2,-54.7125 130.543,-46.1124"/>
<polygon fill="black" stroke="black" points="134.036,-46.3243 131.243,-36.1043 127.053,-45.8356 134.036,-46.3243"/>
</g>
<!-- 1&#45;&gt;0 -->
<g id="edge3" class="edge"><title>1&#45;&gt;0</title>
<path fill="none" stroke="black" d="M143.033,-36.1043C143.838,-43.7913 144.075,-53.0537 143.742,-61.6651"/>
<polygon fill="black" stroke="black" points="140.246,-61.4805 143.054,-71.6966 147.23,-61.9597 140.246,-61.4805"/>
</g>
<!-- 1&#45;&gt;1 -->
<g id="edge4" class="edge"><title>1&#45;&gt;1</title>
<path fill="none" stroke="black" d="M224.163,-31.4473C257.81,-32.0449 285.776,-27.5625 285.776,-18 285.776,-9.40869 263.202,-4.91797 234.215,-4.52784"/>
<polygon fill="black" stroke="black" points="234.154,-1.02788 224.163,-4.55273 234.171,-8.02786 234.154,-1.02788"/>
</g>
</g>
</svg>
