<?xml version="1.0" encoding="UTF-8" standalone="no"?>
<!DOCTYPE svg PUBLIC "-//W3C//DTD SVG 1.1//EN"
 "http://www.w3.org/Graphics/SVG/1.1/DTD/svg11.dtd">
<!-- Generated by graphviz version 2.36.0 (20140111.2315)
 -->
<!-- Title: G Pages: 1 -->
<svg width="205pt" height="132pt"
 viewBox="0.00 0.00 205.00 132.00" xmlns="http://www.w3.org/2000/svg" xmlns:xlink="http://www.w3.org/1999/xlink">
<g id="graph0" class="graph" transform="scale(1 1) rotate(0) translate(4 128)">
<title>G</title>
<polygon fill="white" stroke="none" points="-4,4 -4,-128 201,-128 201,4 -4,4"/>
<!-- 0 -->
<g id="node1" class="node"><title>0</title>
<ellipse fill="none" stroke="black" cx="56" cy="-106" rx="34.1708" ry="18"/>
<text text-anchor="middle" x="56" y="-102.3" font-family="Times,serif" font-size="14.00">Happy</text>
</g>
<!-- 0&#45;&gt;0 -->
<g id="edge1" class="edge"><title>0&#45;&gt;0</title>
<path fill="none" stroke="black" d="M86.7043,-114.225C98.3595,-114.543 108,-111.801 108,-106 108,-102.012 103.443,-99.4698 96.8081,-98.3735"/>
<polygon fill="black" stroke="black" points="96.8939,-94.8725 86.7043,-97.7747 96.4797,-101.86 96.8939,-94.8725"/>
<text text-anchor="middle" x="121.5" y="-102.3" font-family="Times,serif" font-size="14.00">Fruit</text>
</g>
<!-- 1 -->
<g id="node2" class="node"><title>1</title>
<ellipse fill="none" stroke="black" cx="56" cy="-18" rx="56.3173" ry="18"/>
<text text-anchor="middle" x="56" y="-14.3" font-family="Times,serif" font-size="14.00">Not unhappy</text>
</g>
<!-- 0&#45;&gt;1 -->
<g id="edge2" class="edge"><title>0&#45;&gt;1</title>
<path fill="none" stroke="black" d="M31.4853,-92.9589C22.729,-87.2944 13.8392,-79.6373 9,-70 3.40271,-58.853 10.0318,-48.3762 19.9087,-39.8525"/>
<polygon fill="black" stroke="black" points="22.1076,-42.5774 27.946,-33.7364 17.8686,-37.0069 22.1076,-42.5774"/>
<text text-anchor="middle" x="45.5" y="-58.3" font-family="Times,serif" font-size="14.00">No chocolate</text>
</g>
<!-- 1&#45;&gt;0 -->
<g id="edge3" class="edge"><title>1&#45;&gt;0</title>
<path fill="none" stroke="black" d="M71.9963,-35.4419C79.4951,-45.1725 85.9951,-57.9225 82,-70 80.726,-73.8515 78.8458,-77.6244 76.6693,-81.1827"/>
<polygon fill="black" stroke="black" points="73.7055,-79.313 70.8244,-89.5086 79.4347,-83.335 73.7055,-79.313"/>
<text text-anchor="middle" x="110.5" y="-58.3" font-family="Times,serif" font-size="14.00">Chocolate</text>
</g>
<!-- 1&#45;&gt;1 -->
<g id="edge4" class="edge"><title>1&#45;&gt;1</title>
<path fill="none" stroke="black" d="M106.15,-26.1891C119.695,-25.757 130,-23.0273 130,-18 130,-14.308 124.443,-11.8552 116.126,-10.6416"/>
<polygon fill="black" stroke="black" points="116.406,-7.15289 106.15,-9.81093 115.825,-14.1288 116.406,-7.15289"/>
<text text-anchor="middle" x="163.5" y="-14.3" font-family="Times,serif" font-size="14.00">Other candy</text>
</g>
</g>
</svg>
