<?xml version="1.0" encoding="UTF-8" standalone="no"?>
<!DOCTYPE svg PUBLIC "-//W3C//DTD SVG 1.1//EN"
 "http://www.w3.org/Graphics/SVG/1.1/DTD/svg11.dtd">
<!-- Generated by graphviz version 2.36.0 (20140111.2315)
 -->
<!-- Title: G Pages: 1 -->
<svg width="263pt" height="406pt"
 viewBox="0.00 0.00 263.00 406.00" xmlns="http://www.w3.org/2000/svg" xmlns:xlink="http://www.w3.org/1999/xlink">
<g id="graph0" class="graph" transform="scale(1 1) rotate(0) translate(4 402)">
<title>G</title>
<polygon fill="white" stroke="none" points="-4,4 -4,-402 259,-402 259,4 -4,4"/>
<!-- 0 -->
<!-- source -->
<g id="node1" class="node"><title>0</title>
<ellipse fill="none" stroke="black" cx="224" cy="-381" rx="24.0625" ry="16.0303"/>
<text text-anchor="middle" x="224" y="-377.3" font-family="Times,serif" font-size="14.00">top</text>
</g>
<!-- 1 -->
<!-- target -->
<g id="node2" class="node"><title>1</title>
<ellipse fill="none" stroke="black" cx="113" cy="-295" rx="113" ry="16.0303"/>
<text text-anchor="middle" x="113" y="-291.3" font-family="Times,serif" font-size="14.00">right</text>
</g>
<!-- 0&#45;&#45;1 -->
<!-- first -->
<g id="edge1" class="edge"><title>0&#45;&#45;1</title>
<path fill="none" stroke="black" d="M208.566,-368.32C188.908,-353.444 154.89,-327.701 133.19,-311.279"/>
<text text-anchor="middle" x="188.5" y="-334.3" font-family="Times,serif" font-size="14.00">AB</text>
</g>
<!-- 2 -->
<!-- target -->
<g id="node3" class="node"><title>2</title>
<ellipse fill="none" stroke="black" cx="216" cy="-113" rx="17.3859" ry="113"/>
<text text-anchor="middle" x="216" y="-109.3" font-family="Times,serif" font-size="14.00">left</text>
</g>
<!-- 1&#45;&#45;2 -->
<!-- second -->
<g id="edge2" class="edge"><title>1&#45;&#45;2</title>
<path fill="none" stroke="black" d="M121.782,-278.653C138.906,-248.727 177.017,-182.125 199.165,-143.421"/>
<text text-anchor="middle" x="150.5" y="-248.3" font-family="Times,serif" font-size="14.00">BC</text>
</g>
<!-- 2&#45;&#45;0 -->
<!-- third -->
<g id="edge3" class="edge"><title>2&#45;&#45;0</title>
<path fill="none" stroke="black" d="M229.135,-186.83C234.319,-224.222 238.333,-270.522 235,-312 233.534,-330.239 229.891,-350.965 227.197,-364.692"/>
<text text-anchor="middle" x="245.5" y="-291.3" font-family="Times,serif" font-size="14.00">CA</text>
</g>
</g>
</svg>
