<?xml version="1.0" encoding="UTF-8" standalone="no"?>
<!DOCTYPE svg PUBLIC "-//W3C//DTD SVG 1.1//EN"
 "http://www.w3.org/Graphics/SVG/1.1/DTD/svg11.dtd">
<!-- Generated by graphviz version 2.36.0 (20140111.2315)
 -->
<!-- Title: G Pages: 1 -->
<svg width="1375pt" height="1124pt"
 viewBox="0.00 0.00 1374.62 1124.00" xmlns="http://www.w3.org/2000/svg" xmlns:xlink="http://www.w3.org/1999/xlink">
<g id="graph0" class="graph" transform="scale(1 1) rotate(0) translate(4 1120)">
<title>G</title>
<polygon fill="white" stroke="none" points="-4,4 -4,-1120 1370.62,-1120 1370.62,4 -4,4"/>
<!-- 0 -->
<g id="node1" class="node"><title>0</title>
<ellipse fill="none" stroke="black" cx="899.622" cy="-1098" rx="133.333" ry="18"/>
<text text-anchor="middle" x="899.622" y="-1094.3" font-family="Times,serif" font-size="14.00">Building graphs without properties</text>
</g>
<!-- 1 -->
<g id="node2" class="node"><title>1</title>
<ellipse fill="none" stroke="black" cx="812.622" cy="-1026" rx="146.356" ry="18"/>
<text text-anchor="middle" x="812.622" y="-1022.3" font-family="Times,serif" font-size="14.00">Working on graphs without properties</text>
</g>
<!-- 0&#45;&gt;1 -->
<g id="edge1" class="edge"><title>0&#45;&gt;1</title>
<path fill="none" stroke="black" d="M878.561,-1080.05C867.529,-1071.18 853.845,-1060.17 841.808,-1050.48"/>
<polygon fill="black" stroke="black" points="843.775,-1047.57 833.789,-1044.03 839.387,-1053.03 843.775,-1047.57"/>
</g>
<!-- 2 -->
<g id="node3" class="node"><title>2</title>
<ellipse fill="none" stroke="black" cx="1156.62" cy="-954" rx="141.531" ry="18"/>
<text text-anchor="middle" x="1156.62" y="-950.3" font-family="Times,serif" font-size="14.00">Building graphs with named vertices</text>
</g>
<!-- 0&#45;&gt;2 -->
<g id="edge2" class="edge"><title>0&#45;&gt;2</title>
<path fill="none" stroke="black" d="M932.071,-1080.34C951.953,-1070.04 977.867,-1056.46 1000.62,-1044 1041.45,-1021.65 1087.7,-995.107 1119.17,-976.858"/>
<polygon fill="black" stroke="black" points="1121.15,-979.756 1128.04,-971.708 1117.63,-973.703 1121.15,-979.756"/>
</g>
<!-- 8 -->
<g id="node9" class="node"><title>8</title>
<ellipse fill="none" stroke="black" cx="986.622" cy="-666" rx="143.456" ry="18"/>
<text text-anchor="middle" x="986.622" y="-662.3" font-family="Times,serif" font-size="14.00">Building graphs with custom vertices</text>
</g>
<!-- 0&#45;&gt;8 -->
<g id="edge3" class="edge"><title>0&#45;&gt;8</title>
<path fill="none" stroke="black" d="M929.425,-1080.45C943.067,-1071.4 958.247,-1058.97 967.622,-1044 989.09,-1009.72 986.622,-995.447 986.622,-955 986.622,-955 986.622,-955 986.622,-809 986.622,-768.996 986.622,-722.653 986.622,-694.08"/>
<polygon fill="black" stroke="black" points="990.122,-694.049 986.622,-684.049 983.122,-694.049 990.122,-694.049"/>
</g>
<!-- 12 -->
<g id="node13" class="node"><title>12</title>
<ellipse fill="none" stroke="black" cx="546.622" cy="-378" rx="135.258" ry="18"/>
<text text-anchor="middle" x="546.622" y="-374.3" font-family="Times,serif" font-size="14.00">Building graphs with a graph name</text>
</g>
<!-- 0&#45;&gt;12 -->
<g id="edge4" class="edge"><title>0&#45;&gt;12</title>
<path fill="none" stroke="black" d="M779.114,-1090.25C534.48,-1074.94 2.62159,-1032.7 2.62159,-955 2.62159,-955 2.62159,-955 2.62159,-737 2.62159,-596.631 -22.0999,-523.181 84.6216,-432 109.423,-410.81 287.057,-395.251 414.659,-386.659"/>
<polygon fill="black" stroke="black" points="415.167,-390.133 424.912,-385.976 414.701,-383.148 415.167,-390.133"/>
</g>
<!-- 1&#45;&gt;2 -->
<g id="edge5" class="edge"><title>1&#45;&gt;2</title>
<path fill="none" stroke="black" d="M884.735,-1010.33C940.421,-998.994 1017.48,-983.313 1075.35,-971.538"/>
<polygon fill="black" stroke="black" points="1076.09,-974.959 1085.19,-969.535 1074.7,-968.099 1076.09,-974.959"/>
</g>
<!-- 3 -->
<g id="node4" class="node"><title>3</title>
<ellipse fill="none" stroke="black" cx="519.622" cy="-882" rx="153.08" ry="18"/>
<text text-anchor="middle" x="519.622" y="-878.3" font-family="Times,serif" font-size="14.00">Working on graphs with named vertices</text>
</g>
<!-- 1&#45;&gt;3 -->
<g id="edge8" class="edge"><title>1&#45;&gt;3</title>
<path fill="none" stroke="black" d="M778.437,-1008.43C724.99,-982.53 621.696,-932.47 563.055,-904.05"/>
<polygon fill="black" stroke="black" points="564.566,-900.893 554.041,-899.681 561.513,-907.192 564.566,-900.893"/>
</g>
<!-- 1&#45;&gt;8 -->
<g id="edge6" class="edge"><title>1&#45;&gt;8</title>
<path fill="none" stroke="black" d="M869.015,-1009.29C889.102,-1001.13 910.276,-989.167 924.622,-972 950.892,-940.563 948.622,-923.969 948.622,-883 948.622,-883 948.622,-883 948.622,-809 948.622,-767.633 963.856,-721.722 975.033,-693.605"/>
<polygon fill="black" stroke="black" points="978.378,-694.673 978.932,-684.093 971.901,-692.019 978.378,-694.673"/>
</g>
<!-- 9 -->
<g id="node10" class="node"><title>9</title>
<ellipse fill="none" stroke="black" cx="375.622" cy="-594" rx="155.005" ry="18"/>
<text text-anchor="middle" x="375.622" y="-590.3" font-family="Times,serif" font-size="14.00">Working on graphs with custom vertices</text>
</g>
<!-- 1&#45;&gt;9 -->
<g id="edge9" class="edge"><title>1&#45;&gt;9</title>
<path fill="none" stroke="black" d="M669.034,-1022.55C475.424,-1015.27 154.622,-987.449 154.622,-883 154.622,-883 154.622,-883 154.622,-809 154.622,-713.808 261.748,-647.434 326.831,-615.893"/>
<polygon fill="black" stroke="black" points="328.575,-618.939 336.111,-611.492 325.576,-612.614 328.575,-618.939"/>
</g>
<!-- 1&#45;&gt;12 -->
<g id="edge7" class="edge"><title>1&#45;&gt;12</title>
<path fill="none" stroke="black" d="M668.828,-1022.7C511.662,-1018.45 270.964,-1006.36 186.622,-972 129.02,-948.534 78.6216,-945.198 78.6216,-883 78.6216,-883 78.6216,-883 78.6216,-521 78.6216,-476.874 86.6577,-457.567 122.622,-432 166.881,-400.536 299.188,-387.726 404.361,-382.524"/>
<polygon fill="black" stroke="black" points="404.628,-386.015 414.45,-382.044 404.295,-379.023 404.628,-386.015"/>
</g>
<!-- 13 -->
<g id="node14" class="node"><title>13</title>
<ellipse fill="none" stroke="black" cx="880.622" cy="-306" rx="148.28" ry="18"/>
<text text-anchor="middle" x="880.622" y="-302.3" font-family="Times,serif" font-size="14.00">Working on graphs with a graph name</text>
</g>
<!-- 1&#45;&gt;13 -->
<g id="edge10" class="edge"><title>1&#45;&gt;13</title>
<path fill="none" stroke="black" d="M834.859,-1007.92C863.773,-983.604 910.622,-936.018 910.622,-883 910.622,-883 910.622,-883 910.622,-809 910.622,-743.75 851.406,-746.78 833.622,-684 829.261,-668.606 832.118,-663.929 833.622,-648 844.336,-534.491 870.908,-509.509 881.622,-396 883.57,-375.361 883.201,-351.912 882.409,-334.266"/>
<polygon fill="black" stroke="black" points="885.896,-333.91 881.879,-324.106 878.905,-334.275 885.896,-333.91"/>
</g>
<!-- 2&#45;&gt;3 -->
<g id="edge11" class="edge"><title>2&#45;&gt;3</title>
<path fill="none" stroke="black" d="M1053.57,-941.675C939.805,-929.174 757.004,-909.086 637.594,-895.964"/>
<polygon fill="black" stroke="black" points="637.64,-892.448 627.317,-894.835 636.875,-899.406 637.64,-892.448"/>
</g>
<!-- 4 -->
<g id="node5" class="node"><title>4</title>
<ellipse fill="none" stroke="black" cx="665.622" cy="-810" rx="178.601" ry="18"/>
<text text-anchor="middle" x="665.622" y="-806.3" font-family="Times,serif" font-size="14.00">Building graphs with named edges and vertices</text>
</g>
<!-- 2&#45;&gt;4 -->
<g id="edge12" class="edge"><title>2&#45;&gt;4</title>
<path fill="none" stroke="black" d="M1102.2,-937.261C1011.32,-910.977 828.997,-858.249 731.188,-829.962"/>
<polygon fill="black" stroke="black" points="731.996,-826.552 721.417,-827.136 730.051,-833.277 731.996,-826.552"/>
</g>
<!-- 2&#45;&gt;8 -->
<g id="edge13" class="edge"><title>2&#45;&gt;8</title>
<path fill="none" stroke="black" d="M1143.08,-935.966C1110.3,-887.894 1028.66,-750.932 998.086,-693.185"/>
<polygon fill="black" stroke="black" points="1001.19,-691.566 993.472,-684.306 994.978,-694.794 1001.19,-691.566"/>
</g>
<!-- 2&#45;&gt;12 -->
<g id="edge14" class="edge"><title>2&#45;&gt;12</title>
<path fill="none" stroke="black" d="M1153.08,-935.984C1153,-909.369 1158.62,-856.25 1158.62,-811 1158.62,-811 1158.62,-811 1158.62,-737 1158.62,-504.447 827.718,-420.645 652.511,-392.344"/>
<polygon fill="black" stroke="black" points="652.911,-388.863 642.487,-390.758 651.817,-395.777 652.911,-388.863"/>
</g>
<!-- 3&#45;&gt;4 -->
<g id="edge15" class="edge"><title>3&#45;&gt;4</title>
<path fill="none" stroke="black" d="M554.222,-864.411C574.348,-854.761 599.919,-842.501 621.484,-832.162"/>
<polygon fill="black" stroke="black" points="623.26,-835.192 630.764,-827.713 620.234,-828.88 623.26,-835.192"/>
</g>
<!-- 5 -->
<g id="node6" class="node"><title>5</title>
<ellipse fill="none" stroke="black" cx="557.622" cy="-738" rx="191.125" ry="18"/>
<text text-anchor="middle" x="557.622" y="-734.3" font-family="Times,serif" font-size="14.00">Working on graphs with named edges and vertices</text>
</g>
<!-- 3&#45;&gt;5 -->
<g id="edge19" class="edge"><title>3&#45;&gt;5</title>
<path fill="none" stroke="black" d="M482.527,-864.377C467.941,-855.767 452.76,-843.716 444.622,-828 437.264,-813.792 436.04,-805.504 444.622,-792 453.803,-777.553 468.078,-766.975 483.428,-759.255"/>
<polygon fill="black" stroke="black" points="484.953,-762.406 492.56,-755.032 482.015,-756.052 484.953,-762.406"/>
</g>
<!-- 6 -->
<g id="node7" class="node"><title>6</title>
<ellipse fill="none" stroke="black" cx="786.622" cy="-90" rx="145.38" ry="18"/>
<text text-anchor="middle" x="786.622" y="-86.3" font-family="Times,serif" font-size="14.00">Building graphs with bundled vertices</text>
</g>
<!-- 3&#45;&gt;6 -->
<g id="edge16" class="edge"><title>3&#45;&gt;6</title>
<path fill="none" stroke="black" d="M408.826,-869.544C361.881,-861.855 307.535,-849.096 261.622,-828 100.027,-753.751 2.62159,-700.837 2.62159,-523 2.62159,-523 2.62159,-523 2.62159,-233 2.62159,-167.226 435.399,-120.803 657.868,-101.285"/>
<polygon fill="black" stroke="black" points="658.316,-104.759 667.975,-100.404 657.709,-97.7853 658.316,-104.759"/>
</g>
<!-- 3&#45;&gt;8 -->
<g id="edge17" class="edge"><title>3&#45;&gt;8</title>
<path fill="none" stroke="black" d="M641.98,-871.096C721.858,-862.833 817.592,-848.98 852.622,-828 904.326,-797.034 895.217,-765.601 934.622,-720 943.05,-710.246 952.828,-700.026 961.616,-691.191"/>
<polygon fill="black" stroke="black" points="964.088,-693.669 968.713,-684.137 959.153,-688.704 964.088,-693.669"/>
</g>
<!-- 3&#45;&gt;9 -->
<g id="edge20" class="edge"><title>3&#45;&gt;9</title>
<path fill="none" stroke="black" d="M480.211,-864.497C440.172,-845.215 380.845,-809.043 357.622,-756 338.3,-711.871 352.891,-654.72 364.664,-621.728"/>
<polygon fill="black" stroke="black" points="367.964,-622.898 368.187,-612.305 361.407,-620.446 367.964,-622.898"/>
</g>
<!-- 3&#45;&gt;12 -->
<g id="edge18" class="edge"><title>3&#45;&gt;12</title>
<path fill="none" stroke="black" d="M451.258,-865.804C336.28,-835.762 116.622,-757.15 116.622,-595 116.622,-595 116.622,-595 116.622,-521 116.622,-476.676 125.54,-457.744 161.622,-432 200.571,-404.209 314.538,-390.944 408.443,-384.64"/>
<polygon fill="black" stroke="black" points="408.872,-388.119 418.623,-383.978 408.417,-381.134 408.872,-388.119"/>
</g>
<!-- 3&#45;&gt;13 -->
<g id="edge21" class="edge"><title>3&#45;&gt;13</title>
<path fill="none" stroke="black" d="M501.089,-863.977C482.391,-844.77 458.776,-813.424 477.622,-792 560.492,-697.793 662.157,-837.419 757.622,-756 789.348,-728.942 853.809,-436.527 863.622,-396 868.588,-375.489 873.017,-352.034 876.109,-334.353"/>
<polygon fill="black" stroke="black" points="879.615,-334.616 877.854,-324.168 872.716,-333.434 879.615,-334.616"/>
</g>
<!-- 4&#45;&gt;5 -->
<g id="edge22" class="edge"><title>4&#45;&gt;5</title>
<path fill="none" stroke="black" d="M639.478,-792.055C625.388,-782.922 607.813,-771.532 592.564,-761.648"/>
<polygon fill="black" stroke="black" points="594.194,-758.534 583.899,-756.032 590.387,-764.408 594.194,-758.534"/>
</g>
<!-- 4&#45;&gt;8 -->
<g id="edge23" class="edge"><title>4&#45;&gt;8</title>
<path fill="none" stroke="black" d="M707.115,-792.453C731.636,-782.416 763.162,-769.061 790.622,-756 821.503,-741.312 827.679,-734.557 858.622,-720 883.393,-708.346 911.439,-696.579 934.952,-687.102"/>
<polygon fill="black" stroke="black" points="936.41,-690.288 944.392,-683.321 933.808,-683.79 936.41,-690.288"/>
</g>
<!-- 4&#45;&gt;12 -->
<g id="edge24" class="edge"><title>4&#45;&gt;12</title>
<path fill="none" stroke="black" d="M534.554,-797.728C478.719,-790.071 413.671,-777.286 357.622,-756 249.97,-715.117 154.622,-710.153 154.622,-595 154.622,-595 154.622,-595 154.622,-521 154.622,-476.874 163.003,-458.046 198.622,-432 232.575,-407.172 330.633,-393.72 414.038,-386.589"/>
<polygon fill="black" stroke="black" points="414.456,-390.067 424.132,-385.751 413.876,-383.091 414.456,-390.067"/>
</g>
<!-- 5&#45;&gt;8 -->
<g id="edge25" class="edge"><title>5&#45;&gt;8</title>
<path fill="none" stroke="black" d="M648.601,-722.155C720.483,-710.426 820.438,-694.116 892.996,-682.277"/>
<polygon fill="black" stroke="black" points="893.741,-685.702 903.047,-680.637 892.614,-678.793 893.741,-685.702"/>
</g>
<!-- 5&#45;&gt;9 -->
<g id="edge27" class="edge"><title>5&#45;&gt;9</title>
<path fill="none" stroke="black" d="M535.668,-719.871C503.196,-694.536 442.267,-646.998 405.674,-618.448"/>
<polygon fill="black" stroke="black" points="407.407,-615.36 397.37,-611.968 403.101,-620.879 407.407,-615.36"/>
</g>
<!-- 5&#45;&gt;12 -->
<g id="edge26" class="edge"><title>5&#45;&gt;12</title>
<path fill="none" stroke="black" d="M473.883,-721.783C366.123,-699.768 192.622,-655.005 192.622,-595 192.622,-595 192.622,-595 192.622,-521 192.622,-477.261 199.777,-458.438 234.622,-432 263.884,-409.797 347.694,-396.329 421.087,-388.529"/>
<polygon fill="black" stroke="black" points="421.781,-391.976 431.367,-387.465 421.06,-385.013 421.781,-391.976"/>
</g>
<!-- 5&#45;&gt;13 -->
<g id="edge28" class="edge"><title>5&#45;&gt;13</title>
<path fill="none" stroke="black" d="M578.295,-719.927C616.491,-687.658 699.265,-614.263 754.622,-540 806.108,-470.929 849.713,-378.179 869.401,-333.39"/>
<polygon fill="black" stroke="black" points="872.671,-334.649 873.451,-324.082 866.252,-331.856 872.671,-334.649"/>
</g>
<!-- 6&#45;&gt;2 -->
<g id="edge30" class="edge"><title>6&#45;&gt;2</title>
<path fill="none" stroke="black" d="M918.289,-97.6116C1052.54,-105.578 1244.72,-120.851 1270.62,-144 1300.85,-171.018 1290.62,-192.458 1290.62,-233 1290.62,-811 1290.62,-811 1290.62,-811 1290.62,-865.518 1237.73,-907.582 1198.41,-931.322"/>
<polygon fill="black" stroke="black" points="1196.61,-928.319 1189.75,-936.391 1200.14,-934.36 1196.61,-928.319"/>
</g>
<!-- 7 -->
<g id="node8" class="node"><title>7</title>
<ellipse fill="none" stroke="black" cx="1057.62" cy="-18" rx="157.404" ry="18"/>
<text text-anchor="middle" x="1057.62" y="-14.3" font-family="Times,serif" font-size="14.00">Working on graphs with bundled vertices</text>
</g>
<!-- 6&#45;&gt;7 -->
<g id="edge29" class="edge"><title>6&#45;&gt;7</title>
<path fill="none" stroke="black" d="M846.429,-73.5515C888.019,-62.8088 943.617,-48.4477 987.328,-37.1571"/>
<polygon fill="black" stroke="black" points="988.223,-40.5408 997.03,-34.651 986.472,-33.7632 988.223,-40.5408"/>
</g>
<!-- 6&#45;&gt;8 -->
<g id="edge31" class="edge"><title>6&#45;&gt;8</title>
<path fill="none" stroke="black" d="M806.035,-108.079C825.407,-128.563 856.246,-162.34 890.622,-180 963.578,-217.479 1010.29,-161.544 1071.62,-216 1102.73,-243.621 1100.62,-263.398 1100.62,-305 1100.62,-523 1100.62,-523 1100.62,-523 1100.62,-573.029 1057.96,-616.972 1024.7,-642.262"/>
<polygon fill="black" stroke="black" points="1022.47,-639.551 1016.47,-648.282 1026.61,-645.199 1022.47,-639.551"/>
</g>
<!-- 6&#45;&gt;12 -->
<g id="edge32" class="edge"><title>6&#45;&gt;12</title>
<path fill="none" stroke="black" d="M705.908,-105.075C680.808,-112.898 654.761,-125.068 635.622,-144 620.455,-159.003 580.335,-292.151 559.11,-350.172"/>
<polygon fill="black" stroke="black" points="555.745,-349.176 555.5,-359.768 562.297,-351.64 555.745,-349.176"/>
</g>
<!-- 7&#45;&gt;2 -->
<g id="edge33" class="edge"><title>7&#45;&gt;2</title>
<path fill="none" stroke="black" d="M1186.43,-28.4489C1271.21,-42.5221 1366.62,-77.0166 1366.62,-161 1366.62,-811 1366.62,-811 1366.62,-811 1366.62,-878.017 1292.32,-915.549 1232.11,-934.961"/>
<polygon fill="black" stroke="black" points="1230.72,-931.73 1222.2,-938.037 1232.79,-938.415 1230.72,-931.73"/>
</g>
<!-- 7&#45;&gt;8 -->
<g id="edge34" class="edge"><title>7&#45;&gt;8</title>
<path fill="none" stroke="black" d="M1161.62,-31.5211C1238.05,-47.2107 1328.62,-82.388 1328.62,-161 1328.62,-307 1328.62,-307 1328.62,-307 1328.62,-465.313 1268.14,-512.971 1144.62,-612 1124.1,-628.457 1098.22,-639.909 1073.38,-647.837"/>
<polygon fill="black" stroke="black" points="1072.11,-644.563 1063.56,-650.811 1074.14,-651.262 1072.11,-644.563"/>
</g>
<!-- 7&#45;&gt;12 -->
<g id="edge35" class="edge"><title>7&#45;&gt;12</title>
<path fill="none" stroke="black" d="M917.78,-26.292C813.304,-33.6088 680.474,-47.4251 631.622,-72 582.758,-96.5803 546.622,-106.303 546.622,-161 546.622,-235 546.622,-235 546.622,-235 546.622,-275.004 546.622,-321.347 546.622,-349.92"/>
<polygon fill="black" stroke="black" points="543.122,-349.951 546.622,-359.951 550.122,-349.951 543.122,-349.951"/>
</g>
<!-- 8&#45;&gt;2 -->
<g id="edge37" class="edge"><title>8&#45;&gt;2</title>
<path fill="none" stroke="black" d="M1000.1,-683.945C1032.83,-731.921 1114.51,-868.946 1145.13,-926.76"/>
<polygon fill="black" stroke="black" points="1142.19,-928.705 1149.91,-935.966 1148.41,-925.478 1142.19,-928.705"/>
</g>
<!-- 8&#45;&gt;6 -->
<g id="edge38" class="edge"><title>8&#45;&gt;6</title>
<path fill="none" stroke="black" d="M1004.9,-647.875C1032.99,-623.844 1082.62,-576.962 1082.62,-523 1082.62,-523 1082.62,-523 1082.62,-305 1082.62,-263.398 1084.73,-243.621 1053.62,-216 992.288,-161.544 945.578,-217.479 872.622,-180 842.543,-164.548 815.172,-136.755 799.415,-116.326"/>
<polygon fill="black" stroke="black" points="802.12,-114.096 793.4,-108.079 796.465,-118.221 802.12,-114.096"/>
</g>
<!-- 8&#45;&gt;9 -->
<g id="edge36" class="edge"><title>8&#45;&gt;9</title>
<path fill="none" stroke="black" d="M884.698,-653.323C776.348,-640.91 605.298,-621.313 491.799,-608.31"/>
<polygon fill="black" stroke="black" points="492.017,-604.812 481.683,-607.151 491.22,-611.767 492.017,-604.812"/>
</g>
<!-- 10 -->
<g id="node11" class="node"><title>10</title>
<ellipse fill="none" stroke="black" cx="539.622" cy="-522" rx="180.526" ry="18"/>
<text text-anchor="middle" x="539.622" y="-518.3" font-family="Times,serif" font-size="14.00">Building graphs with custom edges and vertices</text>
</g>
<!-- 8&#45;&gt;10 -->
<g id="edge39" class="edge"><title>8&#45;&gt;10</title>
<path fill="none" stroke="black" d="M936.646,-649.124C854.191,-622.93 689.915,-570.744 600.7,-542.403"/>
<polygon fill="black" stroke="black" points="601.582,-539.011 590.991,-539.319 599.462,-545.682 601.582,-539.011"/>
</g>
<!-- 8&#45;&gt;12 -->
<g id="edge40" class="edge"><title>8&#45;&gt;12</title>
<path fill="none" stroke="black" d="M962.613,-647.981C910.342,-606.867 782.527,-500.485 662.622,-432 640.691,-419.474 615.222,-408.149 593.677,-399.214"/>
<polygon fill="black" stroke="black" points="594.975,-395.964 584.394,-395.408 592.319,-402.44 594.975,-395.964"/>
</g>
<!-- 9&#45;&gt;10 -->
<g id="edge41" class="edge"><title>9&#45;&gt;10</title>
<path fill="none" stroke="black" d="M414.487,-576.411C437.483,-566.596 466.806,-554.08 491.285,-543.632"/>
<polygon fill="black" stroke="black" points="492.928,-546.736 500.751,-539.591 490.18,-540.298 492.928,-546.736"/>
</g>
<!-- 11 -->
<g id="node12" class="node"><title>11</title>
<ellipse fill="none" stroke="black" cx="451.622" cy="-450" rx="193.049" ry="18"/>
<text text-anchor="middle" x="451.622" y="-446.3" font-family="Times,serif" font-size="14.00">Working on graphs with custom edges and vertices</text>
</g>
<!-- 9&#45;&gt;11 -->
<g id="edge43" class="edge"><title>9&#45;&gt;11</title>
<path fill="none" stroke="black" d="M362.875,-575.863C350.621,-557.112 335.834,-526.702 349.622,-504 358.115,-490.016 371.629,-479.553 386.077,-471.79"/>
<polygon fill="black" stroke="black" points="387.747,-474.869 395.158,-467.298 384.643,-468.595 387.747,-474.869"/>
</g>
<!-- 9&#45;&gt;12 -->
<g id="edge42" class="edge"><title>9&#45;&gt;12</title>
<path fill="none" stroke="black" d="M345.398,-576.257C295.756,-546.676 206.554,-483.433 249.622,-432 271.015,-406.451 344.515,-393.206 413.038,-386.346"/>
<polygon fill="black" stroke="black" points="413.486,-389.819 423.105,-385.38 412.817,-382.851 413.486,-389.819"/>
</g>
<!-- 9&#45;&gt;13 -->
<g id="edge44" class="edge"><title>9&#45;&gt;13</title>
<path fill="none" stroke="black" d="M520.239,-587.333C603.745,-581.059 698.132,-567.842 728.622,-540 789.436,-484.466 721.019,-424.184 772.622,-360 784.161,-345.648 800.563,-334.895 817.109,-326.964"/>
<polygon fill="black" stroke="black" points="818.597,-330.133 826.286,-322.844 815.73,-323.747 818.597,-330.133"/>
</g>
<!-- 10&#45;&gt;2 -->
<g id="edge46" class="edge"><title>10&#45;&gt;2</title>
<path fill="none" stroke="black" d="M544.327,-540.001C548.545,-558.906 552.313,-589.711 539.622,-612 493.08,-693.737 404.163,-638.263 357.622,-720 318.037,-789.52 302.957,-841.589 357.622,-900 400.782,-946.118 785.349,-953.467 1004.83,-953.85"/>
<polygon fill="black" stroke="black" points="1005.15,-957.35 1015.15,-953.863 1005.16,-950.35 1005.15,-957.35"/>
</g>
<!-- 10&#45;&gt;6 -->
<g id="edge47" class="edge"><title>10&#45;&gt;6</title>
<path fill="none" stroke="black" d="M611.808,-505.468C633.675,-497.54 656.009,-485.676 671.622,-468 767.234,-359.752 614.048,-262.495 696.622,-144 705.891,-130.698 719.665,-120.222 733.665,-112.221"/>
<polygon fill="black" stroke="black" points="735.68,-115.113 742.854,-107.316 732.384,-108.938 735.68,-115.113"/>
</g>
<!-- 10&#45;&gt;11 -->
<g id="edge45" class="edge"><title>10&#45;&gt;11</title>
<path fill="none" stroke="black" d="M518.319,-504.055C507.16,-495.179 493.319,-484.169 481.143,-474.483"/>
<polygon fill="black" stroke="black" points="483.038,-471.518 473.033,-468.032 478.68,-476.996 483.038,-471.518"/>
</g>
<!-- 10&#45;&gt;12 -->
<g id="edge48" class="edge"><title>10&#45;&gt;12</title>
<path fill="none" stroke="black" d="M604.945,-505.222C623.897,-497.287 642.471,-485.481 653.622,-468 662.226,-454.511 662.059,-445.595 653.622,-432 644.438,-417.202 629.758,-406.409 614.179,-398.586"/>
<polygon fill="black" stroke="black" points="615.483,-395.333 604.937,-394.315 612.546,-401.687 615.483,-395.333"/>
</g>
<!-- 11&#45;&gt;12 -->
<g id="edge49" class="edge"><title>11&#45;&gt;12</title>
<path fill="none" stroke="black" d="M474.618,-432.055C486.871,-423.027 502.119,-411.792 515.424,-401.987"/>
<polygon fill="black" stroke="black" points="517.862,-404.539 523.837,-395.789 513.71,-398.903 517.862,-404.539"/>
</g>
<!-- 12&#45;&gt;2 -->
<g id="edge51" class="edge"><title>12&#45;&gt;2</title>
<path fill="none" stroke="black" d="M647.812,-389.986C825.943,-415.839 1176.62,-497.599 1176.62,-737 1176.62,-811 1176.62,-811 1176.62,-811 1176.62,-851.124 1172.2,-897.435 1166.67,-925.968"/>
<polygon fill="black" stroke="black" points="1163.2,-925.47 1164.51,-935.984 1170.04,-926.95 1163.2,-925.47"/>
</g>
<!-- 12&#45;&gt;6 -->
<g id="edge52" class="edge"><title>12&#45;&gt;6</title>
<path fill="none" stroke="black" d="M547.651,-359.768C557.427,-308.565 601.544,-159.904 617.622,-144 635.436,-126.378 659.236,-114.615 683.359,-106.763"/>
<polygon fill="black" stroke="black" points="684.422,-110.098 692.97,-103.838 682.384,-103.401 684.422,-110.098"/>
</g>
<!-- 12&#45;&gt;8 -->
<g id="edge53" class="edge"><title>12&#45;&gt;8</title>
<path fill="none" stroke="black" d="M598.562,-394.725C624.148,-404.201 654.832,-417.27 680.622,-432 794.204,-496.874 914.883,-595.753 964.097,-640.947"/>
<polygon fill="black" stroke="black" points="961.938,-643.72 971.638,-647.981 966.712,-638.601 961.938,-643.72"/>
</g>
<!-- 12&#45;&gt;13 -->
<g id="edge50" class="edge"><title>12&#45;&gt;13</title>
<path fill="none" stroke="black" d="M615.827,-362.496C669.362,-351.276 743.599,-335.717 799.85,-323.928"/>
<polygon fill="black" stroke="black" points="800.71,-327.324 809.779,-321.847 799.274,-320.473 800.71,-327.324"/>
</g>
<!-- 14 -->
<g id="node15" class="node"><title>14</title>
<ellipse fill="none" stroke="black" cx="880.622" cy="-234" rx="173.302" ry="18"/>
<text text-anchor="middle" x="880.622" y="-230.3" font-family="Times,serif" font-size="14.00">Building graphs with custom graph properties</text>
</g>
<!-- 12&#45;&gt;14 -->
<g id="edge54" class="edge"><title>12&#45;&gt;14</title>
<path fill="none" stroke="black" d="M576.397,-360.407C611.092,-341.457 670.462,-310.209 723.622,-288 753.79,-275.396 788.116,-263.537 816.961,-254.246"/>
<polygon fill="black" stroke="black" points="818.057,-257.571 826.52,-251.196 815.929,-250.902 818.057,-257.571"/>
</g>
<!-- 13&#45;&gt;2 -->
<g id="edge56" class="edge"><title>13&#45;&gt;2</title>
<path fill="none" stroke="black" d="M907.954,-323.7C987.723,-374.765 1214.62,-537.547 1214.62,-737 1214.62,-811 1214.62,-811 1214.62,-811 1214.62,-854.305 1191.22,-899.891 1174.14,-927.387"/>
<polygon fill="black" stroke="black" points="1171.08,-925.679 1168.64,-935.989 1176.98,-929.452 1171.08,-925.679"/>
</g>
<!-- 13&#45;&gt;6 -->
<g id="edge57" class="edge"><title>13&#45;&gt;6</title>
<path fill="none" stroke="black" d="M797.661,-290.98C755.376,-281.966 710.24,-268.791 697.622,-252 663.587,-206.71 719.448,-146.885 756.967,-114.412"/>
<polygon fill="black" stroke="black" points="759.278,-117.041 764.656,-107.913 754.759,-111.695 759.278,-117.041"/>
</g>
<!-- 13&#45;&gt;8 -->
<g id="edge58" class="edge"><title>13&#45;&gt;8</title>
<path fill="none" stroke="black" d="M902.53,-323.87C913.274,-333.326 925.422,-346.019 932.622,-360 980.746,-453.45 986.862,-582.01 987.064,-637.581"/>
<polygon fill="black" stroke="black" points="983.564,-637.681 987.036,-647.691 990.564,-637.7 983.564,-637.681"/>
</g>
<!-- 13&#45;&gt;14 -->
<g id="edge55" class="edge"><title>13&#45;&gt;14</title>
<path fill="none" stroke="black" d="M880.622,-287.697C880.622,-279.983 880.622,-270.712 880.622,-262.112"/>
<polygon fill="black" stroke="black" points="884.122,-262.104 880.622,-252.104 877.122,-262.104 884.122,-262.104"/>
</g>
<!-- 15 -->
<g id="node16" class="node"><title>15</title>
<ellipse fill="none" stroke="black" cx="1076.62" cy="-162" rx="185.326" ry="18"/>
<text text-anchor="middle" x="1076.62" y="-158.3" font-family="Times,serif" font-size="14.00">Working on graphs with custom graph properties</text>
</g>
<!-- 14&#45;&gt;15 -->
<g id="edge59" class="edge"><title>14&#45;&gt;15</title>
<path fill="none" stroke="black" d="M926.575,-216.588C954.754,-206.524 991.021,-193.572 1020.84,-182.922"/>
<polygon fill="black" stroke="black" points="1022.04,-186.211 1030.28,-179.552 1019.68,-179.619 1022.04,-186.211"/>
</g>
<!-- 15&#45;&gt;2 -->
<g id="edge60" class="edge"><title>15&#45;&gt;2</title>
<path fill="none" stroke="black" d="M1127.06,-179.331C1179.06,-199.712 1252.62,-240.024 1252.62,-305 1252.62,-811 1252.62,-811 1252.62,-811 1252.62,-859.145 1214.28,-903.152 1186.06,-929.022"/>
<polygon fill="black" stroke="black" points="1183.55,-926.565 1178.41,-935.826 1188.2,-931.796 1183.55,-926.565"/>
</g>
<!-- 15&#45;&gt;6 -->
<g id="edge61" class="edge"><title>15&#45;&gt;6</title>
<path fill="none" stroke="black" d="M1010.82,-145.116C965.822,-134.255 906.152,-119.852 859.683,-108.636"/>
<polygon fill="black" stroke="black" points="860.221,-105.165 849.679,-106.221 858.578,-111.969 860.221,-105.165"/>
</g>
<!-- 15&#45;&gt;8 -->
<g id="edge62" class="edge"><title>15&#45;&gt;8</title>
<path fill="none" stroke="black" d="M1099.31,-179.975C1128.82,-204.179 1176.62,-251.63 1176.62,-305 1176.62,-451 1176.62,-451 1176.62,-451 1176.62,-527.678 1168.16,-557.108 1114.62,-612 1099.76,-627.241 1079.87,-638.279 1060.21,-646.198"/>
<polygon fill="black" stroke="black" points="1058.71,-643.023 1050.6,-649.839 1061.19,-649.569 1058.71,-643.023"/>
</g>
</g>
</svg>
