<?xml version="1.0" encoding="UTF-8" standalone="no"?>
<!DOCTYPE svg PUBLIC "-//W3C//DTD SVG 1.1//EN"
 "http://www.w3.org/Graphics/SVG/1.1/DTD/svg11.dtd">
<!-- Generated by graphviz version 2.38.0 (20140413.2041)
 -->
<!-- Title: G Pages: 1 -->
<svg width="107pt" height="218pt"
 viewBox="0.00 0.00 107.30 218.00" xmlns="http://www.w3.org/2000/svg" xmlns:xlink="http://www.w3.org/1999/xlink">
<g id="graph0" class="graph" transform="scale(1 1) rotate(0) translate(4 214)">
<title>G</title>
<polygon fill="white" stroke="none" points="-4,4 -4,-214 103.298,-214 103.298,4 -4,4"/>
<!-- 0 -->
<g id="node1" class="node"><title>0</title>
<ellipse fill="none" stroke="black" cx="72.2976" cy="-192" rx="27" ry="18"/>
<text text-anchor="middle" x="72.2976" y="-188.3" font-family="Times,serif" font-size="14.00">top</text>
</g>
<!-- 1 -->
<g id="node2" class="node"><title>1</title>
<ellipse fill="none" stroke="black" cx="27.2976" cy="-105" rx="27.0966" ry="18"/>
<text text-anchor="middle" x="27.2976" y="-101.3" font-family="Times,serif" font-size="14.00">right</text>
</g>
<!-- 0&#45;&#45;1 -->
<g id="edge1" class="edge"><title>0&#45;&#45;1</title>
<path fill="none" stroke="black" d="M63.6211,-174.611C55.6526,-159.56 43.9074,-137.374 35.9474,-122.339"/>
<text text-anchor="middle" x="62.7976" y="-144.8" font-family="Times,serif" font-size="14.00">AB</text>
</g>
<!-- 2 -->
<g id="node3" class="node"><title>2</title>
<ellipse fill="none" stroke="black" cx="66.2976" cy="-18" rx="27" ry="18"/>
<text text-anchor="middle" x="66.2976" y="-14.3" font-family="Times,serif" font-size="14.00">left</text>
</g>
<!-- 1&#45;&#45;2 -->
<g id="edge2" class="edge"><title>1&#45;&#45;2</title>
<path fill="none" stroke="black" d="M34.8172,-87.6111C41.7232,-72.5596 51.9024,-50.3742 58.8011,-35.3385"/>
<text text-anchor="middle" x="58.7976" y="-57.8" font-family="Times,serif" font-size="14.00">BC</text>
</g>
<!-- 2&#45;&#45;0 -->
<g id="edge3" class="edge"><title>2&#45;&#45;0</title>
<path fill="none" stroke="black" d="M69.6525,-36.0304C70.6574,-41.7231 71.6604,-48.116 72.2976,-54 76.7463,-95.0847 78.0351,-125.494 76.2976,-156 75.9637,-161.862 75.3177,-168.249 74.6407,-173.944"/>
<text text-anchor="middle" x="85.7976" y="-101.3" font-family="Times,serif" font-size="14.00">CA</text>
</g>
</g>
</svg>
