<?xml version="1.0" encoding="UTF-8" standalone="no"?>
<!DOCTYPE svg PUBLIC "-//W3C//DTD SVG 1.1//EN"
 "http://www.w3.org/Graphics/SVG/1.1/DTD/svg11.dtd">
<!-- Generated by graphviz version 2.36.0 (20140111.2315)
 -->
<!-- Title: G Pages: 1 -->
<svg width="323pt" height="220pt"
 viewBox="0.00 0.00 323.00 220.00" xmlns="http://www.w3.org/2000/svg" xmlns:xlink="http://www.w3.org/1999/xlink">
<g id="graph0" class="graph" transform="scale(1 1) rotate(0) translate(4 216)">
<title>G</title>
<polygon fill="white" stroke="none" points="-4,4 -4,-216 319,-216 319,4 -4,4"/>
<!-- 0 -->
<g id="node1" class="node"><title>0</title>
<ellipse fill="none" stroke="black" cx="174" cy="-194" rx="61.1419" ry="18"/>
<text text-anchor="middle" x="174" y="-190.3" font-family="Times,serif" font-size="14.00">top,source,0,0</text>
</g>
<!-- 1 -->
<g id="node2" class="node"><title>1</title>
<ellipse fill="none" stroke="black" cx="85" cy="-106" rx="85.19" ry="18"/>
<text text-anchor="middle" x="85" y="-102.3" font-family="Times,serif" font-size="14.00">right,target,3.14,3.14</text>
</g>
<!-- 0&#45;&#45;1 -->
<g id="edge1" class="edge"><title>0&#45;&#45;1</title>
<path fill="none" stroke="black" d="M152.893,-176.887C145.741,-171.151 137.837,-164.499 131,-158 119.765,-147.321 108.078,-134.336 99.296,-124.141"/>
<text text-anchor="middle" x="164" y="-146.3" font-family="Times,serif" font-size="14.00">AB,first,0,0</text>
</g>
<!-- 2 -->
<g id="node3" class="node"><title>2</title>
<ellipse fill="none" stroke="black" cx="146" cy="-18" rx="58.2422" ry="18"/>
<text text-anchor="middle" x="146" y="-14.3" font-family="Times,serif" font-size="14.00">left,target,0,0</text>
</g>
<!-- 1&#45;&#45;2 -->
<g id="edge2" class="edge"><title>1&#45;&#45;2</title>
<path fill="none" stroke="black" d="M79.3677,-87.7833C77.0133,-77.3153 76.0291,-64.0707 82,-54 87.8128,-44.196 97.4486,-36.9595 107.501,-31.6971"/>
<text text-anchor="middle" x="139.5" y="-58.3" font-family="Times,serif" font-size="14.00">BC,second,3.14,3.14</text>
</g>
<!-- 2&#45;&#45;0 -->
<g id="edge3" class="edge"><title>2&#45;&#45;0</title>
<path fill="none" stroke="black" d="M176.842,-33.2768C184.857,-38.5837 192.497,-45.4483 197,-54 218.536,-94.8987 210.248,-113.717 197,-158 195.083,-164.409 191.573,-170.731 187.863,-176.202"/>
<text text-anchor="middle" x="263" y="-102.3" font-family="Times,serif" font-size="14.00">CA,third,3.14,3.14</text>
</g>
</g>
</svg>
