<?xml version="1.0" encoding="UTF-8" standalone="no"?>
<!DOCTYPE svg PUBLIC "-//W3C//DTD SVG 1.1//EN"
 "http://www.w3.org/Graphics/SVG/1.1/DTD/svg11.dtd">
<!-- Generated by graphviz version 2.36.0 (20140111.2315)
 -->
<!-- Title: G Pages: 1 -->
<svg width="350pt" height="116pt"
 viewBox="0.00 0.00 350.00 116.00" xmlns="http://www.w3.org/2000/svg" xmlns:xlink="http://www.w3.org/1999/xlink">
<g id="graph0" class="graph" transform="scale(1 1) rotate(0) translate(4 112)">
<title>G</title>
<polygon fill="white" stroke="none" points="-4,4 -4,-112 346,-112 346,4 -4,4"/>
<!-- 0 -->
<g id="node1" class="node"><title>0</title>
<ellipse fill="none" stroke="black" cx="162" cy="-90" rx="162.228" ry="18"/>
<text text-anchor="middle" x="162" y="-86.3" font-family="Times,serif" font-size="14.00">Sunny,You_can_see_the_yellow_thing,1,2</text>
</g>
<!-- 0&#45;&gt;0 -->
<g id="edge1" class="edge"><title>0&#45;&gt;0</title>
<path fill="none" stroke="black" d="M269.626,-103.475C309.366,-103.878 342,-99.3867 342,-90 342,-81.42 314.734,-76.9298 279.698,-76.5294"/>
<polygon fill="black" stroke="black" points="279.628,-73.0295 269.626,-76.5249 279.625,-80.0295 279.628,-73.0295"/>
</g>
<!-- 1 -->
<g id="node2" class="node"><title>1</title>
<ellipse fill="none" stroke="black" cx="162" cy="-18" rx="139.132" ry="18"/>
<text text-anchor="middle" x="162" y="-14.3" font-family="Times,serif" font-size="14.00">Rainy,Many_grey_fluffy_things,3,4</text>
</g>
<!-- 0&#45;&gt;1 -->
<g id="edge2" class="edge"><title>0&#45;&gt;1</title>
<path fill="none" stroke="black" d="M156.084,-71.6966C155.289,-63.9827 155.062,-54.7125 155.405,-46.1124"/>
<polygon fill="black" stroke="black" points="158.898,-46.3243 156.105,-36.1043 151.915,-45.8356 158.898,-46.3243"/>
</g>
<!-- 1&#45;&gt;0 -->
<g id="edge3" class="edge"><title>1&#45;&gt;0</title>
<path fill="none" stroke="black" d="M167.895,-36.1043C168.701,-43.7913 168.937,-53.0537 168.604,-61.6651"/>
<polygon fill="black" stroke="black" points="165.109,-61.4805 167.916,-71.6966 172.092,-61.9597 165.109,-61.4805"/>
</g>
<!-- 1&#45;&gt;1 -->
<g id="edge4" class="edge"><title>1&#45;&gt;1</title>
<path fill="none" stroke="black" d="M254.703,-31.4596C289.893,-31.9787 319,-27.4922 319,-18 319,-9.43478 295.3,-4.94529 264.817,-4.53151"/>
<polygon fill="black" stroke="black" points="264.7,-1.03151 254.703,-4.54037 264.706,-8.03151 264.7,-1.03151"/>
</g>
</g>
</svg>
