<?xml version="1.0" encoding="UTF-8" standalone="no"?>
<!DOCTYPE svg PUBLIC "-//W3C//DTD SVG 1.1//EN"
 "http://www.w3.org/Graphics/SVG/1.1/DTD/svg11.dtd">
<!-- Generated by graphviz version 2.36.0 (20140111.2315)
 -->
<!-- Title: G Pages: 1 -->
<svg width="238pt" height="300pt"
 viewBox="0.00 0.00 238.00 300.00" xmlns="http://www.w3.org/2000/svg" xmlns:xlink="http://www.w3.org/1999/xlink">
<g id="graph0" class="graph" transform="scale(1 1) rotate(0) translate(4 296)">
<title>G</title>
<polygon fill="white" stroke="none" points="-4,4 -4,-296 234,-296 234,4 -4,4"/>
<!-- 0 -->
<g id="node1" class="node"><title>0</title>
<ellipse fill="none" stroke="black" cx="138" cy="-218" rx="73.1654" ry="73.387"/>
<text text-anchor="middle" x="138" y="-214.3" font-family="Times,serif" font-size="14.00">Karen,red,1.1,2.2</text>
</g>
<!-- 1 -->
<g id="node2" class="node"><title>1</title>
<ellipse fill="none" stroke="black" cx="83" cy="-90" rx="83.2892" ry="18"/>
<text text-anchor="middle" x="83" y="-86.3" font-family="Times,serif" font-size="14.00">Kristel,black,3.3,4.4</text>
</g>
<!-- 0&#45;&#45;1 -->
<g id="edge1" class="edge"><title>0&#45;&#45;1</title>
<path fill="none" stroke="black" d="M108.889,-150.31C102.035,-134.608 95.3153,-119.213 90.4399,-108.044"/>
</g>
<!-- 2 -->
<g id="node3" class="node"><title>2</title>
<ellipse fill="none" stroke="black" cx="138" cy="-18" rx="91.9385" ry="18"/>
<text text-anchor="middle" x="138" y="-14.3" font-family="Times,serif" font-size="14.00">Kathleen,blond,5.5,6.6</text>
</g>
<!-- 1&#45;&#45;2 -->
<g id="edge2" class="edge"><title>1&#45;&#45;2</title>
<path fill="none" stroke="black" d="M96.314,-72.055C104.834,-61.2111 115.856,-47.183 124.427,-36.2753"/>
</g>
<!-- 2&#45;&#45;0 -->
<g id="edge3" class="edge"><title>2&#45;&#45;0</title>
<path fill="none" stroke="black" d="M154.037,-36.1544C162.014,-45.8765 170.825,-58.7261 175,-72 183.146,-97.8985 178.476,-126.815 170.096,-151.969"/>
</g>
</g>
</svg>
