<?xml version="1.0" encoding="UTF-8" standalone="no"?>
<!DOCTYPE svg PUBLIC "-//W3C//DTD SVG 1.1//EN"
 "http://www.w3.org/Graphics/SVG/1.1/DTD/svg11.dtd">
<!-- Generated by graphviz version 2.36.0 (20140111.2315)
 -->
<!-- Title: G Pages: 1 -->
<svg width="318pt" height="394pt"
 viewBox="0.00 0.00 318.00 393.59" xmlns="http://www.w3.org/2000/svg" xmlns:xlink="http://www.w3.org/1999/xlink">
<g id="graph0" class="graph" transform="scale(1 1) rotate(0) translate(4 389.587)">
<title>G</title>
<polygon fill="white" stroke="none" points="-4,4 -4,-389.587 314,-389.587 314,4 -4,4"/>
<!-- 0 -->
<g id="node1" class="node"><title>0</title>
<ellipse fill="none" stroke="black" cx="146" cy="-238.587" rx="146.331" ry="146.774"/>
<text text-anchor="middle" x="146" y="-234.887" font-family="Times,serif" font-size="14.00">Sunny,Yellow$$$SPACE$$$thing,1,2</text>
</g>
<!-- 0&#45;&gt;0 -->
<g id="edge1" class="edge"><title>0&#45;&gt;0</title>
<path fill="none" stroke="black" d="M289.658,-267.984C302.172,-261.764 310,-251.965 310,-238.587 310,-228.552 305.597,-220.532 298.116,-214.525"/>
<polygon fill="black" stroke="black" points="299.983,-211.565 289.658,-209.19 296.248,-217.485 299.983,-211.565"/>
</g>
<!-- 1 -->
<g id="node2" class="node"><title>1</title>
<ellipse fill="none" stroke="black" cx="146" cy="-37.5866" rx="140.082" ry="18"/>
<text text-anchor="middle" x="146" y="-33.8866" font-family="Times,serif" font-size="14.00">Rainy,Grey$$$SPACE$$$things,3,4</text>
</g>
<!-- 0&#45;&gt;1 -->
<g id="edge2" class="edge"><title>0&#45;&gt;1</title>
<path fill="none" stroke="black" d="M139.951,-91.6535C140.261,-82.1374 140.673,-73.3517 141.187,-65.7802"/>
<polygon fill="black" stroke="black" points="144.692,-65.8632 142.014,-55.6123 137.715,-65.2955 144.692,-65.8632"/>
</g>
<!-- 1&#45;&gt;0 -->
<g id="edge3" class="edge"><title>1&#45;&gt;0</title>
<path fill="none" stroke="black" d="M149.986,-55.6123C150.672,-62.6115 151.23,-71.4181 151.661,-81.3592"/>
<polygon fill="black" stroke="black" points="148.175,-81.7925 152.049,-91.6535 155.17,-81.5287 148.175,-81.7925"/>
</g>
<!-- 1&#45;&gt;1 -->
<g id="edge4" class="edge"><title>1&#45;&gt;1</title>
<path fill="none" stroke="black" d="M170.527,-55.5029C225.855,-86.6251 304,-80.653 304,-37.5866 304,3.20876 233.879,10.7189 179.456,-15.0561"/>
<polygon fill="black" stroke="black" points="177.804,-11.9698 170.527,-19.6703 181.018,-18.1885 177.804,-11.9698"/>
</g>
</g>
</svg>
