<?xml version="1.0" encoding="UTF-8" standalone="no"?>
<!DOCTYPE svg PUBLIC "-//W3C//DTD SVG 1.1//EN"
 "http://www.w3.org/Graphics/SVG/1.1/DTD/svg11.dtd">
<!-- Generated by graphviz version 2.38.0 (20140413.2041)
 -->
<!-- Title: G Pages: 1 -->
<svg width="238pt" height="188pt"
 viewBox="0.00 0.00 238.48 188.00" xmlns="http://www.w3.org/2000/svg" xmlns:xlink="http://www.w3.org/1999/xlink">
<g id="graph0" class="graph" transform="scale(1 1) rotate(0) translate(4 184)">
<title>G</title>
<polygon fill="white" stroke="none" points="-4,4 -4,-184 234.484,-184 234.484,4 -4,4"/>
<!-- 0 -->
<g id="node1" class="node"><title>0</title>
<ellipse fill="none" stroke="black" cx="138.193" cy="-162" rx="59.5901" ry="18"/>
<text text-anchor="middle" x="138.193" y="-158.3" font-family="Times,serif" font-size="14.00">Karen,red,0,0</text>
</g>
<!-- 1 -->
<g id="node2" class="node"><title>1</title>
<ellipse fill="none" stroke="black" cx="83.1926" cy="-90" rx="83.3857" ry="18"/>
<text text-anchor="middle" x="83.1926" y="-86.3" font-family="Times,serif" font-size="14.00">Kristel,black,1.1,1.1</text>
</g>
<!-- 0&#45;&#45;1 -->
<g id="edge1" class="edge"><title>0&#45;&#45;1</title>
<path fill="none" stroke="black" d="M125.158,-144.411C116.518,-133.414 105.214,-119.027 96.5154,-107.956"/>
</g>
<!-- 2 -->
<g id="node3" class="node"><title>2</title>
<ellipse fill="none" stroke="black" cx="138.193" cy="-18" rx="92.0841" ry="18"/>
<text text-anchor="middle" x="138.193" y="-14.3" font-family="Times,serif" font-size="14.00">Kathleen,blond,2.2,2.2</text>
</g>
<!-- 1&#45;&#45;2 -->
<g id="edge2" class="edge"><title>1&#45;&#45;2</title>
<path fill="none" stroke="black" d="M96.5066,-72.055C105.027,-61.2111 116.049,-47.183 124.619,-36.2753"/>
</g>
<!-- 2&#45;&#45;0 -->
<g id="edge3" class="edge"><title>2&#45;&#45;0</title>
<path fill="none" stroke="black" d="M154.23,-36.1544C162.206,-45.8765 171.018,-58.7261 175.193,-72 179.993,-87.2629 179.993,-92.7371 175.193,-108 170.95,-121.488 161.921,-134.538 153.844,-144.314"/>
</g>
</g>
</svg>
