<?xml version="1.0" encoding="UTF-8" standalone="no"?>
<!DOCTYPE svg PUBLIC "-//W3C//DTD SVG 1.1//EN"
 "http://www.w3.org/Graphics/SVG/1.1/DTD/svg11.dtd">
<!-- Generated by graphviz version 2.36.0 (20140111.2315)
 -->
<!-- Title: G Pages: 1 -->
<svg width="1336pt" height="980pt"
 viewBox="0.00 0.00 1336.00 980.00" xmlns="http://www.w3.org/2000/svg" xmlns:xlink="http://www.w3.org/1999/xlink">
<g id="graph0" class="graph" transform="scale(1 1) rotate(0) translate(4 976)">
<title>G</title>
<polygon fill="white" stroke="none" points="-4,4 -4,-976 1332,-976 1332,4 -4,4"/>
<!-- 0 -->
<g id="node1" class="node"><title>0</title>
<ellipse fill="none" stroke="black" cx="622" cy="-954" rx="133.333" ry="18"/>
<text text-anchor="middle" x="622" y="-950.3" font-family="Times,serif" font-size="14.00">Building graphs without properties</text>
</g>
<!-- 1 -->
<g id="node2" class="node"><title>1</title>
<ellipse fill="none" stroke="black" cx="893" cy="-882" rx="146.356" ry="18"/>
<text text-anchor="middle" x="893" y="-878.3" font-family="Times,serif" font-size="14.00">Working on graphs without properties</text>
</g>
<!-- 0&#45;&gt;1 -->
<g id="edge1" class="edge"><title>0&#45;&gt;1</title>
<path fill="none" stroke="black" d="M680.803,-937.811C722.628,-927.007 778.991,-912.449 823.116,-901.051"/>
<polygon fill="black" stroke="black" points="824.099,-904.412 832.906,-898.522 822.349,-897.635 824.099,-904.412"/>
</g>
<!-- 2 -->
<g id="node3" class="node"><title>2</title>
<ellipse fill="none" stroke="black" cx="504" cy="-810" rx="141.531" ry="18"/>
<text text-anchor="middle" x="504" y="-806.3" font-family="Times,serif" font-size="14.00">Building graphs with named vertices</text>
</g>
<!-- 0&#45;&gt;2 -->
<g id="edge2" class="edge"><title>0&#45;&gt;2</title>
<path fill="none" stroke="black" d="M607.766,-935.871C587.124,-911.031 548.746,-864.846 524.892,-836.142"/>
<polygon fill="black" stroke="black" points="527.367,-833.643 518.284,-828.189 521.983,-838.117 527.367,-833.643"/>
</g>
<!-- 6 -->
<g id="node7" class="node"><title>6</title>
<ellipse fill="none" stroke="black" cx="629" cy="-522" rx="143.456" ry="18"/>
<text text-anchor="middle" x="629" y="-518.3" font-family="Times,serif" font-size="14.00">Building graphs with custom vertices</text>
</g>
<!-- 0&#45;&gt;6 -->
<g id="edge3" class="edge"><title>0&#45;&gt;6</title>
<path fill="none" stroke="black" d="M631.571,-935.78C656.19,-889.3 718.013,-757.409 692,-648 689.534,-637.627 660.841,-582.729 643.039,-549.23"/>
<polygon fill="black" stroke="black" points="646.128,-547.584 638.338,-540.403 639.95,-550.875 646.128,-547.584"/>
</g>
<!-- 10 -->
<g id="node11" class="node"><title>10</title>
<ellipse fill="none" stroke="black" cx="497" cy="-234" rx="135.258" ry="18"/>
<text text-anchor="middle" x="497" y="-230.3" font-family="Times,serif" font-size="14.00">Building graphs with a graph name</text>
</g>
<!-- 0&#45;&gt;10 -->
<g id="edge4" class="edge"><title>0&#45;&gt;10</title>
<path fill="none" stroke="black" d="M531.043,-940.765C408.078,-921.63 204,-879.547 204,-811 204,-811 204,-811 204,-521 204,-406.294 221.883,-354.983 315,-288 339.842,-270.13 370.651,-258.249 399.813,-250.364"/>
<polygon fill="black" stroke="black" points="400.815,-253.72 409.629,-247.84 399.072,-246.941 400.815,-253.72"/>
</g>
<!-- 1&#45;&gt;2 -->
<g id="edge5" class="edge"><title>1&#45;&gt;2</title>
<path fill="none" stroke="black" d="M814.28,-866.834C749.875,-855.245 658.839,-838.863 592.029,-826.841"/>
<polygon fill="black" stroke="black" points="592.4,-823.351 581.938,-825.025 591.16,-830.241 592.4,-823.351"/>
</g>
<!-- 3 -->
<g id="node4" class="node"><title>3</title>
<ellipse fill="none" stroke="black" cx="893" cy="-738" rx="153.08" ry="18"/>
<text text-anchor="middle" x="893" y="-734.3" font-family="Times,serif" font-size="14.00">Working on graphs with named vertices</text>
</g>
<!-- 1&#45;&gt;3 -->
<g id="edge8" class="edge"><title>1&#45;&gt;3</title>
<path fill="none" stroke="black" d="M893,-863.871C893,-839.67 893,-795.211 893,-766.393"/>
<polygon fill="black" stroke="black" points="896.5,-766.189 893,-756.189 889.5,-766.189 896.5,-766.189"/>
</g>
<!-- 1&#45;&gt;6 -->
<g id="edge6" class="edge"><title>1&#45;&gt;6</title>
<path fill="none" stroke="black" d="M861.843,-864.309C825.643,-843.446 766.373,-804.508 731,-756 700.931,-714.766 712.188,-694.871 692,-648 690.922,-645.497 660.395,-585.073 642.237,-549.167"/>
<polygon fill="black" stroke="black" points="645.332,-547.531 637.696,-540.187 639.086,-550.691 645.332,-547.531"/>
</g>
<!-- 7 -->
<g id="node8" class="node"><title>7</title>
<ellipse fill="none" stroke="black" cx="993" cy="-450" rx="155.005" ry="18"/>
<text text-anchor="middle" x="993" y="-446.3" font-family="Times,serif" font-size="14.00">Working on graphs with custom vertices</text>
</g>
<!-- 1&#45;&gt;7 -->
<g id="edge9" class="edge"><title>1&#45;&gt;7</title>
<path fill="none" stroke="black" d="M921.234,-864.162C955.908,-842.452 1015.03,-801.978 1055,-756 1103.32,-700.418 1118.15,-683.196 1137,-612 1149.75,-563.842 1141.51,-539.93 1107,-504 1093.29,-489.723 1074.99,-478.911 1057.06,-470.899"/>
<polygon fill="black" stroke="black" points="1058.33,-467.633 1047.75,-466.961 1055.6,-474.08 1058.33,-467.633"/>
</g>
<!-- 1&#45;&gt;10 -->
<g id="edge7" class="edge"><title>1&#45;&gt;10</title>
<path fill="none" stroke="black" d="M981.107,-867.63C1098.07,-847.351 1290,-804.148 1290,-739 1290,-739 1290,-739 1290,-593 1290,-414.297 1187.33,-368.914 1028,-288 962.487,-254.731 774.305,-242.342 640.615,-237.731"/>
<polygon fill="black" stroke="black" points="640.392,-234.221 630.281,-237.386 640.158,-241.218 640.392,-234.221"/>
</g>
<!-- 11 -->
<g id="node12" class="node"><title>11</title>
<ellipse fill="none" stroke="black" cx="1157" cy="-162" rx="148.28" ry="18"/>
<text text-anchor="middle" x="1157" y="-158.3" font-family="Times,serif" font-size="14.00">Working on graphs with a graph name</text>
</g>
<!-- 1&#45;&gt;11 -->
<g id="edge10" class="edge"><title>1&#45;&gt;11</title>
<path fill="none" stroke="black" d="M1025.82,-874.435C1085.93,-867.68 1156.64,-854.299 1216,-828 1274.13,-802.246 1328,-802.58 1328,-739 1328,-739 1328,-739 1328,-305 1328,-244.458 1263.78,-204.79 1214.05,-183.148"/>
<polygon fill="black" stroke="black" points="1215.21,-179.84 1204.63,-179.188 1212.49,-186.292 1215.21,-179.84"/>
</g>
<!-- 2&#45;&gt;3 -->
<g id="edge11" class="edge"><title>2&#45;&gt;3</title>
<path fill="none" stroke="black" d="M582.252,-794.919C645.983,-783.45 736.016,-767.249 802.778,-755.235"/>
<polygon fill="black" stroke="black" points="803.647,-758.635 812.869,-753.42 802.407,-751.746 803.647,-758.635"/>
</g>
<!-- 4 -->
<g id="node5" class="node"><title>4</title>
<ellipse fill="none" stroke="black" cx="505" cy="-666" rx="178.601" ry="18"/>
<text text-anchor="middle" x="505" y="-662.3" font-family="Times,serif" font-size="14.00">Building graphs with named edges and vertices</text>
</g>
<!-- 2&#45;&gt;4 -->
<g id="edge12" class="edge"><title>2&#45;&gt;4</title>
<path fill="none" stroke="black" d="M504.121,-791.871C504.291,-767.67 504.604,-723.211 504.807,-694.393"/>
<polygon fill="black" stroke="black" points="508.308,-694.214 504.879,-684.189 501.309,-694.164 508.308,-694.214"/>
</g>
<!-- 2&#45;&gt;6 -->
<g id="edge13" class="edge"><title>2&#45;&gt;6</title>
<path fill="none" stroke="black" d="M456.337,-793.031C387.501,-767.302 273.066,-712.93 317,-648 361.18,-582.705 445.628,-551.514 515.535,-536.616"/>
<polygon fill="black" stroke="black" points="516.639,-539.963 525.737,-534.534 515.239,-533.105 516.639,-539.963"/>
</g>
<!-- 2&#45;&gt;10 -->
<g id="edge14" class="edge"><title>2&#45;&gt;10</title>
<path fill="none" stroke="black" d="M409.565,-796.511C334.449,-780.545 242,-744.946 242,-667 242,-667 242,-667 242,-521 242,-408.134 260.888,-365.436 343,-288 360.824,-271.191 384.405,-259.629 407.77,-251.71"/>
<polygon fill="black" stroke="black" points="408.935,-255.012 417.399,-248.639 406.809,-248.342 408.935,-255.012"/>
</g>
<!-- 3&#45;&gt;4 -->
<g id="edge15" class="edge"><title>3&#45;&gt;4</title>
<path fill="none" stroke="black" d="M813.077,-722.581C750.513,-711.294 663.399,-695.577 597.764,-683.736"/>
<polygon fill="black" stroke="black" points="598.294,-680.275 587.832,-681.944 597.051,-687.164 598.294,-680.275"/>
</g>
<!-- 5 -->
<g id="node6" class="node"><title>5</title>
<ellipse fill="none" stroke="black" cx="919" cy="-594" rx="191.125" ry="18"/>
<text text-anchor="middle" x="919" y="-590.3" font-family="Times,serif" font-size="14.00">Working on graphs with named edges and vertices</text>
</g>
<!-- 3&#45;&gt;5 -->
<g id="edge18" class="edge"><title>3&#45;&gt;5</title>
<path fill="none" stroke="black" d="M896.136,-719.871C900.567,-695.67 908.708,-651.211 913.984,-622.393"/>
<polygon fill="black" stroke="black" points="917.494,-622.656 915.853,-612.189 910.609,-621.395 917.494,-622.656"/>
</g>
<!-- 3&#45;&gt;6 -->
<g id="edge16" class="edge"><title>3&#45;&gt;6</title>
<path fill="none" stroke="black" d="M879.057,-720.022C862.374,-700.567 832.812,-668.71 802,-648 768.628,-625.57 752.31,-634.522 719,-612 692.24,-593.907 666.537,-567.247 649.5,-547.824"/>
<polygon fill="black" stroke="black" points="651.93,-545.282 642.752,-539.989 646.626,-549.85 651.93,-545.282"/>
</g>
<!-- 3&#45;&gt;7 -->
<g id="edge19" class="edge"><title>3&#45;&gt;7</title>
<path fill="none" stroke="black" d="M955.603,-721.526C1009.51,-704.525 1083.98,-671.383 1119,-612 1150.57,-558.465 1080,-502.842 1032.25,-473.033"/>
<polygon fill="black" stroke="black" points="1033.99,-469.994 1023.63,-467.774 1030.35,-475.97 1033.99,-469.994"/>
</g>
<!-- 3&#45;&gt;10 -->
<g id="edge17" class="edge"><title>3&#45;&gt;10</title>
<path fill="none" stroke="black" d="M855.33,-720.515C754.819,-676.359 487.128,-557.564 476,-540 419.86,-451.389 462.917,-317.816 485.468,-261.515"/>
<polygon fill="black" stroke="black" points="488.718,-262.816 489.283,-252.236 482.244,-260.154 488.718,-262.816"/>
</g>
<!-- 3&#45;&gt;11 -->
<g id="edge20" class="edge"><title>3&#45;&gt;11</title>
<path fill="none" stroke="black" d="M984.091,-723.5C1016.63,-715.645 1052.3,-703.309 1081,-684 1114.63,-661.369 1117.32,-647.443 1137,-612 1207.83,-484.431 1195.06,-433.826 1190,-288 1188.89,-255.942 1193.79,-246.848 1185,-216 1182.39,-206.838 1178.06,-197.451 1173.59,-189.172"/>
<polygon fill="black" stroke="black" points="1176.55,-187.307 1168.55,-180.366 1170.48,-190.784 1176.55,-187.307"/>
</g>
<!-- 4&#45;&gt;5 -->
<g id="edge21" class="edge"><title>4&#45;&gt;5</title>
<path fill="none" stroke="black" d="M592.04,-650.283C658.726,-639.008 750.773,-623.444 820.216,-611.703"/>
<polygon fill="black" stroke="black" points="821.016,-615.117 830.292,-609.999 819.849,-608.215 821.016,-615.117"/>
</g>
<!-- 4&#45;&gt;6 -->
<g id="edge22" class="edge"><title>4&#45;&gt;6</title>
<path fill="none" stroke="black" d="M519.957,-647.871C541.742,-622.924 582.326,-576.45 607.367,-547.773"/>
<polygon fill="black" stroke="black" points="610.048,-550.024 613.99,-540.189 604.776,-545.419 610.048,-550.024"/>
</g>
<!-- 4&#45;&gt;10 -->
<g id="edge23" class="edge"><title>4&#45;&gt;10</title>
<path fill="none" stroke="black" d="M457.474,-648.464C407.488,-627.682 336,-586.807 336,-523 336,-523 336,-523 336,-377 336,-317.951 397.668,-277.601 444.672,-255.423"/>
<polygon fill="black" stroke="black" points="446.213,-258.568 453.855,-251.23 443.305,-252.2 446.213,-258.568"/>
</g>
<!-- 5&#45;&gt;6 -->
<g id="edge24" class="edge"><title>5&#45;&gt;6</title>
<path fill="none" stroke="black" d="M852.832,-577.028C807.822,-566.164 748.253,-551.785 701.884,-540.593"/>
<polygon fill="black" stroke="black" points="702.443,-537.127 691.901,-538.183 700.801,-543.932 702.443,-537.127"/>
</g>
<!-- 5&#45;&gt;7 -->
<g id="edge26" class="edge"><title>5&#45;&gt;7</title>
<path fill="none" stroke="black" d="M927.926,-575.871C940.705,-551.35 964.321,-506.032 979.316,-477.259"/>
<polygon fill="black" stroke="black" points="982.525,-478.675 984.042,-468.189 976.317,-475.44 982.525,-478.675"/>
</g>
<!-- 5&#45;&gt;10 -->
<g id="edge25" class="edge"><title>5&#45;&gt;10</title>
<path fill="none" stroke="black" d="M894.591,-576.062C867.41,-557.484 821.906,-527.225 781,-504 686.972,-450.613 633.654,-477.851 563,-396 530.029,-357.804 548.635,-334.045 528,-288 523.902,-278.856 518.634,-269.281 513.607,-260.825"/>
<polygon fill="black" stroke="black" points="516.515,-258.871 508.315,-252.162 510.541,-262.52 516.515,-258.871"/>
</g>
<!-- 5&#45;&gt;11 -->
<g id="edge27" class="edge"><title>5&#45;&gt;11</title>
<path fill="none" stroke="black" d="M1018.36,-578.618C1090.68,-561.875 1176,-526.189 1176,-451 1176,-451 1176,-451 1176,-305 1176,-264.86 1168.45,-218.897 1162.87,-190.405"/>
<polygon fill="black" stroke="black" points="1166.26,-189.498 1160.84,-180.388 1159.39,-190.883 1166.26,-189.498"/>
</g>
<!-- 6&#45;&gt;7 -->
<g id="edge28" class="edge"><title>6&#45;&gt;7</title>
<path fill="none" stroke="black" d="M703.98,-506.581C762.827,-495.264 844.825,-479.495 906.456,-467.643"/>
<polygon fill="black" stroke="black" points="907.393,-471.027 916.552,-465.702 906.071,-464.153 907.393,-471.027"/>
</g>
<!-- 8 -->
<g id="node9" class="node"><title>8</title>
<ellipse fill="none" stroke="black" cx="753" cy="-378" rx="180.526" ry="18"/>
<text text-anchor="middle" x="753" y="-374.3" font-family="Times,serif" font-size="14.00">Building graphs with custom edges and vertices</text>
</g>
<!-- 6&#45;&gt;8 -->
<g id="edge29" class="edge"><title>6&#45;&gt;8</title>
<path fill="none" stroke="black" d="M643.957,-503.871C665.742,-478.924 706.326,-432.45 731.367,-403.773"/>
<polygon fill="black" stroke="black" points="734.048,-406.024 737.99,-396.189 728.776,-401.419 734.048,-406.024"/>
</g>
<!-- 6&#45;&gt;10 -->
<g id="edge30" class="edge"><title>6&#45;&gt;10</title>
<path fill="none" stroke="black" d="M605.122,-504.18C579.768,-481.718 541.343,-439.662 521,-396 500.539,-352.083 492.702,-295.592 492.372,-262.529"/>
<polygon fill="black" stroke="black" points="495.875,-262.323 492.54,-252.267 488.876,-262.208 495.875,-262.323"/>
</g>
<!-- 7&#45;&gt;8 -->
<g id="edge31" class="edge"><title>7&#45;&gt;8</title>
<path fill="none" stroke="black" d="M938.54,-433.116C902.866,-422.711 856.043,-409.054 818.361,-398.063"/>
<polygon fill="black" stroke="black" points="819.072,-394.625 808.492,-395.185 817.112,-401.345 819.072,-394.625"/>
</g>
<!-- 9 -->
<g id="node10" class="node"><title>9</title>
<ellipse fill="none" stroke="black" cx="803" cy="-306" rx="193.049" ry="18"/>
<text text-anchor="middle" x="803" y="-302.3" font-family="Times,serif" font-size="14.00">Working on graphs with custom edges and vertices</text>
</g>
<!-- 7&#45;&gt;9 -->
<g id="edge33" class="edge"><title>7&#45;&gt;9</title>
<path fill="none" stroke="black" d="M987.259,-431.926C979.774,-412.08 964.876,-379.557 942,-360 924.558,-345.088 902.479,-334.143 881.084,-326.207"/>
<polygon fill="black" stroke="black" points="882.242,-322.904 871.647,-322.879 879.913,-329.506 882.242,-322.904"/>
</g>
<!-- 7&#45;&gt;10 -->
<g id="edge32" class="edge"><title>7&#45;&gt;10</title>
<path fill="none" stroke="black" d="M1001.4,-431.849C1016,-399.288 1041.21,-328.187 1005,-288 980.581,-260.901 777.668,-246.742 635.813,-240.084"/>
<polygon fill="black" stroke="black" points="635.859,-236.582 625.708,-239.617 635.536,-243.575 635.859,-236.582"/>
</g>
<!-- 7&#45;&gt;11 -->
<g id="edge34" class="edge"><title>7&#45;&gt;11</title>
<path fill="none" stroke="black" d="M1006.82,-431.681C1014.76,-421.491 1024.76,-408.241 1033,-396 1080.81,-324.965 1124.89,-233.485 1145.22,-189.257"/>
<polygon fill="black" stroke="black" points="1148.44,-190.613 1149.41,-180.063 1142.08,-187.708 1148.44,-190.613"/>
</g>
<!-- 8&#45;&gt;9 -->
<g id="edge35" class="edge"><title>8&#45;&gt;9</title>
<path fill="none" stroke="black" d="M765.36,-359.697C771.233,-351.474 778.369,-341.483 784.842,-332.421"/>
<polygon fill="black" stroke="black" points="787.818,-334.276 790.783,-324.104 782.122,-330.207 787.818,-334.276"/>
</g>
<!-- 8&#45;&gt;10 -->
<g id="edge36" class="edge"><title>8&#45;&gt;10</title>
<path fill="none" stroke="black" d="M690.82,-361.052C662.367,-352.338 628.864,-340.016 601,-324 596.692,-321.524 553.611,-284.285 524.266,-258.77"/>
<polygon fill="black" stroke="black" points="526.239,-255.847 516.397,-251.923 521.644,-261.127 526.239,-255.847"/>
</g>
<!-- 9&#45;&gt;10 -->
<g id="edge37" class="edge"><title>9&#45;&gt;10</title>
<path fill="none" stroke="black" d="M733.564,-289.116C685.393,-278.096 621.281,-263.43 571.951,-252.146"/>
<polygon fill="black" stroke="black" points="572.505,-248.682 561.977,-249.864 570.944,-255.506 572.505,-248.682"/>
</g>
<!-- 10&#45;&gt;2 -->
<g id="edge40" class="edge"><title>10&#45;&gt;2</title>
<path fill="none" stroke="black" d="M430.544,-249.81C406.363,-257.744 380.304,-269.795 361,-288 278.888,-365.436 260,-408.134 260,-521 260,-667 260,-667 260,-667 260,-739.852 340.76,-775.711 409.401,-793.123"/>
<polygon fill="black" stroke="black" points="408.885,-796.6 419.429,-795.56 410.538,-789.798 408.885,-796.6"/>
</g>
<!-- 10&#45;&gt;6 -->
<g id="edge41" class="edge"><title>10&#45;&gt;6</title>
<path fill="none" stroke="black" d="M503.296,-252.267C509.092,-282.659 516.226,-347.119 539,-396 557.093,-434.833 589.489,-472.395 610.295,-496.032"/>
<polygon fill="black" stroke="black" points="607.893,-498.6 617.129,-503.791 613.146,-493.973 607.893,-498.6"/>
</g>
<!-- 10&#45;&gt;11 -->
<g id="edge38" class="edge"><title>10&#45;&gt;11</title>
<path fill="none" stroke="black" d="M599.401,-222.139C718.379,-209.52 914.315,-188.739 1039.42,-175.471"/>
<polygon fill="black" stroke="black" points="1039.85,-178.945 1049.42,-174.41 1039.11,-171.984 1039.85,-178.945"/>
</g>
<!-- 12 -->
<g id="node13" class="node"><title>12</title>
<ellipse fill="none" stroke="black" cx="497" cy="-90" rx="173.302" ry="18"/>
<text text-anchor="middle" x="497" y="-86.3" font-family="Times,serif" font-size="14.00">Building graphs with custom graph properties</text>
</g>
<!-- 10&#45;&gt;12 -->
<g id="edge39" class="edge"><title>10&#45;&gt;12</title>
<path fill="none" stroke="black" d="M497,-215.871C497,-191.67 497,-147.211 497,-118.393"/>
<polygon fill="black" stroke="black" points="500.5,-118.189 497,-108.189 493.5,-118.189 500.5,-118.189"/>
</g>
<!-- 11&#45;&gt;2 -->
<g id="edge43" class="edge"><title>11&#45;&gt;2</title>
<path fill="none" stroke="black" d="M1189.88,-179.673C1229.26,-202.26 1290,-246.565 1290,-305 1290,-379 1290,-379 1290,-379 1290,-576.442 1229.2,-663.061 1055,-756 987.946,-791.775 793.419,-803.575 654.53,-807.369"/>
<polygon fill="black" stroke="black" points="654.115,-803.879 644.21,-807.639 654.299,-810.876 654.115,-803.879"/>
</g>
<!-- 11&#45;&gt;6 -->
<g id="edge44" class="edge"><title>11&#45;&gt;6</title>
<path fill="none" stroke="black" d="M1141.99,-180.257C1097.29,-231.529 966.549,-380.369 942,-396 897.538,-424.31 878.264,-413.257 829,-432 774.083,-452.894 712.552,-481.012 672.426,-500.008"/>
<polygon fill="black" stroke="black" points="670.731,-496.938 663.202,-504.392 673.736,-503.26 670.731,-496.938"/>
</g>
<!-- 11&#45;&gt;12 -->
<g id="edge42" class="edge"><title>11&#45;&gt;12</title>
<path fill="none" stroke="black" d="M1049.49,-149.597C932.958,-137.238 747.138,-117.53 623.623,-104.43"/>
<polygon fill="black" stroke="black" points="623.67,-100.915 613.357,-103.341 622.932,-107.876 623.67,-100.915"/>
</g>
<!-- 13 -->
<g id="node14" class="node"><title>13</title>
<ellipse fill="none" stroke="black" cx="185" cy="-18" rx="185.326" ry="18"/>
<text text-anchor="middle" x="185" y="-14.3" font-family="Times,serif" font-size="14.00">Working on graphs with custom graph properties</text>
</g>
<!-- 12&#45;&gt;13 -->
<g id="edge45" class="edge"><title>12&#45;&gt;13</title>
<path fill="none" stroke="black" d="M427.757,-73.4647C379.621,-62.6651 315.327,-48.24 264.999,-36.9484"/>
<polygon fill="black" stroke="black" points="265.652,-33.508 255.128,-34.7339 264.119,-40.3382 265.652,-33.508"/>
</g>
<!-- 13&#45;&gt;2 -->
<g id="edge46" class="edge"><title>13&#45;&gt;2</title>
<path fill="none" stroke="black" d="M177.31,-36.0929C166.206,-62.3766 147,-114.553 147,-161 147,-667 147,-667 147,-667 147,-732.689 205.352,-728.484 265,-756 305.909,-774.872 353.917,-787.202 396.131,-795.172"/>
<polygon fill="black" stroke="black" points="395.699,-798.651 406.166,-797.006 396.958,-791.765 395.699,-798.651"/>
</g>
<!-- 13&#45;&gt;6 -->
<g id="edge47" class="edge"><title>13&#45;&gt;6</title>
<path fill="none" stroke="black" d="M185,-36.0493C185,-62.7084 185,-115.885 185,-161 185,-307 185,-307 185,-307 185,-445.96 363.667,-494.735 494.325,-511.825"/>
<polygon fill="black" stroke="black" points="494.077,-515.322 504.435,-513.098 494.951,-508.376 494.077,-515.322"/>
</g>
</g>
</svg>
