<?xml version="1.0" encoding="UTF-8" standalone="no"?>
<!DOCTYPE svg PUBLIC "-//W3C//DTD SVG 1.1//EN"
 "http://www.w3.org/Graphics/SVG/1.1/DTD/svg11.dtd">
<!-- Generated by graphviz version 2.38.0 (20140413.2041)
 -->
<!-- Title: G Pages: 1 -->
<svg width="92pt" height="116pt"
 viewBox="0.00 0.00 92.29 116.00" xmlns="http://www.w3.org/2000/svg" xmlns:xlink="http://www.w3.org/1999/xlink">
<g id="graph0" class="graph" transform="scale(1 1) rotate(0) translate(4 112)">
<title>G</title>
<polygon fill="white" stroke="none" points="-4,4 -4,-112 88.2941,-112 88.2941,4 -4,4"/>
<!-- 0 -->
<g id="node1" class="node"><title>0</title>
<ellipse fill="none" stroke="black" cx="33.1471" cy="-90" rx="33.2948" ry="18"/>
<text text-anchor="middle" x="33.1471" y="-86.3" font-family="Times,serif" font-size="14.00">Sunny</text>
</g>
<!-- 0&#45;&gt;0 -->
<g id="edge1" class="edge"><title>0&#45;&gt;0</title>
<path fill="none" stroke="black" d="M56.8226,-102.656C70.9746,-105.469 84.2941,-101.25 84.2941,-90 84.2941,-81.5625 76.8019,-77.0801 67.0854,-76.5527"/>
<polygon fill="black" stroke="black" points="66.524,-73.0855 56.8226,-77.3438 67.062,-80.0648 66.524,-73.0855"/>
</g>
<!-- 1 -->
<g id="node2" class="node"><title>1</title>
<ellipse fill="none" stroke="black" cx="33.1471" cy="-18" rx="31.6951" ry="18"/>
<text text-anchor="middle" x="33.1471" y="-14.3" font-family="Times,serif" font-size="14.00">Rainy</text>
</g>
<!-- 0&#45;&gt;1 -->
<g id="edge2" class="edge"><title>0&#45;&gt;1</title>
<path fill="none" stroke="black" d="M27.2688,-72.055C26.4385,-64.2306 26.2013,-54.7484 26.5572,-45.9768"/>
<polygon fill="black" stroke="black" points="30.0635,-46.0131 27.2855,-35.789 23.0813,-45.514 30.0635,-46.0131"/>
</g>
<!-- 1&#45;&gt;0 -->
<g id="edge3" class="edge"><title>1&#45;&gt;0</title>
<path fill="none" stroke="black" d="M39.0086,-35.789C39.8468,-43.5912 40.0919,-53.067 39.7439,-61.8479"/>
<polygon fill="black" stroke="black" points="36.2363,-61.8338 39.0253,-72.055 43.2191,-62.3255 36.2363,-61.8338"/>
</g>
<!-- 1&#45;&gt;1 -->
<g id="edge4" class="edge"><title>1&#45;&gt;1</title>
<path fill="none" stroke="black" d="M55.9621,-30.6027C69.8504,-33.5212 82.9942,-29.3203 82.9942,-18 82.9942,-9.50977 75.6008,-5.0242 66.045,-4.54331"/>
<polygon fill="black" stroke="black" points="65.6311,-1.06575 55.9621,-5.39731 66.2219,-8.04077 65.6311,-1.06575"/>
</g>
</g>
</svg>
