<?xml version="1.0" encoding="UTF-8" standalone="no"?>
<!DOCTYPE svg PUBLIC "-//W3C//DTD SVG 1.1//EN"
 "http://www.w3.org/Graphics/SVG/1.1/DTD/svg11.dtd">
<!-- Generated by graphviz version 2.36.0 (20140111.2315)
 -->
<!-- Title: G Pages: 1 -->
<svg width="330pt" height="116pt"
 viewBox="0.00 0.00 330.00 116.00" xmlns="http://www.w3.org/2000/svg" xmlns:xlink="http://www.w3.org/1999/xlink">
<g id="graph0" class="graph" transform="scale(1 1) rotate(0) translate(4 112)">
<title>G</title>
<polygon fill="white" stroke="none" points="-4,4 -4,-112 326,-112 326,4 -4,4"/>
<!-- 0 -->
<g id="node1" class="node"><title>0</title>
<ellipse fill="none" stroke="black" cx="152" cy="-90" rx="152.604" ry="18"/>
<text text-anchor="middle" x="152" y="-86.3" font-family="Times,serif" font-size="14.00">Sunny,You can see the yellow thing,1,2</text>
</g>
<!-- 0&#45;&gt;0 -->
<g id="edge1" class="edge"><title>0&#45;&gt;0</title>
<path fill="none" stroke="black" d="M253.225,-103.47C290.948,-103.912 322,-99.4219 322,-90 322,-81.4614 296.497,-76.9733 263.639,-76.5355"/>
<polygon fill="black" stroke="black" points="263.227,-73.0354 253.225,-76.5297 263.223,-80.0353 263.227,-73.0354"/>
</g>
<!-- 1 -->
<g id="node2" class="node"><title>1</title>
<ellipse fill="none" stroke="black" cx="152" cy="-18" rx="133.357" ry="18"/>
<text text-anchor="middle" x="152" y="-14.3" font-family="Times,serif" font-size="14.00">Rainy,Many grey fluffy things,3,4</text>
</g>
<!-- 0&#45;&gt;1 -->
<g id="edge2" class="edge"><title>0&#45;&gt;1</title>
<path fill="none" stroke="black" d="M146.084,-71.6966C145.289,-63.9827 145.062,-54.7125 145.405,-46.1124"/>
<polygon fill="black" stroke="black" points="148.898,-46.3243 146.105,-36.1043 141.915,-45.8356 148.898,-46.3243"/>
</g>
<!-- 1&#45;&gt;0 -->
<g id="edge3" class="edge"><title>1&#45;&gt;0</title>
<path fill="none" stroke="black" d="M157.895,-36.1043C158.701,-43.7913 158.937,-53.0537 158.604,-61.6651"/>
<polygon fill="black" stroke="black" points="155.109,-61.4805 157.916,-71.6966 162.092,-61.9597 155.109,-61.4805"/>
</g>
<!-- 1&#45;&gt;1 -->
<g id="edge4" class="edge"><title>1&#45;&gt;1</title>
<path fill="none" stroke="black" d="M240.784,-31.4537C274.798,-32.0119 303,-27.5273 303,-18 303,-9.44028 280.235,-4.95105 250.944,-4.53231"/>
<polygon fill="black" stroke="black" points="250.779,-1.03243 240.784,-4.54635 250.789,-8.03243 250.779,-1.03243"/>
</g>
</g>
</svg>
