<?xml version="1.0" encoding="UTF-8" standalone="no"?>
<!DOCTYPE svg PUBLIC "-//W3C//DTD SVG 1.1//EN"
 "http://www.w3.org/Graphics/SVG/1.1/DTD/svg11.dtd">
<!-- Generated by graphviz version 2.38.0 (20140413.2041)
 -->
<!-- Title: G Pages: 1 -->
<svg width="412pt" height="131pt"
 viewBox="0.00 0.00 412.28 131.00" xmlns="http://www.w3.org/2000/svg" xmlns:xlink="http://www.w3.org/1999/xlink">
<g id="graph0" class="graph" transform="scale(1 1) rotate(0) translate(4 127)">
<title>G</title>
<polygon fill="white" stroke="none" points="-4,4 -4,-127 408.276,-127 408.276,4 -4,4"/>
<!-- 0 -->
<g id="node1" class="node"><title>0</title>
<ellipse fill="none" stroke="black" cx="137.138" cy="-105" rx="137.276" ry="18"/>
<text text-anchor="middle" x="137.138" y="-101.3" font-family="Times,serif" font-size="14.00">Sunny,Yellow[[:SPACE:]]thing,1,1</text>
</g>
<!-- 0&#45;&gt;0 -->
<g id="edge1" class="edge"><title>0&#45;&gt;0</title>
<path fill="none" stroke="black" d="M263.748,-111.986C280.874,-110.815 292.276,-108.486 292.276,-105 292.276,-102.249 285.176,-100.219 273.768,-98.9094"/>
<polygon fill="black" stroke="black" points="274.02,-95.418 263.748,-98.0137 273.397,-102.39 274.02,-95.418"/>
<text text-anchor="middle" x="348.276" y="-101.3" font-family="Times,serif" font-size="14.00">Sometimes,20%,1,2</text>
</g>
<!-- 1 -->
<g id="node2" class="node"><title>1</title>
<ellipse fill="none" stroke="black" cx="137.138" cy="-18" rx="130.777" ry="18"/>
<text text-anchor="middle" x="137.138" y="-14.3" font-family="Times,serif" font-size="14.00">Rainy,Grey[[:SPACE:]]things,3,3</text>
</g>
<!-- 0&#45;&gt;1 -->
<g id="edge2" class="edge"><title>0&#45;&gt;1</title>
<path fill="none" stroke="black" d="M103.117,-87.5171C96.2994,-82.5558 90.0404,-76.4115 86.1378,-69 80.7669,-58.8 86.0231,-49.4142 94.8961,-41.5965"/>
<polygon fill="black" stroke="black" points="97.1937,-44.2467 103.046,-35.4149 92.9635,-38.6694 97.1937,-44.2467"/>
<text text-anchor="middle" x="127.138" y="-57.8" font-family="Times,serif" font-size="14.00">Often,80%,3,4</text>
</g>
<!-- 1&#45;&gt;0 -->
<g id="edge3" class="edge"><title>1&#45;&gt;0</title>
<path fill="none" stroke="black" d="M157.358,-36.1798C165.722,-45.4472 172.556,-57.3489 168.138,-69 166.862,-72.3656 165.097,-75.6154 163.053,-78.6885"/>
<polygon fill="black" stroke="black" points="160.096,-76.7889 156.719,-86.831 165.621,-81.0869 160.096,-76.7889"/>
<text text-anchor="middle" x="212.638" y="-57.8" font-family="Times,serif" font-size="14.00">Rarely,10%,5,6</text>
</g>
<!-- 1&#45;&gt;1 -->
<g id="edge4" class="edge"><title>1&#45;&gt;1</title>
<path fill="none" stroke="black" d="M257.57,-25.0472C274.463,-23.8969 285.776,-21.5479 285.776,-18 285.776,-15.2282 278.871,-13.1882 267.795,-11.8798"/>
<polygon fill="black" stroke="black" points="267.845,-8.37006 257.57,-10.9528 267.213,-15.3415 267.845,-8.37006"/>
<text text-anchor="middle" x="330.776" y="-14.3" font-family="Times,serif" font-size="14.00">Mostly,90%,7,8</text>
</g>
</g>
</svg>
