<?xml version="1.0" encoding="UTF-8" standalone="no"?>
<!DOCTYPE svg PUBLIC "-//W3C//DTD SVG 1.1//EN"
 "http://www.w3.org/Graphics/SVG/1.1/DTD/svg11.dtd">
<!-- Generated by graphviz version 2.38.0 (20140413.2041)
 -->
<!-- Title: G Pages: 1 -->
<svg width="432pt" height="131pt"
 viewBox="0.00 0.00 431.77 131.00" xmlns="http://www.w3.org/2000/svg" xmlns:xlink="http://www.w3.org/1999/xlink">
<g id="graph0" class="graph" transform="scale(1 1) rotate(0) translate(4 127)">
<title>G</title>
<polygon fill="white" stroke="none" points="-4,4 -4,-127 427.774,-127 427.774,4 -4,4"/>
<!-- 0 -->
<g id="node1" class="node"><title>0</title>
<ellipse fill="none" stroke="black" cx="146.887" cy="-105" rx="146.774" ry="18"/>
<text text-anchor="middle" x="146.887" y="-101.3" font-family="Times,serif" font-size="14.00">Sunny,Yellow$$$SPACE$$$thing,1,1</text>
</g>
<!-- 0&#45;&gt;0 -->
<g id="edge1" class="edge"><title>0&#45;&gt;0</title>
<path fill="none" stroke="black" d="M282.728,-111.902C300.219,-110.705 311.774,-108.404 311.774,-105 311.774,-102.314 304.58,-100.315 292.952,-99.003"/>
<polygon fill="black" stroke="black" points="292.998,-95.4935 282.728,-98.0983 292.381,-102.466 292.998,-95.4935"/>
<text text-anchor="middle" x="367.774" y="-101.3" font-family="Times,serif" font-size="14.00">Sometimes,20%,1,2</text>
</g>
<!-- 1 -->
<g id="node2" class="node"><title>1</title>
<ellipse fill="none" stroke="black" cx="146.887" cy="-18" rx="140.275" ry="18"/>
<text text-anchor="middle" x="146.887" y="-14.3" font-family="Times,serif" font-size="14.00">Rainy,Grey$$$SPACE$$$things,3,3</text>
</g>
<!-- 0&#45;&gt;1 -->
<g id="edge2" class="edge"><title>0&#45;&gt;1</title>
<path fill="none" stroke="black" d="M112.604,-87.3257C105.888,-82.398 99.7395,-76.3164 95.887,-69 90.5612,-58.8857 95.6846,-49.572 104.422,-41.7939"/>
<polygon fill="black" stroke="black" points="106.65,-44.4962 112.462,-35.6376 102.394,-38.9384 106.65,-44.4962"/>
<text text-anchor="middle" x="136.887" y="-57.8" font-family="Times,serif" font-size="14.00">Often,80%,3,4</text>
</g>
<!-- 1&#45;&gt;0 -->
<g id="edge3" class="edge"><title>1&#45;&gt;0</title>
<path fill="none" stroke="black" d="M167.107,-36.1798C175.471,-45.4472 182.305,-57.3489 177.887,-69 176.611,-72.3656 174.847,-75.6154 172.802,-78.6885"/>
<polygon fill="black" stroke="black" points="169.845,-76.7889 166.468,-86.831 175.37,-81.0869 169.845,-76.7889"/>
<text text-anchor="middle" x="222.387" y="-57.8" font-family="Times,serif" font-size="14.00">Rarely,10%,5,6</text>
</g>
<!-- 1&#45;&gt;1 -->
<g id="edge4" class="edge"><title>1&#45;&gt;1</title>
<path fill="none" stroke="black" d="M276.457,-24.9655C293.77,-23.7876 305.275,-21.4658 305.275,-18 305.275,-15.2653 298.112,-13.2428 286.584,-11.9326"/>
<polygon fill="black" stroke="black" points="286.727,-8.43162 276.457,-11.0345 286.109,-15.4043 286.727,-8.43162"/>
<text text-anchor="middle" x="350.275" y="-14.3" font-family="Times,serif" font-size="14.00">Mostly,90%,7,8</text>
</g>
</g>
</svg>
