<?xml version="1.0" encoding="UTF-8" standalone="no"?>
<!DOCTYPE svg PUBLIC "-//W3C//DTD SVG 1.1//EN"
 "http://www.w3.org/Graphics/SVG/1.1/DTD/svg11.dtd">
<!-- Generated by graphviz version 2.38.0 (20140413.2041)
 -->
<!-- Title: G Pages: 1 -->
<svg width="848pt" height="836pt"
 viewBox="0.00 0.00 847.76 836.00" xmlns="http://www.w3.org/2000/svg" xmlns:xlink="http://www.w3.org/1999/xlink">
<g id="graph0" class="graph" transform="scale(1 1) rotate(0) translate(4 832)">
<title>G</title>
<polygon fill="white" stroke="none" points="-4,4 -4,-832 843.764,-832 843.764,4 -4,4"/>
<!-- 0 -->
<g id="node1" class="node"><title>0</title>
<ellipse fill="none" stroke="black" cx="414.882" cy="-810" rx="129.977" ry="18"/>
<text text-anchor="middle" x="414.882" y="-806.3" font-family="Times,serif" font-size="14.00">Creating an empty directed graph</text>
</g>
<!-- 1 -->
<g id="node2" class="node"><title>1</title>
<ellipse fill="none" stroke="black" cx="331.882" cy="-738" rx="138.375" ry="18"/>
<text text-anchor="middle" x="331.882" y="-734.3" font-family="Times,serif" font-size="14.00">Creating an empty undirected graph</text>
</g>
<!-- 0&#45;&gt;1 -->
<g id="edge1" class="edge"><title>0&#45;&gt;1</title>
<path fill="none" stroke="black" d="M394.79,-792.055C384.265,-783.179 371.211,-772.169 359.726,-762.483"/>
<polygon fill="black" stroke="black" points="361.978,-759.803 352.077,-756.032 357.465,-765.154 361.978,-759.803"/>
</g>
<!-- 2 -->
<g id="node3" class="node"><title>2</title>
<ellipse fill="none" stroke="black" cx="414.882" cy="-666" rx="113.18" ry="18"/>
<text text-anchor="middle" x="414.882" y="-662.3" font-family="Times,serif" font-size="14.00">Add a vertex with a property</text>
</g>
<!-- 0&#45;&gt;2 -->
<g id="edge2" class="edge"><title>0&#45;&gt;2</title>
<path fill="none" stroke="black" d="M444.98,-792.372C457.953,-783.446 471.761,-771.144 478.882,-756 485.691,-741.521 485.691,-734.479 478.882,-720 473.215,-707.948 463.312,-697.695 452.965,-689.512"/>
<polygon fill="black" stroke="black" points="454.775,-686.499 444.644,-683.398 450.63,-692.14 454.775,-686.499"/>
</g>
<!-- 1&#45;&gt;2 -->
<g id="edge3" class="edge"><title>1&#45;&gt;2</title>
<path fill="none" stroke="black" d="M351.974,-720.055C362.577,-711.113 375.747,-700.005 387.293,-690.268"/>
<polygon fill="black" stroke="black" points="389.588,-692.912 394.975,-683.789 385.075,-687.561 389.588,-692.912"/>
</g>
<!-- 3 -->
<g id="node4" class="node"><title>3</title>
<ellipse fill="none" stroke="black" cx="414.882" cy="-594" rx="118.879" ry="18"/>
<text text-anchor="middle" x="414.882" y="-590.3" font-family="Times,serif" font-size="14.00">Getting the vertices&#39; properties</text>
</g>
<!-- 2&#45;&gt;3 -->
<g id="edge4" class="edge"><title>2&#45;&gt;3</title>
<path fill="none" stroke="black" d="M414.882,-647.697C414.882,-639.983 414.882,-630.712 414.882,-622.112"/>
<polygon fill="black" stroke="black" points="418.382,-622.104 414.882,-612.104 411.382,-622.104 418.382,-622.104"/>
</g>
<!-- 4 -->
<g id="node5" class="node"><title>4</title>
<ellipse fill="none" stroke="black" cx="257.882" cy="-522" rx="141.875" ry="18"/>
<text text-anchor="middle" x="257.882" y="-518.3" font-family="Times,serif" font-size="14.00">Creating a non&#45;empty directed graph</text>
</g>
<!-- 2&#45;&gt;4 -->
<g id="edge5" class="edge"><title>2&#45;&gt;4</title>
<path fill="none" stroke="black" d="M352.05,-650.896C328.884,-642.9 304.116,-630.625 286.882,-612 271.238,-595.092 264.027,-569.621 260.707,-550.254"/>
<polygon fill="black" stroke="black" points="264.149,-549.602 259.234,-540.216 257.223,-550.618 264.149,-549.602"/>
</g>
<!-- 5 -->
<g id="node6" class="node"><title>5</title>
<ellipse fill="none" stroke="black" cx="567.882" cy="-522" rx="150.273" ry="18"/>
<text text-anchor="middle" x="567.882" y="-518.3" font-family="Times,serif" font-size="14.00">Creating a non&#45;empty undirected graph</text>
</g>
<!-- 2&#45;&gt;5 -->
<g id="edge6" class="edge"><title>2&#45;&gt;5</title>
<path fill="none" stroke="black" d="M478.777,-651.032C501.803,-643.078 526.196,-630.796 542.882,-612 557.986,-594.987 564.029,-569.528 566.414,-550.192"/>
<polygon fill="black" stroke="black" points="569.904,-550.466 567.397,-540.172 562.937,-549.782 569.904,-550.466"/>
</g>
<!-- 3&#45;&gt;4 -->
<g id="edge7" class="edge"><title>3&#45;&gt;4</title>
<path fill="none" stroke="black" d="M378.469,-576.765C356.237,-566.853 327.612,-554.09 303.83,-543.486"/>
<polygon fill="black" stroke="black" points="305.201,-540.265 294.642,-539.39 302.35,-546.659 305.201,-540.265"/>
</g>
<!-- 3&#45;&gt;5 -->
<g id="edge8" class="edge"><title>3&#45;&gt;5</title>
<path fill="none" stroke="black" d="M450.368,-576.765C471.86,-566.932 499.483,-554.294 522.547,-543.742"/>
<polygon fill="black" stroke="black" points="524.156,-546.855 531.793,-539.511 521.243,-540.489 524.156,-546.855"/>
</g>
<!-- 6 -->
<g id="node7" class="node"><title>6</title>
<ellipse fill="none" stroke="black" cx="412.882" cy="-450" rx="137.576" ry="18"/>
<text text-anchor="middle" x="412.882" y="-446.3" font-family="Times,serif" font-size="14.00">Has a vertex with a certain property</text>
</g>
<!-- 4&#45;&gt;6 -->
<g id="edge9" class="edge"><title>4&#45;&gt;6</title>
<path fill="none" stroke="black" d="M294.223,-504.588C316.007,-494.75 343.904,-482.152 367.174,-471.642"/>
<polygon fill="black" stroke="black" points="368.828,-474.736 376.501,-467.43 365.947,-468.356 368.828,-474.736"/>
</g>
<!-- 7 -->
<g id="node8" class="node"><title>7</title>
<ellipse fill="none" stroke="black" cx="412.882" cy="-378" rx="111.581" ry="18"/>
<text text-anchor="middle" x="412.882" y="-374.3" font-family="Times,serif" font-size="14.00">Find a vertex by its property</text>
</g>
<!-- 4&#45;&gt;7 -->
<g id="edge10" class="edge"><title>4&#45;&gt;7</title>
<path fill="none" stroke="black" d="M254.424,-503.995C251.491,-484.515 249.96,-452.634 265.882,-432 280.03,-413.665 301.089,-401.664 322.876,-393.813"/>
<polygon fill="black" stroke="black" points="324.188,-397.065 332.576,-390.592 321.983,-390.421 324.188,-397.065"/>
</g>
<!-- 11 -->
<g id="node12" class="node"><title>11</title>
<ellipse fill="none" stroke="black" cx="412.882" cy="-90" rx="139.976" ry="18"/>
<text text-anchor="middle" x="412.882" y="-86.3" font-family="Times,serif" font-size="14.00">Save the graph with those properties</text>
</g>
<!-- 4&#45;&gt;11 -->
<g id="edge11" class="edge"><title>4&#45;&gt;11</title>
<path fill="none" stroke="black" d="M247.73,-503.732C233.377,-477.643 208.882,-426.203 208.882,-379 208.882,-379 208.882,-379 208.882,-233 208.882,-166.882 281.96,-129.042 340.638,-109.315"/>
<polygon fill="black" stroke="black" points="341.856,-112.6 350.289,-106.187 339.697,-105.941 341.856,-112.6"/>
</g>
<!-- 5&#45;&gt;6 -->
<g id="edge12" class="edge"><title>5&#45;&gt;6</title>
<path fill="none" stroke="black" d="M531.15,-504.411C509.433,-494.604 481.747,-482.1 458.622,-471.657"/>
<polygon fill="black" stroke="black" points="459.906,-468.396 449.352,-467.47 457.025,-474.776 459.906,-468.396"/>
</g>
<!-- 5&#45;&gt;7 -->
<g id="edge13" class="edge"><title>5&#45;&gt;7</title>
<path fill="none" stroke="black" d="M571.341,-503.995C574.274,-484.515 575.804,-452.634 559.882,-432 545.734,-413.665 524.676,-401.664 502.889,-393.813"/>
<polygon fill="black" stroke="black" points="503.782,-390.421 493.189,-390.592 501.577,-397.065 503.782,-390.421"/>
</g>
<!-- 5&#45;&gt;11 -->
<g id="edge14" class="edge"><title>5&#45;&gt;11</title>
<path fill="none" stroke="black" d="M578.035,-503.732C592.388,-477.643 616.882,-426.203 616.882,-379 616.882,-379 616.882,-379 616.882,-233 616.882,-166.882 543.805,-129.042 485.126,-109.315"/>
<polygon fill="black" stroke="black" points="486.067,-105.941 475.475,-106.187 483.909,-112.6 486.067,-105.941"/>
</g>
<!-- 6&#45;&gt;7 -->
<g id="edge15" class="edge"><title>6&#45;&gt;7</title>
<path fill="none" stroke="black" d="M412.882,-431.697C412.882,-423.983 412.882,-414.712 412.882,-406.112"/>
<polygon fill="black" stroke="black" points="416.382,-406.104 412.882,-396.104 409.382,-406.104 416.382,-406.104"/>
</g>
<!-- 8 -->
<g id="node9" class="node"><title>8</title>
<ellipse fill="none" stroke="black" cx="412.882" cy="-306" rx="96.6831" ry="18"/>
<text text-anchor="middle" x="412.882" y="-302.3" font-family="Times,serif" font-size="14.00">Get a vertex its property</text>
</g>
<!-- 7&#45;&gt;8 -->
<g id="edge16" class="edge"><title>7&#45;&gt;8</title>
<path fill="none" stroke="black" d="M412.882,-359.697C412.882,-351.983 412.882,-342.712 412.882,-334.112"/>
<polygon fill="black" stroke="black" points="416.382,-334.104 412.882,-324.104 409.382,-334.104 416.382,-334.104"/>
</g>
<!-- 9 -->
<g id="node10" class="node"><title>9</title>
<ellipse fill="none" stroke="black" cx="412.882" cy="-234" rx="95.5831" ry="18"/>
<text text-anchor="middle" x="412.882" y="-230.3" font-family="Times,serif" font-size="14.00">Set a vertex its property</text>
</g>
<!-- 8&#45;&gt;9 -->
<g id="edge17" class="edge"><title>8&#45;&gt;9</title>
<path fill="none" stroke="black" d="M412.882,-287.697C412.882,-279.983 412.882,-270.712 412.882,-262.112"/>
<polygon fill="black" stroke="black" points="416.382,-262.104 412.882,-252.104 409.382,-262.104 416.382,-262.104"/>
</g>
<!-- 10 -->
<g id="node11" class="node"><title>10</title>
<ellipse fill="none" stroke="black" cx="412.882" cy="-162" rx="102.082" ry="18"/>
<text text-anchor="middle" x="412.882" y="-158.3" font-family="Times,serif" font-size="14.00">Set all vertices&#39; properties</text>
</g>
<!-- 9&#45;&gt;10 -->
<g id="edge18" class="edge"><title>9&#45;&gt;10</title>
<path fill="none" stroke="black" d="M412.882,-215.697C412.882,-207.983 412.882,-198.712 412.882,-190.112"/>
<polygon fill="black" stroke="black" points="416.382,-190.104 412.882,-180.104 409.382,-190.104 416.382,-190.104"/>
</g>
<!-- 10&#45;&gt;11 -->
<g id="edge19" class="edge"><title>10&#45;&gt;11</title>
<path fill="none" stroke="black" d="M412.882,-143.697C412.882,-135.983 412.882,-126.712 412.882,-118.112"/>
<polygon fill="black" stroke="black" points="416.382,-118.104 412.882,-108.104 409.382,-118.104 416.382,-118.104"/>
</g>
<!-- 12 -->
<g id="node13" class="node"><title>12</title>
<ellipse fill="none" stroke="black" cx="198.882" cy="-18" rx="198.765" ry="18"/>
<text text-anchor="middle" x="198.882" y="-14.3" font-family="Times,serif" font-size="14.00">Load a directed graph with those properties from file</text>
</g>
<!-- 11&#45;&gt;12 -->
<g id="edge20" class="edge"><title>11&#45;&gt;12</title>
<path fill="none" stroke="black" d="M364.322,-73.1159C333.008,-62.8728 292.06,-49.4787 258.737,-38.5787"/>
<polygon fill="black" stroke="black" points="259.701,-35.2116 249.109,-35.4292 257.525,-41.8647 259.701,-35.2116"/>
</g>
<!-- 13 -->
<g id="node14" class="node"><title>13</title>
<ellipse fill="none" stroke="black" cx="627.882" cy="-18" rx="211.762" ry="18"/>
<text text-anchor="middle" x="627.882" y="-14.3" font-family="Times,serif" font-size="14.00">Load an undirected graph with those properties from file</text>
</g>
<!-- 11&#45;&gt;13 -->
<g id="edge21" class="edge"><title>11&#45;&gt;13</title>
<path fill="none" stroke="black" d="M461.669,-73.1159C493.017,-62.9095 533.975,-49.5746 567.387,-38.696"/>
<polygon fill="black" stroke="black" points="568.62,-41.9756 577.045,-35.5516 566.453,-35.3195 568.62,-41.9756"/>
</g>
</g>
</svg>
