<?xml version="1.0" encoding="UTF-8" standalone="no"?>
<!DOCTYPE svg PUBLIC "-//W3C//DTD SVG 1.1//EN"
 "http://www.w3.org/Graphics/SVG/1.1/DTD/svg11.dtd">
<!-- Generated by graphviz version 2.36.0 (20140111.2315)
 -->
<!-- Title: G Pages: 1 -->
<svg width="462pt" height="132pt"
 viewBox="0.00 0.00 462.00 132.00" xmlns="http://www.w3.org/2000/svg" xmlns:xlink="http://www.w3.org/1999/xlink">
<g id="graph0" class="graph" transform="scale(1 1) rotate(0) translate(4 128)">
<title>G</title>
<polygon fill="white" stroke="none" points="-4,4 -4,-128 458,-128 458,4 -4,4"/>
<!-- 0 -->
<g id="node1" class="node"><title>0</title>
<ellipse fill="none" stroke="black" cx="162" cy="-106" rx="162.228" ry="18"/>
<text text-anchor="middle" x="162" y="-102.3" font-family="Times,serif" font-size="14.00">Sunny,You_can_see_the_yellow_thing,1,2</text>
</g>
<!-- 0&#45;&gt;0 -->
<g id="edge1" class="edge"><title>0&#45;&gt;0</title>
<path fill="none" stroke="black" d="M310.98,-113.185C329.688,-111.918 342,-109.523 342,-106 342,-103.165 334.028,-101.06 321.165,-99.6866"/>
<polygon fill="black" stroke="black" points="321.241,-96.1804 310.98,-98.8155 320.645,-103.155 321.241,-96.1804"/>
<text text-anchor="middle" x="398" y="-102.3" font-family="Times,serif" font-size="14.00">Sometimes,20%,1,2</text>
</g>
<!-- 1 -->
<g id="node2" class="node"><title>1</title>
<ellipse fill="none" stroke="black" cx="162" cy="-18" rx="139.132" ry="18"/>
<text text-anchor="middle" x="162" y="-14.3" font-family="Times,serif" font-size="14.00">Rainy,Many_grey_fluffy_things,3,4</text>
</g>
<!-- 0&#45;&gt;1 -->
<g id="edge2" class="edge"><title>0&#45;&gt;1</title>
<path fill="none" stroke="black" d="M127.717,-88.3257C121.002,-83.398 114.853,-77.3164 111,-70 105.476,-59.5091 111.015,-49.8016 120.19,-41.7334"/>
<polygon fill="black" stroke="black" points="122.36,-44.4802 128.185,-35.6305 118.112,-38.916 122.36,-44.4802"/>
<text text-anchor="middle" x="152" y="-58.3" font-family="Times,serif" font-size="14.00">Often,80%,3,4</text>
</g>
<!-- 1&#45;&gt;0 -->
<g id="edge3" class="edge"><title>1&#45;&gt;0</title>
<path fill="none" stroke="black" d="M181.581,-36.169C186.214,-41.3811 190.525,-47.4728 193,-54 196.381,-62.9164 193.325,-72.0131 188.022,-80.0081"/>
<polygon fill="black" stroke="black" points="185.264,-77.8541 181.86,-87.8873 190.778,-82.1668 185.264,-77.8541"/>
<text text-anchor="middle" x="237.5" y="-58.3" font-family="Times,serif" font-size="14.00">Rarely,10%,5,6</text>
</g>
<!-- 1&#45;&gt;1 -->
<g id="edge4" class="edge"><title>1&#45;&gt;1</title>
<path fill="none" stroke="black" d="M288.897,-25.4035C306.912,-24.2061 319,-21.7383 319,-18 319,-15.0211 311.324,-12.8489 299.09,-11.4834"/>
<polygon fill="black" stroke="black" points="299.163,-7.97663 288.897,-10.5965 298.556,-14.9503 299.163,-7.97663"/>
<text text-anchor="middle" x="364" y="-14.3" font-family="Times,serif" font-size="14.00">Mostly,90%,7,8</text>
</g>
</g>
</svg>
