<?xml version="1.0" encoding="UTF-8" standalone="no"?>
<!DOCTYPE svg PUBLIC "-//W3C//DTD SVG 1.1//EN"
 "http://www.w3.org/Graphics/SVG/1.1/DTD/svg11.dtd">
<!-- Generated by graphviz version 2.38.0 (20140413.2041)
 -->
<!-- Title: G Pages: 1 -->
<svg width="260pt" height="329pt"
 viewBox="0.00 0.00 260.48 328.89" xmlns="http://www.w3.org/2000/svg" xmlns:xlink="http://www.w3.org/1999/xlink">
<g id="graph0" class="graph" transform="scale(1 1) rotate(0) translate(4 324.887)">
<title>G</title>
<polygon fill="white" stroke="none" points="-4,4 -4,-324.887 256.484,-324.887 256.484,4 -4,4"/>
<!-- 0 -->
<g id="node1" class="node"><title>0</title>
<ellipse fill="none" stroke="black" cx="172.193" cy="-247.443" rx="73.387" ry="73.387"/>
<text text-anchor="middle" x="172.193" y="-243.743" font-family="Times,serif" font-size="14.00">Karen,red,1.1,1.1</text>
</g>
<!-- 1 -->
<g id="node2" class="node"><title>1</title>
<ellipse fill="none" stroke="black" cx="83.1926" cy="-105" rx="83.3857" ry="18"/>
<text text-anchor="middle" x="83.1926" y="-101.3" font-family="Times,serif" font-size="14.00">Kristel,black,3.3,3.3</text>
</g>
<!-- 0&#45;&#45;1 -->
<g id="edge1" class="edge"><title>0&#45;&#45;1</title>
<path fill="none" stroke="black" d="M133.156,-184.843C118.864,-162.29 103.809,-138.533 94.0078,-123.066"/>
<text text-anchor="middle" x="131.193" y="-144.8" font-family="Times,serif" font-size="14.00">1,,1,1</text>
</g>
<!-- 2 -->
<g id="node3" class="node"><title>2</title>
<ellipse fill="none" stroke="black" cx="160.193" cy="-18" rx="92.0841" ry="18"/>
<text text-anchor="middle" x="160.193" y="-14.3" font-family="Times,serif" font-size="14.00">Kathleen,blond,5.5,5.5</text>
</g>
<!-- 1&#45;&#45;2 -->
<g id="edge2" class="edge"><title>1&#45;&#45;2</title>
<path fill="none" stroke="black" d="M98.4053,-87.2067C111.904,-72.3051 131.522,-50.6495 145.011,-35.7584"/>
<text text-anchor="middle" x="143.193" y="-57.8" font-family="Times,serif" font-size="14.00">2,,1,1</text>
</g>
<!-- 2&#45;&#45;0 -->
<g id="edge3" class="edge"><title>2&#45;&#45;0</title>
<path fill="none" stroke="black" d="M165.062,-36.1565C168.67,-49.8035 173.28,-69.4534 175.193,-87 178.282,-115.349 178.4,-146.696 177.437,-174.041"/>
<text text-anchor="middle" x="193.193" y="-101.3" font-family="Times,serif" font-size="14.00">3,,1,1</text>
</g>
</g>
</svg>
