<?xml version="1.0" encoding="UTF-8" standalone="no"?>
<!DOCTYPE svg PUBLIC "-//W3C//DTD SVG 1.1//EN"
 "http://www.w3.org/Graphics/SVG/1.1/DTD/svg11.dtd">
<!-- Generated by graphviz version 2.36.0 (20140111.2315)
 -->
<!-- Title: G Pages: 1 -->
<svg width="19467pt" height="1164pt"
 viewBox="0.00 0.00 19467.00 1164.00" xmlns="http://www.w3.org/2000/svg" xmlns:xlink="http://www.w3.org/1999/xlink">
<g id="graph0" class="graph" transform="scale(1 1) rotate(0) translate(4 1160)">
<title>G</title>
<polygon fill="white" stroke="none" points="-4,4 -4,-1160 19463,-1160 19463,4 -4,4"/>
<!-- 0 -->
<g id="node1" class="node"><title>0</title>
<ellipse fill="none" stroke="black" cx="106" cy="-622" rx="106.386" ry="18"/>
<text text-anchor="middle" x="106" y="-618.3" font-family="Times,serif" font-size="14.00">A,BCDEFGHIJKLMN,0,0</text>
</g>
<!-- 1 -->
<g id="node2" class="node"><title>1</title>
<ellipse fill="none" stroke="black" cx="442" cy="-622" rx="211.322" ry="18"/>
<text text-anchor="middle" x="442" y="-618.3" font-family="Times,serif" font-size="14.00">A$$$SPACE$$$B,$$$SPACE$$$C$$$SPACE$$$D,0,0</text>
</g>
<!-- 2 -->
<g id="node3" class="node"><title>2</title>
<ellipse fill="none" stroke="black" cx="1205" cy="-622" rx="533.404" ry="18"/>
<text text-anchor="middle" x="1205" y="-618.3" font-family="Times,serif" font-size="14.00">$$$SPACE$$$A$$$SPACE$$$B$$$SPACE$$$,$$$SPACE$$$$$$SPACE$$$C$$$SPACE$$$$$$SPACE$$$D$$$SPACE$$$$$$SPACE$$$,0,0</text>
</g>
<!-- 3 -->
<g id="node4" class="node"><title>3</title>
<ellipse fill="none" stroke="black" cx="1816" cy="-622" rx="59.1941" ry="18"/>
<text text-anchor="middle" x="1816" y="-618.3" font-family="Times,serif" font-size="14.00">A_B,C_D,0,0</text>
</g>
<!-- 4 -->
<g id="node5" class="node"><title>4</title>
<ellipse fill="none" stroke="black" cx="1945" cy="-622" rx="51.0191" ry="18"/>
<text text-anchor="middle" x="1945" y="-618.3" font-family="Times,serif" font-size="14.00">AB,CD,0,0</text>
</g>
<!-- 5 -->
<g id="node6" class="node"><title>5</title>
<ellipse fill="none" stroke="black" cx="2177" cy="-622" rx="163.203" ry="18"/>
<text text-anchor="middle" x="2177" y="-618.3" font-family="Times,serif" font-size="14.00">A$$$QUOTE$$$B,C$$$QUOTE$$$D,0,0</text>
</g>
<!-- 6 -->
<g id="node7" class="node"><title>6</title>
<ellipse fill="none" stroke="black" cx="2655" cy="-622" rx="297.035" ry="18"/>
<text text-anchor="middle" x="2655" y="-618.3" font-family="Times,serif" font-size="14.00">A$$$COMMA$$$B,$$$COMMA$$$C$$$COMMA$$$D$$$COMMA$$$,0,0</text>
</g>
<!-- 7 -->
<g id="node8" class="node"><title>7</title>
<ellipse fill="none" stroke="black" cx="3155" cy="-622" rx="184.375" ry="18"/>
<text text-anchor="middle" x="3155" y="-618.3" font-family="Times,serif" font-size="14.00">A&lt;B,$$$COMMA$$$C&gt;D$$$COMMA$$$,0,0</text>
</g>
<!-- 8 -->
<g id="node9" class="node"><title>8</title>
<ellipse fill="none" stroke="black" cx="3519" cy="-622" rx="161.254" ry="18"/>
<text text-anchor="middle" x="3519" y="-618.3" font-family="Times,serif" font-size="14.00">A$$$QUOTE$$$];,B$$$QUOTE$$$];,0,0</text>
</g>
<!-- 9 -->
<g id="node10" class="node"><title>9</title>
<ellipse fill="none" stroke="black" cx="3805" cy="-622" rx="106.386" ry="106.681"/>
<text text-anchor="middle" x="3805" y="-618.3" font-family="Times,serif" font-size="14.00">A,BCDEFGHIJKLMN,0,0</text>
</g>
<!-- 10 -->
<g id="node11" class="node"><title>10</title>
<ellipse fill="none" stroke="black" cx="4141" cy="-622" rx="211.322" ry="211.762"/>
<text text-anchor="middle" x="4141" y="-618.3" font-family="Times,serif" font-size="14.00">A$$$SPACE$$$B,$$$SPACE$$$C$$$SPACE$$$D,0,0</text>
</g>
<!-- 11 -->
<g id="node12" class="node"><title>11</title>
<ellipse fill="none" stroke="black" cx="4904" cy="-622" rx="533.404" ry="533.705"/>
<text text-anchor="middle" x="4904" y="-618.3" font-family="Times,serif" font-size="14.00">$$$SPACE$$$A$$$SPACE$$$B$$$SPACE$$$,$$$SPACE$$$$$$SPACE$$$C$$$SPACE$$$$$$SPACE$$$D$$$SPACE$$$$$$SPACE$$$,0,0</text>
</g>
<!-- 12 -->
<g id="node13" class="node"><title>12</title>
<ellipse fill="none" stroke="black" cx="5515" cy="-622" rx="59.1941" ry="59.5901"/>
<text text-anchor="middle" x="5515" y="-618.3" font-family="Times,serif" font-size="14.00">A_B,C_D,0,0</text>
</g>
<!-- 13 -->
<g id="node14" class="node"><title>13</title>
<ellipse fill="none" stroke="black" cx="5644" cy="-622" rx="51.0191" ry="51.1914"/>
<text text-anchor="middle" x="5644" y="-618.3" font-family="Times,serif" font-size="14.00">AB,CD,0,0</text>
</g>
<!-- 14 -->
<g id="node15" class="node"><title>14</title>
<ellipse fill="none" stroke="black" cx="5876" cy="-622" rx="163.203" ry="163.271"/>
<text text-anchor="middle" x="5876" y="-618.3" font-family="Times,serif" font-size="14.00">A$$$QUOTE$$$B,C$$$QUOTE$$$D,0,0</text>
</g>
<!-- 15 -->
<g id="node16" class="node"><title>15</title>
<ellipse fill="none" stroke="black" cx="6354" cy="-622" rx="297.035" ry="297.047"/>
<text text-anchor="middle" x="6354" y="-618.3" font-family="Times,serif" font-size="14.00">A$$$COMMA$$$B,$$$COMMA$$$C$$$COMMA$$$D$$$COMMA$$$,0,0</text>
</g>
<!-- 16 -->
<g id="node17" class="node"><title>16</title>
<ellipse fill="none" stroke="black" cx="6854" cy="-622" rx="184.375" ry="184.667"/>
<text text-anchor="middle" x="6854" y="-618.3" font-family="Times,serif" font-size="14.00">A&lt;B,$$$COMMA$$$C&gt;D$$$COMMA$$$,0,0</text>
</g>
<!-- 17 -->
<g id="node18" class="node"><title>17</title>
<ellipse fill="none" stroke="black" cx="7218" cy="-622" rx="161.254" ry="161.671"/>
<text text-anchor="middle" x="7218" y="-618.3" font-family="Times,serif" font-size="14.00">A$$$QUOTE$$$];,B$$$QUOTE$$$];,0,0</text>
</g>
<!-- 18 -->
<g id="node19" class="node"><title>18</title>
<ellipse fill="none" stroke="black" cx="7504" cy="-622" rx="106.386" ry="18"/>
<text text-anchor="middle" x="7504" y="-618.3" font-family="Times,serif" font-size="14.00">A,BCDEFGHIJKLMN,0,0</text>
</g>
<!-- 19 -->
<g id="node20" class="node"><title>19</title>
<ellipse fill="none" stroke="black" cx="7840" cy="-622" rx="211.322" ry="18"/>
<text text-anchor="middle" x="7840" y="-618.3" font-family="Times,serif" font-size="14.00">A$$$SPACE$$$B,$$$SPACE$$$C$$$SPACE$$$D,0,0</text>
</g>
<!-- 20 -->
<g id="node21" class="node"><title>20</title>
<ellipse fill="none" stroke="black" cx="8603" cy="-622" rx="533.404" ry="18"/>
<text text-anchor="middle" x="8603" y="-618.3" font-family="Times,serif" font-size="14.00">$$$SPACE$$$A$$$SPACE$$$B$$$SPACE$$$,$$$SPACE$$$$$$SPACE$$$C$$$SPACE$$$$$$SPACE$$$D$$$SPACE$$$$$$SPACE$$$,0,0</text>
</g>
<!-- 21 -->
<g id="node22" class="node"><title>21</title>
<ellipse fill="none" stroke="black" cx="9214" cy="-622" rx="59.1941" ry="18"/>
<text text-anchor="middle" x="9214" y="-618.3" font-family="Times,serif" font-size="14.00">A_B,C_D,0,0</text>
</g>
<!-- 22 -->
<g id="node23" class="node"><title>22</title>
<ellipse fill="none" stroke="black" cx="9343" cy="-622" rx="51.0191" ry="18"/>
<text text-anchor="middle" x="9343" y="-618.3" font-family="Times,serif" font-size="14.00">AB,CD,0,0</text>
</g>
<!-- 23 -->
<g id="node24" class="node"><title>23</title>
<ellipse fill="none" stroke="black" cx="9575" cy="-622" rx="163.203" ry="18"/>
<text text-anchor="middle" x="9575" y="-618.3" font-family="Times,serif" font-size="14.00">A$$$QUOTE$$$B,C$$$QUOTE$$$D,0,0</text>
</g>
<!-- 24 -->
<g id="node25" class="node"><title>24</title>
<ellipse fill="none" stroke="black" cx="10053" cy="-622" rx="297.035" ry="18"/>
<text text-anchor="middle" x="10053" y="-618.3" font-family="Times,serif" font-size="14.00">A$$$COMMA$$$B,$$$COMMA$$$C$$$COMMA$$$D$$$COMMA$$$,0,0</text>
</g>
<!-- 25 -->
<g id="node26" class="node"><title>25</title>
<ellipse fill="none" stroke="black" cx="10553" cy="-622" rx="184.375" ry="18"/>
<text text-anchor="middle" x="10553" y="-618.3" font-family="Times,serif" font-size="14.00">A&lt;B,$$$COMMA$$$C&gt;D$$$COMMA$$$,0,0</text>
</g>
<!-- 26 -->
<g id="node27" class="node"><title>26</title>
<ellipse fill="none" stroke="black" cx="10917" cy="-622" rx="161.254" ry="18"/>
<text text-anchor="middle" x="10917" y="-618.3" font-family="Times,serif" font-size="14.00">A$$$QUOTE$$$];,B$$$QUOTE$$$];,0,0</text>
</g>
<!-- 27 -->
<g id="node28" class="node"><title>27</title>
<ellipse fill="none" stroke="black" cx="11124" cy="-622" rx="27" ry="18"/>
<text text-anchor="middle" x="11124" y="-618.3" font-family="Times,serif" font-size="14.00">,,0,0</text>
</g>
<!-- 28 -->
<g id="node29" class="node"><title>28</title>
<ellipse fill="none" stroke="black" cx="11124" cy="-18" rx="27" ry="18"/>
<text text-anchor="middle" x="11124" y="-14.3" font-family="Times,serif" font-size="14.00">,,0,0</text>
</g>
<!-- 27&#45;&gt;28 -->
<g id="edge1" class="edge"><title>27&#45;&gt;28</title>
<path fill="none" stroke="black" d="M11124,-603.953C11124,-520.045 11124,-150.765 11124,-46.5004"/>
<polygon fill="black" stroke="black" points="11127.5,-46.1852 11124,-36.1853 11120.5,-46.1853 11127.5,-46.1852"/>
<text text-anchor="middle" x="11198" y="-58.3" font-family="Times,serif" font-size="14.00">A,BCDEFGHIJKLMN,1,1</text>
</g>
<!-- 29 -->
<g id="node30" class="node"><title>29</title>
<ellipse fill="none" stroke="black" cx="11295" cy="-622" rx="27" ry="18"/>
<text text-anchor="middle" x="11295" y="-618.3" font-family="Times,serif" font-size="14.00">,,0,0</text>
</g>
<!-- 30 -->
<g id="node31" class="node"><title>30</title>
<ellipse fill="none" stroke="black" cx="11295" cy="-18" rx="27" ry="18"/>
<text text-anchor="middle" x="11295" y="-14.3" font-family="Times,serif" font-size="14.00">,,0,0</text>
</g>
<!-- 29&#45;&gt;30 -->
<g id="edge2" class="edge"><title>29&#45;&gt;30</title>
<path fill="none" stroke="black" d="M11295,-603.953C11295,-520.045 11295,-150.765 11295,-46.5004"/>
<polygon fill="black" stroke="black" points="11298.5,-46.1852 11295,-36.1853 11291.5,-46.1853 11298.5,-46.1852"/>
<text text-anchor="middle" x="11450" y="-58.3" font-family="Times,serif" font-size="14.00">A$$$SPACE$$$B,$$$SPACE$$$C$$$SPACE$$$D,1,1</text>
</g>
<!-- 31 -->
<g id="node32" class="node"><title>31</title>
<ellipse fill="none" stroke="black" cx="11628" cy="-622" rx="27" ry="18"/>
<text text-anchor="middle" x="11628" y="-618.3" font-family="Times,serif" font-size="14.00">,,0,0</text>
</g>
<!-- 32 -->
<g id="node33" class="node"><title>32</title>
<ellipse fill="none" stroke="black" cx="11628" cy="-18" rx="27" ry="18"/>
<text text-anchor="middle" x="11628" y="-14.3" font-family="Times,serif" font-size="14.00">,,0,0</text>
</g>
<!-- 31&#45;&gt;32 -->
<g id="edge3" class="edge"><title>31&#45;&gt;32</title>
<path fill="none" stroke="black" d="M11628,-603.953C11628,-520.045 11628,-150.765 11628,-46.5004"/>
<polygon fill="black" stroke="black" points="11631.5,-46.1852 11628,-36.1853 11624.5,-46.1853 11631.5,-46.1852"/>
<text text-anchor="middle" x="12030.5" y="-58.3" font-family="Times,serif" font-size="14.00">$$$SPACE$$$A$$$SPACE$$$B$$$SPACE$$$,$$$SPACE$$$$$$SPACE$$$C$$$SPACE$$$$$$SPACE$$$D$$$SPACE$$$$$$SPACE$$$,1,1</text>
</g>
<!-- 33 -->
<g id="node34" class="node"><title>33</title>
<ellipse fill="none" stroke="black" cx="12456" cy="-622" rx="27" ry="18"/>
<text text-anchor="middle" x="12456" y="-618.3" font-family="Times,serif" font-size="14.00">,,0,0</text>
</g>
<!-- 34 -->
<g id="node35" class="node"><title>34</title>
<ellipse fill="none" stroke="black" cx="12456" cy="-18" rx="27" ry="18"/>
<text text-anchor="middle" x="12456" y="-14.3" font-family="Times,serif" font-size="14.00">,,0,0</text>
</g>
<!-- 33&#45;&gt;34 -->
<g id="edge4" class="edge"><title>33&#45;&gt;34</title>
<path fill="none" stroke="black" d="M12456,-603.953C12456,-520.045 12456,-150.765 12456,-46.5004"/>
<polygon fill="black" stroke="black" points="12459.5,-46.1852 12456,-36.1853 12452.5,-46.1853 12459.5,-46.1852"/>
<text text-anchor="middle" x="12494" y="-58.3" font-family="Times,serif" font-size="14.00">A_B,C_D,1,1</text>
</g>
<!-- 35 -->
<g id="node36" class="node"><title>35</title>
<ellipse fill="none" stroke="black" cx="12555" cy="-622" rx="27" ry="18"/>
<text text-anchor="middle" x="12555" y="-618.3" font-family="Times,serif" font-size="14.00">,,0,0</text>
</g>
<!-- 36 -->
<g id="node37" class="node"><title>36</title>
<ellipse fill="none" stroke="black" cx="12555" cy="-18" rx="27" ry="18"/>
<text text-anchor="middle" x="12555" y="-14.3" font-family="Times,serif" font-size="14.00">,,0,0</text>
</g>
<!-- 35&#45;&gt;36 -->
<g id="edge5" class="edge"><title>35&#45;&gt;36</title>
<path fill="none" stroke="black" d="M12555,-603.953C12555,-520.045 12555,-150.765 12555,-46.5004"/>
<polygon fill="black" stroke="black" points="12558.5,-46.1852 12555,-36.1853 12551.5,-46.1853 12558.5,-46.1852"/>
<text text-anchor="middle" x="12586.5" y="-58.3" font-family="Times,serif" font-size="14.00">AB,CD,1,1</text>
</g>
<!-- 37 -->
<g id="node38" class="node"><title>37</title>
<ellipse fill="none" stroke="black" cx="12641" cy="-622" rx="27" ry="18"/>
<text text-anchor="middle" x="12641" y="-618.3" font-family="Times,serif" font-size="14.00">,,0,0</text>
</g>
<!-- 38 -->
<g id="node39" class="node"><title>38</title>
<ellipse fill="none" stroke="black" cx="12641" cy="-18" rx="27" ry="18"/>
<text text-anchor="middle" x="12641" y="-14.3" font-family="Times,serif" font-size="14.00">,,0,0</text>
</g>
<!-- 37&#45;&gt;38 -->
<g id="edge6" class="edge"><title>37&#45;&gt;38</title>
<path fill="none" stroke="black" d="M12641,-603.953C12641,-520.045 12641,-150.765 12641,-46.5004"/>
<polygon fill="black" stroke="black" points="12644.5,-46.1852 12641,-36.1853 12637.5,-46.1853 12644.5,-46.1852"/>
<text text-anchor="middle" x="12758.5" y="-58.3" font-family="Times,serif" font-size="14.00">A$$$QUOTE$$$B,C$$$QUOTE$$$D,1,1</text>
</g>
<!-- 39 -->
<g id="node40" class="node"><title>39</title>
<ellipse fill="none" stroke="black" cx="12899" cy="-622" rx="27" ry="18"/>
<text text-anchor="middle" x="12899" y="-618.3" font-family="Times,serif" font-size="14.00">,,0,0</text>
</g>
<!-- 40 -->
<g id="node41" class="node"><title>40</title>
<ellipse fill="none" stroke="black" cx="12899" cy="-18" rx="27" ry="18"/>
<text text-anchor="middle" x="12899" y="-14.3" font-family="Times,serif" font-size="14.00">,,0,0</text>
</g>
<!-- 39&#45;&gt;40 -->
<g id="edge7" class="edge"><title>39&#45;&gt;40</title>
<path fill="none" stroke="black" d="M12899,-603.953C12899,-520.045 12899,-150.765 12899,-46.5004"/>
<polygon fill="black" stroke="black" points="12902.5,-46.1852 12899,-36.1853 12895.5,-46.1853 12902.5,-46.1852"/>
<text text-anchor="middle" x="13119.5" y="-58.3" font-family="Times,serif" font-size="14.00">A$$$COMMA$$$B,$$$COMMA$$$C$$$COMMA$$$D$$$COMMA$$$,1,1</text>
</g>
<!-- 41 -->
<g id="node42" class="node"><title>41</title>
<ellipse fill="none" stroke="black" cx="13363" cy="-622" rx="27" ry="18"/>
<text text-anchor="middle" x="13363" y="-618.3" font-family="Times,serif" font-size="14.00">,,0,0</text>
</g>
<!-- 42 -->
<g id="node43" class="node"><title>42</title>
<ellipse fill="none" stroke="black" cx="13363" cy="-18" rx="27" ry="18"/>
<text text-anchor="middle" x="13363" y="-14.3" font-family="Times,serif" font-size="14.00">,,0,0</text>
</g>
<!-- 41&#45;&gt;42 -->
<g id="edge8" class="edge"><title>41&#45;&gt;42</title>
<path fill="none" stroke="black" d="M13363,-603.953C13363,-520.045 13363,-150.765 13363,-46.5004"/>
<polygon fill="black" stroke="black" points="13366.5,-46.1852 13363,-36.1853 13359.5,-46.1853 13366.5,-46.1852"/>
<text text-anchor="middle" x="13497" y="-58.3" font-family="Times,serif" font-size="14.00">A&lt;B,$$$COMMA$$$C&gt;D$$$COMMA$$$,1,1</text>
</g>
<!-- 43 -->
<g id="node44" class="node"><title>43</title>
<ellipse fill="none" stroke="black" cx="13654" cy="-622" rx="27" ry="18"/>
<text text-anchor="middle" x="13654" y="-618.3" font-family="Times,serif" font-size="14.00">,,0,0</text>
</g>
<!-- 44 -->
<g id="node45" class="node"><title>44</title>
<ellipse fill="none" stroke="black" cx="13654" cy="-18" rx="27" ry="18"/>
<text text-anchor="middle" x="13654" y="-14.3" font-family="Times,serif" font-size="14.00">,,0,0</text>
</g>
<!-- 43&#45;&gt;44 -->
<g id="edge9" class="edge"><title>43&#45;&gt;44</title>
<path fill="none" stroke="black" d="M13654,-603.953C13654,-520.045 13654,-150.765 13654,-46.5004"/>
<polygon fill="black" stroke="black" points="13657.5,-46.1852 13654,-36.1853 13650.5,-46.1853 13657.5,-46.1852"/>
<text text-anchor="middle" x="13770.5" y="-58.3" font-family="Times,serif" font-size="14.00">A$$$QUOTE$$$];,B$$$QUOTE$$$];,1,1</text>
</g>
<!-- 45 -->
<g id="node46" class="node"><title>45</title>
<ellipse fill="none" stroke="black" cx="13910" cy="-622" rx="27" ry="18"/>
<text text-anchor="middle" x="13910" y="-618.3" font-family="Times,serif" font-size="14.00">,,0,0</text>
</g>
<!-- 46 -->
<g id="node47" class="node"><title>46</title>
<ellipse fill="none" stroke="black" cx="13910" cy="-18" rx="27" ry="18"/>
<text text-anchor="middle" x="13910" y="-14.3" font-family="Times,serif" font-size="14.00">,,0,0</text>
</g>
<!-- 45&#45;&gt;46 -->
<g id="edge10" class="edge"><title>45&#45;&gt;46</title>
<path fill="none" stroke="black" d="M13910,-603.953C13910,-520.045 13910,-150.765 13910,-46.5004"/>
<polygon fill="black" stroke="black" points="13913.5,-46.1852 13910,-36.1853 13906.5,-46.1853 13913.5,-46.1852"/>
<text text-anchor="middle" x="13984" y="-58.3" font-family="Times,serif" font-size="14.00">A,BCDEFGHIJKLMN,1,1</text>
</g>
<!-- 47 -->
<g id="node48" class="node"><title>47</title>
<ellipse fill="none" stroke="black" cx="14081" cy="-622" rx="27" ry="18"/>
<text text-anchor="middle" x="14081" y="-618.3" font-family="Times,serif" font-size="14.00">,,0,0</text>
</g>
<!-- 48 -->
<g id="node49" class="node"><title>48</title>
<ellipse fill="none" stroke="black" cx="14081" cy="-18" rx="27" ry="18"/>
<text text-anchor="middle" x="14081" y="-14.3" font-family="Times,serif" font-size="14.00">,,0,0</text>
</g>
<!-- 47&#45;&gt;48 -->
<g id="edge11" class="edge"><title>47&#45;&gt;48</title>
<path fill="none" stroke="black" d="M14081,-603.953C14081,-520.045 14081,-150.765 14081,-46.5004"/>
<polygon fill="black" stroke="black" points="14084.5,-46.1852 14081,-36.1853 14077.5,-46.1853 14084.5,-46.1852"/>
<text text-anchor="middle" x="14236" y="-58.3" font-family="Times,serif" font-size="14.00">A$$$SPACE$$$B,$$$SPACE$$$C$$$SPACE$$$D,1,1</text>
</g>
<!-- 49 -->
<g id="node50" class="node"><title>49</title>
<ellipse fill="none" stroke="black" cx="14414" cy="-622" rx="27" ry="18"/>
<text text-anchor="middle" x="14414" y="-618.3" font-family="Times,serif" font-size="14.00">,,0,0</text>
</g>
<!-- 50 -->
<g id="node51" class="node"><title>50</title>
<ellipse fill="none" stroke="black" cx="14414" cy="-18" rx="27" ry="18"/>
<text text-anchor="middle" x="14414" y="-14.3" font-family="Times,serif" font-size="14.00">,,0,0</text>
</g>
<!-- 49&#45;&gt;50 -->
<g id="edge12" class="edge"><title>49&#45;&gt;50</title>
<path fill="none" stroke="black" d="M14414,-603.953C14414,-520.045 14414,-150.765 14414,-46.5004"/>
<polygon fill="black" stroke="black" points="14417.5,-46.1852 14414,-36.1853 14410.5,-46.1853 14417.5,-46.1852"/>
<text text-anchor="middle" x="14816.5" y="-58.3" font-family="Times,serif" font-size="14.00">$$$SPACE$$$A$$$SPACE$$$B$$$SPACE$$$,$$$SPACE$$$$$$SPACE$$$C$$$SPACE$$$$$$SPACE$$$D$$$SPACE$$$$$$SPACE$$$,1,1</text>
</g>
<!-- 51 -->
<g id="node52" class="node"><title>51</title>
<ellipse fill="none" stroke="black" cx="15242" cy="-622" rx="27" ry="18"/>
<text text-anchor="middle" x="15242" y="-618.3" font-family="Times,serif" font-size="14.00">,,0,0</text>
</g>
<!-- 52 -->
<g id="node53" class="node"><title>52</title>
<ellipse fill="none" stroke="black" cx="15242" cy="-18" rx="27" ry="18"/>
<text text-anchor="middle" x="15242" y="-14.3" font-family="Times,serif" font-size="14.00">,,0,0</text>
</g>
<!-- 51&#45;&gt;52 -->
<g id="edge13" class="edge"><title>51&#45;&gt;52</title>
<path fill="none" stroke="black" d="M15242,-603.953C15242,-520.045 15242,-150.765 15242,-46.5004"/>
<polygon fill="black" stroke="black" points="15245.5,-46.1852 15242,-36.1853 15238.5,-46.1853 15245.5,-46.1852"/>
<text text-anchor="middle" x="15280" y="-58.3" font-family="Times,serif" font-size="14.00">A_B,C_D,1,1</text>
</g>
<!-- 53 -->
<g id="node54" class="node"><title>53</title>
<ellipse fill="none" stroke="black" cx="15341" cy="-622" rx="27" ry="18"/>
<text text-anchor="middle" x="15341" y="-618.3" font-family="Times,serif" font-size="14.00">,,0,0</text>
</g>
<!-- 54 -->
<g id="node55" class="node"><title>54</title>
<ellipse fill="none" stroke="black" cx="15341" cy="-18" rx="27" ry="18"/>
<text text-anchor="middle" x="15341" y="-14.3" font-family="Times,serif" font-size="14.00">,,0,0</text>
</g>
<!-- 53&#45;&gt;54 -->
<g id="edge14" class="edge"><title>53&#45;&gt;54</title>
<path fill="none" stroke="black" d="M15341,-603.953C15341,-520.045 15341,-150.765 15341,-46.5004"/>
<polygon fill="black" stroke="black" points="15344.5,-46.1852 15341,-36.1853 15337.5,-46.1853 15344.5,-46.1852"/>
<text text-anchor="middle" x="15372.5" y="-58.3" font-family="Times,serif" font-size="14.00">AB,CD,1,1</text>
</g>
<!-- 55 -->
<g id="node56" class="node"><title>55</title>
<ellipse fill="none" stroke="black" cx="15427" cy="-622" rx="27" ry="18"/>
<text text-anchor="middle" x="15427" y="-618.3" font-family="Times,serif" font-size="14.00">,,0,0</text>
</g>
<!-- 56 -->
<g id="node57" class="node"><title>56</title>
<ellipse fill="none" stroke="black" cx="15427" cy="-18" rx="27" ry="18"/>
<text text-anchor="middle" x="15427" y="-14.3" font-family="Times,serif" font-size="14.00">,,0,0</text>
</g>
<!-- 55&#45;&gt;56 -->
<g id="edge15" class="edge"><title>55&#45;&gt;56</title>
<path fill="none" stroke="black" d="M15427,-603.953C15427,-520.045 15427,-150.765 15427,-46.5004"/>
<polygon fill="black" stroke="black" points="15430.5,-46.1852 15427,-36.1853 15423.5,-46.1853 15430.5,-46.1852"/>
<text text-anchor="middle" x="15544.5" y="-58.3" font-family="Times,serif" font-size="14.00">A$$$QUOTE$$$B,C$$$QUOTE$$$D,1,1</text>
</g>
<!-- 57 -->
<g id="node58" class="node"><title>57</title>
<ellipse fill="none" stroke="black" cx="15685" cy="-622" rx="27" ry="18"/>
<text text-anchor="middle" x="15685" y="-618.3" font-family="Times,serif" font-size="14.00">,,0,0</text>
</g>
<!-- 58 -->
<g id="node59" class="node"><title>58</title>
<ellipse fill="none" stroke="black" cx="15685" cy="-18" rx="27" ry="18"/>
<text text-anchor="middle" x="15685" y="-14.3" font-family="Times,serif" font-size="14.00">,,0,0</text>
</g>
<!-- 57&#45;&gt;58 -->
<g id="edge16" class="edge"><title>57&#45;&gt;58</title>
<path fill="none" stroke="black" d="M15685,-603.953C15685,-520.045 15685,-150.765 15685,-46.5004"/>
<polygon fill="black" stroke="black" points="15688.5,-46.1852 15685,-36.1853 15681.5,-46.1853 15688.5,-46.1852"/>
<text text-anchor="middle" x="15905.5" y="-58.3" font-family="Times,serif" font-size="14.00">A$$$COMMA$$$B,$$$COMMA$$$C$$$COMMA$$$D$$$COMMA$$$,1,1</text>
</g>
<!-- 59 -->
<g id="node60" class="node"><title>59</title>
<ellipse fill="none" stroke="black" cx="16149" cy="-622" rx="27" ry="18"/>
<text text-anchor="middle" x="16149" y="-618.3" font-family="Times,serif" font-size="14.00">,,0,0</text>
</g>
<!-- 60 -->
<g id="node61" class="node"><title>60</title>
<ellipse fill="none" stroke="black" cx="16149" cy="-18" rx="27" ry="18"/>
<text text-anchor="middle" x="16149" y="-14.3" font-family="Times,serif" font-size="14.00">,,0,0</text>
</g>
<!-- 59&#45;&gt;60 -->
<g id="edge17" class="edge"><title>59&#45;&gt;60</title>
<path fill="none" stroke="black" d="M16149,-603.953C16149,-520.045 16149,-150.765 16149,-46.5004"/>
<polygon fill="black" stroke="black" points="16152.5,-46.1852 16149,-36.1853 16145.5,-46.1853 16152.5,-46.1852"/>
<text text-anchor="middle" x="16283" y="-58.3" font-family="Times,serif" font-size="14.00">A&lt;B,$$$COMMA$$$C&gt;D$$$COMMA$$$,1,1</text>
</g>
<!-- 61 -->
<g id="node62" class="node"><title>61</title>
<ellipse fill="none" stroke="black" cx="16440" cy="-622" rx="27" ry="18"/>
<text text-anchor="middle" x="16440" y="-618.3" font-family="Times,serif" font-size="14.00">,,0,0</text>
</g>
<!-- 62 -->
<g id="node63" class="node"><title>62</title>
<ellipse fill="none" stroke="black" cx="16440" cy="-18" rx="27" ry="18"/>
<text text-anchor="middle" x="16440" y="-14.3" font-family="Times,serif" font-size="14.00">,,0,0</text>
</g>
<!-- 61&#45;&gt;62 -->
<g id="edge18" class="edge"><title>61&#45;&gt;62</title>
<path fill="none" stroke="black" d="M16440,-603.953C16440,-520.045 16440,-150.765 16440,-46.5004"/>
<polygon fill="black" stroke="black" points="16443.5,-46.1852 16440,-36.1853 16436.5,-46.1853 16443.5,-46.1852"/>
<text text-anchor="middle" x="16556.5" y="-58.3" font-family="Times,serif" font-size="14.00">A$$$QUOTE$$$];,B$$$QUOTE$$$];,1,1</text>
</g>
<!-- 63 -->
<g id="node64" class="node"><title>63</title>
<ellipse fill="none" stroke="black" cx="16696" cy="-622" rx="27" ry="18"/>
<text text-anchor="middle" x="16696" y="-618.3" font-family="Times,serif" font-size="14.00">,,0,0</text>
</g>
<!-- 64 -->
<g id="node65" class="node"><title>64</title>
<ellipse fill="none" stroke="black" cx="16696" cy="-18" rx="27" ry="18"/>
<text text-anchor="middle" x="16696" y="-14.3" font-family="Times,serif" font-size="14.00">,,0,0</text>
</g>
<!-- 63&#45;&gt;64 -->
<g id="edge19" class="edge"><title>63&#45;&gt;64</title>
<path fill="none" stroke="black" d="M16696,-603.953C16696,-520.045 16696,-150.765 16696,-46.5004"/>
<polygon fill="black" stroke="black" points="16699.5,-46.1852 16696,-36.1853 16692.5,-46.1853 16699.5,-46.1852"/>
<text text-anchor="middle" x="16770" y="-58.3" font-family="Times,serif" font-size="14.00">A,BCDEFGHIJKLMN,1,1</text>
</g>
<!-- 65 -->
<g id="node66" class="node"><title>65</title>
<ellipse fill="none" stroke="black" cx="16867" cy="-622" rx="27" ry="18"/>
<text text-anchor="middle" x="16867" y="-618.3" font-family="Times,serif" font-size="14.00">,,0,0</text>
</g>
<!-- 66 -->
<g id="node67" class="node"><title>66</title>
<ellipse fill="none" stroke="black" cx="16867" cy="-18" rx="27" ry="18"/>
<text text-anchor="middle" x="16867" y="-14.3" font-family="Times,serif" font-size="14.00">,,0,0</text>
</g>
<!-- 65&#45;&gt;66 -->
<g id="edge20" class="edge"><title>65&#45;&gt;66</title>
<path fill="none" stroke="black" d="M16867,-603.953C16867,-520.045 16867,-150.765 16867,-46.5004"/>
<polygon fill="black" stroke="black" points="16870.5,-46.1852 16867,-36.1853 16863.5,-46.1853 16870.5,-46.1852"/>
<text text-anchor="middle" x="17022" y="-58.3" font-family="Times,serif" font-size="14.00">A$$$SPACE$$$B,$$$SPACE$$$C$$$SPACE$$$D,1,1</text>
</g>
<!-- 67 -->
<g id="node68" class="node"><title>67</title>
<ellipse fill="none" stroke="black" cx="17200" cy="-622" rx="27" ry="18"/>
<text text-anchor="middle" x="17200" y="-618.3" font-family="Times,serif" font-size="14.00">,,0,0</text>
</g>
<!-- 68 -->
<g id="node69" class="node"><title>68</title>
<ellipse fill="none" stroke="black" cx="17200" cy="-18" rx="27" ry="18"/>
<text text-anchor="middle" x="17200" y="-14.3" font-family="Times,serif" font-size="14.00">,,0,0</text>
</g>
<!-- 67&#45;&gt;68 -->
<g id="edge21" class="edge"><title>67&#45;&gt;68</title>
<path fill="none" stroke="black" d="M17200,-603.953C17200,-520.045 17200,-150.765 17200,-46.5004"/>
<polygon fill="black" stroke="black" points="17203.5,-46.1852 17200,-36.1853 17196.5,-46.1853 17203.5,-46.1852"/>
<text text-anchor="middle" x="17602.5" y="-58.3" font-family="Times,serif" font-size="14.00">$$$SPACE$$$A$$$SPACE$$$B$$$SPACE$$$,$$$SPACE$$$$$$SPACE$$$C$$$SPACE$$$$$$SPACE$$$D$$$SPACE$$$$$$SPACE$$$,1,1</text>
</g>
<!-- 69 -->
<g id="node70" class="node"><title>69</title>
<ellipse fill="none" stroke="black" cx="18028" cy="-622" rx="27" ry="18"/>
<text text-anchor="middle" x="18028" y="-618.3" font-family="Times,serif" font-size="14.00">,,0,0</text>
</g>
<!-- 70 -->
<g id="node71" class="node"><title>70</title>
<ellipse fill="none" stroke="black" cx="18028" cy="-18" rx="27" ry="18"/>
<text text-anchor="middle" x="18028" y="-14.3" font-family="Times,serif" font-size="14.00">,,0,0</text>
</g>
<!-- 69&#45;&gt;70 -->
<g id="edge22" class="edge"><title>69&#45;&gt;70</title>
<path fill="none" stroke="black" d="M18028,-603.953C18028,-520.045 18028,-150.765 18028,-46.5004"/>
<polygon fill="black" stroke="black" points="18031.5,-46.1852 18028,-36.1853 18024.5,-46.1853 18031.5,-46.1852"/>
<text text-anchor="middle" x="18066" y="-58.3" font-family="Times,serif" font-size="14.00">A_B,C_D,1,1</text>
</g>
<!-- 71 -->
<g id="node72" class="node"><title>71</title>
<ellipse fill="none" stroke="black" cx="18127" cy="-622" rx="27" ry="18"/>
<text text-anchor="middle" x="18127" y="-618.3" font-family="Times,serif" font-size="14.00">,,0,0</text>
</g>
<!-- 72 -->
<g id="node73" class="node"><title>72</title>
<ellipse fill="none" stroke="black" cx="18127" cy="-18" rx="27" ry="18"/>
<text text-anchor="middle" x="18127" y="-14.3" font-family="Times,serif" font-size="14.00">,,0,0</text>
</g>
<!-- 71&#45;&gt;72 -->
<g id="edge23" class="edge"><title>71&#45;&gt;72</title>
<path fill="none" stroke="black" d="M18127,-603.953C18127,-520.045 18127,-150.765 18127,-46.5004"/>
<polygon fill="black" stroke="black" points="18130.5,-46.1852 18127,-36.1853 18123.5,-46.1853 18130.5,-46.1852"/>
<text text-anchor="middle" x="18158.5" y="-58.3" font-family="Times,serif" font-size="14.00">AB,CD,1,1</text>
</g>
<!-- 73 -->
<g id="node74" class="node"><title>73</title>
<ellipse fill="none" stroke="black" cx="18213" cy="-622" rx="27" ry="18"/>
<text text-anchor="middle" x="18213" y="-618.3" font-family="Times,serif" font-size="14.00">,,0,0</text>
</g>
<!-- 74 -->
<g id="node75" class="node"><title>74</title>
<ellipse fill="none" stroke="black" cx="18213" cy="-18" rx="27" ry="18"/>
<text text-anchor="middle" x="18213" y="-14.3" font-family="Times,serif" font-size="14.00">,,0,0</text>
</g>
<!-- 73&#45;&gt;74 -->
<g id="edge24" class="edge"><title>73&#45;&gt;74</title>
<path fill="none" stroke="black" d="M18213,-603.953C18213,-520.045 18213,-150.765 18213,-46.5004"/>
<polygon fill="black" stroke="black" points="18216.5,-46.1852 18213,-36.1853 18209.5,-46.1853 18216.5,-46.1852"/>
<text text-anchor="middle" x="18330.5" y="-58.3" font-family="Times,serif" font-size="14.00">A$$$QUOTE$$$B,C$$$QUOTE$$$D,1,1</text>
</g>
<!-- 75 -->
<g id="node76" class="node"><title>75</title>
<ellipse fill="none" stroke="black" cx="18471" cy="-622" rx="27" ry="18"/>
<text text-anchor="middle" x="18471" y="-618.3" font-family="Times,serif" font-size="14.00">,,0,0</text>
</g>
<!-- 76 -->
<g id="node77" class="node"><title>76</title>
<ellipse fill="none" stroke="black" cx="18471" cy="-18" rx="27" ry="18"/>
<text text-anchor="middle" x="18471" y="-14.3" font-family="Times,serif" font-size="14.00">,,0,0</text>
</g>
<!-- 75&#45;&gt;76 -->
<g id="edge25" class="edge"><title>75&#45;&gt;76</title>
<path fill="none" stroke="black" d="M18471,-603.953C18471,-520.045 18471,-150.765 18471,-46.5004"/>
<polygon fill="black" stroke="black" points="18474.5,-46.1852 18471,-36.1853 18467.5,-46.1853 18474.5,-46.1852"/>
<text text-anchor="middle" x="18691.5" y="-58.3" font-family="Times,serif" font-size="14.00">A$$$COMMA$$$B,$$$COMMA$$$C$$$COMMA$$$D$$$COMMA$$$,1,1</text>
</g>
<!-- 77 -->
<g id="node78" class="node"><title>77</title>
<ellipse fill="none" stroke="black" cx="18935" cy="-622" rx="27" ry="18"/>
<text text-anchor="middle" x="18935" y="-618.3" font-family="Times,serif" font-size="14.00">,,0,0</text>
</g>
<!-- 78 -->
<g id="node79" class="node"><title>78</title>
<ellipse fill="none" stroke="black" cx="18935" cy="-18" rx="27" ry="18"/>
<text text-anchor="middle" x="18935" y="-14.3" font-family="Times,serif" font-size="14.00">,,0,0</text>
</g>
<!-- 77&#45;&gt;78 -->
<g id="edge26" class="edge"><title>77&#45;&gt;78</title>
<path fill="none" stroke="black" d="M18935,-603.953C18935,-520.045 18935,-150.765 18935,-46.5004"/>
<polygon fill="black" stroke="black" points="18938.5,-46.1852 18935,-36.1853 18931.5,-46.1853 18938.5,-46.1852"/>
<text text-anchor="middle" x="19069" y="-58.3" font-family="Times,serif" font-size="14.00">A&lt;B,$$$COMMA$$$C&gt;D$$$COMMA$$$,1,1</text>
</g>
<!-- 79 -->
<g id="node80" class="node"><title>79</title>
<ellipse fill="none" stroke="black" cx="19226" cy="-622" rx="27" ry="18"/>
<text text-anchor="middle" x="19226" y="-618.3" font-family="Times,serif" font-size="14.00">,,0,0</text>
</g>
<!-- 80 -->
<g id="node81" class="node"><title>80</title>
<ellipse fill="none" stroke="black" cx="19226" cy="-18" rx="27" ry="18"/>
<text text-anchor="middle" x="19226" y="-14.3" font-family="Times,serif" font-size="14.00">,,0,0</text>
</g>
<!-- 79&#45;&gt;80 -->
<g id="edge27" class="edge"><title>79&#45;&gt;80</title>
<path fill="none" stroke="black" d="M19226,-603.953C19226,-520.045 19226,-150.765 19226,-46.5004"/>
<polygon fill="black" stroke="black" points="19229.5,-46.1852 19226,-36.1853 19222.5,-46.1853 19229.5,-46.1852"/>
<text text-anchor="middle" x="19342.5" y="-58.3" font-family="Times,serif" font-size="14.00">A$$$QUOTE$$$];,B$$$QUOTE$$$];,1,1</text>
</g>
</g>
</svg>
