<?xml version="1.0" encoding="UTF-8" standalone="no"?>
<!DOCTYPE svg PUBLIC "-//W3C//DTD SVG 1.1//EN"
 "http://www.w3.org/Graphics/SVG/1.1/DTD/svg11.dtd">
<!-- Generated by graphviz version 2.36.0 (20140111.2315)
 -->
<!-- Title: G Pages: 1 -->
<svg width="746pt" height="116pt"
 viewBox="0.00 0.00 746.00 116.00" xmlns="http://www.w3.org/2000/svg" xmlns:xlink="http://www.w3.org/1999/xlink">
<g id="graph0" class="graph" transform="scale(1 1) rotate(0) translate(4 112)">
<title>G</title>
<polygon fill="white" stroke="none" points="-4,4 -4,-112 742,-112 742,4 -4,4"/>
<!-- 0 -->
<g id="node1" class="node"><title>0</title>
<ellipse fill="none" stroke="black" cx="360" cy="-90" rx="360.102" ry="18"/>
<text text-anchor="middle" x="360" y="-86.3" font-family="Times,serif" font-size="14.00">Sunny,You[[:SPACE:]]can[[:SPACE:]]see[[:SPACE:]]the[[:SPACE:]]yellow[[:SPACE:]]thing,1,1</text>
</g>
<!-- 0&#45;&gt;0 -->
<g id="edge1" class="edge"><title>0&#45;&gt;0</title>
<path fill="none" stroke="black" d="M598.553,-103.499C676.224,-103.412 738,-98.9121 738,-90 738,-81.4882 681.65,-77.0015 608.92,-76.5397"/>
<polygon fill="black" stroke="black" points="608.566,-73.0385 598.553,-76.5013 608.539,-80.0384 608.566,-73.0385"/>
</g>
<!-- 1 -->
<g id="node2" class="node"><title>1</title>
<ellipse fill="none" stroke="black" cx="360" cy="-18" rx="257.066" ry="18"/>
<text text-anchor="middle" x="360" y="-14.3" font-family="Times,serif" font-size="14.00">Rainy,Many[[:SPACE:]]grey[[:SPACE:]]fluffy[[:SPACE:]]things,3,3</text>
</g>
<!-- 0&#45;&gt;1 -->
<g id="edge2" class="edge"><title>0&#45;&gt;1</title>
<path fill="none" stroke="black" d="M354.084,-71.6966C353.289,-63.9827 353.062,-54.7125 353.405,-46.1124"/>
<polygon fill="black" stroke="black" points="356.898,-46.3243 354.105,-36.1043 349.915,-45.8356 356.898,-46.3243"/>
</g>
<!-- 1&#45;&gt;0 -->
<g id="edge3" class="edge"><title>1&#45;&gt;0</title>
<path fill="none" stroke="black" d="M365.895,-36.1043C366.701,-43.7913 366.937,-53.0537 366.604,-61.6651"/>
<polygon fill="black" stroke="black" points="363.109,-61.4805 365.916,-71.6966 370.092,-61.9597 363.109,-61.4805"/>
</g>
<!-- 1&#45;&gt;1 -->
<g id="edge4" class="edge"><title>1&#45;&gt;1</title>
<path fill="none" stroke="black" d="M530.193,-31.4987C588.267,-31.5875 635,-27.0879 635,-18 635,-9.4446 593.583,-4.95558 540.278,-4.53295"/>
<polygon fill="black" stroke="black" points="540.204,-1.0328 530.193,-4.50129 540.182,-8.03276 540.204,-1.0328"/>
</g>
</g>
</svg>
