<?xml version="1.0" encoding="UTF-8" standalone="no"?>
<!DOCTYPE svg PUBLIC "-//W3C//DTD SVG 1.1//EN"
 "http://www.w3.org/Graphics/SVG/1.1/DTD/svg11.dtd">
<!-- Generated by graphviz version 2.36.0 (20140111.2315)
 -->
<!-- Title: G Pages: 1 -->
<svg width="154pt" height="132pt"
 viewBox="0.00 0.00 154.00 132.00" xmlns="http://www.w3.org/2000/svg" xmlns:xlink="http://www.w3.org/1999/xlink">
<g id="graph0" class="graph" transform="scale(1 1) rotate(0) translate(4 128)">
<title>G</title>
<polygon fill="white" stroke="none" points="-4,4 -4,-128 150,-128 150,4 -4,4"/>
<!-- 0 -->
<g id="node1" class="node"><title>0</title>
<ellipse fill="none" stroke="black" cx="33" cy="-106" rx="33.2209" ry="18"/>
<text text-anchor="middle" x="33" y="-102.3" font-family="Times,serif" font-size="14.00">Sunny</text>
</g>
<!-- 0&#45;&gt;0 -->
<g id="edge1" class="edge"><title>0&#45;&gt;0</title>
<path fill="none" stroke="black" d="M62.6045,-114.209C74.2627,-114.623 84,-111.887 84,-106 84,-101.953 79.3976,-99.3948 72.7327,-98.3257"/>
<polygon fill="black" stroke="black" points="72.7752,-94.8231 62.6045,-97.7908 72.406,-101.813 72.7752,-94.8231"/>
<text text-anchor="middle" x="115" y="-102.3" font-family="Times,serif" font-size="14.00">Sometimes</text>
</g>
<!-- 1 -->
<g id="node2" class="node"><title>1</title>
<ellipse fill="none" stroke="black" cx="33" cy="-18" rx="31.2735" ry="18"/>
<text text-anchor="middle" x="33" y="-14.3" font-family="Times,serif" font-size="14.00">Rainy</text>
</g>
<!-- 0&#45;&gt;1 -->
<g id="edge2" class="edge"><title>0&#45;&gt;1</title>
<path fill="none" stroke="black" d="M18.1756,-89.5086C13.6859,-83.8226 9.32967,-77.0428 7,-70 3.89591,-60.616 7.12764,-50.8261 12.2409,-42.3619"/>
<polygon fill="black" stroke="black" points="15.1673,-44.285 18.0638,-34.0938 9.4442,-40.2544 15.1673,-44.285"/>
<text text-anchor="middle" x="22.5" y="-58.3" font-family="Times,serif" font-size="14.00">Often</text>
</g>
<!-- 1&#45;&gt;0 -->
<g id="edge3" class="edge"><title>1&#45;&gt;0</title>
<path fill="none" stroke="black" d="M35.9285,-36.0378C36.7747,-41.731 37.5823,-48.1223 38,-54 38.5041,-61.0932 38.5041,-62.9068 38,-70 37.8172,-72.5715 37.5599,-75.2413 37.2573,-77.908"/>
<polygon fill="black" stroke="black" points="33.769,-77.5898 35.9285,-87.9622 40.7086,-78.507 33.769,-77.5898"/>
<text text-anchor="middle" x="56.5" y="-58.3" font-family="Times,serif" font-size="14.00">Rarely</text>
</g>
<!-- 1&#45;&gt;1 -->
<g id="edge4" class="edge"><title>1&#45;&gt;1</title>
<path fill="none" stroke="black" d="M61.198,-26.1996C72.5074,-26.6629 82,-23.9297 82,-18 82,-14.016 77.7149,-11.4749 71.4727,-10.3768"/>
<polygon fill="black" stroke="black" points="71.3783,-6.86608 61.198,-9.80035 70.9862,-13.8551 71.3783,-6.86608"/>
<text text-anchor="middle" x="102" y="-14.3" font-family="Times,serif" font-size="14.00">Mostly</text>
</g>
</g>
</svg>
