<?xml version="1.0" encoding="UTF-8" standalone="no"?>
<!DOCTYPE svg PUBLIC "-//W3C//DTD SVG 1.1//EN"
 "http://www.w3.org/Graphics/SVG/1.1/DTD/svg11.dtd">
<!-- Generated by graphviz version 2.38.0 (20140413.2041)
 -->
<!-- Title: G Pages: 1 -->
<svg width="323pt" height="218pt"
 viewBox="0.00 0.00 322.79 218.00" xmlns="http://www.w3.org/2000/svg" xmlns:xlink="http://www.w3.org/1999/xlink">
<g id="graph0" class="graph" transform="scale(1 1) rotate(0) translate(4 214)">
<title>G</title>
<polygon fill="white" stroke="none" points="-4,4 -4,-214 318.792,-214 318.792,4 -4,4"/>
<!-- 0 -->
<g id="node1" class="node"><title>0</title>
<ellipse fill="none" stroke="black" cx="174.792" cy="-192" rx="61.1893" ry="18"/>
<text text-anchor="middle" x="174.792" y="-188.3" font-family="Times,serif" font-size="14.00">top,source,0,0</text>
</g>
<!-- 1 -->
<g id="node2" class="node"><title>1</title>
<ellipse fill="none" stroke="black" cx="85.7924" cy="-105" rx="85.5853" ry="18"/>
<text text-anchor="middle" x="85.7924" y="-101.3" font-family="Times,serif" font-size="14.00">right,target,3.14,3.14</text>
</g>
<!-- 0&#45;&#45;1 -->
<g id="edge1" class="edge"><title>0&#45;&#45;1</title>
<path fill="none" stroke="black" d="M153.722,-174.849C146.573,-169.11 138.662,-162.465 131.792,-156 120.626,-145.491 108.939,-132.761 100.138,-122.776"/>
<text text-anchor="middle" x="164.792" y="-144.8" font-family="Times,serif" font-size="14.00">AB,first,0,0</text>
</g>
<!-- 2 -->
<g id="node3" class="node"><title>2</title>
<ellipse fill="none" stroke="black" cx="146.792" cy="-18" rx="58.4896" ry="18"/>
<text text-anchor="middle" x="146.792" y="-14.3" font-family="Times,serif" font-size="14.00">left,target,0,0</text>
</g>
<!-- 1&#45;&#45;2 -->
<g id="edge2" class="edge"><title>1&#45;&#45;2</title>
<path fill="none" stroke="black" d="M80.1375,-86.653C77.8906,-76.4661 77.0269,-63.7243 82.7924,-54 88.6051,-44.196 98.241,-36.9595 108.293,-31.6971"/>
<text text-anchor="middle" x="140.292" y="-57.8" font-family="Times,serif" font-size="14.00">BC,second,3.14,3.14</text>
</g>
<!-- 2&#45;&#45;0 -->
<g id="edge3" class="edge"><title>2&#45;&#45;0</title>
<path fill="none" stroke="black" d="M177.901,-33.4543C185.819,-38.7364 193.339,-45.5433 197.792,-54 218.914,-94.1122 210.786,-112.569 197.792,-156 195.875,-162.409 192.365,-168.731 188.656,-174.202"/>
<text text-anchor="middle" x="262.792" y="-101.3" font-family="Times,serif" font-size="14.00">CA,third,3.14,3.14</text>
</g>
</g>
</svg>
