<?xml version="1.0" encoding="UTF-8" standalone="no"?>
<!DOCTYPE svg PUBLIC "-//W3C//DTD SVG 1.1//EN"
 "http://www.w3.org/Graphics/SVG/1.1/DTD/svg11.dtd">
<!-- Generated by graphviz version 2.36.0 (20140111.2315)
 -->
<!-- Title: G Pages: 1 -->
<svg width="846pt" height="836pt"
 viewBox="0.00 0.00 846.00 836.00" xmlns="http://www.w3.org/2000/svg" xmlns:xlink="http://www.w3.org/1999/xlink">
<g id="graph0" class="graph" transform="scale(1 1) rotate(0) translate(4 832)">
<title>G</title>
<polygon fill="white" stroke="none" points="-4,4 -4,-832 842,-832 842,4 -4,4"/>
<!-- 0 -->
<g id="node1" class="node"><title>0</title>
<ellipse fill="none" stroke="black" cx="414" cy="-810" rx="129.483" ry="18"/>
<text text-anchor="middle" x="414" y="-806.3" font-family="Times,serif" font-size="14.00">Creating an empty directed graph</text>
</g>
<!-- 1 -->
<g id="node2" class="node"><title>1</title>
<ellipse fill="none" stroke="black" cx="331" cy="-738" rx="138.157" ry="18"/>
<text text-anchor="middle" x="331" y="-734.3" font-family="Times,serif" font-size="14.00">Creating an empty undirected graph</text>
</g>
<!-- 0&#45;&gt;1 -->
<g id="edge1" class="edge"><title>0&#45;&gt;1</title>
<path fill="none" stroke="black" d="M393.908,-792.055C383.383,-783.179 370.328,-772.169 358.844,-762.483"/>
<polygon fill="black" stroke="black" points="361.095,-759.803 351.195,-756.032 356.583,-765.154 361.095,-759.803"/>
</g>
<!-- 2 -->
<g id="node3" class="node"><title>2</title>
<ellipse fill="none" stroke="black" cx="414" cy="-666" rx="113.135" ry="18"/>
<text text-anchor="middle" x="414" y="-662.3" font-family="Times,serif" font-size="14.00">Add a vertex with a property</text>
</g>
<!-- 0&#45;&gt;2 -->
<g id="edge2" class="edge"><title>0&#45;&gt;2</title>
<path fill="none" stroke="black" d="M444.097,-792.372C457.07,-783.446 470.879,-771.144 478,-756 484.809,-741.521 484.809,-734.479 478,-720 472.332,-707.948 462.429,-697.695 452.082,-689.512"/>
<polygon fill="black" stroke="black" points="453.893,-686.499 443.762,-683.398 449.748,-692.14 453.893,-686.499"/>
</g>
<!-- 1&#45;&gt;2 -->
<g id="edge3" class="edge"><title>1&#45;&gt;2</title>
<path fill="none" stroke="black" d="M351.092,-720.055C361.695,-711.113 374.865,-700.005 386.411,-690.268"/>
<polygon fill="black" stroke="black" points="388.705,-692.912 394.093,-683.789 384.192,-687.561 388.705,-692.912"/>
</g>
<!-- 3 -->
<g id="node4" class="node"><title>3</title>
<ellipse fill="none" stroke="black" cx="414" cy="-594" rx="118.409" ry="18"/>
<text text-anchor="middle" x="414" y="-590.3" font-family="Times,serif" font-size="14.00">Getting the vertices&#39; properties</text>
</g>
<!-- 2&#45;&gt;3 -->
<g id="edge4" class="edge"><title>2&#45;&gt;3</title>
<path fill="none" stroke="black" d="M414,-647.697C414,-639.983 414,-630.712 414,-622.112"/>
<polygon fill="black" stroke="black" points="417.5,-622.104 414,-612.104 410.5,-622.104 417.5,-622.104"/>
</g>
<!-- 4 -->
<g id="node5" class="node"><title>4</title>
<ellipse fill="none" stroke="black" cx="257" cy="-522" rx="141.531" ry="18"/>
<text text-anchor="middle" x="257" y="-518.3" font-family="Times,serif" font-size="14.00">Creating a non&#45;empty directed graph</text>
</g>
<!-- 2&#45;&gt;4 -->
<g id="edge5" class="edge"><title>2&#45;&gt;4</title>
<path fill="none" stroke="black" d="M351.167,-650.896C328.001,-642.9 303.233,-630.625 286,-612 270.355,-595.092 263.144,-569.621 259.824,-550.254"/>
<polygon fill="black" stroke="black" points="263.266,-549.602 258.351,-540.216 256.34,-550.618 263.266,-549.602"/>
</g>
<!-- 5 -->
<g id="node6" class="node"><title>5</title>
<ellipse fill="none" stroke="black" cx="567" cy="-522" rx="150.205" ry="18"/>
<text text-anchor="middle" x="567" y="-518.3" font-family="Times,serif" font-size="14.00">Creating a non&#45;empty undirected graph</text>
</g>
<!-- 2&#45;&gt;5 -->
<g id="edge6" class="edge"><title>2&#45;&gt;5</title>
<path fill="none" stroke="black" d="M476.973,-650.948C499.903,-642.972 524.274,-630.696 541,-612 556.214,-594.994 562.551,-569.534 565.177,-550.196"/>
<polygon fill="black" stroke="black" points="568.665,-550.499 566.287,-540.175 561.707,-549.729 568.665,-550.499"/>
</g>
<!-- 3&#45;&gt;4 -->
<g id="edge7" class="edge"><title>3&#45;&gt;4</title>
<path fill="none" stroke="black" d="M377.586,-576.765C355.355,-566.853 326.73,-554.09 302.948,-543.486"/>
<polygon fill="black" stroke="black" points="304.319,-540.265 293.76,-539.39 301.468,-546.659 304.319,-540.265"/>
</g>
<!-- 3&#45;&gt;5 -->
<g id="edge8" class="edge"><title>3&#45;&gt;5</title>
<path fill="none" stroke="black" d="M449.486,-576.765C470.977,-566.932 498.601,-554.294 521.665,-543.742"/>
<polygon fill="black" stroke="black" points="523.273,-546.855 530.911,-539.511 520.361,-540.489 523.273,-546.855"/>
</g>
<!-- 6 -->
<g id="node7" class="node"><title>6</title>
<ellipse fill="none" stroke="black" cx="412" cy="-450" rx="137.183" ry="18"/>
<text text-anchor="middle" x="412" y="-446.3" font-family="Times,serif" font-size="14.00">Has a vertex with a certain property</text>
</g>
<!-- 4&#45;&gt;6 -->
<g id="edge9" class="edge"><title>4&#45;&gt;6</title>
<path fill="none" stroke="black" d="M293.341,-504.588C315.125,-494.75 343.021,-482.152 366.292,-471.642"/>
<polygon fill="black" stroke="black" points="367.946,-474.736 375.619,-467.43 365.065,-468.356 367.946,-474.736"/>
</g>
<!-- 7 -->
<g id="node8" class="node"><title>7</title>
<ellipse fill="none" stroke="black" cx="412" cy="-378" rx="111.186" ry="18"/>
<text text-anchor="middle" x="412" y="-374.3" font-family="Times,serif" font-size="14.00">Find a vertex by its property</text>
</g>
<!-- 4&#45;&gt;7 -->
<g id="edge10" class="edge"><title>4&#45;&gt;7</title>
<path fill="none" stroke="black" d="M253.542,-503.995C250.608,-484.515 249.078,-452.634 265,-432 279.148,-413.665 300.207,-401.664 321.994,-393.813"/>
<polygon fill="black" stroke="black" points="323.306,-397.065 331.694,-390.592 321.1,-390.421 323.306,-397.065"/>
</g>
<!-- 11 -->
<g id="node12" class="node"><title>11</title>
<ellipse fill="none" stroke="black" cx="412" cy="-90" rx="139.606" ry="18"/>
<text text-anchor="middle" x="412" y="-86.3" font-family="Times,serif" font-size="14.00">Save the graph with those properties</text>
</g>
<!-- 4&#45;&gt;11 -->
<g id="edge11" class="edge"><title>4&#45;&gt;11</title>
<path fill="none" stroke="black" d="M246.847,-503.732C232.495,-477.643 208,-426.203 208,-379 208,-379 208,-379 208,-233 208,-166.78 281.303,-128.925 340.028,-109.224"/>
<polygon fill="black" stroke="black" points="341.247,-112.508 349.685,-106.101 339.093,-105.848 341.247,-112.508"/>
</g>
<!-- 5&#45;&gt;6 -->
<g id="edge12" class="edge"><title>5&#45;&gt;6</title>
<path fill="none" stroke="black" d="M530.267,-504.411C508.551,-494.604 480.865,-482.1 457.74,-471.657"/>
<polygon fill="black" stroke="black" points="459.023,-468.396 448.469,-467.47 456.142,-474.776 459.023,-468.396"/>
</g>
<!-- 5&#45;&gt;7 -->
<g id="edge13" class="edge"><title>5&#45;&gt;7</title>
<path fill="none" stroke="black" d="M570.224,-503.977C572.897,-484.481 574.031,-452.585 558,-432 543.783,-413.746 522.696,-401.774 500.939,-393.924"/>
<polygon fill="black" stroke="black" points="501.851,-390.539 491.257,-390.703 499.641,-397.181 501.851,-390.539"/>
</g>
<!-- 5&#45;&gt;11 -->
<g id="edge14" class="edge"><title>5&#45;&gt;11</title>
<path fill="none" stroke="black" d="M577.153,-503.732C591.505,-477.643 616,-426.203 616,-379 616,-379 616,-379 616,-233 616,-166.78 542.697,-128.925 483.972,-109.224"/>
<polygon fill="black" stroke="black" points="484.907,-105.848 474.315,-106.101 482.753,-112.508 484.907,-105.848"/>
</g>
<!-- 6&#45;&gt;7 -->
<g id="edge15" class="edge"><title>6&#45;&gt;7</title>
<path fill="none" stroke="black" d="M412,-431.697C412,-423.983 412,-414.712 412,-406.112"/>
<polygon fill="black" stroke="black" points="415.5,-406.104 412,-396.104 408.5,-406.104 415.5,-406.104"/>
</g>
<!-- 8 -->
<g id="node9" class="node"><title>8</title>
<ellipse fill="none" stroke="black" cx="412" cy="-306" rx="96.2631" ry="18"/>
<text text-anchor="middle" x="412" y="-302.3" font-family="Times,serif" font-size="14.00">Get a vertex its property</text>
</g>
<!-- 7&#45;&gt;8 -->
<g id="edge16" class="edge"><title>7&#45;&gt;8</title>
<path fill="none" stroke="black" d="M412,-359.697C412,-351.983 412,-342.712 412,-334.112"/>
<polygon fill="black" stroke="black" points="415.5,-334.104 412,-324.104 408.5,-334.104 415.5,-334.104"/>
</g>
<!-- 9 -->
<g id="node10" class="node"><title>9</title>
<ellipse fill="none" stroke="black" cx="412" cy="-234" rx="95.3122" ry="18"/>
<text text-anchor="middle" x="412" y="-230.3" font-family="Times,serif" font-size="14.00">Set a vertex its property</text>
</g>
<!-- 8&#45;&gt;9 -->
<g id="edge17" class="edge"><title>8&#45;&gt;9</title>
<path fill="none" stroke="black" d="M412,-287.697C412,-279.983 412,-270.712 412,-262.112"/>
<polygon fill="black" stroke="black" points="415.5,-262.104 412,-252.104 408.5,-262.104 415.5,-262.104"/>
</g>
<!-- 10 -->
<g id="node11" class="node"><title>10</title>
<ellipse fill="none" stroke="black" cx="412" cy="-162" rx="102.061" ry="18"/>
<text text-anchor="middle" x="412" y="-158.3" font-family="Times,serif" font-size="14.00">Set all vertices&#39; properties</text>
</g>
<!-- 9&#45;&gt;10 -->
<g id="edge18" class="edge"><title>9&#45;&gt;10</title>
<path fill="none" stroke="black" d="M412,-215.697C412,-207.983 412,-198.712 412,-190.112"/>
<polygon fill="black" stroke="black" points="415.5,-190.104 412,-180.104 408.5,-190.104 415.5,-190.104"/>
</g>
<!-- 10&#45;&gt;11 -->
<g id="edge19" class="edge"><title>10&#45;&gt;11</title>
<path fill="none" stroke="black" d="M412,-143.697C412,-135.983 412,-126.712 412,-118.112"/>
<polygon fill="black" stroke="black" points="415.5,-118.104 412,-108.104 408.5,-118.104 415.5,-118.104"/>
</g>
<!-- 12 -->
<g id="node13" class="node"><title>12</title>
<ellipse fill="none" stroke="black" cx="198" cy="-18" rx="198.324" ry="18"/>
<text text-anchor="middle" x="198" y="-14.3" font-family="Times,serif" font-size="14.00">Load a directed graph with those properties from file</text>
</g>
<!-- 11&#45;&gt;12 -->
<g id="edge20" class="edge"><title>11&#45;&gt;12</title>
<path fill="none" stroke="black" d="M363.44,-73.1159C332.125,-62.8728 291.178,-49.4787 257.855,-38.5787"/>
<polygon fill="black" stroke="black" points="258.819,-35.2116 248.226,-35.4292 256.643,-41.8647 258.819,-35.2116"/>
</g>
<!-- 13 -->
<g id="node14" class="node"><title>13</title>
<ellipse fill="none" stroke="black" cx="627" cy="-18" rx="211.322" ry="18"/>
<text text-anchor="middle" x="627" y="-14.3" font-family="Times,serif" font-size="14.00">Load an undirected graph with those properties from file</text>
</g>
<!-- 11&#45;&gt;13 -->
<g id="edge21" class="edge"><title>11&#45;&gt;13</title>
<path fill="none" stroke="black" d="M460.787,-73.1159C492.135,-62.9095 533.092,-49.5746 566.505,-38.696"/>
<polygon fill="black" stroke="black" points="567.738,-41.9756 576.163,-35.5516 565.571,-35.3195 567.738,-41.9756"/>
</g>
</g>
</svg>
