<?xml version="1.0" encoding="UTF-8" standalone="no"?>
<!DOCTYPE svg PUBLIC "-//W3C//DTD SVG 1.1//EN"
 "http://www.w3.org/Graphics/SVG/1.1/DTD/svg11.dtd">
<!-- Generated by graphviz version 2.38.0 (20140413.2041)
 -->
<!-- Title: G Pages: 1 -->
<svg width="540pt" height="389pt"
 viewBox="0.00 0.00 539.77 388.77" xmlns="http://www.w3.org/2000/svg" xmlns:xlink="http://www.w3.org/1999/xlink">
<g id="graph0" class="graph" transform="scale(1 1) rotate(0) translate(4 384.774)">
<title>G</title>
<polygon fill="white" stroke="none" points="-4,4 -4,-384.774 535.774,-384.774 535.774,4 -4,4"/>
<!-- 0 -->
<g id="node1" class="node"><title>0</title>
<ellipse fill="none" stroke="black" cx="146.887" cy="-233.887" rx="146.774" ry="146.774"/>
<text text-anchor="middle" x="146.887" y="-230.187" font-family="Times,serif" font-size="14.00">Sunny,Yellow$$$SPACE$$$thing,1,1</text>
</g>
<!-- 0&#45;&gt;0 -->
<g id="edge1" class="edge"><title>0&#45;&gt;0</title>
<path fill="none" stroke="black" d="M291.87,-258.932C304.132,-253.573 311.774,-245.225 311.774,-233.887 311.774,-225.561 307.652,-218.847 300.606,-213.745"/>
<polygon fill="black" stroke="black" points="302.303,-210.684 291.87,-208.842 298.877,-216.788 302.303,-210.684"/>
<text text-anchor="middle" x="421.774" y="-230.187" font-family="Times,serif" font-size="14.00">A$$$SPACE$$$to$$$SPACE$$$A,,1,1</text>
</g>
<!-- 1 -->
<g id="node2" class="node"><title>1</title>
<ellipse fill="none" stroke="black" cx="146.887" cy="-18" rx="140.275" ry="18"/>
<text text-anchor="middle" x="146.887" y="-14.3" font-family="Times,serif" font-size="14.00">Rainy,Grey$$$SPACE$$$things,3,3</text>
</g>
<!-- 0&#45;&gt;1 -->
<g id="edge2" class="edge"><title>0&#45;&gt;1</title>
<path fill="none" stroke="black" d="M35.1481,-138.286C15.4315,-110.695 6.80467,-80.7764 26.887,-54 32.1746,-46.9498 38.8044,-41.2556 46.2173,-36.6646"/>
<polygon fill="black" stroke="black" points="48.1248,-39.6117 55.2458,-31.7668 44.7869,-33.4588 48.1248,-39.6117"/>
<text text-anchor="middle" x="136.887" y="-57.8" font-family="Times,serif" font-size="14.00">A$$$SPACE$$$to$$$SPACE$$$B,,1,1</text>
</g>
<!-- 1&#45;&gt;0 -->
<g id="edge3" class="edge"><title>1&#45;&gt;0</title>
<path fill="none" stroke="black" d="M221.752,-33.3048C231.615,-38.2946 240.501,-44.999 246.887,-54 261.028,-73.932 260.382,-96.0462 251.866,-117.737"/>
<polygon fill="black" stroke="black" points="248.612,-116.439 247.754,-126.999 255.01,-119.279 248.612,-116.439"/>
<text text-anchor="middle" x="363.887" y="-57.8" font-family="Times,serif" font-size="14.00">B$$$SPACE$$$to$$$SPACE$$$A,,1,1</text>
</g>
<!-- 1&#45;&gt;1 -->
<g id="edge4" class="edge"><title>1&#45;&gt;1</title>
<path fill="none" stroke="black" d="M276.457,-24.9655C293.77,-23.7876 305.275,-21.4658 305.275,-18 305.275,-15.2653 298.112,-13.2428 286.584,-11.9326"/>
<polygon fill="black" stroke="black" points="286.727,-8.43162 276.457,-11.0345 286.109,-15.4043 286.727,-8.43162"/>
<text text-anchor="middle" x="414.775" y="-14.3" font-family="Times,serif" font-size="14.00">B$$$SPACE$$$to$$$SPACE$$$B,,1,1</text>
</g>
</g>
</svg>
