<?xml version="1.0" encoding="UTF-8" standalone="no"?>
<!DOCTYPE svg PUBLIC "-//W3C//DTD SVG 1.1//EN"
 "http://www.w3.org/Graphics/SVG/1.1/DTD/svg11.dtd">
<!-- Generated by graphviz version 2.38.0 (20140413.2041)
 -->
<!-- Title: G Pages: 1 -->
<svg width="551pt" height="827pt"
 viewBox="0.00 0.00 551.00 827.00" xmlns="http://www.w3.org/2000/svg" xmlns:xlink="http://www.w3.org/1999/xlink">
<g id="graph0" class="graph" transform="scale(1 1) rotate(0) translate(4 823)">
<title>G</title>
<polygon fill="white" stroke="none" points="-4,4 -4,-823 547,-823 547,4 -4,4"/>
<!-- 0 -->
<g id="node1" class="node"><title>0</title>
<ellipse fill="none" stroke="black" cx="390" cy="-801" rx="38.1938" ry="18"/>
<text text-anchor="middle" x="390" y="-797.3" font-family="Times,serif" font-size="14.00">A,E,0,0</text>
</g>
<!-- 1 -->
<g id="node2" class="node"><title>1</title>
<ellipse fill="none" stroke="black" cx="309" cy="-714" rx="52.7911" ry="18"/>
<text text-anchor="middle" x="309" y="-710.3" font-family="Times,serif" font-size="14.00">B,D,1.1,2.2</text>
</g>
<!-- 0&#45;&#45;1 -->
<g id="edge1" class="edge"><title>0&#45;&#45;1</title>
<path fill="none" stroke="black" d="M364.388,-787.468C354.338,-781.649 343.258,-774.012 335,-765 326.275,-755.478 319.635,-742.482 315.249,-732.127"/>
<text text-anchor="middle" x="355.5" y="-753.8" font-family="Times,serif" font-size="14.00">a,A,0,0</text>
</g>
<!-- 5 -->
<g id="node6" class="node"><title>5</title>
<ellipse fill="none" stroke="black" cx="291" cy="-105" rx="34.394" ry="18"/>
<text text-anchor="middle" x="291" y="-101.3" font-family="Times,serif" font-size="14.00">a,e,0,0</text>
</g>
<!-- 0&#45;&#45;5 -->
<g id="edge6" class="edge"><title>0&#45;&#45;5</title>
<path fill="none" stroke="black" d="M418.103,-788.284C445.158,-774.909 482,-750.228 482,-715 482,-715 482,-715 482,-191 482,-123.31 380.63,-109.134 325.589,-106.426"/>
<text text-anchor="middle" x="512.5" y="-449.3" font-family="Times,serif" font-size="14.00">f,F,27.5,33</text>
</g>
<!-- 2 -->
<g id="node3" class="node"><title>2</title>
<ellipse fill="none" stroke="black" cx="129" cy="-627" rx="51.9908" ry="18"/>
<text text-anchor="middle" x="129" y="-623.3" font-family="Times,serif" font-size="14.00">C,C,2.2,4.4</text>
</g>
<!-- 1&#45;&#45;2 -->
<g id="edge2" class="edge"><title>1&#45;&#45;2</title>
<path fill="none" stroke="black" d="M278.621,-699.149C264.694,-692.763 247.984,-685.051 233,-678 207.622,-666.057 178.898,-652.223 158.077,-642.138"/>
<text text-anchor="middle" x="264" y="-666.8" font-family="Times,serif" font-size="14.00">b,B,5.5,6.6</text>
</g>
<!-- 6 -->
<g id="node7" class="node"><title>6</title>
<ellipse fill="none" stroke="black" cx="291" cy="-279" rx="49.2915" ry="18"/>
<text text-anchor="middle" x="291" y="-275.3" font-family="Times,serif" font-size="14.00">b,d,3.3,4.4</text>
</g>
<!-- 1&#45;&#45;6 -->
<g id="edge7" class="edge"><title>1&#45;&#45;6</title>
<path fill="none" stroke="black" d="M309,-695.744C309,-678.57 309,-651.464 309,-628 309,-628 309,-628 309,-365 309,-341.016 302.056,-314.035 296.794,-297.032"/>
<text text-anchor="middle" x="342" y="-492.8" font-family="Times,serif" font-size="14.00">g,G,33,39.6</text>
</g>
<!-- 3 -->
<g id="node4" class="node"><title>3</title>
<ellipse fill="none" stroke="black" cx="129" cy="-540" rx="52.7911" ry="18"/>
<text text-anchor="middle" x="129" y="-536.3" font-family="Times,serif" font-size="14.00">D,B,3.3,6.6</text>
</g>
<!-- 2&#45;&#45;3 -->
<g id="edge3" class="edge"><title>2&#45;&#45;3</title>
<path fill="none" stroke="black" d="M129,-608.799C129,-594.052 129,-572.915 129,-558.175"/>
<text text-anchor="middle" x="161" y="-579.8" font-family="Times,serif" font-size="14.00">c,C,11,13.2</text>
</g>
<!-- 7 -->
<g id="node8" class="node"><title>7</title>
<ellipse fill="none" stroke="black" cx="146" cy="-18" rx="48.1917" ry="18"/>
<text text-anchor="middle" x="146" y="-14.3" font-family="Times,serif" font-size="14.00">c,c,6.6,8.8</text>
</g>
<!-- 2&#45;&#45;7 -->
<g id="edge8" class="edge"><title>2&#45;&#45;7</title>
<path fill="none" stroke="black" d="M86.0449,-616.588C48.5187,-605.538 0,-583.108 0,-541 0,-541 0,-541 0,-104 0,-56.1921 59.19,-34.8047 102.195,-25.5747"/>
<text text-anchor="middle" x="38" y="-318.8" font-family="Times,serif" font-size="14.00">h,H,38.5,46.2</text>
</g>
<!-- 4 -->
<g id="node5" class="node"><title>4</title>
<ellipse fill="none" stroke="black" cx="224" cy="-453" rx="51.9908" ry="18"/>
<text text-anchor="middle" x="224" y="-449.3" font-family="Times,serif" font-size="14.00">E,A,4.4,8.8</text>
</g>
<!-- 3&#45;&#45;4 -->
<g id="edge4" class="edge"><title>3&#45;&#45;4</title>
<path fill="none" stroke="black" d="M146.869,-523.012C163.853,-507.815 189.253,-485.089 206.211,-469.916"/>
<text text-anchor="middle" x="221" y="-492.8" font-family="Times,serif" font-size="14.00">d,D,16.5,19.8</text>
</g>
<!-- 8 -->
<g id="node9" class="node"><title>8</title>
<ellipse fill="none" stroke="black" cx="291" cy="-192" rx="53.8905" ry="18"/>
<text text-anchor="middle" x="291" y="-188.3" font-family="Times,serif" font-size="14.00">d,b,9.9,13.2</text>
</g>
<!-- 3&#45;&#45;8 -->
<g id="edge9" class="edge"><title>3&#45;&#45;8</title>
<path fill="none" stroke="black" d="M116.557,-522.396C105.475,-505.932 91,-479.54 91,-454 91,-454 91,-454 91,-278 91,-260.551 195.446,-223.931 253.382,-204.961"/>
<text text-anchor="middle" x="120" y="-362.3" font-family="Times,serif" font-size="14.00">i,I,44,52.8</text>
</g>
<!-- 4&#45;&#45;0 -->
<g id="edge5" class="edge"><title>4&#45;&#45;0</title>
<path fill="none" stroke="black" d="M272.272,-459.71C310.984,-465.244 361.21,-474.885 376,-489 392.694,-504.932 390,-515.923 390,-539 390,-715 390,-715 390,-715 390,-738.464 390,-765.57 390,-782.744"/>
<text text-anchor="middle" x="422" y="-623.3" font-family="Times,serif" font-size="14.00">e,E,22,26.4</text>
</g>
<!-- 9 -->
<g id="node10" class="node"><title>9</title>
<ellipse fill="none" stroke="black" cx="224" cy="-366" rx="57.3905" ry="18"/>
<text text-anchor="middle" x="224" y="-362.3" font-family="Times,serif" font-size="14.00">e,a,13.2,17.6</text>
</g>
<!-- 4&#45;&#45;9 -->
<g id="edge10" class="edge"><title>4&#45;&#45;9</title>
<path fill="none" stroke="black" d="M224,-434.799C224,-420.052 224,-398.915 224,-384.175"/>
<text text-anchor="middle" x="258.5" y="-405.8" font-family="Times,serif" font-size="14.00">j,J,49.5,59.4</text>
</g>
<!-- 5&#45;&#45;7 -->
<g id="edge11" class="edge"><title>5&#45;&#45;7</title>
<path fill="none" stroke="black" d="M268.978,-91.0903C242.516,-75.5786 198.245,-49.6266 170.661,-33.4567"/>
<text text-anchor="middle" x="255.5" y="-57.8" font-family="Times,serif" font-size="14.00">k,K,55,66</text>
</g>
<!-- 6&#45;&#45;8 -->
<g id="edge12" class="edge"><title>6&#45;&#45;8</title>
<path fill="none" stroke="black" d="M291,-260.799C291,-246.052 291,-224.915 291,-210.175"/>
<text text-anchor="middle" x="327" y="-231.8" font-family="Times,serif" font-size="14.00">l,L,60.5,72.6</text>
</g>
<!-- 7&#45;&#45;9 -->
<g id="edge13" class="edge"><title>7&#45;&#45;9</title>
<path fill="none" stroke="black" d="M146,-36.2564C146,-53.4297 146,-80.5365 146,-104 146,-280 146,-280 146,-280 146,-310.844 174.226,-335.338 196.719,-349.961"/>
<text text-anchor="middle" x="182.5" y="-188.3" font-family="Times,serif" font-size="14.00">m,M,66,79.2</text>
</g>
<!-- 8&#45;&#45;5 -->
<g id="edge14" class="edge"><title>8&#45;&#45;5</title>
<path fill="none" stroke="black" d="M291,-173.799C291,-159.052 291,-137.915 291,-123.175"/>
<text text-anchor="middle" x="329" y="-144.8" font-family="Times,serif" font-size="14.00">n,N,71.5,85.8</text>
</g>
<!-- 9&#45;&#45;6 -->
<g id="edge15" class="edge"><title>9&#45;&#45;6</title>
<path fill="none" stroke="black" d="M221.953,-347.959C221.573,-337.635 222.706,-324.643 229,-315 235.553,-304.96 246.042,-297.503 256.542,-292.114"/>
<text text-anchor="middle" x="262" y="-318.8" font-family="Times,serif" font-size="14.00">o,O,77,92.4</text>
</g>
</g>
</svg>
