<?xml version="1.0" encoding="UTF-8" standalone="no"?>
<!DOCTYPE svg PUBLIC "-//W3C//DTD SVG 1.1//EN"
 "http://www.w3.org/Graphics/SVG/1.1/DTD/svg11.dtd">
<!-- Generated by graphviz version 2.36.0 (20140111.2315)
 -->
<!-- Title: G Pages: 1 -->
<svg width="1554pt" height="1268pt"
 viewBox="0.00 0.00 1554.00 1268.00" xmlns="http://www.w3.org/2000/svg" xmlns:xlink="http://www.w3.org/1999/xlink">
<g id="graph0" class="graph" transform="scale(1 1) rotate(0) translate(4 1264)">
<title>G</title>
<polygon fill="white" stroke="none" points="-4,4 -4,-1264 1550,-1264 1550,4 -4,4"/>
<!-- 0 -->
<g id="node1" class="node"><title>0</title>
<ellipse fill="none" stroke="black" cx="1334" cy="-1242" rx="133.333" ry="18"/>
<text text-anchor="middle" x="1334" y="-1238.3" font-family="Times,serif" font-size="14.00">Building graphs without properties</text>
</g>
<!-- 1 -->
<g id="node2" class="node"><title>1</title>
<ellipse fill="none" stroke="black" cx="1334" cy="-1170" rx="146.356" ry="18"/>
<text text-anchor="middle" x="1334" y="-1166.3" font-family="Times,serif" font-size="14.00">Working on graphs without properties</text>
</g>
<!-- 0&#45;&gt;1 -->
<g id="edge1" class="edge"><title>0&#45;&gt;1</title>
<path fill="none" stroke="black" d="M1334,-1223.7C1334,-1215.98 1334,-1206.71 1334,-1198.11"/>
<polygon fill="black" stroke="black" points="1337.5,-1198.1 1334,-1188.1 1330.5,-1198.1 1337.5,-1198.1"/>
</g>
<!-- 2 -->
<g id="node3" class="node"><title>2</title>
<ellipse fill="none" stroke="black" cx="678" cy="-1098" rx="141.531" ry="18"/>
<text text-anchor="middle" x="678" y="-1094.3" font-family="Times,serif" font-size="14.00">Building graphs with named vertices</text>
</g>
<!-- 0&#45;&gt;2 -->
<g id="edge2" class="edge"><title>0&#45;&gt;2</title>
<path fill="none" stroke="black" d="M1266.57,-1226.4C1144.21,-1199.92 886.258,-1144.08 756.315,-1115.95"/>
<polygon fill="black" stroke="black" points="756.938,-1112.51 746.424,-1113.81 755.457,-1119.35 756.938,-1112.51"/>
</g>
<!-- 6 -->
<g id="node7" class="node"><title>6</title>
<ellipse fill="none" stroke="black" cx="898" cy="-810" rx="145.38" ry="18"/>
<text text-anchor="middle" x="898" y="-806.3" font-family="Times,serif" font-size="14.00">Building graphs with bundled vertices</text>
</g>
<!-- 0&#45;&gt;6 -->
<g id="edge3" class="edge"><title>0&#45;&gt;6</title>
<path fill="none" stroke="black" d="M1258.56,-1227.09C1231.23,-1219.16 1201.58,-1206.89 1179,-1188 1108.8,-1129.28 1131.2,-1083.17 1079,-1008 1030.99,-938.867 1014.51,-924.504 956,-864 946.348,-854.019 935.202,-843.596 925.276,-834.661"/>
<polygon fill="black" stroke="black" points="927.424,-831.888 917.629,-827.851 922.769,-837.115 927.424,-831.888"/>
</g>
<!-- 10 -->
<g id="node11" class="node"><title>10</title>
<ellipse fill="none" stroke="black" cx="645" cy="-234" rx="143.456" ry="18"/>
<text text-anchor="middle" x="645" y="-230.3" font-family="Times,serif" font-size="14.00">Building graphs with custom vertices</text>
</g>
<!-- 0&#45;&gt;10 -->
<g id="edge4" class="edge"><title>0&#45;&gt;10</title>
<path fill="none" stroke="black" d="M1430.66,-1229.43C1460.06,-1221.75 1490.51,-1209.03 1513,-1188 1543.82,-1159.19 1546,-1141.19 1546,-1099 1546,-1099 1546,-1099 1546,-665 1546,-453.877 1457.08,-355.384 1257,-288 1174.01,-260.05 945.637,-246.149 792.565,-239.774"/>
<polygon fill="black" stroke="black" points="792.271,-236.259 782.136,-239.347 791.984,-243.254 792.271,-236.259"/>
</g>
<!-- 14 -->
<g id="node15" class="node"><title>14</title>
<ellipse fill="none" stroke="black" cx="1294" cy="-522" rx="135.258" ry="18"/>
<text text-anchor="middle" x="1294" y="-518.3" font-family="Times,serif" font-size="14.00">Building graphs with a graph name</text>
</g>
<!-- 0&#45;&gt;14 -->
<g id="edge5" class="edge"><title>0&#45;&gt;14</title>
<path fill="none" stroke="black" d="M1420.34,-1228.21C1445.64,-1220.45 1471.26,-1208 1489,-1188 1515.85,-1157.75 1508,-1139.45 1508,-1099 1508,-1099 1508,-1099 1508,-881 1508,-734.67 1490.8,-676.036 1384,-576 1370.72,-563.565 1354.03,-552.737 1338.64,-544.167"/>
<polygon fill="black" stroke="black" points="1340.23,-541.047 1329.77,-539.386 1336.91,-547.21 1340.23,-541.047"/>
</g>
<!-- 1&#45;&gt;2 -->
<g id="edge6" class="edge"><title>1&#45;&gt;2</title>
<path fill="none" stroke="black" d="M1227.51,-1157.64C1108.13,-1144.9 915.277,-1124.32 792.666,-1111.24"/>
<polygon fill="black" stroke="black" points="792.81,-1107.73 782.495,-1110.15 792.067,-1114.69 792.81,-1107.73"/>
</g>
<!-- 1&#45;&gt;6 -->
<g id="edge7" class="edge"><title>1&#45;&gt;6</title>
<path fill="none" stroke="black" d="M1334.93,-1151.89C1336.79,-1098.22 1334.24,-932.693 1238,-864 1205.53,-840.826 1114.42,-827.408 1034.68,-819.872"/>
<polygon fill="black" stroke="black" points="1034.8,-816.368 1024.52,-818.938 1034.16,-823.339 1034.8,-816.368"/>
</g>
<!-- 1&#45;&gt;10 -->
<g id="edge8" class="edge"><title>1&#45;&gt;10</title>
<path fill="none" stroke="black" d="M1367.97,-1152.33C1408.25,-1129.89 1470,-1085.88 1470,-1027 1470,-1027 1470,-1027 1470,-881 1470,-712.842 1508.07,-656.866 1438,-504 1378.75,-374.742 1334.48,-339.643 1202,-288 1129.82,-259.862 931.344,-246.213 791.98,-239.92"/>
<polygon fill="black" stroke="black" points="791.776,-236.408 781.631,-239.462 791.466,-243.401 791.776,-236.408"/>
</g>
<!-- 1&#45;&gt;14 -->
<g id="edge9" class="edge"><title>1&#45;&gt;14</title>
<path fill="none" stroke="black" d="M1356.24,-1151.92C1385.15,-1127.6 1432,-1080.02 1432,-1027 1432,-1027 1432,-1027 1432,-737 1432,-657.682 1403.05,-639.106 1355,-576 1346.75,-565.167 1335.99,-554.93 1325.81,-546.395"/>
<polygon fill="black" stroke="black" points="1327.8,-543.504 1317.82,-539.935 1323.39,-548.946 1327.8,-543.504"/>
</g>
<!-- 3 -->
<g id="node4" class="node"><title>3</title>
<ellipse fill="none" stroke="black" cx="769" cy="-1026" rx="153.08" ry="18"/>
<text text-anchor="middle" x="769" y="-1022.3" font-family="Times,serif" font-size="14.00">Working on graphs with named vertices</text>
</g>
<!-- 2&#45;&gt;3 -->
<g id="edge10" class="edge"><title>2&#45;&gt;3</title>
<path fill="none" stroke="black" d="M700.029,-1080.05C711.679,-1071.09 726.156,-1059.96 738.835,-1050.2"/>
<polygon fill="black" stroke="black" points="741.067,-1052.9 746.859,-1044.03 736.799,-1047.35 741.067,-1052.9"/>
</g>
<!-- 4 -->
<g id="node5" class="node"><title>4</title>
<ellipse fill="none" stroke="black" cx="680" cy="-954" rx="178.601" ry="18"/>
<text text-anchor="middle" x="680" y="-950.3" font-family="Times,serif" font-size="14.00">Building graphs with named edges and vertices</text>
</g>
<!-- 2&#45;&gt;4 -->
<g id="edge11" class="edge"><title>2&#45;&gt;4</title>
<path fill="none" stroke="black" d="M643.581,-1080.41C629.537,-1071.69 614.791,-1059.54 607,-1044 599.828,-1029.7 599.734,-1022.25 607,-1008 613.291,-995.658 623.95,-985.517 635.207,-977.53"/>
<polygon fill="black" stroke="black" points="637.432,-980.256 643.87,-971.842 633.59,-974.405 637.432,-980.256"/>
</g>
<!-- 2&#45;&gt;6 -->
<g id="edge12" class="edge"><title>2&#45;&gt;6</title>
<path fill="none" stroke="black" d="M787.781,-1086.58C844.068,-1078.81 904.387,-1065.68 922,-1044 970.936,-983.751 929.063,-884.6 907.892,-837.471"/>
<polygon fill="black" stroke="black" points="911.029,-835.914 903.729,-828.236 904.648,-838.791 911.029,-835.914"/>
</g>
<!-- 2&#45;&gt;10 -->
<g id="edge13" class="edge"><title>2&#45;&gt;10</title>
<path fill="none" stroke="black" d="M541.835,-1093.05C412.927,-1087.46 229.981,-1074.31 166,-1044 115.161,-1019.92 76,-1011.26 76,-955 76,-955 76,-955 76,-377 76,-289.459 336.371,-255.279 504.887,-242.391"/>
<polygon fill="black" stroke="black" points="505.386,-245.864 515.097,-241.628 504.864,-238.883 505.386,-245.864"/>
</g>
<!-- 2&#45;&gt;14 -->
<g id="edge14" class="edge"><title>2&#45;&gt;14</title>
<path fill="none" stroke="black" d="M812.635,-1092.44C936.758,-1086.51 1110.78,-1073.21 1173,-1044 1265.75,-1000.46 1338,-985.46 1338,-883 1338,-883 1338,-883 1338,-665 1338,-622.395 1316.8,-576.881 1303.49,-549.18"/>
<polygon fill="black" stroke="black" points="1306.65,-547.659 1299.16,-540.159 1300.33,-550.688 1306.65,-547.659"/>
</g>
<!-- 3&#45;&gt;4 -->
<g id="edge15" class="edge"><title>3&#45;&gt;4</title>
<path fill="none" stroke="black" d="M747.456,-1008.05C736.17,-999.179 722.171,-988.169 709.857,-978.483"/>
<polygon fill="black" stroke="black" points="711.678,-975.463 701.654,-972.032 707.351,-980.965 711.678,-975.463"/>
</g>
<!-- 3&#45;&gt;6 -->
<g id="edge16" class="edge"><title>3&#45;&gt;6</title>
<path fill="none" stroke="black" d="M817.386,-1008.91C835.488,-1000.58 854.637,-988.598 867,-972 896.383,-932.554 900.223,-873.005 899.616,-838.464"/>
<polygon fill="black" stroke="black" points="903.105,-838.069 899.289,-828.186 896.109,-838.292 903.105,-838.069"/>
</g>
<!-- 3&#45;&gt;10 -->
<g id="edge17" class="edge"><title>3&#45;&gt;10</title>
<path fill="none" stroke="black" d="M655.083,-1013.95C603.817,-1006.29 543.405,-993.435 492,-972 309.837,-896.041 257.39,-807.725 232,-612 210.467,-446.006 286.486,-383.435 424,-288 453.06,-267.832 488.869,-255.29 523.137,-247.506"/>
<polygon fill="black" stroke="black" points="524.191,-250.86 533.232,-245.337 522.72,-244.016 524.191,-250.86"/>
</g>
<!-- 3&#45;&gt;14 -->
<g id="edge18" class="edge"><title>3&#45;&gt;14</title>
<path fill="none" stroke="black" d="M813.394,-1008.74C900.115,-974.843 1093.13,-888.587 1203,-756 1249.58,-699.793 1261.29,-682 1282,-612 1288,-591.724 1291.01,-567.952 1292.51,-550.08"/>
<polygon fill="black" stroke="black" points="1296.01,-550.285 1293.25,-540.054 1289.03,-549.77 1296.01,-550.285"/>
</g>
<!-- 5 -->
<g id="node6" class="node"><title>5</title>
<ellipse fill="none" stroke="black" cx="655" cy="-882" rx="191.125" ry="18"/>
<text text-anchor="middle" x="655" y="-878.3" font-family="Times,serif" font-size="14.00">Working on graphs with named edges and vertices</text>
</g>
<!-- 4&#45;&gt;5 -->
<g id="edge19" class="edge"><title>4&#45;&gt;5</title>
<path fill="none" stroke="black" d="M673.82,-935.697C671.005,-927.813 667.609,-918.304 664.481,-909.546"/>
<polygon fill="black" stroke="black" points="667.768,-908.345 661.109,-900.104 661.176,-910.699 667.768,-908.345"/>
</g>
<!-- 4&#45;&gt;6 -->
<g id="edge20" class="edge"><title>4&#45;&gt;6</title>
<path fill="none" stroke="black" d="M776.565,-938.854C804.271,-931.029 832.923,-918.876 855,-900 873.77,-883.951 885.026,-857.82 891.284,-838.014"/>
<polygon fill="black" stroke="black" points="894.671,-838.901 894.114,-828.32 887.952,-836.939 894.671,-838.901"/>
</g>
<!-- 4&#45;&gt;10 -->
<g id="edge21" class="edge"><title>4&#45;&gt;10</title>
<path fill="none" stroke="black" d="M582.8,-938.851C542.095,-930.723 495.034,-918.364 455,-900 365.269,-858.84 132,-693.721 132,-595 132,-595 132,-595 132,-521 132,-392.285 193.358,-353.771 304,-288 339.312,-267.009 434.644,-253.298 515.56,-245.091"/>
<polygon fill="black" stroke="black" points="516.252,-248.54 525.857,-244.069 515.56,-241.574 516.252,-248.54"/>
</g>
<!-- 4&#45;&gt;14 -->
<g id="edge22" class="edge"><title>4&#45;&gt;14</title>
<path fill="none" stroke="black" d="M765.143,-938.108C850.786,-920.628 984.61,-886.348 1088,-828 1093.46,-824.917 1170.97,-760.804 1175,-756 1229.99,-690.517 1268.46,-595.338 1284.97,-549.553"/>
<polygon fill="black" stroke="black" points="1288.29,-550.641 1288.33,-540.046 1281.69,-548.305 1288.29,-550.641"/>
</g>
<!-- 5&#45;&gt;6 -->
<g id="edge23" class="edge"><title>5&#45;&gt;6</title>
<path fill="none" stroke="black" d="M711.36,-864.765C747.783,-854.272 795.294,-840.586 833.265,-829.648"/>
<polygon fill="black" stroke="black" points="834.561,-832.917 843.201,-826.786 832.623,-826.191 834.561,-832.917"/>
</g>
<!-- 5&#45;&gt;10 -->
<g id="edge24" class="edge"><title>5&#45;&gt;10</title>
<path fill="none" stroke="black" d="M560.409,-866.302C484.685,-850.339 379.651,-818.27 308,-756 253.379,-708.53 249.399,-682.244 232,-612 200.212,-483.667 230.388,-382.386 346,-288 372.322,-266.511 447.952,-253.224 516.556,-245.329"/>
<polygon fill="black" stroke="black" points="517.072,-248.793 526.621,-244.203 516.293,-241.836 517.072,-248.793"/>
</g>
<!-- 5&#45;&gt;14 -->
<g id="edge25" class="edge"><title>5&#45;&gt;14</title>
<path fill="none" stroke="black" d="M798.669,-870.098C893.208,-861.352 1007.42,-847.333 1052,-828 1075.18,-817.946 1075.89,-807.295 1096,-792 1118.08,-775.205 1128.42,-776.606 1147,-756 1208.43,-687.872 1195.22,-651.027 1248,-576 1254.87,-566.234 1263.22,-556.179 1270.91,-547.486"/>
<polygon fill="black" stroke="black" points="1273.63,-549.702 1277.73,-539.934 1268.43,-545.012 1273.63,-549.702"/>
</g>
<!-- 6&#45;&gt;2 -->
<g id="edge27" class="edge"><title>6&#45;&gt;2</title>
<path fill="none" stroke="black" d="M912.481,-827.927C940.391,-869.761 992.545,-979.306 940,-1044 922.481,-1065.57 862.71,-1078.67 804.644,-1086.45"/>
<polygon fill="black" stroke="black" points="804.062,-1083 794.592,-1087.75 804.958,-1089.94 804.062,-1083"/>
</g>
<!-- 7 -->
<g id="node8" class="node"><title>7</title>
<ellipse fill="none" stroke="black" cx="712" cy="-738" rx="157.404" ry="18"/>
<text text-anchor="middle" x="712" y="-734.3" font-family="Times,serif" font-size="14.00">Working on graphs with bundled vertices</text>
</g>
<!-- 6&#45;&gt;7 -->
<g id="edge26" class="edge"><title>6&#45;&gt;7</title>
<path fill="none" stroke="black" d="M854.86,-792.765C828.056,-782.677 793.407,-769.637 764.945,-758.925"/>
<polygon fill="black" stroke="black" points="766.142,-755.636 755.55,-755.39 763.676,-762.188 766.142,-755.636"/>
</g>
<!-- 8 -->
<g id="node9" class="node"><title>8</title>
<ellipse fill="none" stroke="black" cx="729" cy="-666" rx="182.926" ry="18"/>
<text text-anchor="middle" x="729" y="-662.3" font-family="Times,serif" font-size="14.00">Building graphs with bundled edges and vertices</text>
</g>
<!-- 6&#45;&gt;8 -->
<g id="edge28" class="edge"><title>6&#45;&gt;8</title>
<path fill="none" stroke="black" d="M898.79,-791.74C898.744,-772.02 895.644,-739.914 878,-720 864.01,-704.211 844.997,-693.126 825.235,-685.342"/>
<polygon fill="black" stroke="black" points="826.401,-682.042 815.807,-681.887 823.992,-688.614 826.401,-682.042"/>
</g>
<!-- 6&#45;&gt;10 -->
<g id="edge29" class="edge"><title>6&#45;&gt;10</title>
<path fill="none" stroke="black" d="M756.384,-805.826C608.513,-794.369 398,-750.871 398,-595 398,-595 398,-595 398,-377 398,-305 479.32,-268.655 548.688,-250.882"/>
<polygon fill="black" stroke="black" points="549.949,-254.176 558.825,-248.392 548.279,-247.378 549.949,-254.176"/>
</g>
<!-- 6&#45;&gt;14 -->
<g id="edge30" class="edge"><title>6&#45;&gt;14</title>
<path fill="none" stroke="black" d="M1001.42,-797.35C1034.37,-789.639 1069.37,-776.924 1097,-756 1170.65,-700.218 1136.95,-642.592 1201,-576 1212.88,-563.65 1228.19,-552.901 1243.01,-544.372"/>
<polygon fill="black" stroke="black" points="1245.06,-547.239 1252.14,-539.354 1241.69,-541.105 1245.06,-547.239"/>
</g>
<!-- 7&#45;&gt;2 -->
<g id="edge31" class="edge"><title>7&#45;&gt;2</title>
<path fill="none" stroke="black" d="M604.501,-751.226C527.005,-766.724 436,-801.787 436,-881 436,-955 436,-955 436,-955 436,-1026.97 516.593,-1063.16 584.761,-1080.9"/>
<polygon fill="black" stroke="black" points="584.167,-1084.36 594.717,-1083.39 585.863,-1077.57 584.167,-1084.36"/>
</g>
<!-- 7&#45;&gt;8 -->
<g id="edge32" class="edge"><title>7&#45;&gt;8</title>
<path fill="none" stroke="black" d="M716.202,-719.697C718.096,-711.898 720.377,-702.509 722.484,-693.829"/>
<polygon fill="black" stroke="black" points="725.887,-694.648 724.846,-684.104 719.085,-692.996 725.887,-694.648"/>
</g>
<!-- 7&#45;&gt;10 -->
<g id="edge33" class="edge"><title>7&#45;&gt;10</title>
<path fill="none" stroke="black" d="M629.47,-722.592C570.346,-707.029 497.088,-675.355 473,-612 421.022,-475.287 560.08,-317.948 619.53,-258.967"/>
<polygon fill="black" stroke="black" points="622.002,-261.445 626.7,-251.948 617.106,-256.443 622.002,-261.445"/>
</g>
<!-- 7&#45;&gt;14 -->
<g id="edge34" class="edge"><title>7&#45;&gt;14</title>
<path fill="none" stroke="black" d="M785.049,-721.979C825.636,-712.764 876.729,-699.72 921,-684 1028.56,-645.807 1048.78,-620.234 1154,-576 1181.94,-564.256 1213.47,-552.215 1239.52,-542.583"/>
<polygon fill="black" stroke="black" points="1241.05,-545.753 1249.22,-539.016 1238.63,-539.183 1241.05,-545.753"/>
</g>
<!-- 8&#45;&gt;2 -->
<g id="edge36" class="edge"><title>8&#45;&gt;2</title>
<path fill="none" stroke="black" d="M797.24,-682.776C943.876,-719.943 1267.5,-821.372 1162,-972 1119.78,-1032.27 921.113,-1067.54 791.792,-1084.49"/>
<polygon fill="black" stroke="black" points="791.299,-1081.02 781.83,-1085.78 792.196,-1087.97 791.299,-1081.02"/>
</g>
<!-- 9 -->
<g id="node10" class="node"><title>9</title>
<ellipse fill="none" stroke="black" cx="678" cy="-594" rx="195.449" ry="18"/>
<text text-anchor="middle" x="678" y="-590.3" font-family="Times,serif" font-size="14.00">Working on graphs with bundled edges and vertices</text>
</g>
<!-- 8&#45;&gt;9 -->
<g id="edge35" class="edge"><title>8&#45;&gt;9</title>
<path fill="none" stroke="black" d="M710.776,-648.055C703.917,-639.837 696.38,-629.791 690.163,-620.66"/>
<polygon fill="black" stroke="black" points="693.08,-618.724 684.673,-612.275 687.223,-622.559 693.08,-618.724"/>
</g>
<!-- 8&#45;&gt;10 -->
<g id="edge37" class="edge"><title>8&#45;&gt;10</title>
<path fill="none" stroke="black" d="M826.832,-650.711C848.379,-642.816 868.713,-630.664 882,-612 891.279,-598.966 890.182,-589.75 882,-576 830.54,-489.523 741.274,-550.04 683,-468 659.796,-435.333 649.87,-316.642 646.475,-262.392"/>
<polygon fill="black" stroke="black" points="649.953,-261.92 645.864,-252.146 642.966,-262.337 649.953,-261.92"/>
</g>
<!-- 8&#45;&gt;14 -->
<g id="edge38" class="edge"><title>8&#45;&gt;14</title>
<path fill="none" stroke="black" d="M792.441,-649.056C898.917,-622.295 1112.79,-568.544 1223.69,-540.67"/>
<polygon fill="black" stroke="black" points="1224.6,-544.051 1233.45,-538.219 1222.89,-537.262 1224.6,-544.051"/>
</g>
<!-- 9&#45;&gt;2 -->
<g id="edge39" class="edge"><title>9&#45;&gt;2</title>
<path fill="none" stroke="black" d="M608.538,-610.897C584.013,-619.01 557.471,-630.898 537,-648 442.522,-726.932 413.512,-777.182 422,-900 426.514,-965.31 405.51,-998.938 453,-1044 470.979,-1061.06 523.986,-1074 574.036,-1082.81"/>
<polygon fill="black" stroke="black" points="573.547,-1086.28 583.995,-1084.52 574.731,-1079.38 573.547,-1086.28"/>
</g>
<!-- 9&#45;&gt;8 -->
<g id="edge40" class="edge"><title>9&#45;&gt;8</title>
<path fill="none" stroke="black" d="M696.357,-612.104C703.115,-620.214 710.517,-630.076 716.658,-639.078"/>
<polygon fill="black" stroke="black" points="713.899,-641.253 722.309,-647.697 719.753,-637.415 713.899,-641.253"/>
</g>
<!-- 9&#45;&gt;10 -->
<g id="edge41" class="edge"><title>9&#45;&gt;10</title>
<path fill="none" stroke="black" d="M667.226,-575.813C651.994,-549.828 626,-498.519 626,-451 626,-451 626,-451 626,-377 626,-336.86 633.551,-290.897 639.132,-262.405"/>
<polygon fill="black" stroke="black" points="642.606,-262.883 641.155,-252.388 635.745,-261.498 642.606,-262.883"/>
</g>
<!-- 9&#45;&gt;14 -->
<g id="edge42" class="edge"><title>9&#45;&gt;14</title>
<path fill="none" stroke="black" d="M795.678,-579.627C907.768,-566.89 1075.17,-547.867 1184.47,-535.446"/>
<polygon fill="black" stroke="black" points="1185,-538.909 1194.54,-534.303 1184.21,-531.954 1185,-538.909"/>
</g>
<!-- 10&#45;&gt;2 -->
<g id="edge44" class="edge"><title>10&#45;&gt;2</title>
<path fill="none" stroke="black" d="M517.715,-242.349C354.941,-255.204 94,-289.364 94,-377 94,-955 94,-955 94,-955 94,-1011.26 133.161,-1019.92 184,-1044 244.254,-1072.54 410.015,-1085.87 533.033,-1091.99"/>
<polygon fill="black" stroke="black" points="533.145,-1095.5 543.303,-1092.49 533.485,-1088.51 533.145,-1095.5"/>
</g>
<!-- 10&#45;&gt;6 -->
<g id="edge45" class="edge"><title>10&#45;&gt;6</title>
<path fill="none" stroke="black" d="M569.124,-249.292C502.407,-266.449 416,-302.783 416,-377 416,-595 416,-595 416,-595 416,-743.358 606.71,-789.915 748.24,-803.937"/>
<polygon fill="black" stroke="black" points="748.057,-807.435 758.342,-804.891 748.715,-800.466 748.057,-807.435"/>
</g>
<!-- 11 -->
<g id="node12" class="node"><title>11</title>
<ellipse fill="none" stroke="black" cx="1310" cy="-162" rx="155.005" ry="18"/>
<text text-anchor="middle" x="1310" y="-158.3" font-family="Times,serif" font-size="14.00">Working on graphs with custom vertices</text>
</g>
<!-- 10&#45;&gt;11 -->
<g id="edge43" class="edge"><title>10&#45;&gt;11</title>
<path fill="none" stroke="black" d="M751.107,-221.831C870.532,-209.26 1064.16,-188.878 1189.27,-175.708"/>
<polygon fill="black" stroke="black" points="1189.71,-179.182 1199.29,-174.654 1188.97,-172.22 1189.71,-179.182"/>
</g>
<!-- 12 -->
<g id="node13" class="node"><title>12</title>
<ellipse fill="none" stroke="black" cx="645" cy="-90" rx="180.526" ry="18"/>
<text text-anchor="middle" x="645" y="-86.3" font-family="Times,serif" font-size="14.00">Building graphs with custom edges and vertices</text>
</g>
<!-- 10&#45;&gt;12 -->
<g id="edge46" class="edge"><title>10&#45;&gt;12</title>
<path fill="none" stroke="black" d="M645,-215.871C645,-191.67 645,-147.211 645,-118.393"/>
<polygon fill="black" stroke="black" points="648.5,-118.189 645,-108.189 641.5,-118.189 648.5,-118.189"/>
</g>
<!-- 10&#45;&gt;14 -->
<g id="edge47" class="edge"><title>10&#45;&gt;14</title>
<path fill="none" stroke="black" d="M787.143,-236.376C887.082,-240.58 1022.74,-253.084 1137,-288 1202.78,-308.103 1233.33,-304.524 1274,-360 1303.02,-399.581 1306.07,-459.083 1302.23,-493.578"/>
<polygon fill="black" stroke="black" points="1298.71,-493.448 1300.76,-503.843 1305.64,-494.438 1298.71,-493.448"/>
</g>
<!-- 11&#45;&gt;6 -->
<g id="edge48" class="edge"><title>11&#45;&gt;6</title>
<path fill="none" stroke="black" d="M1328.24,-180.2C1337.66,-189.935 1348.68,-202.783 1356,-216 1427.95,-345.95 1499.67,-404.866 1438,-540 1362.38,-705.699 1140.32,-770.409 1005.67,-794.872"/>
<polygon fill="black" stroke="black" points="1004.96,-791.442 995.725,-796.634 1006.18,-798.335 1004.96,-791.442"/>
</g>
<!-- 11&#45;&gt;12 -->
<g id="edge49" class="edge"><title>11&#45;&gt;12</title>
<path fill="none" stroke="black" d="M1199.44,-149.362C1082.51,-137.054 898.192,-117.652 774.533,-104.635"/>
<polygon fill="black" stroke="black" points="774.562,-101.119 764.251,-103.553 773.829,-108.08 774.562,-101.119"/>
</g>
<!-- 13 -->
<g id="node14" class="node"><title>13</title>
<ellipse fill="none" stroke="black" cx="645" cy="-18" rx="193.049" ry="18"/>
<text text-anchor="middle" x="645" y="-14.3" font-family="Times,serif" font-size="14.00">Working on graphs with custom edges and vertices</text>
</g>
<!-- 11&#45;&gt;13 -->
<g id="edge51" class="edge"><title>11&#45;&gt;13</title>
<path fill="none" stroke="black" d="M1239.46,-145.938C1115.83,-119.538 860.599,-65.0377 728.419,-36.8128"/>
<polygon fill="black" stroke="black" points="728.854,-33.3268 718.344,-34.6613 727.392,-40.1725 728.854,-33.3268"/>
</g>
<!-- 11&#45;&gt;14 -->
<g id="edge50" class="edge"><title>11&#45;&gt;14</title>
<path fill="none" stroke="black" d="M1318.85,-180.117C1342.33,-228 1401.29,-366.455 1355,-468 1349.63,-479.785 1340.2,-489.963 1330.33,-498.16"/>
<polygon fill="black" stroke="black" points="1328.16,-495.413 1322.4,-504.302 1332.45,-500.948 1328.16,-495.413"/>
</g>
<!-- 12&#45;&gt;2 -->
<g id="edge53" class="edge"><title>12&#45;&gt;2</title>
<path fill="none" stroke="black" d="M480.737,-97.4704C300.971,-109.15 38,-141.819 38,-233 38,-955 38,-955 38,-955 38,-1004.25 61.0792,-1019.86 104,-1044 173.848,-1083.29 380.957,-1094.16 526.246,-1096.8"/>
<polygon fill="black" stroke="black" points="526.54,-1100.3 536.598,-1096.97 526.659,-1093.3 526.54,-1100.3"/>
</g>
<!-- 12&#45;&gt;6 -->
<g id="edge54" class="edge"><title>12&#45;&gt;6</title>
<path fill="none" stroke="black" d="M614.454,-107.78C552.684,-143.975 416.074,-236.223 384,-360 347.724,-499.992 353.863,-552.481 414,-684 430.745,-720.622 434.068,-735.967 469,-756 516.102,-783.012 647.029,-796.421 751.964,-802.975"/>
<polygon fill="black" stroke="black" points="751.84,-806.473 762.034,-803.588 752.265,-799.486 751.84,-806.473"/>
</g>
<!-- 12&#45;&gt;13 -->
<g id="edge52" class="edge"><title>12&#45;&gt;13</title>
<path fill="none" stroke="black" d="M645,-71.6966C645,-63.9827 645,-54.7125 645,-46.1124"/>
<polygon fill="black" stroke="black" points="648.5,-46.1043 645,-36.1043 641.5,-46.1044 648.5,-46.1043"/>
</g>
<!-- 12&#45;&gt;14 -->
<g id="edge55" class="edge"><title>12&#45;&gt;14</title>
<path fill="none" stroke="black" d="M709.49,-106.833C816.115,-134.513 1034.05,-197.499 1202,-288 1248.64,-313.131 1266.95,-316.366 1297,-360 1324.73,-400.274 1328.32,-420.202 1318,-468 1316.04,-477.084 1312.39,-486.483 1308.51,-494.799"/>
<polygon fill="black" stroke="black" points="1305.27,-493.466 1303.95,-503.978 1311.54,-496.58 1305.27,-493.466"/>
</g>
<!-- 13&#45;&gt;2 -->
<g id="edge56" class="edge"><title>13&#45;&gt;2</title>
<path fill="none" stroke="black" d="M462.755,-23.9777C272.021,-34.2832 0,-65.6882 0,-161 0,-955 0,-955 0,-955 0,-1000.59 12.5538,-1019.5 51,-1044 90.6869,-1069.29 361.029,-1084.55 533.531,-1091.82"/>
<polygon fill="black" stroke="black" points="533.583,-1095.33 543.721,-1092.25 533.875,-1088.33 533.583,-1095.33"/>
</g>
<!-- 13&#45;&gt;6 -->
<g id="edge57" class="edge"><title>13&#45;&gt;6</title>
<path fill="none" stroke="black" d="M534.162,-32.7573C404.696,-51.9949 208,-92.495 208,-161 208,-307 208,-307 208,-307 208,-529.027 245.593,-627.985 427,-756 476.731,-791.094 626.275,-803.327 743.663,-807.401"/>
<polygon fill="black" stroke="black" points="743.732,-810.905 753.842,-807.737 743.963,-803.909 743.732,-810.905"/>
</g>
<!-- 13&#45;&gt;14 -->
<g id="edge58" class="edge"><title>13&#45;&gt;14</title>
<path fill="none" stroke="black" d="M796.605,-29.1778C1040.52,-47.6127 1493,-91.2153 1493,-161 1493,-235 1493,-235 1493,-235 1493,-351.078 1452.42,-381.508 1375,-468 1364.06,-480.224 1349.68,-490.831 1336.09,-499.278"/>
<polygon fill="black" stroke="black" points="1334.1,-496.386 1327.31,-504.512 1337.69,-502.398 1334.1,-496.386"/>
</g>
<!-- 14&#45;&gt;2 -->
<g id="edge60" class="edge"><title>14&#45;&gt;2</title>
<path fill="none" stroke="black" d="M1310.8,-540.159C1329.51,-566.108 1356,-617.372 1356,-665 1356,-883 1356,-883 1356,-883 1356,-985.46 1283.75,-1000.46 1191,-1044 1128.43,-1073.37 952.816,-1086.66 824.405,-1092.53"/>
<polygon fill="black" stroke="black" points="823.913,-1089.05 814.08,-1093 824.226,-1096.05 823.913,-1089.05"/>
</g>
<!-- 14&#45;&gt;6 -->
<g id="edge61" class="edge"><title>14&#45;&gt;6</title>
<path fill="none" stroke="black" d="M1267.5,-539.815C1252.05,-548.929 1233.1,-561.335 1219,-576 1154.95,-642.592 1188.65,-700.218 1115,-756 1088.35,-776.185 1054.83,-788.732 1022.14,-796.515"/>
<polygon fill="black" stroke="black" points="1021.03,-793.178 1012.03,-798.78 1022.56,-800.009 1021.03,-793.178"/>
</g>
<!-- 14&#45;&gt;10 -->
<g id="edge62" class="edge"><title>14&#45;&gt;10</title>
<path fill="none" stroke="black" d="M1290.3,-503.843C1288.43,-472.195 1288.16,-403.865 1256,-360 1215.33,-304.524 1184.78,-308.103 1119,-288 1014.02,-255.917 890.957,-242.756 796.51,-237.571"/>
<polygon fill="black" stroke="black" points="796.472,-234.064 786.302,-237.035 796.105,-241.054 796.472,-234.064"/>
</g>
<!-- 15 -->
<g id="node16" class="node"><title>15</title>
<ellipse fill="none" stroke="black" cx="840" cy="-450" rx="148.28" ry="18"/>
<text text-anchor="middle" x="840" y="-446.3" font-family="Times,serif" font-size="14.00">Working on graphs with a graph name</text>
</g>
<!-- 14&#45;&gt;15 -->
<g id="edge59" class="edge"><title>14&#45;&gt;15</title>
<path fill="none" stroke="black" d="M1209.14,-507.916C1132.23,-496.057 1018.88,-478.581 938.108,-466.127"/>
<polygon fill="black" stroke="black" points="938.345,-462.622 927.928,-464.557 937.278,-469.54 938.345,-462.622"/>
</g>
<!-- 16 -->
<g id="node17" class="node"><title>16</title>
<ellipse fill="none" stroke="black" cx="1083" cy="-378" rx="173.302" ry="18"/>
<text text-anchor="middle" x="1083" y="-374.3" font-family="Times,serif" font-size="14.00">Building graphs with custom graph properties</text>
</g>
<!-- 14&#45;&gt;16 -->
<g id="edge63" class="edge"><title>14&#45;&gt;16</title>
<path fill="none" stroke="black" d="M1268.97,-504.153C1230.98,-478.585 1158.71,-429.951 1116.32,-401.421"/>
<polygon fill="black" stroke="black" points="1118.25,-398.505 1108,-395.825 1114.34,-404.312 1118.25,-398.505"/>
</g>
<!-- 15&#45;&gt;2 -->
<g id="edge65" class="edge"><title>15&#45;&gt;2</title>
<path fill="none" stroke="black" d="M718.67,-460.406C555.073,-480.461 284,-542.968 284,-737 284,-955 284,-955 284,-955 284,-1018.06 464.859,-1060.85 581.505,-1081.9"/>
<polygon fill="black" stroke="black" points="581.077,-1085.37 591.535,-1083.68 582.303,-1078.48 581.077,-1085.37"/>
</g>
<!-- 15&#45;&gt;6 -->
<g id="edge66" class="edge"><title>15&#45;&gt;6</title>
<path fill="none" stroke="black" d="M874.467,-467.54C915.342,-489.842 978,-533.7 978,-593 978,-667 978,-667 978,-667 978,-712.901 945.877,-757.648 922.342,-784.273"/>
<polygon fill="black" stroke="black" points="919.508,-782.186 915.359,-791.935 924.682,-786.902 919.508,-782.186"/>
</g>
<!-- 15&#45;&gt;10 -->
<g id="edge67" class="edge"><title>15&#45;&gt;10</title>
<path fill="none" stroke="black" d="M823.144,-431.888C799.807,-408.063 756.517,-363.385 721,-324 701.766,-302.671 680.602,-277.762 665.503,-259.729"/>
<polygon fill="black" stroke="black" points="668.117,-257.398 659.021,-251.965 662.743,-261.885 668.117,-257.398"/>
</g>
<!-- 15&#45;&gt;16 -->
<g id="edge64" class="edge"><title>15&#45;&gt;16</title>
<path fill="none" stroke="black" d="M894.837,-433.203C931.073,-422.765 978.768,-409.026 1017.07,-397.992"/>
<polygon fill="black" stroke="black" points="1018.46,-401.234 1027.1,-395.103 1016.52,-394.508 1018.46,-401.234"/>
</g>
<!-- 16&#45;&gt;2 -->
<g id="edge69" class="edge"><title>16&#45;&gt;2</title>
<path fill="none" stroke="black" d="M1092.74,-396.32C1106.51,-422.475 1130,-473.998 1130,-521 1130,-595 1130,-595 1130,-595 1130,-681.253 1233.12,-886.931 1185,-972 1156.96,-1021.57 1132.22,-1023.72 1079,-1044 999.085,-1074.45 904.456,-1087.92 827.197,-1093.68"/>
<polygon fill="black" stroke="black" points="826.626,-1090.21 816.898,-1094.41 827.121,-1097.19 826.626,-1090.21"/>
</g>
<!-- 16&#45;&gt;6 -->
<g id="edge70" class="edge"><title>16&#45;&gt;6</title>
<path fill="none" stroke="black" d="M1084.78,-396.027C1087.4,-422.657 1092,-475.795 1092,-521 1092,-667 1092,-667 1092,-667 1092,-731.412 1021.5,-769.768 965.501,-790.076"/>
<polygon fill="black" stroke="black" points="964.226,-786.813 955.944,-793.42 966.538,-793.421 964.226,-786.813"/>
</g>
<!-- 16&#45;&gt;10 -->
<g id="edge71" class="edge"><title>16&#45;&gt;10</title>
<path fill="none" stroke="black" d="M1096.78,-359.855C1110.79,-340.243 1128.06,-308.238 1110,-288 1088.58,-264.004 915.775,-249.416 787.04,-241.778"/>
<polygon fill="black" stroke="black" points="786.87,-238.262 776.682,-241.173 786.461,-245.251 786.87,-238.262"/>
</g>
<!-- 17 -->
<g id="node18" class="node"><title>17</title>
<ellipse fill="none" stroke="black" cx="916" cy="-306" rx="185.326" ry="18"/>
<text text-anchor="middle" x="916" y="-302.3" font-family="Times,serif" font-size="14.00">Working on graphs with custom graph properties</text>
</g>
<!-- 16&#45;&gt;17 -->
<g id="edge68" class="edge"><title>16&#45;&gt;17</title>
<path fill="none" stroke="black" d="M1043.42,-360.411C1019.9,-350.552 989.884,-337.969 964.89,-327.493"/>
<polygon fill="black" stroke="black" points="966.157,-324.229 955.582,-323.591 963.451,-330.685 966.157,-324.229"/>
</g>
<!-- 17&#45;&gt;2 -->
<g id="edge72" class="edge"><title>17&#45;&gt;2</title>
<path fill="none" stroke="black" d="M844.695,-322.709C651.43,-369.916 132,-529.489 132,-881 132,-955 132,-955 132,-955 132,-1039.78 381.709,-1074.84 543.385,-1088.65"/>
<polygon fill="black" stroke="black" points="543.164,-1092.14 553.421,-1089.49 543.748,-1085.16 543.164,-1092.14"/>
</g>
<!-- 17&#45;&gt;6 -->
<g id="edge73" class="edge"><title>17&#45;&gt;6</title>
<path fill="none" stroke="black" d="M906.115,-323.987C896.4,-343.16 885.03,-374.477 900,-396 926.257,-433.751 966.926,-397.213 997,-432 1023.45,-462.598 1016,-480.553 1016,-521 1016,-667 1016,-667 1016,-667 1016,-718.712 969.138,-761.641 934.477,-786.32"/>
<polygon fill="black" stroke="black" points="932.206,-783.634 925.964,-792.195 936.183,-789.396 932.206,-783.634"/>
</g>
<!-- 17&#45;&gt;10 -->
<g id="edge74" class="edge"><title>17&#45;&gt;10</title>
<path fill="none" stroke="black" d="M854.167,-289.028C812.573,-278.284 757.672,-264.104 714.554,-252.966"/>
<polygon fill="black" stroke="black" points="715.262,-249.534 704.705,-250.422 713.512,-256.312 715.262,-249.534"/>
</g>
</g>
</svg>
