<?xml version="1.0" encoding="UTF-8" standalone="no"?>
<!DOCTYPE svg PUBLIC "-//W3C//DTD SVG 1.1//EN"
 "http://www.w3.org/Graphics/SVG/1.1/DTD/svg11.dtd">
<!-- Generated by graphviz version 2.36.0 (20140111.2315)
 -->
<!-- Title: G Pages: 1 -->
<svg width="282pt" height="492pt"
 viewBox="0.00 0.00 282.00 492.00" xmlns="http://www.w3.org/2000/svg" xmlns:xlink="http://www.w3.org/1999/xlink">
<g id="graph0" class="graph" transform="scale(1 1) rotate(0) translate(4 488)">
<title>G</title>
<polygon fill="white" stroke="none" points="-4,4 -4,-488 278,-488 278,4 -4,4"/>
<!-- 0 -->
<!-- Yellow$$$SPACE$$$thing -->
<g id="node1" class="node"><title>0</title>
<ellipse fill="none" stroke="black" cx="108" cy="-412" rx="36" ry="72"/>
<text text-anchor="middle" x="108" y="-408.3" font-family="Times,serif" font-size="14.00">Sunny</text>
</g>
<!-- 0&#45;&gt;0 -->
<!-- 20% -->
<g id="edge1" class="edge"><title>0&#45;&gt;0</title>
<path fill="none" stroke="black" d="M143.058,-430.347C153.689,-429.887 162,-423.771 162,-412 162,-404.275 158.421,-398.986 152.956,-396.132"/>
<polygon fill="black" stroke="black" points="153.608,-392.688 143.058,-393.653 151.908,-399.478 153.608,-392.688"/>
<text text-anchor="middle" x="193" y="-408.3" font-family="Times,serif" font-size="14.00">Sometimes</text>
</g>
<!-- 1 -->
<!-- Grey$$$SPACE$$$things -->
<g id="node2" class="node"><title>1</title>
<ellipse fill="none" stroke="black" cx="108" cy="-144" rx="108" ry="144"/>
<text text-anchor="middle" x="108" y="-140.3" font-family="Times,serif" font-size="14.00">Rainy</text>
</g>
<!-- 0&#45;&gt;1 -->
<!-- 80% -->
<g id="edge2" class="edge"><title>0&#45;&gt;1</title>
<path fill="none" stroke="black" d="M88.146,-351.671C85.595,-341.862 83.3908,-331.72 82,-322 80.6614,-312.644 80.0084,-303.012 79.8969,-293.3"/>
<polygon fill="black" stroke="black" points="83.3977,-293.185 79.9706,-283.16 76.3979,-293.134 83.3977,-293.185"/>
<text text-anchor="middle" x="97.5" y="-310.3" font-family="Times,serif" font-size="14.00">Often</text>
</g>
<!-- 1&#45;&gt;0 -->
<!-- 10% -->
<g id="edge3" class="edge"><title>1&#45;&gt;0</title>
<path fill="none" stroke="black" d="M113.419,-287.974C113.435,-299.486 113.311,-310.937 113,-322 112.928,-324.572 112.844,-327.185 112.75,-329.823"/>
<polygon fill="black" stroke="black" points="109.242,-329.959 112.343,-340.089 116.237,-330.236 109.242,-329.959"/>
<text text-anchor="middle" x="131.5" y="-310.3" font-family="Times,serif" font-size="14.00">Rarely</text>
</g>
<!-- 1&#45;&gt;1 -->
<!-- 90% -->
<g id="edge4" class="edge"><title>1&#45;&gt;1</title>
<path fill="none" stroke="black" d="M214.17,-171.011C226.202,-165.953 234,-156.949 234,-144 234,-134.693 229.971,-127.424 223.238,-122.193"/>
<polygon fill="black" stroke="black" points="224.585,-118.931 214.17,-116.989 221.101,-125.002 224.585,-118.931"/>
<text text-anchor="middle" x="254" y="-140.3" font-family="Times,serif" font-size="14.00">Mostly</text>
</g>
</g>
</svg>
