<?xml version="1.0" encoding="UTF-8" standalone="no"?>
<!DOCTYPE svg PUBLIC "-//W3C//DTD SVG 1.1//EN"
 "http://www.w3.org/Graphics/SVG/1.1/DTD/svg11.dtd">
<!-- Generated by graphviz version 2.38.0 (20140413.2041)
 -->
<!-- Title: G Pages: 1 -->
<svg width="349pt" height="692pt"
 viewBox="0.00 0.00 348.87 692.00" xmlns="http://www.w3.org/2000/svg" xmlns:xlink="http://www.w3.org/1999/xlink">
<g id="graph0" class="graph" transform="scale(1 1) rotate(0) translate(4 688)">
<title>G</title>
<polygon fill="white" stroke="none" points="-4,4 -4,-688 344.869,-688 344.869,4 -4,4"/>
<!-- 0 -->
<g id="node1" class="node"><title>0</title>
<ellipse fill="none" stroke="black" cx="95.4469" cy="-666" rx="38.1938" ry="18"/>
<text text-anchor="middle" x="95.4469" y="-662.3" font-family="Times,serif" font-size="14.00">A,E,0,0</text>
</g>
<!-- 1 -->
<g id="node2" class="node"><title>1</title>
<ellipse fill="none" stroke="black" cx="178.447" cy="-594" rx="52.7911" ry="18"/>
<text text-anchor="middle" x="178.447" y="-590.3" font-family="Times,serif" font-size="14.00">B,D,1.1,1.1</text>
</g>
<!-- 0&#45;&#45;1 -->
<g id="edge1" class="edge"><title>0&#45;&#45;1</title>
<path fill="none" stroke="black" d="M113.457,-649.811C127.093,-638.311 145.773,-622.556 159.608,-610.888"/>
</g>
<!-- 5 -->
<g id="node6" class="node"><title>5</title>
<ellipse fill="none" stroke="black" cx="34.4469" cy="-90" rx="34.394" ry="18"/>
<text text-anchor="middle" x="34.4469" y="-86.3" font-family="Times,serif" font-size="14.00">a,e,0,0</text>
</g>
<!-- 0&#45;&#45;5 -->
<g id="edge6" class="edge"><title>0&#45;&#45;5</title>
<path fill="none" stroke="black" d="M78.6537,-649.772C53.8821,-625.549 10.4469,-575.58 10.4469,-523 10.4469,-523 10.4469,-523 10.4469,-233 10.4469,-187.246 22.711,-134.343 29.7053,-107.893"/>
</g>
<!-- 2 -->
<g id="node3" class="node"><title>2</title>
<ellipse fill="none" stroke="black" cx="259.447" cy="-522" rx="51.9908" ry="18"/>
<text text-anchor="middle" x="259.447" y="-518.3" font-family="Times,serif" font-size="14.00">C,C,2.2,2.2</text>
</g>
<!-- 1&#45;&#45;2 -->
<g id="edge2" class="edge"><title>1&#45;&#45;2</title>
<path fill="none" stroke="black" d="M196.827,-577.116C209.99,-565.741 227.649,-550.479 240.859,-539.064"/>
</g>
<!-- 6 -->
<g id="node7" class="node"><title>6</title>
<ellipse fill="none" stroke="black" cx="175.447" cy="-234" rx="49.2915" ry="18"/>
<text text-anchor="middle" x="175.447" y="-230.3" font-family="Times,serif" font-size="14.00">b,d,3.3,3.3</text>
</g>
<!-- 1&#45;&#45;6 -->
<g id="edge7" class="edge"><title>1&#45;&#45;6</title>
<path fill="none" stroke="black" d="M178.302,-575.733C177.794,-515.115 176.096,-312.44 175.59,-252.094"/>
</g>
<!-- 3 -->
<g id="node4" class="node"><title>3</title>
<ellipse fill="none" stroke="black" cx="259.447" cy="-450" rx="52.7911" ry="18"/>
<text text-anchor="middle" x="259.447" y="-446.3" font-family="Times,serif" font-size="14.00">D,B,3.3,3.3</text>
</g>
<!-- 2&#45;&#45;3 -->
<g id="edge3" class="edge"><title>2&#45;&#45;3</title>
<path fill="none" stroke="black" d="M259.447,-503.697C259.447,-492.846 259.447,-478.917 259.447,-468.104"/>
</g>
<!-- 7 -->
<g id="node8" class="node"><title>7</title>
<ellipse fill="none" stroke="black" cx="96.4469" cy="-18" rx="48.1917" ry="18"/>
<text text-anchor="middle" x="96.4469" y="-14.3" font-family="Times,serif" font-size="14.00">c,c,6.6,6.6</text>
</g>
<!-- 2&#45;&#45;7 -->
<g id="edge8" class="edge"><title>2&#45;&#45;7</title>
<path fill="none" stroke="black" d="M283.803,-505.961C296.918,-496.618 312.248,-483.454 321.447,-468 342.135,-433.244 340.447,-419.447 340.447,-379 340.447,-379 340.447,-379 340.447,-161 340.447,-69.8368 211.641,-36.1843 141.2,-24.5967"/>
</g>
<!-- 4 -->
<g id="node5" class="node"><title>4</title>
<ellipse fill="none" stroke="black" cx="95.4469" cy="-378" rx="51.9908" ry="18"/>
<text text-anchor="middle" x="95.4469" y="-374.3" font-family="Times,serif" font-size="14.00">E,A,4.4,4.4</text>
</g>
<!-- 3&#45;&#45;4 -->
<g id="edge4" class="edge"><title>3&#45;&#45;4</title>
<path fill="none" stroke="black" d="M227.826,-435.503C198.785,-423.108 155.981,-404.838 126.971,-392.455"/>
</g>
<!-- 8 -->
<g id="node9" class="node"><title>8</title>
<ellipse fill="none" stroke="black" cx="175.447" cy="-162" rx="49.2915" ry="18"/>
<text text-anchor="middle" x="175.447" y="-158.3" font-family="Times,serif" font-size="14.00">d,b,9.9,9.9</text>
</g>
<!-- 3&#45;&#45;8 -->
<g id="edge9" class="edge"><title>3&#45;&#45;8</title>
<path fill="none" stroke="black" d="M261.472,-431.754C265.394,-391.475 270.647,-289.094 233.447,-216 225.59,-200.561 211.254,-187.397 198.801,-178.05"/>
</g>
<!-- 4&#45;&#45;0 -->
<g id="edge5" class="edge"><title>4&#45;&#45;0</title>
<path fill="none" stroke="black" d="M95.4469,-396.306C95.4469,-447.407 95.4469,-597.218 95.4469,-647.966"/>
</g>
<!-- 9 -->
<g id="node10" class="node"><title>9</title>
<ellipse fill="none" stroke="black" cx="95.4469" cy="-306" rx="57.3905" ry="18"/>
<text text-anchor="middle" x="95.4469" y="-302.3" font-family="Times,serif" font-size="14.00">e,a,13.2,13.2</text>
</g>
<!-- 4&#45;&#45;9 -->
<g id="edge10" class="edge"><title>4&#45;&#45;9</title>
<path fill="none" stroke="black" d="M95.4469,-359.697C95.4469,-348.846 95.4469,-334.917 95.4469,-324.104"/>
</g>
<!-- 5&#45;&#45;7 -->
<g id="edge11" class="edge"><title>5&#45;&#45;7</title>
<path fill="none" stroke="black" d="M48.2068,-73.4647C58.1958,-62.1868 71.6866,-46.9552 81.8617,-35.4672"/>
</g>
<!-- 6&#45;&#45;8 -->
<g id="edge12" class="edge"><title>6&#45;&#45;8</title>
<path fill="none" stroke="black" d="M175.447,-215.697C175.447,-204.846 175.447,-190.917 175.447,-180.104"/>
</g>
<!-- 7&#45;&#45;9 -->
<g id="edge13" class="edge"><title>7&#45;&#45;9</title>
<path fill="none" stroke="black" d="M96.3864,-36.3065C96.2078,-87.4066 95.6839,-237.218 95.5065,-287.966"/>
</g>
<!-- 8&#45;&#45;5 -->
<g id="edge14" class="edge"><title>8&#45;&#45;5</title>
<path fill="none" stroke="black" d="M147.252,-147.003C121.375,-134.156 83.429,-115.317 58.83,-103.105"/>
</g>
<!-- 9&#45;&#45;6 -->
<g id="edge15" class="edge"><title>9&#45;&#45;6</title>
<path fill="none" stroke="black" d="M114.002,-288.765C127.018,-277.375 144.336,-262.222 157.269,-250.906"/>
</g>
</g>
</svg>
