<?xml version="1.0" encoding="UTF-8" standalone="no"?>
<!DOCTYPE svg PUBLIC "-//W3C//DTD SVG 1.1//EN"
 "http://www.w3.org/Graphics/SVG/1.1/DTD/svg11.dtd">
<!-- Generated by graphviz version 2.38.0 (20140413.2041)
 -->
<!-- Title: G Pages: 1 -->
<svg width="19468pt" height="1162pt"
 viewBox="0.00 0.00 19467.59 1162.21" xmlns="http://www.w3.org/2000/svg" xmlns:xlink="http://www.w3.org/1999/xlink">
<g id="graph0" class="graph" transform="scale(1 1) rotate(0) translate(4 1158.21)">
<title>G</title>
<polygon fill="white" stroke="none" points="-4,4 -4,-1158.21 19463.6,-1158.21 19463.6,4 -4,4"/>
<!-- 0 -->
<g id="node1" class="node"><title>0</title>
<ellipse fill="none" stroke="black" cx="106.591" cy="-620.603" rx="106.681" ry="18"/>
<text text-anchor="middle" x="106.591" y="-616.903" font-family="Times,serif" font-size="14.00">A,BCDEFGHIJKLMN,0,0</text>
</g>
<!-- 1 -->
<g id="node2" class="node"><title>1</title>
<ellipse fill="none" stroke="black" cx="442.591" cy="-620.603" rx="211.762" ry="18"/>
<text text-anchor="middle" x="442.591" y="-616.903" font-family="Times,serif" font-size="14.00">A$$$SPACE$$$B,$$$SPACE$$$C$$$SPACE$$$D,0,0</text>
</g>
<!-- 2 -->
<g id="node3" class="node"><title>2</title>
<ellipse fill="none" stroke="black" cx="1205.59" cy="-620.603" rx="533.705" ry="18"/>
<text text-anchor="middle" x="1205.59" y="-616.903" font-family="Times,serif" font-size="14.00">$$$SPACE$$$A$$$SPACE$$$B$$$SPACE$$$,$$$SPACE$$$$$$SPACE$$$C$$$SPACE$$$$$$SPACE$$$D$$$SPACE$$$$$$SPACE$$$,0,0</text>
</g>
<!-- 3 -->
<g id="node4" class="node"><title>3</title>
<ellipse fill="none" stroke="black" cx="1816.59" cy="-620.603" rx="59.5901" ry="18"/>
<text text-anchor="middle" x="1816.59" y="-616.903" font-family="Times,serif" font-size="14.00">A_B,C_D,0,0</text>
</g>
<!-- 4 -->
<g id="node5" class="node"><title>4</title>
<ellipse fill="none" stroke="black" cx="1945.59" cy="-620.603" rx="51.1914" ry="18"/>
<text text-anchor="middle" x="1945.59" y="-616.903" font-family="Times,serif" font-size="14.00">AB,CD,0,0</text>
</g>
<!-- 5 -->
<g id="node6" class="node"><title>5</title>
<ellipse fill="none" stroke="black" cx="2177.59" cy="-620.603" rx="163.271" ry="18"/>
<text text-anchor="middle" x="2177.59" y="-616.903" font-family="Times,serif" font-size="14.00">A$$$QUOTE$$$B,C$$$QUOTE$$$D,0,0</text>
</g>
<!-- 6 -->
<g id="node7" class="node"><title>6</title>
<ellipse fill="none" stroke="black" cx="2655.59" cy="-620.603" rx="297.047" ry="18"/>
<text text-anchor="middle" x="2655.59" y="-616.903" font-family="Times,serif" font-size="14.00">A$$$COMMA$$$B,$$$COMMA$$$C$$$COMMA$$$D$$$COMMA$$$,0,0</text>
</g>
<!-- 7 -->
<g id="node8" class="node"><title>7</title>
<ellipse fill="none" stroke="black" cx="3155.59" cy="-620.603" rx="184.667" ry="18"/>
<text text-anchor="middle" x="3155.59" y="-616.903" font-family="Times,serif" font-size="14.00">A&lt;B,$$$COMMA$$$C&gt;D$$$COMMA$$$,0,0</text>
</g>
<!-- 8 -->
<g id="node9" class="node"><title>8</title>
<ellipse fill="none" stroke="black" cx="3519.59" cy="-620.603" rx="161.671" ry="18"/>
<text text-anchor="middle" x="3519.59" y="-616.903" font-family="Times,serif" font-size="14.00">A$$$QUOTE$$$];,B$$$QUOTE$$$];,0,0</text>
</g>
<!-- 9 -->
<g id="node10" class="node"><title>9</title>
<ellipse fill="none" stroke="black" cx="3805.59" cy="-620.603" rx="106.681" ry="106.681"/>
<text text-anchor="middle" x="3805.59" y="-616.903" font-family="Times,serif" font-size="14.00">A,BCDEFGHIJKLMN,0,0</text>
</g>
<!-- 10 -->
<g id="node11" class="node"><title>10</title>
<ellipse fill="none" stroke="black" cx="4141.59" cy="-620.603" rx="211.762" ry="211.762"/>
<text text-anchor="middle" x="4141.59" y="-616.903" font-family="Times,serif" font-size="14.00">A$$$SPACE$$$B,$$$SPACE$$$C$$$SPACE$$$D,0,0</text>
</g>
<!-- 11 -->
<g id="node12" class="node"><title>11</title>
<ellipse fill="none" stroke="black" cx="4904.59" cy="-620.603" rx="533.705" ry="533.705"/>
<text text-anchor="middle" x="4904.59" y="-616.903" font-family="Times,serif" font-size="14.00">$$$SPACE$$$A$$$SPACE$$$B$$$SPACE$$$,$$$SPACE$$$$$$SPACE$$$C$$$SPACE$$$$$$SPACE$$$D$$$SPACE$$$$$$SPACE$$$,0,0</text>
</g>
<!-- 12 -->
<g id="node13" class="node"><title>12</title>
<ellipse fill="none" stroke="black" cx="5515.59" cy="-620.603" rx="59.5901" ry="59.5901"/>
<text text-anchor="middle" x="5515.59" y="-616.903" font-family="Times,serif" font-size="14.00">A_B,C_D,0,0</text>
</g>
<!-- 13 -->
<g id="node14" class="node"><title>13</title>
<ellipse fill="none" stroke="black" cx="5644.59" cy="-620.603" rx="51.1914" ry="51.1914"/>
<text text-anchor="middle" x="5644.59" y="-616.903" font-family="Times,serif" font-size="14.00">AB,CD,0,0</text>
</g>
<!-- 14 -->
<g id="node15" class="node"><title>14</title>
<ellipse fill="none" stroke="black" cx="5876.59" cy="-620.603" rx="163.271" ry="163.271"/>
<text text-anchor="middle" x="5876.59" y="-616.903" font-family="Times,serif" font-size="14.00">A$$$QUOTE$$$B,C$$$QUOTE$$$D,0,0</text>
</g>
<!-- 15 -->
<g id="node16" class="node"><title>15</title>
<ellipse fill="none" stroke="black" cx="6354.59" cy="-620.603" rx="297.047" ry="297.047"/>
<text text-anchor="middle" x="6354.59" y="-616.903" font-family="Times,serif" font-size="14.00">A$$$COMMA$$$B,$$$COMMA$$$C$$$COMMA$$$D$$$COMMA$$$,0,0</text>
</g>
<!-- 16 -->
<g id="node17" class="node"><title>16</title>
<ellipse fill="none" stroke="black" cx="6854.59" cy="-620.603" rx="184.667" ry="184.667"/>
<text text-anchor="middle" x="6854.59" y="-616.903" font-family="Times,serif" font-size="14.00">A&lt;B,$$$COMMA$$$C&gt;D$$$COMMA$$$,0,0</text>
</g>
<!-- 17 -->
<g id="node18" class="node"><title>17</title>
<ellipse fill="none" stroke="black" cx="7218.59" cy="-620.603" rx="161.671" ry="161.671"/>
<text text-anchor="middle" x="7218.59" y="-616.903" font-family="Times,serif" font-size="14.00">A$$$QUOTE$$$];,B$$$QUOTE$$$];,0,0</text>
</g>
<!-- 18 -->
<g id="node19" class="node"><title>18</title>
<ellipse fill="none" stroke="black" cx="7504.59" cy="-620.603" rx="106.681" ry="18"/>
<text text-anchor="middle" x="7504.59" y="-616.903" font-family="Times,serif" font-size="14.00">A,BCDEFGHIJKLMN,0,0</text>
</g>
<!-- 19 -->
<g id="node20" class="node"><title>19</title>
<ellipse fill="none" stroke="black" cx="7840.59" cy="-620.603" rx="211.762" ry="18"/>
<text text-anchor="middle" x="7840.59" y="-616.903" font-family="Times,serif" font-size="14.00">A$$$SPACE$$$B,$$$SPACE$$$C$$$SPACE$$$D,0,0</text>
</g>
<!-- 20 -->
<g id="node21" class="node"><title>20</title>
<ellipse fill="none" stroke="black" cx="8603.59" cy="-620.603" rx="533.705" ry="18"/>
<text text-anchor="middle" x="8603.59" y="-616.903" font-family="Times,serif" font-size="14.00">$$$SPACE$$$A$$$SPACE$$$B$$$SPACE$$$,$$$SPACE$$$$$$SPACE$$$C$$$SPACE$$$$$$SPACE$$$D$$$SPACE$$$$$$SPACE$$$,0,0</text>
</g>
<!-- 21 -->
<g id="node22" class="node"><title>21</title>
<ellipse fill="none" stroke="black" cx="9214.59" cy="-620.603" rx="59.5901" ry="18"/>
<text text-anchor="middle" x="9214.59" y="-616.903" font-family="Times,serif" font-size="14.00">A_B,C_D,0,0</text>
</g>
<!-- 22 -->
<g id="node23" class="node"><title>22</title>
<ellipse fill="none" stroke="black" cx="9343.59" cy="-620.603" rx="51.1914" ry="18"/>
<text text-anchor="middle" x="9343.59" y="-616.903" font-family="Times,serif" font-size="14.00">AB,CD,0,0</text>
</g>
<!-- 23 -->
<g id="node24" class="node"><title>23</title>
<ellipse fill="none" stroke="black" cx="9575.59" cy="-620.603" rx="163.271" ry="18"/>
<text text-anchor="middle" x="9575.59" y="-616.903" font-family="Times,serif" font-size="14.00">A$$$QUOTE$$$B,C$$$QUOTE$$$D,0,0</text>
</g>
<!-- 24 -->
<g id="node25" class="node"><title>24</title>
<ellipse fill="none" stroke="black" cx="10053.6" cy="-620.603" rx="297.047" ry="18"/>
<text text-anchor="middle" x="10053.6" y="-616.903" font-family="Times,serif" font-size="14.00">A$$$COMMA$$$B,$$$COMMA$$$C$$$COMMA$$$D$$$COMMA$$$,0,0</text>
</g>
<!-- 25 -->
<g id="node26" class="node"><title>25</title>
<ellipse fill="none" stroke="black" cx="10553.6" cy="-620.603" rx="184.667" ry="18"/>
<text text-anchor="middle" x="10553.6" y="-616.903" font-family="Times,serif" font-size="14.00">A&lt;B,$$$COMMA$$$C&gt;D$$$COMMA$$$,0,0</text>
</g>
<!-- 26 -->
<g id="node27" class="node"><title>26</title>
<ellipse fill="none" stroke="black" cx="10917.6" cy="-620.603" rx="161.671" ry="18"/>
<text text-anchor="middle" x="10917.6" y="-616.903" font-family="Times,serif" font-size="14.00">A$$$QUOTE$$$];,B$$$QUOTE$$$];,0,0</text>
</g>
<!-- 27 -->
<g id="node28" class="node"><title>27</title>
<ellipse fill="none" stroke="black" cx="11124.6" cy="-620.603" rx="27" ry="18"/>
<text text-anchor="middle" x="11124.6" y="-616.903" font-family="Times,serif" font-size="14.00">,,0,0</text>
</g>
<!-- 28 -->
<g id="node29" class="node"><title>28</title>
<ellipse fill="none" stroke="black" cx="11124.6" cy="-18" rx="27" ry="18"/>
<text text-anchor="middle" x="11124.6" y="-14.3" font-family="Times,serif" font-size="14.00">,,0,0</text>
</g>
<!-- 27&#45;&gt;28 -->
<g id="edge1" class="edge"><title>27&#45;&gt;28</title>
<path fill="none" stroke="black" d="M11124.6,-602.595C11124.6,-518.882 11124.6,-150.459 11124.6,-46.4366"/>
<polygon fill="black" stroke="black" points="11128.1,-46.1454 11124.6,-36.1454 11121.1,-46.1454 11128.1,-46.1454"/>
<text text-anchor="middle" x="11198.6" y="-57.8" font-family="Times,serif" font-size="14.00">A,BCDEFGHIJKLMN,1,1</text>
</g>
<!-- 29 -->
<g id="node30" class="node"><title>29</title>
<ellipse fill="none" stroke="black" cx="11295.6" cy="-620.603" rx="27" ry="18"/>
<text text-anchor="middle" x="11295.6" y="-616.903" font-family="Times,serif" font-size="14.00">,,0,0</text>
</g>
<!-- 30 -->
<g id="node31" class="node"><title>30</title>
<ellipse fill="none" stroke="black" cx="11295.6" cy="-18" rx="27" ry="18"/>
<text text-anchor="middle" x="11295.6" y="-14.3" font-family="Times,serif" font-size="14.00">,,0,0</text>
</g>
<!-- 29&#45;&gt;30 -->
<g id="edge2" class="edge"><title>29&#45;&gt;30</title>
<path fill="none" stroke="black" d="M11295.6,-602.595C11295.6,-518.882 11295.6,-150.459 11295.6,-46.4366"/>
<polygon fill="black" stroke="black" points="11299.1,-46.1454 11295.6,-36.1454 11292.1,-46.1454 11299.1,-46.1454"/>
<text text-anchor="middle" x="11450.6" y="-57.8" font-family="Times,serif" font-size="14.00">A$$$SPACE$$$B,$$$SPACE$$$C$$$SPACE$$$D,1,1</text>
</g>
<!-- 31 -->
<g id="node32" class="node"><title>31</title>
<ellipse fill="none" stroke="black" cx="11628.6" cy="-620.603" rx="27" ry="18"/>
<text text-anchor="middle" x="11628.6" y="-616.903" font-family="Times,serif" font-size="14.00">,,0,0</text>
</g>
<!-- 32 -->
<g id="node33" class="node"><title>32</title>
<ellipse fill="none" stroke="black" cx="11628.6" cy="-18" rx="27" ry="18"/>
<text text-anchor="middle" x="11628.6" y="-14.3" font-family="Times,serif" font-size="14.00">,,0,0</text>
</g>
<!-- 31&#45;&gt;32 -->
<g id="edge3" class="edge"><title>31&#45;&gt;32</title>
<path fill="none" stroke="black" d="M11628.6,-602.595C11628.6,-518.882 11628.6,-150.459 11628.6,-46.4366"/>
<polygon fill="black" stroke="black" points="11632.1,-46.1454 11628.6,-36.1454 11625.1,-46.1454 11632.1,-46.1454"/>
<text text-anchor="middle" x="12031.1" y="-57.8" font-family="Times,serif" font-size="14.00">$$$SPACE$$$A$$$SPACE$$$B$$$SPACE$$$,$$$SPACE$$$$$$SPACE$$$C$$$SPACE$$$$$$SPACE$$$D$$$SPACE$$$$$$SPACE$$$,1,1</text>
</g>
<!-- 33 -->
<g id="node34" class="node"><title>33</title>
<ellipse fill="none" stroke="black" cx="12456.6" cy="-620.603" rx="27" ry="18"/>
<text text-anchor="middle" x="12456.6" y="-616.903" font-family="Times,serif" font-size="14.00">,,0,0</text>
</g>
<!-- 34 -->
<g id="node35" class="node"><title>34</title>
<ellipse fill="none" stroke="black" cx="12456.6" cy="-18" rx="27" ry="18"/>
<text text-anchor="middle" x="12456.6" y="-14.3" font-family="Times,serif" font-size="14.00">,,0,0</text>
</g>
<!-- 33&#45;&gt;34 -->
<g id="edge4" class="edge"><title>33&#45;&gt;34</title>
<path fill="none" stroke="black" d="M12456.6,-602.595C12456.6,-518.882 12456.6,-150.459 12456.6,-46.4366"/>
<polygon fill="black" stroke="black" points="12460.1,-46.1454 12456.6,-36.1454 12453.1,-46.1454 12460.1,-46.1454"/>
<text text-anchor="middle" x="12494.6" y="-57.8" font-family="Times,serif" font-size="14.00">A_B,C_D,1,1</text>
</g>
<!-- 35 -->
<g id="node36" class="node"><title>35</title>
<ellipse fill="none" stroke="black" cx="12555.6" cy="-620.603" rx="27" ry="18"/>
<text text-anchor="middle" x="12555.6" y="-616.903" font-family="Times,serif" font-size="14.00">,,0,0</text>
</g>
<!-- 36 -->
<g id="node37" class="node"><title>36</title>
<ellipse fill="none" stroke="black" cx="12555.6" cy="-18" rx="27" ry="18"/>
<text text-anchor="middle" x="12555.6" y="-14.3" font-family="Times,serif" font-size="14.00">,,0,0</text>
</g>
<!-- 35&#45;&gt;36 -->
<g id="edge5" class="edge"><title>35&#45;&gt;36</title>
<path fill="none" stroke="black" d="M12555.6,-602.595C12555.6,-518.882 12555.6,-150.459 12555.6,-46.4366"/>
<polygon fill="black" stroke="black" points="12559.1,-46.1454 12555.6,-36.1454 12552.1,-46.1454 12559.1,-46.1454"/>
<text text-anchor="middle" x="12587.1" y="-57.8" font-family="Times,serif" font-size="14.00">AB,CD,1,1</text>
</g>
<!-- 37 -->
<g id="node38" class="node"><title>37</title>
<ellipse fill="none" stroke="black" cx="12641.6" cy="-620.603" rx="27" ry="18"/>
<text text-anchor="middle" x="12641.6" y="-616.903" font-family="Times,serif" font-size="14.00">,,0,0</text>
</g>
<!-- 38 -->
<g id="node39" class="node"><title>38</title>
<ellipse fill="none" stroke="black" cx="12641.6" cy="-18" rx="27" ry="18"/>
<text text-anchor="middle" x="12641.6" y="-14.3" font-family="Times,serif" font-size="14.00">,,0,0</text>
</g>
<!-- 37&#45;&gt;38 -->
<g id="edge6" class="edge"><title>37&#45;&gt;38</title>
<path fill="none" stroke="black" d="M12641.6,-602.595C12641.6,-518.882 12641.6,-150.459 12641.6,-46.4366"/>
<polygon fill="black" stroke="black" points="12645.1,-46.1454 12641.6,-36.1454 12638.1,-46.1454 12645.1,-46.1454"/>
<text text-anchor="middle" x="12759.1" y="-57.8" font-family="Times,serif" font-size="14.00">A$$$QUOTE$$$B,C$$$QUOTE$$$D,1,1</text>
</g>
<!-- 39 -->
<g id="node40" class="node"><title>39</title>
<ellipse fill="none" stroke="black" cx="12899.6" cy="-620.603" rx="27" ry="18"/>
<text text-anchor="middle" x="12899.6" y="-616.903" font-family="Times,serif" font-size="14.00">,,0,0</text>
</g>
<!-- 40 -->
<g id="node41" class="node"><title>40</title>
<ellipse fill="none" stroke="black" cx="12899.6" cy="-18" rx="27" ry="18"/>
<text text-anchor="middle" x="12899.6" y="-14.3" font-family="Times,serif" font-size="14.00">,,0,0</text>
</g>
<!-- 39&#45;&gt;40 -->
<g id="edge7" class="edge"><title>39&#45;&gt;40</title>
<path fill="none" stroke="black" d="M12899.6,-602.595C12899.6,-518.882 12899.6,-150.459 12899.6,-46.4366"/>
<polygon fill="black" stroke="black" points="12903.1,-46.1454 12899.6,-36.1454 12896.1,-46.1454 12903.1,-46.1454"/>
<text text-anchor="middle" x="13120.1" y="-57.8" font-family="Times,serif" font-size="14.00">A$$$COMMA$$$B,$$$COMMA$$$C$$$COMMA$$$D$$$COMMA$$$,1,1</text>
</g>
<!-- 41 -->
<g id="node42" class="node"><title>41</title>
<ellipse fill="none" stroke="black" cx="13363.6" cy="-620.603" rx="27" ry="18"/>
<text text-anchor="middle" x="13363.6" y="-616.903" font-family="Times,serif" font-size="14.00">,,0,0</text>
</g>
<!-- 42 -->
<g id="node43" class="node"><title>42</title>
<ellipse fill="none" stroke="black" cx="13363.6" cy="-18" rx="27" ry="18"/>
<text text-anchor="middle" x="13363.6" y="-14.3" font-family="Times,serif" font-size="14.00">,,0,0</text>
</g>
<!-- 41&#45;&gt;42 -->
<g id="edge8" class="edge"><title>41&#45;&gt;42</title>
<path fill="none" stroke="black" d="M13363.6,-602.595C13363.6,-518.882 13363.6,-150.459 13363.6,-46.4366"/>
<polygon fill="black" stroke="black" points="13367.1,-46.1454 13363.6,-36.1454 13360.1,-46.1454 13367.1,-46.1454"/>
<text text-anchor="middle" x="13497.6" y="-57.8" font-family="Times,serif" font-size="14.00">A&lt;B,$$$COMMA$$$C&gt;D$$$COMMA$$$,1,1</text>
</g>
<!-- 43 -->
<g id="node44" class="node"><title>43</title>
<ellipse fill="none" stroke="black" cx="13654.6" cy="-620.603" rx="27" ry="18"/>
<text text-anchor="middle" x="13654.6" y="-616.903" font-family="Times,serif" font-size="14.00">,,0,0</text>
</g>
<!-- 44 -->
<g id="node45" class="node"><title>44</title>
<ellipse fill="none" stroke="black" cx="13654.6" cy="-18" rx="27" ry="18"/>
<text text-anchor="middle" x="13654.6" y="-14.3" font-family="Times,serif" font-size="14.00">,,0,0</text>
</g>
<!-- 43&#45;&gt;44 -->
<g id="edge9" class="edge"><title>43&#45;&gt;44</title>
<path fill="none" stroke="black" d="M13654.6,-602.595C13654.6,-518.882 13654.6,-150.459 13654.6,-46.4366"/>
<polygon fill="black" stroke="black" points="13658.1,-46.1454 13654.6,-36.1454 13651.1,-46.1454 13658.1,-46.1454"/>
<text text-anchor="middle" x="13771.1" y="-57.8" font-family="Times,serif" font-size="14.00">A$$$QUOTE$$$];,B$$$QUOTE$$$];,1,1</text>
</g>
<!-- 45 -->
<g id="node46" class="node"><title>45</title>
<ellipse fill="none" stroke="black" cx="13910.6" cy="-620.603" rx="27" ry="18"/>
<text text-anchor="middle" x="13910.6" y="-616.903" font-family="Times,serif" font-size="14.00">,,0,0</text>
</g>
<!-- 46 -->
<g id="node47" class="node"><title>46</title>
<ellipse fill="none" stroke="black" cx="13910.6" cy="-18" rx="27" ry="18"/>
<text text-anchor="middle" x="13910.6" y="-14.3" font-family="Times,serif" font-size="14.00">,,0,0</text>
</g>
<!-- 45&#45;&gt;46 -->
<g id="edge10" class="edge"><title>45&#45;&gt;46</title>
<path fill="none" stroke="black" d="M13910.6,-602.595C13910.6,-518.882 13910.6,-150.459 13910.6,-46.4366"/>
<polygon fill="black" stroke="black" points="13914.1,-46.1454 13910.6,-36.1454 13907.1,-46.1454 13914.1,-46.1454"/>
<text text-anchor="middle" x="13984.6" y="-57.8" font-family="Times,serif" font-size="14.00">A,BCDEFGHIJKLMN,1,1</text>
</g>
<!-- 47 -->
<g id="node48" class="node"><title>47</title>
<ellipse fill="none" stroke="black" cx="14081.6" cy="-620.603" rx="27" ry="18"/>
<text text-anchor="middle" x="14081.6" y="-616.903" font-family="Times,serif" font-size="14.00">,,0,0</text>
</g>
<!-- 48 -->
<g id="node49" class="node"><title>48</title>
<ellipse fill="none" stroke="black" cx="14081.6" cy="-18" rx="27" ry="18"/>
<text text-anchor="middle" x="14081.6" y="-14.3" font-family="Times,serif" font-size="14.00">,,0,0</text>
</g>
<!-- 47&#45;&gt;48 -->
<g id="edge11" class="edge"><title>47&#45;&gt;48</title>
<path fill="none" stroke="black" d="M14081.6,-602.595C14081.6,-518.882 14081.6,-150.459 14081.6,-46.4366"/>
<polygon fill="black" stroke="black" points="14085.1,-46.1454 14081.6,-36.1454 14078.1,-46.1454 14085.1,-46.1454"/>
<text text-anchor="middle" x="14236.6" y="-57.8" font-family="Times,serif" font-size="14.00">A$$$SPACE$$$B,$$$SPACE$$$C$$$SPACE$$$D,1,1</text>
</g>
<!-- 49 -->
<g id="node50" class="node"><title>49</title>
<ellipse fill="none" stroke="black" cx="14414.6" cy="-620.603" rx="27" ry="18"/>
<text text-anchor="middle" x="14414.6" y="-616.903" font-family="Times,serif" font-size="14.00">,,0,0</text>
</g>
<!-- 50 -->
<g id="node51" class="node"><title>50</title>
<ellipse fill="none" stroke="black" cx="14414.6" cy="-18" rx="27" ry="18"/>
<text text-anchor="middle" x="14414.6" y="-14.3" font-family="Times,serif" font-size="14.00">,,0,0</text>
</g>
<!-- 49&#45;&gt;50 -->
<g id="edge12" class="edge"><title>49&#45;&gt;50</title>
<path fill="none" stroke="black" d="M14414.6,-602.595C14414.6,-518.882 14414.6,-150.459 14414.6,-46.4366"/>
<polygon fill="black" stroke="black" points="14418.1,-46.1454 14414.6,-36.1454 14411.1,-46.1454 14418.1,-46.1454"/>
<text text-anchor="middle" x="14817.1" y="-57.8" font-family="Times,serif" font-size="14.00">$$$SPACE$$$A$$$SPACE$$$B$$$SPACE$$$,$$$SPACE$$$$$$SPACE$$$C$$$SPACE$$$$$$SPACE$$$D$$$SPACE$$$$$$SPACE$$$,1,1</text>
</g>
<!-- 51 -->
<g id="node52" class="node"><title>51</title>
<ellipse fill="none" stroke="black" cx="15242.6" cy="-620.603" rx="27" ry="18"/>
<text text-anchor="middle" x="15242.6" y="-616.903" font-family="Times,serif" font-size="14.00">,,0,0</text>
</g>
<!-- 52 -->
<g id="node53" class="node"><title>52</title>
<ellipse fill="none" stroke="black" cx="15242.6" cy="-18" rx="27" ry="18"/>
<text text-anchor="middle" x="15242.6" y="-14.3" font-family="Times,serif" font-size="14.00">,,0,0</text>
</g>
<!-- 51&#45;&gt;52 -->
<g id="edge13" class="edge"><title>51&#45;&gt;52</title>
<path fill="none" stroke="black" d="M15242.6,-602.595C15242.6,-518.882 15242.6,-150.459 15242.6,-46.4366"/>
<polygon fill="black" stroke="black" points="15246.1,-46.1454 15242.6,-36.1454 15239.1,-46.1454 15246.1,-46.1454"/>
<text text-anchor="middle" x="15280.6" y="-57.8" font-family="Times,serif" font-size="14.00">A_B,C_D,1,1</text>
</g>
<!-- 53 -->
<g id="node54" class="node"><title>53</title>
<ellipse fill="none" stroke="black" cx="15341.6" cy="-620.603" rx="27" ry="18"/>
<text text-anchor="middle" x="15341.6" y="-616.903" font-family="Times,serif" font-size="14.00">,,0,0</text>
</g>
<!-- 54 -->
<g id="node55" class="node"><title>54</title>
<ellipse fill="none" stroke="black" cx="15341.6" cy="-18" rx="27" ry="18"/>
<text text-anchor="middle" x="15341.6" y="-14.3" font-family="Times,serif" font-size="14.00">,,0,0</text>
</g>
<!-- 53&#45;&gt;54 -->
<g id="edge14" class="edge"><title>53&#45;&gt;54</title>
<path fill="none" stroke="black" d="M15341.6,-602.595C15341.6,-518.882 15341.6,-150.459 15341.6,-46.4366"/>
<polygon fill="black" stroke="black" points="15345.1,-46.1454 15341.6,-36.1454 15338.1,-46.1454 15345.1,-46.1454"/>
<text text-anchor="middle" x="15373.1" y="-57.8" font-family="Times,serif" font-size="14.00">AB,CD,1,1</text>
</g>
<!-- 55 -->
<g id="node56" class="node"><title>55</title>
<ellipse fill="none" stroke="black" cx="15427.6" cy="-620.603" rx="27" ry="18"/>
<text text-anchor="middle" x="15427.6" y="-616.903" font-family="Times,serif" font-size="14.00">,,0,0</text>
</g>
<!-- 56 -->
<g id="node57" class="node"><title>56</title>
<ellipse fill="none" stroke="black" cx="15427.6" cy="-18" rx="27" ry="18"/>
<text text-anchor="middle" x="15427.6" y="-14.3" font-family="Times,serif" font-size="14.00">,,0,0</text>
</g>
<!-- 55&#45;&gt;56 -->
<g id="edge15" class="edge"><title>55&#45;&gt;56</title>
<path fill="none" stroke="black" d="M15427.6,-602.595C15427.6,-518.882 15427.6,-150.459 15427.6,-46.4366"/>
<polygon fill="black" stroke="black" points="15431.1,-46.1454 15427.6,-36.1454 15424.1,-46.1454 15431.1,-46.1454"/>
<text text-anchor="middle" x="15545.1" y="-57.8" font-family="Times,serif" font-size="14.00">A$$$QUOTE$$$B,C$$$QUOTE$$$D,1,1</text>
</g>
<!-- 57 -->
<g id="node58" class="node"><title>57</title>
<ellipse fill="none" stroke="black" cx="15685.6" cy="-620.603" rx="27" ry="18"/>
<text text-anchor="middle" x="15685.6" y="-616.903" font-family="Times,serif" font-size="14.00">,,0,0</text>
</g>
<!-- 58 -->
<g id="node59" class="node"><title>58</title>
<ellipse fill="none" stroke="black" cx="15685.6" cy="-18" rx="27" ry="18"/>
<text text-anchor="middle" x="15685.6" y="-14.3" font-family="Times,serif" font-size="14.00">,,0,0</text>
</g>
<!-- 57&#45;&gt;58 -->
<g id="edge16" class="edge"><title>57&#45;&gt;58</title>
<path fill="none" stroke="black" d="M15685.6,-602.595C15685.6,-518.882 15685.6,-150.459 15685.6,-46.4366"/>
<polygon fill="black" stroke="black" points="15689.1,-46.1454 15685.6,-36.1454 15682.1,-46.1454 15689.1,-46.1454"/>
<text text-anchor="middle" x="15906.1" y="-57.8" font-family="Times,serif" font-size="14.00">A$$$COMMA$$$B,$$$COMMA$$$C$$$COMMA$$$D$$$COMMA$$$,1,1</text>
</g>
<!-- 59 -->
<g id="node60" class="node"><title>59</title>
<ellipse fill="none" stroke="black" cx="16149.6" cy="-620.603" rx="27" ry="18"/>
<text text-anchor="middle" x="16149.6" y="-616.903" font-family="Times,serif" font-size="14.00">,,0,0</text>
</g>
<!-- 60 -->
<g id="node61" class="node"><title>60</title>
<ellipse fill="none" stroke="black" cx="16149.6" cy="-18" rx="27" ry="18"/>
<text text-anchor="middle" x="16149.6" y="-14.3" font-family="Times,serif" font-size="14.00">,,0,0</text>
</g>
<!-- 59&#45;&gt;60 -->
<g id="edge17" class="edge"><title>59&#45;&gt;60</title>
<path fill="none" stroke="black" d="M16149.6,-602.595C16149.6,-518.882 16149.6,-150.459 16149.6,-46.4366"/>
<polygon fill="black" stroke="black" points="16153.1,-46.1454 16149.6,-36.1454 16146.1,-46.1454 16153.1,-46.1454"/>
<text text-anchor="middle" x="16283.6" y="-57.8" font-family="Times,serif" font-size="14.00">A&lt;B,$$$COMMA$$$C&gt;D$$$COMMA$$$,1,1</text>
</g>
<!-- 61 -->
<g id="node62" class="node"><title>61</title>
<ellipse fill="none" stroke="black" cx="16440.6" cy="-620.603" rx="27" ry="18"/>
<text text-anchor="middle" x="16440.6" y="-616.903" font-family="Times,serif" font-size="14.00">,,0,0</text>
</g>
<!-- 62 -->
<g id="node63" class="node"><title>62</title>
<ellipse fill="none" stroke="black" cx="16440.6" cy="-18" rx="27" ry="18"/>
<text text-anchor="middle" x="16440.6" y="-14.3" font-family="Times,serif" font-size="14.00">,,0,0</text>
</g>
<!-- 61&#45;&gt;62 -->
<g id="edge18" class="edge"><title>61&#45;&gt;62</title>
<path fill="none" stroke="black" d="M16440.6,-602.595C16440.6,-518.882 16440.6,-150.459 16440.6,-46.4366"/>
<polygon fill="black" stroke="black" points="16444.1,-46.1454 16440.6,-36.1454 16437.1,-46.1454 16444.1,-46.1454"/>
<text text-anchor="middle" x="16557.1" y="-57.8" font-family="Times,serif" font-size="14.00">A$$$QUOTE$$$];,B$$$QUOTE$$$];,1,1</text>
</g>
<!-- 63 -->
<g id="node64" class="node"><title>63</title>
<ellipse fill="none" stroke="black" cx="16696.6" cy="-620.603" rx="27" ry="18"/>
<text text-anchor="middle" x="16696.6" y="-616.903" font-family="Times,serif" font-size="14.00">,,0,0</text>
</g>
<!-- 64 -->
<g id="node65" class="node"><title>64</title>
<ellipse fill="none" stroke="black" cx="16696.6" cy="-18" rx="27" ry="18"/>
<text text-anchor="middle" x="16696.6" y="-14.3" font-family="Times,serif" font-size="14.00">,,0,0</text>
</g>
<!-- 63&#45;&gt;64 -->
<g id="edge19" class="edge"><title>63&#45;&gt;64</title>
<path fill="none" stroke="black" d="M16696.6,-602.595C16696.6,-518.882 16696.6,-150.459 16696.6,-46.4366"/>
<polygon fill="black" stroke="black" points="16700.1,-46.1454 16696.6,-36.1454 16693.1,-46.1454 16700.1,-46.1454"/>
<text text-anchor="middle" x="16770.6" y="-57.8" font-family="Times,serif" font-size="14.00">A,BCDEFGHIJKLMN,1,1</text>
</g>
<!-- 65 -->
<g id="node66" class="node"><title>65</title>
<ellipse fill="none" stroke="black" cx="16867.6" cy="-620.603" rx="27" ry="18"/>
<text text-anchor="middle" x="16867.6" y="-616.903" font-family="Times,serif" font-size="14.00">,,0,0</text>
</g>
<!-- 66 -->
<g id="node67" class="node"><title>66</title>
<ellipse fill="none" stroke="black" cx="16867.6" cy="-18" rx="27" ry="18"/>
<text text-anchor="middle" x="16867.6" y="-14.3" font-family="Times,serif" font-size="14.00">,,0,0</text>
</g>
<!-- 65&#45;&gt;66 -->
<g id="edge20" class="edge"><title>65&#45;&gt;66</title>
<path fill="none" stroke="black" d="M16867.6,-602.595C16867.6,-518.882 16867.6,-150.459 16867.6,-46.4366"/>
<polygon fill="black" stroke="black" points="16871.1,-46.1454 16867.6,-36.1454 16864.1,-46.1454 16871.1,-46.1454"/>
<text text-anchor="middle" x="17022.6" y="-57.8" font-family="Times,serif" font-size="14.00">A$$$SPACE$$$B,$$$SPACE$$$C$$$SPACE$$$D,1,1</text>
</g>
<!-- 67 -->
<g id="node68" class="node"><title>67</title>
<ellipse fill="none" stroke="black" cx="17200.6" cy="-620.603" rx="27" ry="18"/>
<text text-anchor="middle" x="17200.6" y="-616.903" font-family="Times,serif" font-size="14.00">,,0,0</text>
</g>
<!-- 68 -->
<g id="node69" class="node"><title>68</title>
<ellipse fill="none" stroke="black" cx="17200.6" cy="-18" rx="27" ry="18"/>
<text text-anchor="middle" x="17200.6" y="-14.3" font-family="Times,serif" font-size="14.00">,,0,0</text>
</g>
<!-- 67&#45;&gt;68 -->
<g id="edge21" class="edge"><title>67&#45;&gt;68</title>
<path fill="none" stroke="black" d="M17200.6,-602.595C17200.6,-518.882 17200.6,-150.459 17200.6,-46.4366"/>
<polygon fill="black" stroke="black" points="17204.1,-46.1454 17200.6,-36.1454 17197.1,-46.1454 17204.1,-46.1454"/>
<text text-anchor="middle" x="17603.1" y="-57.8" font-family="Times,serif" font-size="14.00">$$$SPACE$$$A$$$SPACE$$$B$$$SPACE$$$,$$$SPACE$$$$$$SPACE$$$C$$$SPACE$$$$$$SPACE$$$D$$$SPACE$$$$$$SPACE$$$,1,1</text>
</g>
<!-- 69 -->
<g id="node70" class="node"><title>69</title>
<ellipse fill="none" stroke="black" cx="18028.6" cy="-620.603" rx="27" ry="18"/>
<text text-anchor="middle" x="18028.6" y="-616.903" font-family="Times,serif" font-size="14.00">,,0,0</text>
</g>
<!-- 70 -->
<g id="node71" class="node"><title>70</title>
<ellipse fill="none" stroke="black" cx="18028.6" cy="-18" rx="27" ry="18"/>
<text text-anchor="middle" x="18028.6" y="-14.3" font-family="Times,serif" font-size="14.00">,,0,0</text>
</g>
<!-- 69&#45;&gt;70 -->
<g id="edge22" class="edge"><title>69&#45;&gt;70</title>
<path fill="none" stroke="black" d="M18028.6,-602.595C18028.6,-518.882 18028.6,-150.459 18028.6,-46.4366"/>
<polygon fill="black" stroke="black" points="18032.1,-46.1454 18028.6,-36.1454 18025.1,-46.1454 18032.1,-46.1454"/>
<text text-anchor="middle" x="18066.6" y="-57.8" font-family="Times,serif" font-size="14.00">A_B,C_D,1,1</text>
</g>
<!-- 71 -->
<g id="node72" class="node"><title>71</title>
<ellipse fill="none" stroke="black" cx="18127.6" cy="-620.603" rx="27" ry="18"/>
<text text-anchor="middle" x="18127.6" y="-616.903" font-family="Times,serif" font-size="14.00">,,0,0</text>
</g>
<!-- 72 -->
<g id="node73" class="node"><title>72</title>
<ellipse fill="none" stroke="black" cx="18127.6" cy="-18" rx="27" ry="18"/>
<text text-anchor="middle" x="18127.6" y="-14.3" font-family="Times,serif" font-size="14.00">,,0,0</text>
</g>
<!-- 71&#45;&gt;72 -->
<g id="edge23" class="edge"><title>71&#45;&gt;72</title>
<path fill="none" stroke="black" d="M18127.6,-602.595C18127.6,-518.882 18127.6,-150.459 18127.6,-46.4366"/>
<polygon fill="black" stroke="black" points="18131.1,-46.1454 18127.6,-36.1454 18124.1,-46.1454 18131.1,-46.1454"/>
<text text-anchor="middle" x="18159.1" y="-57.8" font-family="Times,serif" font-size="14.00">AB,CD,1,1</text>
</g>
<!-- 73 -->
<g id="node74" class="node"><title>73</title>
<ellipse fill="none" stroke="black" cx="18213.6" cy="-620.603" rx="27" ry="18"/>
<text text-anchor="middle" x="18213.6" y="-616.903" font-family="Times,serif" font-size="14.00">,,0,0</text>
</g>
<!-- 74 -->
<g id="node75" class="node"><title>74</title>
<ellipse fill="none" stroke="black" cx="18213.6" cy="-18" rx="27" ry="18"/>
<text text-anchor="middle" x="18213.6" y="-14.3" font-family="Times,serif" font-size="14.00">,,0,0</text>
</g>
<!-- 73&#45;&gt;74 -->
<g id="edge24" class="edge"><title>73&#45;&gt;74</title>
<path fill="none" stroke="black" d="M18213.6,-602.595C18213.6,-518.882 18213.6,-150.459 18213.6,-46.4366"/>
<polygon fill="black" stroke="black" points="18217.1,-46.1454 18213.6,-36.1454 18210.1,-46.1454 18217.1,-46.1454"/>
<text text-anchor="middle" x="18331.1" y="-57.8" font-family="Times,serif" font-size="14.00">A$$$QUOTE$$$B,C$$$QUOTE$$$D,1,1</text>
</g>
<!-- 75 -->
<g id="node76" class="node"><title>75</title>
<ellipse fill="none" stroke="black" cx="18471.6" cy="-620.603" rx="27" ry="18"/>
<text text-anchor="middle" x="18471.6" y="-616.903" font-family="Times,serif" font-size="14.00">,,0,0</text>
</g>
<!-- 76 -->
<g id="node77" class="node"><title>76</title>
<ellipse fill="none" stroke="black" cx="18471.6" cy="-18" rx="27" ry="18"/>
<text text-anchor="middle" x="18471.6" y="-14.3" font-family="Times,serif" font-size="14.00">,,0,0</text>
</g>
<!-- 75&#45;&gt;76 -->
<g id="edge25" class="edge"><title>75&#45;&gt;76</title>
<path fill="none" stroke="black" d="M18471.6,-602.595C18471.6,-518.882 18471.6,-150.459 18471.6,-46.4366"/>
<polygon fill="black" stroke="black" points="18475.1,-46.1454 18471.6,-36.1454 18468.1,-46.1454 18475.1,-46.1454"/>
<text text-anchor="middle" x="18692.1" y="-57.8" font-family="Times,serif" font-size="14.00">A$$$COMMA$$$B,$$$COMMA$$$C$$$COMMA$$$D$$$COMMA$$$,1,1</text>
</g>
<!-- 77 -->
<g id="node78" class="node"><title>77</title>
<ellipse fill="none" stroke="black" cx="18935.6" cy="-620.603" rx="27" ry="18"/>
<text text-anchor="middle" x="18935.6" y="-616.903" font-family="Times,serif" font-size="14.00">,,0,0</text>
</g>
<!-- 78 -->
<g id="node79" class="node"><title>78</title>
<ellipse fill="none" stroke="black" cx="18935.6" cy="-18" rx="27" ry="18"/>
<text text-anchor="middle" x="18935.6" y="-14.3" font-family="Times,serif" font-size="14.00">,,0,0</text>
</g>
<!-- 77&#45;&gt;78 -->
<g id="edge26" class="edge"><title>77&#45;&gt;78</title>
<path fill="none" stroke="black" d="M18935.6,-602.595C18935.6,-518.882 18935.6,-150.459 18935.6,-46.4366"/>
<polygon fill="black" stroke="black" points="18939.1,-46.1454 18935.6,-36.1454 18932.1,-46.1454 18939.1,-46.1454"/>
<text text-anchor="middle" x="19069.6" y="-57.8" font-family="Times,serif" font-size="14.00">A&lt;B,$$$COMMA$$$C&gt;D$$$COMMA$$$,1,1</text>
</g>
<!-- 79 -->
<g id="node80" class="node"><title>79</title>
<ellipse fill="none" stroke="black" cx="19226.6" cy="-620.603" rx="27" ry="18"/>
<text text-anchor="middle" x="19226.6" y="-616.903" font-family="Times,serif" font-size="14.00">,,0,0</text>
</g>
<!-- 80 -->
<g id="node81" class="node"><title>80</title>
<ellipse fill="none" stroke="black" cx="19226.6" cy="-18" rx="27" ry="18"/>
<text text-anchor="middle" x="19226.6" y="-14.3" font-family="Times,serif" font-size="14.00">,,0,0</text>
</g>
<!-- 79&#45;&gt;80 -->
<g id="edge27" class="edge"><title>79&#45;&gt;80</title>
<path fill="none" stroke="black" d="M19226.6,-602.595C19226.6,-518.882 19226.6,-150.459 19226.6,-46.4366"/>
<polygon fill="black" stroke="black" points="19230.1,-46.1454 19226.6,-36.1454 19223.1,-46.1454 19230.1,-46.1454"/>
<text text-anchor="middle" x="19343.1" y="-57.8" font-family="Times,serif" font-size="14.00">A$$$QUOTE$$$];,B$$$QUOTE$$$];,1,1</text>
</g>
</g>
</svg>
