<?xml version="1.0" encoding="UTF-8" standalone="no"?>
<!DOCTYPE svg PUBLIC "-//W3C//DTD SVG 1.1//EN"
 "http://www.w3.org/Graphics/SVG/1.1/DTD/svg11.dtd">
<!-- Generated by graphviz version 2.38.0 (20140413.2041)
 -->
<!-- Title: G Pages: 1 -->
<svg width="320pt" height="116pt"
 viewBox="0.00 0.00 319.77 116.00" xmlns="http://www.w3.org/2000/svg" xmlns:xlink="http://www.w3.org/1999/xlink">
<g id="graph0" class="graph" transform="scale(1 1) rotate(0) translate(4 112)">
<title>G</title>
<polygon fill="white" stroke="none" points="-4,4 -4,-112 315.774,-112 315.774,4 -4,4"/>
<!-- 0 -->
<g id="node1" class="node"><title>0</title>
<ellipse fill="none" stroke="black" cx="146.887" cy="-90" rx="146.774" ry="18"/>
<text text-anchor="middle" x="146.887" y="-86.3" font-family="Times,serif" font-size="14.00">Sunny,Yellow$$$SPACE$$$thing,1,1</text>
</g>
<!-- 0&#45;&gt;0 -->
<g id="edge1" class="edge"><title>0&#45;&gt;0</title>
<path fill="none" stroke="black" d="M244.658,-103.465C281.431,-103.945 311.774,-99.457 311.774,-90 311.774,-81.4296 286.853,-76.9398 254.811,-76.5308"/>
<polygon fill="black" stroke="black" points="254.656,-73.0307 244.658,-76.5348 254.659,-80.0307 254.656,-73.0307"/>
</g>
<!-- 1 -->
<g id="node2" class="node"><title>1</title>
<ellipse fill="none" stroke="black" cx="146.887" cy="-18" rx="140.275" ry="18"/>
<text text-anchor="middle" x="146.887" y="-14.3" font-family="Times,serif" font-size="14.00">Rainy,Grey$$$SPACE$$$things,3,3</text>
</g>
<!-- 0&#45;&gt;1 -->
<g id="edge2" class="edge"><title>0&#45;&gt;1</title>
<path fill="none" stroke="black" d="M140.971,-71.6966C140.176,-63.9827 139.949,-54.7125 140.292,-46.1124"/>
<polygon fill="black" stroke="black" points="143.785,-46.3243 140.992,-36.1043 136.802,-45.8356 143.785,-46.3243"/>
</g>
<!-- 1&#45;&gt;0 -->
<g id="edge3" class="edge"><title>1&#45;&gt;0</title>
<path fill="none" stroke="black" d="M152.782,-36.1043C153.588,-43.7913 153.824,-53.0537 153.491,-61.6651"/>
<polygon fill="black" stroke="black" points="149.996,-61.4805 152.803,-71.6966 156.979,-61.9597 149.996,-61.4805"/>
</g>
<!-- 1&#45;&gt;1 -->
<g id="edge4" class="edge"><title>1&#45;&gt;1</title>
<path fill="none" stroke="black" d="M240.41,-31.4596C275.91,-31.9787 305.275,-27.4922 305.275,-18 305.275,-9.43478 281.366,-4.94529 250.613,-4.53151"/>
<polygon fill="black" stroke="black" points="250.406,-1.03159 240.41,-4.54037 250.413,-8.03158 250.406,-1.03159"/>
</g>
</g>
</svg>
