<?xml version="1.0" encoding="UTF-8" standalone="no"?>
<!DOCTYPE svg PUBLIC "-//W3C//DTD SVG 1.1//EN"
 "http://www.w3.org/Graphics/SVG/1.1/DTD/svg11.dtd">
<!-- Generated by graphviz version 2.36.0 (20140111.2315)
 -->
<!-- Title: G Pages: 1 -->
<svg width="300pt" height="372pt"
 viewBox="0.00 0.00 300.00 372.14" xmlns="http://www.w3.org/2000/svg" xmlns:xlink="http://www.w3.org/1999/xlink">
<g id="graph0" class="graph" transform="scale(1 1) rotate(0) translate(4 368.136)">
<title>G</title>
<polygon fill="white" stroke="none" points="-4,4 -4,-368.136 296,-368.136 296,4 -4,4"/>
<!-- 0 -->
<g id="node1" class="node"><title>0</title>
<ellipse fill="none" stroke="black" cx="137" cy="-227.136" rx="137.207" ry="137.276"/>
<text text-anchor="middle" x="137" y="-223.436" font-family="Times,serif" font-size="14.00">Sunny,Yellow[[:SPACE:]]thing,1,1</text>
</g>
<!-- 0&#45;&gt;0 -->
<g id="edge1" class="edge"><title>0&#45;&gt;0</title>
<path fill="none" stroke="black" d="M271.195,-255.819C283.939,-249.963 292,-240.402 292,-227.136 292,-217.186 287.466,-209.32 279.822,-203.538"/>
<polygon fill="black" stroke="black" points="281.587,-200.516 271.195,-198.452 278.031,-206.546 281.587,-200.516"/>
</g>
<!-- 1 -->
<g id="node2" class="node"><title>1</title>
<ellipse fill="none" stroke="black" cx="137" cy="-36.1356" rx="130.457" ry="18"/>
<text text-anchor="middle" x="137" y="-32.4356" font-family="Times,serif" font-size="14.00">Rainy,Grey[[:SPACE:]]things,3,3</text>
</g>
<!-- 0&#45;&gt;1 -->
<g id="edge2" class="edge"><title>0&#45;&gt;1</title>
<path fill="none" stroke="black" d="M130.869,-90.0339C131.168,-80.6089 131.575,-71.8736 132.092,-64.3285"/>
<polygon fill="black" stroke="black" points="135.594,-64.4371 132.925,-54.1839 128.618,-63.8635 135.594,-64.4371"/>
</g>
<!-- 1&#45;&gt;0 -->
<g id="edge3" class="edge"><title>1&#45;&gt;0</title>
<path fill="none" stroke="black" d="M141.075,-54.1839C141.769,-61.1755 142.328,-69.9546 142.752,-79.8252"/>
<polygon fill="black" stroke="black" points="139.263,-80.1707 143.131,-90.0339 146.258,-79.9109 139.263,-80.1707"/>
</g>
<!-- 1&#45;&gt;1 -->
<g id="edge4" class="edge"><title>1&#45;&gt;1</title>
<path fill="none" stroke="black" d="M161.39,-53.9519C213.122,-82.6163 285,-76.6776 285,-36.1356 285,2.11009 221.034,9.56142 170.358,-13.7816"/>
<polygon fill="black" stroke="black" points="168.733,-10.6813 161.39,-18.3193 171.893,-16.9272 168.733,-10.6813"/>
</g>
</g>
</svg>
