<?xml version="1.0" encoding="UTF-8" standalone="no"?>
<!DOCTYPE svg PUBLIC "-//W3C//DTD SVG 1.1//EN"
 "http://www.w3.org/Graphics/SVG/1.1/DTD/svg11.dtd">
<!-- Generated by graphviz version 2.38.0 (20140413.2041)
 -->
<!-- Title: G Pages: 1 -->
<svg width="381pt" height="491pt"
 viewBox="0.00 0.00 381.00 491.00" xmlns="http://www.w3.org/2000/svg" xmlns:xlink="http://www.w3.org/1999/xlink">
<g id="graph0" class="graph" transform="scale(1 1) rotate(0) translate(4 487)">
<title>G</title>
<polygon fill="white" stroke="none" points="-4,4 -4,-487 377,-487 377,4 -4,4"/>
<!-- 0 -->
<!-- Right -->
<g id="node1" class="node"><title>0</title>
<ellipse fill="none" stroke="black" cx="108" cy="-411" rx="36" ry="72"/>
<text text-anchor="middle" x="108" y="-407.3" font-family="Times,serif" font-size="14.00">Stable</text>
</g>
<!-- 0&#45;&gt;0 -->
<!-- Heat -->
<g id="edge1" class="edge"><title>0&#45;&gt;0</title>
<path fill="none" stroke="black" d="M143.058,-428.973C153.689,-428.522 162,-422.531 162,-411 162,-403.433 158.421,-398.251 152.956,-395.456"/>
<polygon fill="black" stroke="black" points="153.604,-392.011 143.058,-393.027 151.936,-398.81 153.604,-392.011"/>
<text text-anchor="middle" x="173" y="-407.3" font-family="Times,serif" font-size="14.00">Red</text>
</g>
<!-- 1 -->
<!-- Not$$$SPACE$$$left -->
<g id="node2" class="node"><title>1</title>
<ellipse fill="none" stroke="black" cx="108" cy="-144" rx="108" ry="144"/>
<text text-anchor="middle" x="108" y="-140.3" font-family="Times,serif" font-size="14.00">Not$$$SPACE$$$unstable</text>
</g>
<!-- 0&#45;&gt;1 -->
<!-- Lose$$$SPACE$$$heat -->
<g id="edge2" class="edge"><title>0&#45;&gt;1</title>
<path fill="none" stroke="black" d="M85.9803,-353.726C82.6656,-343.015 79.7681,-331.781 78,-321 76.4549,-311.579 75.7158,-301.877 75.6112,-292.098"/>
<polygon fill="black" stroke="black" points="79.1133,-291.927 75.7247,-281.888 72.1137,-291.849 79.1133,-291.927"/>
<text text-anchor="middle" x="98" y="-309.8" font-family="Times,serif" font-size="14.00">Orange</text>
</g>
<!-- 1&#45;&gt;0 -->
<!-- Heat -->
<g id="edge3" class="edge"><title>1&#45;&gt;0</title>
<path fill="none" stroke="black" d="M118.829,-287.642C118.854,-298.929 118.608,-310.152 118,-321 117.827,-324.083 117.621,-327.223 117.388,-330.393"/>
<polygon fill="black" stroke="black" points="113.881,-330.335 116.558,-340.586 120.858,-330.903 113.881,-330.335"/>
<text text-anchor="middle" x="191" y="-309.8" font-family="Times,serif" font-size="14.00">Yellow$$$SPACE$$$cold</text>
</g>
<!-- 1&#45;&gt;1 -->
<!-- Stay$$$SPACE$$$cool -->
<g id="edge4" class="edge"><title>1&#45;&gt;1</title>
<path fill="none" stroke="black" d="M214.17,-170.693C226.202,-165.695 234,-156.797 234,-144 234,-134.802 229.971,-127.619 223.238,-122.45"/>
<polygon fill="black" stroke="black" points="224.595,-119.195 214.17,-117.307 221.141,-125.284 224.595,-119.195"/>
<text text-anchor="middle" x="303.5" y="-140.3" font-family="Times,serif" font-size="14.00">Green$$$SPACE$$$cold</text>
</g>
</g>
</svg>
