<?xml version="1.0" encoding="UTF-8" standalone="no"?>
<!DOCTYPE svg PUBLIC "-//W3C//DTD SVG 1.1//EN"
 "http://www.w3.org/Graphics/SVG/1.1/DTD/svg11.dtd">
<!-- Generated by graphviz version 2.36.0 (20140111.2315)
 -->
<!-- Title: G Pages: 1 -->
<svg width="1238pt" height="1124pt"
 viewBox="0.00 0.00 1238.35 1124.00" xmlns="http://www.w3.org/2000/svg" xmlns:xlink="http://www.w3.org/1999/xlink">
<g id="graph0" class="graph" transform="scale(1 1) rotate(0) translate(4 1120)">
<title>G</title>
<polygon fill="white" stroke="none" points="-4,4 -4,-1120 1234.35,-1120 1234.35,4 -4,4"/>
<!-- 0 -->
<g id="node1" class="node"><title>0</title>
<ellipse fill="none" stroke="black" cx="643.347" cy="-1098" rx="133.333" ry="18"/>
<text text-anchor="middle" x="643.347" y="-1094.3" font-family="Times,serif" font-size="14.00">Building graphs without properties</text>
</g>
<!-- 1 -->
<g id="node2" class="node"><title>1</title>
<ellipse fill="none" stroke="black" cx="365.347" cy="-1026" rx="146.356" ry="18"/>
<text text-anchor="middle" x="365.347" y="-1022.3" font-family="Times,serif" font-size="14.00">Working on graphs without properties</text>
</g>
<!-- 0&#45;&gt;1 -->
<g id="edge1" class="edge"><title>0&#45;&gt;1</title>
<path fill="none" stroke="black" d="M583.367,-1081.9C540.242,-1071.04 481.922,-1056.35 436.451,-1044.9"/>
<polygon fill="black" stroke="black" points="437.212,-1041.49 426.66,-1042.44 435.503,-1048.27 437.212,-1041.49"/>
</g>
<!-- 2 -->
<g id="node3" class="node"><title>2</title>
<ellipse fill="none" stroke="black" cx="1088.35" cy="-954" rx="141.531" ry="18"/>
<text text-anchor="middle" x="1088.35" y="-950.3" font-family="Times,serif" font-size="14.00">Building graphs with named vertices</text>
</g>
<!-- 0&#45;&gt;2 -->
<g id="edge2" class="edge"><title>0&#45;&gt;2</title>
<path fill="none" stroke="black" d="M746.886,-1086.6C802.984,-1078.85 872.807,-1065.73 932.347,-1044 977.935,-1027.36 1025.75,-998.06 1056.24,-977.641"/>
<polygon fill="black" stroke="black" points="1058.43,-980.384 1064.74,-971.874 1054.5,-974.591 1058.43,-980.384"/>
</g>
<!-- 8 -->
<g id="node9" class="node"><title>8</title>
<ellipse fill="none" stroke="black" cx="779.347" cy="-666" rx="143.456" ry="18"/>
<text text-anchor="middle" x="779.347" y="-662.3" font-family="Times,serif" font-size="14.00">Building graphs with custom vertices</text>
</g>
<!-- 0&#45;&gt;8 -->
<g id="edge3" class="edge"><title>0&#45;&gt;8</title>
<path fill="none" stroke="black" d="M674.626,-1080.29C738.342,-1044.23 881.756,-952.227 936.347,-828 963.295,-766.675 883.6,-715.233 828.103,-687.973"/>
<polygon fill="black" stroke="black" points="829.271,-684.651 818.74,-683.487 826.246,-690.964 829.271,-684.651"/>
</g>
<!-- 12 -->
<g id="node13" class="node"><title>12</title>
<ellipse fill="none" stroke="black" cx="479.347" cy="-378" rx="135.258" ry="18"/>
<text text-anchor="middle" x="479.347" y="-374.3" font-family="Times,serif" font-size="14.00">Building graphs with a graph name</text>
</g>
<!-- 0&#45;&gt;12 -->
<g id="edge4" class="edge"><title>0&#45;&gt;12</title>
<path fill="none" stroke="black" d="M523.021,-1090.15C414.745,-1082.56 264.589,-1068.1 210.347,-1044 165.72,-1024.17 152.897,-1013.62 127.347,-972 110.089,-943.89 115.625,-932.382 109.347,-900 74.8392,-722.005 86.7129,-639.353 207.347,-504 238.305,-469.265 242.767,-454.764 283.347,-432 314.545,-414.498 351.809,-402.544 385.427,-394.489"/>
<polygon fill="black" stroke="black" points="386.311,-397.877 395.266,-392.216 384.735,-391.056 386.311,-397.877"/>
</g>
<!-- 1&#45;&gt;2 -->
<g id="edge5" class="edge"><title>1&#45;&gt;2</title>
<path fill="none" stroke="black" d="M476.336,-1014.25C609.761,-1001.34 832.755,-979.746 969.56,-966.501"/>
<polygon fill="black" stroke="black" points="970.05,-969.97 979.666,-965.522 969.375,-963.002 970.05,-969.97"/>
</g>
<!-- 3 -->
<g id="node4" class="node"><title>3</title>
<ellipse fill="none" stroke="black" cx="365.347" cy="-882" rx="153.08" ry="18"/>
<text text-anchor="middle" x="365.347" y="-878.3" font-family="Times,serif" font-size="14.00">Working on graphs with named vertices</text>
</g>
<!-- 1&#45;&gt;3 -->
<g id="edge8" class="edge"><title>1&#45;&gt;3</title>
<path fill="none" stroke="black" d="M365.347,-1007.87C365.347,-983.67 365.347,-939.211 365.347,-910.393"/>
<polygon fill="black" stroke="black" points="368.847,-910.189 365.347,-900.189 361.847,-910.189 368.847,-910.189"/>
</g>
<!-- 1&#45;&gt;8 -->
<g id="edge6" class="edge"><title>1&#45;&gt;8</title>
<path fill="none" stroke="black" d="M397.18,-1008.38C433.746,-987.709 493.09,-949.087 527.347,-900 556.146,-858.733 523.7,-825.392 561.347,-792 626.299,-734.389 688.997,-814.282 753.347,-756 770.54,-740.428 776.615,-714.187 778.641,-694.222"/>
<polygon fill="black" stroke="black" points="782.138,-694.394 779.383,-684.164 775.157,-693.88 782.138,-694.394"/>
</g>
<!-- 9 -->
<g id="node10" class="node"><title>9</title>
<ellipse fill="none" stroke="black" cx="493.347" cy="-594" rx="155.005" ry="18"/>
<text text-anchor="middle" x="493.347" y="-590.3" font-family="Times,serif" font-size="14.00">Working on graphs with custom vertices</text>
</g>
<!-- 1&#45;&gt;9 -->
<g id="edge9" class="edge"><title>1&#45;&gt;9</title>
<path fill="none" stroke="black" d="M324.702,-1008.53C270.375,-983.639 183.108,-932.031 203.347,-864 236.037,-754.116 254.281,-718.932 344.347,-648 364.158,-632.398 388.932,-621.169 412.559,-613.183"/>
<polygon fill="black" stroke="black" points="413.798,-616.462 422.243,-610.065 411.652,-609.799 413.798,-616.462"/>
</g>
<!-- 1&#45;&gt;12 -->
<g id="edge7" class="edge"><title>1&#45;&gt;12</title>
<path fill="none" stroke="black" d="M275.436,-1011.77C203.065,-995.431 113.347,-959.708 113.347,-883 113.347,-883 113.347,-883 113.347,-809 113.347,-615.892 181.038,-555.675 329.347,-432 348.829,-415.754 373.639,-404.343 397.447,-396.389"/>
<polygon fill="black" stroke="black" points="398.738,-399.651 407.214,-393.295 396.624,-392.978 398.738,-399.651"/>
</g>
<!-- 13 -->
<g id="node14" class="node"><title>13</title>
<ellipse fill="none" stroke="black" cx="300.347" cy="-306" rx="148.28" ry="18"/>
<text text-anchor="middle" x="300.347" y="-302.3" font-family="Times,serif" font-size="14.00">Working on graphs with a graph name</text>
</g>
<!-- 1&#45;&gt;13 -->
<g id="edge10" class="edge"><title>1&#45;&gt;13</title>
<path fill="none" stroke="black" d="M266.349,-1012.71C210.677,-1003.95 148.252,-990.455 127.347,-972 -5.20155,-854.988 0.34677,-771.807 0.34677,-595 0.34677,-595 0.34677,-595 0.34677,-521 0.34677,-438.586 26.7668,-409.914 92.3468,-360 117.766,-340.653 149.484,-328.32 180.433,-320.473"/>
<polygon fill="black" stroke="black" points="181.533,-323.809 190.445,-318.08 179.906,-317.001 181.533,-323.809"/>
</g>
<!-- 2&#45;&gt;3 -->
<g id="edge11" class="edge"><title>2&#45;&gt;3</title>
<path fill="none" stroke="black" d="M979.715,-942.482C848.379,-929.767 627.83,-908.413 489.781,-895.048"/>
<polygon fill="black" stroke="black" points="489.865,-891.539 479.574,-894.059 489.19,-898.507 489.865,-891.539"/>
</g>
<!-- 4 -->
<g id="node5" class="node"><title>4</title>
<ellipse fill="none" stroke="black" cx="749.347" cy="-810" rx="178.601" ry="18"/>
<text text-anchor="middle" x="749.347" y="-806.3" font-family="Times,serif" font-size="14.00">Building graphs with named edges and vertices</text>
</g>
<!-- 2&#45;&gt;4 -->
<g id="edge12" class="edge"><title>2&#45;&gt;4</title>
<path fill="none" stroke="black" d="M1049.13,-936.572C987.083,-910.583 866.392,-860.028 798.602,-831.632"/>
<polygon fill="black" stroke="black" points="799.573,-828.244 788.998,-827.609 796.869,-834.701 799.573,-828.244"/>
</g>
<!-- 2&#45;&gt;8 -->
<g id="edge13" class="edge"><title>2&#45;&gt;8</title>
<path fill="none" stroke="black" d="M1061.69,-936.118C1050.13,-926.179 1037.25,-913.034 1027.35,-900 971.439,-826.442 994.594,-778.824 923.347,-720 904.189,-704.183 880.025,-692.97 856.965,-685.068"/>
<polygon fill="black" stroke="black" points="857.759,-681.646 847.167,-681.88 855.593,-688.303 857.759,-681.646"/>
</g>
<!-- 2&#45;&gt;12 -->
<g id="edge14" class="edge"><title>2&#45;&gt;12</title>
<path fill="none" stroke="black" d="M1086.58,-935.964C1084.9,-859.427 1091.04,-546.144 911.347,-432 863.896,-401.859 727.454,-388.859 620.439,-383.252"/>
<polygon fill="black" stroke="black" points="620.343,-379.743 610.178,-382.732 619.988,-386.734 620.343,-379.743"/>
</g>
<!-- 3&#45;&gt;4 -->
<g id="edge15" class="edge"><title>3&#45;&gt;4</title>
<path fill="none" stroke="black" d="M444.446,-866.581C506.134,-855.336 591.936,-839.695 656.81,-827.869"/>
<polygon fill="black" stroke="black" points="657.825,-831.241 667.035,-826.005 656.57,-824.355 657.825,-831.241"/>
</g>
<!-- 5 -->
<g id="node6" class="node"><title>5</title>
<ellipse fill="none" stroke="black" cx="522.347" cy="-738" rx="191.125" ry="18"/>
<text text-anchor="middle" x="522.347" y="-734.3" font-family="Times,serif" font-size="14.00">Working on graphs with named edges and vertices</text>
</g>
<!-- 3&#45;&gt;5 -->
<g id="edge19" class="edge"><title>3&#45;&gt;5</title>
<path fill="none" stroke="black" d="M384.285,-863.871C412.103,-838.711 464.131,-791.654 495.766,-763.042"/>
<polygon fill="black" stroke="black" points="498.273,-765.493 503.342,-756.189 493.577,-760.301 498.273,-765.493"/>
</g>
<!-- 6 -->
<g id="node7" class="node"><title>6</title>
<ellipse fill="none" stroke="black" cx="713.347" cy="-90" rx="145.38" ry="18"/>
<text text-anchor="middle" x="713.347" y="-86.3" font-family="Times,serif" font-size="14.00">Building graphs with bundled vertices</text>
</g>
<!-- 3&#45;&gt;6 -->
<g id="edge16" class="edge"><title>3&#45;&gt;6</title>
<path fill="none" stroke="black" d="M317.798,-864.811C227.105,-830.574 38.3468,-741.694 38.3468,-595 38.3468,-595 38.3468,-595 38.3468,-521 38.3468,-424.401 0.34677,-403.599 0.34677,-307 0.34677,-307 0.34677,-307 0.34677,-233 0.34677,-120.15 348.242,-95.6697 558.008,-91.1662"/>
<polygon fill="black" stroke="black" points="558.274,-94.6617 568.201,-90.9607 558.133,-87.6631 558.274,-94.6617"/>
</g>
<!-- 3&#45;&gt;8 -->
<g id="edge17" class="edge"><title>3&#45;&gt;8</title>
<path fill="none" stroke="black" d="M394.867,-864.222C437.97,-839.825 514.524,-796.915 528.347,-792 610.973,-762.621 649.592,-804.959 722.347,-756 744.717,-740.946 760.187,-713.848 769.308,-693.494"/>
<polygon fill="black" stroke="black" points="772.598,-694.699 773.277,-684.126 766.153,-691.968 772.598,-694.699"/>
</g>
<!-- 3&#45;&gt;9 -->
<g id="edge20" class="edge"><title>3&#45;&gt;9</title>
<path fill="none" stroke="black" d="M352.966,-863.707C332.828,-833.275 297.593,-768.756 322.347,-720 347.444,-670.567 402.284,-636.006 443.133,-615.944"/>
<polygon fill="black" stroke="black" points="444.886,-618.986 452.403,-611.52 441.87,-612.669 444.886,-618.986"/>
</g>
<!-- 3&#45;&gt;12 -->
<g id="edge18" class="edge"><title>3&#45;&gt;12</title>
<path fill="none" stroke="black" d="M344.127,-864.051C333.754,-854.573 322.083,-841.885 315.347,-828 266.069,-726.423 255.027,-685.29 283.347,-576 302.046,-503.838 313.581,-481.469 369.347,-432 384.88,-418.221 404.63,-407.227 423.097,-398.904"/>
<polygon fill="black" stroke="black" points="424.532,-402.097 432.32,-394.914 421.752,-395.672 424.532,-402.097"/>
</g>
<!-- 3&#45;&gt;13 -->
<g id="edge21" class="edge"><title>3&#45;&gt;13</title>
<path fill="none" stroke="black" d="M339.231,-864.053C325.378,-854.391 308.542,-841.534 295.347,-828 178.848,-708.513 76.3468,-689.88 76.3468,-523 76.3468,-523 76.3468,-523 76.3468,-449 76.3468,-380.021 153.056,-343.146 216.695,-324.423"/>
<polygon fill="black" stroke="black" points="217.712,-327.773 226.38,-321.681 215.805,-321.037 217.712,-327.773"/>
</g>
<!-- 4&#45;&gt;5 -->
<g id="edge22" class="edge"><title>4&#45;&gt;5</title>
<path fill="none" stroke="black" d="M696.698,-792.765C663.416,-782.502 620.224,-769.182 585.157,-758.369"/>
<polygon fill="black" stroke="black" points="586.084,-754.992 575.497,-755.39 584.021,-761.681 586.084,-754.992"/>
</g>
<!-- 4&#45;&gt;8 -->
<g id="edge23" class="edge"><title>4&#45;&gt;8</title>
<path fill="none" stroke="black" d="M768.82,-791.918C778.168,-782.403 788.393,-769.723 793.347,-756 800.617,-735.86 796.109,-711.81 790.34,-693.79"/>
<polygon fill="black" stroke="black" points="793.591,-692.484 786.975,-684.208 786.986,-694.803 793.591,-692.484"/>
</g>
<!-- 4&#45;&gt;12 -->
<g id="edge24" class="edge"><title>4&#45;&gt;12</title>
<path fill="none" stroke="black" d="M815.697,-793.223C876.244,-774.408 956.347,-736.402 956.347,-667 956.347,-667 956.347,-667 956.347,-593 956.347,-514.433 951.002,-471.945 883.347,-432 838.993,-405.813 714.373,-392.269 615.156,-385.457"/>
<polygon fill="black" stroke="black" points="615.24,-381.955 605.028,-384.779 614.772,-388.94 615.24,-381.955"/>
</g>
<!-- 5&#45;&gt;8 -->
<g id="edge25" class="edge"><title>5&#45;&gt;8</title>
<path fill="none" stroke="black" d="M581.63,-720.853C620.66,-710.222 671.834,-696.284 712.34,-685.251"/>
<polygon fill="black" stroke="black" points="713.4,-688.59 722.129,-682.585 711.56,-681.836 713.4,-688.59"/>
</g>
<!-- 5&#45;&gt;9 -->
<g id="edge27" class="edge"><title>5&#45;&gt;9</title>
<path fill="none" stroke="black" d="M518.849,-719.871C513.884,-695.564 504.746,-650.819 498.864,-622.013"/>
<polygon fill="black" stroke="black" points="502.288,-621.287 496.857,-612.189 495.429,-622.687 502.288,-621.287"/>
</g>
<!-- 5&#45;&gt;12 -->
<g id="edge26" class="edge"><title>5&#45;&gt;12</title>
<path fill="none" stroke="black" d="M472.838,-720.606C426.354,-702.259 359.573,-667.588 329.347,-612 295.677,-550.079 355.919,-485.088 402.347,-432 412.763,-420.089 426.414,-409.563 439.325,-401.095"/>
<polygon fill="black" stroke="black" points="441.501,-403.861 448.097,-395.569 437.77,-397.938 441.501,-403.861"/>
</g>
<!-- 5&#45;&gt;13 -->
<g id="edge28" class="edge"><title>5&#45;&gt;13</title>
<path fill="none" stroke="black" d="M446.231,-721.392C416.192,-713.137 382.262,-701.077 354.347,-684 279.77,-638.38 251.096,-621.837 220.347,-540 203.464,-495.067 206.867,-478.068 220.347,-432 231.609,-393.511 258.75,-355.616 278.297,-331.821"/>
<polygon fill="black" stroke="black" points="281.103,-333.923 284.856,-324.015 275.744,-329.42 281.103,-333.923"/>
</g>
<!-- 6&#45;&gt;2 -->
<g id="edge30" class="edge"><title>6&#45;&gt;2</title>
<path fill="none" stroke="black" d="M851.705,-95.6029C962.566,-101.448 1107.66,-114.599 1158.35,-144 1200.94,-168.709 1224.35,-183.755 1224.35,-233 1224.35,-811 1224.35,-811 1224.35,-811 1224.35,-865.744 1170.98,-907.625 1131.1,-931.276"/>
<polygon fill="black" stroke="black" points="1129.24,-928.309 1122.31,-936.327 1132.73,-934.378 1129.24,-928.309"/>
</g>
<!-- 7 -->
<g id="node8" class="node"><title>7</title>
<ellipse fill="none" stroke="black" cx="713.347" cy="-18" rx="157.404" ry="18"/>
<text text-anchor="middle" x="713.347" y="-14.3" font-family="Times,serif" font-size="14.00">Working on graphs with bundled vertices</text>
</g>
<!-- 6&#45;&gt;7 -->
<g id="edge29" class="edge"><title>6&#45;&gt;7</title>
<path fill="none" stroke="black" d="M713.347,-71.6966C713.347,-63.9827 713.347,-54.7125 713.347,-46.1124"/>
<polygon fill="black" stroke="black" points="716.847,-46.1043 713.347,-36.1043 709.847,-46.1044 716.847,-46.1043"/>
</g>
<!-- 6&#45;&gt;8 -->
<g id="edge31" class="edge"><title>6&#45;&gt;8</title>
<path fill="none" stroke="black" d="M840.747,-98.6743C956.345,-107.15 1111.46,-122.502 1130.35,-144 1273.98,-307.494 1161.63,-483.019 986.347,-612 959.918,-631.448 926.839,-643.762 894.909,-651.558"/>
<polygon fill="black" stroke="black" points="894.002,-648.175 885.045,-653.835 895.576,-654.996 894.002,-648.175"/>
</g>
<!-- 6&#45;&gt;12 -->
<g id="edge32" class="edge"><title>6&#45;&gt;12</title>
<path fill="none" stroke="black" d="M673.938,-107.369C629.918,-126.24 560.238,-161.804 522.347,-216 494.135,-256.352 488.499,-315.343 485.082,-349.588"/>
<polygon fill="black" stroke="black" points="481.575,-349.474 484.025,-359.781 488.538,-350.196 481.575,-349.474"/>
</g>
<!-- 8&#45;&gt;2 -->
<g id="edge34" class="edge"><title>8&#45;&gt;2</title>
<path fill="none" stroke="black" d="M860.866,-680.951C888.757,-688.915 918.585,-701.208 941.347,-720 1012.59,-778.824 989.439,-826.442 1045.35,-900 1052.87,-909.9 1062.11,-919.865 1070.22,-928.44"/>
<polygon fill="black" stroke="black" points="1067.85,-931.029 1077.27,-935.883 1072.93,-926.215 1067.85,-931.029"/>
</g>
<!-- 8&#45;&gt;6 -->
<g id="edge35" class="edge"><title>8&#45;&gt;6</title>
<path fill="none" stroke="black" d="M874.18,-652.436C906.29,-644.697 940.903,-632.194 968.347,-612 1143.63,-483.019 1255.98,-307.494 1112.35,-144 1094.58,-123.77 956.18,-108.984 847.269,-100.247"/>
<polygon fill="black" stroke="black" points="847.405,-96.7466 837.16,-99.4461 846.852,-103.725 847.405,-96.7466"/>
</g>
<!-- 8&#45;&gt;9 -->
<g id="edge33" class="edge"><title>8&#45;&gt;9</title>
<path fill="none" stroke="black" d="M716.936,-649.725C672.59,-638.871 612.892,-624.259 566.337,-612.865"/>
<polygon fill="black" stroke="black" points="567.158,-609.462 556.612,-610.485 565.493,-616.262 567.158,-609.462"/>
</g>
<!-- 10 -->
<g id="node11" class="node"><title>10</title>
<ellipse fill="none" stroke="black" cx="747.347" cy="-522" rx="180.526" ry="18"/>
<text text-anchor="middle" x="747.347" y="-518.3" font-family="Times,serif" font-size="14.00">Building graphs with custom edges and vertices</text>
</g>
<!-- 8&#45;&gt;10 -->
<g id="edge36" class="edge"><title>8&#45;&gt;10</title>
<path fill="none" stroke="black" d="M775.487,-647.871C770.009,-623.564 759.926,-578.819 753.434,-550.013"/>
<polygon fill="black" stroke="black" points="756.833,-549.175 751.22,-540.189 750.004,-550.714 756.833,-549.175"/>
</g>
<!-- 8&#45;&gt;12 -->
<g id="edge37" class="edge"><title>8&#45;&gt;12</title>
<path fill="none" stroke="black" d="M753.345,-648C727.636,-628.524 687.253,-596.648 648.347,-576 560.492,-529.375 496.827,-556.96 452.347,-468 442.396,-448.098 448.89,-423.085 458.229,-404.649"/>
<polygon fill="black" stroke="black" points="461.285,-406.354 463.141,-395.923 455.185,-402.921 461.285,-406.354"/>
</g>
<!-- 9&#45;&gt;10 -->
<g id="edge38" class="edge"><title>9&#45;&gt;10</title>
<path fill="none" stroke="black" d="M550.666,-577.203C588.785,-566.698 639.033,-552.85 679.199,-541.781"/>
<polygon fill="black" stroke="black" points="680.205,-545.134 688.916,-539.103 678.345,-538.386 680.205,-545.134"/>
</g>
<!-- 11 -->
<g id="node12" class="node"><title>11</title>
<ellipse fill="none" stroke="black" cx="663.347" cy="-450" rx="193.049" ry="18"/>
<text text-anchor="middle" x="663.347" y="-446.3" font-family="Times,serif" font-size="14.00">Working on graphs with custom edges and vertices</text>
</g>
<!-- 9&#45;&gt;11 -->
<g id="edge40" class="edge"><title>9&#45;&gt;11</title>
<path fill="none" stroke="black" d="M502.401,-575.681C513.288,-556.204 533.151,-524.609 557.347,-504 572.686,-490.935 591.801,-480.11 609.558,-471.723"/>
<polygon fill="black" stroke="black" points="611.045,-474.892 618.693,-467.56 608.142,-468.522 611.045,-474.892"/>
</g>
<!-- 9&#45;&gt;12 -->
<g id="edge39" class="edge"><title>9&#45;&gt;12</title>
<path fill="none" stroke="black" d="M476.936,-575.707C456.694,-553.062 423.366,-511.144 410.347,-468 405.724,-452.682 403.274,-446.352 410.347,-432 416.413,-419.692 426.863,-409.445 437.821,-401.346"/>
<polygon fill="black" stroke="black" points="439.97,-404.116 446.236,-395.573 436.01,-398.344 439.97,-404.116"/>
</g>
<!-- 9&#45;&gt;13 -->
<g id="edge41" class="edge"><title>9&#45;&gt;13</title>
<path fill="none" stroke="black" d="M466.513,-576.178C452.616,-566.646 435.964,-553.869 423.347,-540 372.717,-484.347 367.698,-463.441 334.347,-396 324.31,-375.703 315.285,-351.664 309.06,-333.689"/>
<polygon fill="black" stroke="black" points="312.345,-332.479 305.816,-324.135 305.717,-334.729 312.345,-332.479"/>
</g>
<!-- 10&#45;&gt;2 -->
<g id="edge43" class="edge"><title>10&#45;&gt;2</title>
<path fill="none" stroke="black" d="M780.872,-539.781C820.496,-560.867 886.676,-600.152 931.347,-648 1011.69,-734.061 1061.57,-869.093 1080.13,-926.137"/>
<polygon fill="black" stroke="black" points="1076.85,-927.388 1083.23,-935.851 1083.52,-925.26 1076.85,-927.388"/>
</g>
<!-- 10&#45;&gt;6 -->
<g id="edge44" class="edge"><title>10&#45;&gt;6</title>
<path fill="none" stroke="black" d="M830.636,-505.999C851.214,-498.152 870.906,-486.201 883.347,-468 918.348,-416.795 1081.37,-469.078 878.347,-216 836.526,-163.869 778.856,-227.994 732.347,-180 716.669,-163.821 712.561,-138.053 711.999,-118.398"/>
<polygon fill="black" stroke="black" points="715.499,-118.207 712,-108.207 708.499,-118.206 715.499,-118.207"/>
</g>
<!-- 10&#45;&gt;11 -->
<g id="edge42" class="edge"><title>10&#45;&gt;11</title>
<path fill="none" stroke="black" d="M727.013,-504.055C716.361,-495.179 703.149,-484.169 691.526,-474.483"/>
<polygon fill="black" stroke="black" points="693.708,-471.745 683.785,-468.032 689.226,-477.122 693.708,-471.745"/>
</g>
<!-- 10&#45;&gt;12 -->
<g id="edge45" class="edge"><title>10&#45;&gt;12</title>
<path fill="none" stroke="black" d="M816.143,-505.228C835.325,-497.324 854,-485.535 865.347,-468 874.039,-454.567 875.863,-444.059 865.347,-432 834.055,-396.118 720.464,-383.672 624.544,-379.738"/>
<polygon fill="black" stroke="black" points="624.558,-376.236 614.431,-379.351 624.29,-383.231 624.558,-376.236"/>
</g>
<!-- 11&#45;&gt;12 -->
<g id="edge46" class="edge"><title>11&#45;&gt;12</title>
<path fill="none" stroke="black" d="M619.741,-432.411C593.219,-422.321 559.194,-409.377 531.283,-398.758"/>
<polygon fill="black" stroke="black" points="532.279,-395.393 521.688,-395.108 529.79,-401.935 532.279,-395.393"/>
</g>
<!-- 12&#45;&gt;2 -->
<g id="edge48" class="edge"><title>12&#45;&gt;2</title>
<path fill="none" stroke="black" d="M611.281,-382.133C724.942,-387.043 878.412,-399.646 929.347,-432 1102.02,-541.685 1103.09,-835.255 1093.71,-925.937"/>
<polygon fill="black" stroke="black" points="1090.22,-925.622 1092.52,-935.964 1097.17,-926.444 1090.22,-925.622"/>
</g>
<!-- 12&#45;&gt;6 -->
<g id="edge49" class="edge"><title>12&#45;&gt;6</title>
<path fill="none" stroke="black" d="M473.5,-359.781C469.543,-328.33 473.081,-260.719 504.347,-216 540.2,-164.72 604.513,-130.121 652.449,-110.56"/>
<polygon fill="black" stroke="black" points="653.8,-113.789 661.805,-106.848 651.219,-107.283 653.8,-113.789"/>
</g>
<!-- 12&#45;&gt;8 -->
<g id="edge50" class="edge"><title>12&#45;&gt;8</title>
<path fill="none" stroke="black" d="M476.198,-396.262C469.424,-414.854 458.785,-444.876 470.347,-468 514.827,-556.96 578.492,-529.375 666.347,-576 700.998,-594.389 736.82,-621.686 758.81,-641.195"/>
<polygon fill="black" stroke="black" points="756.514,-643.839 766.258,-648 761.236,-638.671 756.514,-643.839"/>
</g>
<!-- 12&#45;&gt;13 -->
<g id="edge47" class="edge"><title>12&#45;&gt;13</title>
<path fill="none" stroke="black" d="M437.831,-360.765C412.147,-350.721 378.98,-337.75 351.657,-327.065"/>
<polygon fill="black" stroke="black" points="352.846,-323.772 342.258,-323.39 350.296,-330.292 352.846,-323.772"/>
</g>
<!-- 14 -->
<g id="node15" class="node"><title>14</title>
<ellipse fill="none" stroke="black" cx="696.347" cy="-234" rx="173.302" ry="18"/>
<text text-anchor="middle" x="696.347" y="-230.3" font-family="Times,serif" font-size="14.00">Building graphs with custom graph properties</text>
</g>
<!-- 12&#45;&gt;14 -->
<g id="edge51" class="edge"><title>12&#45;&gt;14</title>
<path fill="none" stroke="black" d="M505.092,-360.153C544.163,-334.585 618.485,-285.951 662.084,-257.421"/>
<polygon fill="black" stroke="black" points="664.184,-260.229 670.635,-251.825 660.351,-254.372 664.184,-260.229"/>
</g>
<!-- 13&#45;&gt;2 -->
<g id="edge53" class="edge"><title>13&#45;&gt;2</title>
<path fill="none" stroke="black" d="M436.122,-313.309C675.685,-328.178 1148.35,-375.9 1148.35,-521 1148.35,-811 1148.35,-811 1148.35,-811 1148.35,-854.521 1124.14,-900.049 1106.47,-927.474"/>
<polygon fill="black" stroke="black" points="1103.39,-925.784 1100.78,-936.051 1109.23,-929.656 1103.39,-925.784"/>
</g>
<!-- 13&#45;&gt;6 -->
<g id="edge54" class="edge"><title>13&#45;&gt;6</title>
<path fill="none" stroke="black" d="M312.154,-287.935C336.229,-254.545 394.488,-180.65 462.347,-144 500.893,-123.182 546.874,-110.537 588.886,-102.858"/>
<polygon fill="black" stroke="black" points="589.661,-106.276 598.908,-101.105 588.455,-99.3806 589.661,-106.276"/>
</g>
<!-- 13&#45;&gt;8 -->
<g id="edge55" class="edge"><title>13&#45;&gt;8</title>
<path fill="none" stroke="black" d="M294.681,-324.272C286.499,-350.79 272.347,-403.268 272.347,-449 272.347,-523 272.347,-523 272.347,-523 272.347,-569.973 289.529,-587.081 329.347,-612 378.249,-642.605 518.83,-655.538 629.985,-661.003"/>
<polygon fill="black" stroke="black" points="630.151,-664.514 640.306,-661.493 630.483,-657.522 630.151,-664.514"/>
</g>
<!-- 13&#45;&gt;14 -->
<g id="edge52" class="edge"><title>13&#45;&gt;14</title>
<path fill="none" stroke="black" d="M380.483,-290.834C444.65,-279.492 534.784,-263.559 602.353,-251.615"/>
<polygon fill="black" stroke="black" points="603.335,-254.996 612.573,-249.808 602.117,-248.103 603.335,-254.996"/>
</g>
<!-- 15 -->
<g id="node16" class="node"><title>15</title>
<ellipse fill="none" stroke="black" cx="927.347" cy="-162" rx="185.326" ry="18"/>
<text text-anchor="middle" x="927.347" y="-158.3" font-family="Times,serif" font-size="14.00">Working on graphs with custom graph properties</text>
</g>
<!-- 14&#45;&gt;15 -->
<g id="edge56" class="edge"><title>14&#45;&gt;15</title>
<path fill="none" stroke="black" d="M749.633,-216.853C783.613,-206.556 827.832,-193.156 863.661,-182.299"/>
<polygon fill="black" stroke="black" points="864.973,-185.558 873.529,-179.309 862.943,-178.859 864.973,-185.558"/>
</g>
<!-- 15&#45;&gt;2 -->
<g id="edge57" class="edge"><title>15&#45;&gt;2</title>
<path fill="none" stroke="black" d="M952.181,-179.873C1017.01,-226.142 1186.35,-362.205 1186.35,-521 1186.35,-811 1186.35,-811 1186.35,-811 1186.35,-859.462 1147.2,-903.385 1118.4,-929.151"/>
<polygon fill="black" stroke="black" points="1115.85,-926.729 1110.58,-935.925 1120.43,-932.017 1115.85,-926.729"/>
</g>
<!-- 15&#45;&gt;6 -->
<g id="edge58" class="edge"><title>15&#45;&gt;6</title>
<path fill="none" stroke="black" d="M877.173,-144.588C845.69,-134.29 804.96,-120.967 771.989,-110.182"/>
<polygon fill="black" stroke="black" points="773.06,-106.85 762.468,-107.068 770.884,-113.503 773.06,-106.85"/>
</g>
<!-- 15&#45;&gt;8 -->
<g id="edge59" class="edge"><title>15&#45;&gt;8</title>
<path fill="none" stroke="black" d="M942.404,-179.997C963.245,-205.34 998.347,-255.387 998.347,-305 998.347,-523 998.347,-523 998.347,-523 998.347,-591.39 922.228,-628.497 859.743,-647.435"/>
<polygon fill="black" stroke="black" points="858.466,-644.162 849.845,-650.321 860.425,-650.882 858.466,-644.162"/>
</g>
</g>
</svg>
