<?xml version="1.0" encoding="UTF-8" standalone="no"?>
<!DOCTYPE svg PUBLIC "-//W3C//DTD SVG 1.1//EN"
 "http://www.w3.org/Graphics/SVG/1.1/DTD/svg11.dtd">
<!-- Generated by graphviz version 2.36.0 (20140111.2315)
 -->
<!-- Title: G Pages: 1 -->
<svg width="538pt" height="390pt"
 viewBox="0.00 0.00 538.00 390.00" xmlns="http://www.w3.org/2000/svg" xmlns:xlink="http://www.w3.org/1999/xlink">
<g id="graph0" class="graph" transform="scale(1 1) rotate(0) translate(4 386)">
<title>G</title>
<polygon fill="white" stroke="none" points="-4,4 -4,-386 534,-386 534,4 -4,4"/>
<!-- 0 -->
<g id="node1" class="node"><title>0</title>
<ellipse fill="none" stroke="black" cx="146" cy="-235" rx="146.331" ry="146.774"/>
<text text-anchor="middle" x="146" y="-231.3" font-family="Times,serif" font-size="14.00">Sunny,Yellow$$$SPACE$$$thing,1,1</text>
</g>
<!-- 0&#45;&gt;0 -->
<g id="edge1" class="edge"><title>0&#45;&gt;0</title>
<path fill="none" stroke="black" d="M290.473,-259.926C302.511,-254.562 310,-246.254 310,-235 310,-226.911 306.131,-220.344 299.485,-215.298"/>
<polygon fill="black" stroke="black" points="300.88,-212.061 290.473,-210.074 297.369,-218.118 300.88,-212.061"/>
<text text-anchor="middle" x="420" y="-231.3" font-family="Times,serif" font-size="14.00">A$$$SPACE$$$to$$$SPACE$$$A,,1,1</text>
</g>
<!-- 1 -->
<g id="node2" class="node"><title>1</title>
<ellipse fill="none" stroke="black" cx="146" cy="-18" rx="140.082" ry="18"/>
<text text-anchor="middle" x="146" y="-14.3" font-family="Times,serif" font-size="14.00">Rainy,Grey$$$SPACE$$$things,3,3</text>
</g>
<!-- 0&#45;&gt;1 -->
<g id="edge2" class="edge"><title>0&#45;&gt;1</title>
<path fill="none" stroke="black" d="M34.4832,-139.21C14.5293,-111.317 5.71877,-81.0416 26,-54 31.2877,-46.9498 37.9174,-41.2556 45.3304,-36.6646"/>
<polygon fill="black" stroke="black" points="47.2378,-39.6117 54.3588,-31.7668 43.9,-33.4588 47.2378,-39.6117"/>
<text text-anchor="middle" x="136" y="-58.3" font-family="Times,serif" font-size="14.00">A$$$SPACE$$$to$$$SPACE$$$B,,1,1</text>
</g>
<!-- 1&#45;&gt;0 -->
<g id="edge3" class="edge"><title>1&#45;&gt;0</title>
<path fill="none" stroke="black" d="M220.865,-33.3048C230.728,-38.2946 239.614,-44.999 246,-54 260.299,-74.1541 259.585,-96.5481 250.923,-118.503"/>
<polygon fill="black" stroke="black" points="247.619,-117.319 246.744,-127.877 254.012,-120.168 247.619,-117.319"/>
<text text-anchor="middle" x="363" y="-58.3" font-family="Times,serif" font-size="14.00">B$$$SPACE$$$to$$$SPACE$$$A,,1,1</text>
</g>
<!-- 1&#45;&gt;1 -->
<g id="edge4" class="edge"><title>1&#45;&gt;1</title>
<path fill="none" stroke="black" d="M274.017,-25.3828C291.974,-24.1777 304,-21.7168 304,-18 304,-15.0382 296.363,-12.8738 284.175,-11.507"/>
<polygon fill="black" stroke="black" points="284.285,-8.00334 274.017,-10.6172 283.674,-14.9766 284.285,-8.00334"/>
<text text-anchor="middle" x="413.5" y="-14.3" font-family="Times,serif" font-size="14.00">B$$$SPACE$$$to$$$SPACE$$$B,,1,1</text>
</g>
</g>
</svg>
