<?xml version="1.0" encoding="UTF-8" standalone="no"?>
<!DOCTYPE svg PUBLIC "-//W3C//DTD SVG 1.1//EN"
 "http://www.w3.org/Graphics/SVG/1.1/DTD/svg11.dtd">
<!-- Generated by graphviz version 2.36.0 (20140111.2315)
 -->
<!-- Title: G Pages: 1 -->
<svg width="858pt" height="132pt"
 viewBox="0.00 0.00 858.00 132.00" xmlns="http://www.w3.org/2000/svg" xmlns:xlink="http://www.w3.org/1999/xlink">
<g id="graph0" class="graph" transform="scale(1 1) rotate(0) translate(4 128)">
<title>G</title>
<polygon fill="white" stroke="none" points="-4,4 -4,-128 854,-128 854,4 -4,4"/>
<!-- 0 -->
<g id="node1" class="node"><title>0</title>
<ellipse fill="none" stroke="black" cx="360" cy="-106" rx="360.102" ry="18"/>
<text text-anchor="middle" x="360" y="-102.3" font-family="Times,serif" font-size="14.00">Sunny,You[[:SPACE:]]can[[:SPACE:]]see[[:SPACE:]]the[[:SPACE:]]yellow[[:SPACE:]]thing,1,1</text>
</g>
<!-- 0&#45;&gt;0 -->
<g id="edge1" class="edge"><title>0&#45;&gt;0</title>
<path fill="none" stroke="black" d="M699.319,-112.04C723.338,-110.667 738,-108.653 738,-106 738,-103.741 727.368,-101.945 709.379,-100.614"/>
<polygon fill="black" stroke="black" points="709.525,-97.1161 699.319,-99.9601 709.071,-104.101 709.525,-97.1161"/>
<text text-anchor="middle" x="794" y="-102.3" font-family="Times,serif" font-size="14.00">Sometimes,20%,1,2</text>
</g>
<!-- 1 -->
<g id="node2" class="node"><title>1</title>
<ellipse fill="none" stroke="black" cx="360" cy="-18" rx="257.066" ry="18"/>
<text text-anchor="middle" x="360" y="-14.3" font-family="Times,serif" font-size="14.00">Rainy,Many[[:SPACE:]]grey[[:SPACE:]]fluffy[[:SPACE:]]things,3,3</text>
</g>
<!-- 0&#45;&gt;1 -->
<g id="edge2" class="edge"><title>0&#45;&gt;1</title>
<path fill="none" stroke="black" d="M325.195,-87.9393C318.684,-83.0813 312.752,-77.1264 309,-70 303.576,-59.6995 308.818,-50.1543 317.694,-42.1743"/>
<polygon fill="black" stroke="black" points="320.087,-44.7476 325.85,-35.8571 315.801,-39.2134 320.087,-44.7476"/>
<text text-anchor="middle" x="350" y="-58.3" font-family="Times,serif" font-size="14.00">Often,80%,3,4</text>
</g>
<!-- 1&#45;&gt;0 -->
<g id="edge3" class="edge"><title>1&#45;&gt;0</title>
<path fill="none" stroke="black" d="M379.581,-36.169C384.214,-41.3811 388.525,-47.4728 391,-54 394.381,-62.9164 391.325,-72.0131 386.022,-80.0081"/>
<polygon fill="black" stroke="black" points="383.264,-77.8541 379.86,-87.8873 388.778,-82.1668 383.264,-77.8541"/>
<text text-anchor="middle" x="435.5" y="-58.3" font-family="Times,serif" font-size="14.00">Rarely,10%,5,6</text>
</g>
<!-- 1&#45;&gt;1 -->
<g id="edge4" class="edge"><title>1&#45;&gt;1</title>
<path fill="none" stroke="black" d="M599.966,-24.5268C621.488,-23.1619 635,-20.9863 635,-18 635,-15.5269 625.733,-13.6099 610.325,-12.2488"/>
<polygon fill="black" stroke="black" points="610.199,-8.72969 599.966,-11.4732 609.676,-15.7102 610.199,-8.72969"/>
<text text-anchor="middle" x="680" y="-14.3" font-family="Times,serif" font-size="14.00">Mostly,90%,7,8</text>
</g>
</g>
</svg>
