<?xml version="1.0" encoding="UTF-8" standalone="no"?>
<!DOCTYPE svg PUBLIC "-//W3C//DTD SVG 1.1//EN"
 "http://www.w3.org/Graphics/SVG/1.1/DTD/svg11.dtd">
<!-- Generated by graphviz version 2.38.0 (20140413.2041)
 -->
<!-- Title: G Pages: 1 -->
<svg width="896pt" height="692pt"
 viewBox="0.00 0.00 896.00 692.00" xmlns="http://www.w3.org/2000/svg" xmlns:xlink="http://www.w3.org/1999/xlink">
<g id="graph0" class="graph" transform="scale(1 1) rotate(0) translate(4 688)">
<title>G</title>
<polygon fill="white" stroke="none" points="-4,4 -4,-688 892,-688 892,4 -4,4"/>
<!-- 0 -->
<g id="node1" class="node"><title>0</title>
<ellipse fill="none" stroke="black" cx="760" cy="-666" rx="102.882" ry="18"/>
<text text-anchor="middle" x="760" y="-662.3" font-family="Times,serif" font-size="14.00">Graphs without properties</text>
</g>
<!-- 1 -->
<g id="node2" class="node"><title>1</title>
<ellipse fill="none" stroke="black" cx="671" cy="-594" rx="110.48" ry="18"/>
<text text-anchor="middle" x="671" y="-590.3" font-family="Times,serif" font-size="14.00">Graphs with named vertices</text>
</g>
<!-- 0&#45;&gt;1 -->
<g id="edge1" class="edge"><title>0&#45;&gt;1</title>
<path fill="none" stroke="black" d="M738.456,-648.055C726.977,-639.027 712.692,-627.792 700.227,-617.987"/>
<polygon fill="black" stroke="black" points="702.37,-615.22 692.346,-611.789 698.042,-620.722 702.37,-615.22"/>
</g>
<!-- 3 -->
<g id="node4" class="node"><title>3</title>
<ellipse fill="none" stroke="black" cx="180" cy="-450" rx="114.28" ry="18"/>
<text text-anchor="middle" x="180" y="-446.3" font-family="Times,serif" font-size="14.00">Graphs with bundled vertices</text>
</g>
<!-- 0&#45;&gt;3 -->
<g id="edge2" class="edge"><title>0&#45;&gt;3</title>
<path fill="none" stroke="black" d="M658.223,-663.31C544.953,-656.665 361.274,-631.202 235,-540 213.488,-524.463 198.617,-497.674 189.813,-477.536"/>
<polygon fill="black" stroke="black" points="193.033,-476.165 185.976,-468.263 186.565,-478.841 193.033,-476.165"/>
</g>
<!-- 5 -->
<g id="node6" class="node"><title>5</title>
<ellipse fill="none" stroke="black" cx="463" cy="-234" rx="112.38" ry="18"/>
<text text-anchor="middle" x="463" y="-230.3" font-family="Times,serif" font-size="14.00">Graphs with custom vertices</text>
</g>
<!-- 0&#45;&gt;5 -->
<g id="edge3" class="edge"><title>0&#45;&gt;5</title>
<path fill="none" stroke="black" d="M772.675,-647.832C779.218,-637.905 786.54,-624.865 790,-612 827.403,-472.936 886.406,-397.604 793,-288 766.056,-256.383 666.023,-243.554 583.087,-238.386"/>
<polygon fill="black" stroke="black" points="583.253,-234.89 573.064,-237.793 582.839,-241.878 583.253,-234.89"/>
</g>
<!-- 9 -->
<g id="node10" class="node"><title>9</title>
<ellipse fill="none" stroke="black" cx="679" cy="-306" rx="104.782" ry="18"/>
<text text-anchor="middle" x="679" y="-302.3" font-family="Times,serif" font-size="14.00">Graphs with a graph name</text>
</g>
<!-- 0&#45;&gt;9 -->
<g id="edge4" class="edge"><title>0&#45;&gt;9</title>
<path fill="none" stroke="black" d="M772.727,-647.845C779.286,-637.923 786.607,-624.883 790,-612 793.87,-597.306 792.632,-522.693 788,-504 771.358,-436.846 725.622,-368.379 698.979,-332.517"/>
<polygon fill="black" stroke="black" points="701.463,-329.998 692.646,-324.123 695.875,-334.214 701.463,-329.998"/>
</g>
<!-- 2 -->
<g id="node3" class="node"><title>2</title>
<ellipse fill="none" stroke="black" cx="486" cy="-522" rx="147.574" ry="18"/>
<text text-anchor="middle" x="486" y="-518.3" font-family="Times,serif" font-size="14.00">Graphs with named edges and vertices</text>
</g>
<!-- 1&#45;&gt;2 -->
<g id="edge5" class="edge"><title>1&#45;&gt;2</title>
<path fill="none" stroke="black" d="M629.482,-577.291C602.587,-567.114 567.33,-553.773 538.496,-542.863"/>
<polygon fill="black" stroke="black" points="539.577,-539.53 528.985,-539.265 537.099,-546.077 539.577,-539.53"/>
</g>
<!-- 1&#45;&gt;3 -->
<g id="edge6" class="edge"><title>1&#45;&gt;3</title>
<path fill="none" stroke="black" d="M560.793,-592.467C481.668,-588.792 374.151,-576.582 287,-540 251.304,-525.016 216.968,-496.297 196.945,-475.526"/>
<polygon fill="black" stroke="black" points="199.353,-472.975 189.998,-468 194.209,-477.723 199.353,-472.975"/>
</g>
<!-- 1&#45;&gt;5 -->
<g id="edge7" class="edge"><title>1&#45;&gt;5</title>
<path fill="none" stroke="black" d="M660.28,-575.799C653.349,-557.518 645.007,-527.999 634,-504 586.902,-401.313 567.016,-378.949 500,-288 492.989,-278.486 484.687,-268.572 477.568,-259.928"/>
<polygon fill="black" stroke="black" points="480.213,-257.632 471.187,-252.084 474.783,-262.05 480.213,-257.632"/>
</g>
<!-- 1&#45;&gt;9 -->
<g id="edge8" class="edge"><title>1&#45;&gt;9</title>
<path fill="none" stroke="black" d="M672.667,-575.928C676.64,-565.821 682.39,-552.571 685,-540 700.193,-466.824 685.721,-378.194 679.796,-334.327"/>
<polygon fill="black" stroke="black" points="683.238,-333.65 678.497,-324.175 676.294,-334.539 683.238,-333.65"/>
</g>
<!-- 2&#45;&gt;3 -->
<g id="edge9" class="edge"><title>2&#45;&gt;3</title>
<path fill="none" stroke="black" d="M419.979,-505.897C370.483,-494.575 302.8,-479.092 251.93,-467.455"/>
<polygon fill="black" stroke="black" points="252.52,-463.999 241.991,-465.181 250.959,-470.823 252.52,-463.999"/>
</g>
<!-- 2&#45;&gt;5 -->
<g id="edge10" class="edge"><title>2&#45;&gt;5</title>
<path fill="none" stroke="black" d="M492.571,-503.551C502.858,-473.943 520.643,-412.009 511,-360 504.416,-324.486 488.142,-286.035 476.366,-261.295"/>
<polygon fill="black" stroke="black" points="479.468,-259.669 471.948,-252.206 473.172,-262.73 479.468,-259.669"/>
</g>
<!-- 2&#45;&gt;9 -->
<g id="edge11" class="edge"><title>2&#45;&gt;9</title>
<path fill="none" stroke="black" d="M538.784,-505.108C559.812,-496.724 583.002,-484.645 600,-468 638.707,-430.097 661.293,-369.34 671.79,-334.307"/>
<polygon fill="black" stroke="black" points="675.264,-334.892 674.665,-324.314 668.537,-332.957 675.264,-334.892"/>
</g>
<!-- 3&#45;&gt;1 -->
<g id="edge12" class="edge"><title>3&#45;&gt;1</title>
<path fill="none" stroke="black" d="M202.539,-468C226.217,-488.735 264.743,-523.102 305,-540 383.169,-572.812 477.723,-586.017 551.179,-591.041"/>
<polygon fill="black" stroke="black" points="551.196,-594.55 561.4,-591.697 551.644,-587.564 551.196,-594.55"/>
</g>
<!-- 4 -->
<g id="node5" class="node"><title>4</title>
<ellipse fill="none" stroke="black" cx="350" cy="-378" rx="152.173" ry="18"/>
<text text-anchor="middle" x="350" y="-374.3" font-family="Times,serif" font-size="14.00">Graphs with bundled edges and vertices</text>
</g>
<!-- 3&#45;&gt;4 -->
<g id="edge13" class="edge"><title>3&#45;&gt;4</title>
<path fill="none" stroke="black" d="M219.001,-432.941C243.272,-422.947 274.703,-410.004 300.694,-399.302"/>
<polygon fill="black" stroke="black" points="302.086,-402.515 310,-395.471 299.42,-396.042 302.086,-402.515"/>
</g>
<!-- 3&#45;&gt;5 -->
<g id="edge14" class="edge"><title>3&#45;&gt;5</title>
<path fill="none" stroke="black" d="M170.528,-431.853C165.666,-412.532 164.893,-381.081 180,-360 225.191,-296.937 310.048,-264.985 375.158,-249.264"/>
<polygon fill="black" stroke="black" points="376.075,-252.645 385.022,-246.97 374.489,-245.827 376.075,-252.645"/>
</g>
<!-- 3&#45;&gt;9 -->
<g id="edge15" class="edge"><title>3&#45;&gt;9</title>
<path fill="none" stroke="black" d="M279.072,-440.862C343.75,-433.66 429.289,-420.336 502,-396 551.707,-379.363 604.394,-349.118 639.384,-328.55"/>
<polygon fill="black" stroke="black" points="641.485,-331.375 648.326,-323.285 637.933,-325.343 641.485,-331.375"/>
</g>
<!-- 4&#45;&gt;1 -->
<g id="edge16" class="edge"><title>4&#45;&gt;1</title>
<path fill="none" stroke="black" d="M340.115,-396.451C323.204,-428.89 293.783,-498.904 329,-540 357.535,-573.298 464.722,-585.855 551.589,-590.497"/>
<polygon fill="black" stroke="black" points="551.641,-594.005 561.805,-591.013 551.994,-587.013 551.641,-594.005"/>
</g>
<!-- 4&#45;&gt;5 -->
<g id="edge17" class="edge"><title>4&#45;&gt;5</title>
<path fill="none" stroke="black" d="M363.63,-359.871C383.398,-335.031 420.15,-288.846 442.993,-260.142"/>
<polygon fill="black" stroke="black" points="445.833,-262.193 449.321,-252.189 440.356,-257.835 445.833,-262.193"/>
</g>
<!-- 4&#45;&gt;9 -->
<g id="edge18" class="edge"><title>4&#45;&gt;9</title>
<path fill="none" stroke="black" d="M420.579,-361.983C475.236,-350.354 550.697,-334.298 605.965,-322.539"/>
<polygon fill="black" stroke="black" points="606.988,-325.9 616.041,-320.396 605.531,-319.053 606.988,-325.9"/>
</g>
<!-- 5&#45;&gt;1 -->
<g id="edge19" class="edge"><title>5&#45;&gt;1</title>
<path fill="none" stroke="black" d="M486.454,-251.612C496.889,-261.781 508.604,-275.249 518,-288 585.016,-378.949 604.902,-401.313 652,-504 661.158,-523.968 668.472,-547.757 671.986,-565.715"/>
<polygon fill="black" stroke="black" points="668.567,-566.494 673.634,-575.799 675.475,-565.365 668.567,-566.494"/>
</g>
<!-- 5&#45;&gt;3 -->
<g id="edge20" class="edge"><title>5&#45;&gt;3</title>
<path fill="none" stroke="black" d="M393.811,-248.219C331.92,-263.55 244.217,-295.506 198,-360 185.312,-377.705 183.826,-402.724 183.595,-421.729"/>
<polygon fill="black" stroke="black" points="180.094,-421.831 183.531,-431.853 187.094,-421.875 180.094,-421.831"/>
</g>
<!-- 6 -->
<g id="node7" class="node"><title>6</title>
<ellipse fill="none" stroke="black" cx="434" cy="-90" rx="164.371" ry="18"/>
<text text-anchor="middle" x="434" y="-86.3" font-family="Times,serif" font-size="14.00">Graphs with custom and selectable vertices</text>
</g>
<!-- 5&#45;&gt;6 -->
<g id="edge22" class="edge"><title>5&#45;&gt;6</title>
<path fill="none" stroke="black" d="M459.502,-215.871C454.538,-191.564 445.4,-146.819 439.517,-118.013"/>
<polygon fill="black" stroke="black" points="442.941,-117.287 437.51,-108.189 436.082,-118.687 442.941,-117.287"/>
</g>
<!-- 7 -->
<g id="node8" class="node"><title>7</title>
<ellipse fill="none" stroke="black" cx="212" cy="-162" rx="149.473" ry="18"/>
<text text-anchor="middle" x="212" y="-158.3" font-family="Times,serif" font-size="14.00">Graphs with custom edges and vertices</text>
</g>
<!-- 5&#45;&gt;7 -->
<g id="edge21" class="edge"><title>5&#45;&gt;7</title>
<path fill="none" stroke="black" d="M409.462,-218.069C371.155,-207.386 319.338,-192.935 278.397,-181.517"/>
<polygon fill="black" stroke="black" points="279.078,-178.073 268.505,-178.758 277.197,-184.816 279.078,-178.073"/>
</g>
<!-- 5&#45;&gt;9 -->
<g id="edge23" class="edge"><title>5&#45;&gt;9</title>
<path fill="none" stroke="black" d="M514.977,-250.011C548.95,-260.597 593.075,-274.853 627.041,-286.197"/>
<polygon fill="black" stroke="black" points="626.189,-289.603 636.783,-289.465 628.415,-282.966 626.189,-289.603"/>
</g>
<!-- 6&#45;&gt;1 -->
<g id="edge24" class="edge"><title>6&#45;&gt;1</title>
<path fill="none" stroke="black" d="M505.904,-106.22C592.618,-128.944 734.06,-181.064 793,-288 847.595,-387.053 744.385,-515.678 695.105,-568.612"/>
<polygon fill="black" stroke="black" points="692.301,-566.482 687.97,-576.151 697.386,-571.293 692.301,-566.482"/>
</g>
<!-- 6&#45;&gt;3 -->
<g id="edge25" class="edge"><title>6&#45;&gt;3</title>
<path fill="none" stroke="black" d="M423.89,-108.309C412.343,-127.212 392.163,-157.754 370,-180 286.295,-264.021 207.368,-246.489 173,-360 166.88,-380.213 169.258,-404.122 172.821,-422.067"/>
<polygon fill="black" stroke="black" points="169.414,-422.868 175.001,-431.87 176.247,-421.349 169.414,-422.868"/>
</g>
<!-- 6&#45;&gt;7 -->
<g id="edge26" class="edge"><title>6&#45;&gt;7</title>
<path fill="none" stroke="black" d="M387.97,-107.347C356.044,-117.78 313.133,-131.336 277.646,-142.212"/>
<polygon fill="black" stroke="black" points="276.391,-138.935 267.849,-145.203 278.435,-145.63 276.391,-138.935"/>
</g>
<!-- 8 -->
<g id="node9" class="node"><title>8</title>
<ellipse fill="none" stroke="black" cx="434" cy="-18" rx="202.264" ry="18"/>
<text text-anchor="middle" x="434" y="-14.3" font-family="Times,serif" font-size="14.00">Graphs with custom and selectable edges and vertices</text>
</g>
<!-- 6&#45;&gt;8 -->
<g id="edge27" class="edge"><title>6&#45;&gt;8</title>
<path fill="none" stroke="black" d="M434,-71.6966C434,-63.9827 434,-54.7125 434,-46.1124"/>
<polygon fill="black" stroke="black" points="437.5,-46.1043 434,-36.1043 430.5,-46.1044 437.5,-46.1043"/>
</g>
<!-- 6&#45;&gt;9 -->
<g id="edge28" class="edge"><title>6&#45;&gt;9</title>
<path fill="none" stroke="black" d="M465.909,-107.779C504.83,-129.282 571.208,-169.401 618,-216 636.935,-234.857 653.709,-260.335 664.851,-279.199"/>
<polygon fill="black" stroke="black" points="661.824,-280.957 669.853,-287.87 667.888,-277.459 661.824,-280.957"/>
</g>
<!-- 7&#45;&gt;1 -->
<g id="edge29" class="edge"><title>7&#45;&gt;1</title>
<path fill="none" stroke="black" d="M163.068,-179.128C111.603,-199.54 38,-240.08 38,-305 38,-451 38,-451 38,-451 38,-555.181 368.582,-582.945 551.945,-590.332"/>
<polygon fill="black" stroke="black" points="552.055,-593.838 562.183,-590.729 552.327,-586.844 552.055,-593.838"/>
</g>
<!-- 7&#45;&gt;3 -->
<g id="edge30" class="edge"><title>7&#45;&gt;3</title>
<path fill="none" stroke="black" d="M189.044,-179.799C161.792,-201.323 117.799,-241.461 100,-288 82.853,-332.833 77.2897,-353.712 100,-396 107.109,-409.237 119.138,-419.726 131.738,-427.759"/>
<polygon fill="black" stroke="black" points="130.109,-430.861 140.499,-432.932 133.668,-424.834 130.109,-430.861"/>
</g>
<!-- 7&#45;&gt;6 -->
<g id="edge31" class="edge"><title>7&#45;&gt;6</title>
<path fill="none" stroke="black" d="M257.688,-144.765C289.424,-134.391 332.133,-120.895 367.6,-110.02"/>
<polygon fill="black" stroke="black" points="368.855,-113.296 377.396,-107.026 366.81,-106.601 368.855,-113.296"/>
</g>
<!-- 7&#45;&gt;8 -->
<g id="edge32" class="edge"><title>7&#45;&gt;8</title>
<path fill="none" stroke="black" d="M217.116,-143.663C223.922,-123.564 237.866,-90.7992 261,-72 280.8,-55.9101 305.449,-44.6949 329.878,-36.8808"/>
<polygon fill="black" stroke="black" points="331.025,-40.1907 339.583,-33.9453 328.998,-33.4905 331.025,-40.1907"/>
</g>
<!-- 7&#45;&gt;9 -->
<g id="edge33" class="edge"><title>7&#45;&gt;9</title>
<path fill="none" stroke="black" d="M334.308,-172.454C425.315,-180.967 540.913,-195.337 584,-216 592.403,-220.03 629.413,-255.811 654.68,-280.757"/>
<polygon fill="black" stroke="black" points="652.531,-283.555 662.1,-288.104 657.456,-278.581 652.531,-283.555"/>
</g>
<!-- 8&#45;&gt;1 -->
<g id="edge34" class="edge"><title>8&#45;&gt;1</title>
<path fill="none" stroke="black" d="M553.283,-32.5427C687.796,-51.2173 888,-90.8028 888,-161 888,-307 888,-307 888,-307 888,-330.102 789.114,-498.735 749,-540 737.486,-551.845 722.931,-562.586 709.521,-571.253"/>
<polygon fill="black" stroke="black" points="707.536,-568.367 700.918,-576.64 711.251,-574.3 707.536,-568.367"/>
</g>
<!-- 8&#45;&gt;3 -->
<g id="edge35" class="edge"><title>8&#45;&gt;3</title>
<path fill="none" stroke="black" d="M322.798,-33.0652C194.21,-52.5117 0,-93.1184 0,-161 0,-307 0,-307 0,-307 0,-369.764 68.293,-409.084 120.748,-430.027"/>
<polygon fill="black" stroke="black" points="119.748,-433.393 130.338,-433.726 122.267,-426.862 119.748,-433.393"/>
</g>
<!-- 8&#45;&gt;9 -->
<g id="edge36" class="edge"><title>8&#45;&gt;9</title>
<path fill="none" stroke="black" d="M538.497,-33.5297C563.57,-41.3967 588.43,-53.4754 607,-72 663.868,-128.73 675.991,-229.345 678.456,-277.641"/>
<polygon fill="black" stroke="black" points="674.971,-278.079 678.873,-287.929 681.965,-277.796 674.971,-278.079"/>
</g>
<!-- 9&#45;&gt;1 -->
<g id="edge37" class="edge"><title>9&#45;&gt;1</title>
<path fill="none" stroke="black" d="M687.914,-324.175C701.055,-363.06 719.481,-460.623 703,-540 701.104,-549.134 697.55,-558.626 693.361,-567.01"/>
<polygon fill="black" stroke="black" points="690.205,-565.485 688.417,-575.928 696.327,-568.879 690.205,-565.485"/>
</g>
<!-- 9&#45;&gt;3 -->
<g id="edge38" class="edge"><title>9&#45;&gt;3</title>
<path fill="none" stroke="black" d="M660.011,-323.816C630.835,-344.197 573.68,-378.034 520,-396 446.772,-420.509 360.531,-433.85 293.186,-441.015"/>
<polygon fill="black" stroke="black" points="292.556,-437.562 282.969,-442.071 293.275,-444.524 292.556,-437.562"/>
</g>
<!-- 9&#45;&gt;5 -->
<g id="edge39" class="edge"><title>9&#45;&gt;5</title>
<path fill="none" stroke="black" d="M627.831,-290.24C593.945,-279.69 549.7,-265.4 515.542,-253.998"/>
<polygon fill="black" stroke="black" points="516.336,-250.572 505.742,-250.712 514.11,-257.209 516.336,-250.572"/>
</g>
</g>
</svg>
