<?xml version="1.0" encoding="UTF-8" standalone="no"?>
<!DOCTYPE svg PUBLIC "-//W3C//DTD SVG 1.1//EN"
 "http://www.w3.org/Graphics/SVG/1.1/DTD/svg11.dtd">
<!-- Generated by graphviz version 2.36.0 (20140111.2315)
 -->
<!-- Title: G Pages: 1 -->
<svg width="570pt" height="620pt"
 viewBox="0.00 0.00 570.00 620.00" xmlns="http://www.w3.org/2000/svg" xmlns:xlink="http://www.w3.org/1999/xlink">
<g id="graph0" class="graph" transform="scale(1 1) rotate(0) translate(4 616)">
<title>G</title>
<polygon fill="white" stroke="none" points="-4,4 -4,-616 566,-616 566,4 -4,4"/>
<!-- 0 -->
<g id="node1" class="node"><title>0</title>
<ellipse fill="none" stroke="black" cx="400" cy="-594" rx="27" ry="18"/>
<text text-anchor="middle" x="400" y="-590.3" font-family="Times,serif" font-size="14.00">0</text>
</g>
<!-- 1 -->
<g id="node2" class="node"><title>1</title>
<ellipse fill="none" stroke="black" cx="311" cy="-522" rx="27" ry="18"/>
<text text-anchor="middle" x="311" y="-518.3" font-family="Times,serif" font-size="14.00">1</text>
</g>
<!-- 0&#45;&gt;1 -->
<g id="edge1" class="edge"><title>0&#45;&gt;1</title>
<path fill="none" stroke="black" d="M383.26,-579.834C369.919,-569.341 351.037,-554.489 335.92,-542.6"/>
<polygon fill="black" stroke="black" points="337.992,-539.777 327.968,-536.345 333.664,-545.279 337.992,-539.777"/>
</g>
<!-- 3 -->
<g id="node4" class="node"><title>3</title>
<ellipse fill="none" stroke="black" cx="135" cy="-378" rx="27" ry="18"/>
<text text-anchor="middle" x="135" y="-374.3" font-family="Times,serif" font-size="14.00">3</text>
</g>
<!-- 0&#45;&gt;3 -->
<g id="edge2" class="edge"><title>0&#45;&gt;3</title>
<path fill="none" stroke="black" d="M373.868,-588.638C321.054,-578.303 202.051,-546.998 148,-468 135.633,-449.925 132.915,-424.941 132.985,-406.044"/>
<polygon fill="black" stroke="black" points="136.485,-406.087 133.282,-395.988 129.488,-405.88 136.485,-406.087"/>
</g>
<!-- 5 -->
<g id="node6" class="node"><title>5</title>
<ellipse fill="none" stroke="black" cx="297" cy="-90" rx="27" ry="18"/>
<text text-anchor="middle" x="297" y="-86.3" font-family="Times,serif" font-size="14.00">5</text>
</g>
<!-- 0&#45;&gt;5 -->
<g id="edge3" class="edge"><title>0&#45;&gt;5</title>
<path fill="none" stroke="black" d="M423.556,-584.947C468.487,-567.92 562,-523.743 562,-451 562,-451 562,-451 562,-233 562,-130.766 406.872,-101.847 333.995,-93.9015"/>
<polygon fill="black" stroke="black" points="334.17,-90.4014 323.868,-92.8752 333.464,-97.3657 334.17,-90.4014"/>
</g>
<!-- 7 -->
<g id="node8" class="node"><title>7</title>
<ellipse fill="none" stroke="black" cx="297" cy="-234" rx="27" ry="18"/>
<text text-anchor="middle" x="297" y="-230.3" font-family="Times,serif" font-size="14.00">7</text>
</g>
<!-- 0&#45;&gt;7 -->
<g id="edge4" class="edge"><title>0&#45;&gt;7</title>
<path fill="none" stroke="black" d="M406.603,-576.432C424.884,-527.643 470.982,-382.033 411,-288 393.931,-261.241 359.468,-247.781 332.88,-241.145"/>
<polygon fill="black" stroke="black" points="333.657,-237.732 323.129,-238.923 332.101,-244.557 333.657,-237.732"/>
</g>
<!-- 2 -->
<g id="node3" class="node"><title>2</title>
<ellipse fill="none" stroke="black" cx="247" cy="-450" rx="27" ry="18"/>
<text text-anchor="middle" x="247" y="-446.3" font-family="Times,serif" font-size="14.00">2</text>
</g>
<!-- 1&#45;&gt;2 -->
<g id="edge5" class="edge"><title>1&#45;&gt;2</title>
<path fill="none" stroke="black" d="M297.427,-506.155C288.688,-496.596 277.166,-483.994 267.342,-473.249"/>
<polygon fill="black" stroke="black" points="269.884,-470.842 260.553,-465.824 264.718,-475.566 269.884,-470.842"/>
</g>
<!-- 1&#45;&gt;3 -->
<g id="edge6" class="edge"><title>1&#45;&gt;3</title>
<path fill="none" stroke="black" d="M284.679,-517.897C252.718,-512.524 199.774,-498.939 167,-468 149.36,-451.348 138.651,-425.634 134.179,-406.119"/>
<polygon fill="black" stroke="black" points="137.573,-405.22 132.333,-396.012 130.687,-406.479 137.573,-405.22"/>
</g>
<!-- 1&#45;&gt;5 -->
<g id="edge7" class="edge"><title>1&#45;&gt;5</title>
<path fill="none" stroke="black" d="M317.628,-504.412C324.963,-494.252 335.663,-480.784 344,-468 383.53,-407.384 402.601,-394.244 420,-324 423.847,-308.469 420.555,-303.99 420,-288 418.888,-255.942 424.597,-246.608 415,-216 403.848,-180.435 398.031,-170.676 372,-144 358.138,-129.794 339.758,-117.648 324.545,-108.581"/>
<polygon fill="black" stroke="black" points="325.953,-105.351 315.55,-103.343 322.43,-111.4 325.953,-105.351"/>
</g>
<!-- 1&#45;&gt;7 -->
<g id="edge8" class="edge"><title>1&#45;&gt;7</title>
<path fill="none" stroke="black" d="M306.753,-503.966C300.231,-456.178 293.341,-320.544 294.166,-262.215"/>
<polygon fill="black" stroke="black" points="297.672,-262.03 294.424,-251.945 290.674,-261.854 297.672,-262.03"/>
</g>
<!-- 2&#45;&gt;3 -->
<g id="edge9" class="edge"><title>2&#45;&gt;3</title>
<path fill="none" stroke="black" d="M228.001,-437.125C210.06,-425.913 182.949,-408.968 162.62,-396.263"/>
<polygon fill="black" stroke="black" points="164.427,-393.265 154.092,-390.933 160.717,-399.201 164.427,-393.265"/>
</g>
<!-- 2&#45;&gt;5 -->
<g id="edge10" class="edge"><title>2&#45;&gt;5</title>
<path fill="none" stroke="black" d="M269.545,-439.861C307.083,-423.247 381.214,-384.154 411,-324 449.753,-245.736 364.372,-152.337 320.69,-111.647"/>
<polygon fill="black" stroke="black" points="322.803,-108.837 313.059,-104.679 318.083,-114.006 322.803,-108.837"/>
</g>
<!-- 2&#45;&gt;7 -->
<g id="edge11" class="edge"><title>2&#45;&gt;7</title>
<path fill="none" stroke="black" d="M251.007,-431.849C259.696,-394.662 280.324,-306.374 290.745,-261.772"/>
<polygon fill="black" stroke="black" points="294.176,-262.469 293.043,-251.935 287.36,-260.877 294.176,-262.469"/>
</g>
<!-- 3&#45;&gt;1 -->
<g id="edge12" class="edge"><title>3&#45;&gt;1</title>
<path fill="none" stroke="black" d="M144.744,-394.971C152.528,-414.642 163.722,-447.914 185,-468 210.408,-491.986 247.939,-505.541 275.551,-512.926"/>
<polygon fill="black" stroke="black" points="275.049,-516.409 285.601,-515.463 276.762,-509.622 275.049,-516.409"/>
</g>
<!-- 4 -->
<g id="node5" class="node"><title>4</title>
<ellipse fill="none" stroke="black" cx="375" cy="-306" rx="27" ry="18"/>
<text text-anchor="middle" x="375" y="-302.3" font-family="Times,serif" font-size="14.00">4</text>
</g>
<!-- 3&#45;&gt;4 -->
<g id="edge13" class="edge"><title>3&#45;&gt;4</title>
<path fill="none" stroke="black" d="M159.333,-369.903C202.278,-357.377 291.61,-331.322 340.756,-316.988"/>
<polygon fill="black" stroke="black" points="341.982,-320.276 350.602,-314.116 340.022,-313.556 341.982,-320.276"/>
</g>
<!-- 3&#45;&gt;5 -->
<g id="edge14" class="edge"><title>3&#45;&gt;5</title>
<path fill="none" stroke="black" d="M125.284,-361.176C107.901,-320.501 80.5188,-210.812 130,-144 159.48,-104.195 220.193,-93.926 259.872,-91.4907"/>
<polygon fill="black" stroke="black" points="260.146,-94.9817 269.968,-91.01 259.813,-87.9896 260.146,-94.9817"/>
</g>
<!-- 3&#45;&gt;7 -->
<g id="edge15" class="edge"><title>3&#45;&gt;7</title>
<path fill="none" stroke="black" d="M147.692,-362.072C174.33,-336.033 235.414,-282.368 270.771,-253.822"/>
<polygon fill="black" stroke="black" points="273.106,-256.436 278.747,-247.468 268.745,-250.961 273.106,-256.436"/>
</g>
<!-- 4&#45;&gt;1 -->
<g id="edge16" class="edge"><title>4&#45;&gt;1</title>
<path fill="none" stroke="black" d="M371.571,-324.183C365.43,-353.913 351.541,-416.69 334,-468 330.888,-477.103 326.88,-486.824 323.084,-495.422"/>
<polygon fill="black" stroke="black" points="319.882,-494.007 318.947,-504.56 326.259,-496.894 319.882,-494.007"/>
</g>
<!-- 4&#45;&gt;5 -->
<g id="edge17" class="edge"><title>4&#45;&gt;5</title>
<path fill="none" stroke="black" d="M369.663,-287.918C360.311,-258.34 340.045,-195.786 320,-144 316.527,-135.029 312.429,-125.341 308.66,-116.732"/>
<polygon fill="black" stroke="black" points="311.85,-115.291 304.597,-107.567 305.451,-118.128 311.85,-115.291"/>
</g>
<!-- 4&#45;&gt;7 -->
<g id="edge18" class="edge"><title>4&#45;&gt;7</title>
<path fill="none" stroke="black" d="M359.59,-291.17C348.266,-281.008 332.691,-267.03 319.911,-255.561"/>
<polygon fill="black" stroke="black" points="322.158,-252.875 312.378,-248.801 317.483,-258.085 322.158,-252.875"/>
</g>
<!-- 5&#45;&gt;1 -->
<g id="edge19" class="edge"><title>5&#45;&gt;1</title>
<path fill="none" stroke="black" d="M320.73,-98.7731C341.331,-107.701 370.25,-123.76 390,-144 416.031,-170.676 421.848,-180.435 433,-216 442.597,-246.608 436.888,-255.942 438,-288 438.555,-303.99 441.847,-308.469 438,-324 420.601,-394.244 401.53,-407.384 362,-468 354.511,-479.484 345.114,-491.52 336.255,-501.214"/>
<polygon fill="black" stroke="black" points="333.722,-498.798 329.311,-508.431 338.767,-503.651 333.722,-498.798"/>
</g>
<!-- 5&#45;&gt;3 -->
<g id="edge20" class="edge"><title>5&#45;&gt;3</title>
<path fill="none" stroke="black" d="M269.917,-91.6844C235.232,-94.4478 176.756,-105.171 148,-144 102.541,-205.381 121.957,-302.95 131.674,-349.948"/>
<polygon fill="black" stroke="black" points="128.292,-350.878 133.733,-359.969 135.148,-349.469 128.292,-350.878"/>
</g>
<!-- 6 -->
<g id="node7" class="node"><title>6</title>
<ellipse fill="none" stroke="black" cx="139" cy="-18" rx="27" ry="18"/>
<text text-anchor="middle" x="139" y="-14.3" font-family="Times,serif" font-size="14.00">6</text>
</g>
<!-- 5&#45;&gt;6 -->
<g id="edge21" class="edge"><title>5&#45;&gt;6</title>
<path fill="none" stroke="black" d="M275.031,-79.2668C247.792,-67.1991 201.186,-46.5505 170.236,-32.8389"/>
<polygon fill="black" stroke="black" points="171.343,-29.5012 160.783,-28.6505 168.508,-35.9012 171.343,-29.5012"/>
</g>
<!-- 5&#45;&gt;7 -->
<g id="edge22" class="edge"><title>5&#45;&gt;7</title>
<path fill="none" stroke="black" d="M301.552,-107.825C304.15,-132.046 304.445,-177 302.437,-205.928"/>
<polygon fill="black" stroke="black" points="298.927,-205.889 301.555,-216.153 305.901,-206.491 298.927,-205.889"/>
</g>
<!-- 6&#45;&gt;1 -->
<g id="edge23" class="edge"><title>6&#45;&gt;1</title>
<path fill="none" stroke="black" d="M117.281,-28.7682C78.1875,-48.0069 0,-94.7639 0,-161 0,-379 0,-379 0,-379 0,-498.127 191.155,-517.744 273.737,-520.661"/>
<polygon fill="black" stroke="black" points="273.848,-524.165 283.945,-520.955 274.05,-517.168 273.848,-524.165"/>
</g>
<!-- 6&#45;&gt;3 -->
<g id="edge24" class="edge"><title>6&#45;&gt;3</title>
<path fill="none" stroke="black" d="M121.407,-31.6958C92.47,-54.2036 38,-104.125 38,-161 38,-235 38,-235 38,-235 38,-286.032 81.2441,-332.222 109.985,-357.286"/>
<polygon fill="black" stroke="black" points="107.764,-359.992 117.658,-363.781 112.287,-354.649 107.764,-359.992"/>
</g>
<!-- 6&#45;&gt;7 -->
<g id="edge25" class="edge"><title>6&#45;&gt;7</title>
<path fill="none" stroke="black" d="M150.472,-34.5384C177.848,-71.6171 247.132,-165.457 279.647,-209.497"/>
<polygon fill="black" stroke="black" points="276.882,-211.644 285.637,-217.61 282.513,-207.486 276.882,-211.644"/>
</g>
<!-- 7&#45;&gt;1 -->
<g id="edge26" class="edge"><title>7&#45;&gt;1</title>
<path fill="none" stroke="black" d="M301.235,-251.945C307.756,-299.623 314.651,-435.251 313.835,-493.676"/>
<polygon fill="black" stroke="black" points="310.329,-493.882 313.579,-503.966 317.327,-494.056 310.329,-493.882"/>
</g>
<!-- 7&#45;&gt;3 -->
<g id="edge27" class="edge"><title>7&#45;&gt;3</title>
<path fill="none" stroke="black" d="M284.277,-249.958C257.583,-276.048 196.39,-329.804 161.071,-358.306"/>
<polygon fill="black" stroke="black" points="158.75,-355.68 153.107,-364.647 163.11,-361.157 158.75,-355.68"/>
</g>
<!-- 7&#45;&gt;5 -->
<g id="edge28" class="edge"><title>7&#45;&gt;5</title>
<path fill="none" stroke="black" d="M292.445,-216.153C289.849,-191.92 289.556,-146.965 291.565,-118.046"/>
<polygon fill="black" stroke="black" points="295.074,-118.089 292.448,-107.825 288.1,-117.487 295.074,-118.089"/>
</g>
<!-- 8 -->
<g id="node9" class="node"><title>8</title>
<ellipse fill="none" stroke="black" cx="175" cy="-162" rx="27" ry="18"/>
<text text-anchor="middle" x="175" y="-158.3" font-family="Times,serif" font-size="14.00">8</text>
</g>
<!-- 7&#45;&gt;8 -->
<g id="edge29" class="edge"><title>7&#45;&gt;8</title>
<path fill="none" stroke="black" d="M277.127,-221.597C257.188,-210.157 226.274,-192.42 203.679,-179.455"/>
<polygon fill="black" stroke="black" points="205.28,-176.339 194.864,-174.398 201.796,-182.41 205.28,-176.339"/>
</g>
<!-- 8&#45;&gt;1 -->
<g id="edge30" class="edge"><title>8&#45;&gt;1</title>
<path fill="none" stroke="black" d="M174.982,-180.325C175.234,-237.724 178.614,-420.709 211,-468 226.28,-490.313 254.035,-503.953 276.434,-511.796"/>
<polygon fill="black" stroke="black" points="275.376,-515.133 285.968,-514.907 277.547,-508.478 275.376,-515.133"/>
</g>
<!-- 8&#45;&gt;3 -->
<g id="edge31" class="edge"><title>8&#45;&gt;3</title>
<path fill="none" stroke="black" d="M168.077,-179.43C163.986,-189.759 159.029,-203.458 156,-216 144.823,-262.281 139.253,-317.578 136.757,-349.846"/>
<polygon fill="black" stroke="black" points="133.264,-349.631 136.025,-359.86 140.245,-350.142 133.264,-349.631"/>
</g>
<!-- 8&#45;&gt;5 -->
<g id="edge32" class="edge"><title>8&#45;&gt;5</title>
<path fill="none" stroke="black" d="M194.873,-149.597C214.812,-138.157 245.726,-120.42 268.321,-107.455"/>
<polygon fill="black" stroke="black" points="270.204,-110.41 277.136,-102.398 266.72,-104.339 270.204,-110.41"/>
</g>
</g>
</svg>
