<?xml version="1.0" encoding="UTF-8" standalone="no"?>
<!DOCTYPE svg PUBLIC "-//W3C//DTD SVG 1.1//EN"
 "http://www.w3.org/Graphics/SVG/1.1/DTD/svg11.dtd">
<!-- Generated by graphviz version 2.38.0 (20140413.2041)
 -->
<!-- Title: G Pages: 1 -->
<svg width="646pt" height="692pt"
 viewBox="0.00 0.00 646.00 692.00" xmlns="http://www.w3.org/2000/svg" xmlns:xlink="http://www.w3.org/1999/xlink">
<g id="graph0" class="graph" transform="scale(1 1) rotate(0) translate(4 688)">
<title>G</title>
<polygon fill="white" stroke="none" points="-4,4 -4,-688 642,-688 642,4 -4,4"/>
<!-- 0 -->
<g id="node1" class="node"><title>0</title>
<ellipse fill="none" stroke="black" cx="359" cy="-666" rx="27" ry="18"/>
<text text-anchor="middle" x="359" y="-662.3" font-family="Times,serif" font-size="14.00">0</text>
</g>
<!-- 1 -->
<g id="node2" class="node"><title>1</title>
<ellipse fill="none" stroke="black" cx="318" cy="-594" rx="27" ry="18"/>
<text text-anchor="middle" x="318" y="-590.3" font-family="Times,serif" font-size="14.00">1</text>
</g>
<!-- 0&#45;&gt;1 -->
<g id="edge1" class="edge"><title>0&#45;&gt;1</title>
<path fill="none" stroke="black" d="M349.491,-648.765C344.471,-640.195 338.204,-629.494 332.585,-619.9"/>
<polygon fill="black" stroke="black" points="335.532,-618.007 327.458,-611.147 329.492,-621.545 335.532,-618.007"/>
</g>
<!-- 3 -->
<g id="node4" class="node"><title>3</title>
<ellipse fill="none" stroke="black" cx="391" cy="-450" rx="27" ry="18"/>
<text text-anchor="middle" x="391" y="-446.3" font-family="Times,serif" font-size="14.00">3</text>
</g>
<!-- 0&#45;&gt;3 -->
<g id="edge2" class="edge"><title>0&#45;&gt;3</title>
<path fill="none" stroke="black" d="M361.565,-647.849C367.114,-610.74 380.272,-522.747 386.954,-478.054"/>
<polygon fill="black" stroke="black" points="390.45,-478.343 388.468,-467.935 383.527,-477.308 390.45,-478.343"/>
</g>
<!-- 5 -->
<g id="node6" class="node"><title>5</title>
<ellipse fill="none" stroke="black" cx="393" cy="-162" rx="27" ry="18"/>
<text text-anchor="middle" x="393" y="-158.3" font-family="Times,serif" font-size="14.00">5</text>
</g>
<!-- 0&#45;&gt;5 -->
<g id="edge3" class="edge"><title>0&#45;&gt;5</title>
<path fill="none" stroke="black" d="M386.005,-663.732C456.023,-658.855 638,-635.369 638,-523 638,-523 638,-523 638,-305 638,-209.839 497.934,-177.401 429.612,-167.238"/>
<polygon fill="black" stroke="black" points="430.075,-163.769 419.686,-165.844 429.102,-170.701 430.075,-163.769"/>
</g>
<!-- 8 -->
<g id="node9" class="node"><title>8</title>
<ellipse fill="none" stroke="black" cx="206" cy="-306" rx="27" ry="18"/>
<text text-anchor="middle" x="206" y="-302.3" font-family="Times,serif" font-size="14.00">8</text>
</g>
<!-- 0&#45;&gt;8 -->
<g id="edge4" class="edge"><title>0&#45;&gt;8</title>
<path fill="none" stroke="black" d="M339,-653.838C307.309,-634.965 246.258,-593.518 218,-540 180.368,-468.73 188.496,-440.245 196,-360 196.797,-351.478 198.3,-342.285 199.903,-333.986"/>
<polygon fill="black" stroke="black" points="203.355,-334.571 201.941,-324.071 196.499,-333.161 203.355,-334.571"/>
</g>
<!-- 2 -->
<g id="node3" class="node"><title>2</title>
<ellipse fill="none" stroke="black" cx="290" cy="-522" rx="27" ry="18"/>
<text text-anchor="middle" x="290" y="-518.3" font-family="Times,serif" font-size="14.00">2</text>
</g>
<!-- 1&#45;&gt;2 -->
<g id="edge5" class="edge"><title>1&#45;&gt;2</title>
<path fill="none" stroke="black" d="M311.364,-576.411C308.087,-568.216 304.056,-558.14 300.382,-548.955"/>
<polygon fill="black" stroke="black" points="303.552,-547.455 296.588,-539.47 297.052,-550.055 303.552,-547.455"/>
</g>
<!-- 1&#45;&gt;3 -->
<g id="edge6" class="edge"><title>1&#45;&gt;3</title>
<path fill="none" stroke="black" d="M322.106,-576.153C332.357,-550.962 356.608,-503.38 373.632,-474.696"/>
<polygon fill="black" stroke="black" points="376.656,-476.459 378.878,-466.1 370.681,-472.812 376.656,-476.459"/>
</g>
<!-- 1&#45;&gt;5 -->
<g id="edge7" class="edge"><title>1&#45;&gt;5</title>
<path fill="none" stroke="black" d="M344.738,-591.116C412.025,-584.939 582,-558.916 582,-451 582,-451 582,-451 582,-305 582,-227.943 481.746,-188.65 427.156,-172.394"/>
<polygon fill="black" stroke="black" points="428.107,-169.025 417.529,-169.622 426.171,-175.752 428.107,-169.025"/>
</g>
<!-- 1&#45;&gt;8 -->
<g id="edge8" class="edge"><title>1&#45;&gt;8</title>
<path fill="none" stroke="black" d="M293.849,-585.528C273.891,-577.052 247.055,-561.553 232,-540 187.668,-476.534 189.755,-379.562 197.493,-333.312"/>
<polygon fill="black" stroke="black" points="200.935,-333.948 199.385,-323.467 194.061,-332.627 200.935,-333.948"/>
</g>
<!-- 2&#45;&gt;3 -->
<g id="edge9" class="edge"><title>2&#45;&gt;3</title>
<path fill="none" stroke="black" d="M308.057,-508.485C323.758,-497.603 346.715,-481.692 364.499,-469.367"/>
<polygon fill="black" stroke="black" points="366.534,-472.215 372.759,-463.642 362.546,-466.462 366.534,-472.215"/>
</g>
<!-- 2&#45;&gt;5 -->
<g id="edge10" class="edge"><title>2&#45;&gt;5</title>
<path fill="none" stroke="black" d="M294.83,-504.213C311.286,-447.016 365.256,-259.429 385.362,-189.548"/>
<polygon fill="black" stroke="black" points="388.779,-190.328 388.181,-179.751 382.052,-188.393 388.779,-190.328"/>
</g>
<!-- 2&#45;&gt;8 -->
<g id="edge11" class="edge"><title>2&#45;&gt;8</title>
<path fill="none" stroke="black" d="M278.068,-505.444C261.351,-482.751 231.397,-438.619 217,-396 210.242,-375.996 207.558,-352.208 206.527,-334.261"/>
<polygon fill="black" stroke="black" points="210.02,-334.021 206.085,-324.184 203.026,-334.328 210.02,-334.021"/>
</g>
<!-- 3&#45;&gt;1 -->
<g id="edge12" class="edge"><title>3&#45;&gt;1</title>
<path fill="none" stroke="black" d="M386.897,-467.838C376.661,-492.996 352.453,-540.501 335.43,-569.199"/>
<polygon fill="black" stroke="black" points="332.401,-567.444 330.183,-577.804 338.378,-571.088 332.401,-567.444"/>
</g>
<!-- 4 -->
<g id="node5" class="node"><title>4</title>
<ellipse fill="none" stroke="black" cx="281" cy="-378" rx="27" ry="18"/>
<text text-anchor="middle" x="281" y="-374.3" font-family="Times,serif" font-size="14.00">4</text>
</g>
<!-- 3&#45;&gt;4 -->
<g id="edge13" class="edge"><title>3&#45;&gt;4</title>
<path fill="none" stroke="black" d="M371.839,-436.807C354.331,-425.665 328.241,-409.062 308.507,-396.504"/>
<polygon fill="black" stroke="black" points="310.257,-393.469 299.941,-391.053 306.499,-399.375 310.257,-393.469"/>
</g>
<!-- 3&#45;&gt;5 -->
<g id="edge14" class="edge"><title>3&#45;&gt;5</title>
<path fill="none" stroke="black" d="M398.657,-432.538C421.634,-393.515 482.803,-292.907 447,-216 440.655,-202.37 428.888,-190.993 417.85,-182.318"/>
<polygon fill="black" stroke="black" points="419.765,-179.381 409.653,-176.219 415.586,-184.997 419.765,-179.381"/>
</g>
<!-- 3&#45;&gt;8 -->
<g id="edge15" class="edge"><title>3&#45;&gt;8</title>
<path fill="none" stroke="black" d="M364.383,-446.65C330.173,-442.121 271.71,-429.469 236,-396 218.448,-379.55 208.35,-353.813 204.402,-334.238"/>
<polygon fill="black" stroke="black" points="207.82,-333.443 202.833,-324.095 200.903,-334.513 207.82,-333.443"/>
</g>
<!-- 4&#45;&gt;1 -->
<g id="edge16" class="edge"><title>4&#45;&gt;1</title>
<path fill="none" stroke="black" d="M272.207,-395.393C257.332,-425.502 230.964,-491.013 254,-540 261.252,-555.421 275.438,-567.895 288.615,-576.859"/>
<polygon fill="black" stroke="black" points="286.732,-579.809 297.045,-582.238 290.497,-573.908 286.732,-579.809"/>
</g>
<!-- 4&#45;&gt;5 -->
<g id="edge17" class="edge"><title>4&#45;&gt;5</title>
<path fill="none" stroke="black" d="M286.621,-360.318C297.086,-330.295 321.22,-265.666 351,-216 357.286,-205.516 365.407,-194.792 372.83,-185.758"/>
<polygon fill="black" stroke="black" points="375.608,-187.893 379.379,-177.992 370.257,-183.381 375.608,-187.893"/>
</g>
<!-- 4&#45;&gt;8 -->
<g id="edge18" class="edge"><title>4&#45;&gt;8</title>
<path fill="none" stroke="black" d="M265.823,-362.834C255.149,-352.872 240.681,-339.369 228.647,-328.137"/>
<polygon fill="black" stroke="black" points="230.854,-325.409 221.155,-321.144 226.077,-330.526 230.854,-325.409"/>
</g>
<!-- 5&#45;&gt;1 -->
<g id="edge19" class="edge"><title>5&#45;&gt;1</title>
<path fill="none" stroke="black" d="M419.046,-167.606C474.884,-179.963 600,-218.917 600,-305 600,-451 600,-451 600,-451 600,-558.406 431.63,-584.691 354.982,-591.027"/>
<polygon fill="black" stroke="black" points="354.511,-587.552 344.803,-591.795 355.038,-594.533 354.511,-587.552"/>
</g>
<!-- 5&#45;&gt;3 -->
<g id="edge20" class="edge"><title>5&#45;&gt;3</title>
<path fill="none" stroke="black" d="M416.322,-171.353C433.705,-180.136 455.469,-195.527 465,-216 499.158,-289.374 445.048,-384.324 412.372,-426.78"/>
<polygon fill="black" stroke="black" points="409.481,-424.79 405.959,-434.783 414.943,-429.167 409.481,-424.79"/>
</g>
<!-- 6 -->
<g id="node7" class="node"><title>6</title>
<ellipse fill="none" stroke="black" cx="231" cy="-90" rx="27" ry="18"/>
<text text-anchor="middle" x="231" y="-86.3" font-family="Times,serif" font-size="14.00">6</text>
</g>
<!-- 5&#45;&gt;6 -->
<g id="edge22" class="edge"><title>5&#45;&gt;6</title>
<path fill="none" stroke="black" d="M370.814,-151.414C342.778,-139.299 294.347,-118.372 262.491,-104.607"/>
<polygon fill="black" stroke="black" points="263.745,-101.336 253.177,-100.583 260.969,-107.762 263.745,-101.336"/>
</g>
<!-- 7 -->
<g id="node8" class="node"><title>7</title>
<ellipse fill="none" stroke="black" cx="231" cy="-18" rx="27" ry="18"/>
<text text-anchor="middle" x="231" y="-14.3" font-family="Times,serif" font-size="14.00">7</text>
</g>
<!-- 5&#45;&gt;7 -->
<g id="edge21" class="edge"><title>5&#45;&gt;7</title>
<path fill="none" stroke="black" d="M377.172,-147.126C348.547,-122.035 288.047,-69.0038 254.552,-39.6442"/>
<polygon fill="black" stroke="black" points="256.481,-36.681 246.654,-32.7214 251.867,-41.945 256.481,-36.681"/>
</g>
<!-- 5&#45;&gt;8 -->
<g id="edge23" class="edge"><title>5&#45;&gt;8</title>
<path fill="none" stroke="black" d="M377.98,-176.99C363.204,-187.327 340.85,-201.981 322,-216 290.918,-239.116 256.804,-268.182 233.434,-286.681"/>
<polygon fill="black" stroke="black" points="231.075,-284.082 225.336,-292.988 235.376,-289.605 231.075,-284.082"/>
</g>
<!-- 6&#45;&gt;1 -->
<g id="edge24" class="edge"><title>6&#45;&gt;1</title>
<path fill="none" stroke="black" d="M222.43,-107.346C203.691,-144.916 161.405,-240.603 170,-324 175.989,-382.112 204.743,-523.066 218,-540 227.183,-551.73 260.57,-568.158 286.267,-579.604"/>
<polygon fill="black" stroke="black" points="285.109,-582.917 295.673,-583.726 287.919,-576.506 285.109,-582.917"/>
</g>
<!-- 6&#45;&gt;3 -->
<g id="edge25" class="edge"><title>6&#45;&gt;3</title>
<path fill="none" stroke="black" d="M238.302,-107.339C263.668,-164.095 348.112,-353.037 379.296,-422.813"/>
<polygon fill="black" stroke="black" points="376.222,-424.512 383.497,-432.213 382.612,-421.655 376.222,-424.512"/>
</g>
<!-- 6&#45;&gt;7 -->
<g id="edge26" class="edge"><title>6&#45;&gt;7</title>
<path fill="none" stroke="black" d="M231,-71.6966C231,-63.9827 231,-54.7125 231,-46.1124"/>
<polygon fill="black" stroke="black" points="234.5,-46.1043 231,-36.1043 227.5,-46.1044 234.5,-46.1043"/>
</g>
<!-- 6&#45;&gt;8 -->
<g id="edge27" class="edge"><title>6&#45;&gt;8</title>
<path fill="none" stroke="black" d="M228.987,-108.232C224.654,-145.324 214.413,-232.981 209.188,-277.712"/>
<polygon fill="black" stroke="black" points="205.688,-277.511 208.004,-287.849 212.64,-278.323 205.688,-277.511"/>
</g>
<!-- 7&#45;&gt;1 -->
<g id="edge28" class="edge"><title>7&#45;&gt;1</title>
<path fill="none" stroke="black" d="M204.501,-22.5959C143.825,-32.4709 0,-65.9075 0,-161 0,-451 0,-451 0,-451 0,-458.773 205.317,-545.737 285.997,-579.609"/>
<polygon fill="black" stroke="black" points="285.063,-583.013 295.639,-583.654 287.771,-576.558 285.063,-583.013"/>
</g>
<!-- 7&#45;&gt;3 -->
<g id="edge29" class="edge"><title>7&#45;&gt;3</title>
<path fill="none" stroke="black" d="M254.565,-27.3037C309.841,-48.3571 445.962,-109.823 483,-216 509.602,-292.261 505.594,-330.745 458,-396 447.605,-410.253 432.405,-422.703 419.11,-431.948"/>
<polygon fill="black" stroke="black" points="417.094,-429.086 410.718,-437.548 420.979,-434.909 417.094,-429.086"/>
</g>
<!-- 7&#45;&gt;8 -->
<g id="edge30" class="edge"><title>7&#45;&gt;8</title>
<path fill="none" stroke="black" d="M217.25,-33.9312C209.039,-43.8997 199.381,-57.7531 195,-72 172.898,-143.876 188.647,-234.07 198.965,-278.192"/>
<polygon fill="black" stroke="black" points="195.618,-279.241 201.382,-288.13 202.419,-277.587 195.618,-279.241"/>
</g>
<!-- 8&#45;&gt;1 -->
<g id="edge31" class="edge"><title>8&#45;&gt;1</title>
<path fill="none" stroke="black" d="M208.277,-324.072C208.303,-365.303 202.449,-471.926 250,-540 260.368,-554.843 276.323,-566.814 290.281,-575.598"/>
<polygon fill="black" stroke="black" points="288.716,-578.741 299.087,-580.908 292.331,-572.747 288.716,-578.741"/>
</g>
<!-- 8&#45;&gt;3 -->
<g id="edge32" class="edge"><title>8&#45;&gt;3</title>
<path fill="none" stroke="black" d="M215.273,-323.049C222.501,-342.803 232.829,-376.158 254,-396 282.248,-422.475 324.733,-435.924 355.013,-442.631"/>
<polygon fill="black" stroke="black" points="354.669,-446.134 365.171,-444.732 356.087,-439.279 354.669,-446.134"/>
</g>
<!-- 8&#45;&gt;5 -->
<g id="edge33" class="edge"><title>8&#45;&gt;5</title>
<path fill="none" stroke="black" d="M217.235,-289.268C235.525,-270.983 271.428,-240.225 304,-216 322.556,-202.2 344.509,-187.783 362.154,-177.476"/>
<polygon fill="black" stroke="black" points="363.978,-180.465 370.948,-172.485 360.523,-174.377 363.978,-180.465"/>
</g>
<!-- 9 -->
<g id="node10" class="node"><title>9</title>
<ellipse fill="none" stroke="black" cx="420" cy="-234" rx="27" ry="18"/>
<text text-anchor="middle" x="420" y="-230.3" font-family="Times,serif" font-size="14.00">9</text>
</g>
<!-- 8&#45;&gt;9 -->
<g id="edge34" class="edge"><title>8&#45;&gt;9</title>
<path fill="none" stroke="black" d="M229.719,-297.241C267.882,-284.758 343.033,-260.176 386.601,-245.925"/>
<polygon fill="black" stroke="black" points="387.758,-249.229 396.174,-242.793 385.582,-242.576 387.758,-249.229"/>
</g>
<!-- 9&#45;&gt;1 -->
<g id="edge35" class="edge"><title>9&#45;&gt;1</title>
<path fill="none" stroke="black" d="M425.927,-251.806C434.67,-278.14 450,-330.89 450,-377 450,-451 450,-451 450,-451 450,-510.517 387.024,-555.562 348.069,-577.732"/>
<polygon fill="black" stroke="black" points="346.275,-574.725 339.208,-582.619 349.655,-580.855 346.275,-574.725"/>
</g>
<!-- 9&#45;&gt;3 -->
<g id="edge36" class="edge"><title>9&#45;&gt;3</title>
<path fill="none" stroke="black" d="M417.705,-251.935C412.703,-288.847 400.781,-376.825 394.702,-421.685"/>
<polygon fill="black" stroke="black" points="391.199,-421.47 393.324,-431.849 398.135,-422.41 391.199,-421.47"/>
</g>
<!-- 9&#45;&gt;5 -->
<g id="edge37" class="edge"><title>9&#45;&gt;5</title>
<path fill="none" stroke="black" d="M413.601,-216.411C410.486,-208.335 406.666,-198.431 403.165,-189.355"/>
<polygon fill="black" stroke="black" points="406.405,-188.027 399.54,-179.956 399.874,-190.546 406.405,-188.027"/>
</g>
</g>
</svg>
