<?xml version="1.0" encoding="UTF-8" standalone="no"?>
<!DOCTYPE svg PUBLIC "-//W3C//DTD SVG 1.1//EN"
 "http://www.w3.org/Graphics/SVG/1.1/DTD/svg11.dtd">
<!-- Generated by graphviz version 2.36.0 (20140111.2315)
 -->
<!-- Title: G Pages: 1 -->
<svg width="894pt" height="1124pt"
 viewBox="0.00 0.00 894.00 1124.00" xmlns="http://www.w3.org/2000/svg" xmlns:xlink="http://www.w3.org/1999/xlink">
<g id="graph0" class="graph" transform="scale(1 1) rotate(0) translate(4 1120)">
<title>G</title>
<polygon fill="white" stroke="none" points="-4,4 -4,-1120 890,-1120 890,4 -4,4"/>
<!-- 0 -->
<g id="node1" class="node"><title>0</title>
<ellipse fill="none" stroke="black" cx="435" cy="-1098" rx="27" ry="18"/>
<text text-anchor="middle" x="435" y="-1094.3" font-family="Times,serif" font-size="14.00">0</text>
</g>
<!-- 1 -->
<g id="node2" class="node"><title>1</title>
<ellipse fill="none" stroke="black" cx="323" cy="-1026" rx="27" ry="18"/>
<text text-anchor="middle" x="323" y="-1022.3" font-family="Times,serif" font-size="14.00">1</text>
</g>
<!-- 0&#45;&gt;1 -->
<g id="edge1" class="edge"><title>0&#45;&gt;1</title>
<path fill="none" stroke="black" d="M416.001,-1085.13C398.06,-1073.91 370.949,-1056.97 350.62,-1044.26"/>
<polygon fill="black" stroke="black" points="352.427,-1041.26 342.092,-1038.93 348.717,-1047.2 352.427,-1041.26"/>
</g>
<!-- 2 -->
<g id="node3" class="node"><title>2</title>
<ellipse fill="none" stroke="black" cx="636" cy="-954" rx="27" ry="18"/>
<text text-anchor="middle" x="636" y="-950.3" font-family="Times,serif" font-size="14.00">2</text>
</g>
<!-- 0&#45;&gt;2 -->
<g id="edge2" class="edge"><title>0&#45;&gt;2</title>
<path fill="none" stroke="black" d="M457.8,-1088.06C480.236,-1078.73 514.964,-1062.86 542,-1044 570.028,-1024.45 597.923,-996.728 615.955,-977.437"/>
<polygon fill="black" stroke="black" points="618.618,-979.712 622.821,-969.986 613.47,-974.968 618.618,-979.712"/>
</g>
<!-- 8 -->
<g id="node9" class="node"><title>8</title>
<ellipse fill="none" stroke="black" cx="490" cy="-666" rx="27" ry="18"/>
<text text-anchor="middle" x="490" y="-662.3" font-family="Times,serif" font-size="14.00">8</text>
</g>
<!-- 0&#45;&gt;8 -->
<g id="edge3" class="edge"><title>0&#45;&gt;8</title>
<path fill="none" stroke="black" d="M451.627,-1083.62C478.377,-1060.48 528,-1010.11 528,-955 528,-955 528,-955 528,-809 528,-767.406 512.597,-721.217 501.404,-693.143"/>
<polygon fill="black" stroke="black" points="504.546,-691.581 497.508,-683.662 498.072,-694.242 504.546,-691.581"/>
</g>
<!-- 12 -->
<g id="node13" class="node"><title>12</title>
<ellipse fill="none" stroke="black" cx="427" cy="-378" rx="27" ry="18"/>
<text text-anchor="middle" x="427" y="-374.3" font-family="Times,serif" font-size="14.00">12</text>
</g>
<!-- 0&#45;&gt;12 -->
<g id="edge4" class="edge"><title>0&#45;&gt;12</title>
<path fill="none" stroke="black" d="M408.573,-1094C349.627,-1085.85 206.722,-1057.84 132,-972 88.9555,-922.549 104.52,-893.405 100,-828 89.5631,-676.987 102.22,-615.13 205,-504 237.256,-469.124 243.426,-456.709 284,-432 318.186,-411.181 361.864,-396.468 391.902,-387.91"/>
<polygon fill="black" stroke="black" points="393.215,-391.178 401.92,-385.139 391.349,-384.431 393.215,-391.178"/>
</g>
<!-- 1&#45;&gt;2 -->
<g id="edge5" class="edge"><title>1&#45;&gt;2</title>
<path fill="none" stroke="black" d="M348.349,-1019.33C404.045,-1006.87 537.187,-977.099 600.884,-962.853"/>
<polygon fill="black" stroke="black" points="601.856,-966.223 610.851,-960.624 600.328,-959.391 601.856,-966.223"/>
</g>
<!-- 3 -->
<g id="node4" class="node"><title>3</title>
<ellipse fill="none" stroke="black" cx="323" cy="-882" rx="27" ry="18"/>
<text text-anchor="middle" x="323" y="-878.3" font-family="Times,serif" font-size="14.00">3</text>
</g>
<!-- 1&#45;&gt;3 -->
<g id="edge8" class="edge"><title>1&#45;&gt;3</title>
<path fill="none" stroke="black" d="M323,-1007.87C323,-983.67 323,-939.211 323,-910.393"/>
<polygon fill="black" stroke="black" points="326.5,-910.189 323,-900.189 319.5,-910.189 326.5,-910.189"/>
</g>
<!-- 1&#45;&gt;8 -->
<g id="edge6" class="edge"><title>1&#45;&gt;8</title>
<path fill="none" stroke="black" d="M330.61,-1008.69C357.126,-951.843 445.6,-762.181 477.988,-692.75"/>
<polygon fill="black" stroke="black" points="481.29,-693.951 482.346,-683.409 474.946,-690.991 481.29,-693.951"/>
</g>
<!-- 9 -->
<g id="node10" class="node"><title>9</title>
<ellipse fill="none" stroke="black" cx="380" cy="-594" rx="27" ry="18"/>
<text text-anchor="middle" x="380" y="-590.3" font-family="Times,serif" font-size="14.00">9</text>
</g>
<!-- 1&#45;&gt;9 -->
<g id="edge9" class="edge"><title>1&#45;&gt;9</title>
<path fill="none" stroke="black" d="M301.631,-1014.66C264.035,-994.807 190,-947.515 190,-883 190,-883 190,-883 190,-809 190,-713.856 296.321,-641.306 349.896,-610.789"/>
<polygon fill="black" stroke="black" points="351.908,-613.674 358.941,-605.751 348.501,-607.559 351.908,-613.674"/>
</g>
<!-- 1&#45;&gt;12 -->
<g id="edge7" class="edge"><title>1&#45;&gt;12</title>
<path fill="none" stroke="black" d="M297.372,-1020.18C241.563,-1008.05 114,-970.735 114,-883 114,-883 114,-883 114,-737 114,-566.037 318.809,-437.408 397.081,-394.493"/>
<polygon fill="black" stroke="black" points="398.843,-397.519 405.977,-389.687 395.515,-391.361 398.843,-397.519"/>
</g>
<!-- 13 -->
<g id="node14" class="node"><title>13</title>
<ellipse fill="none" stroke="black" cx="304" cy="-306" rx="27" ry="18"/>
<text text-anchor="middle" x="304" y="-302.3" font-family="Times,serif" font-size="14.00">13</text>
</g>
<!-- 1&#45;&gt;13 -->
<g id="edge10" class="edge"><title>1&#45;&gt;13</title>
<path fill="none" stroke="black" d="M295.928,-1024.88C255.243,-1023.24 178.194,-1014.29 132,-972 1.06208,-852.117 0,-772.529 0,-595 0,-595 0,-595 0,-521 0,-438.586 26.3074,-409.765 92,-360 143.902,-320.681 221.5,-310.261 267.011,-307.664"/>
<polygon fill="black" stroke="black" points="267.211,-311.158 277.034,-307.189 266.88,-304.166 267.211,-311.158"/>
</g>
<!-- 2&#45;&gt;3 -->
<g id="edge11" class="edge"><title>2&#45;&gt;3</title>
<path fill="none" stroke="black" d="M610.651,-947.331C554.955,-934.875 421.813,-905.099 358.116,-890.853"/>
<polygon fill="black" stroke="black" points="358.672,-887.391 348.149,-888.624 357.144,-894.223 358.672,-887.391"/>
</g>
<!-- 4 -->
<g id="node5" class="node"><title>4</title>
<ellipse fill="none" stroke="black" cx="473" cy="-810" rx="27" ry="18"/>
<text text-anchor="middle" x="473" y="-806.3" font-family="Times,serif" font-size="14.00">4</text>
</g>
<!-- 2&#45;&gt;4 -->
<g id="edge12" class="edge"><title>2&#45;&gt;4</title>
<path fill="none" stroke="black" d="M620.074,-939.126C591.273,-914.035 530.399,-861.004 496.697,-831.644"/>
<polygon fill="black" stroke="black" points="498.59,-828.651 488.751,-824.721 493.992,-833.929 498.59,-828.651"/>
</g>
<!-- 2&#45;&gt;8 -->
<g id="edge13" class="edge"><title>2&#45;&gt;8</title>
<path fill="none" stroke="black" d="M627.305,-936.701C612.19,-897.185 581.501,-794.082 533,-720 525.901,-709.156 516.356,-698.655 507.928,-689.899"/>
<polygon fill="black" stroke="black" points="510.386,-687.406 500.898,-682.69 505.374,-692.293 510.386,-687.406"/>
</g>
<!-- 2&#45;&gt;12 -->
<g id="edge14" class="edge"><title>2&#45;&gt;12</title>
<path fill="none" stroke="black" d="M644.602,-936.839C662.114,-911.772 698,-861.164 698,-811 698,-811 698,-811 698,-521 698,-415.671 538.449,-388.446 464.098,-381.427"/>
<polygon fill="black" stroke="black" points="464.041,-377.909 453.776,-380.532 463.435,-384.883 464.041,-377.909"/>
</g>
<!-- 3&#45;&gt;4 -->
<g id="edge15" class="edge"><title>3&#45;&gt;4</title>
<path fill="none" stroke="black" d="M344.491,-870.971C370.11,-859.015 413.11,-838.949 442.245,-825.352"/>
<polygon fill="black" stroke="black" points="443.967,-828.411 451.549,-821.011 441.007,-822.068 443.967,-828.411"/>
</g>
<!-- 5 -->
<g id="node6" class="node"><title>5</title>
<ellipse fill="none" stroke="black" cx="359" cy="-738" rx="27" ry="18"/>
<text text-anchor="middle" x="359" y="-734.3" font-family="Times,serif" font-size="14.00">5</text>
</g>
<!-- 3&#45;&gt;5 -->
<g id="edge19" class="edge"><title>3&#45;&gt;5</title>
<path fill="none" stroke="black" d="M327.271,-864.153C333.442,-839.813 344.912,-794.568 352.24,-765.665"/>
<polygon fill="black" stroke="black" points="355.67,-766.378 354.735,-755.825 348.884,-764.658 355.67,-766.378"/>
</g>
<!-- 6 -->
<g id="node7" class="node"><title>6</title>
<ellipse fill="none" stroke="black" cx="602" cy="-90" rx="27" ry="18"/>
<text text-anchor="middle" x="602" y="-86.3" font-family="Times,serif" font-size="14.00">6</text>
</g>
<!-- 3&#45;&gt;6 -->
<g id="edge16" class="edge"><title>3&#45;&gt;6</title>
<path fill="none" stroke="black" d="M300.637,-871.728C233.45,-842.219 38,-743.606 38,-595 38,-595 38,-595 38,-521 38,-424.401 0,-403.599 0,-307 0,-307 0,-307 0,-233 0,-116.412 433.13,-95.4428 564.607,-91.7632"/>
<polygon fill="black" stroke="black" points="565.059,-95.2527 574.964,-91.4922 564.876,-88.2551 565.059,-95.2527"/>
</g>
<!-- 3&#45;&gt;8 -->
<g id="edge17" class="edge"><title>3&#45;&gt;8</title>
<path fill="none" stroke="black" d="M333.321,-864.853C352.571,-835.145 395.832,-770.261 438,-720 447.153,-709.091 458.089,-697.728 467.565,-688.334"/>
<polygon fill="black" stroke="black" points="470.088,-690.762 474.79,-681.268 465.194,-685.758 470.088,-690.762"/>
</g>
<!-- 3&#45;&gt;9 -->
<g id="edge20" class="edge"><title>3&#45;&gt;9</title>
<path fill="none" stroke="black" d="M320.639,-863.825C317.074,-834.109 311.845,-771.351 323,-720 331.001,-683.169 350.843,-644.179 364.859,-619.729"/>
<polygon fill="black" stroke="black" points="368.056,-621.197 370.092,-610.8 362.016,-617.658 368.056,-621.197"/>
</g>
<!-- 3&#45;&gt;12 -->
<g id="edge18" class="edge"><title>3&#45;&gt;12</title>
<path fill="none" stroke="black" d="M316.145,-864.463C297.9,-818.082 251.558,-683.157 282,-576 302.56,-503.627 323.501,-490.348 371,-432 380.563,-420.253 392.613,-408.536 403.083,-399.117"/>
<polygon fill="black" stroke="black" points="405.52,-401.634 410.714,-392.4 400.896,-396.38 405.52,-401.634"/>
</g>
<!-- 3&#45;&gt;13 -->
<g id="edge21" class="edge"><title>3&#45;&gt;13</title>
<path fill="none" stroke="black" d="M309.368,-866.296C257.588,-809.823 76,-605.873 76,-523 76,-523 76,-523 76,-449 76,-359.77 203.38,-324.597 267.719,-312.522"/>
<polygon fill="black" stroke="black" points="268.616,-315.918 277.846,-310.715 267.386,-309.027 268.616,-315.918"/>
</g>
<!-- 4&#45;&gt;5 -->
<g id="edge22" class="edge"><title>4&#45;&gt;5</title>
<path fill="none" stroke="black" d="M453.661,-797.125C435.401,-785.913 407.805,-768.968 387.113,-756.263"/>
<polygon fill="black" stroke="black" points="388.787,-753.183 378.433,-750.933 385.124,-759.148 388.787,-753.183"/>
</g>
<!-- 4&#45;&gt;8 -->
<g id="edge23" class="edge"><title>4&#45;&gt;8</title>
<path fill="none" stroke="black" d="M475.051,-791.871C477.948,-767.67 483.271,-723.211 486.721,-694.393"/>
<polygon fill="black" stroke="black" points="490.229,-694.534 487.942,-684.189 483.278,-693.702 490.229,-694.534"/>
</g>
<!-- 4&#45;&gt;12 -->
<g id="edge24" class="edge"><title>4&#45;&gt;12</title>
<path fill="none" stroke="black" d="M483.103,-793.197C510.367,-748.719 582.323,-618.262 566,-504 561.286,-471.002 566.885,-457.143 545,-432 523.783,-407.624 489.135,-393.906 462.859,-386.566"/>
<polygon fill="black" stroke="black" points="463.448,-383.102 452.889,-383.97 461.684,-389.877 463.448,-383.102"/>
</g>
<!-- 5&#45;&gt;8 -->
<g id="edge25" class="edge"><title>5&#45;&gt;8</title>
<path fill="none" stroke="black" d="M379.469,-726.062C401.291,-714.402 436.039,-695.834 460.746,-682.632"/>
<polygon fill="black" stroke="black" points="462.505,-685.661 469.675,-677.861 459.206,-679.487 462.505,-685.661"/>
</g>
<!-- 5&#45;&gt;9 -->
<g id="edge27" class="edge"><title>5&#45;&gt;9</title>
<path fill="none" stroke="black" d="M361.533,-719.871C365.112,-695.67 371.687,-651.211 375.949,-622.393"/>
<polygon fill="black" stroke="black" points="379.457,-622.594 377.458,-612.189 372.533,-621.57 379.457,-622.594"/>
</g>
<!-- 5&#45;&gt;12 -->
<g id="edge26" class="edge"><title>5&#45;&gt;12</title>
<path fill="none" stroke="black" d="M354.598,-719.983C347.599,-690.504 335.546,-628.095 344,-576 354.806,-509.409 362.493,-492.667 392,-432 396.847,-422.034 403.283,-411.725 409.312,-402.878"/>
<polygon fill="black" stroke="black" points="412.253,-404.781 415.133,-394.585 406.523,-400.759 412.253,-404.781"/>
</g>
<!-- 5&#45;&gt;13 -->
<g id="edge28" class="edge"><title>5&#45;&gt;13</title>
<path fill="none" stroke="black" d="M343.603,-723.097C311.896,-693.297 240.098,-619.485 214,-540 199.026,-494.395 199.265,-477.682 214,-432 227.275,-390.842 259.694,-351.802 281.772,-328.628"/>
<polygon fill="black" stroke="black" points="284.346,-331.001 288.82,-321.397 279.334,-326.115 284.346,-331.001"/>
</g>
<!-- 6&#45;&gt;2 -->
<g id="edge30" class="edge"><title>6&#45;&gt;2</title>
<path fill="none" stroke="black" d="M628.974,-92.058C699.865,-96.4205 886,-118.753 886,-233 886,-811 886,-811 886,-811 886,-907.856 742.372,-939.465 672.846,-949.093"/>
<polygon fill="black" stroke="black" points="672.218,-945.645 662.754,-950.408 673.123,-952.586 672.218,-945.645"/>
</g>
<!-- 7 -->
<g id="node8" class="node"><title>7</title>
<ellipse fill="none" stroke="black" cx="602" cy="-18" rx="27" ry="18"/>
<text text-anchor="middle" x="602" y="-14.3" font-family="Times,serif" font-size="14.00">7</text>
</g>
<!-- 6&#45;&gt;7 -->
<g id="edge29" class="edge"><title>6&#45;&gt;7</title>
<path fill="none" stroke="black" d="M602,-71.6966C602,-63.9827 602,-54.7125 602,-46.1124"/>
<polygon fill="black" stroke="black" points="605.5,-46.1043 602,-36.1043 598.5,-46.1044 605.5,-46.1043"/>
</g>
<!-- 6&#45;&gt;8 -->
<g id="edge31" class="edge"><title>6&#45;&gt;8</title>
<path fill="none" stroke="black" d="M626.45,-97.7115C673.733,-113.719 772,-158.46 772,-233 772,-523 772,-523 772,-523 772,-630.406 603.63,-656.691 526.982,-663.027"/>
<polygon fill="black" stroke="black" points="526.511,-659.552 516.803,-663.795 527.038,-666.533 526.511,-659.552"/>
</g>
<!-- 6&#45;&gt;12 -->
<g id="edge32" class="edge"><title>6&#45;&gt;12</title>
<path fill="none" stroke="black" d="M584.355,-103.829C554.102,-123.341 493.834,-163.79 464,-216 439.74,-258.454 435.455,-316.717 432.498,-350.261"/>
<polygon fill="black" stroke="black" points="429.012,-349.948 431.561,-360.232 435.981,-350.603 429.012,-349.948"/>
</g>
<!-- 8&#45;&gt;2 -->
<g id="edge34" class="edge"><title>8&#45;&gt;2</title>
<path fill="none" stroke="black" d="M510.576,-678.018C523.948,-687.996 540.268,-703.607 551,-720 595.57,-788.077 625.098,-880.661 634.357,-925.887"/>
<polygon fill="black" stroke="black" points="630.932,-926.616 636.19,-935.814 637.816,-925.345 630.932,-926.616"/>
</g>
<!-- 8&#45;&gt;6 -->
<g id="edge35" class="edge"><title>8&#45;&gt;6</title>
<path fill="none" stroke="black" d="M516.738,-663.116C584.025,-656.939 754,-630.916 754,-523 754,-523 754,-523 754,-233 754,-167.375 677.833,-124.847 633.205,-104.69"/>
<polygon fill="black" stroke="black" points="634.496,-101.434 623.933,-100.614 631.679,-107.842 634.496,-101.434"/>
</g>
<!-- 8&#45;&gt;9 -->
<g id="edge33" class="edge"><title>8&#45;&gt;9</title>
<path fill="none" stroke="black" d="M470.839,-652.807C453.331,-641.665 427.241,-625.062 407.507,-612.504"/>
<polygon fill="black" stroke="black" points="409.257,-609.469 398.941,-607.053 405.499,-615.375 409.257,-609.469"/>
</g>
<!-- 10 -->
<g id="node11" class="node"><title>10</title>
<ellipse fill="none" stroke="black" cx="530" cy="-522" rx="27" ry="18"/>
<text text-anchor="middle" x="530" y="-518.3" font-family="Times,serif" font-size="14.00">10</text>
</g>
<!-- 8&#45;&gt;10 -->
<g id="edge36" class="edge"><title>8&#45;&gt;10</title>
<path fill="none" stroke="black" d="M494.746,-648.153C501.602,-623.813 514.347,-578.568 522.489,-549.665"/>
<polygon fill="black" stroke="black" points="525.918,-550.399 525.261,-539.825 519.18,-548.501 525.918,-550.399"/>
</g>
<!-- 8&#45;&gt;12 -->
<g id="edge37" class="edge"><title>8&#45;&gt;12</title>
<path fill="none" stroke="black" d="M482.965,-648.387C468.283,-600.913 437.938,-464.33 428.79,-405.967"/>
<polygon fill="black" stroke="black" points="432.246,-405.408 427.337,-396.018 425.319,-406.419 432.246,-405.408"/>
</g>
<!-- 9&#45;&gt;10 -->
<g id="edge38" class="edge"><title>9&#45;&gt;10</title>
<path fill="none" stroke="black" d="M401.491,-582.971C427.11,-571.015 470.11,-550.949 499.245,-537.352"/>
<polygon fill="black" stroke="black" points="500.967,-540.411 508.549,-533.011 498.007,-534.068 500.967,-540.411"/>
</g>
<!-- 11 -->
<g id="node12" class="node"><title>11</title>
<ellipse fill="none" stroke="black" cx="491" cy="-450" rx="27" ry="18"/>
<text text-anchor="middle" x="491" y="-446.3" font-family="Times,serif" font-size="14.00">11</text>
</g>
<!-- 9&#45;&gt;11 -->
<g id="edge40" class="edge"><title>9&#45;&gt;11</title>
<path fill="none" stroke="black" d="M391.879,-577.804C411.222,-553.058 449.662,-503.883 472.573,-474.574"/>
<polygon fill="black" stroke="black" points="475.469,-476.552 478.87,-466.518 469.954,-472.241 475.469,-476.552"/>
</g>
<!-- 9&#45;&gt;12 -->
<g id="edge39" class="edge"><title>9&#45;&gt;12</title>
<path fill="none" stroke="black" d="M381.087,-575.768C383.292,-545.964 389.383,-483.079 404,-432 406.647,-422.751 410.538,-412.994 414.371,-404.407"/>
<polygon fill="black" stroke="black" points="417.563,-405.842 418.603,-395.299 411.215,-402.893 417.563,-405.842"/>
</g>
<!-- 9&#45;&gt;13 -->
<g id="edge41" class="edge"><title>9&#45;&gt;13</title>
<path fill="none" stroke="black" d="M375.473,-575.966C362.748,-528.079 326.582,-391.98 311.136,-333.852"/>
<polygon fill="black" stroke="black" points="314.454,-332.711 308.503,-323.945 307.689,-334.508 314.454,-332.711"/>
</g>
<!-- 10&#45;&gt;2 -->
<g id="edge43" class="edge"><title>10&#45;&gt;2</title>
<path fill="none" stroke="black" d="M537.278,-539.59C558.166,-588.221 618.079,-735.121 638,-864 641.167,-884.491 640.466,-907.947 639.08,-925.633"/>
<polygon fill="black" stroke="black" points="635.574,-925.547 638.158,-935.822 642.546,-926.178 635.574,-925.547"/>
</g>
<!-- 10&#45;&gt;6 -->
<g id="edge44" class="edge"><title>10&#45;&gt;6</title>
<path fill="none" stroke="black" d="M539.413,-504.975C558.929,-470.185 602,-384.614 602,-307 602,-307 602,-307 602,-233 602,-192.996 602,-146.653 602,-118.08"/>
<polygon fill="black" stroke="black" points="605.5,-118.049 602,-108.049 598.5,-118.049 605.5,-118.049"/>
</g>
<!-- 10&#45;&gt;11 -->
<g id="edge42" class="edge"><title>10&#45;&gt;11</title>
<path fill="none" stroke="black" d="M520.955,-504.765C516.18,-496.195 510.218,-485.494 504.873,-475.9"/>
<polygon fill="black" stroke="black" points="507.921,-474.18 499.996,-467.147 501.806,-477.586 507.921,-474.18"/>
</g>
<!-- 10&#45;&gt;12 -->
<g id="edge45" class="edge"><title>10&#45;&gt;12</title>
<path fill="none" stroke="black" d="M534.126,-504.147C537.791,-485.098 540.683,-453.894 527,-432 512.668,-409.067 484.842,-395.474 462.174,-387.806"/>
<polygon fill="black" stroke="black" points="463.099,-384.428 452.51,-384.78 461.008,-391.108 463.099,-384.428"/>
</g>
<!-- 11&#45;&gt;12 -->
<g id="edge46" class="edge"><title>11&#45;&gt;12</title>
<path fill="none" stroke="black" d="M477.427,-434.155C468.688,-424.596 457.166,-411.994 447.342,-401.249"/>
<polygon fill="black" stroke="black" points="449.884,-398.842 440.553,-393.824 444.718,-403.566 449.884,-398.842"/>
</g>
<!-- 12&#45;&gt;2 -->
<g id="edge48" class="edge"><title>12&#45;&gt;2</title>
<path fill="none" stroke="black" d="M453.874,-379.96C525.786,-384.103 716,-405.994 716,-521 716,-811 716,-811 716,-811 716,-858.459 683.88,-906.317 660.109,-932.566"/>
<polygon fill="black" stroke="black" points="657.4,-930.336 653.045,-939.994 662.472,-935.16 657.4,-930.336"/>
</g>
<!-- 12&#45;&gt;6 -->
<g id="edge49" class="edge"><title>12&#45;&gt;6</title>
<path fill="none" stroke="black" d="M421.037,-360.232C416.761,-329.514 419.115,-263.049 446,-216 475.218,-164.869 533.624,-125.018 570.27,-105.065"/>
<polygon fill="black" stroke="black" points="572.31,-107.947 579.536,-100.199 569.055,-101.75 572.31,-107.947"/>
</g>
<!-- 12&#45;&gt;8 -->
<g id="edge50" class="edge"><title>12&#45;&gt;8</title>
<path fill="none" stroke="black" d="M434.027,-395.587C448.704,-443.031 479.053,-579.629 488.207,-638.013"/>
<polygon fill="black" stroke="black" points="484.752,-638.577 489.661,-647.966 491.678,-637.565 484.752,-638.577"/>
</g>
<!-- 12&#45;&gt;13 -->
<g id="edge47" class="edge"><title>12&#45;&gt;13</title>
<path fill="none" stroke="black" d="M406.964,-365.597C386.861,-354.157 355.694,-336.42 332.914,-323.455"/>
<polygon fill="black" stroke="black" points="334.45,-320.302 324.027,-318.398 330.987,-326.386 334.45,-320.302"/>
</g>
<!-- 14 -->
<g id="node15" class="node"><title>14</title>
<ellipse fill="none" stroke="black" cx="491" cy="-234" rx="27" ry="18"/>
<text text-anchor="middle" x="491" y="-230.3" font-family="Times,serif" font-size="14.00">14</text>
</g>
<!-- 12&#45;&gt;14 -->
<g id="edge51" class="edge"><title>12&#45;&gt;14</title>
<path fill="none" stroke="black" d="M434.467,-360.433C445.498,-335.957 466.251,-289.912 479.311,-260.936"/>
<polygon fill="black" stroke="black" points="482.663,-262.017 483.581,-251.462 476.281,-259.14 482.663,-262.017"/>
</g>
<!-- 13&#45;&gt;2 -->
<g id="edge53" class="edge"><title>13&#45;&gt;2</title>
<path fill="none" stroke="black" d="M329.788,-311.996C432.901,-332.696 810,-415.604 810,-521 810,-811 810,-811 810,-811 810,-882.646 720.355,-924.599 669.755,-942.573"/>
<polygon fill="black" stroke="black" points="668.519,-939.297 660.194,-945.85 670.789,-945.918 668.519,-939.297"/>
</g>
<!-- 13&#45;&gt;6 -->
<g id="edge54" class="edge"><title>13&#45;&gt;6</title>
<path fill="none" stroke="black" d="M309.642,-288.191C321.58,-255.257 352.601,-182.131 404,-144 451.951,-108.427 522.098,-96.7171 564.749,-92.8708"/>
<polygon fill="black" stroke="black" points="565.282,-96.3395 574.97,-92.0526 564.723,-89.3618 565.282,-96.3395"/>
</g>
<!-- 13&#45;&gt;8 -->
<g id="edge55" class="edge"><title>13&#45;&gt;8</title>
<path fill="none" stroke="black" d="M296.492,-323.662C285.418,-349.803 266,-402.298 266,-449 266,-523 266,-523 266,-523 266,-610.887 390.526,-646.658 453.885,-659.17"/>
<polygon fill="black" stroke="black" points="453.391,-662.638 463.866,-661.048 454.686,-655.759 453.391,-662.638"/>
</g>
<!-- 13&#45;&gt;14 -->
<g id="edge52" class="edge"><title>13&#45;&gt;14</title>
<path fill="none" stroke="black" d="M326.93,-296.417C359.876,-284.084 420.771,-261.289 458.391,-247.207"/>
<polygon fill="black" stroke="black" points="459.744,-250.437 467.883,-243.654 457.29,-243.882 459.744,-250.437"/>
</g>
<!-- 15 -->
<g id="node16" class="node"><title>15</title>
<ellipse fill="none" stroke="black" cx="668" cy="-162" rx="27" ry="18"/>
<text text-anchor="middle" x="668" y="-158.3" font-family="Times,serif" font-size="14.00">15</text>
</g>
<!-- 14&#45;&gt;15 -->
<g id="edge56" class="edge"><title>14&#45;&gt;15</title>
<path fill="none" stroke="black" d="M513.777,-223.992C544.843,-211.706 600.66,-189.632 635.941,-175.679"/>
<polygon fill="black" stroke="black" points="637.298,-178.906 645.31,-171.973 634.724,-172.396 637.298,-178.906"/>
</g>
<!-- 15&#45;&gt;2 -->
<g id="edge57" class="edge"><title>15&#45;&gt;2</title>
<path fill="none" stroke="black" d="M684.611,-176.523C729.172,-214.434 848,-326.97 848,-449 848,-811 848,-811 848,-811 848,-894.753 732.371,-932.248 671.903,-946.13"/>
<polygon fill="black" stroke="black" points="671.011,-942.742 661.995,-948.307 672.513,-949.579 671.011,-942.742"/>
</g>
<!-- 15&#45;&gt;6 -->
<g id="edge58" class="edge"><title>15&#45;&gt;6</title>
<path fill="none" stroke="black" d="M654.003,-146.155C644.99,-136.596 633.109,-123.994 622.978,-113.249"/>
<polygon fill="black" stroke="black" points="625.383,-110.699 615.977,-105.824 620.29,-115.501 625.383,-110.699"/>
</g>
<!-- 15&#45;&gt;8 -->
<g id="edge59" class="edge"><title>15&#45;&gt;8</title>
<path fill="none" stroke="black" d="M665.052,-180.059C655.339,-234.255 621.746,-406.769 566,-540 550.284,-577.56 524.448,-617.098 507.329,-641.406"/>
<polygon fill="black" stroke="black" points="504.413,-639.469 501.452,-649.641 510.11,-643.535 504.413,-639.469"/>
</g>
</g>
</svg>
