<?xml version="1.0" encoding="UTF-8" standalone="no"?>
<!DOCTYPE svg PUBLIC "-//W3C//DTD SVG 1.1//EN"
 "http://www.w3.org/Graphics/SVG/1.1/DTD/svg11.dtd">
<!-- Generated by graphviz version 2.38.0 (20140413.2041)
 -->
<!-- Title: G Pages: 1 -->
<svg width="646pt" height="692pt"
 viewBox="0.00 0.00 646.00 692.00" xmlns="http://www.w3.org/2000/svg" xmlns:xlink="http://www.w3.org/1999/xlink">
<g id="graph0" class="graph" transform="scale(1 1) rotate(0) translate(4 688)">
<title>G</title>
<polygon fill="white" stroke="none" points="-4,4 -4,-688 642,-688 642,4 -4,4"/>
<!-- 0 -->
<g id="node1" class="node"><title>0</title>
<ellipse fill="none" stroke="black" cx="510" cy="-666" rx="27" ry="18"/>
<text text-anchor="middle" x="510" y="-662.3" font-family="Times,serif" font-size="14.00">0</text>
</g>
<!-- 1 -->
<g id="node2" class="node"><title>1</title>
<ellipse fill="none" stroke="black" cx="421" cy="-594" rx="27" ry="18"/>
<text text-anchor="middle" x="421" y="-590.3" font-family="Times,serif" font-size="14.00">1</text>
</g>
<!-- 0&#45;&gt;1 -->
<g id="edge1" class="edge"><title>0&#45;&gt;1</title>
<path fill="none" stroke="black" d="M493.26,-651.834C479.919,-641.341 461.037,-626.489 445.92,-614.6"/>
<polygon fill="black" stroke="black" points="447.992,-611.777 437.968,-608.345 443.664,-617.279 447.992,-611.777"/>
</g>
<!-- 3 -->
<g id="node4" class="node"><title>3</title>
<ellipse fill="none" stroke="black" cx="214" cy="-450" rx="27" ry="18"/>
<text text-anchor="middle" x="214" y="-446.3" font-family="Times,serif" font-size="14.00">3</text>
</g>
<!-- 0&#45;&gt;3 -->
<g id="edge2" class="edge"><title>0&#45;&gt;3</title>
<path fill="none" stroke="black" d="M484.335,-660.108C431.611,-648.717 310.569,-615.445 245,-540 229.786,-522.494 221.916,-497.088 217.921,-477.897"/>
<polygon fill="black" stroke="black" points="221.344,-477.159 216.079,-467.965 214.462,-478.436 221.344,-477.159"/>
</g>
<!-- 5 -->
<g id="node6" class="node"><title>5</title>
<ellipse fill="none" stroke="black" cx="300" cy="-234" rx="27" ry="18"/>
<text text-anchor="middle" x="300" y="-230.3" font-family="Times,serif" font-size="14.00">5</text>
</g>
<!-- 0&#45;&gt;5 -->
<g id="edge3" class="edge"><title>0&#45;&gt;5</title>
<path fill="none" stroke="black" d="M515.002,-648.216C521.811,-624.409 533.647,-579.346 538,-540 550.795,-424.345 549.701,-369.856 467,-288 432.023,-253.38 374.555,-241.35 336.994,-237.185"/>
<polygon fill="black" stroke="black" points="337.255,-233.694 326.963,-236.206 336.576,-240.661 337.255,-233.694"/>
</g>
<!-- 9 -->
<g id="node10" class="node"><title>9</title>
<ellipse fill="none" stroke="black" cx="431" cy="-306" rx="27" ry="18"/>
<text text-anchor="middle" x="431" y="-302.3" font-family="Times,serif" font-size="14.00">9</text>
</g>
<!-- 0&#45;&gt;9 -->
<g id="edge4" class="edge"><title>0&#45;&gt;9</title>
<path fill="none" stroke="black" d="M517.251,-648.419C529.111,-619.089 550.174,-556.221 538,-504 522.033,-435.512 475.302,-365.564 449.187,-330.335"/>
<polygon fill="black" stroke="black" points="451.835,-328.033 443.024,-322.149 446.243,-332.243 451.835,-328.033"/>
</g>
<!-- 2 -->
<g id="node3" class="node"><title>2</title>
<ellipse fill="none" stroke="black" cx="355" cy="-522" rx="27" ry="18"/>
<text text-anchor="middle" x="355" y="-518.3" font-family="Times,serif" font-size="14.00">2</text>
</g>
<!-- 1&#45;&gt;2 -->
<g id="edge5" class="edge"><title>1&#45;&gt;2</title>
<path fill="none" stroke="black" d="M407.003,-578.155C397.99,-568.596 386.109,-555.994 375.978,-545.249"/>
<polygon fill="black" stroke="black" points="378.383,-542.699 368.977,-537.824 373.29,-547.501 378.383,-542.699"/>
</g>
<!-- 1&#45;&gt;3 -->
<g id="edge6" class="edge"><title>1&#45;&gt;3</title>
<path fill="none" stroke="black" d="M395.049,-588.811C363.768,-582.155 311.602,-567.066 275,-540 252.044,-523.025 232.605,-496.666 221.725,-477.033"/>
<polygon fill="black" stroke="black" points="224.772,-475.306 217.093,-468.006 218.544,-478.501 224.772,-475.306"/>
</g>
<!-- 1&#45;&gt;5 -->
<g id="edge7" class="edge"><title>1&#45;&gt;5</title>
<path fill="none" stroke="black" d="M412.954,-576.786C396.625,-530.697 361.498,-395.325 318,-288 314.431,-279.195 309.941,-269.874 306.069,-261.544"/>
<polygon fill="black" stroke="black" points="309.206,-259.986 301.901,-252.312 302.826,-262.867 309.206,-259.986"/>
</g>
<!-- 1&#45;&gt;9 -->
<g id="edge8" class="edge"><title>1&#45;&gt;9</title>
<path fill="none" stroke="black" d="M422.667,-575.928C426.64,-565.821 432.39,-552.571 435,-540 450.186,-466.862 436.754,-378.215 431.412,-334.336"/>
<polygon fill="black" stroke="black" points="434.864,-333.719 430.25,-324.181 427.91,-334.514 434.864,-333.719"/>
</g>
<!-- 2&#45;&gt;3 -->
<g id="edge9" class="edge"><title>2&#45;&gt;3</title>
<path fill="none" stroke="black" d="M333.891,-510.52C310.113,-498.716 271.271,-479.433 244.267,-466.026"/>
<polygon fill="black" stroke="black" points="245.767,-462.863 235.253,-461.551 242.654,-469.133 245.767,-462.863"/>
</g>
<!-- 2&#45;&gt;5 -->
<g id="edge10" class="edge"><title>2&#45;&gt;5</title>
<path fill="none" stroke="black" d="M351.724,-503.966C342.515,-456.079 316.342,-319.98 305.164,-261.852"/>
<polygon fill="black" stroke="black" points="308.584,-261.104 303.259,-251.945 301.71,-262.426 308.584,-261.104"/>
</g>
<!-- 2&#45;&gt;9 -->
<g id="edge11" class="edge"><title>2&#45;&gt;9</title>
<path fill="none" stroke="black" d="M360.964,-504.208C374.144,-467.095 405.836,-377.858 421.669,-333.274"/>
<polygon fill="black" stroke="black" points="425.016,-334.309 425.064,-323.714 418.419,-331.966 425.016,-334.309"/>
</g>
<!-- 3&#45;&gt;1 -->
<g id="edge12" class="edge"><title>3&#45;&gt;1</title>
<path fill="none" stroke="black" d="M228.161,-465.615C242.528,-485.077 265.182,-519.429 293,-540 321.546,-561.109 359.56,-574.933 386.854,-583.153"/>
<polygon fill="black" stroke="black" points="386.169,-586.599 396.749,-586.032 388.125,-579.877 386.169,-586.599"/>
</g>
<!-- 4 -->
<g id="node5" class="node"><title>4</title>
<ellipse fill="none" stroke="black" cx="225" cy="-378" rx="27" ry="18"/>
<text text-anchor="middle" x="225" y="-374.3" font-family="Times,serif" font-size="14.00">4</text>
</g>
<!-- 3&#45;&gt;4 -->
<g id="edge13" class="edge"><title>3&#45;&gt;4</title>
<path fill="none" stroke="black" d="M216.663,-432.055C217.874,-424.346 219.339,-415.027 220.7,-406.364"/>
<polygon fill="black" stroke="black" points="224.19,-406.697 222.285,-396.275 217.275,-405.611 224.19,-406.697"/>
</g>
<!-- 3&#45;&gt;5 -->
<g id="edge14" class="edge"><title>3&#45;&gt;5</title>
<path fill="none" stroke="black" d="M198.386,-434.925C185.118,-417.21 170.603,-385.956 180,-360 196.906,-313.306 240.802,-273.188 270.742,-251.716"/>
<polygon fill="black" stroke="black" points="272.913,-254.47 279.161,-245.914 268.941,-248.706 272.913,-254.47"/>
</g>
<!-- 3&#45;&gt;9 -->
<g id="edge15" class="edge"><title>3&#45;&gt;9</title>
<path fill="none" stroke="black" d="M230.628,-435.384C267.484,-409.093 355.478,-351.444 401.729,-323.219"/>
<polygon fill="black" stroke="black" points="403.645,-326.15 410.395,-317.984 400.026,-320.158 403.645,-326.15"/>
</g>
<!-- 4&#45;&gt;1 -->
<g id="edge16" class="edge"><title>4&#45;&gt;1</title>
<path fill="none" stroke="black" d="M233.025,-395.266C251.149,-431.541 295.498,-517.628 319,-540 338.679,-558.733 366.277,-572.531 387.804,-581.345"/>
<polygon fill="black" stroke="black" points="386.63,-584.644 397.217,-585.044 389.19,-578.129 386.63,-584.644"/>
</g>
<!-- 4&#45;&gt;5 -->
<g id="edge17" class="edge"><title>4&#45;&gt;5</title>
<path fill="none" stroke="black" d="M233.603,-360.711C246.601,-336.101 271.351,-289.241 286.687,-260.205"/>
<polygon fill="black" stroke="black" points="289.921,-261.576 291.497,-251.099 283.732,-258.307 289.921,-261.576"/>
</g>
<!-- 4&#45;&gt;9 -->
<g id="edge18" class="edge"><title>4&#45;&gt;9</title>
<path fill="none" stroke="black" d="M246.998,-367.489C253.111,-364.952 259.779,-362.284 266,-360 310.792,-343.552 363.411,-327.142 396.969,-317.036"/>
<polygon fill="black" stroke="black" points="398.166,-320.331 406.742,-314.109 396.158,-313.626 398.166,-320.331"/>
</g>
<!-- 5&#45;&gt;1 -->
<g id="edge19" class="edge"><title>5&#45;&gt;1</title>
<path fill="none" stroke="black" d="M315.481,-249.085C322.787,-259.589 330.492,-274.41 336,-288 376.403,-387.687 409.583,-511.571 419.337,-565.632"/>
<polygon fill="black" stroke="black" points="415.93,-566.484 421.014,-575.78 422.837,-565.343 415.93,-566.484"/>
</g>
<!-- 5&#45;&gt;3 -->
<g id="edge20" class="edge"><title>5&#45;&gt;3</title>
<path fill="none" stroke="black" d="M285.834,-249.565C261.856,-270.433 215.488,-311.698 198,-360 190.486,-380.755 198.261,-404.896 205.671,-422.795"/>
<polygon fill="black" stroke="black" points="202.48,-424.236 209.65,-432.036 208.909,-421.467 202.48,-424.236"/>
</g>
<!-- 6 -->
<g id="node7" class="node"><title>6</title>
<ellipse fill="none" stroke="black" cx="241" cy="-90" rx="27" ry="18"/>
<text text-anchor="middle" x="241" y="-86.3" font-family="Times,serif" font-size="14.00">6</text>
</g>
<!-- 5&#45;&gt;6 -->
<g id="edge22" class="edge"><title>5&#45;&gt;6</title>
<path fill="none" stroke="black" d="M293.116,-216.433C282.947,-191.957 263.815,-145.912 251.776,-116.936"/>
<polygon fill="black" stroke="black" points="254.909,-115.353 247.84,-107.462 248.445,-118.039 254.909,-115.353"/>
</g>
<!-- 7 -->
<g id="node8" class="node"><title>7</title>
<ellipse fill="none" stroke="black" cx="109" cy="-162" rx="27" ry="18"/>
<text text-anchor="middle" x="109" y="-158.3" font-family="Times,serif" font-size="14.00">7</text>
</g>
<!-- 5&#45;&gt;7 -->
<g id="edge21" class="edge"><title>5&#45;&gt;7</title>
<path fill="none" stroke="black" d="M276.961,-224.556C243.261,-212.206 180.359,-189.152 141.828,-175.031"/>
<polygon fill="black" stroke="black" points="142.714,-171.628 132.121,-171.474 140.306,-178.201 142.714,-171.628"/>
</g>
<!-- 5&#45;&gt;9 -->
<g id="edge23" class="edge"><title>5&#45;&gt;9</title>
<path fill="none" stroke="black" d="M322.557,-244.489C345.215,-255.457 379.813,-273.739 403.908,-287.343"/>
<polygon fill="black" stroke="black" points="402.478,-290.557 412.896,-292.485 405.954,-284.481 402.478,-290.557"/>
</g>
<!-- 6&#45;&gt;1 -->
<g id="edge24" class="edge"><title>6&#45;&gt;1</title>
<path fill="none" stroke="black" d="M267.879,-92.093C338.521,-96.543 524,-119.075 524,-233 524,-451 524,-451 524,-451 524,-503.335 477.589,-549.394 447.074,-574.02"/>
<polygon fill="black" stroke="black" points="444.659,-571.466 438.941,-580.385 448.973,-576.978 444.659,-571.466"/>
</g>
<!-- 6&#45;&gt;3 -->
<g id="edge25" class="edge"><title>6&#45;&gt;3</title>
<path fill="none" stroke="black" d="M235.902,-107.778C223.443,-149.766 191.689,-262.975 181,-360 179.248,-375.904 176.602,-380.616 181,-396 183.994,-406.474 189.723,-416.892 195.579,-425.685"/>
<polygon fill="black" stroke="black" points="192.744,-427.738 201.379,-433.877 198.457,-423.693 192.744,-427.738"/>
</g>
<!-- 6&#45;&gt;7 -->
<g id="edge26" class="edge"><title>6&#45;&gt;7</title>
<path fill="none" stroke="black" d="M222.906,-103.406C201.551,-115.722 166.093,-134.558 140.307,-147.307"/>
<polygon fill="black" stroke="black" points="138.743,-144.175 131.289,-151.705 141.811,-150.467 138.743,-144.175"/>
</g>
<!-- 8 -->
<g id="node9" class="node"><title>8</title>
<ellipse fill="none" stroke="black" cx="241" cy="-18" rx="27" ry="18"/>
<text text-anchor="middle" x="241" y="-14.3" font-family="Times,serif" font-size="14.00">8</text>
</g>
<!-- 6&#45;&gt;8 -->
<g id="edge27" class="edge"><title>6&#45;&gt;8</title>
<path fill="none" stroke="black" d="M241,-71.6966C241,-63.9827 241,-54.7125 241,-46.1124"/>
<polygon fill="black" stroke="black" points="244.5,-46.1043 241,-36.1043 237.5,-46.1044 244.5,-46.1043"/>
</g>
<!-- 6&#45;&gt;9 -->
<g id="edge28" class="edge"><title>6&#45;&gt;9</title>
<path fill="none" stroke="black" d="M256.913,-104.753C282.095,-126.896 332.057,-172.393 369,-216 386.39,-236.527 403.679,-261.86 415.565,-280.243"/>
<polygon fill="black" stroke="black" points="412.767,-282.366 421.1,-288.909 418.666,-278.597 412.767,-282.366"/>
</g>
<!-- 7&#45;&gt;1 -->
<g id="edge29" class="edge"><title>7&#45;&gt;1</title>
<path fill="none" stroke="black" d="M95.6454,-177.943C75.0785,-202.559 38,-254.009 38,-305 38,-451 38,-451 38,-451 38,-524.566 289.559,-572.158 384.93,-587.557"/>
<polygon fill="black" stroke="black" points="384.551,-591.041 394.976,-589.153 385.649,-584.127 384.551,-591.041"/>
</g>
<!-- 7&#45;&gt;3 -->
<g id="edge30" class="edge"><title>7&#45;&gt;3</title>
<path fill="none" stroke="black" d="M102.43,-179.616C87.5161,-220.28 55.6974,-326.547 100,-396 117.069,-422.759 151.532,-436.219 178.12,-442.855"/>
<polygon fill="black" stroke="black" points="177.343,-446.268 187.871,-445.077 178.899,-439.443 177.343,-446.268"/>
</g>
<!-- 7&#45;&gt;6 -->
<g id="edge31" class="edge"><title>7&#45;&gt;6</title>
<path fill="none" stroke="black" d="M127.283,-148.485C148.676,-136.157 184.04,-117.374 209.755,-104.663"/>
<polygon fill="black" stroke="black" points="211.295,-107.806 218.749,-100.277 208.227,-101.514 211.295,-107.806"/>
</g>
<!-- 7&#45;&gt;8 -->
<g id="edge32" class="edge"><title>7&#45;&gt;8</title>
<path fill="none" stroke="black" d="M122.629,-146.338C145.75,-121.466 192.801,-70.8503 220.106,-41.477"/>
<polygon fill="black" stroke="black" points="223.002,-43.5019 227.247,-33.7946 217.875,-38.7359 223.002,-43.5019"/>
</g>
<!-- 7&#45;&gt;9 -->
<g id="edge33" class="edge"><title>7&#45;&gt;9</title>
<path fill="none" stroke="black" d="M135.746,-164.759C179.868,-168.609 269.622,-180.502 336,-216 344.489,-220.54 383.756,-258.457 409.075,-283.314"/>
<polygon fill="black" stroke="black" points="406.853,-286.038 416.435,-290.558 411.763,-281.049 406.853,-286.038"/>
</g>
<!-- 8&#45;&gt;1 -->
<g id="edge34" class="edge"><title>8&#45;&gt;1</title>
<path fill="none" stroke="black" d="M267.356,-22.5709C356.024,-35.3115 638,-82.0356 638,-161 638,-307 638,-307 638,-307 638,-425.153 592.082,-455.014 510,-540 493.722,-556.853 470.961,-570.28 452.531,-579.403"/>
<polygon fill="black" stroke="black" points="450.87,-576.317 443.346,-583.776 453.879,-582.637 450.87,-576.317"/>
</g>
<!-- 8&#45;&gt;3 -->
<g id="edge35" class="edge"><title>8&#45;&gt;3</title>
<path fill="none" stroke="black" d="M214.288,-22.0627C151.541,-30.891 0,-62.417 0,-161 0,-307 0,-307 0,-307 0,-391.51 117.304,-428.72 178.215,-442.345"/>
<polygon fill="black" stroke="black" points="177.676,-445.808 188.187,-444.477 179.14,-438.963 177.676,-445.808"/>
</g>
<!-- 8&#45;&gt;9 -->
<g id="edge36" class="edge"><title>8&#45;&gt;9</title>
<path fill="none" stroke="black" d="M255.108,-33.7174C284.555,-65.0603 353.352,-141.629 396,-216 407.445,-235.959 416.755,-260.388 422.888,-278.6"/>
<polygon fill="black" stroke="black" points="419.613,-279.846 426.043,-288.266 426.267,-277.674 419.613,-279.846"/>
</g>
<!-- 9&#45;&gt;1 -->
<g id="edge37" class="edge"><title>9&#45;&gt;1</title>
<path fill="none" stroke="black" d="M439.384,-323.316C452.012,-361.614 469.596,-460.068 453,-540 450.851,-550.35 446.573,-561.161 441.656,-570.299"/>
<polygon fill="black" stroke="black" points="438.503,-568.751 436.362,-579.127 444.507,-572.351 438.503,-568.751"/>
</g>
<!-- 9&#45;&gt;3 -->
<g id="edge38" class="edge"><title>9&#45;&gt;3</title>
<path fill="none" stroke="black" d="M414.689,-320.389C377.993,-346.597 289.51,-404.57 243.157,-432.851"/>
<polygon fill="black" stroke="black" points="241.227,-429.928 234.476,-438.093 244.845,-435.92 241.227,-429.928"/>
</g>
<!-- 9&#45;&gt;5 -->
<g id="edge39" class="edge"><title>9&#45;&gt;5</title>
<path fill="none" stroke="black" d="M408.844,-295.705C386.187,-284.756 351.305,-266.329 327.067,-252.643"/>
<polygon fill="black" stroke="black" points="328.764,-249.581 318.346,-247.655 325.289,-255.658 328.764,-249.581"/>
</g>
</g>
</svg>
