<?xml version="1.0" encoding="UTF-8" standalone="no"?>
<!DOCTYPE svg PUBLIC "-//W3C//DTD SVG 1.1//EN"
 "http://www.w3.org/Graphics/SVG/1.1/DTD/svg11.dtd">
<!-- Generated by graphviz version 2.36.0 (20140111.2315)
 -->
<!-- Title: G Pages: 1 -->
<svg width="1216pt" height="1268pt"
 viewBox="0.00 0.00 1216.00 1268.00" xmlns="http://www.w3.org/2000/svg" xmlns:xlink="http://www.w3.org/1999/xlink">
<g id="graph0" class="graph" transform="scale(1 1) rotate(0) translate(4 1264)">
<title>G</title>
<polygon fill="white" stroke="none" points="-4,4 -4,-1264 1212,-1264 1212,4 -4,4"/>
<!-- 0 -->
<g id="node1" class="node"><title>0</title>
<ellipse fill="none" stroke="black" cx="1064" cy="-1242" rx="27" ry="18"/>
<text text-anchor="middle" x="1064" y="-1238.3" font-family="Times,serif" font-size="14.00">0</text>
</g>
<!-- 1 -->
<g id="node2" class="node"><title>1</title>
<ellipse fill="none" stroke="black" cx="1064" cy="-1170" rx="27" ry="18"/>
<text text-anchor="middle" x="1064" y="-1166.3" font-family="Times,serif" font-size="14.00">1</text>
</g>
<!-- 0&#45;&gt;1 -->
<g id="edge1" class="edge"><title>0&#45;&gt;1</title>
<path fill="none" stroke="black" d="M1064,-1223.7C1064,-1215.98 1064,-1206.71 1064,-1198.11"/>
<polygon fill="black" stroke="black" points="1067.5,-1198.1 1064,-1188.1 1060.5,-1198.1 1067.5,-1198.1"/>
</g>
<!-- 2 -->
<g id="node3" class="node"><title>2</title>
<ellipse fill="none" stroke="black" cx="603" cy="-1098" rx="27" ry="18"/>
<text text-anchor="middle" x="603" y="-1094.3" font-family="Times,serif" font-size="14.00">2</text>
</g>
<!-- 0&#45;&gt;2 -->
<g id="edge2" class="edge"><title>0&#45;&gt;2</title>
<path fill="none" stroke="black" d="M1039.86,-1233.57C963.246,-1209.97 725.375,-1136.69 636.74,-1109.39"/>
<polygon fill="black" stroke="black" points="637.762,-1106.05 627.175,-1106.45 635.701,-1112.74 637.762,-1106.05"/>
</g>
<!-- 6 -->
<g id="node7" class="node"><title>6</title>
<ellipse fill="none" stroke="black" cx="648" cy="-810" rx="27" ry="18"/>
<text text-anchor="middle" x="648" y="-806.3" font-family="Times,serif" font-size="14.00">6</text>
</g>
<!-- 0&#45;&gt;6 -->
<g id="edge3" class="edge"><title>0&#45;&gt;6</title>
<path fill="none" stroke="black" d="M1049.92,-1226.45C988.448,-1162.91 743.355,-909.564 669.3,-833.017"/>
<polygon fill="black" stroke="black" points="671.758,-830.524 662.29,-825.77 666.727,-835.391 671.758,-830.524"/>
</g>
<!-- 10 -->
<g id="node11" class="node"><title>10</title>
<ellipse fill="none" stroke="black" cx="545" cy="-234" rx="27" ry="18"/>
<text text-anchor="middle" x="545" y="-230.3" font-family="Times,serif" font-size="14.00">10</text>
</g>
<!-- 0&#45;&gt;10 -->
<g id="edge4" class="edge"><title>0&#45;&gt;10</title>
<path fill="none" stroke="black" d="M1086.18,-1231.6C1126.58,-1212.82 1208,-1166.59 1208,-1099 1208,-1099 1208,-1099 1208,-665 1208,-423.921 1041.37,-378.687 818,-288 737.687,-255.394 635.755,-242.455 582.026,-237.634"/>
<polygon fill="black" stroke="black" points="582.204,-234.136 571.943,-236.775 581.61,-241.111 582.204,-234.136"/>
</g>
<!-- 14 -->
<g id="node15" class="node"><title>14</title>
<ellipse fill="none" stroke="black" cx="886" cy="-522" rx="27" ry="18"/>
<text text-anchor="middle" x="886" y="-518.3" font-family="Times,serif" font-size="14.00">14</text>
</g>
<!-- 0&#45;&gt;14 -->
<g id="edge5" class="edge"><title>0&#45;&gt;14</title>
<path fill="none" stroke="black" d="M1082.46,-1228.51C1112.83,-1206.31 1170,-1156.84 1170,-1099 1170,-1099 1170,-1099 1170,-881 1170,-732.397 1154.71,-661.257 1033,-576 998.963,-552.158 953.026,-537.872 921.618,-530.243"/>
<polygon fill="black" stroke="black" points="922.094,-526.76 911.561,-527.906 920.51,-533.579 922.094,-526.76"/>
</g>
<!-- 1&#45;&gt;2 -->
<g id="edge6" class="edge"><title>1&#45;&gt;2</title>
<path fill="none" stroke="black" d="M1037.89,-1165.04C959.935,-1153.2 728.7,-1118.09 639.067,-1104.48"/>
<polygon fill="black" stroke="black" points="639.517,-1101 629.105,-1102.96 638.466,-1107.93 639.517,-1101"/>
</g>
<!-- 1&#45;&gt;6 -->
<g id="edge7" class="edge"><title>1&#45;&gt;6</title>
<path fill="none" stroke="black" d="M1060.54,-1151.82C1048.84,-1098.67 1005.45,-936.125 900,-864 834.234,-819.018 737.902,-810.98 685.438,-810.248"/>
<polygon fill="black" stroke="black" points="685.263,-806.747 675.243,-810.191 685.223,-813.747 685.263,-806.747"/>
</g>
<!-- 1&#45;&gt;10 -->
<g id="edge8" class="edge"><title>1&#45;&gt;10</title>
<path fill="none" stroke="black" d="M1076.79,-1153.96C1096.49,-1129.21 1132,-1077.57 1132,-1027 1132,-1027 1132,-1027 1132,-881 1132,-573.14 1044.11,-435.708 774,-288 712.087,-254.143 629.33,-241.843 582.137,-237.425"/>
<polygon fill="black" stroke="black" points="582.329,-233.929 572.064,-236.552 581.725,-240.903 582.329,-233.929"/>
</g>
<!-- 1&#45;&gt;14 -->
<g id="edge9" class="edge"><title>1&#45;&gt;14</title>
<path fill="none" stroke="black" d="M1069.93,-1152.19C1078.67,-1125.86 1094,-1073.11 1094,-1027 1094,-1027 1094,-1027 1094,-737 1094,-654.364 1062.06,-631.685 1001,-576 978.016,-555.038 945.304,-541.056 920.642,-532.743"/>
<polygon fill="black" stroke="black" points="921.544,-529.356 910.953,-529.626 919.4,-536.02 921.544,-529.356"/>
</g>
<!-- 3 -->
<g id="node4" class="node"><title>3</title>
<ellipse fill="none" stroke="black" cx="631" cy="-1026" rx="27" ry="18"/>
<text text-anchor="middle" x="631" y="-1022.3" font-family="Times,serif" font-size="14.00">3</text>
</g>
<!-- 2&#45;&gt;3 -->
<g id="edge10" class="edge"><title>2&#45;&gt;3</title>
<path fill="none" stroke="black" d="M609.636,-1080.41C612.913,-1072.22 616.944,-1062.14 620.618,-1052.95"/>
<polygon fill="black" stroke="black" points="623.948,-1054.05 624.412,-1043.47 617.448,-1051.45 623.948,-1054.05"/>
</g>
<!-- 4 -->
<g id="node5" class="node"><title>4</title>
<ellipse fill="none" stroke="black" cx="585" cy="-954" rx="27" ry="18"/>
<text text-anchor="middle" x="585" y="-950.3" font-family="Times,serif" font-size="14.00">4</text>
</g>
<!-- 2&#45;&gt;4 -->
<g id="edge11" class="edge"><title>2&#45;&gt;4</title>
<path fill="none" stroke="black" d="M600.241,-1079.84C598.617,-1069.47 596.578,-1055.99 595,-1044 592.278,-1023.32 589.663,-999.872 587.79,-982.237"/>
<polygon fill="black" stroke="black" points="591.249,-981.666 586.725,-972.085 584.287,-982.396 591.249,-981.666"/>
</g>
<!-- 2&#45;&gt;6 -->
<g id="edge12" class="edge"><title>2&#45;&gt;6</title>
<path fill="none" stroke="black" d="M620.03,-1083.87C633.134,-1074.79 649.896,-1061.23 658,-1044 690.219,-975.487 665.394,-883.103 653.034,-838.017"/>
<polygon fill="black" stroke="black" points="656.344,-836.85 650.337,-828.122 649.59,-838.69 656.344,-836.85"/>
</g>
<!-- 2&#45;&gt;10 -->
<g id="edge13" class="edge"><title>2&#45;&gt;10</title>
<path fill="none" stroke="black" d="M575.904,-1096.03C492.208,-1092.49 240.355,-1078.62 168,-1044 116.682,-1019.44 76,-1011.89 76,-955 76,-955 76,-955 76,-377 76,-287.531 397.726,-248.393 508.321,-237.977"/>
<polygon fill="black" stroke="black" points="508.708,-241.456 518.346,-237.058 508.069,-234.486 508.708,-241.456"/>
</g>
<!-- 2&#45;&gt;14 -->
<g id="edge14" class="edge"><title>2&#45;&gt;14</title>
<path fill="none" stroke="black" d="M629.818,-1094.47C692.852,-1088.59 847.407,-1072.32 891,-1044 963.463,-996.924 1000,-969.412 1000,-883 1000,-883 1000,-883 1000,-665 1000,-609.611 945.872,-565.22 912.057,-541.61"/>
<polygon fill="black" stroke="black" points="913.763,-538.537 903.532,-535.786 909.814,-544.317 913.763,-538.537"/>
</g>
<!-- 3&#45;&gt;4 -->
<g id="edge15" class="edge"><title>3&#45;&gt;4</title>
<path fill="none" stroke="black" d="M620.562,-1009.12C614.798,-1000.34 607.516,-989.264 601.045,-979.416"/>
<polygon fill="black" stroke="black" points="603.814,-977.256 595.397,-970.821 597.964,-981.1 603.814,-977.256"/>
</g>
<!-- 3&#45;&gt;6 -->
<g id="edge16" class="edge"><title>3&#45;&gt;6</title>
<path fill="none" stroke="black" d="M632.362,-1007.85C635.303,-970.832 642.266,-883.181 645.824,-838.386"/>
<polygon fill="black" stroke="black" points="649.328,-838.478 646.631,-828.232 642.35,-837.924 649.328,-838.478"/>
</g>
<!-- 3&#45;&gt;10 -->
<g id="edge17" class="edge"><title>3&#45;&gt;10</title>
<path fill="none" stroke="black" d="M608.568,-1015.9C565.59,-997.823 469.802,-954.403 401,-900 284.586,-807.949 252.044,-759.051 232,-612 207.938,-435.473 432.723,-295.463 515.304,-250.364"/>
<polygon fill="black" stroke="black" points="517.051,-253.399 524.196,-245.576 513.732,-247.236 517.051,-253.399"/>
</g>
<!-- 3&#45;&gt;14 -->
<g id="edge18" class="edge"><title>3&#45;&gt;14</title>
<path fill="none" stroke="black" d="M648.307,-1011.89C700.759,-970.795 856.881,-838.008 898,-684 910.395,-637.575 910.427,-623.474 903,-576 901.62,-567.176 899.02,-557.816 896.262,-549.456"/>
<polygon fill="black" stroke="black" points="899.507,-548.134 892.89,-539.859 892.903,-550.454 899.507,-548.134"/>
</g>
<!-- 5 -->
<g id="node6" class="node"><title>5</title>
<ellipse fill="none" stroke="black" cx="555" cy="-882" rx="27" ry="18"/>
<text text-anchor="middle" x="555" y="-878.3" font-family="Times,serif" font-size="14.00">5</text>
</g>
<!-- 4&#45;&gt;5 -->
<g id="edge19" class="edge"><title>4&#45;&gt;5</title>
<path fill="none" stroke="black" d="M577.89,-936.411C574.341,-928.129 569.968,-917.925 565.998,-908.662"/>
<polygon fill="black" stroke="black" points="569.215,-907.283 562.059,-899.47 562.781,-910.04 569.215,-907.283"/>
</g>
<!-- 4&#45;&gt;6 -->
<g id="edge20" class="edge"><title>4&#45;&gt;6</title>
<path fill="none" stroke="black" d="M592.35,-936.433C603.209,-911.957 623.638,-865.912 636.493,-836.936"/>
<polygon fill="black" stroke="black" points="639.84,-838.022 640.697,-827.462 633.442,-835.183 639.84,-838.022"/>
</g>
<!-- 4&#45;&gt;10 -->
<g id="edge21" class="edge"><title>4&#45;&gt;10</title>
<path fill="none" stroke="black" d="M562.73,-943.601C519.499,-924.85 422.045,-880.089 349,-828 233.784,-745.838 132,-736.511 132,-595 132,-595 132,-595 132,-521 132,-392.811 194.148,-357.285 302,-288 366.102,-246.82 457.281,-237.228 507.759,-235.244"/>
<polygon fill="black" stroke="black" points="508.002,-238.738 517.888,-234.927 507.783,-231.741 508.002,-238.738"/>
</g>
<!-- 4&#45;&gt;14 -->
<g id="edge22" class="edge"><title>4&#45;&gt;14</title>
<path fill="none" stroke="black" d="M602.266,-940.11C655.889,-899.986 817.099,-778.647 836,-756 889.437,-691.974 891.357,-659.363 889,-576 888.765,-567.673 888.321,-558.619 887.846,-550.389"/>
<polygon fill="black" stroke="black" points="891.326,-549.942 887.219,-540.175 884.339,-550.371 891.326,-549.942"/>
</g>
<!-- 5&#45;&gt;6 -->
<g id="edge23" class="edge"><title>5&#45;&gt;6</title>
<path fill="none" stroke="black" d="M572.493,-867.834C586.522,-857.274 606.416,-842.3 622.262,-830.373"/>
<polygon fill="black" stroke="black" points="624.701,-832.918 630.586,-824.107 620.491,-827.325 624.701,-832.918"/>
</g>
<!-- 5&#45;&gt;10 -->
<g id="edge24" class="edge"><title>5&#45;&gt;10</title>
<path fill="none" stroke="black" d="M530.626,-874.17C482.608,-859.641 374.662,-821.53 308,-756 256.393,-705.269 249.399,-682.244 232,-612 200.707,-485.665 226.392,-391.598 342,-288 388.208,-246.592 462.803,-236.824 507.548,-234.923"/>
<polygon fill="black" stroke="black" points="507.818,-238.416 517.704,-234.605 507.599,-231.419 507.818,-238.416"/>
</g>
<!-- 5&#45;&gt;14 -->
<g id="edge25" class="edge"><title>5&#45;&gt;14</title>
<path fill="none" stroke="black" d="M578.277,-872.59C604.455,-862.869 648.012,-845.897 684,-828 712.187,-813.982 782.934,-777.423 806,-756 857.585,-708.089 858.887,-681.17 872,-612 875.908,-591.383 879.565,-567.933 882.161,-550.281"/>
<polygon fill="black" stroke="black" points="885.663,-550.515 883.632,-540.117 878.735,-549.512 885.663,-550.515"/>
</g>
<!-- 6&#45;&gt;2 -->
<g id="edge27" class="edge"><title>6&#45;&gt;2</title>
<path fill="none" stroke="black" d="M658.84,-826.661C678.248,-865.605 711.233,-969.076 676,-1044 667.891,-1061.24 651.114,-1074.8 635.535,-1083.89"/>
<polygon fill="black" stroke="black" points="633.719,-1080.89 626.576,-1088.71 637.039,-1087.05 633.719,-1080.89"/>
</g>
<!-- 7 -->
<g id="node8" class="node"><title>7</title>
<ellipse fill="none" stroke="black" cx="509" cy="-738" rx="27" ry="18"/>
<text text-anchor="middle" x="509" y="-734.3" font-family="Times,serif" font-size="14.00">7</text>
</g>
<!-- 6&#45;&gt;7 -->
<g id="edge26" class="edge"><title>6&#45;&gt;7</title>
<path fill="none" stroke="black" d="M627.19,-798.52C603.852,-786.767 565.793,-767.601 539.187,-754.202"/>
<polygon fill="black" stroke="black" points="540.458,-750.923 529.952,-749.551 537.309,-757.175 540.458,-750.923"/>
</g>
<!-- 8 -->
<g id="node9" class="node"><title>8</title>
<ellipse fill="none" stroke="black" cx="547" cy="-666" rx="27" ry="18"/>
<text text-anchor="middle" x="547" y="-662.3" font-family="Times,serif" font-size="14.00">8</text>
</g>
<!-- 6&#45;&gt;8 -->
<g id="edge28" class="edge"><title>6&#45;&gt;8</title>
<path fill="none" stroke="black" d="M630.182,-796.459C617.193,-786.616 599.861,-771.948 588,-756 573.78,-736.881 562.847,-712.041 555.861,-693.464"/>
<polygon fill="black" stroke="black" points="559.082,-692.078 552.39,-683.864 552.499,-694.458 559.082,-692.078"/>
</g>
<!-- 6&#45;&gt;10 -->
<g id="edge29" class="edge"><title>6&#45;&gt;10</title>
<path fill="none" stroke="black" d="M620.851,-809.729C579.118,-809.68 501.008,-803.425 464,-756 355.646,-617.148 437.447,-531.154 479,-360 486.835,-327.726 484.848,-318.045 499,-288 504.4,-276.536 512.235,-264.874 520.079,-255.418"/>
<polygon fill="black" stroke="black" points="522.88,-257.535 526.913,-247.737 517.651,-252.881 522.88,-257.535"/>
</g>
<!-- 6&#45;&gt;14 -->
<g id="edge30" class="edge"><title>6&#45;&gt;14</title>
<path fill="none" stroke="black" d="M672.256,-801.51C696.782,-793.853 734.048,-779.666 759,-756 821.986,-696.26 856.759,-595.559 874.055,-548.575"/>
<polygon fill="black" stroke="black" points="877.36,-549.73 877.584,-539.138 870.803,-547.278 877.36,-549.73"/>
</g>
<!-- 7&#45;&gt;2 -->
<g id="edge31" class="edge"><title>7&#45;&gt;2</title>
<path fill="none" stroke="black" d="M507.222,-756.027C504.599,-782.657 500,-835.795 500,-881 500,-955 500,-955 500,-955 500,-1007.34 546.411,-1053.39 576.926,-1078.02"/>
<polygon fill="black" stroke="black" points="575.027,-1080.98 585.059,-1084.38 579.341,-1075.47 575.027,-1080.98"/>
</g>
<!-- 7&#45;&gt;8 -->
<g id="edge32" class="edge"><title>7&#45;&gt;8</title>
<path fill="none" stroke="black" d="M517.813,-720.765C522.418,-712.283 528.155,-701.714 533.321,-692.197"/>
<polygon fill="black" stroke="black" points="536.539,-693.606 538.234,-683.147 530.387,-690.266 536.539,-693.606"/>
</g>
<!-- 7&#45;&gt;10 -->
<g id="edge33" class="edge"><title>7&#45;&gt;10</title>
<path fill="none" stroke="black" d="M502.575,-720.344C493.828,-696.688 478.618,-651.804 473,-612 454.25,-479.147 509.536,-322.057 533.995,-261.042"/>
<polygon fill="black" stroke="black" points="537.375,-262.022 537.91,-251.441 530.893,-259.379 537.375,-262.022"/>
</g>
<!-- 7&#45;&gt;14 -->
<g id="edge34" class="edge"><title>7&#45;&gt;14</title>
<path fill="none" stroke="black" d="M529.003,-725.646C591.629,-690.096 784.108,-580.838 857.325,-539.277"/>
<polygon fill="black" stroke="black" points="859.076,-542.308 866.045,-534.327 855.621,-536.22 859.076,-542.308"/>
</g>
<!-- 8&#45;&gt;2 -->
<g id="edge36" class="edge"><title>8&#45;&gt;2</title>
<path fill="none" stroke="black" d="M572.404,-672.145C644.971,-688.47 848,-746.192 848,-881 848,-955 848,-955 848,-955 848,-1050.16 707.934,-1082.6 639.612,-1092.76"/>
<polygon fill="black" stroke="black" points="639.102,-1089.3 629.686,-1094.16 640.075,-1096.23 639.102,-1089.3"/>
</g>
<!-- 9 -->
<g id="node10" class="node"><title>9</title>
<ellipse fill="none" stroke="black" cx="509" cy="-594" rx="27" ry="18"/>
<text text-anchor="middle" x="509" y="-590.3" font-family="Times,serif" font-size="14.00">9</text>
</g>
<!-- 8&#45;&gt;9 -->
<g id="edge35" class="edge"><title>8&#45;&gt;9</title>
<path fill="none" stroke="black" d="M533.305,-650.155C527.716,-641.787 521.599,-631.088 516.738,-621.344"/>
<polygon fill="black" stroke="black" points="519.785,-619.599 512.362,-612.04 513.451,-622.579 519.785,-619.599"/>
</g>
<!-- 8&#45;&gt;10 -->
<g id="edge37" class="edge"><title>8&#45;&gt;10</title>
<path fill="none" stroke="black" d="M550.359,-648.029C555.313,-621.475 564,-568.437 564,-523 564,-523 564,-523 564,-377 564,-336.64 556.366,-290.392 550.776,-261.936"/>
<polygon fill="black" stroke="black" points="554.169,-261.057 548.754,-251.951 547.308,-262.447 554.169,-261.057"/>
</g>
<!-- 8&#45;&gt;14 -->
<g id="edge38" class="edge"><title>8&#45;&gt;14</title>
<path fill="none" stroke="black" d="M569.243,-655.683C627.788,-631.16 786.318,-564.755 854.322,-536.269"/>
<polygon fill="black" stroke="black" points="855.804,-539.443 863.675,-532.351 853.1,-532.987 855.804,-539.443"/>
</g>
<!-- 9&#45;&gt;2 -->
<g id="edge39" class="edge"><title>9&#45;&gt;2</title>
<path fill="none" stroke="black" d="M502.575,-611.656C493.828,-635.312 478.618,-680.196 473,-720 457.283,-831.362 476.784,-861.188 496,-972 501.585,-1004.21 491.828,-1017.53 511,-1044 525.308,-1063.76 549.41,-1077.25 569.356,-1085.68"/>
<polygon fill="black" stroke="black" points="568.167,-1088.97 578.752,-1089.41 570.752,-1082.47 568.167,-1088.97"/>
</g>
<!-- 9&#45;&gt;8 -->
<g id="edge40" class="edge"><title>9&#45;&gt;8</title>
<path fill="none" stroke="black" d="M522.723,-609.888C528.323,-618.276 534.448,-628.996 539.308,-638.748"/>
<polygon fill="black" stroke="black" points="536.26,-640.492 543.679,-648.055 542.596,-637.516 536.26,-640.492"/>
</g>
<!-- 9&#45;&gt;10 -->
<g id="edge41" class="edge"><title>9&#45;&gt;10</title>
<path fill="none" stroke="black" d="M512.359,-576.029C517.313,-549.475 526,-496.437 526,-451 526,-451 526,-451 526,-377 526,-336.64 533.634,-290.392 539.224,-261.936"/>
<polygon fill="black" stroke="black" points="542.692,-262.447 541.246,-251.951 535.831,-261.057 542.692,-262.447"/>
</g>
<!-- 9&#45;&gt;14 -->
<g id="edge42" class="edge"><title>9&#45;&gt;14</title>
<path fill="none" stroke="black" d="M534.213,-587.333C549.702,-583.911 569.966,-579.543 588,-576 682.217,-557.491 793.755,-538.403 849.889,-528.992"/>
<polygon fill="black" stroke="black" points="850.746,-532.397 860.032,-527.295 849.592,-525.493 850.746,-532.397"/>
</g>
<!-- 10&#45;&gt;2 -->
<g id="edge44" class="edge"><title>10&#45;&gt;2</title>
<path fill="none" stroke="black" d="M518.412,-237.706C421.48,-247.7 94,-286.734 94,-377 94,-955 94,-955 94,-955 94,-1011.89 134.682,-1019.44 186,-1044 253.429,-1076.26 476.747,-1090.51 565.921,-1095.16"/>
<polygon fill="black" stroke="black" points="565.946,-1098.67 576.112,-1095.68 566.303,-1091.68 565.946,-1098.67"/>
</g>
<!-- 10&#45;&gt;6 -->
<g id="edge45" class="edge"><title>10&#45;&gt;6</title>
<path fill="none" stroke="black" d="M538.966,-251.754C532.371,-261.755 523.121,-275.005 517,-288 502.848,-318.045 504.835,-327.726 497,-360 455.447,-531.154 373.646,-617.148 482,-756 512.704,-795.346 571.699,-806.354 610.57,-808.991"/>
<polygon fill="black" stroke="black" points="610.792,-812.507 620.96,-809.529 611.155,-805.517 610.792,-812.507"/>
</g>
<!-- 11 -->
<g id="node12" class="node"><title>11</title>
<ellipse fill="none" stroke="black" cx="972" cy="-162" rx="27" ry="18"/>
<text text-anchor="middle" x="972" y="-158.3" font-family="Times,serif" font-size="14.00">11</text>
</g>
<!-- 10&#45;&gt;11 -->
<g id="edge43" class="edge"><title>10&#45;&gt;11</title>
<path fill="none" stroke="black" d="M571.068,-228.727C644.259,-216.728 851.775,-182.709 935.905,-168.917"/>
<polygon fill="black" stroke="black" points="936.7,-172.334 946.003,-167.262 935.568,-165.426 936.7,-172.334"/>
</g>
<!-- 12 -->
<g id="node13" class="node"><title>12</title>
<ellipse fill="none" stroke="black" cx="545" cy="-90" rx="27" ry="18"/>
<text text-anchor="middle" x="545" y="-86.3" font-family="Times,serif" font-size="14.00">12</text>
</g>
<!-- 10&#45;&gt;12 -->
<g id="edge46" class="edge"><title>10&#45;&gt;12</title>
<path fill="none" stroke="black" d="M545,-215.871C545,-191.67 545,-147.211 545,-118.393"/>
<polygon fill="black" stroke="black" points="548.5,-118.189 545,-108.189 541.5,-118.189 548.5,-118.189"/>
</g>
<!-- 10&#45;&gt;14 -->
<g id="edge47" class="edge"><title>10&#45;&gt;14</title>
<path fill="none" stroke="black" d="M571.943,-236.269C612.808,-239.438 690.303,-250.403 742,-288 816.747,-342.361 865.122,-445.293 881.134,-494.068"/>
<polygon fill="black" stroke="black" points="877.865,-495.348 884.134,-503.89 884.56,-493.304 877.865,-495.348"/>
</g>
<!-- 11&#45;&gt;6 -->
<g id="edge48" class="edge"><title>11&#45;&gt;6</title>
<path fill="none" stroke="black" d="M978.799,-179.693C1002.75,-241.271 1077.72,-459.973 1001,-612 938.262,-736.32 760.718,-786.271 684.022,-802.452"/>
<polygon fill="black" stroke="black" points="682.992,-799.09 673.892,-804.516 684.389,-805.949 682.992,-799.09"/>
</g>
<!-- 11&#45;&gt;12 -->
<g id="edge49" class="edge"><title>11&#45;&gt;12</title>
<path fill="none" stroke="black" d="M950.659,-150.938C944.435,-148.338 937.545,-145.774 931,-144 805.873,-110.075 651.746,-97.2406 582.178,-92.9319"/>
<polygon fill="black" stroke="black" points="582.339,-89.4354 572.148,-92.3341 581.922,-96.423 582.339,-89.4354"/>
</g>
<!-- 13 -->
<g id="node14" class="node"><title>13</title>
<ellipse fill="none" stroke="black" cx="545" cy="-18" rx="27" ry="18"/>
<text text-anchor="middle" x="545" y="-14.3" font-family="Times,serif" font-size="14.00">13</text>
</g>
<!-- 11&#45;&gt;13 -->
<g id="edge51" class="edge"><title>11&#45;&gt;13</title>
<path fill="none" stroke="black" d="M949.998,-151.498C943.885,-148.962 937.218,-146.292 931,-144 802.438,-96.6164 646.395,-49.0727 578.855,-28.9683"/>
<polygon fill="black" stroke="black" points="579.752,-25.5835 569.169,-26.0927 577.759,-32.294 579.752,-25.5835"/>
</g>
<!-- 11&#45;&gt;14 -->
<g id="edge50" class="edge"><title>11&#45;&gt;14</title>
<path fill="none" stroke="black" d="M972.968,-180.094C975.007,-227.917 976.3,-366.23 931,-468 925.837,-479.6 917.319,-490.615 909.076,-499.568"/>
<polygon fill="black" stroke="black" points="906.445,-497.253 901.993,-506.867 911.469,-502.128 906.445,-497.253"/>
</g>
<!-- 12&#45;&gt;2 -->
<g id="edge53" class="edge"><title>12&#45;&gt;2</title>
<path fill="none" stroke="black" d="M518.099,-92.645C413.284,-99.776 38,-132.337 38,-233 38,-955 38,-955 38,-955 38,-1004.25 61.2461,-1019.56 104,-1044 182.803,-1089.04 463.929,-1095.87 565.799,-1096.86"/>
<polygon fill="black" stroke="black" points="565.895,-1100.36 575.924,-1096.94 565.953,-1093.36 565.895,-1100.36"/>
</g>
<!-- 12&#45;&gt;6 -->
<g id="edge54" class="edge"><title>12&#45;&gt;6</title>
<path fill="none" stroke="black" d="M536.499,-107.463C501.581,-177.126 373.107,-454.617 418,-684 424.564,-717.54 419.618,-733.115 445,-756 491.082,-797.548 565.719,-807.27 610.506,-809.124"/>
<polygon fill="black" stroke="black" points="610.571,-812.628 620.672,-809.431 610.782,-805.631 610.571,-812.628"/>
</g>
<!-- 12&#45;&gt;13 -->
<g id="edge52" class="edge"><title>12&#45;&gt;13</title>
<path fill="none" stroke="black" d="M545,-71.6966C545,-63.9827 545,-54.7125 545,-46.1124"/>
<polygon fill="black" stroke="black" points="548.5,-46.1043 545,-36.1043 541.5,-46.1044 548.5,-46.1043"/>
</g>
<!-- 12&#45;&gt;14 -->
<g id="edge55" class="edge"><title>12&#45;&gt;14</title>
<path fill="none" stroke="black" d="M571.158,-95.1401C655.833,-109.27 917,-158.86 917,-233 917,-379 917,-379 917,-379 917,-420.127 904.435,-466.443 895.304,-494.672"/>
<polygon fill="black" stroke="black" points="891.966,-493.616 892.125,-504.21 898.607,-495.83 891.966,-493.616"/>
</g>
<!-- 13&#45;&gt;2 -->
<g id="edge56" class="edge"><title>13&#45;&gt;2</title>
<path fill="none" stroke="black" d="M517.973,-20.1417C408.004,-25.5075 0,-52.712 0,-161 0,-955 0,-955 0,-955 0,-1000.59 12.694,-1019.28 51,-1044 94.1441,-1071.84 448.736,-1090.09 565.717,-1095.39"/>
<polygon fill="black" stroke="black" points="565.815,-1098.9 575.962,-1095.85 566.128,-1091.91 565.815,-1098.9"/>
</g>
<!-- 13&#45;&gt;6 -->
<g id="edge57" class="edge"><title>13&#45;&gt;6</title>
<path fill="none" stroke="black" d="M519.37,-23.8923C440.066,-39.7531 204,-92.7023 204,-161 204,-307 204,-307 204,-307 204,-528.446 247.171,-617.549 420,-756 475.551,-800.501 561.814,-808.918 610.762,-809.796"/>
<polygon fill="black" stroke="black" points="610.879,-813.297 620.907,-809.879 610.936,-806.297 610.879,-813.297"/>
</g>
<!-- 13&#45;&gt;14 -->
<g id="edge58" class="edge"><title>13&#45;&gt;14</title>
<path fill="none" stroke="black" d="M572.069,-20.4182C679.37,-26.7637 1069,-56.9678 1069,-161 1069,-235 1069,-235 1069,-235 1069,-351.078 1023.79,-377.578 951,-468 940.318,-481.271 925.823,-493.481 913.231,-502.829"/>
<polygon fill="black" stroke="black" points="910.969,-500.145 904.888,-508.822 915.052,-505.831 910.969,-500.145"/>
</g>
<!-- 14&#45;&gt;2 -->
<g id="edge60" class="edge"><title>14&#45;&gt;2</title>
<path fill="none" stroke="black" d="M908.354,-532.36C946.267,-552.048 1018,-601.237 1018,-665 1018,-883 1018,-883 1018,-883 1018,-969.412 981.463,-996.924 909,-1044 865.551,-1072.23 711.872,-1088.48 640.137,-1094.41"/>
<polygon fill="black" stroke="black" points="639.452,-1090.95 629.764,-1095.24 640.011,-1097.93 639.452,-1090.95"/>
</g>
<!-- 14&#45;&gt;6 -->
<g id="edge61" class="edge"><title>14&#45;&gt;6</title>
<path fill="none" stroke="black" d="M886.125,-540.056C879.196,-582.183 844.114,-692.345 777,-756 751.245,-780.428 712.371,-794.756 683.867,-802.229"/>
<polygon fill="black" stroke="black" points="682.757,-798.897 673.878,-804.677 684.424,-805.696 682.757,-798.897"/>
</g>
<!-- 14&#45;&gt;10 -->
<g id="edge62" class="edge"><title>14&#45;&gt;10</title>
<path fill="none" stroke="black" d="M875.992,-505.135C855.048,-462.896 805.014,-346.919 724,-288 681.133,-256.825 620.528,-243.96 581.874,-238.669"/>
<polygon fill="black" stroke="black" points="581.947,-235.151 571.586,-237.369 581.068,-242.095 581.947,-235.151"/>
</g>
<!-- 15 -->
<g id="node16" class="node"><title>15</title>
<ellipse fill="none" stroke="black" cx="623" cy="-450" rx="27" ry="18"/>
<text text-anchor="middle" x="623" y="-446.3" font-family="Times,serif" font-size="14.00">15</text>
</g>
<!-- 14&#45;&gt;15 -->
<g id="edge59" class="edge"><title>14&#45;&gt;15</title>
<path fill="none" stroke="black" d="M861.258,-514.415C814.167,-501.881 711.556,-474.57 657.655,-460.224"/>
<polygon fill="black" stroke="black" points="658.432,-456.809 647.868,-457.619 656.632,-463.573 658.432,-456.809"/>
</g>
<!-- 16 -->
<g id="node17" class="node"><title>16</title>
<ellipse fill="none" stroke="black" cx="742" cy="-378" rx="27" ry="18"/>
<text text-anchor="middle" x="742" y="-374.3" font-family="Times,serif" font-size="14.00">16</text>
</g>
<!-- 14&#45;&gt;16 -->
<g id="edge63" class="edge"><title>14&#45;&gt;16</title>
<path fill="none" stroke="black" d="M872.045,-506.3C855.033,-488.479 825.296,-457.647 799,-432 788.054,-421.324 775.648,-409.731 765.211,-400.117"/>
<polygon fill="black" stroke="black" points="767.406,-397.381 757.671,-393.199 762.674,-402.539 767.406,-397.381"/>
</g>
<!-- 15&#45;&gt;2 -->
<g id="edge65" class="edge"><title>15&#45;&gt;2</title>
<path fill="none" stroke="black" d="M598.892,-458.176C521.444,-482.868 284,-572.025 284,-737 284,-955 284,-955 284,-955 284,-1077.08 481.411,-1094.96 565.64,-1097.04"/>
<polygon fill="black" stroke="black" points="565.74,-1100.54 575.802,-1097.22 565.868,-1093.54 565.74,-1100.54"/>
</g>
<!-- 15&#45;&gt;6 -->
<g id="edge66" class="edge"><title>15&#45;&gt;6</title>
<path fill="none" stroke="black" d="M626.359,-467.971C631.313,-494.525 640,-547.563 640,-593 640,-667 640,-667 640,-667 640,-707.067 643.214,-753.394 645.568,-781.946"/>
<polygon fill="black" stroke="black" points="642.085,-782.3 646.419,-791.968 649.06,-781.708 642.085,-782.3"/>
</g>
<!-- 15&#45;&gt;10 -->
<g id="edge67" class="edge"><title>15&#45;&gt;10</title>
<path fill="none" stroke="black" d="M619.908,-432.005C614.097,-402.033 600.102,-338.203 578,-288 573.656,-278.134 567.707,-267.935 562.055,-259.15"/>
<polygon fill="black" stroke="black" points="564.807,-256.967 556.353,-250.581 558.979,-260.845 564.807,-256.967"/>
</g>
<!-- 15&#45;&gt;16 -->
<g id="edge64" class="edge"><title>15&#45;&gt;16</title>
<path fill="none" stroke="black" d="M642.65,-437.441C661.943,-426.092 691.581,-408.658 713.468,-395.784"/>
<polygon fill="black" stroke="black" points="715.476,-398.663 722.32,-390.576 711.926,-392.63 715.476,-398.663"/>
</g>
<!-- 16&#45;&gt;2 -->
<g id="edge69" class="edge"><title>16&#45;&gt;2</title>
<path fill="none" stroke="black" d="M750.419,-395.144C785.568,-464.633 916.256,-744.995 861,-972 852.539,-1006.76 853.026,-1021.76 825,-1044 771.036,-1086.82 687.983,-1095.92 640.238,-1097.36"/>
<polygon fill="black" stroke="black" points="639.966,-1093.86 630.039,-1097.56 640.107,-1100.86 639.966,-1093.86"/>
</g>
<!-- 16&#45;&gt;6 -->
<g id="edge70" class="edge"><title>16&#45;&gt;6</title>
<path fill="none" stroke="black" d="M742.995,-396.043C745.535,-450.905 748.495,-626.854 692,-756 686.958,-767.525 678.631,-778.527 670.57,-787.49"/>
<polygon fill="black" stroke="black" points="667.979,-785.136 663.643,-794.804 673.061,-789.95 667.979,-785.136"/>
</g>
<!-- 16&#45;&gt;10 -->
<g id="edge71" class="edge"><title>16&#45;&gt;10</title>
<path fill="none" stroke="black" d="M740.123,-359.826C737.048,-339.884 729.107,-307.27 709,-288 674.395,-254.835 618.884,-242.423 582.18,-237.778"/>
<polygon fill="black" stroke="black" points="582.228,-234.261 571.898,-236.617 581.442,-241.217 582.228,-234.261"/>
</g>
<!-- 17 -->
<g id="node18" class="node"><title>17</title>
<ellipse fill="none" stroke="black" cx="673" cy="-306" rx="27" ry="18"/>
<text text-anchor="middle" x="673" y="-302.3" font-family="Times,serif" font-size="14.00">17</text>
</g>
<!-- 16&#45;&gt;17 -->
<g id="edge68" class="edge"><title>16&#45;&gt;17</title>
<path fill="none" stroke="black" d="M727.703,-362.496C718.081,-352.735 705.223,-339.69 694.39,-328.7"/>
<polygon fill="black" stroke="black" points="696.791,-326.15 687.279,-321.485 691.806,-331.064 696.791,-326.15"/>
</g>
<!-- 17&#45;&gt;2 -->
<g id="edge72" class="edge"><title>17&#45;&gt;2</title>
<path fill="none" stroke="black" d="M651.122,-316.658C549.91,-362.978 132,-572.887 132,-881 132,-955 132,-955 132,-955 132,-1045.6 455.484,-1083.56 566.287,-1093.9"/>
<polygon fill="black" stroke="black" points="566.051,-1097.4 576.327,-1094.82 566.687,-1090.43 566.051,-1097.4"/>
</g>
<!-- 17&#45;&gt;6 -->
<g id="edge73" class="edge"><title>17&#45;&gt;6</title>
<path fill="none" stroke="black" d="M673.988,-324.042C675.445,-350.692 678,-403.857 678,-449 678,-667 678,-667 678,-667 678,-708.067 665.84,-754.4 657.004,-782.648"/>
<polygon fill="black" stroke="black" points="653.663,-781.602 653.927,-792.194 660.326,-783.749 653.663,-781.602"/>
</g>
<!-- 17&#45;&gt;10 -->
<g id="edge74" class="edge"><title>17&#45;&gt;10</title>
<path fill="none" stroke="black" d="M652.718,-293.908C631.559,-282.337 598.188,-264.087 574.195,-250.966"/>
<polygon fill="black" stroke="black" points="575.64,-247.767 565.187,-246.04 572.281,-253.909 575.64,-247.767"/>
</g>
</g>
</svg>
