<?xml version="1.0" encoding="UTF-8" standalone="no"?>
<!DOCTYPE svg PUBLIC "-//W3C//DTD SVG 1.1//EN"
 "http://www.w3.org/Graphics/SVG/1.1/DTD/svg11.dtd">
<!-- Generated by graphviz version 2.36.0 (20140111.2315)
 -->
<!-- Title: G Pages: 1 -->
<svg width="971pt" height="1124pt"
 viewBox="0.00 0.00 971.17 1124.00" xmlns="http://www.w3.org/2000/svg" xmlns:xlink="http://www.w3.org/1999/xlink">
<g id="graph0" class="graph" transform="scale(1 1) rotate(0) translate(4 1120)">
<title>G</title>
<polygon fill="white" stroke="none" points="-4,4 -4,-1120 967.173,-1120 967.173,4 -4,4"/>
<!-- 0 -->
<g id="node1" class="node"><title>0</title>
<ellipse fill="none" stroke="black" cx="606.173" cy="-1098" rx="27" ry="18"/>
<text text-anchor="middle" x="606.173" y="-1094.3" font-family="Times,serif" font-size="14.00">0</text>
</g>
<!-- 1 -->
<g id="node2" class="node"><title>1</title>
<ellipse fill="none" stroke="black" cx="568.173" cy="-1026" rx="27" ry="18"/>
<text text-anchor="middle" x="568.173" y="-1022.3" font-family="Times,serif" font-size="14.00">1</text>
</g>
<!-- 0&#45;&gt;1 -->
<g id="edge1" class="edge"><title>0&#45;&gt;1</title>
<path fill="none" stroke="black" d="M597.36,-1080.76C592.756,-1072.28 587.018,-1061.71 581.852,-1052.2"/>
<polygon fill="black" stroke="black" points="584.786,-1050.27 576.939,-1043.15 578.634,-1053.61 584.786,-1050.27"/>
</g>
<!-- 2 -->
<g id="node3" class="node"><title>2</title>
<ellipse fill="none" stroke="black" cx="699.173" cy="-954" rx="27" ry="18"/>
<text text-anchor="middle" x="699.173" y="-950.3" font-family="Times,serif" font-size="14.00">2</text>
</g>
<!-- 0&#45;&gt;2 -->
<g id="edge2" class="edge"><title>0&#45;&gt;2</title>
<path fill="none" stroke="black" d="M622.216,-1083.37C633.336,-1073.31 647.927,-1058.86 658.173,-1044 671.702,-1024.39 682.7,-999.593 689.887,-981.159"/>
<polygon fill="black" stroke="black" points="693.221,-982.238 693.479,-971.646 686.672,-979.765 693.221,-982.238"/>
</g>
<!-- 8 -->
<g id="node9" class="node"><title>8</title>
<ellipse fill="none" stroke="black" cx="623.173" cy="-666" rx="27" ry="18"/>
<text text-anchor="middle" x="623.173" y="-662.3" font-family="Times,serif" font-size="14.00">8</text>
</g>
<!-- 0&#45;&gt;8 -->
<g id="edge3" class="edge"><title>0&#45;&gt;8</title>
<path fill="none" stroke="black" d="M613.681,-1080.34C624.755,-1054.2 644.173,-1001.7 644.173,-955 644.173,-955 644.173,-955 644.173,-809 644.173,-768.561 635.736,-722.334 629.557,-693.905"/>
<polygon fill="black" stroke="black" points="632.924,-692.922 627.322,-683.93 626.093,-694.453 632.924,-692.922"/>
</g>
<!-- 12 -->
<g id="node13" class="node"><title>12</title>
<ellipse fill="none" stroke="black" cx="307.173" cy="-378" rx="27" ry="18"/>
<text text-anchor="middle" x="307.173" y="-374.3" font-family="Times,serif" font-size="14.00">12</text>
</g>
<!-- 0&#45;&gt;12 -->
<g id="edge4" class="edge"><title>0&#45;&gt;12</title>
<path fill="none" stroke="black" d="M579.002,-1096.54C461.28,-1093.81 1.1734,-1075.43 1.1734,-955 1.1734,-955 1.1734,-955 1.1734,-737 1.1734,-596.159 -16.5742,-527.251 87.1734,-432 113.749,-407.601 215.429,-390.931 270.769,-383.459"/>
<polygon fill="black" stroke="black" points="271.402,-386.906 280.859,-382.13 270.488,-379.966 271.402,-386.906"/>
</g>
<!-- 1&#45;&gt;2 -->
<g id="edge5" class="edge"><title>1&#45;&gt;2</title>
<path fill="none" stroke="black" d="M588.642,-1014.06C610.465,-1002.4 645.213,-983.834 669.919,-970.632"/>
<polygon fill="black" stroke="black" points="671.678,-973.661 678.848,-965.861 668.379,-967.487 671.678,-973.661"/>
</g>
<!-- 3 -->
<g id="node4" class="node"><title>3</title>
<ellipse fill="none" stroke="black" cx="420.173" cy="-882" rx="27" ry="18"/>
<text text-anchor="middle" x="420.173" y="-878.3" font-family="Times,serif" font-size="14.00">3</text>
</g>
<!-- 1&#45;&gt;3 -->
<g id="edge8" class="edge"><title>1&#45;&gt;3</title>
<path fill="none" stroke="black" d="M553.442,-1010.87C527.424,-985.903 473.198,-933.875 442.541,-904.461"/>
<polygon fill="black" stroke="black" points="444.925,-901.898 435.286,-897.5 440.079,-906.949 444.925,-901.898"/>
</g>
<!-- 1&#45;&gt;8 -->
<g id="edge6" class="edge"><title>1&#45;&gt;8</title>
<path fill="none" stroke="black" d="M575.681,-1008.34C586.755,-982.197 606.173,-929.702 606.173,-883 606.173,-883 606.173,-883 606.173,-809 606.173,-768.71 613.004,-722.444 618.005,-693.965"/>
<polygon fill="black" stroke="black" points="621.477,-694.434 619.815,-683.971 614.589,-693.187 621.477,-694.434"/>
</g>
<!-- 9 -->
<g id="node10" class="node"><title>9</title>
<ellipse fill="none" stroke="black" cx="297.173" cy="-594" rx="27" ry="18"/>
<text text-anchor="middle" x="297.173" y="-590.3" font-family="Times,serif" font-size="14.00">9</text>
</g>
<!-- 1&#45;&gt;9 -->
<g id="edge9" class="edge"><title>1&#45;&gt;9</title>
<path fill="none" stroke="black" d="M541.898,-1021.83C450.673,-1010.1 153.173,-965.527 153.173,-883 153.173,-883 153.173,-883 153.173,-809 153.173,-725.001 230.485,-649.205 271.812,-614.689"/>
<polygon fill="black" stroke="black" points="274.278,-617.193 279.804,-608.153 269.847,-611.774 274.278,-617.193"/>
</g>
<!-- 1&#45;&gt;12 -->
<g id="edge7" class="edge"><title>1&#45;&gt;12</title>
<path fill="none" stroke="black" d="M540.786,-1025.41C478.205,-1025.42 320.897,-1020.23 201.173,-972 138.251,-946.65 77.1734,-950.837 77.1734,-883 77.1734,-883 77.1734,-883 77.1734,-521 77.1734,-475.846 90.9547,-460.259 126.173,-432 168.137,-398.329 230.801,-386.047 270.302,-381.568"/>
<polygon fill="black" stroke="black" points="270.714,-385.045 280.306,-380.545 270.002,-378.081 270.714,-385.045"/>
</g>
<!-- 13 -->
<g id="node14" class="node"><title>13</title>
<ellipse fill="none" stroke="black" cx="566.173" cy="-306" rx="27" ry="18"/>
<text text-anchor="middle" x="566.173" y="-302.3" font-family="Times,serif" font-size="14.00">13</text>
</g>
<!-- 1&#45;&gt;13 -->
<g id="edge10" class="edge"><title>1&#45;&gt;13</title>
<path fill="none" stroke="black" d="M568.173,-1007.95C568.173,-981.292 568.173,-928.115 568.173,-883 568.173,-883 568.173,-883 568.173,-737 568.173,-584.959 566.908,-402.682 566.39,-334.505"/>
<polygon fill="black" stroke="black" points="569.888,-334.178 566.311,-324.205 562.888,-334.231 569.888,-334.178"/>
</g>
<!-- 2&#45;&gt;3 -->
<g id="edge11" class="edge"><title>2&#45;&gt;3</title>
<path fill="none" stroke="black" d="M674.414,-946.788C624.697,-934.314 512.592,-906.188 455.309,-891.815"/>
<polygon fill="black" stroke="black" points="455.83,-888.338 445.278,-889.299 454.126,-895.127 455.83,-888.338"/>
</g>
<!-- 4 -->
<g id="node5" class="node"><title>4</title>
<ellipse fill="none" stroke="black" cx="475.173" cy="-810" rx="27" ry="18"/>
<text text-anchor="middle" x="475.173" y="-806.3" font-family="Times,serif" font-size="14.00">4</text>
</g>
<!-- 2&#45;&gt;4 -->
<g id="edge12" class="edge"><title>2&#45;&gt;4</title>
<path fill="none" stroke="black" d="M680.075,-940.893C640.4,-915.742 548.925,-857.753 502.812,-828.521"/>
<polygon fill="black" stroke="black" points="504.543,-825.474 494.223,-823.076 500.795,-831.386 504.543,-825.474"/>
</g>
<!-- 2&#45;&gt;8 -->
<g id="edge13" class="edge"><title>2&#45;&gt;8</title>
<path fill="none" stroke="black" d="M693.941,-936.271C687.61,-897.092 679.788,-796.891 649.173,-720 645.339,-710.37 639.602,-700.666 634.321,-692.241"/>
<polygon fill="black" stroke="black" points="637.194,-690.236 628.883,-683.665 631.283,-693.985 637.194,-690.236"/>
</g>
<!-- 2&#45;&gt;12 -->
<g id="edge14" class="edge"><title>2&#45;&gt;12</title>
<path fill="none" stroke="black" d="M698.778,-935.704C701.646,-925.522 706.146,-912.272 708.173,-900 710.781,-884.214 709.385,-879.954 708.173,-864 700.646,-764.885 701.509,-733.118 650.173,-648 571.803,-518.057 405.156,-428.629 336.969,-394.449"/>
<polygon fill="black" stroke="black" points="338.158,-391.131 327.646,-389.809 335.039,-397.398 338.158,-391.131"/>
</g>
<!-- 3&#45;&gt;4 -->
<g id="edge15" class="edge"><title>3&#45;&gt;4</title>
<path fill="none" stroke="black" d="M432.108,-865.811C439.387,-856.546 448.836,-844.52 457.028,-834.094"/>
<polygon fill="black" stroke="black" points="459.836,-836.185 463.263,-826.159 454.332,-831.86 459.836,-836.185"/>
</g>
<!-- 5 -->
<g id="node6" class="node"><title>5</title>
<ellipse fill="none" stroke="black" cx="384.173" cy="-738" rx="27" ry="18"/>
<text text-anchor="middle" x="384.173" y="-734.3" font-family="Times,serif" font-size="14.00">5</text>
</g>
<!-- 3&#45;&gt;5 -->
<g id="edge19" class="edge"><title>3&#45;&gt;5</title>
<path fill="none" stroke="black" d="M415.564,-863.832C412.8,-853.467 409.238,-839.987 406.173,-828 400.885,-807.312 395.097,-783.866 390.786,-766.233"/>
<polygon fill="black" stroke="black" points="394.08,-764.968 388.31,-756.082 387.28,-766.627 394.08,-764.968"/>
</g>
<!-- 6 -->
<g id="node7" class="node"><title>6</title>
<ellipse fill="none" stroke="black" cx="646.173" cy="-90" rx="27" ry="18"/>
<text text-anchor="middle" x="646.173" y="-86.3" font-family="Times,serif" font-size="14.00">6</text>
</g>
<!-- 3&#45;&gt;6 -->
<g id="edge16" class="edge"><title>3&#45;&gt;6</title>
<path fill="none" stroke="black" d="M394.068,-876.703C358.474,-870.073 293.506,-855.177 244.173,-828 92.3659,-744.371 1.1734,-696.319 1.1734,-523 1.1734,-523 1.1734,-523 1.1734,-233 1.1734,-107.701 471.29,-92.8476 608.814,-91.1832"/>
<polygon fill="black" stroke="black" points="608.908,-94.6825 618.871,-91.0782 608.835,-87.6829 608.908,-94.6825"/>
</g>
<!-- 3&#45;&gt;8 -->
<g id="edge17" class="edge"><title>3&#45;&gt;8</title>
<path fill="none" stroke="black" d="M442.529,-871.377C462.125,-862.195 490.615,-846.969 511.173,-828 534.457,-806.517 583.068,-731.2 607.884,-691.661"/>
<polygon fill="black" stroke="black" points="611.035,-693.223 613.368,-682.888 605.1,-689.512 611.035,-693.223"/>
</g>
<!-- 3&#45;&gt;9 -->
<g id="edge20" class="edge"><title>3&#45;&gt;9</title>
<path fill="none" stroke="black" d="M409.706,-865.4C394.553,-842.295 366.336,-797.259 348.173,-756 328.114,-710.433 312.227,-654.48 303.803,-621.968"/>
<polygon fill="black" stroke="black" points="307.096,-620.717 301.237,-611.889 300.313,-622.444 307.096,-620.717"/>
</g>
<!-- 3&#45;&gt;12 -->
<g id="edge18" class="edge"><title>3&#45;&gt;12</title>
<path fill="none" stroke="black" d="M396.998,-872.493C325.822,-844.708 115.173,-749.434 115.173,-595 115.173,-595 115.173,-595 115.173,-521 115.173,-475.41 131.452,-461.543 166.173,-432 196.504,-406.192 240.645,-392.334 271.432,-385.341"/>
<polygon fill="black" stroke="black" points="272.275,-388.74 281.321,-383.225 270.81,-381.895 272.275,-388.74"/>
</g>
<!-- 3&#45;&gt;13 -->
<g id="edge21" class="edge"><title>3&#45;&gt;13</title>
<path fill="none" stroke="black" d="M423.585,-863.886C427.221,-845.928 433.258,-816.902 439.173,-792 480.874,-616.446 538.318,-407.175 558.663,-333.913"/>
<polygon fill="black" stroke="black" points="562.081,-334.684 561.389,-324.111 555.337,-332.808 562.081,-334.684"/>
</g>
<!-- 4&#45;&gt;5 -->
<g id="edge22" class="edge"><title>4&#45;&gt;5</title>
<path fill="none" stroke="black" d="M458.057,-795.834C444.33,-785.274 424.864,-770.3 409.358,-758.373"/>
<polygon fill="black" stroke="black" points="411.273,-755.43 401.213,-752.107 407.005,-760.979 411.273,-755.43"/>
</g>
<!-- 4&#45;&gt;8 -->
<g id="edge23" class="edge"><title>4&#45;&gt;8</title>
<path fill="none" stroke="black" d="M479.315,-791.945C484.82,-772.418 496.251,-740.492 516.173,-720 536.188,-699.413 565.866,-685.589 588.892,-677.235"/>
<polygon fill="black" stroke="black" points="590.31,-680.449 598.625,-673.882 588.03,-673.83 590.31,-680.449"/>
</g>
<!-- 4&#45;&gt;12 -->
<g id="edge24" class="edge"><title>4&#45;&gt;12</title>
<path fill="none" stroke="black" d="M449.096,-804.667C372.438,-790.296 153.173,-736.797 153.173,-595 153.173,-595 153.173,-595 153.173,-521 153.173,-475.41 171.218,-463.501 204.173,-432 223.966,-413.081 251.839,-399.295 273.599,-390.533"/>
<polygon fill="black" stroke="black" points="275.047,-393.726 283.116,-386.86 272.526,-387.195 275.047,-393.726"/>
</g>
<!-- 5&#45;&gt;8 -->
<g id="edge25" class="edge"><title>5&#45;&gt;8</title>
<path fill="none" stroke="black" d="M408.405,-729.903C451.171,-717.377 540.131,-691.322 589.072,-676.988"/>
<polygon fill="black" stroke="black" points="590.264,-680.286 598.877,-674.116 588.297,-673.568 590.264,-680.286"/>
</g>
<!-- 5&#45;&gt;9 -->
<g id="edge27" class="edge"><title>5&#45;&gt;9</title>
<path fill="none" stroke="black" d="M374.363,-720.987C359.285,-696.378 330.295,-649.061 312.452,-619.937"/>
<polygon fill="black" stroke="black" points="315.291,-617.871 307.082,-611.173 309.322,-621.528 315.291,-617.871"/>
</g>
<!-- 5&#45;&gt;12 -->
<g id="edge26" class="edge"><title>5&#45;&gt;12</title>
<path fill="none" stroke="black" d="M358.942,-731.12C306.627,-717.267 191.173,-677.366 191.173,-595 191.173,-595 191.173,-595 191.173,-521 191.173,-465.625 244.735,-419.939 279.066,-396.344"/>
<polygon fill="black" stroke="black" points="281.374,-399.012 287.758,-390.556 277.494,-393.186 281.374,-399.012"/>
</g>
<!-- 5&#45;&gt;13 -->
<g id="edge28" class="edge"><title>5&#45;&gt;13</title>
<path fill="none" stroke="black" d="M389.664,-719.995C407.368,-665.963 465.733,-493.878 533.173,-360 538.023,-350.373 544.085,-340.227 549.686,-331.418"/>
<polygon fill="black" stroke="black" points="552.772,-333.092 555.285,-322.8 546.902,-329.279 552.772,-333.092"/>
</g>
<!-- 6&#45;&gt;2 -->
<g id="edge30" class="edge"><title>6&#45;&gt;2</title>
<path fill="none" stroke="black" d="M673.126,-92.0874C712.97,-94.9908 788.151,-105.575 837.173,-144 872.881,-171.989 887.173,-187.63 887.173,-233 887.173,-307 887.173,-307 887.173,-307 887.173,-403.599 925.173,-424.401 925.173,-521 925.173,-811 925.173,-811 925.173,-811 925.173,-899.448 799.535,-934.943 735.611,-947.278"/>
<polygon fill="black" stroke="black" points="734.744,-943.879 725.541,-949.128 736.009,-950.764 734.744,-943.879"/>
</g>
<!-- 7 -->
<g id="node8" class="node"><title>7</title>
<ellipse fill="none" stroke="black" cx="825.173" cy="-18" rx="27" ry="18"/>
<text text-anchor="middle" x="825.173" y="-14.3" font-family="Times,serif" font-size="14.00">7</text>
</g>
<!-- 6&#45;&gt;7 -->
<g id="edge29" class="edge"><title>6&#45;&gt;7</title>
<path fill="none" stroke="black" d="M668.844,-80.1345C700.23,-67.8604 757.093,-45.6238 792.902,-31.6202"/>
<polygon fill="black" stroke="black" points="794.367,-34.8056 802.405,-27.9038 791.817,-28.2863 794.367,-34.8056"/>
</g>
<!-- 6&#45;&gt;8 -->
<g id="edge31" class="edge"><title>6&#45;&gt;8</title>
<path fill="none" stroke="black" d="M664.289,-103.362C690.641,-126.51 735.173,-178.955 735.173,-233 735.173,-523 735.173,-523 735.173,-523 735.173,-577.097 685.586,-624.487 652.217,-648.433"/>
<polygon fill="black" stroke="black" points="649.968,-645.732 643.707,-654.279 653.931,-651.501 649.968,-645.732"/>
</g>
<!-- 6&#45;&gt;12 -->
<g id="edge32" class="edge"><title>6&#45;&gt;12</title>
<path fill="none" stroke="black" d="M619.552,-93.2322C560.431,-98.3198 421.65,-112.826 387.173,-144 327.247,-198.185 317.222,-301.264 312.252,-350.08"/>
<polygon fill="black" stroke="black" points="308.755,-349.87 311.192,-360.181 315.717,-350.601 308.755,-349.87"/>
</g>
<!-- 7&#45;&gt;2 -->
<g id="edge33" class="edge"><title>7&#45;&gt;2</title>
<path fill="none" stroke="black" d="M847.04,-28.9633C885.952,-48.3676 963.173,-95.1685 963.173,-161 963.173,-811 963.173,-811 963.173,-811 963.173,-912.935 808.631,-942.013 736.029,-950.049"/>
<polygon fill="black" stroke="black" points="735.529,-946.582 725.94,-951.088 736.246,-953.545 735.529,-946.582"/>
</g>
<!-- 7&#45;&gt;8 -->
<g id="edge34" class="edge"><title>7&#45;&gt;8</title>
<path fill="none" stroke="black" d="M843.051,-32.0981C871.815,-54.8359 925.173,-104.615 925.173,-161 925.173,-307 925.173,-307 925.173,-307 925.173,-421.136 836.109,-563.539 778.173,-612 743.973,-640.608 693.528,-654.054 659.563,-660.179"/>
<polygon fill="black" stroke="black" points="658.87,-656.746 649.587,-661.854 660.029,-663.65 658.87,-656.746"/>
</g>
<!-- 7&#45;&gt;12 -->
<g id="edge35" class="edge"><title>7&#45;&gt;12</title>
<path fill="none" stroke="black" d="M798.302,-19.893C686.019,-24.3385 260.173,-48.6073 260.173,-161 260.173,-235 260.173,-235 260.173,-235 260.173,-277.742 279.602,-324.222 293.476,-351.965"/>
<polygon fill="black" stroke="black" points="290.419,-353.674 298.111,-360.96 296.642,-350.467 290.419,-353.674"/>
</g>
<!-- 8&#45;&gt;2 -->
<g id="edge37" class="edge"><title>8&#45;&gt;2</title>
<path fill="none" stroke="black" d="M641.038,-679.662C650.672,-689.908 661.218,-705.043 667.173,-720 695.385,-790.858 704.242,-881.511 703.544,-925.962"/>
<polygon fill="black" stroke="black" points="700.045,-925.858 703.182,-935.978 707.041,-926.111 700.045,-925.858"/>
</g>
<!-- 8&#45;&gt;6 -->
<g id="edge38" class="edge"><title>8&#45;&gt;6</title>
<path fill="none" stroke="black" d="M637.81,-650.541C664.54,-627.348 717.173,-578.733 717.173,-523 717.173,-523 717.173,-523 717.173,-233 717.173,-186.531 684.251,-141.244 663.022,-114.747"/>
<polygon fill="black" stroke="black" points="665.615,-112.388 656.597,-106.827 660.178,-116.798 665.615,-112.388"/>
</g>
<!-- 8&#45;&gt;9 -->
<g id="edge36" class="edge"><title>8&#45;&gt;9</title>
<path fill="none" stroke="black" d="M597.864,-659.565C540.211,-647.186 398.99,-616.862 332.668,-602.622"/>
<polygon fill="black" stroke="black" points="333.203,-599.157 322.691,-600.479 331.734,-606.001 333.203,-599.157"/>
</g>
<!-- 10 -->
<g id="node11" class="node"><title>10</title>
<ellipse fill="none" stroke="black" cx="352.173" cy="-522" rx="27" ry="18"/>
<text text-anchor="middle" x="352.173" y="-518.3" font-family="Times,serif" font-size="14.00">10</text>
</g>
<!-- 8&#45;&gt;10 -->
<g id="edge39" class="edge"><title>8&#45;&gt;10</title>
<path fill="none" stroke="black" d="M600.869,-655.676C577.096,-645.557 538.503,-628.613 506.173,-612 461.121,-588.849 410.577,-558.826 380.076,-540.243"/>
<polygon fill="black" stroke="black" points="381.639,-537.096 371.282,-534.863 377.986,-543.067 381.639,-537.096"/>
</g>
<!-- 8&#45;&gt;12 -->
<g id="edge40" class="edge"><title>8&#45;&gt;12</title>
<path fill="none" stroke="black" d="M605.743,-651.968C551.252,-606.893 385.69,-457.28 327.486,-400.821"/>
<polygon fill="black" stroke="black" points="329.908,-398.295 320.315,-393.798 325.01,-403.295 329.908,-398.295"/>
</g>
<!-- 9&#45;&gt;10 -->
<g id="edge41" class="edge"><title>9&#45;&gt;10</title>
<path fill="none" stroke="black" d="M309.108,-577.811C316.387,-568.546 325.836,-556.52 334.028,-546.094"/>
<polygon fill="black" stroke="black" points="336.836,-548.185 340.263,-538.159 331.332,-543.86 336.836,-548.185"/>
</g>
<!-- 11 -->
<g id="node12" class="node"><title>11</title>
<ellipse fill="none" stroke="black" cx="284.173" cy="-450" rx="27" ry="18"/>
<text text-anchor="middle" x="284.173" y="-446.3" font-family="Times,serif" font-size="14.00">11</text>
</g>
<!-- 9&#45;&gt;11 -->
<g id="edge43" class="edge"><title>9&#45;&gt;11</title>
<path fill="none" stroke="black" d="M295.605,-575.871C293.39,-551.67 289.319,-507.211 286.681,-478.393"/>
<polygon fill="black" stroke="black" points="290.144,-477.829 285.747,-468.189 283.173,-478.467 290.144,-477.829"/>
</g>
<!-- 9&#45;&gt;12 -->
<g id="edge42" class="edge"><title>9&#45;&gt;12</title>
<path fill="none" stroke="black" d="M285.233,-577.45C264.313,-548.18 225.327,-483.234 248.173,-432 254.626,-417.529 267.199,-405.359 279.085,-396.345"/>
<polygon fill="black" stroke="black" points="281.397,-398.997 287.522,-390.352 277.343,-393.29 281.397,-398.997"/>
</g>
<!-- 9&#45;&gt;13 -->
<g id="edge44" class="edge"><title>9&#45;&gt;13</title>
<path fill="none" stroke="black" d="M320.782,-585.058C341.491,-576.908 370.916,-562.247 388.173,-540 439.137,-474.3 383.986,-422.195 439.173,-360 462.688,-333.5 501.574,-319.917 530.133,-313.178"/>
<polygon fill="black" stroke="black" points="531.116,-316.546 540.14,-310.994 529.624,-309.707 531.116,-316.546"/>
</g>
<!-- 10&#45;&gt;2 -->
<g id="edge46" class="edge"><title>10&#45;&gt;2</title>
<path fill="none" stroke="black" d="M350.746,-540.359C345.62,-607.78 331.121,-850.946 384.173,-900 424.05,-936.871 587.304,-948.347 661.798,-951.704"/>
<polygon fill="black" stroke="black" points="661.981,-955.215 672.12,-952.142 662.278,-948.221 661.981,-955.215"/>
</g>
<!-- 10&#45;&gt;6 -->
<g id="edge47" class="edge"><title>10&#45;&gt;6</title>
<path fill="none" stroke="black" d="M356.777,-504.195C365.473,-473.979 386.087,-409.053 415.173,-360 476.335,-256.853 578.175,-154.922 623.369,-112.083"/>
<polygon fill="black" stroke="black" points="625.992,-114.421 630.876,-105.019 621.195,-109.323 625.992,-114.421"/>
</g>
<!-- 10&#45;&gt;11 -->
<g id="edge45" class="edge"><title>10&#45;&gt;11</title>
<path fill="none" stroke="black" d="M338.084,-506.496C328.601,-496.735 315.929,-483.69 305.253,-472.7"/>
<polygon fill="black" stroke="black" points="307.723,-470.22 298.245,-465.485 302.702,-475.097 307.723,-470.22"/>
</g>
<!-- 10&#45;&gt;12 -->
<g id="edge48" class="edge"><title>10&#45;&gt;12</title>
<path fill="none" stroke="black" d="M346.835,-504.153C339.121,-479.813 324.783,-434.568 315.624,-405.665"/>
<polygon fill="black" stroke="black" points="318.863,-404.3 312.505,-395.825 312.19,-406.415 318.863,-404.3"/>
</g>
<!-- 11&#45;&gt;12 -->
<g id="edge49" class="edge"><title>11&#45;&gt;12</title>
<path fill="none" stroke="black" d="M289.741,-432.055C292.368,-424.059 295.565,-414.331 298.499,-405.4"/>
<polygon fill="black" stroke="black" points="301.861,-406.382 301.657,-395.789 295.21,-404.197 301.861,-406.382"/>
</g>
<!-- 12&#45;&gt;2 -->
<g id="edge51" class="edge"><title>12&#45;&gt;2</title>
<path fill="none" stroke="black" d="M330.285,-387.345C396.069,-414.651 583.565,-507.715 668.173,-648 719.509,-733.118 718.646,-764.885 726.173,-864 727.385,-879.954 728.781,-884.214 726.173,-900 724.545,-909.857 721.322,-920.345 717.464,-929.368"/>
<polygon fill="black" stroke="black" points="714.259,-927.955 713.074,-938.484 720.566,-930.992 714.259,-927.955"/>
</g>
<!-- 12&#45;&gt;6 -->
<g id="edge52" class="edge"><title>12&#45;&gt;6</title>
<path fill="none" stroke="black" d="M302.502,-360.181C297.991,-317.136 304.715,-202.283 369.173,-144 403.569,-112.9 541.779,-98.3881 609.155,-93.2682"/>
<polygon fill="black" stroke="black" points="609.614,-96.7441 619.333,-92.5261 609.105,-89.7627 609.614,-96.7441"/>
</g>
<!-- 12&#45;&gt;8 -->
<g id="edge53" class="edge"><title>12&#45;&gt;8</title>
<path fill="none" stroke="black" d="M324.751,-392.154C379.329,-437.324 544.333,-586.431 602.662,-642.986"/>
<polygon fill="black" stroke="black" points="600.259,-645.532 609.854,-650.026 605.156,-640.53 600.259,-645.532"/>
</g>
<!-- 12&#45;&gt;13 -->
<g id="edge50" class="edge"><title>12&#45;&gt;13</title>
<path fill="none" stroke="black" d="M332.007,-370.288C378.419,-357.744 478.402,-330.722 531.459,-316.382"/>
<polygon fill="black" stroke="black" points="532.674,-319.68 541.415,-313.692 530.848,-312.922 532.674,-319.68"/>
</g>
<!-- 14 -->
<g id="node15" class="node"><title>14</title>
<ellipse fill="none" stroke="black" cx="621.173" cy="-234" rx="27" ry="18"/>
<text text-anchor="middle" x="621.173" y="-230.3" font-family="Times,serif" font-size="14.00">14</text>
</g>
<!-- 12&#45;&gt;14 -->
<g id="edge54" class="edge"><title>12&#45;&gt;14</title>
<path fill="none" stroke="black" d="M329.253,-367.015C384.111,-342.206 526.731,-277.71 590.075,-249.064"/>
<polygon fill="black" stroke="black" points="591.865,-252.095 599.535,-244.786 588.981,-245.717 591.865,-252.095"/>
</g>
<!-- 13&#45;&gt;2 -->
<g id="edge56" class="edge"><title>13&#45;&gt;2</title>
<path fill="none" stroke="black" d="M583.793,-319.732C639.969,-361.948 811.173,-503.828 811.173,-665 811.173,-811 811.173,-811 811.173,-811 811.173,-865.475 759.731,-911.333 726.574,-935.234"/>
<polygon fill="black" stroke="black" points="724.364,-932.508 718.173,-941.106 728.374,-938.246 724.364,-932.508"/>
</g>
<!-- 13&#45;&gt;6 -->
<g id="edge57" class="edge"><title>13&#45;&gt;6</title>
<path fill="none" stroke="black" d="M568.549,-287.936C571.369,-269.77 576.776,-240.346 585.173,-216 597.617,-179.927 617.941,-140.759 631.675,-116.062"/>
<polygon fill="black" stroke="black" points="634.903,-117.463 636.763,-107.033 628.805,-114.027 634.903,-117.463"/>
</g>
<!-- 13&#45;&gt;8 -->
<g id="edge58" class="edge"><title>13&#45;&gt;8</title>
<path fill="none" stroke="black" d="M578.423,-322.237C585.807,-332.328 594.636,-346.202 599.173,-360 631.462,-458.186 628.531,-583.332 625.267,-637.72"/>
<polygon fill="black" stroke="black" points="621.76,-637.715 624.599,-647.922 628.745,-638.172 621.76,-637.715"/>
</g>
<!-- 13&#45;&gt;14 -->
<g id="edge55" class="edge"><title>13&#45;&gt;14</title>
<path fill="none" stroke="black" d="M578.108,-289.811C585.387,-280.546 594.836,-268.52 603.028,-258.094"/>
<polygon fill="black" stroke="black" points="605.836,-260.185 609.263,-250.159 600.332,-255.86 605.836,-260.185"/>
</g>
<!-- 15 -->
<g id="node16" class="node"><title>15</title>
<ellipse fill="none" stroke="black" cx="801.173" cy="-162" rx="27" ry="18"/>
<text text-anchor="middle" x="801.173" y="-158.3" font-family="Times,serif" font-size="14.00">15</text>
</g>
<!-- 14&#45;&gt;15 -->
<g id="edge59" class="edge"><title>14&#45;&gt;15</title>
<path fill="none" stroke="black" d="M643.971,-224.134C675.532,-211.86 732.712,-189.624 768.722,-175.62"/>
<polygon fill="black" stroke="black" points="770.226,-178.79 778.278,-171.904 767.689,-172.266 770.226,-178.79"/>
</g>
<!-- 15&#45;&gt;2 -->
<g id="edge60" class="edge"><title>15&#45;&gt;2</title>
<path fill="none" stroke="black" d="M808.118,-179.495C812.296,-189.847 817.499,-203.549 821.173,-216 840.802,-282.511 887.173,-451.653 887.173,-521 887.173,-811 887.173,-811 887.173,-811 887.173,-886.892 788.418,-927.367 734.057,-943.898"/>
<polygon fill="black" stroke="black" points="732.754,-940.633 724.138,-946.799 734.719,-947.351 732.754,-940.633"/>
</g>
<!-- 15&#45;&gt;6 -->
<g id="edge61" class="edge"><title>15&#45;&gt;6</title>
<path fill="none" stroke="black" d="M779.294,-151.119C752.638,-139.081 707.428,-118.663 677.19,-105.007"/>
<polygon fill="black" stroke="black" points="678.495,-101.757 667.941,-100.831 675.614,-108.136 678.495,-101.757"/>
</g>
<!-- 15&#45;&gt;8 -->
<g id="edge62" class="edge"><title>15&#45;&gt;8</title>
<path fill="none" stroke="black" d="M803.149,-180.022C806.063,-206.645 811.173,-259.774 811.173,-305 811.173,-451 811.173,-451 811.173,-451 811.173,-527.678 802.558,-556.958 749.173,-612 724.82,-637.11 686.74,-650.875 658.813,-658.035"/>
<polygon fill="black" stroke="black" points="657.935,-654.646 649.028,-660.383 659.569,-661.453 657.935,-654.646"/>
</g>
</g>
</svg>
