<?xml version="1.0" encoding="UTF-8" standalone="no"?>
<!DOCTYPE svg PUBLIC "-//W3C//DTD SVG 1.1//EN"
 "http://www.w3.org/Graphics/SVG/1.1/DTD/svg11.dtd">
<!-- Generated by graphviz version 2.36.0 (20140111.2315)
 -->
<!-- Title: G Pages: 1 -->
<svg width="743pt" height="980pt"
 viewBox="0.00 0.00 743.00 980.00" xmlns="http://www.w3.org/2000/svg" xmlns:xlink="http://www.w3.org/1999/xlink">
<g id="graph0" class="graph" transform="scale(1 1) rotate(0) translate(4 976)">
<title>G</title>
<polygon fill="white" stroke="none" points="-4,4 -4,-976 739,-976 739,4 -4,4"/>
<!-- 0 -->
<g id="node1" class="node"><title>0</title>
<ellipse fill="none" stroke="black" cx="289" cy="-954" rx="27" ry="18"/>
<text text-anchor="middle" x="289" y="-950.3" font-family="Times,serif" font-size="14.00">0</text>
</g>
<!-- 1 -->
<g id="node2" class="node"><title>1</title>
<ellipse fill="none" stroke="black" cx="427" cy="-882" rx="27" ry="18"/>
<text text-anchor="middle" x="427" y="-878.3" font-family="Times,serif" font-size="14.00">1</text>
</g>
<!-- 0&#45;&gt;1 -->
<g id="edge1" class="edge"><title>0&#45;&gt;1</title>
<path fill="none" stroke="black" d="M309.959,-942.369C333.06,-930.651 370.423,-911.698 396.708,-898.366"/>
<polygon fill="black" stroke="black" points="398.509,-901.377 405.844,-893.732 395.342,-895.134 398.509,-901.377"/>
</g>
<!-- 2 -->
<g id="node3" class="node"><title>2</title>
<ellipse fill="none" stroke="black" cx="258" cy="-810" rx="27" ry="18"/>
<text text-anchor="middle" x="258" y="-806.3" font-family="Times,serif" font-size="14.00">2</text>
</g>
<!-- 0&#45;&gt;2 -->
<g id="edge2" class="edge"><title>0&#45;&gt;2</title>
<path fill="none" stroke="black" d="M285.322,-936.153C280.037,-911.944 270.237,-867.054 263.923,-838.133"/>
<polygon fill="black" stroke="black" points="267.322,-837.291 261.77,-828.268 260.483,-838.784 267.322,-837.291"/>
</g>
<!-- 6 -->
<g id="node7" class="node"><title>6</title>
<ellipse fill="none" stroke="black" cx="318" cy="-522" rx="27" ry="18"/>
<text text-anchor="middle" x="318" y="-518.3" font-family="Times,serif" font-size="14.00">6</text>
</g>
<!-- 0&#45;&gt;6 -->
<g id="edge3" class="edge"><title>0&#45;&gt;6</title>
<path fill="none" stroke="black" d="M290.155,-935.878C294.602,-869.939 310.645,-632.058 316.139,-550.594"/>
<polygon fill="black" stroke="black" points="319.661,-550.384 316.842,-540.171 312.677,-549.913 319.661,-550.384"/>
</g>
<!-- 10 -->
<g id="node11" class="node"><title>10</title>
<ellipse fill="none" stroke="black" cx="274" cy="-234" rx="27" ry="18"/>
<text text-anchor="middle" x="274" y="-230.3" font-family="Times,serif" font-size="14.00">10</text>
</g>
<!-- 0&#45;&gt;10 -->
<g id="edge4" class="edge"><title>0&#45;&gt;10</title>
<path fill="none" stroke="black" d="M262.838,-949.516C202.164,-939.82 57,-906.628 57,-811 57,-811 57,-811 57,-521 57,-407.232 78.5161,-364.195 163,-288 185.201,-267.977 216.317,-254.003 239.957,-245.451"/>
<polygon fill="black" stroke="black" points="241.28,-248.697 249.583,-242.116 238.988,-242.082 241.28,-248.697"/>
</g>
<!-- 1&#45;&gt;2 -->
<g id="edge5" class="edge"><title>1&#45;&gt;2</title>
<path fill="none" stroke="black" d="M404.558,-871.705C375.057,-859.485 323.064,-837.95 289.596,-824.087"/>
<polygon fill="black" stroke="black" points="290.844,-820.816 280.266,-820.222 288.165,-827.283 290.844,-820.816"/>
</g>
<!-- 3 -->
<g id="node4" class="node"><title>3</title>
<ellipse fill="none" stroke="black" cx="427" cy="-738" rx="27" ry="18"/>
<text text-anchor="middle" x="427" y="-734.3" font-family="Times,serif" font-size="14.00">3</text>
</g>
<!-- 1&#45;&gt;3 -->
<g id="edge8" class="edge"><title>1&#45;&gt;3</title>
<path fill="none" stroke="black" d="M427,-863.871C427,-839.67 427,-795.211 427,-766.393"/>
<polygon fill="black" stroke="black" points="430.5,-766.189 427,-756.189 423.5,-766.189 430.5,-766.189"/>
</g>
<!-- 1&#45;&gt;6 -->
<g id="edge6" class="edge"><title>1&#45;&gt;6</title>
<path fill="none" stroke="black" d="M421.889,-864.213C404.474,-807.016 347.36,-619.429 326.083,-549.548"/>
<polygon fill="black" stroke="black" points="329.361,-548.298 323.1,-539.751 322.665,-550.336 329.361,-548.298"/>
</g>
<!-- 7 -->
<g id="node8" class="node"><title>7</title>
<ellipse fill="none" stroke="black" cx="488" cy="-450" rx="27" ry="18"/>
<text text-anchor="middle" x="488" y="-446.3" font-family="Times,serif" font-size="14.00">7</text>
</g>
<!-- 1&#45;&gt;7 -->
<g id="edge9" class="edge"><title>1&#45;&gt;7</title>
<path fill="none" stroke="black" d="M431.908,-864.021C438.852,-839.982 451.934,-794.645 463,-756 481.319,-692.028 493.43,-677.699 504,-612 509.087,-580.379 506.333,-572.021 507,-540 507.333,-524.003 509.74,-519.764 507,-504 505.412,-494.863 502.391,-485.219 499.218,-476.699"/>
<polygon fill="black" stroke="black" points="502.436,-475.319 495.499,-467.311 495.928,-477.897 502.436,-475.319"/>
</g>
<!-- 1&#45;&gt;10 -->
<g id="edge7" class="edge"><title>1&#45;&gt;10</title>
<path fill="none" stroke="black" d="M453.876,-879.351C522.169,-873.566 697,-848.103 697,-739 697,-739 697,-739 697,-593 697,-425.338 613.404,-382.629 475,-288 424.91,-253.753 353.912,-241.629 311.078,-237.342"/>
<polygon fill="black" stroke="black" points="311.36,-233.853 301.084,-236.433 310.726,-240.824 311.36,-233.853"/>
</g>
<!-- 11 -->
<g id="node12" class="node"><title>11</title>
<ellipse fill="none" stroke="black" cx="602" cy="-162" rx="27" ry="18"/>
<text text-anchor="middle" x="602" y="-158.3" font-family="Times,serif" font-size="14.00">11</text>
</g>
<!-- 1&#45;&gt;11 -->
<g id="edge10" class="edge"><title>1&#45;&gt;11</title>
<path fill="none" stroke="black" d="M454.063,-880.85C529.221,-878.873 735,-862.21 735,-739 735,-739 735,-739 735,-305 735,-245.273 671.547,-200.308 632.297,-178.208"/>
<polygon fill="black" stroke="black" points="633.824,-175.054 623.369,-173.337 630.471,-181.199 633.824,-175.054"/>
</g>
<!-- 2&#45;&gt;3 -->
<g id="edge11" class="edge"><title>2&#45;&gt;3</title>
<path fill="none" stroke="black" d="M280.442,-799.705C309.943,-787.485 361.936,-765.95 395.404,-752.087"/>
<polygon fill="black" stroke="black" points="396.835,-755.283 404.734,-748.222 394.156,-748.816 396.835,-755.283"/>
</g>
<!-- 4 -->
<g id="node5" class="node"><title>4</title>
<ellipse fill="none" stroke="black" cx="258" cy="-666" rx="27" ry="18"/>
<text text-anchor="middle" x="258" y="-662.3" font-family="Times,serif" font-size="14.00">4</text>
</g>
<!-- 2&#45;&gt;4 -->
<g id="edge12" class="edge"><title>2&#45;&gt;4</title>
<path fill="none" stroke="black" d="M258,-791.871C258,-767.67 258,-723.211 258,-694.393"/>
<polygon fill="black" stroke="black" points="261.5,-694.189 258,-684.189 254.5,-694.189 261.5,-694.189"/>
</g>
<!-- 2&#45;&gt;6 -->
<g id="edge13" class="edge"><title>2&#45;&gt;6</title>
<path fill="none" stroke="black" d="M248.624,-792.709C232.957,-763.306 204.791,-699.626 222,-648 236.071,-605.787 271.002,-566.765 294.614,-543.913"/>
<polygon fill="black" stroke="black" points="297.276,-546.213 302.142,-536.802 292.469,-541.125 297.276,-546.213"/>
</g>
<!-- 2&#45;&gt;10 -->
<g id="edge14" class="edge"><title>2&#45;&gt;10</title>
<path fill="none" stroke="black" d="M233.723,-801.779C188.057,-785.033 95,-739.371 95,-667 95,-667 95,-667 95,-521 95,-409.988 115.443,-374.519 185,-288 199.556,-269.894 221.99,-255.788 240.856,-246.696"/>
<polygon fill="black" stroke="black" points="242.396,-249.841 250.057,-242.522 239.505,-243.466 242.396,-249.841"/>
</g>
<!-- 3&#45;&gt;4 -->
<g id="edge15" class="edge"><title>3&#45;&gt;4</title>
<path fill="none" stroke="black" d="M404.558,-727.705C375.057,-715.485 323.064,-693.95 289.596,-680.087"/>
<polygon fill="black" stroke="black" points="290.844,-676.816 280.266,-676.222 288.165,-683.283 290.844,-676.816"/>
</g>
<!-- 5 -->
<g id="node6" class="node"><title>5</title>
<ellipse fill="none" stroke="black" cx="452" cy="-594" rx="27" ry="18"/>
<text text-anchor="middle" x="452" y="-590.3" font-family="Times,serif" font-size="14.00">5</text>
</g>
<!-- 3&#45;&gt;5 -->
<g id="edge18" class="edge"><title>3&#45;&gt;5</title>
<path fill="none" stroke="black" d="M432.132,-719.95C435.082,-709.625 438.656,-696.148 441,-684 444.957,-663.492 447.788,-640.036 449.586,-622.355"/>
<polygon fill="black" stroke="black" points="453.092,-622.461 450.573,-612.17 446.124,-621.785 453.092,-622.461"/>
</g>
<!-- 3&#45;&gt;6 -->
<g id="edge16" class="edge"><title>3&#45;&gt;6</title>
<path fill="none" stroke="black" d="M423.577,-719.909C419.663,-701.721 412.542,-672.277 403,-648 389.764,-614.325 385.596,-605.75 365,-576 357.528,-565.208 348.117,-554.201 339.682,-545.036"/>
<polygon fill="black" stroke="black" points="341.997,-542.389 332.594,-537.507 336.9,-547.187 341.997,-542.389"/>
</g>
<!-- 3&#45;&gt;7 -->
<g id="edge19" class="edge"><title>3&#45;&gt;7</title>
<path fill="none" stroke="black" d="M437.868,-721.367C452.927,-698.58 479.274,-654.334 488,-612 497.531,-565.76 494.485,-510.451 491.31,-478.169"/>
<polygon fill="black" stroke="black" points="494.782,-477.725 490.246,-468.15 487.821,-478.464 494.782,-477.725"/>
</g>
<!-- 3&#45;&gt;10 -->
<g id="edge17" class="edge"><title>3&#45;&gt;10</title>
<path fill="none" stroke="black" d="M411.769,-723.042C380.375,-693.136 309.138,-619.136 282,-540 248.494,-442.295 261.39,-316.472 269.439,-262.057"/>
<polygon fill="black" stroke="black" points="272.901,-262.572 270.969,-252.155 265.983,-261.503 272.901,-262.572"/>
</g>
<!-- 3&#45;&gt;11 -->
<g id="edge20" class="edge"><title>3&#45;&gt;11</title>
<path fill="none" stroke="black" d="M444.406,-724.172C456.532,-714.397 472.223,-699.938 482,-684 569.213,-541.826 549.679,-486.33 588,-324 595.531,-292.096 600.423,-284.585 604,-252 605.746,-236.096 604.302,-231.997 604,-216 603.843,-207.678 603.548,-198.626 603.231,-190.396"/>
<polygon fill="black" stroke="black" points="606.719,-190.029 602.813,-180.181 599.725,-190.316 606.719,-190.029"/>
</g>
<!-- 4&#45;&gt;5 -->
<g id="edge21" class="edge"><title>4&#45;&gt;5</title>
<path fill="none" stroke="black" d="M281.401,-656.556C315.795,-644.146 380.139,-620.929 419.222,-606.827"/>
<polygon fill="black" stroke="black" points="420.6,-610.051 428.818,-603.365 418.224,-603.467 420.6,-610.051"/>
</g>
<!-- 4&#45;&gt;6 -->
<g id="edge22" class="edge"><title>4&#45;&gt;6</title>
<path fill="none" stroke="black" d="M265,-648.433C275.342,-623.957 294.798,-577.912 307.041,-548.936"/>
<polygon fill="black" stroke="black" points="310.376,-550.035 311.044,-539.462 303.928,-547.311 310.376,-550.035"/>
</g>
<!-- 4&#45;&gt;10 -->
<g id="edge23" class="edge"><title>4&#45;&gt;10</title>
<path fill="none" stroke="black" d="M245.089,-649.852C237.29,-639.797 227.931,-625.929 223,-612 174.917,-476.192 153.24,-419.089 213,-288 219.761,-273.168 232.951,-260.882 245.34,-251.886"/>
<polygon fill="black" stroke="black" points="247.405,-254.714 253.701,-246.193 243.465,-248.929 247.405,-254.714"/>
</g>
<!-- 5&#45;&gt;6 -->
<g id="edge24" class="edge"><title>5&#45;&gt;6</title>
<path fill="none" stroke="black" d="M431.356,-582.216C409.093,-570.586 373.435,-551.959 348.06,-538.703"/>
<polygon fill="black" stroke="black" points="349.372,-535.44 338.888,-533.912 346.131,-541.644 349.372,-535.44"/>
</g>
<!-- 5&#45;&gt;7 -->
<g id="edge26" class="edge"><title>5&#45;&gt;7</title>
<path fill="none" stroke="black" d="M456.271,-576.153C462.442,-551.813 473.912,-506.568 481.24,-477.665"/>
<polygon fill="black" stroke="black" points="484.67,-478.378 483.735,-467.825 477.884,-476.658 484.67,-478.378"/>
</g>
<!-- 5&#45;&gt;10 -->
<g id="edge25" class="edge"><title>5&#45;&gt;10</title>
<path fill="none" stroke="black" d="M441.454,-577.279C419.953,-544.674 370.507,-466.82 340,-396 320.143,-349.904 327.773,-333.69 307,-288 302.538,-278.187 296.563,-267.999 290.923,-259.209"/>
<polygon fill="black" stroke="black" points="293.682,-257.037 285.245,-250.629 287.845,-260.9 293.682,-257.037"/>
</g>
<!-- 5&#45;&gt;11 -->
<g id="edge27" class="edge"><title>5&#45;&gt;11</title>
<path fill="none" stroke="black" d="M461.956,-576.853C468.35,-566.399 476.779,-552.462 484,-540 502.352,-508.326 509.898,-501.782 524,-468 562.522,-375.718 564.652,-349.471 587,-252 591.698,-231.51 595.591,-208.054 598.233,-190.367"/>
<polygon fill="black" stroke="black" points="601.739,-190.578 599.713,-180.179 594.812,-189.572 601.739,-190.578"/>
</g>
<!-- 6&#45;&gt;7 -->
<g id="edge28" class="edge"><title>6&#45;&gt;7</title>
<path fill="none" stroke="black" d="M340.575,-511.705C370.25,-499.485 422.551,-477.95 456.217,-464.087"/>
<polygon fill="black" stroke="black" points="457.689,-467.266 465.603,-460.222 455.023,-460.794 457.689,-467.266"/>
</g>
<!-- 8 -->
<g id="node9" class="node"><title>8</title>
<ellipse fill="none" stroke="black" cx="376" cy="-378" rx="27" ry="18"/>
<text text-anchor="middle" x="376" y="-374.3" font-family="Times,serif" font-size="14.00">8</text>
</g>
<!-- 6&#45;&gt;8 -->
<g id="edge29" class="edge"><title>6&#45;&gt;8</title>
<path fill="none" stroke="black" d="M324.767,-504.433C334.764,-479.957 353.571,-433.912 365.407,-404.936"/>
<polygon fill="black" stroke="black" points="368.735,-406.043 369.276,-395.462 362.255,-403.396 368.735,-406.043"/>
</g>
<!-- 6&#45;&gt;10 -->
<g id="edge30" class="edge"><title>6&#45;&gt;10</title>
<path fill="none" stroke="black" d="M312.068,-504.387C300.565,-457.012 279.358,-320.896 274.032,-262.331"/>
<polygon fill="black" stroke="black" points="277.493,-261.707 273.207,-252.018 270.515,-262.266 277.493,-261.707"/>
</g>
<!-- 7&#45;&gt;8 -->
<g id="edge31" class="edge"><title>7&#45;&gt;8</title>
<path fill="none" stroke="black" d="M469.001,-437.125C451.06,-425.913 423.949,-408.968 403.62,-396.263"/>
<polygon fill="black" stroke="black" points="405.427,-393.265 395.092,-390.933 401.717,-399.201 405.427,-393.265"/>
</g>
<!-- 9 -->
<g id="node10" class="node"><title>9</title>
<ellipse fill="none" stroke="black" cx="414" cy="-306" rx="27" ry="18"/>
<text text-anchor="middle" x="414" y="-302.3" font-family="Times,serif" font-size="14.00">9</text>
</g>
<!-- 7&#45;&gt;9 -->
<g id="edge33" class="edge"><title>7&#45;&gt;9</title>
<path fill="none" stroke="black" d="M479.511,-432.711C466.755,-408.232 442.526,-361.739 427.377,-332.67"/>
<polygon fill="black" stroke="black" points="430.343,-330.787 422.618,-323.537 424.135,-334.022 430.343,-330.787"/>
</g>
<!-- 7&#45;&gt;10 -->
<g id="edge32" class="edge"><title>7&#45;&gt;10</title>
<path fill="none" stroke="black" d="M489.13,-431.881C490.295,-399.376 487.986,-328.365 450,-288 413.965,-249.708 351.403,-238.752 311.391,-235.806"/>
<polygon fill="black" stroke="black" points="311.433,-232.303 301.24,-235.195 311.012,-239.29 311.433,-232.303"/>
</g>
<!-- 7&#45;&gt;11 -->
<g id="edge34" class="edge"><title>7&#45;&gt;11</title>
<path fill="none" stroke="black" d="M494.622,-432.387C513.629,-384.702 568.472,-247.114 591.559,-189.193"/>
<polygon fill="black" stroke="black" points="594.908,-190.244 595.36,-179.659 588.406,-187.652 594.908,-190.244"/>
</g>
<!-- 8&#45;&gt;9 -->
<g id="edge35" class="edge"><title>8&#45;&gt;9</title>
<path fill="none" stroke="black" d="M384.813,-360.765C389.418,-352.283 395.155,-341.714 400.321,-332.197"/>
<polygon fill="black" stroke="black" points="403.539,-333.606 405.234,-323.147 397.387,-330.266 403.539,-333.606"/>
</g>
<!-- 8&#45;&gt;10 -->
<g id="edge36" class="edge"><title>8&#45;&gt;10</title>
<path fill="none" stroke="black" d="M370.644,-360.111C364.154,-341.306 351.946,-310.591 335,-288 325.313,-275.086 312.01,-263.073 300.298,-253.761"/>
<polygon fill="black" stroke="black" points="302.189,-250.799 292.127,-247.482 297.924,-256.35 302.189,-250.799"/>
</g>
<!-- 9&#45;&gt;10 -->
<g id="edge37" class="edge"><title>9&#45;&gt;10</title>
<path fill="none" stroke="black" d="M393.041,-294.52C369.431,-282.716 330.865,-263.433 304.053,-250.026"/>
<polygon fill="black" stroke="black" points="305.612,-246.893 295.103,-245.551 302.482,-253.154 305.612,-246.893"/>
</g>
<!-- 10&#45;&gt;2 -->
<g id="edge40" class="edge"><title>10&#45;&gt;2</title>
<path fill="none" stroke="black" d="M255.103,-247.178C239.207,-256.283 217.301,-270.211 203,-288 133.443,-374.519 113,-409.988 113,-521 113,-667 113,-667 113,-667 113,-730.563 184.784,-773.523 227.469,-794.384"/>
<polygon fill="black" stroke="black" points="226.077,-797.598 236.611,-798.737 229.087,-791.278 226.077,-797.598"/>
</g>
<!-- 10&#45;&gt;6 -->
<g id="edge41" class="edge"><title>10&#45;&gt;6</title>
<path fill="none" stroke="black" d="M279.925,-251.587C291.426,-298.933 312.636,-435.062 317.966,-493.649"/>
<polygon fill="black" stroke="black" points="314.505,-494.277 318.792,-503.966 321.483,-493.718 314.505,-494.277"/>
</g>
<!-- 10&#45;&gt;11 -->
<g id="edge38" class="edge"><title>10&#45;&gt;11</title>
<path fill="none" stroke="black" d="M299.465,-227.565C357.472,-215.186 499.559,-184.862 566.287,-170.622"/>
<polygon fill="black" stroke="black" points="567.276,-173.989 576.325,-168.479 565.815,-167.144 567.276,-173.989"/>
</g>
<!-- 12 -->
<g id="node13" class="node"><title>12</title>
<ellipse fill="none" stroke="black" cx="274" cy="-90" rx="27" ry="18"/>
<text text-anchor="middle" x="274" y="-86.3" font-family="Times,serif" font-size="14.00">12</text>
</g>
<!-- 10&#45;&gt;12 -->
<g id="edge39" class="edge"><title>10&#45;&gt;12</title>
<path fill="none" stroke="black" d="M274,-215.871C274,-191.67 274,-147.211 274,-118.393"/>
<polygon fill="black" stroke="black" points="277.5,-118.189 274,-108.189 270.5,-118.189 277.5,-118.189"/>
</g>
<!-- 11&#45;&gt;2 -->
<g id="edge43" class="edge"><title>11&#45;&gt;2</title>
<path fill="none" stroke="black" d="M618.984,-176.298C646.309,-199.331 697,-249.534 697,-305 697,-379 697,-379 697,-379 697,-576.208 621.866,-639.156 463,-756 412.799,-792.923 339.19,-804.186 295.188,-807.582"/>
<polygon fill="black" stroke="black" points="294.68,-804.108 284.938,-808.272 295.15,-811.093 294.68,-804.108"/>
</g>
<!-- 11&#45;&gt;6 -->
<g id="edge44" class="edge"><title>11&#45;&gt;6</title>
<path fill="none" stroke="black" d="M590.033,-178.288C555.005,-223.004 449.579,-357.371 361,-468 353.175,-477.772 344.485,-488.506 336.976,-497.743"/>
<polygon fill="black" stroke="black" points="334.07,-495.77 330.471,-505.735 339.499,-500.189 334.07,-495.77"/>
</g>
<!-- 11&#45;&gt;12 -->
<g id="edge42" class="edge"><title>11&#45;&gt;12</title>
<path fill="none" stroke="black" d="M576.535,-155.565C518.528,-143.186 376.441,-112.862 309.713,-98.6216"/>
<polygon fill="black" stroke="black" points="310.185,-95.1436 299.675,-96.4793 308.724,-101.989 310.185,-95.1436"/>
</g>
<!-- 13 -->
<g id="node14" class="node"><title>13</title>
<ellipse fill="none" stroke="black" cx="38" cy="-18" rx="27" ry="18"/>
<text text-anchor="middle" x="38" y="-14.3" font-family="Times,serif" font-size="14.00">13</text>
</g>
<!-- 12&#45;&gt;13 -->
<g id="edge45" class="edge"><title>12&#45;&gt;13</title>
<path fill="none" stroke="black" d="M249.633,-81.7724C207.303,-69.2169 120.107,-43.3537 71.8996,-29.055"/>
<polygon fill="black" stroke="black" points="72.8172,-25.6765 62.2347,-26.1883 70.8266,-32.3875 72.8172,-25.6765"/>
</g>
<!-- 13&#45;&gt;2 -->
<g id="edge46" class="edge"><title>13&#45;&gt;2</title>
<path fill="none" stroke="black" d="M30.4924,-35.662C19.4181,-61.803 0,-114.298 0,-161 0,-667 0,-667 0,-667 0,-766.694 149.681,-796.9 221.024,-805.636"/>
<polygon fill="black" stroke="black" points="221.028,-809.159 231.361,-806.818 221.824,-802.204 221.028,-809.159"/>
</g>
<!-- 13&#45;&gt;6 -->
<g id="edge47" class="edge"><title>13&#45;&gt;6</title>
<path fill="none" stroke="black" d="M38,-36.0493C38,-62.7084 38,-115.885 38,-161 38,-307 38,-307 38,-307 38,-429.128 208.235,-490.91 283.23,-512.202"/>
<polygon fill="black" stroke="black" points="282.581,-515.654 293.152,-514.939 284.443,-508.906 282.581,-515.654"/>
</g>
</g>
</svg>
