<?xml version="1.0" encoding="UTF-8" standalone="no"?>
<!DOCTYPE svg PUBLIC "-//W3C//DTD SVG 1.1//EN"
 "http://www.w3.org/Graphics/SVG/1.1/DTD/svg11.dtd">
<!-- Generated by graphviz version 2.36.0 (20140111.2315)
 -->
<!-- Title: G Pages: 1 -->
<svg width="306pt" height="220pt"
 viewBox="0.00 0.00 306.00 220.00" xmlns="http://www.w3.org/2000/svg" xmlns:xlink="http://www.w3.org/1999/xlink">
<g id="graph0" class="graph" transform="scale(1 1) rotate(0) translate(4 216)">
<title>G</title>
<polygon fill="white" stroke="none" points="-4,4 -4,-216 302,-216 302,4 -4,4"/>
<!-- 0 -->
<g id="node1" class="node"><title>0</title>
<ellipse fill="none" stroke="black" cx="163" cy="-194" rx="61.1419" ry="18"/>
<text text-anchor="middle" x="163" y="-190.3" font-family="Times,serif" font-size="14.00">top,source,0,0</text>
</g>
<!-- 1 -->
<g id="node2" class="node"><title>1</title>
<ellipse fill="none" stroke="black" cx="74" cy="-106" rx="74.6146" ry="18"/>
<text text-anchor="middle" x="74" y="-102.3" font-family="Times,serif" font-size="14.00">right,target,3.14,0</text>
</g>
<!-- 0&#45;&#45;1 -->
<g id="edge1" class="edge"><title>0&#45;&#45;1</title>
<path fill="none" stroke="black" d="M139.074,-177.433C131.061,-171.741 122.313,-164.977 115,-158 104.15,-147.649 93.588,-134.413 85.9022,-124.019"/>
<text text-anchor="middle" x="148" y="-146.3" font-family="Times,serif" font-size="14.00">AB,first,0,0</text>
</g>
<!-- 2 -->
<g id="node3" class="node"><title>2</title>
<ellipse fill="none" stroke="black" cx="130" cy="-18" rx="69.3156" ry="18"/>
<text text-anchor="middle" x="130" y="-14.3" font-family="Times,serif" font-size="14.00">left,target,0,3.14</text>
</g>
<!-- 1&#45;&#45;2 -->
<g id="edge2" class="edge"><title>1&#45;&#45;2</title>
<path fill="none" stroke="black" d="M65.9408,-87.8576C62.2821,-77.4176 59.9666,-64.1763 66,-54 71.4252,-44.8496 80.1808,-37.9358 89.497,-32.7761"/>
<text text-anchor="middle" x="123.5" y="-58.3" font-family="Times,serif" font-size="14.00">BC,second,3.14,3.14</text>
</g>
<!-- 2&#45;&#45;0 -->
<g id="edge3" class="edge"><title>2&#45;&#45;0</title>
<path fill="none" stroke="black" d="M161.908,-33.9936C169.53,-39.1972 176.697,-45.8284 181,-54 202.536,-94.8987 191.875,-113.075 181,-158 179.489,-164.243 176.661,-170.62 173.686,-176.191"/>
<text text-anchor="middle" x="246" y="-102.3" font-family="Times,serif" font-size="14.00">CA,third,3.14,3.14</text>
</g>
</g>
</svg>
