<?xml version="1.0" encoding="UTF-8" standalone="no"?>
<!DOCTYPE svg PUBLIC "-//W3C//DTD SVG 1.1//EN"
 "http://www.w3.org/Graphics/SVG/1.1/DTD/svg11.dtd">
<!-- Generated by graphviz version 2.36.0 (20140111.2315)
 -->
<!-- Title: G Pages: 1 -->
<svg width="3149pt" height="260pt"
 viewBox="0.00 0.00 3149.00 260.00" xmlns="http://www.w3.org/2000/svg" xmlns:xlink="http://www.w3.org/1999/xlink">
<g id="graph0" class="graph" transform="scale(1 1) rotate(0) translate(4 256)">
<title>G</title>
<polygon fill="white" stroke="none" points="-4,4 -4,-256 3145,-256 3145,4 -4,4"/>
<!-- 0 -->
<g id="node1" class="node"><title>0</title>
<ellipse fill="none" stroke="black" cx="2219" cy="-234" rx="83.2892" ry="18"/>
<text text-anchor="middle" x="2219" y="-230.3" font-family="Times,serif" font-size="14.00">create_empty_graph</text>
</g>
<!-- 1 -->
<g id="node2" class="node"><title>1</title>
<ellipse fill="none" stroke="black" cx="626" cy="-162" rx="142.481" ry="18"/>
<text text-anchor="middle" x="626" y="-158.3" font-family="Times,serif" font-size="14.00">create_empty_named_vertices_graph</text>
</g>
<!-- 0&#45;&#45;1 -->
<g id="edge1" class="edge"><title>0&#45;&#45;1</title>
<path fill="none" stroke="black" d="M2138.36,-229.457C1880.86,-218.142 1076.62,-182.801 757.956,-168.798"/>
</g>
<!-- 3 -->
<g id="node4" class="node"><title>3</title>
<ellipse fill="none" stroke="black" cx="1383" cy="-162" rx="144.406" ry="18"/>
<text text-anchor="middle" x="1383" y="-158.3" font-family="Times,serif" font-size="14.00">create_empty_custom_vertices_graph</text>
</g>
<!-- 0&#45;&#45;3 -->
<g id="edge3" class="edge"><title>0&#45;&#45;3</title>
<path fill="none" stroke="black" d="M2142.97,-226.633C1996.25,-214.349 1673.27,-187.305 1499.35,-172.742"/>
</g>
<!-- 5 -->
<g id="node6" class="node"><title>5</title>
<ellipse fill="none" stroke="black" cx="1992" cy="-162" rx="69.3156" ry="18"/>
<text text-anchor="middle" x="1992" y="-158.3" font-family="Times,serif" font-size="14.00">create_k2_graph</text>
</g>
<!-- 0&#45;&#45;5 -->
<g id="edge5" class="edge"><title>0&#45;&#45;5</title>
<path fill="none" stroke="black" d="M2173.34,-218.919C2132.94,-206.462 2074.44,-188.422 2034.9,-176.229"/>
</g>
<!-- 10 -->
<g id="node11" class="node"><title>10</title>
<ellipse fill="none" stroke="black" cx="2219" cy="-162" rx="50.0684" ry="18"/>
<text text-anchor="middle" x="2219" y="-158.3" font-family="Times,serif" font-size="14.00">add_vertex</text>
</g>
<!-- 0&#45;&#45;10 -->
<g id="edge10" class="edge"><title>0&#45;&#45;10</title>
<path fill="none" stroke="black" d="M2219,-215.697C2219,-204.846 2219,-190.917 2219,-180.104"/>
</g>
<!-- 13 -->
<g id="node14" class="node"><title>13</title>
<ellipse fill="none" stroke="black" cx="2331" cy="-162" rx="44.2946" ry="18"/>
<text text-anchor="middle" x="2331" y="-158.3" font-family="Times,serif" font-size="14.00">add_edge</text>
</g>
<!-- 0&#45;&#45;13 -->
<g id="edge13" class="edge"><title>0&#45;&#45;13</title>
<path fill="none" stroke="black" d="M2244.98,-216.765C2263.98,-204.891 2289.52,-188.925 2307.83,-177.483"/>
</g>
<!-- 16 -->
<g id="node17" class="node"><title>16</title>
<ellipse fill="none" stroke="black" cx="2455" cy="-162" rx="61.6163" ry="18"/>
<text text-anchor="middle" x="2455" y="-158.3" font-family="Times,serif" font-size="14.00">get_n_vertices</text>
</g>
<!-- 0&#45;&#45;16 -->
<g id="edge16" class="edge"><title>0&#45;&#45;16</title>
<path fill="none" stroke="black" d="M2262.03,-218.581C2304.2,-205.573 2368.02,-186.684 2410.64,-174.622"/>
</g>
<!-- 0&#45;&#45;16 -->
<g id="edge17" class="edge"><title>0&#45;&#45;16</title>
<path fill="none" stroke="black" d="M2269.38,-219.669C2313.41,-207.134 2376.27,-188.485 2416.41,-176.045"/>
</g>
<!-- 2 -->
<g id="node3" class="node"><title>2</title>
<ellipse fill="none" stroke="black" cx="225" cy="-90" rx="225.295" ry="18"/>
<text text-anchor="middle" x="225" y="-86.3" font-family="Times,serif" font-size="14.00">create_empty_undirected_named_edges_and_vertices_graph</text>
</g>
<!-- 1&#45;&#45;2 -->
<g id="edge2" class="edge"><title>1&#45;&#45;2</title>
<path fill="none" stroke="black" d="M545.815,-147.003C478.848,-135.313 383.463,-118.662 314.117,-106.557"/>
</g>
<!-- 18 -->
<g id="node19" class="node"><title>18</title>
<ellipse fill="none" stroke="black" cx="544" cy="-90" rx="75.0904" ry="18"/>
<text text-anchor="middle" x="544" y="-86.3" font-family="Times,serif" font-size="14.00">get_vertex_names</text>
</g>
<!-- 1&#45;&#45;18 -->
<g id="edge18" class="edge"><title>1&#45;&#45;18</title>
<path fill="none" stroke="black" d="M606.15,-144.055C593.163,-132.968 576.277,-118.553 563.384,-107.547"/>
</g>
<!-- 20 -->
<g id="node21" class="node"><title>20</title>
<ellipse fill="none" stroke="black" cx="707" cy="-90" rx="69.3156" ry="18"/>
<text text-anchor="middle" x="707" y="-86.3" font-family="Times,serif" font-size="14.00">get_edge_names</text>
</g>
<!-- 1&#45;&#45;20 -->
<g id="edge19" class="edge"><title>1&#45;&#45;20</title>
<path fill="none" stroke="black" d="M645.608,-144.055C658.437,-132.968 675.117,-118.553 687.852,-107.547"/>
</g>
<!-- 4 -->
<g id="node5" class="node"><title>4</title>
<ellipse fill="none" stroke="black" cx="981" cy="-90" rx="186.3" ry="18"/>
<text text-anchor="middle" x="981" y="-86.3" font-family="Times,serif" font-size="14.00">create_empty_custom_edges_and_vertices_graph</text>
</g>
<!-- 3&#45;&#45;4 -->
<g id="edge4" class="edge"><title>3&#45;&#45;4</title>
<path fill="none" stroke="black" d="M1302.62,-147.003C1234.45,-135.133 1136.91,-118.149 1067.16,-106.002"/>
</g>
<!-- 19 -->
<g id="node20" class="node"><title>19</title>
<ellipse fill="none" stroke="black" cx="1283" cy="-90" rx="97.237" ry="18"/>
<text text-anchor="middle" x="1283" y="-86.3" font-family="Times,serif" font-size="14.00">get_vertex_my_vertexes</text>
</g>
<!-- 3&#45;&#45;19 -->
<g id="edge20" class="edge"><title>3&#45;&#45;19</title>
<path fill="none" stroke="black" d="M1359.05,-144.233C1343.22,-133.151 1322.55,-118.684 1306.76,-107.63"/>
</g>
<!-- 21 -->
<g id="node22" class="node"><title>21</title>
<ellipse fill="none" stroke="black" cx="1482" cy="-90" rx="83.2892" ry="18"/>
<text text-anchor="middle" x="1482" y="-86.3" font-family="Times,serif" font-size="14.00">get_edge_my_edges</text>
</g>
<!-- 3&#45;&#45;21 -->
<g id="edge21" class="edge"><title>3&#45;&#45;21</title>
<path fill="none" stroke="black" d="M1406.71,-144.233C1422.5,-133.07 1443.15,-118.473 1458.82,-107.388"/>
</g>
<!-- 6 -->
<g id="node7" class="node"><title>6</title>
<ellipse fill="none" stroke="black" cx="1713" cy="-90" rx="129.008" ry="18"/>
<text text-anchor="middle" x="1713" y="-86.3" font-family="Times,serif" font-size="14.00">create_named_vertices_k2_graph</text>
</g>
<!-- 5&#45;&#45;6 -->
<g id="edge6" class="edge"><title>5&#45;&#45;6</title>
<path fill="none" stroke="black" d="M1944.04,-148.967C1896.6,-137.064 1823.87,-118.816 1772.71,-105.98"/>
</g>
<!-- 8 -->
<g id="node9" class="node"><title>8</title>
<ellipse fill="none" stroke="black" cx="1992" cy="-90" rx="130.933" ry="18"/>
<text text-anchor="middle" x="1992" y="-86.3" font-family="Times,serif" font-size="14.00">create_custom_vertices_k2_graph</text>
</g>
<!-- 5&#45;&#45;8 -->
<g id="edge8" class="edge"><title>5&#45;&#45;8</title>
<path fill="none" stroke="black" d="M1992,-143.697C1992,-132.846 1992,-118.917 1992,-108.104"/>
</g>
<!-- 7 -->
<g id="node8" class="node"><title>7</title>
<ellipse fill="none" stroke="black" cx="1671" cy="-18" rx="170.402" ry="18"/>
<text text-anchor="middle" x="1671" y="-14.3" font-family="Times,serif" font-size="14.00">create_named_edges_and_vertices_k3_graph</text>
</g>
<!-- 6&#45;&#45;7 -->
<g id="edge7" class="edge"><title>6&#45;&#45;7</title>
<path fill="none" stroke="black" d="M1702.83,-72.055C1696.33,-61.2111 1687.91,-47.183 1681.37,-36.2753"/>
</g>
<!-- 9 -->
<g id="node10" class="node"><title>9</title>
<ellipse fill="none" stroke="black" cx="2033" cy="-18" rx="172.327" ry="18"/>
<text text-anchor="middle" x="2033" y="-14.3" font-family="Times,serif" font-size="14.00">create_custom_edges_and_vertices_k3_graph</text>
</g>
<!-- 8&#45;&#45;9 -->
<g id="edge9" class="edge"><title>8&#45;&#45;9</title>
<path fill="none" stroke="black" d="M2002.13,-71.6966C2008.49,-60.8463 2016.65,-46.9167 2022.98,-36.1043"/>
</g>
<!-- 11 -->
<g id="node12" class="node"><title>11</title>
<ellipse fill="none" stroke="black" cx="2219" cy="-90" rx="77.4897" ry="18"/>
<text text-anchor="middle" x="2219" y="-86.3" font-family="Times,serif" font-size="14.00">add_named_vertex</text>
</g>
<!-- 10&#45;&#45;11 -->
<g id="edge11" class="edge"><title>10&#45;&#45;11</title>
<path fill="none" stroke="black" d="M2219,-143.697C2219,-132.846 2219,-118.917 2219,-108.104"/>
</g>
<!-- 12 -->
<g id="node13" class="node"><title>12</title>
<ellipse fill="none" stroke="black" cx="2395" cy="-90" rx="79.4147" ry="18"/>
<text text-anchor="middle" x="2395" y="-86.3" font-family="Times,serif" font-size="14.00">add_custom_vertex</text>
</g>
<!-- 10&#45;&#45;12 -->
<g id="edge12" class="edge"><title>10&#45;&#45;12</title>
<path fill="none" stroke="black" d="M2251.28,-148.161C2281.25,-136.241 2325.87,-118.496 2357.43,-105.944"/>
</g>
<!-- 14 -->
<g id="node15" class="node"><title>14</title>
<ellipse fill="none" stroke="black" cx="2566" cy="-90" rx="72.192" ry="18"/>
<text text-anchor="middle" x="2566" y="-86.3" font-family="Times,serif" font-size="14.00">add_named_edge</text>
</g>
<!-- 13&#45;&#45;14 -->
<g id="edge14" class="edge"><title>13&#45;&#45;14</title>
<path fill="none" stroke="black" d="M2364.32,-150.162C2370.83,-148.085 2377.62,-145.951 2384,-144 2430.1,-129.896 2483.04,-114.578 2519.9,-104.054"/>
</g>
<!-- 15 -->
<g id="node16" class="node"><title>15</title>
<ellipse fill="none" stroke="black" cx="2732" cy="-90" rx="74.6146" ry="18"/>
<text text-anchor="middle" x="2732" y="-86.3" font-family="Times,serif" font-size="14.00">add_custom_edge</text>
</g>
<!-- 13&#45;&#45;15 -->
<g id="edge15" class="edge"><title>13&#45;&#45;15</title>
<path fill="none" stroke="black" d="M2363.27,-149.665C2370.05,-147.559 2377.22,-145.54 2384,-144 2499.05,-117.884 2530.66,-127.578 2647,-108 2656.94,-106.327 2667.5,-104.365 2677.68,-102.38"/>
</g>
<!-- 17 -->
<g id="node18" class="node"><title>17</title>
<ellipse fill="none" stroke="black" cx="2375" cy="-234" rx="54.3924" ry="18"/>
<text text-anchor="middle" x="2375" y="-230.3" font-family="Times,serif" font-size="14.00">get_n_edges</text>
</g>
<!-- 22 -->
<g id="node23" class="node"><title>22</title>
<ellipse fill="none" stroke="black" cx="2522" cy="-234" rx="74.1402" ry="18"/>
<text text-anchor="middle" x="2522" y="-230.3" font-family="Times,serif" font-size="14.00">set_vertex_names</text>
</g>
<!-- 23 -->
<g id="node24" class="node"><title>23</title>
<ellipse fill="none" stroke="black" cx="2709" cy="-234" rx="94.338" ry="18"/>
<text text-anchor="middle" x="2709" y="-230.3" font-family="Times,serif" font-size="14.00">set_vertex my_vertexes</text>
</g>
<!-- 24 -->
<g id="node25" class="node"><title>24</title>
<ellipse fill="none" stroke="black" cx="2891" cy="-234" rx="68.3417" ry="18"/>
<text text-anchor="middle" x="2891" y="-230.3" font-family="Times,serif" font-size="14.00">set_edge_names</text>
</g>
<!-- 25 -->
<g id="node26" class="node"><title>25</title>
<ellipse fill="none" stroke="black" cx="3060" cy="-234" rx="81.3398" ry="18"/>
<text text-anchor="middle" x="3060" y="-230.3" font-family="Times,serif" font-size="14.00">set_edge_my_edges</text>
</g>
</g>
</svg>
