<?xml version="1.0" encoding="UTF-8" standalone="no"?>
<!DOCTYPE svg PUBLIC "-//W3C//DTD SVG 1.1//EN"
 "http://www.w3.org/Graphics/SVG/1.1/DTD/svg11.dtd">
<!-- Generated by graphviz version 2.36.0 (20140111.2315)
 -->
<!-- Title: G Pages: 1 -->
<svg width="92pt" height="116pt"
 viewBox="0.00 0.00 92.00 116.00" xmlns="http://www.w3.org/2000/svg" xmlns:xlink="http://www.w3.org/1999/xlink">
<g id="graph0" class="graph" transform="scale(1 1) rotate(0) translate(4 112)">
<title>G</title>
<polygon fill="white" stroke="none" points="-4,4 -4,-112 88,-112 88,4 -4,4"/>
<!-- 0 -->
<g id="node1" class="node"><title>0</title>
<ellipse fill="none" stroke="black" cx="33" cy="-90" rx="33.2209" ry="18"/>
<text text-anchor="middle" x="33" y="-86.3" font-family="Times,serif" font-size="14.00">Sunny</text>
</g>
<!-- 0&#45;&gt;0 -->
<g id="edge1" class="edge"><title>0&#45;&gt;0</title>
<path fill="none" stroke="black" d="M56.6074,-102.656C70.7188,-105.469 84,-101.25 84,-90 84,-81.5625 76.5293,-77.0801 66.8407,-76.5527"/>
<polygon fill="black" stroke="black" points="66.3079,-73.0834 56.6074,-77.3438 66.8475,-80.0626 66.3079,-73.0834"/>
</g>
<!-- 1 -->
<g id="node2" class="node"><title>1</title>
<ellipse fill="none" stroke="black" cx="33" cy="-18" rx="31.2735" ry="18"/>
<text text-anchor="middle" x="33" y="-14.3" font-family="Times,serif" font-size="14.00">Rainy</text>
</g>
<!-- 0&#45;&gt;1 -->
<g id="edge2" class="edge"><title>0&#45;&gt;1</title>
<path fill="none" stroke="black" d="M27.1218,-72.055C26.2915,-64.2306 26.0543,-54.7484 26.4102,-45.9768"/>
<polygon fill="black" stroke="black" points="29.9164,-46.0131 27.1384,-35.789 22.9342,-45.514 29.9164,-46.0131"/>
</g>
<!-- 1&#45;&gt;0 -->
<g id="edge3" class="edge"><title>1&#45;&gt;0</title>
<path fill="none" stroke="black" d="M38.8616,-35.789C39.6998,-43.5912 39.9449,-53.067 39.5969,-61.8479"/>
<polygon fill="black" stroke="black" points="36.0893,-61.8338 38.8782,-72.055 43.072,-62.3255 36.0893,-61.8338"/>
</g>
<!-- 1&#45;&gt;1 -->
<g id="edge4" class="edge"><title>1&#45;&gt;1</title>
<path fill="none" stroke="black" d="M55.6816,-30.6562C69.2396,-33.4688 82,-29.25 82,-18 82,-9.65039 74.971,-5.17389 65.8038,-4.5705"/>
<polygon fill="black" stroke="black" points="65.386,-1.09213 55.6816,-5.34375 65.9192,-8.0718 65.386,-1.09213"/>
</g>
</g>
</svg>
