<?xml version="1.0" encoding="UTF-8" standalone="no"?>
<!DOCTYPE svg PUBLIC "-//W3C//DTD SVG 1.1//EN"
 "http://www.w3.org/Graphics/SVG/1.1/DTD/svg11.dtd">
<!-- Generated by graphviz version 2.36.0 (20140111.2315)
 -->
<!-- Title: G Pages: 1 -->
<svg width="318pt" height="116pt"
 viewBox="0.00 0.00 318.00 116.00" xmlns="http://www.w3.org/2000/svg" xmlns:xlink="http://www.w3.org/1999/xlink">
<g id="graph0" class="graph" transform="scale(1 1) rotate(0) translate(4 112)">
<title>G</title>
<polygon fill="white" stroke="none" points="-4,4 -4,-112 314,-112 314,4 -4,4"/>
<!-- 0 -->
<g id="node1" class="node"><title>0</title>
<ellipse fill="none" stroke="black" cx="146" cy="-90" rx="146.331" ry="18"/>
<text text-anchor="middle" x="146" y="-86.3" font-family="Times,serif" font-size="14.00">Sunny,Yellow$$$SPACE$$$thing,1,1</text>
</g>
<!-- 0&#45;&gt;0 -->
<g id="edge1" class="edge"><title>0&#45;&gt;0</title>
<path fill="none" stroke="black" d="M243.245,-103.465C279.82,-103.945 310,-99.457 310,-90 310,-81.4296 285.214,-76.9398 253.343,-76.5308"/>
<polygon fill="black" stroke="black" points="253.243,-73.0307 243.245,-76.5348 253.246,-80.0307 253.243,-73.0307"/>
</g>
<!-- 1 -->
<g id="node2" class="node"><title>1</title>
<ellipse fill="none" stroke="black" cx="146" cy="-18" rx="140.082" ry="18"/>
<text text-anchor="middle" x="146" y="-14.3" font-family="Times,serif" font-size="14.00">Rainy,Grey$$$SPACE$$$things,3,3</text>
</g>
<!-- 0&#45;&gt;1 -->
<g id="edge2" class="edge"><title>0&#45;&gt;1</title>
<path fill="none" stroke="black" d="M140.084,-71.6966C139.289,-63.9827 139.062,-54.7125 139.405,-46.1124"/>
<polygon fill="black" stroke="black" points="142.898,-46.3243 140.105,-36.1043 135.915,-45.8356 142.898,-46.3243"/>
</g>
<!-- 1&#45;&gt;0 -->
<g id="edge3" class="edge"><title>1&#45;&gt;0</title>
<path fill="none" stroke="black" d="M151.895,-36.1043C152.701,-43.7913 152.937,-53.0537 152.604,-61.6651"/>
<polygon fill="black" stroke="black" points="149.109,-61.4805 151.916,-71.6966 156.092,-61.9597 149.109,-61.4805"/>
</g>
<!-- 1&#45;&gt;1 -->
<g id="edge4" class="edge"><title>1&#45;&gt;1</title>
<path fill="none" stroke="black" d="M239.294,-31.4596C274.708,-31.9787 304,-27.4922 304,-18 304,-9.43478 280.15,-4.94529 249.472,-4.53151"/>
<polygon fill="black" stroke="black" points="249.291,-1.03156 239.294,-4.54037 249.297,-8.03156 249.291,-1.03156"/>
</g>
</g>
</svg>
