<?xml version="1.0" encoding="UTF-8" standalone="no"?>
<!DOCTYPE svg PUBLIC "-//W3C//DTD SVG 1.1//EN"
 "http://www.w3.org/Graphics/SVG/1.1/DTD/svg11.dtd">
<!-- Generated by graphviz version 2.36.0 (20140111.2315)
 -->
<!-- Title: G Pages: 1 -->
<svg width="80pt" height="116pt"
 viewBox="0.00 0.00 80.00 116.00" xmlns="http://www.w3.org/2000/svg" xmlns:xlink="http://www.w3.org/1999/xlink">
<g id="graph0" class="graph" transform="scale(1 1) rotate(0) translate(4 112)">
<title>G</title>
<polygon fill="white" stroke="none" points="-4,4 -4,-112 76,-112 76,4 -4,4"/>
<!-- 0 -->
<g id="node1" class="node"><title>0</title>
<ellipse fill="none" stroke="black" cx="27" cy="-90" rx="27" ry="18"/>
<text text-anchor="middle" x="27" y="-86.3" font-family="Times,serif" font-size="14.00">0</text>
</g>
<!-- 0&#45;&gt;0 -->
<g id="edge1" class="edge"><title>0&#45;&gt;0</title>
<path fill="none" stroke="black" d="M46.895,-102.432C59.688,-105.675 72,-101.531 72,-90 72,-81.6218 65.5006,-77.1433 57.0395,-76.5644"/>
<polygon fill="black" stroke="black" points="56.5019,-73.1004 46.895,-77.5679 57.191,-80.0665 56.5019,-73.1004"/>
</g>
<!-- 1 -->
<g id="node2" class="node"><title>1</title>
<ellipse fill="none" stroke="black" cx="27" cy="-18" rx="27" ry="18"/>
<text text-anchor="middle" x="27" y="-14.3" font-family="Times,serif" font-size="14.00">1</text>
</g>
<!-- 0&#45;&gt;1 -->
<g id="edge2" class="edge"><title>0&#45;&gt;1</title>
<path fill="none" stroke="black" d="M21.1601,-72.411C20.2975,-64.507 20.0481,-54.8518 20.4119,-45.9352"/>
<polygon fill="black" stroke="black" points="23.9033,-46.1791 21.1206,-35.9562 16.9209,-45.6831 23.9033,-46.1791"/>
</g>
<!-- 1&#45;&gt;0 -->
<g id="edge3" class="edge"><title>1&#45;&gt;0</title>
<path fill="none" stroke="black" d="M32.8794,-35.9562C33.7139,-43.8272 33.9485,-53.3739 33.5831,-62.1869"/>
<polygon fill="black" stroke="black" points="30.0742,-62.1835 32.8399,-72.411 37.0558,-62.6911 30.0742,-62.1835"/>
</g>
<!-- 1&#45;&gt;1 -->
<g id="edge4" class="edge"><title>1&#45;&gt;1</title>
<path fill="none" stroke="black" d="M46.895,-30.4321C59.688,-33.6753 72,-29.5312 72,-18 72,-9.62183 65.5006,-5.14331 57.0395,-4.56444"/>
<polygon fill="black" stroke="black" points="56.5019,-1.10045 46.895,-5.56787 57.191,-8.06645 56.5019,-1.10045"/>
</g>
</g>
</svg>
