<?xml version="1.0" encoding="UTF-8" standalone="no"?>
<!DOCTYPE svg PUBLIC "-//W3C//DTD SVG 1.1//EN"
 "http://www.w3.org/Graphics/SVG/1.1/DTD/svg11.dtd">
<!-- Generated by graphviz version 2.36.0 (20140111.2315)
 -->
<!-- Title: G Pages: 1 -->
<svg width="255pt" height="836pt"
 viewBox="0.00 0.00 255.00 836.00" xmlns="http://www.w3.org/2000/svg" xmlns:xlink="http://www.w3.org/1999/xlink">
<g id="graph0" class="graph" transform="scale(1 1) rotate(0) translate(4 832)">
<title>G</title>
<polygon fill="white" stroke="none" points="-4,4 -4,-832 251,-832 251,4 -4,4"/>
<!-- 0 -->
<g id="node1" class="node"><title>0</title>
<ellipse fill="none" stroke="black" cx="202" cy="-810" rx="27" ry="18"/>
<text text-anchor="middle" x="202" y="-806.3" font-family="Times,serif" font-size="14.00">A</text>
</g>
<!-- 1 -->
<g id="node2" class="node"><title>1</title>
<ellipse fill="none" stroke="black" cx="147" cy="-722" rx="27" ry="18"/>
<text text-anchor="middle" x="147" y="-718.3" font-family="Times,serif" font-size="14.00">B</text>
</g>
<!-- 0&#45;&#45;1 -->
<g id="edge1" class="edge"><title>0&#45;&#45;1</title>
<path fill="none" stroke="black" d="M191.912,-793.226C182.05,-777.806 167.114,-754.45 157.21,-738.965"/>
<text text-anchor="middle" x="183" y="-762.3" font-family="Times,serif" font-size="14.00">F</text>
</g>
<!-- 5 -->
<g id="node6" class="node"><title>5</title>
<ellipse fill="none" stroke="black" cx="144" cy="-106" rx="27" ry="18"/>
<text text-anchor="middle" x="144" y="-102.3" font-family="Times,serif" font-size="14.00">a</text>
</g>
<!-- 0&#45;&#45;5 -->
<g id="edge6" class="edge"><title>0&#45;&#45;5</title>
<path fill="none" stroke="black" d="M213.608,-793.426C224.783,-776.858 240,-749.443 240,-723 240,-723 240,-723 240,-193 240,-154.065 195.65,-128.328 167.239,-115.834"/>
<text text-anchor="middle" x="243.5" y="-454.3" font-family="Times,serif" font-size="14.00">0</text>
</g>
<!-- 2 -->
<g id="node3" class="node"><title>2</title>
<ellipse fill="none" stroke="black" cx="74" cy="-634" rx="27" ry="18"/>
<text text-anchor="middle" x="74" y="-630.3" font-family="Times,serif" font-size="14.00">C</text>
</g>
<!-- 1&#45;&#45;2 -->
<g id="edge2" class="edge"><title>1&#45;&#45;2</title>
<path fill="none" stroke="black" d="M134.284,-706.02C120.967,-690.331 100.169,-665.829 86.8148,-650.097"/>
<text text-anchor="middle" x="123" y="-674.3" font-family="Times,serif" font-size="14.00">G</text>
</g>
<!-- 6 -->
<g id="node7" class="node"><title>6</title>
<ellipse fill="none" stroke="black" cx="144" cy="-282" rx="27" ry="18"/>
<text text-anchor="middle" x="144" y="-278.3" font-family="Times,serif" font-size="14.00">b</text>
</g>
<!-- 1&#45;&#45;6 -->
<g id="edge7" class="edge"><title>1&#45;&#45;6</title>
<path fill="none" stroke="black" d="M149.848,-703.922C152.484,-686.608 156,-659.019 156,-635 156,-635 156,-635 156,-369 156,-344.88 151.312,-317.316 147.797,-300.035"/>
<text text-anchor="middle" x="159.5" y="-498.3" font-family="Times,serif" font-size="14.00">1</text>
</g>
<!-- 3 -->
<g id="node4" class="node"><title>3</title>
<ellipse fill="none" stroke="black" cx="74" cy="-546" rx="27" ry="18"/>
<text text-anchor="middle" x="74" y="-542.3" font-family="Times,serif" font-size="14.00">D</text>
</g>
<!-- 2&#45;&#45;3 -->
<g id="edge3" class="edge"><title>2&#45;&#45;3</title>
<path fill="none" stroke="black" d="M74,-615.597C74,-600.578 74,-579.009 74,-564.084"/>
<text text-anchor="middle" x="79" y="-586.3" font-family="Times,serif" font-size="14.00">H</text>
</g>
<!-- 7 -->
<g id="node8" class="node"><title>7</title>
<ellipse fill="none" stroke="black" cx="89" cy="-18" rx="27" ry="18"/>
<text text-anchor="middle" x="89" y="-14.3" font-family="Times,serif" font-size="14.00">c</text>
</g>
<!-- 2&#45;&#45;7 -->
<g id="edge8" class="edge"><title>2&#45;&#45;7</title>
<path fill="none" stroke="black" d="M54.1694,-621.487C32.2497,-607.105 0,-580.288 0,-547 0,-547 0,-547 0,-105 0,-67.8285 40.6445,-41.6221 67,-28.5363"/>
<text text-anchor="middle" x="3.5" y="-322.3" font-family="Times,serif" font-size="14.00">2</text>
</g>
<!-- 4 -->
<g id="node5" class="node"><title>4</title>
<ellipse fill="none" stroke="black" cx="101" cy="-458" rx="27" ry="18"/>
<text text-anchor="middle" x="101" y="-454.3" font-family="Times,serif" font-size="14.00">E</text>
</g>
<!-- 3&#45;&#45;4 -->
<g id="edge4" class="edge"><title>3&#45;&#45;4</title>
<path fill="none" stroke="black" d="M79.3343,-528.009C84.0985,-512.834 91.0361,-490.737 95.7686,-475.663"/>
<text text-anchor="middle" x="92.5" y="-498.3" font-family="Times,serif" font-size="14.00">I</text>
</g>
<!-- 8 -->
<g id="node9" class="node"><title>8</title>
<ellipse fill="none" stroke="black" cx="144" cy="-194" rx="27" ry="18"/>
<text text-anchor="middle" x="144" y="-190.3" font-family="Times,serif" font-size="14.00">d</text>
</g>
<!-- 3&#45;&#45;8 -->
<g id="edge9" class="edge"><title>3&#45;&#45;8</title>
<path fill="none" stroke="black" d="M65.2941,-528.705C57.0746,-511.778 46,-484.28 46,-459 46,-459 46,-459 46,-281 46,-241.387 91.7954,-215.744 120.775,-203.483"/>
<text text-anchor="middle" x="49.5" y="-366.3" font-family="Times,serif" font-size="14.00">3</text>
</g>
<!-- 4&#45;&#45;0 -->
<g id="edge5" class="edge"><title>4&#45;&#45;0</title>
<path fill="none" stroke="black" d="M124.425,-467.071C154.262,-479.018 202,-504.467 202,-545 202,-723 202,-723 202,-723 202,-746.889 202,-774.51 202,-791.867"/>
<text text-anchor="middle" x="205" y="-630.3" font-family="Times,serif" font-size="14.00">J</text>
</g>
<!-- 9 -->
<g id="node10" class="node"><title>9</title>
<ellipse fill="none" stroke="black" cx="101" cy="-370" rx="27" ry="18"/>
<text text-anchor="middle" x="101" y="-366.3" font-family="Times,serif" font-size="14.00">e</text>
</g>
<!-- 4&#45;&#45;9 -->
<g id="edge10" class="edge"><title>4&#45;&#45;9</title>
<path fill="none" stroke="black" d="M101,-439.597C101,-424.578 101,-403.009 101,-388.084"/>
<text text-anchor="middle" x="104.5" y="-410.3" font-family="Times,serif" font-size="14.00">4</text>
</g>
<!-- 5&#45;&#45;7 -->
<g id="edge11" class="edge"><title>5&#45;&#45;7</title>
<path fill="none" stroke="black" d="M133.912,-89.2263C124.05,-73.8061 109.114,-50.4504 99.2102,-34.965"/>
<text text-anchor="middle" x="124.5" y="-58.3" font-family="Times,serif" font-size="14.00">f</text>
</g>
<!-- 6&#45;&#45;8 -->
<g id="edge12" class="edge"><title>6&#45;&#45;8</title>
<path fill="none" stroke="black" d="M144,-263.597C144,-248.578 144,-227.009 144,-212.084"/>
<text text-anchor="middle" x="147.5" y="-234.3" font-family="Times,serif" font-size="14.00">g</text>
</g>
<!-- 7&#45;&#45;9 -->
<g id="edge13" class="edge"><title>7&#45;&#45;9</title>
<path fill="none" stroke="black" d="M89,-36.1328C89,-53.4896 89,-81.1111 89,-105 89,-283 89,-283 89,-283 89,-307.12 93.6875,-334.684 97.2031,-351.965"/>
<text text-anchor="middle" x="92.5" y="-190.3" font-family="Times,serif" font-size="14.00">h</text>
</g>
<!-- 8&#45;&#45;5 -->
<g id="edge14" class="edge"><title>8&#45;&#45;5</title>
<path fill="none" stroke="black" d="M144,-175.597C144,-160.578 144,-139.009 144,-124.084"/>
<text text-anchor="middle" x="146" y="-146.3" font-family="Times,serif" font-size="14.00">i</text>
</g>
<!-- 9&#45;&#45;6 -->
<g id="edge15" class="edge"><title>9&#45;&#45;6</title>
<path fill="none" stroke="black" d="M109.088,-352.824C116.727,-337.546 128.127,-314.746 135.802,-299.396"/>
<text text-anchor="middle" x="129" y="-322.3" font-family="Times,serif" font-size="14.00">j</text>
</g>
</g>
</svg>
