<?xml version="1.0" encoding="UTF-8" standalone="no"?>
<!DOCTYPE svg PUBLIC "-//W3C//DTD SVG 1.1//EN"
 "http://www.w3.org/Graphics/SVG/1.1/DTD/svg11.dtd">
<!-- Generated by graphviz version 2.36.0 (20140111.2315)
 -->
<!-- Title: G Pages: 1 -->
<svg width="107pt" height="220pt"
 viewBox="0.00 0.00 107.00 220.00" xmlns="http://www.w3.org/2000/svg" xmlns:xlink="http://www.w3.org/1999/xlink">
<g id="graph0" class="graph" transform="scale(1 1) rotate(0) translate(4 216)">
<title>G</title>
<polygon fill="white" stroke="none" points="-4,4 -4,-216 103,-216 103,4 -4,4"/>
<!-- 0 -->
<g id="node1" class="node"><title>0</title>
<ellipse fill="none" stroke="black" cx="72" cy="-194" rx="27" ry="18"/>
<text text-anchor="middle" x="72" y="-190.3" font-family="Times,serif" font-size="14.00">top</text>
</g>
<!-- 1 -->
<g id="node2" class="node"><title>1</title>
<ellipse fill="none" stroke="black" cx="27" cy="-106" rx="26.949" ry="18"/>
<text text-anchor="middle" x="27" y="-102.3" font-family="Times,serif" font-size="14.00">right</text>
</g>
<!-- 0&#45;&#45;1 -->
<g id="edge1" class="edge"><title>0&#45;&#45;1</title>
<path fill="none" stroke="black" d="M63.5358,-176.824C55.5415,-161.546 43.6111,-138.746 35.5792,-123.396"/>
<text text-anchor="middle" x="63.5" y="-146.3" font-family="Times,serif" font-size="14.00">AB</text>
</g>
<!-- 2 -->
<g id="node3" class="node"><title>2</title>
<ellipse fill="none" stroke="black" cx="66" cy="-18" rx="27" ry="18"/>
<text text-anchor="middle" x="66" y="-14.3" font-family="Times,serif" font-size="14.00">left</text>
</g>
<!-- 1&#45;&#45;2 -->
<g id="edge2" class="edge"><title>1&#45;&#45;2</title>
<path fill="none" stroke="black" d="M34.5196,-88.4183C41.4256,-73.1897 51.6048,-50.7433 58.5035,-35.5308"/>
<text text-anchor="middle" x="59.5" y="-58.3" font-family="Times,serif" font-size="14.00">BC</text>
</g>
<!-- 2&#45;&#45;0 -->
<g id="edge3" class="edge"><title>2&#45;&#45;0</title>
<path fill="none" stroke="black" d="M69.9801,-36.0011C71.1569,-41.6918 72.313,-48.0909 73,-54 78.1165,-98.0106 77.7006,-128.142 76,-158 75.6661,-163.862 75.0202,-170.249 74.3431,-175.944"/>
<text text-anchor="middle" x="86.5" y="-102.3" font-family="Times,serif" font-size="14.00">CA</text>
</g>
</g>
</svg>
