<?xml version="1.0" encoding="UTF-8" standalone="no"?>
<!DOCTYPE svg PUBLIC "-//W3C//DTD SVG 1.1//EN"
 "http://www.w3.org/Graphics/SVG/1.1/DTD/svg11.dtd">
<!-- Generated by graphviz version 2.38.0 (20140413.2041)
 -->
<!-- Title: G Pages: 1 -->
<svg width="1733pt" height="305pt"
 viewBox="0.00 0.00 1732.58 305.00" xmlns="http://www.w3.org/2000/svg" xmlns:xlink="http://www.w3.org/1999/xlink">
<g id="graph0" class="graph" transform="scale(1 1) rotate(0) translate(4 301)">
<title>G</title>
<polygon fill="white" stroke="none" points="-4,4 -4,-301 1728.58,-301 1728.58,4 -4,4"/>
<!-- 0 -->
<g id="node1" class="node"><title>0</title>
<ellipse fill="none" stroke="black" cx="907.584" cy="-279" rx="83.3857" ry="18"/>
<text text-anchor="middle" x="907.584" y="-275.3" font-family="Times,serif" font-size="14.00">create_empty_graph</text>
</g>
<!-- 1 -->
<g id="node2" class="node"><title>1</title>
<ellipse fill="none" stroke="black" cx="231.584" cy="-192" rx="142.975" ry="18"/>
<text text-anchor="middle" x="231.584" y="-188.3" font-family="Times,serif" font-size="14.00">create_empty_named_vertices_graph</text>
</g>
<!-- 0&#45;&#45;1 -->
<g id="edge1" class="edge"><title>0&#45;&#45;1</title>
<path fill="none" stroke="black" d="M837.47,-269.184C716.132,-253.927 466.776,-222.573 328.79,-205.223"/>
<text text-anchor="middle" x="670.084" y="-231.8" font-family="Times,serif" font-size="14.00">std::string vertex type</text>
</g>
<!-- 3 -->
<g id="node4" class="node"><title>3</title>
<ellipse fill="none" stroke="black" cx="629.584" cy="-192" rx="144.874" ry="18"/>
<text text-anchor="middle" x="629.584" y="-188.3" font-family="Times,serif" font-size="14.00">create_empty_custom_vertices_graph</text>
</g>
<!-- 0&#45;&#45;3 -->
<g id="edge3" class="edge"><title>0&#45;&#45;3</title>
<path fill="none" stroke="black" d="M861.678,-263.964C812.173,-248.828 733.514,-224.777 681.715,-208.94"/>
<text text-anchor="middle" x="838.084" y="-231.8" font-family="Times,serif" font-size="14.00">custom vertex type</text>
</g>
<!-- 5 -->
<g id="node6" class="node"><title>5</title>
<ellipse fill="none" stroke="black" cx="907.584" cy="-192" rx="69.5877" ry="18"/>
<text text-anchor="middle" x="907.584" y="-188.3" font-family="Times,serif" font-size="14.00">create_k2_graph</text>
</g>
<!-- 0&#45;&#45;5 -->
<g id="edge5" class="edge"><title>0&#45;&#45;5</title>
<path fill="none" stroke="black" d="M907.584,-260.799C907.584,-246.052 907.584,-224.915 907.584,-210.175"/>
<text text-anchor="middle" x="961.584" y="-231.8" font-family="Times,serif" font-size="14.00">add nodes and edge</text>
</g>
<!-- 8 -->
<g id="node9" class="node"><title>8</title>
<ellipse fill="none" stroke="black" cx="1132.58" cy="-192" rx="50.0912" ry="18"/>
<text text-anchor="middle" x="1132.58" y="-188.3" font-family="Times,serif" font-size="14.00">add_vertex</text>
</g>
<!-- 0&#45;&#45;8 -->
<g id="edge8" class="edge"><title>0&#45;&#45;8</title>
<path fill="none" stroke="black" d="M955.677,-264.281C975.625,-258.253 998.895,-250.781 1019.58,-243 1048.7,-232.05 1081.08,-217.463 1103.69,-206.873"/>
<text text-anchor="middle" x="1064.58" y="-231.8" font-family="Times,serif" font-size="14.00">add</text>
</g>
<!-- 11 -->
<g id="node12" class="node"><title>11</title>
<ellipse fill="none" stroke="black" cx="1479.58" cy="-192" rx="44.393" ry="18"/>
<text text-anchor="middle" x="1479.58" y="-188.3" font-family="Times,serif" font-size="14.00">add_edge</text>
</g>
<!-- 0&#45;&#45;11 -->
<g id="edge11" class="edge"><title>0&#45;&#45;11</title>
<path fill="none" stroke="black" d="M974.038,-268.125C1093.41,-250.385 1340.8,-213.623 1438.56,-199.096"/>
<text text-anchor="middle" x="1238.58" y="-231.8" font-family="Times,serif" font-size="14.00">add</text>
</g>
<!-- 2 -->
<g id="node3" class="node"><title>2</title>
<ellipse fill="none" stroke="black" cx="184.584" cy="-105" rx="184.667" ry="18"/>
<text text-anchor="middle" x="184.584" y="-101.3" font-family="Times,serif" font-size="14.00">create_empty_named_edges_and_vertices_graph</text>
</g>
<!-- 1&#45;&#45;2 -->
<g id="edge2" class="edge"><title>1&#45;&#45;2</title>
<path fill="none" stroke="black" d="M222.072,-173.799C213.918,-159.052 202.231,-137.915 194.081,-123.175"/>
<text text-anchor="middle" x="267.084" y="-144.8" font-family="Times,serif" font-size="14.00">std::string edge type</text>
</g>
<!-- 4 -->
<g id="node5" class="node"><title>4</title>
<ellipse fill="none" stroke="black" cx="573.584" cy="-105" rx="186.567" ry="18"/>
<text text-anchor="middle" x="573.584" y="-101.3" font-family="Times,serif" font-size="14.00">create_empty_custom_edges_and_vertices_graph</text>
</g>
<!-- 3&#45;&#45;4 -->
<g id="edge4" class="edge"><title>3&#45;&#45;4</title>
<path fill="none" stroke="black" d="M618.251,-173.799C608.535,-159.052 594.61,-137.915 584.899,-123.175"/>
<text text-anchor="middle" x="654.084" y="-144.8" font-family="Times,serif" font-size="14.00">custom edge type</text>
</g>
<!-- 6 -->
<g id="node7" class="node"><title>6</title>
<ellipse fill="none" stroke="black" cx="907.584" cy="-105" rx="129.177" ry="18"/>
<text text-anchor="middle" x="907.584" y="-101.3" font-family="Times,serif" font-size="14.00">create_named_vertices_k2_graph</text>
</g>
<!-- 5&#45;&#45;6 -->
<g id="edge6" class="edge"><title>5&#45;&#45;6</title>
<path fill="none" stroke="black" d="M907.584,-173.799C907.584,-159.052 907.584,-137.915 907.584,-123.175"/>
<text text-anchor="middle" x="967.084" y="-144.8" font-family="Times,serif" font-size="14.00">std::string vertex type</text>
</g>
<!-- 7 -->
<g id="node8" class="node"><title>7</title>
<ellipse fill="none" stroke="black" cx="907.584" cy="-18" rx="170.87" ry="18"/>
<text text-anchor="middle" x="907.584" y="-14.3" font-family="Times,serif" font-size="14.00">create_named_edges_and_vertices_k2_graph</text>
</g>
<!-- 6&#45;&#45;7 -->
<g id="edge7" class="edge"><title>6&#45;&#45;7</title>
<path fill="none" stroke="black" d="M907.584,-86.799C907.584,-72.0519 907.584,-50.9152 907.584,-36.1754"/>
<text text-anchor="middle" x="993.584" y="-57.8" font-family="Times,serif" font-size="14.00">std::string edge and vertex type</text>
</g>
<!-- 9 -->
<g id="node10" class="node"><title>9</title>
<ellipse fill="none" stroke="black" cx="1132.58" cy="-105" rx="77.9862" ry="18"/>
<text text-anchor="middle" x="1132.58" y="-101.3" font-family="Times,serif" font-size="14.00">add_named_vertex</text>
</g>
<!-- 8&#45;&#45;9 -->
<g id="edge9" class="edge"><title>8&#45;&#45;9</title>
<path fill="none" stroke="black" d="M1132.58,-173.799C1132.58,-159.052 1132.58,-137.915 1132.58,-123.175"/>
<text text-anchor="middle" x="1192.08" y="-144.8" font-family="Times,serif" font-size="14.00">std::string vertex type</text>
</g>
<!-- 10 -->
<g id="node11" class="node"><title>10</title>
<ellipse fill="none" stroke="black" cx="1308.58" cy="-105" rx="79.8859" ry="18"/>
<text text-anchor="middle" x="1308.58" y="-101.3" font-family="Times,serif" font-size="14.00">add_custom_vertex</text>
</g>
<!-- 8&#45;&#45;10 -->
<g id="edge10" class="edge"><title>8&#45;&#45;10</title>
<path fill="none" stroke="black" d="M1177.29,-183.656C1201.56,-178.377 1231.45,-169.711 1255.58,-156 1270.54,-147.5 1284.56,-133.92 1294.42,-123.056"/>
<text text-anchor="middle" x="1328.08" y="-144.8" font-family="Times,serif" font-size="14.00">custom vertex type</text>
</g>
<!-- 12 -->
<g id="node13" class="node"><title>12</title>
<ellipse fill="none" stroke="black" cx="1479.58" cy="-105" rx="72.5877" ry="18"/>
<text text-anchor="middle" x="1479.58" y="-101.3" font-family="Times,serif" font-size="14.00">add_named_edge</text>
</g>
<!-- 11&#45;&#45;12 -->
<g id="edge12" class="edge"><title>11&#45;&#45;12</title>
<path fill="none" stroke="black" d="M1479.58,-173.799C1479.58,-159.052 1479.58,-137.915 1479.58,-123.175"/>
<text text-anchor="middle" x="1539.08" y="-144.8" font-family="Times,serif" font-size="14.00">std::string vertex type</text>
</g>
<!-- 13 -->
<g id="node14" class="node"><title>13</title>
<ellipse fill="none" stroke="black" cx="1645.58" cy="-105" rx="74.9875" ry="18"/>
<text text-anchor="middle" x="1645.58" y="-101.3" font-family="Times,serif" font-size="14.00">add_custom_edge</text>
</g>
<!-- 11&#45;&#45;13 -->
<g id="edge13" class="edge"><title>11&#45;&#45;13</title>
<path fill="none" stroke="black" d="M1520.82,-185.432C1545.96,-180.599 1577.89,-171.787 1602.58,-156 1615.7,-147.612 1627.02,-134.025 1634.74,-123.13"/>
<text text-anchor="middle" x="1672.08" y="-144.8" font-family="Times,serif" font-size="14.00">custom vertex type</text>
</g>
</g>
</svg>
