<?xml version="1.0" encoding="UTF-8" standalone="no"?>
<!DOCTYPE svg PUBLIC "-//W3C//DTD SVG 1.1//EN"
 "http://www.w3.org/Graphics/SVG/1.1/DTD/svg11.dtd">
<!-- Generated by graphviz version 2.38.0 (20140413.2041)
 -->
<!-- Title: G Pages: 1 -->
<svg width="3068pt" height="260pt"
 viewBox="0.00 0.00 3068.48 260.00" xmlns="http://www.w3.org/2000/svg" xmlns:xlink="http://www.w3.org/1999/xlink">
<g id="graph0" class="graph" transform="scale(1 1) rotate(0) translate(4 256)">
<title>G</title>
<polygon fill="white" stroke="none" points="-4,4 -4,-256 3064.48,-256 3064.48,4 -4,4"/>
<!-- 0 -->
<g id="node1" class="node"><title>0</title>
<ellipse fill="none" stroke="black" cx="2137.58" cy="-234" rx="83.3857" ry="18"/>
<text text-anchor="middle" x="2137.58" y="-230.3" font-family="Times,serif" font-size="14.00">create_empty_graph</text>
</g>
<!-- 1 -->
<g id="node2" class="node"><title>1</title>
<ellipse fill="none" stroke="black" cx="544.584" cy="-162" rx="142.975" ry="18"/>
<text text-anchor="middle" x="544.584" y="-158.3" font-family="Times,serif" font-size="14.00">create_empty_named_vertices_graph</text>
</g>
<!-- 0&#45;&#45;1 -->
<g id="edge1" class="edge"><title>0&#45;&#45;1</title>
<path fill="none" stroke="black" d="M2056.95,-229.457C1799.61,-218.149 996.195,-182.845 677.127,-168.824"/>
</g>
<!-- 3 -->
<g id="node4" class="node"><title>3</title>
<ellipse fill="none" stroke="black" cx="1301.58" cy="-162" rx="144.874" ry="18"/>
<text text-anchor="middle" x="1301.58" y="-158.3" font-family="Times,serif" font-size="14.00">create_empty_custom_vertices_graph</text>
</g>
<!-- 0&#45;&#45;3 -->
<g id="edge3" class="edge"><title>0&#45;&#45;3</title>
<path fill="none" stroke="black" d="M2061.55,-226.633C1914.84,-214.349 1591.85,-187.305 1417.93,-172.742"/>
</g>
<!-- 5 -->
<g id="node6" class="node"><title>5</title>
<ellipse fill="none" stroke="black" cx="1910.58" cy="-162" rx="69.5877" ry="18"/>
<text text-anchor="middle" x="1910.58" y="-158.3" font-family="Times,serif" font-size="14.00">create_k2_graph</text>
</g>
<!-- 0&#45;&#45;5 -->
<g id="edge5" class="edge"><title>0&#45;&#45;5</title>
<path fill="none" stroke="black" d="M2091.92,-218.919C2051.53,-206.462 1993.02,-188.422 1953.48,-176.229"/>
</g>
<!-- 10 -->
<g id="node11" class="node"><title>10</title>
<ellipse fill="none" stroke="black" cx="2137.58" cy="-162" rx="50.0912" ry="18"/>
<text text-anchor="middle" x="2137.58" y="-158.3" font-family="Times,serif" font-size="14.00">add_vertex</text>
</g>
<!-- 0&#45;&#45;10 -->
<g id="edge10" class="edge"><title>0&#45;&#45;10</title>
<path fill="none" stroke="black" d="M2137.58,-215.697C2137.58,-204.846 2137.58,-190.917 2137.58,-180.104"/>
</g>
<!-- 13 -->
<g id="node14" class="node"><title>13</title>
<ellipse fill="none" stroke="black" cx="2249.58" cy="-162" rx="44.393" ry="18"/>
<text text-anchor="middle" x="2249.58" y="-158.3" font-family="Times,serif" font-size="14.00">add_edge</text>
</g>
<!-- 0&#45;&#45;13 -->
<g id="edge13" class="edge"><title>0&#45;&#45;13</title>
<path fill="none" stroke="black" d="M2163.56,-216.765C2182.56,-204.891 2208.1,-188.925 2226.41,-177.483"/>
</g>
<!-- 16 -->
<g id="node17" class="node"><title>16</title>
<ellipse fill="none" stroke="black" cx="2373.58" cy="-162" rx="61.99" ry="18"/>
<text text-anchor="middle" x="2373.58" y="-158.3" font-family="Times,serif" font-size="14.00">get_n_vertices</text>
</g>
<!-- 0&#45;&#45;16 -->
<g id="edge16" class="edge"><title>0&#45;&#45;16</title>
<path fill="none" stroke="black" d="M2180.62,-218.581C2222.79,-205.573 2286.6,-186.684 2329.23,-174.622"/>
</g>
<!-- 0&#45;&#45;16 -->
<g id="edge17" class="edge"><title>0&#45;&#45;16</title>
<path fill="none" stroke="black" d="M2187.96,-219.669C2231.85,-207.173 2294.45,-188.603 2334.62,-176.163"/>
</g>
<!-- 2 -->
<g id="node3" class="node"><title>2</title>
<ellipse fill="none" stroke="black" cx="184.584" cy="-90" rx="184.667" ry="18"/>
<text text-anchor="middle" x="184.584" y="-86.3" font-family="Times,serif" font-size="14.00">create_empty_named_edges_and_vertices_graph</text>
</g>
<!-- 1&#45;&#45;2 -->
<g id="edge2" class="edge"><title>1&#45;&#45;2</title>
<path fill="none" stroke="black" d="M470.428,-146.581C410.017,-134.834 324.936,-118.291 263.32,-106.31"/>
</g>
<!-- 18 -->
<g id="node19" class="node"><title>18</title>
<ellipse fill="none" stroke="black" cx="462.584" cy="-90" rx="75.2868" ry="18"/>
<text text-anchor="middle" x="462.584" y="-86.3" font-family="Times,serif" font-size="14.00">get_vertex_names</text>
</g>
<!-- 1&#45;&#45;18 -->
<g id="edge18" class="edge"><title>1&#45;&#45;18</title>
<path fill="none" stroke="black" d="M524.734,-144.055C511.746,-132.968 494.86,-118.553 481.968,-107.547"/>
</g>
<!-- 20 -->
<g id="node21" class="node"><title>20</title>
<ellipse fill="none" stroke="black" cx="625.584" cy="-90" rx="69.5877" ry="18"/>
<text text-anchor="middle" x="625.584" y="-86.3" font-family="Times,serif" font-size="14.00">get_edge_names</text>
</g>
<!-- 1&#45;&#45;20 -->
<g id="edge19" class="edge"><title>1&#45;&#45;20</title>
<path fill="none" stroke="black" d="M564.191,-144.055C577.02,-132.968 593.701,-118.553 606.436,-107.547"/>
</g>
<!-- 4 -->
<g id="node5" class="node"><title>4</title>
<ellipse fill="none" stroke="black" cx="899.584" cy="-90" rx="186.567" ry="18"/>
<text text-anchor="middle" x="899.584" y="-86.3" font-family="Times,serif" font-size="14.00">create_empty_custom_edges_and_vertices_graph</text>
</g>
<!-- 3&#45;&#45;4 -->
<g id="edge4" class="edge"><title>3&#45;&#45;4</title>
<path fill="none" stroke="black" d="M1221.2,-147.003C1153.03,-135.133 1055.5,-118.149 985.739,-106.002"/>
</g>
<!-- 19 -->
<g id="node20" class="node"><title>19</title>
<ellipse fill="none" stroke="black" cx="1201.58" cy="-90" rx="97.4827" ry="18"/>
<text text-anchor="middle" x="1201.58" y="-86.3" font-family="Times,serif" font-size="14.00">get_vertex_my_vertexes</text>
</g>
<!-- 3&#45;&#45;19 -->
<g id="edge20" class="edge"><title>3&#45;&#45;19</title>
<path fill="none" stroke="black" d="M1277.63,-144.233C1261.8,-133.151 1241.13,-118.684 1225.34,-107.63"/>
</g>
<!-- 21 -->
<g id="node22" class="node"><title>21</title>
<ellipse fill="none" stroke="black" cx="1400.58" cy="-90" rx="83.3857" ry="18"/>
<text text-anchor="middle" x="1400.58" y="-86.3" font-family="Times,serif" font-size="14.00">get_edge_my_edges</text>
</g>
<!-- 3&#45;&#45;21 -->
<g id="edge21" class="edge"><title>3&#45;&#45;21</title>
<path fill="none" stroke="black" d="M1325.3,-144.233C1341.08,-133.07 1361.73,-118.473 1377.41,-107.388"/>
</g>
<!-- 6 -->
<g id="node7" class="node"><title>6</title>
<ellipse fill="none" stroke="black" cx="1631.58" cy="-90" rx="129.177" ry="18"/>
<text text-anchor="middle" x="1631.58" y="-86.3" font-family="Times,serif" font-size="14.00">create_named_vertices_k2_graph</text>
</g>
<!-- 5&#45;&#45;6 -->
<g id="edge6" class="edge"><title>5&#45;&#45;6</title>
<path fill="none" stroke="black" d="M1862.3,-148.887C1814.89,-136.991 1742.44,-118.814 1691.4,-106.009"/>
</g>
<!-- 8 -->
<g id="node9" class="node"><title>8</title>
<ellipse fill="none" stroke="black" cx="1910.58" cy="-90" rx="131.077" ry="18"/>
<text text-anchor="middle" x="1910.58" y="-86.3" font-family="Times,serif" font-size="14.00">create_custom_vertices_k2_graph</text>
</g>
<!-- 5&#45;&#45;8 -->
<g id="edge8" class="edge"><title>5&#45;&#45;8</title>
<path fill="none" stroke="black" d="M1910.58,-143.697C1910.58,-132.846 1910.58,-118.917 1910.58,-108.104"/>
</g>
<!-- 7 -->
<g id="node8" class="node"><title>7</title>
<ellipse fill="none" stroke="black" cx="1589.58" cy="-18" rx="170.87" ry="18"/>
<text text-anchor="middle" x="1589.58" y="-14.3" font-family="Times,serif" font-size="14.00">create_named_edges_and_vertices_k3_graph</text>
</g>
<!-- 6&#45;&#45;7 -->
<g id="edge7" class="edge"><title>6&#45;&#45;7</title>
<path fill="none" stroke="black" d="M1621.42,-72.055C1614.91,-61.2111 1606.49,-47.183 1599.95,-36.2753"/>
</g>
<!-- 9 -->
<g id="node10" class="node"><title>9</title>
<ellipse fill="none" stroke="black" cx="1951.58" cy="-18" rx="172.769" ry="18"/>
<text text-anchor="middle" x="1951.58" y="-14.3" font-family="Times,serif" font-size="14.00">create_custom_edges_and_vertices_k3_graph</text>
</g>
<!-- 8&#45;&#45;9 -->
<g id="edge9" class="edge"><title>8&#45;&#45;9</title>
<path fill="none" stroke="black" d="M1920.72,-71.6966C1927.07,-60.8463 1935.23,-46.9167 1941.57,-36.1043"/>
</g>
<!-- 11 -->
<g id="node12" class="node"><title>11</title>
<ellipse fill="none" stroke="black" cx="2137.58" cy="-90" rx="77.9862" ry="18"/>
<text text-anchor="middle" x="2137.58" y="-86.3" font-family="Times,serif" font-size="14.00">add_named_vertex</text>
</g>
<!-- 10&#45;&#45;11 -->
<g id="edge11" class="edge"><title>10&#45;&#45;11</title>
<path fill="none" stroke="black" d="M2137.58,-143.697C2137.58,-132.846 2137.58,-118.917 2137.58,-108.104"/>
</g>
<!-- 12 -->
<g id="node13" class="node"><title>12</title>
<ellipse fill="none" stroke="black" cx="2313.58" cy="-90" rx="79.8859" ry="18"/>
<text text-anchor="middle" x="2313.58" y="-86.3" font-family="Times,serif" font-size="14.00">add_custom_vertex</text>
</g>
<!-- 10&#45;&#45;12 -->
<g id="edge12" class="edge"><title>10&#45;&#45;12</title>
<path fill="none" stroke="black" d="M2169.86,-148.161C2199.83,-136.241 2244.45,-118.496 2276.01,-105.944"/>
</g>
<!-- 14 -->
<g id="node15" class="node"><title>14</title>
<ellipse fill="none" stroke="black" cx="2484.58" cy="-90" rx="72.5877" ry="18"/>
<text text-anchor="middle" x="2484.58" y="-86.3" font-family="Times,serif" font-size="14.00">add_named_edge</text>
</g>
<!-- 13&#45;&#45;14 -->
<g id="edge14" class="edge"><title>13&#45;&#45;14</title>
<path fill="none" stroke="black" d="M2282.9,-150.162C2289.42,-148.085 2296.21,-145.951 2302.58,-144 2348.69,-129.896 2401.63,-114.578 2438.48,-104.054"/>
</g>
<!-- 15 -->
<g id="node16" class="node"><title>15</title>
<ellipse fill="none" stroke="black" cx="2650.58" cy="-90" rx="74.9875" ry="18"/>
<text text-anchor="middle" x="2650.58" y="-86.3" font-family="Times,serif" font-size="14.00">add_custom_edge</text>
</g>
<!-- 13&#45;&#45;15 -->
<g id="edge15" class="edge"><title>13&#45;&#45;15</title>
<path fill="none" stroke="black" d="M2281.85,-149.662C2288.64,-147.556 2295.8,-145.538 2302.58,-144 2418.07,-117.816 2449.82,-127.755 2566.58,-108 2576.27,-106.362 2586.54,-104.438 2596.46,-102.486"/>
</g>
<!-- 17 -->
<g id="node18" class="node"><title>17</title>
<ellipse fill="none" stroke="black" cx="2293.58" cy="-234" rx="54.6905" ry="18"/>
<text text-anchor="middle" x="2293.58" y="-230.3" font-family="Times,serif" font-size="14.00">get_n_edges</text>
</g>
<!-- 22 -->
<g id="node23" class="node"><title>22</title>
<ellipse fill="none" stroke="black" cx="2440.58" cy="-234" rx="74.187" ry="18"/>
<text text-anchor="middle" x="2440.58" y="-230.3" font-family="Times,serif" font-size="14.00">set_vertex_names</text>
</g>
<!-- 23 -->
<g id="node24" class="node"><title>23</title>
<ellipse fill="none" stroke="black" cx="2627.58" cy="-234" rx="94.7833" ry="18"/>
<text text-anchor="middle" x="2627.58" y="-230.3" font-family="Times,serif" font-size="14.00">set_vertex my_vertexes</text>
</g>
<!-- 24 -->
<g id="node25" class="node"><title>24</title>
<ellipse fill="none" stroke="black" cx="2809.58" cy="-234" rx="68.7879" ry="18"/>
<text text-anchor="middle" x="2809.58" y="-230.3" font-family="Times,serif" font-size="14.00">set_edge_names</text>
</g>
<!-- 25 -->
<g id="node26" class="node"><title>25</title>
<ellipse fill="none" stroke="black" cx="2978.58" cy="-234" rx="81.7856" ry="18"/>
<text text-anchor="middle" x="2978.58" y="-230.3" font-family="Times,serif" font-size="14.00">set_edge_my_edges</text>
</g>
</g>
</svg>
