<?xml version="1.0" encoding="UTF-8" standalone="no"?>
<!DOCTYPE svg PUBLIC "-//W3C//DTD SVG 1.1//EN"
 "http://www.w3.org/Graphics/SVG/1.1/DTD/svg11.dtd">
<!-- Generated by graphviz version 2.38.0 (20140413.2041)
 -->
<!-- Title: G Pages: 1 -->
<svg width="896pt" height="218pt"
 viewBox="0.00 0.00 896.12 218.00" xmlns="http://www.w3.org/2000/svg" xmlns:xlink="http://www.w3.org/1999/xlink">
<g id="graph0" class="graph" transform="scale(1 1) rotate(0) translate(4 214)">
<title>G</title>
<polygon fill="white" stroke="none" points="-4,4 -4,-214 892.117,-214 892.117,4 -4,4"/>
<!-- 0 -->
<g id="node1" class="node"><title>0</title>
<ellipse fill="none" stroke="black" cx="413.584" cy="-192" rx="83.3857" ry="18"/>
<text text-anchor="middle" x="413.584" y="-188.3" font-family="Times,serif" font-size="14.00">create_empty_graph</text>
</g>
<!-- 1 -->
<g id="node2" class="node"><title>1</title>
<ellipse fill="none" stroke="black" cx="184.584" cy="-105" rx="142.975" ry="18"/>
<text text-anchor="middle" x="184.584" y="-101.3" font-family="Times,serif" font-size="14.00">create_empty_named_vertices_graph</text>
</g>
<!-- 0&#45;&#45;1 -->
<g id="edge1" class="edge"><title>0&#45;&#45;1</title>
<path fill="none" stroke="black" d="M373.695,-176.194C333.073,-161.116 270.259,-137.801 228.306,-122.229"/>
<text text-anchor="middle" x="373.084" y="-144.8" font-family="Times,serif" font-size="14.00">std::string vertex type</text>
</g>
<!-- 3 -->
<g id="node4" class="node"><title>3</title>
<ellipse fill="none" stroke="black" cx="490.584" cy="-105" rx="144.874" ry="18"/>
<text text-anchor="middle" x="490.584" y="-101.3" font-family="Times,serif" font-size="14.00">create_empty_custom_vertices_graph</text>
</g>
<!-- 0&#45;&#45;3 -->
<g id="edge3" class="edge"><title>0&#45;&#45;3</title>
<path fill="none" stroke="black" d="M428.796,-174.207C442.208,-159.402 461.658,-137.93 475.139,-123.049"/>
<text text-anchor="middle" x="510.084" y="-144.8" font-family="Times,serif" font-size="14.00">custom vertex type</text>
</g>
<!-- 2 -->
<g id="node3" class="node"><title>2</title>
<ellipse fill="none" stroke="black" cx="184.584" cy="-18" rx="184.667" ry="18"/>
<text text-anchor="middle" x="184.584" y="-14.3" font-family="Times,serif" font-size="14.00">create_empty_named_edges_and_vertices_graph</text>
</g>
<!-- 1&#45;&#45;2 -->
<g id="edge2" class="edge"><title>1&#45;&#45;2</title>
<path fill="none" stroke="black" d="M184.584,-86.799C184.584,-72.0519 184.584,-50.9152 184.584,-36.1754"/>
<text text-anchor="middle" x="240.084" y="-57.8" font-family="Times,serif" font-size="14.00">std::string edge type</text>
</g>
<!-- 4 -->
<g id="node5" class="node"><title>4</title>
<ellipse fill="none" stroke="black" cx="701.584" cy="-192" rx="186.567" ry="18"/>
<text text-anchor="middle" x="701.584" y="-188.3" font-family="Times,serif" font-size="14.00">create_empty_custom_edges_and_vertices_graph</text>
</g>
</g>
</svg>
