<?xml version="1.0" encoding="UTF-8" standalone="no"?>
<!DOCTYPE svg PUBLIC "-//W3C//DTD SVG 1.1//EN"
 "http://www.w3.org/Graphics/SVG/1.1/DTD/svg11.dtd">
<!-- Generated by graphviz version 2.36.0 (20140111.2315)
 -->
<!-- Title: G Pages: 1 -->
<svg width="102pt" height="116pt"
 viewBox="0.00 0.00 102.00 116.00" xmlns="http://www.w3.org/2000/svg" xmlns:xlink="http://www.w3.org/1999/xlink">
<g id="graph0" class="graph" transform="scale(1 1) rotate(0) translate(4 112)">
<title>G</title>
<polygon fill="white" stroke="none" points="-4,4 -4,-112 98,-112 98,4 -4,4"/>
<!-- 0 -->
<g id="node1" class="node"><title>0</title>
<ellipse fill="none" stroke="black" cx="38" cy="-90" rx="30.3206" ry="18"/>
<text text-anchor="middle" x="38" y="-86.3" font-family="Times,serif" font-size="14.00">Good</text>
</g>
<!-- 0&#45;&gt;0 -->
<g id="edge1" class="edge"><title>0&#45;&gt;0</title>
<path fill="none" stroke="black" d="M59.7204,-102.547C73.1855,-105.573 86,-101.391 86,-90 86,-81.546 78.9413,-77.0626 69.7966,-76.5497"/>
<polygon fill="black" stroke="black" points="69.3681,-73.074 59.7204,-77.4525 69.9928,-80.046 69.3681,-73.074"/>
</g>
<!-- 1 -->
<g id="node2" class="node"><title>1</title>
<ellipse fill="none" stroke="black" cx="38" cy="-18" rx="38.4949" ry="18"/>
<text text-anchor="middle" x="38" y="-14.3" font-family="Times,serif" font-size="14.00">Not bad</text>
</g>
<!-- 0&#45;&gt;1 -->
<g id="edge2" class="edge"><title>0&#45;&gt;1</title>
<path fill="none" stroke="black" d="M32.1218,-72.055C31.3037,-64.3456 31.0614,-55.0269 31.3949,-46.3642"/>
<polygon fill="black" stroke="black" points="34.8943,-46.4915 32.0872,-36.2753 27.9107,-46.0122 34.8943,-46.4915"/>
</g>
<!-- 1&#45;&gt;0 -->
<g id="edge3" class="edge"><title>1&#45;&gt;0</title>
<path fill="none" stroke="black" d="M43.9128,-36.2753C44.7145,-44.03 44.9404,-53.3618 44.5906,-62.0054"/>
<polygon fill="black" stroke="black" points="41.0941,-61.8325 43.8782,-72.055 48.0766,-62.3275 41.0941,-61.8325"/>
</g>
<!-- 1&#45;&gt;1 -->
<g id="edge4" class="edge"><title>1&#45;&gt;1</title>
<path fill="none" stroke="black" d="M65.0821,-30.854C80.1367,-33.2534 94,-28.9688 94,-18 94,-9.60205 85.8736,-5.12219 75.3079,-4.56041"/>
<polygon fill="black" stroke="black" points="74.8656,-1.07991 65.0821,-5.146 75.2658,-8.06846 74.8656,-1.07991"/>
</g>
</g>
</svg>
