<?xml version="1.0" encoding="UTF-8" standalone="no"?>
<!DOCTYPE svg PUBLIC "-//W3C//DTD SVG 1.1//EN"
 "http://www.w3.org/Graphics/SVG/1.1/DTD/svg11.dtd">
<!-- Generated by graphviz version 2.36.0 (20140111.2315)
 -->
<!-- Title: G Pages: 1 -->
<svg width="3067pt" height="260pt"
 viewBox="0.00 0.00 3067.00 260.00" xmlns="http://www.w3.org/2000/svg" xmlns:xlink="http://www.w3.org/1999/xlink">
<g id="graph0" class="graph" transform="scale(1 1) rotate(0) translate(4 256)">
<title>G</title>
<polygon fill="white" stroke="none" points="-4,4 -4,-256 3063,-256 3063,4 -4,4"/>
<!-- 0 -->
<g id="node1" class="node"><title>0</title>
<ellipse fill="none" stroke="black" cx="2137" cy="-234" rx="83.2892" ry="18"/>
<text text-anchor="middle" x="2137" y="-230.3" font-family="Times,serif" font-size="14.00">create_empty_graph</text>
</g>
<!-- 1 -->
<g id="node2" class="node"><title>1</title>
<ellipse fill="none" stroke="black" cx="544" cy="-162" rx="142.481" ry="18"/>
<text text-anchor="middle" x="544" y="-158.3" font-family="Times,serif" font-size="14.00">create_empty_named_vertices_graph</text>
</g>
<!-- 0&#45;&#45;1 -->
<g id="edge1" class="edge"><title>0&#45;&#45;1</title>
<path fill="none" stroke="black" d="M2056.36,-229.457C1798.86,-218.142 994.624,-182.801 675.956,-168.798"/>
</g>
<!-- 3 -->
<g id="node4" class="node"><title>3</title>
<ellipse fill="none" stroke="black" cx="1301" cy="-162" rx="144.406" ry="18"/>
<text text-anchor="middle" x="1301" y="-158.3" font-family="Times,serif" font-size="14.00">create_empty_custom_vertices_graph</text>
</g>
<!-- 0&#45;&#45;3 -->
<g id="edge3" class="edge"><title>0&#45;&#45;3</title>
<path fill="none" stroke="black" d="M2060.97,-226.633C1914.25,-214.349 1591.27,-187.305 1417.35,-172.742"/>
</g>
<!-- 5 -->
<g id="node6" class="node"><title>5</title>
<ellipse fill="none" stroke="black" cx="1910" cy="-162" rx="69.3156" ry="18"/>
<text text-anchor="middle" x="1910" y="-158.3" font-family="Times,serif" font-size="14.00">create_k2_graph</text>
</g>
<!-- 0&#45;&#45;5 -->
<g id="edge5" class="edge"><title>0&#45;&#45;5</title>
<path fill="none" stroke="black" d="M2091.34,-218.919C2050.94,-206.462 1992.44,-188.422 1952.9,-176.229"/>
</g>
<!-- 10 -->
<g id="node11" class="node"><title>10</title>
<ellipse fill="none" stroke="black" cx="2137" cy="-162" rx="50.0684" ry="18"/>
<text text-anchor="middle" x="2137" y="-158.3" font-family="Times,serif" font-size="14.00">add_vertex</text>
</g>
<!-- 0&#45;&#45;10 -->
<g id="edge10" class="edge"><title>0&#45;&#45;10</title>
<path fill="none" stroke="black" d="M2137,-215.697C2137,-204.846 2137,-190.917 2137,-180.104"/>
</g>
<!-- 13 -->
<g id="node14" class="node"><title>13</title>
<ellipse fill="none" stroke="black" cx="2249" cy="-162" rx="44.2946" ry="18"/>
<text text-anchor="middle" x="2249" y="-158.3" font-family="Times,serif" font-size="14.00">add_edge</text>
</g>
<!-- 0&#45;&#45;13 -->
<g id="edge13" class="edge"><title>0&#45;&#45;13</title>
<path fill="none" stroke="black" d="M2162.98,-216.765C2181.98,-204.891 2207.52,-188.925 2225.83,-177.483"/>
</g>
<!-- 16 -->
<g id="node17" class="node"><title>16</title>
<ellipse fill="none" stroke="black" cx="2373" cy="-162" rx="61.6163" ry="18"/>
<text text-anchor="middle" x="2373" y="-158.3" font-family="Times,serif" font-size="14.00">get_n_vertices</text>
</g>
<!-- 0&#45;&#45;16 -->
<g id="edge16" class="edge"><title>0&#45;&#45;16</title>
<path fill="none" stroke="black" d="M2180.03,-218.581C2222.2,-205.573 2286.02,-186.684 2328.64,-174.622"/>
</g>
<!-- 0&#45;&#45;16 -->
<g id="edge17" class="edge"><title>0&#45;&#45;16</title>
<path fill="none" stroke="black" d="M2187.38,-219.669C2231.41,-207.134 2294.27,-188.485 2334.41,-176.045"/>
</g>
<!-- 2 -->
<g id="node3" class="node"><title>2</title>
<ellipse fill="none" stroke="black" cx="184" cy="-90" rx="184.375" ry="18"/>
<text text-anchor="middle" x="184" y="-86.3" font-family="Times,serif" font-size="14.00">create_empty_named_edges_and_vertices_graph</text>
</g>
<!-- 1&#45;&#45;2 -->
<g id="edge2" class="edge"><title>1&#45;&#45;2</title>
<path fill="none" stroke="black" d="M469.844,-146.581C409.433,-134.834 324.352,-118.291 262.736,-106.31"/>
</g>
<!-- 18 -->
<g id="node19" class="node"><title>18</title>
<ellipse fill="none" stroke="black" cx="462" cy="-90" rx="75.0904" ry="18"/>
<text text-anchor="middle" x="462" y="-86.3" font-family="Times,serif" font-size="14.00">get_vertex_names</text>
</g>
<!-- 1&#45;&#45;18 -->
<g id="edge18" class="edge"><title>1&#45;&#45;18</title>
<path fill="none" stroke="black" d="M524.15,-144.055C511.163,-132.968 494.277,-118.553 481.384,-107.547"/>
</g>
<!-- 20 -->
<g id="node21" class="node"><title>20</title>
<ellipse fill="none" stroke="black" cx="625" cy="-90" rx="69.3156" ry="18"/>
<text text-anchor="middle" x="625" y="-86.3" font-family="Times,serif" font-size="14.00">get_edge_names</text>
</g>
<!-- 1&#45;&#45;20 -->
<g id="edge19" class="edge"><title>1&#45;&#45;20</title>
<path fill="none" stroke="black" d="M563.608,-144.055C576.437,-132.968 593.117,-118.553 605.852,-107.547"/>
</g>
<!-- 4 -->
<g id="node5" class="node"><title>4</title>
<ellipse fill="none" stroke="black" cx="899" cy="-90" rx="186.3" ry="18"/>
<text text-anchor="middle" x="899" y="-86.3" font-family="Times,serif" font-size="14.00">create_empty_custom_edges_and_vertices_graph</text>
</g>
<!-- 3&#45;&#45;4 -->
<g id="edge4" class="edge"><title>3&#45;&#45;4</title>
<path fill="none" stroke="black" d="M1220.62,-147.003C1152.45,-135.133 1054.91,-118.149 985.155,-106.002"/>
</g>
<!-- 19 -->
<g id="node20" class="node"><title>19</title>
<ellipse fill="none" stroke="black" cx="1201" cy="-90" rx="97.237" ry="18"/>
<text text-anchor="middle" x="1201" y="-86.3" font-family="Times,serif" font-size="14.00">get_vertex_my_vertexes</text>
</g>
<!-- 3&#45;&#45;19 -->
<g id="edge20" class="edge"><title>3&#45;&#45;19</title>
<path fill="none" stroke="black" d="M1277.05,-144.233C1261.22,-133.151 1240.55,-118.684 1224.76,-107.63"/>
</g>
<!-- 21 -->
<g id="node22" class="node"><title>21</title>
<ellipse fill="none" stroke="black" cx="1400" cy="-90" rx="83.2892" ry="18"/>
<text text-anchor="middle" x="1400" y="-86.3" font-family="Times,serif" font-size="14.00">get_edge_my_edges</text>
</g>
<!-- 3&#45;&#45;21 -->
<g id="edge21" class="edge"><title>3&#45;&#45;21</title>
<path fill="none" stroke="black" d="M1324.71,-144.233C1340.5,-133.07 1361.15,-118.473 1376.82,-107.388"/>
</g>
<!-- 6 -->
<g id="node7" class="node"><title>6</title>
<ellipse fill="none" stroke="black" cx="1631" cy="-90" rx="129.008" ry="18"/>
<text text-anchor="middle" x="1631" y="-86.3" font-family="Times,serif" font-size="14.00">create_named_vertices_k2_graph</text>
</g>
<!-- 5&#45;&#45;6 -->
<g id="edge6" class="edge"><title>5&#45;&#45;6</title>
<path fill="none" stroke="black" d="M1862.04,-148.967C1814.6,-137.064 1741.87,-118.816 1690.71,-105.98"/>
</g>
<!-- 8 -->
<g id="node9" class="node"><title>8</title>
<ellipse fill="none" stroke="black" cx="1910" cy="-90" rx="130.933" ry="18"/>
<text text-anchor="middle" x="1910" y="-86.3" font-family="Times,serif" font-size="14.00">create_custom_vertices_k2_graph</text>
</g>
<!-- 5&#45;&#45;8 -->
<g id="edge8" class="edge"><title>5&#45;&#45;8</title>
<path fill="none" stroke="black" d="M1910,-143.697C1910,-132.846 1910,-118.917 1910,-108.104"/>
</g>
<!-- 7 -->
<g id="node8" class="node"><title>7</title>
<ellipse fill="none" stroke="black" cx="1589" cy="-18" rx="170.402" ry="18"/>
<text text-anchor="middle" x="1589" y="-14.3" font-family="Times,serif" font-size="14.00">create_named_edges_and_vertices_k3_graph</text>
</g>
<!-- 6&#45;&#45;7 -->
<g id="edge7" class="edge"><title>6&#45;&#45;7</title>
<path fill="none" stroke="black" d="M1620.83,-72.055C1614.33,-61.2111 1605.91,-47.183 1599.37,-36.2753"/>
</g>
<!-- 9 -->
<g id="node10" class="node"><title>9</title>
<ellipse fill="none" stroke="black" cx="1951" cy="-18" rx="172.327" ry="18"/>
<text text-anchor="middle" x="1951" y="-14.3" font-family="Times,serif" font-size="14.00">create_custom_edges_and_vertices_k3_graph</text>
</g>
<!-- 8&#45;&#45;9 -->
<g id="edge9" class="edge"><title>8&#45;&#45;9</title>
<path fill="none" stroke="black" d="M1920.13,-71.6966C1926.49,-60.8463 1934.65,-46.9167 1940.98,-36.1043"/>
</g>
<!-- 11 -->
<g id="node12" class="node"><title>11</title>
<ellipse fill="none" stroke="black" cx="2137" cy="-90" rx="77.4897" ry="18"/>
<text text-anchor="middle" x="2137" y="-86.3" font-family="Times,serif" font-size="14.00">add_named_vertex</text>
</g>
<!-- 10&#45;&#45;11 -->
<g id="edge11" class="edge"><title>10&#45;&#45;11</title>
<path fill="none" stroke="black" d="M2137,-143.697C2137,-132.846 2137,-118.917 2137,-108.104"/>
</g>
<!-- 12 -->
<g id="node13" class="node"><title>12</title>
<ellipse fill="none" stroke="black" cx="2313" cy="-90" rx="79.4147" ry="18"/>
<text text-anchor="middle" x="2313" y="-86.3" font-family="Times,serif" font-size="14.00">add_custom_vertex</text>
</g>
<!-- 10&#45;&#45;12 -->
<g id="edge12" class="edge"><title>10&#45;&#45;12</title>
<path fill="none" stroke="black" d="M2169.28,-148.161C2199.25,-136.241 2243.87,-118.496 2275.43,-105.944"/>
</g>
<!-- 14 -->
<g id="node15" class="node"><title>14</title>
<ellipse fill="none" stroke="black" cx="2484" cy="-90" rx="72.192" ry="18"/>
<text text-anchor="middle" x="2484" y="-86.3" font-family="Times,serif" font-size="14.00">add_named_edge</text>
</g>
<!-- 13&#45;&#45;14 -->
<g id="edge14" class="edge"><title>13&#45;&#45;14</title>
<path fill="none" stroke="black" d="M2282.32,-150.162C2288.83,-148.085 2295.62,-145.951 2302,-144 2348.1,-129.896 2401.04,-114.578 2437.9,-104.054"/>
</g>
<!-- 15 -->
<g id="node16" class="node"><title>15</title>
<ellipse fill="none" stroke="black" cx="2650" cy="-90" rx="74.6146" ry="18"/>
<text text-anchor="middle" x="2650" y="-86.3" font-family="Times,serif" font-size="14.00">add_custom_edge</text>
</g>
<!-- 13&#45;&#45;15 -->
<g id="edge15" class="edge"><title>13&#45;&#45;15</title>
<path fill="none" stroke="black" d="M2281.27,-149.665C2288.05,-147.559 2295.22,-145.54 2302,-144 2417.05,-117.884 2448.66,-127.578 2565,-108 2574.94,-106.327 2585.5,-104.365 2595.68,-102.38"/>
</g>
<!-- 17 -->
<g id="node18" class="node"><title>17</title>
<ellipse fill="none" stroke="black" cx="2293" cy="-234" rx="54.3924" ry="18"/>
<text text-anchor="middle" x="2293" y="-230.3" font-family="Times,serif" font-size="14.00">get_n_edges</text>
</g>
<!-- 22 -->
<g id="node23" class="node"><title>22</title>
<ellipse fill="none" stroke="black" cx="2440" cy="-234" rx="74.1402" ry="18"/>
<text text-anchor="middle" x="2440" y="-230.3" font-family="Times,serif" font-size="14.00">set_vertex_names</text>
</g>
<!-- 23 -->
<g id="node24" class="node"><title>23</title>
<ellipse fill="none" stroke="black" cx="2627" cy="-234" rx="94.338" ry="18"/>
<text text-anchor="middle" x="2627" y="-230.3" font-family="Times,serif" font-size="14.00">set_vertex my_vertexes</text>
</g>
<!-- 24 -->
<g id="node25" class="node"><title>24</title>
<ellipse fill="none" stroke="black" cx="2809" cy="-234" rx="68.3417" ry="18"/>
<text text-anchor="middle" x="2809" y="-230.3" font-family="Times,serif" font-size="14.00">set_edge_names</text>
</g>
<!-- 25 -->
<g id="node26" class="node"><title>25</title>
<ellipse fill="none" stroke="black" cx="2978" cy="-234" rx="81.3398" ry="18"/>
<text text-anchor="middle" x="2978" y="-230.3" font-family="Times,serif" font-size="14.00">set_edge_my_edges</text>
</g>
</g>
</svg>
