<?xml version="1.0" encoding="UTF-8" standalone="no"?>
<!DOCTYPE svg PUBLIC "-//W3C//DTD SVG 1.1//EN"
 "http://www.w3.org/Graphics/SVG/1.1/DTD/svg11.dtd">
<!-- Generated by graphviz version 2.36.0 (20140111.2315)
 -->
<!-- Title: G Pages: 1 -->
<svg width="420pt" height="976pt"
 viewBox="0.00 0.00 420.00 976.00" xmlns="http://www.w3.org/2000/svg" xmlns:xlink="http://www.w3.org/1999/xlink">
<g id="graph0" class="graph" transform="scale(1 1) rotate(0) translate(4 972)">
<title>G</title>
<polygon fill="white" stroke="none" points="-4,4 -4,-972 416,-972 416,4 -4,4"/>
<!-- 0 -->
<!-- Not$$$SPACE$$$green -->
<g id="node1" class="node"><title>0</title>
<ellipse fill="none" stroke="black" cx="216" cy="-896" rx="36" ry="72"/>
<text text-anchor="middle" x="216" y="-892.3" font-family="Times,serif" font-size="14.00">Red</text>
</g>
<!-- 1 -->
<!-- Not$$$SPACE$$$dark -->
<g id="node2" class="node"><title>1</title>
<ellipse fill="none" stroke="black" cx="108" cy="-628" rx="108" ry="144"/>
<text text-anchor="middle" x="108" y="-624.3" font-family="Times,serif" font-size="14.00">Light$$$SPACE$$$red</text>
</g>
<!-- 0&#45;&#45;1 -->
<!-- Air -->
<g id="edge1" class="edge"><title>0&#45;&#45;1</title>
<path fill="none" stroke="black" d="M193.491,-839.561C183.476,-814.895 171.24,-784.758 159.191,-755.082"/>
<text text-anchor="middle" x="199.5" y="-794.3" font-family="Times,serif" font-size="14.00">Oxygen</text>
</g>
<!-- 2 -->
<!-- Orangy -->
<g id="node3" class="node"><title>2</title>
<ellipse fill="none" stroke="black" cx="202" cy="-216" rx="180" ry="216"/>
<text text-anchor="middle" x="202" y="-212.3" font-family="Times,serif" font-size="14.00">Orange</text>
</g>
<!-- 1&#45;&#45;2 -->
<!-- From$$$SPACE$$$tube -->
<g id="edge2" class="edge"><title>1&#45;&#45;2</title>
<path fill="none" stroke="black" d="M139.366,-490.191C144.224,-469 149.334,-446.711 154.453,-424.385"/>
<text text-anchor="middle" x="168" y="-454.3" font-family="Times,serif" font-size="14.00">Helium</text>
</g>
<!-- 2&#45;&#45;0 -->
<!-- Here -->
<g id="edge3" class="edge"><title>2&#45;&#45;0</title>
<path fill="none" stroke="black" d="M222.05,-430.758C223.241,-448.756 224.256,-466.685 225,-484 231.147,-626.979 232.208,-663.071 225,-806 224.679,-812.359 224.23,-818.964 223.703,-825.574"/>
<text text-anchor="middle" x="321" y="-624.3" font-family="Times,serif" font-size="14.00">Stable$$$SPACE$$$temperature</text>
</g>
</g>
</svg>
