<?xml version="1.0" encoding="UTF-8" standalone="no"?>
<!DOCTYPE svg PUBLIC "-//W3C//DTD SVG 1.1//EN"
 "http://www.w3.org/Graphics/SVG/1.1/DTD/svg11.dtd">
<!-- Generated by graphviz version 2.36.0 (20140111.2315)
 -->
<!-- Title: G Pages: 1 -->
<svg width="381pt" height="492pt"
 viewBox="0.00 0.00 381.00 492.00" xmlns="http://www.w3.org/2000/svg" xmlns:xlink="http://www.w3.org/1999/xlink">
<g id="graph0" class="graph" transform="scale(1 1) rotate(0) translate(4 488)">
<title>G</title>
<polygon fill="white" stroke="none" points="-4,4 -4,-488 377,-488 377,4 -4,4"/>
<!-- 0 -->
<!-- Right -->
<g id="node1" class="node"><title>0</title>
<ellipse fill="none" stroke="black" cx="108" cy="-412" rx="36" ry="72"/>
<text text-anchor="middle" x="108" y="-408.3" font-family="Times,serif" font-size="14.00">Stable</text>
</g>
<!-- 0&#45;&gt;0 -->
<!-- Heat -->
<g id="edge1" class="edge"><title>0&#45;&gt;0</title>
<path fill="none" stroke="black" d="M143.058,-430.347C153.689,-429.887 162,-423.771 162,-412 162,-404.275 158.421,-398.986 152.956,-396.132"/>
<polygon fill="black" stroke="black" points="153.608,-392.688 143.058,-393.653 151.908,-399.478 153.608,-392.688"/>
<text text-anchor="middle" x="173" y="-408.3" font-family="Times,serif" font-size="14.00">Red</text>
</g>
<!-- 1 -->
<!-- Not$$$SPACE$$$left -->
<g id="node2" class="node"><title>1</title>
<ellipse fill="none" stroke="black" cx="108" cy="-144" rx="108" ry="144"/>
<text text-anchor="middle" x="108" y="-140.3" font-family="Times,serif" font-size="14.00">Not$$$SPACE$$$unstable</text>
</g>
<!-- 0&#45;&gt;1 -->
<!-- Lose$$$SPACE$$$heat -->
<g id="edge2" class="edge"><title>0&#45;&gt;1</title>
<path fill="none" stroke="black" d="M85.9803,-354.726C82.6656,-344.015 79.7681,-332.781 78,-322 76.3921,-312.196 75.6498,-302.09 75.5823,-291.908"/>
<polygon fill="black" stroke="black" points="79.0848,-291.76 75.7327,-281.71 72.0855,-291.657 79.0848,-291.76"/>
<text text-anchor="middle" x="98" y="-310.3" font-family="Times,serif" font-size="14.00">Orange</text>
</g>
<!-- 1&#45;&gt;0 -->
<!-- Heat -->
<g id="edge3" class="edge"><title>1&#45;&gt;0</title>
<path fill="none" stroke="black" d="M118.834,-287.494C118.874,-299.167 118.628,-310.784 118,-322 117.827,-325.083 117.621,-328.223 117.388,-331.393"/>
<polygon fill="black" stroke="black" points="113.881,-331.335 116.558,-341.586 120.858,-331.903 113.881,-331.335"/>
<text text-anchor="middle" x="191" y="-310.3" font-family="Times,serif" font-size="14.00">Yellow$$$SPACE$$$cold</text>
</g>
<!-- 1&#45;&gt;1 -->
<!-- Stay$$$SPACE$$$cool -->
<g id="edge4" class="edge"><title>1&#45;&gt;1</title>
<path fill="none" stroke="black" d="M214.17,-171.011C226.202,-165.953 234,-156.949 234,-144 234,-134.693 229.971,-127.424 223.238,-122.193"/>
<polygon fill="black" stroke="black" points="224.585,-118.931 214.17,-116.989 221.101,-125.002 224.585,-118.931"/>
<text text-anchor="middle" x="303.5" y="-140.3" font-family="Times,serif" font-size="14.00">Green$$$SPACE$$$cold</text>
</g>
</g>
</svg>
