<?xml version="1.0" encoding="UTF-8" standalone="no"?>
<!DOCTYPE svg PUBLIC "-//W3C//DTD SVG 1.1//EN"
 "http://www.w3.org/Graphics/SVG/1.1/DTD/svg11.dtd">
<!-- Generated by graphviz version 2.38.0 (20140413.2041)
 -->
<!-- Title: G Pages: 1 -->
<svg width="3232pt" height="260pt"
 viewBox="0.00 0.00 3232.42 260.00" xmlns="http://www.w3.org/2000/svg" xmlns:xlink="http://www.w3.org/1999/xlink">
<g id="graph0" class="graph" transform="scale(1 1) rotate(0) translate(4 256)">
<title>G</title>
<polygon fill="white" stroke="none" points="-4,4 -4,-256 3228.42,-256 3228.42,4 -4,4"/>
<!-- 0 -->
<g id="node1" class="node"><title>0</title>
<ellipse fill="none" stroke="black" cx="2301.53" cy="-234" rx="83.3857" ry="18"/>
<text text-anchor="middle" x="2301.53" y="-230.3" font-family="Times,serif" font-size="14.00">create_empty_graph</text>
</g>
<!-- 1 -->
<g id="node2" class="node"><title>1</title>
<ellipse fill="none" stroke="black" cx="626.53" cy="-162" rx="142.975" ry="18"/>
<text text-anchor="middle" x="626.53" y="-158.3" font-family="Times,serif" font-size="14.00">create_empty_named_vertices_graph</text>
</g>
<!-- 0&#45;&#45;1 -->
<g id="edge1" class="edge"><title>0&#45;&#45;1</title>
<path fill="none" stroke="black" d="M2220.74,-229.624C1952.97,-218.433 1092.75,-182.484 759.842,-168.571"/>
</g>
<!-- 3 -->
<g id="node4" class="node"><title>3</title>
<ellipse fill="none" stroke="black" cx="1465.53" cy="-162" rx="186.567" ry="18"/>
<text text-anchor="middle" x="1465.53" y="-158.3" font-family="Times,serif" font-size="14.00">create_empty_undirected_custom_vertices_graph</text>
</g>
<!-- 0&#45;&#45;3 -->
<g id="edge3" class="edge"><title>0&#45;&#45;3</title>
<path fill="none" stroke="black" d="M2225.5,-226.633C2084.12,-214.795 1779.05,-189.251 1601.42,-174.378"/>
</g>
<!-- 5 -->
<g id="node6" class="node"><title>5</title>
<ellipse fill="none" stroke="black" cx="2074.53" cy="-162" rx="69.5877" ry="18"/>
<text text-anchor="middle" x="2074.53" y="-158.3" font-family="Times,serif" font-size="14.00">create_k2_graph</text>
</g>
<!-- 0&#45;&#45;5 -->
<g id="edge5" class="edge"><title>0&#45;&#45;5</title>
<path fill="none" stroke="black" d="M2255.87,-218.919C2215.47,-206.462 2156.97,-188.422 2117.43,-176.229"/>
</g>
<!-- 10 -->
<g id="node11" class="node"><title>10</title>
<ellipse fill="none" stroke="black" cx="2301.53" cy="-162" rx="50.0912" ry="18"/>
<text text-anchor="middle" x="2301.53" y="-158.3" font-family="Times,serif" font-size="14.00">add_vertex</text>
</g>
<!-- 0&#45;&#45;10 -->
<g id="edge10" class="edge"><title>0&#45;&#45;10</title>
<path fill="none" stroke="black" d="M2301.53,-215.697C2301.53,-204.846 2301.53,-190.917 2301.53,-180.104"/>
</g>
<!-- 13 -->
<g id="node14" class="node"><title>13</title>
<ellipse fill="none" stroke="black" cx="2413.53" cy="-162" rx="44.393" ry="18"/>
<text text-anchor="middle" x="2413.53" y="-158.3" font-family="Times,serif" font-size="14.00">add_edge</text>
</g>
<!-- 0&#45;&#45;13 -->
<g id="edge13" class="edge"><title>0&#45;&#45;13</title>
<path fill="none" stroke="black" d="M2327.51,-216.765C2346.51,-204.891 2372.05,-188.925 2390.36,-177.483"/>
</g>
<!-- 16 -->
<g id="node17" class="node"><title>16</title>
<ellipse fill="none" stroke="black" cx="2537.53" cy="-162" rx="61.99" ry="18"/>
<text text-anchor="middle" x="2537.53" y="-158.3" font-family="Times,serif" font-size="14.00">get_n_vertices</text>
</g>
<!-- 0&#45;&#45;16 -->
<g id="edge16" class="edge"><title>0&#45;&#45;16</title>
<path fill="none" stroke="black" d="M2344.56,-218.581C2386.73,-205.573 2450.55,-186.684 2493.17,-174.622"/>
</g>
<!-- 0&#45;&#45;16 -->
<g id="edge17" class="edge"><title>0&#45;&#45;16</title>
<path fill="none" stroke="black" d="M2351.91,-219.669C2395.8,-207.173 2458.4,-188.603 2498.56,-176.163"/>
</g>
<!-- 2 -->
<g id="node3" class="node"><title>2</title>
<ellipse fill="none" stroke="black" cx="225.53" cy="-90" rx="225.56" ry="18"/>
<text text-anchor="middle" x="225.53" y="-86.3" font-family="Times,serif" font-size="14.00">create_empty_undirected_named_edges_and_vertices_graph</text>
</g>
<!-- 1&#45;&#45;2 -->
<g id="edge2" class="edge"><title>1&#45;&#45;2</title>
<path fill="none" stroke="black" d="M546.345,-147.003C479.378,-135.313 383.993,-118.662 314.647,-106.557"/>
</g>
<!-- 18 -->
<g id="node19" class="node"><title>18</title>
<ellipse fill="none" stroke="black" cx="544.53" cy="-90" rx="75.2868" ry="18"/>
<text text-anchor="middle" x="544.53" y="-86.3" font-family="Times,serif" font-size="14.00">get_vertex_names</text>
</g>
<!-- 1&#45;&#45;18 -->
<g id="edge18" class="edge"><title>1&#45;&#45;18</title>
<path fill="none" stroke="black" d="M606.68,-144.055C593.693,-132.968 576.807,-118.553 563.914,-107.547"/>
</g>
<!-- 20 -->
<g id="node21" class="node"><title>20</title>
<ellipse fill="none" stroke="black" cx="707.53" cy="-90" rx="69.5877" ry="18"/>
<text text-anchor="middle" x="707.53" y="-86.3" font-family="Times,serif" font-size="14.00">get_edge_names</text>
</g>
<!-- 1&#45;&#45;20 -->
<g id="edge19" class="edge"><title>1&#45;&#45;20</title>
<path fill="none" stroke="black" d="M646.138,-144.055C658.967,-132.968 675.647,-118.553 688.382,-107.547"/>
</g>
<!-- 4 -->
<g id="node5" class="node"><title>4</title>
<ellipse fill="none" stroke="black" cx="1022.53" cy="-90" rx="227.46" ry="18"/>
<text text-anchor="middle" x="1022.53" y="-86.3" font-family="Times,serif" font-size="14.00">create_empty_undirected_custom_edges_and_vertices_graph</text>
</g>
<!-- 3&#45;&#45;4 -->
<g id="edge4" class="edge"><title>3&#45;&#45;4</title>
<path fill="none" stroke="black" d="M1372.93,-146.368C1298.74,-134.645 1194.96,-118.246 1119.61,-106.34"/>
</g>
<!-- 19 -->
<g id="node20" class="node"><title>19</title>
<ellipse fill="none" stroke="black" cx="1365.53" cy="-90" rx="97.4827" ry="18"/>
<text text-anchor="middle" x="1365.53" y="-86.3" font-family="Times,serif" font-size="14.00">get_vertex_my_vertexes</text>
</g>
<!-- 3&#45;&#45;19 -->
<g id="edge20" class="edge"><title>3&#45;&#45;19</title>
<path fill="none" stroke="black" d="M1441.32,-144.055C1425.48,-132.968 1404.89,-118.553 1389.17,-107.547"/>
</g>
<!-- 21 -->
<g id="node22" class="node"><title>21</title>
<ellipse fill="none" stroke="black" cx="1564.53" cy="-90" rx="83.3857" ry="18"/>
<text text-anchor="middle" x="1564.53" y="-86.3" font-family="Times,serif" font-size="14.00">get_edge_my_edges</text>
</g>
<!-- 3&#45;&#45;21 -->
<g id="edge21" class="edge"><title>3&#45;&#45;21</title>
<path fill="none" stroke="black" d="M1489.5,-144.055C1505.29,-132.887 1525.86,-118.343 1541.47,-107.307"/>
</g>
<!-- 6 -->
<g id="node7" class="node"><title>6</title>
<ellipse fill="none" stroke="black" cx="1795.53" cy="-90" rx="129.177" ry="18"/>
<text text-anchor="middle" x="1795.53" y="-86.3" font-family="Times,serif" font-size="14.00">create_named_vertices_k2_graph</text>
</g>
<!-- 5&#45;&#45;6 -->
<g id="edge6" class="edge"><title>5&#45;&#45;6</title>
<path fill="none" stroke="black" d="M2026.25,-148.887C1978.84,-136.991 1906.39,-118.814 1855.35,-106.009"/>
</g>
<!-- 8 -->
<g id="node9" class="node"><title>8</title>
<ellipse fill="none" stroke="black" cx="2074.53" cy="-90" rx="131.077" ry="18"/>
<text text-anchor="middle" x="2074.53" y="-86.3" font-family="Times,serif" font-size="14.00">create_custom_vertices_k2_graph</text>
</g>
<!-- 5&#45;&#45;8 -->
<g id="edge8" class="edge"><title>5&#45;&#45;8</title>
<path fill="none" stroke="black" d="M2074.53,-143.697C2074.53,-132.846 2074.53,-118.917 2074.53,-108.104"/>
</g>
<!-- 7 -->
<g id="node8" class="node"><title>7</title>
<ellipse fill="none" stroke="black" cx="1753.53" cy="-18" rx="170.87" ry="18"/>
<text text-anchor="middle" x="1753.53" y="-14.3" font-family="Times,serif" font-size="14.00">create_named_edges_and_vertices_k3_graph</text>
</g>
<!-- 6&#45;&#45;7 -->
<g id="edge7" class="edge"><title>6&#45;&#45;7</title>
<path fill="none" stroke="black" d="M1785.36,-72.055C1778.86,-61.2111 1770.44,-47.183 1763.9,-36.2753"/>
</g>
<!-- 9 -->
<g id="node10" class="node"><title>9</title>
<ellipse fill="none" stroke="black" cx="2115.53" cy="-18" rx="172.769" ry="18"/>
<text text-anchor="middle" x="2115.53" y="-14.3" font-family="Times,serif" font-size="14.00">create_custom_edges_and_vertices_k3_graph</text>
</g>
<!-- 8&#45;&#45;9 -->
<g id="edge9" class="edge"><title>8&#45;&#45;9</title>
<path fill="none" stroke="black" d="M2084.66,-71.6966C2091.02,-60.8463 2099.18,-46.9167 2105.51,-36.1043"/>
</g>
<!-- 11 -->
<g id="node12" class="node"><title>11</title>
<ellipse fill="none" stroke="black" cx="2301.53" cy="-90" rx="77.9862" ry="18"/>
<text text-anchor="middle" x="2301.53" y="-86.3" font-family="Times,serif" font-size="14.00">add_named_vertex</text>
</g>
<!-- 10&#45;&#45;11 -->
<g id="edge11" class="edge"><title>10&#45;&#45;11</title>
<path fill="none" stroke="black" d="M2301.53,-143.697C2301.53,-132.846 2301.53,-118.917 2301.53,-108.104"/>
</g>
<!-- 12 -->
<g id="node13" class="node"><title>12</title>
<ellipse fill="none" stroke="black" cx="2477.53" cy="-90" rx="79.8859" ry="18"/>
<text text-anchor="middle" x="2477.53" y="-86.3" font-family="Times,serif" font-size="14.00">add_custom_vertex</text>
</g>
<!-- 10&#45;&#45;12 -->
<g id="edge12" class="edge"><title>10&#45;&#45;12</title>
<path fill="none" stroke="black" d="M2333.81,-148.161C2363.78,-136.241 2408.4,-118.496 2439.96,-105.944"/>
</g>
<!-- 14 -->
<g id="node15" class="node"><title>14</title>
<ellipse fill="none" stroke="black" cx="2648.53" cy="-90" rx="72.5877" ry="18"/>
<text text-anchor="middle" x="2648.53" y="-86.3" font-family="Times,serif" font-size="14.00">add_named_edge</text>
</g>
<!-- 13&#45;&#45;14 -->
<g id="edge14" class="edge"><title>13&#45;&#45;14</title>
<path fill="none" stroke="black" d="M2446.85,-150.162C2453.36,-148.085 2460.15,-145.951 2466.53,-144 2512.63,-129.896 2565.57,-114.578 2602.43,-104.054"/>
</g>
<!-- 15 -->
<g id="node16" class="node"><title>15</title>
<ellipse fill="none" stroke="black" cx="2814.53" cy="-90" rx="74.9875" ry="18"/>
<text text-anchor="middle" x="2814.53" y="-86.3" font-family="Times,serif" font-size="14.00">add_custom_edge</text>
</g>
<!-- 13&#45;&#45;15 -->
<g id="edge15" class="edge"><title>13&#45;&#45;15</title>
<path fill="none" stroke="black" d="M2445.8,-149.662C2452.58,-147.556 2459.74,-145.538 2466.53,-144 2582.02,-117.816 2613.77,-127.755 2730.53,-108 2740.21,-106.362 2750.49,-104.438 2760.4,-102.486"/>
</g>
<!-- 17 -->
<g id="node18" class="node"><title>17</title>
<ellipse fill="none" stroke="black" cx="2457.53" cy="-234" rx="54.6905" ry="18"/>
<text text-anchor="middle" x="2457.53" y="-230.3" font-family="Times,serif" font-size="14.00">get_n_edges</text>
</g>
<!-- 22 -->
<g id="node23" class="node"><title>22</title>
<ellipse fill="none" stroke="black" cx="2604.53" cy="-234" rx="74.187" ry="18"/>
<text text-anchor="middle" x="2604.53" y="-230.3" font-family="Times,serif" font-size="14.00">set_vertex_names</text>
</g>
<!-- 23 -->
<g id="node24" class="node"><title>23</title>
<ellipse fill="none" stroke="black" cx="2791.53" cy="-234" rx="94.7833" ry="18"/>
<text text-anchor="middle" x="2791.53" y="-230.3" font-family="Times,serif" font-size="14.00">set_vertex my_vertexes</text>
</g>
<!-- 24 -->
<g id="node25" class="node"><title>24</title>
<ellipse fill="none" stroke="black" cx="2973.53" cy="-234" rx="68.7879" ry="18"/>
<text text-anchor="middle" x="2973.53" y="-230.3" font-family="Times,serif" font-size="14.00">set_edge_names</text>
</g>
<!-- 25 -->
<g id="node26" class="node"><title>25</title>
<ellipse fill="none" stroke="black" cx="3142.53" cy="-234" rx="81.7856" ry="18"/>
<text text-anchor="middle" x="3142.53" y="-230.3" font-family="Times,serif" font-size="14.00">set_edge_my_edges</text>
</g>
</g>
</svg>
