<?xml version="1.0" encoding="UTF-8" standalone="no"?>
<!DOCTYPE svg PUBLIC "-//W3C//DTD SVG 1.1//EN"
 "http://www.w3.org/Graphics/SVG/1.1/DTD/svg11.dtd">
<!-- Generated by graphviz version 2.36.0 (20140111.2315)
 -->
<!-- Title: G Pages: 1 -->
<svg width="3231pt" height="260pt"
 viewBox="0.00 0.00 3231.00 260.00" xmlns="http://www.w3.org/2000/svg" xmlns:xlink="http://www.w3.org/1999/xlink">
<g id="graph0" class="graph" transform="scale(1 1) rotate(0) translate(4 256)">
<title>G</title>
<polygon fill="white" stroke="none" points="-4,4 -4,-256 3227,-256 3227,4 -4,4"/>
<!-- 0 -->
<g id="node1" class="node"><title>0</title>
<ellipse fill="none" stroke="black" cx="2301" cy="-234" rx="83.2892" ry="18"/>
<text text-anchor="middle" x="2301" y="-230.3" font-family="Times,serif" font-size="14.00">create_empty_graph</text>
</g>
<!-- 1 -->
<g id="node2" class="node"><title>1</title>
<ellipse fill="none" stroke="black" cx="626" cy="-162" rx="142.481" ry="18"/>
<text text-anchor="middle" x="626" y="-158.3" font-family="Times,serif" font-size="14.00">create_empty_named_vertices_graph</text>
</g>
<!-- 0&#45;&#45;1 -->
<g id="edge1" class="edge"><title>0&#45;&#45;1</title>
<path fill="none" stroke="black" d="M2220.21,-229.624C1952.36,-218.43 1091.69,-182.462 759.007,-168.559"/>
</g>
<!-- 3 -->
<g id="node4" class="node"><title>3</title>
<ellipse fill="none" stroke="black" cx="1465" cy="-162" rx="186.3" ry="18"/>
<text text-anchor="middle" x="1465" y="-158.3" font-family="Times,serif" font-size="14.00">create_empty_undirected_custom_vertices_graph</text>
</g>
<!-- 0&#45;&#45;3 -->
<g id="edge3" class="edge"><title>0&#45;&#45;3</title>
<path fill="none" stroke="black" d="M2224.97,-226.633C2083.59,-214.795 1778.52,-189.251 1600.89,-174.378"/>
</g>
<!-- 5 -->
<g id="node6" class="node"><title>5</title>
<ellipse fill="none" stroke="black" cx="2074" cy="-162" rx="69.3156" ry="18"/>
<text text-anchor="middle" x="2074" y="-158.3" font-family="Times,serif" font-size="14.00">create_k2_graph</text>
</g>
<!-- 0&#45;&#45;5 -->
<g id="edge5" class="edge"><title>0&#45;&#45;5</title>
<path fill="none" stroke="black" d="M2255.34,-218.919C2214.94,-206.462 2156.44,-188.422 2116.9,-176.229"/>
</g>
<!-- 10 -->
<g id="node11" class="node"><title>10</title>
<ellipse fill="none" stroke="black" cx="2301" cy="-162" rx="50.0684" ry="18"/>
<text text-anchor="middle" x="2301" y="-158.3" font-family="Times,serif" font-size="14.00">add_vertex</text>
</g>
<!-- 0&#45;&#45;10 -->
<g id="edge10" class="edge"><title>0&#45;&#45;10</title>
<path fill="none" stroke="black" d="M2301,-215.697C2301,-204.846 2301,-190.917 2301,-180.104"/>
</g>
<!-- 13 -->
<g id="node14" class="node"><title>13</title>
<ellipse fill="none" stroke="black" cx="2413" cy="-162" rx="44.2946" ry="18"/>
<text text-anchor="middle" x="2413" y="-158.3" font-family="Times,serif" font-size="14.00">add_edge</text>
</g>
<!-- 0&#45;&#45;13 -->
<g id="edge13" class="edge"><title>0&#45;&#45;13</title>
<path fill="none" stroke="black" d="M2326.98,-216.765C2345.98,-204.891 2371.52,-188.925 2389.83,-177.483"/>
</g>
<!-- 16 -->
<g id="node17" class="node"><title>16</title>
<ellipse fill="none" stroke="black" cx="2537" cy="-162" rx="61.6163" ry="18"/>
<text text-anchor="middle" x="2537" y="-158.3" font-family="Times,serif" font-size="14.00">get_n_vertices</text>
</g>
<!-- 0&#45;&#45;16 -->
<g id="edge16" class="edge"><title>0&#45;&#45;16</title>
<path fill="none" stroke="black" d="M2344.03,-218.581C2386.2,-205.573 2450.02,-186.684 2492.64,-174.622"/>
</g>
<!-- 0&#45;&#45;16 -->
<g id="edge17" class="edge"><title>0&#45;&#45;16</title>
<path fill="none" stroke="black" d="M2351.38,-219.669C2395.41,-207.134 2458.27,-188.485 2498.41,-176.045"/>
</g>
<!-- 2 -->
<g id="node3" class="node"><title>2</title>
<ellipse fill="none" stroke="black" cx="225" cy="-90" rx="225.295" ry="18"/>
<text text-anchor="middle" x="225" y="-86.3" font-family="Times,serif" font-size="14.00">create_empty_undirected_named_edges_and_vertices_graph</text>
</g>
<!-- 1&#45;&#45;2 -->
<g id="edge2" class="edge"><title>1&#45;&#45;2</title>
<path fill="none" stroke="black" d="M545.815,-147.003C478.848,-135.313 383.463,-118.662 314.117,-106.557"/>
</g>
<!-- 18 -->
<g id="node19" class="node"><title>18</title>
<ellipse fill="none" stroke="black" cx="544" cy="-90" rx="75.0904" ry="18"/>
<text text-anchor="middle" x="544" y="-86.3" font-family="Times,serif" font-size="14.00">get_vertex_names</text>
</g>
<!-- 1&#45;&#45;18 -->
<g id="edge18" class="edge"><title>1&#45;&#45;18</title>
<path fill="none" stroke="black" d="M606.15,-144.055C593.163,-132.968 576.277,-118.553 563.384,-107.547"/>
</g>
<!-- 20 -->
<g id="node21" class="node"><title>20</title>
<ellipse fill="none" stroke="black" cx="707" cy="-90" rx="69.3156" ry="18"/>
<text text-anchor="middle" x="707" y="-86.3" font-family="Times,serif" font-size="14.00">get_edge_names</text>
</g>
<!-- 1&#45;&#45;20 -->
<g id="edge19" class="edge"><title>1&#45;&#45;20</title>
<path fill="none" stroke="black" d="M645.608,-144.055C658.437,-132.968 675.117,-118.553 687.852,-107.547"/>
</g>
<!-- 4 -->
<g id="node5" class="node"><title>4</title>
<ellipse fill="none" stroke="black" cx="1022" cy="-90" rx="227.22" ry="18"/>
<text text-anchor="middle" x="1022" y="-86.3" font-family="Times,serif" font-size="14.00">create_empty_undirected_custom_edges_and_vertices_graph</text>
</g>
<!-- 3&#45;&#45;4 -->
<g id="edge4" class="edge"><title>3&#45;&#45;4</title>
<path fill="none" stroke="black" d="M1372.4,-146.368C1298.21,-134.645 1194.43,-118.246 1119.08,-106.34"/>
</g>
<!-- 19 -->
<g id="node20" class="node"><title>19</title>
<ellipse fill="none" stroke="black" cx="1365" cy="-90" rx="97.237" ry="18"/>
<text text-anchor="middle" x="1365" y="-86.3" font-family="Times,serif" font-size="14.00">get_vertex_my_vertexes</text>
</g>
<!-- 3&#45;&#45;19 -->
<g id="edge20" class="edge"><title>3&#45;&#45;19</title>
<path fill="none" stroke="black" d="M1440.79,-144.055C1424.95,-132.968 1404.36,-118.553 1388.64,-107.547"/>
</g>
<!-- 21 -->
<g id="node22" class="node"><title>21</title>
<ellipse fill="none" stroke="black" cx="1564" cy="-90" rx="83.2892" ry="18"/>
<text text-anchor="middle" x="1564" y="-86.3" font-family="Times,serif" font-size="14.00">get_edge_my_edges</text>
</g>
<!-- 3&#45;&#45;21 -->
<g id="edge21" class="edge"><title>3&#45;&#45;21</title>
<path fill="none" stroke="black" d="M1488.97,-144.055C1504.76,-132.887 1525.33,-118.343 1540.94,-107.307"/>
</g>
<!-- 6 -->
<g id="node7" class="node"><title>6</title>
<ellipse fill="none" stroke="black" cx="1795" cy="-90" rx="129.008" ry="18"/>
<text text-anchor="middle" x="1795" y="-86.3" font-family="Times,serif" font-size="14.00">create_named_vertices_k2_graph</text>
</g>
<!-- 5&#45;&#45;6 -->
<g id="edge6" class="edge"><title>5&#45;&#45;6</title>
<path fill="none" stroke="black" d="M2026.04,-148.967C1978.6,-137.064 1905.87,-118.816 1854.71,-105.98"/>
</g>
<!-- 8 -->
<g id="node9" class="node"><title>8</title>
<ellipse fill="none" stroke="black" cx="2074" cy="-90" rx="130.933" ry="18"/>
<text text-anchor="middle" x="2074" y="-86.3" font-family="Times,serif" font-size="14.00">create_custom_vertices_k2_graph</text>
</g>
<!-- 5&#45;&#45;8 -->
<g id="edge8" class="edge"><title>5&#45;&#45;8</title>
<path fill="none" stroke="black" d="M2074,-143.697C2074,-132.846 2074,-118.917 2074,-108.104"/>
</g>
<!-- 7 -->
<g id="node8" class="node"><title>7</title>
<ellipse fill="none" stroke="black" cx="1753" cy="-18" rx="170.402" ry="18"/>
<text text-anchor="middle" x="1753" y="-14.3" font-family="Times,serif" font-size="14.00">create_named_edges_and_vertices_k3_graph</text>
</g>
<!-- 6&#45;&#45;7 -->
<g id="edge7" class="edge"><title>6&#45;&#45;7</title>
<path fill="none" stroke="black" d="M1784.83,-72.055C1778.33,-61.2111 1769.91,-47.183 1763.37,-36.2753"/>
</g>
<!-- 9 -->
<g id="node10" class="node"><title>9</title>
<ellipse fill="none" stroke="black" cx="2115" cy="-18" rx="172.327" ry="18"/>
<text text-anchor="middle" x="2115" y="-14.3" font-family="Times,serif" font-size="14.00">create_custom_edges_and_vertices_k3_graph</text>
</g>
<!-- 8&#45;&#45;9 -->
<g id="edge9" class="edge"><title>8&#45;&#45;9</title>
<path fill="none" stroke="black" d="M2084.13,-71.6966C2090.49,-60.8463 2098.65,-46.9167 2104.98,-36.1043"/>
</g>
<!-- 11 -->
<g id="node12" class="node"><title>11</title>
<ellipse fill="none" stroke="black" cx="2301" cy="-90" rx="77.4897" ry="18"/>
<text text-anchor="middle" x="2301" y="-86.3" font-family="Times,serif" font-size="14.00">add_named_vertex</text>
</g>
<!-- 10&#45;&#45;11 -->
<g id="edge11" class="edge"><title>10&#45;&#45;11</title>
<path fill="none" stroke="black" d="M2301,-143.697C2301,-132.846 2301,-118.917 2301,-108.104"/>
</g>
<!-- 12 -->
<g id="node13" class="node"><title>12</title>
<ellipse fill="none" stroke="black" cx="2477" cy="-90" rx="79.4147" ry="18"/>
<text text-anchor="middle" x="2477" y="-86.3" font-family="Times,serif" font-size="14.00">add_custom_vertex</text>
</g>
<!-- 10&#45;&#45;12 -->
<g id="edge12" class="edge"><title>10&#45;&#45;12</title>
<path fill="none" stroke="black" d="M2333.28,-148.161C2363.25,-136.241 2407.87,-118.496 2439.43,-105.944"/>
</g>
<!-- 14 -->
<g id="node15" class="node"><title>14</title>
<ellipse fill="none" stroke="black" cx="2648" cy="-90" rx="72.192" ry="18"/>
<text text-anchor="middle" x="2648" y="-86.3" font-family="Times,serif" font-size="14.00">add_named_edge</text>
</g>
<!-- 13&#45;&#45;14 -->
<g id="edge14" class="edge"><title>13&#45;&#45;14</title>
<path fill="none" stroke="black" d="M2446.32,-150.162C2452.83,-148.085 2459.62,-145.951 2466,-144 2512.1,-129.896 2565.04,-114.578 2601.9,-104.054"/>
</g>
<!-- 15 -->
<g id="node16" class="node"><title>15</title>
<ellipse fill="none" stroke="black" cx="2814" cy="-90" rx="74.6146" ry="18"/>
<text text-anchor="middle" x="2814" y="-86.3" font-family="Times,serif" font-size="14.00">add_custom_edge</text>
</g>
<!-- 13&#45;&#45;15 -->
<g id="edge15" class="edge"><title>13&#45;&#45;15</title>
<path fill="none" stroke="black" d="M2445.27,-149.665C2452.05,-147.559 2459.22,-145.54 2466,-144 2581.05,-117.884 2612.66,-127.578 2729,-108 2738.94,-106.327 2749.5,-104.365 2759.68,-102.38"/>
</g>
<!-- 17 -->
<g id="node18" class="node"><title>17</title>
<ellipse fill="none" stroke="black" cx="2457" cy="-234" rx="54.3924" ry="18"/>
<text text-anchor="middle" x="2457" y="-230.3" font-family="Times,serif" font-size="14.00">get_n_edges</text>
</g>
<!-- 22 -->
<g id="node23" class="node"><title>22</title>
<ellipse fill="none" stroke="black" cx="2604" cy="-234" rx="74.1402" ry="18"/>
<text text-anchor="middle" x="2604" y="-230.3" font-family="Times,serif" font-size="14.00">set_vertex_names</text>
</g>
<!-- 23 -->
<g id="node24" class="node"><title>23</title>
<ellipse fill="none" stroke="black" cx="2791" cy="-234" rx="94.338" ry="18"/>
<text text-anchor="middle" x="2791" y="-230.3" font-family="Times,serif" font-size="14.00">set_vertex my_vertexes</text>
</g>
<!-- 24 -->
<g id="node25" class="node"><title>24</title>
<ellipse fill="none" stroke="black" cx="2973" cy="-234" rx="68.3417" ry="18"/>
<text text-anchor="middle" x="2973" y="-230.3" font-family="Times,serif" font-size="14.00">set_edge_names</text>
</g>
<!-- 25 -->
<g id="node26" class="node"><title>25</title>
<ellipse fill="none" stroke="black" cx="3142" cy="-234" rx="81.3398" ry="18"/>
<text text-anchor="middle" x="3142" y="-230.3" font-family="Times,serif" font-size="14.00">set_edge_my_edges</text>
</g>
</g>
</svg>
