<?xml version="1.0" encoding="UTF-8" standalone="no"?>
<!DOCTYPE svg PUBLIC "-//W3C//DTD SVG 1.1//EN"
 "http://www.w3.org/Graphics/SVG/1.1/DTD/svg11.dtd">
<!-- Generated by graphviz version 2.43.0 (0)
 -->
<!-- Title: G Pages: 1 -->
<svg width="646pt" height="692pt"
 viewBox="0.00 0.00 646.00 692.00" xmlns="http://www.w3.org/2000/svg" xmlns:xlink="http://www.w3.org/1999/xlink">
<g id="graph0" class="graph" transform="scale(1 1) rotate(0) translate(4 688)">
<title>G</title>
<polygon fill="white" stroke="transparent" points="-4,4 -4,-688 642,-688 642,4 -4,4"/>
<!-- 0 -->
<g id="node1" class="node">
<title>0</title>
<ellipse fill="none" stroke="black" cx="510" cy="-666" rx="27" ry="18"/>
<text text-anchor="middle" x="510" y="-662.3" font-family="Times,serif" font-size="14.00">0</text>
</g>
<!-- 1 -->
<g id="node2" class="node">
<title>1</title>
<ellipse fill="none" stroke="black" cx="421" cy="-594" rx="27" ry="18"/>
<text text-anchor="middle" x="421" y="-590.3" font-family="Times,serif" font-size="14.00">1</text>
</g>
<!-- 0&#45;&gt;1 -->
<g id="edge1" class="edge">
<title>0&#45;&gt;1</title>
<path fill="none" stroke="black" d="M493.26,-651.83C479.92,-641.34 461.04,-626.49 445.92,-614.6"/>
<polygon fill="black" stroke="black" points="447.99,-611.78 437.97,-608.35 443.66,-617.28 447.99,-611.78"/>
</g>
<!-- 3 -->
<g id="node4" class="node">
<title>3</title>
<ellipse fill="none" stroke="black" cx="214" cy="-450" rx="27" ry="18"/>
<text text-anchor="middle" x="214" y="-446.3" font-family="Times,serif" font-size="14.00">3</text>
</g>
<!-- 0&#45;&gt;3 -->
<g id="edge2" class="edge">
<title>0&#45;&gt;3</title>
<path fill="none" stroke="black" d="M484.33,-660.11C431.61,-648.72 310.57,-615.44 245,-540 229.79,-522.49 221.92,-497.09 217.92,-477.9"/>
<polygon fill="black" stroke="black" points="221.34,-477.16 216.08,-467.96 214.46,-478.44 221.34,-477.16"/>
</g>
<!-- 5 -->
<g id="node6" class="node">
<title>5</title>
<ellipse fill="none" stroke="black" cx="300" cy="-234" rx="27" ry="18"/>
<text text-anchor="middle" x="300" y="-230.3" font-family="Times,serif" font-size="14.00">5</text>
</g>
<!-- 0&#45;&gt;5 -->
<g id="edge3" class="edge">
<title>0&#45;&gt;5</title>
<path fill="none" stroke="black" d="M515,-648.22C521.81,-624.41 533.65,-579.35 538,-540 550.79,-424.35 549.7,-369.86 467,-288 432.02,-253.38 374.55,-241.35 336.99,-237.18"/>
<polygon fill="black" stroke="black" points="337.26,-233.69 326.96,-236.21 336.58,-240.66 337.26,-233.69"/>
</g>
<!-- 9 -->
<g id="node10" class="node">
<title>9</title>
<ellipse fill="none" stroke="black" cx="431" cy="-306" rx="27" ry="18"/>
<text text-anchor="middle" x="431" y="-302.3" font-family="Times,serif" font-size="14.00">9</text>
</g>
<!-- 0&#45;&gt;9 -->
<g id="edge4" class="edge">
<title>0&#45;&gt;9</title>
<path fill="none" stroke="black" d="M517.25,-648.42C529.11,-619.09 550.17,-556.22 538,-504 522.03,-435.51 475.3,-365.56 449.19,-330.34"/>
<polygon fill="black" stroke="black" points="451.83,-328.03 443.02,-322.15 446.24,-332.24 451.83,-328.03"/>
</g>
<!-- 2 -->
<g id="node3" class="node">
<title>2</title>
<ellipse fill="none" stroke="black" cx="355" cy="-522" rx="27" ry="18"/>
<text text-anchor="middle" x="355" y="-518.3" font-family="Times,serif" font-size="14.00">2</text>
</g>
<!-- 1&#45;&gt;2 -->
<g id="edge5" class="edge">
<title>1&#45;&gt;2</title>
<path fill="none" stroke="black" d="M407,-578.15C397.99,-568.6 386.11,-555.99 375.98,-545.25"/>
<polygon fill="black" stroke="black" points="378.38,-542.7 368.98,-537.82 373.29,-547.5 378.38,-542.7"/>
</g>
<!-- 1&#45;&gt;3 -->
<g id="edge6" class="edge">
<title>1&#45;&gt;3</title>
<path fill="none" stroke="black" d="M395.05,-588.81C363.77,-582.16 311.6,-567.07 275,-540 252.04,-523.02 232.61,-496.67 221.72,-477.03"/>
<polygon fill="black" stroke="black" points="224.77,-475.31 217.09,-468.01 218.54,-478.5 224.77,-475.31"/>
</g>
<!-- 1&#45;&gt;5 -->
<g id="edge7" class="edge">
<title>1&#45;&gt;5</title>
<path fill="none" stroke="black" d="M412.95,-576.79C396.62,-530.7 361.5,-395.33 318,-288 314.43,-279.2 309.94,-269.87 306.07,-261.54"/>
<polygon fill="black" stroke="black" points="309.21,-259.99 301.9,-252.31 302.83,-262.87 309.21,-259.99"/>
</g>
<!-- 1&#45;&gt;9 -->
<g id="edge8" class="edge">
<title>1&#45;&gt;9</title>
<path fill="none" stroke="black" d="M422.67,-575.93C426.64,-565.82 432.39,-552.57 435,-540 450.19,-466.86 436.75,-378.21 431.41,-334.34"/>
<polygon fill="black" stroke="black" points="434.86,-333.72 430.25,-324.18 427.91,-334.51 434.86,-333.72"/>
</g>
<!-- 2&#45;&gt;3 -->
<g id="edge9" class="edge">
<title>2&#45;&gt;3</title>
<path fill="none" stroke="black" d="M333.89,-510.52C310.11,-498.72 271.27,-479.43 244.27,-466.03"/>
<polygon fill="black" stroke="black" points="245.77,-462.86 235.25,-461.55 242.65,-469.13 245.77,-462.86"/>
</g>
<!-- 2&#45;&gt;5 -->
<g id="edge10" class="edge">
<title>2&#45;&gt;5</title>
<path fill="none" stroke="black" d="M351.72,-503.97C342.52,-456.08 316.34,-319.98 305.16,-261.85"/>
<polygon fill="black" stroke="black" points="308.58,-261.1 303.26,-251.94 301.71,-262.43 308.58,-261.1"/>
</g>
<!-- 2&#45;&gt;9 -->
<g id="edge11" class="edge">
<title>2&#45;&gt;9</title>
<path fill="none" stroke="black" d="M360.96,-504.21C374.14,-467.09 405.84,-377.86 421.67,-333.27"/>
<polygon fill="black" stroke="black" points="425.02,-334.31 425.06,-323.71 418.42,-331.97 425.02,-334.31"/>
</g>
<!-- 3&#45;&gt;1 -->
<g id="edge12" class="edge">
<title>3&#45;&gt;1</title>
<path fill="none" stroke="black" d="M228.16,-465.62C242.53,-485.08 265.18,-519.43 293,-540 321.55,-561.11 359.56,-574.93 386.85,-583.15"/>
<polygon fill="black" stroke="black" points="386.17,-586.6 396.75,-586.03 388.12,-579.88 386.17,-586.6"/>
</g>
<!-- 4 -->
<g id="node5" class="node">
<title>4</title>
<ellipse fill="none" stroke="black" cx="225" cy="-378" rx="27" ry="18"/>
<text text-anchor="middle" x="225" y="-374.3" font-family="Times,serif" font-size="14.00">4</text>
</g>
<!-- 3&#45;&gt;4 -->
<g id="edge13" class="edge">
<title>3&#45;&gt;4</title>
<path fill="none" stroke="black" d="M216.66,-432.05C217.87,-424.35 219.34,-415.03 220.7,-406.36"/>
<polygon fill="black" stroke="black" points="224.19,-406.7 222.29,-396.28 217.28,-405.61 224.19,-406.7"/>
</g>
<!-- 3&#45;&gt;5 -->
<g id="edge14" class="edge">
<title>3&#45;&gt;5</title>
<path fill="none" stroke="black" d="M198.39,-434.93C185.12,-417.21 170.6,-385.96 180,-360 196.91,-313.31 240.8,-273.19 270.74,-251.72"/>
<polygon fill="black" stroke="black" points="272.91,-254.47 279.16,-245.91 268.94,-248.71 272.91,-254.47"/>
</g>
<!-- 3&#45;&gt;9 -->
<g id="edge15" class="edge">
<title>3&#45;&gt;9</title>
<path fill="none" stroke="black" d="M230.63,-435.38C267.48,-409.09 355.48,-351.44 401.73,-323.22"/>
<polygon fill="black" stroke="black" points="403.65,-326.15 410.4,-317.98 400.03,-320.16 403.65,-326.15"/>
</g>
<!-- 4&#45;&gt;1 -->
<g id="edge16" class="edge">
<title>4&#45;&gt;1</title>
<path fill="none" stroke="black" d="M233.02,-395.27C251.15,-431.54 295.5,-517.63 319,-540 338.68,-558.73 366.28,-572.53 387.8,-581.35"/>
<polygon fill="black" stroke="black" points="386.63,-584.64 397.22,-585.04 389.19,-578.13 386.63,-584.64"/>
</g>
<!-- 4&#45;&gt;5 -->
<g id="edge17" class="edge">
<title>4&#45;&gt;5</title>
<path fill="none" stroke="black" d="M233.6,-360.71C246.6,-336.1 271.35,-289.24 286.69,-260.21"/>
<polygon fill="black" stroke="black" points="289.92,-261.58 291.5,-251.1 283.73,-258.31 289.92,-261.58"/>
</g>
<!-- 4&#45;&gt;9 -->
<g id="edge18" class="edge">
<title>4&#45;&gt;9</title>
<path fill="none" stroke="black" d="M247,-367.49C253.11,-364.95 259.78,-362.28 266,-360 310.79,-343.55 363.41,-327.14 396.97,-317.04"/>
<polygon fill="black" stroke="black" points="398.17,-320.33 406.74,-314.11 396.16,-313.63 398.17,-320.33"/>
</g>
<!-- 5&#45;&gt;1 -->
<g id="edge19" class="edge">
<title>5&#45;&gt;1</title>
<path fill="none" stroke="black" d="M315.48,-249.08C322.79,-259.59 330.49,-274.41 336,-288 376.4,-387.69 409.58,-511.57 419.34,-565.63"/>
<polygon fill="black" stroke="black" points="415.93,-566.48 421.01,-575.78 422.84,-565.34 415.93,-566.48"/>
</g>
<!-- 5&#45;&gt;3 -->
<g id="edge20" class="edge">
<title>5&#45;&gt;3</title>
<path fill="none" stroke="black" d="M285.83,-249.57C261.86,-270.43 215.49,-311.7 198,-360 190.49,-380.75 198.26,-404.9 205.67,-422.8"/>
<polygon fill="black" stroke="black" points="202.48,-424.24 209.65,-432.04 208.91,-421.47 202.48,-424.24"/>
</g>
<!-- 6 -->
<g id="node7" class="node">
<title>6</title>
<ellipse fill="none" stroke="black" cx="192" cy="-90" rx="27" ry="18"/>
<text text-anchor="middle" x="192" y="-86.3" font-family="Times,serif" font-size="14.00">6</text>
</g>
<!-- 5&#45;&gt;6 -->
<g id="edge22" class="edge">
<title>5&#45;&gt;6</title>
<path fill="none" stroke="black" d="M288.24,-217.53C269.33,-192.67 232.05,-143.66 209.85,-114.47"/>
<polygon fill="black" stroke="black" points="212.59,-112.29 203.75,-106.45 207.02,-116.53 212.59,-112.29"/>
</g>
<!-- 7 -->
<g id="node8" class="node">
<title>7</title>
<ellipse fill="none" stroke="black" cx="109" cy="-162" rx="27" ry="18"/>
<text text-anchor="middle" x="109" y="-158.3" font-family="Times,serif" font-size="14.00">7</text>
</g>
<!-- 5&#45;&gt;7 -->
<g id="edge21" class="edge">
<title>5&#45;&gt;7</title>
<path fill="none" stroke="black" d="M276.96,-224.56C243.26,-212.21 180.36,-189.15 141.83,-175.03"/>
<polygon fill="black" stroke="black" points="142.71,-171.63 132.12,-171.47 140.31,-178.2 142.71,-171.63"/>
</g>
<!-- 5&#45;&gt;9 -->
<g id="edge23" class="edge">
<title>5&#45;&gt;9</title>
<path fill="none" stroke="black" d="M322.56,-244.49C345.21,-255.46 379.81,-273.74 403.91,-287.34"/>
<polygon fill="black" stroke="black" points="402.48,-290.56 412.9,-292.49 405.95,-284.48 402.48,-290.56"/>
</g>
<!-- 6&#45;&gt;1 -->
<g id="edge24" class="edge">
<title>6&#45;&gt;1</title>
<path fill="none" stroke="black" d="M219.17,-90.36C298.46,-90.03 524,-100.72 524,-233 524,-451 524,-451 524,-451 524,-503.34 477.59,-549.39 447.07,-574.02"/>
<polygon fill="black" stroke="black" points="444.66,-571.47 438.94,-580.38 448.97,-576.98 444.66,-571.47"/>
</g>
<!-- 6&#45;&gt;3 -->
<g id="edge25" class="edge">
<title>6&#45;&gt;3</title>
<path fill="none" stroke="black" d="M187.79,-107.97C176.9,-154.92 150.71,-290.03 181,-396 183.99,-406.47 189.72,-416.89 195.58,-425.68"/>
<polygon fill="black" stroke="black" points="192.74,-427.74 201.38,-433.88 198.46,-423.69 192.74,-427.74"/>
</g>
<!-- 6&#45;&gt;7 -->
<g id="edge26" class="edge">
<title>6&#45;&gt;7</title>
<path fill="none" stroke="black" d="M179.75,-106.11C168.3,-116.89 151.18,-131.42 136.55,-142.82"/>
<polygon fill="black" stroke="black" points="134.12,-140.28 128.3,-149.13 138.37,-145.84 134.12,-140.28"/>
</g>
<!-- 8 -->
<g id="node9" class="node">
<title>8</title>
<ellipse fill="none" stroke="black" cx="192" cy="-18" rx="27" ry="18"/>
<text text-anchor="middle" x="192" y="-14.3" font-family="Times,serif" font-size="14.00">8</text>
</g>
<!-- 6&#45;&gt;8 -->
<g id="edge27" class="edge">
<title>6&#45;&gt;8</title>
<path fill="none" stroke="black" d="M192,-71.7C192,-63.98 192,-54.71 192,-46.11"/>
<polygon fill="black" stroke="black" points="195.5,-46.1 192,-36.1 188.5,-46.1 195.5,-46.1"/>
</g>
<!-- 6&#45;&gt;9 -->
<g id="edge28" class="edge">
<title>6&#45;&gt;9</title>
<path fill="none" stroke="black" d="M212.28,-102.15C247.06,-121.93 319.15,-165.83 369,-216 388.28,-235.4 405.64,-261.43 417.05,-280.33"/>
<polygon fill="black" stroke="black" points="414.06,-282.14 422.16,-288.97 420.08,-278.58 414.06,-282.14"/>
</g>
<!-- 7&#45;&gt;1 -->
<g id="edge29" class="edge">
<title>7&#45;&gt;1</title>
<path fill="none" stroke="black" d="M95.65,-177.94C75.08,-202.56 38,-254.01 38,-305 38,-451 38,-451 38,-451 38,-524.57 289.56,-572.16 384.93,-587.56"/>
<polygon fill="black" stroke="black" points="384.55,-591.04 394.98,-589.15 385.65,-584.13 384.55,-591.04"/>
</g>
<!-- 7&#45;&gt;3 -->
<g id="edge30" class="edge">
<title>7&#45;&gt;3</title>
<path fill="none" stroke="black" d="M102.43,-179.62C87.52,-220.28 55.7,-326.55 100,-396 117.07,-422.76 151.53,-436.22 178.12,-442.85"/>
<polygon fill="black" stroke="black" points="177.34,-446.27 187.87,-445.08 178.9,-439.44 177.34,-446.27"/>
</g>
<!-- 7&#45;&gt;6 -->
<g id="edge31" class="edge">
<title>7&#45;&gt;6</title>
<path fill="none" stroke="black" d="M121.33,-145.81C132.78,-135.05 149.83,-120.58 164.41,-109.2"/>
<polygon fill="black" stroke="black" points="166.82,-111.76 172.65,-102.91 162.58,-106.2 166.82,-111.76"/>
</g>
<!-- 7&#45;&gt;8 -->
<g id="edge32" class="edge">
<title>7&#45;&gt;8</title>
<path fill="none" stroke="black" d="M116.96,-144.62C125.91,-126.54 141.15,-96.71 156,-72 161.85,-62.28 168.75,-51.89 174.94,-42.91"/>
<polygon fill="black" stroke="black" points="177.97,-44.68 180.82,-34.47 172.23,-40.67 177.97,-44.68"/>
</g>
<!-- 7&#45;&gt;9 -->
<g id="edge33" class="edge">
<title>7&#45;&gt;9</title>
<path fill="none" stroke="black" d="M135.75,-164.76C179.87,-168.61 269.62,-180.5 336,-216 344.49,-220.54 383.76,-258.46 409.07,-283.31"/>
<polygon fill="black" stroke="black" points="406.85,-286.04 416.43,-290.56 411.76,-281.05 406.85,-286.04"/>
</g>
<!-- 8&#45;&gt;1 -->
<g id="edge34" class="edge">
<title>8&#45;&gt;1</title>
<path fill="none" stroke="black" d="M218.56,-21.6C314.58,-31.73 638,-72.43 638,-161 638,-307 638,-307 638,-307 638,-425.15 592.08,-455.01 510,-540 493.72,-556.85 470.96,-570.28 452.53,-579.4"/>
<polygon fill="black" stroke="black" points="450.87,-576.32 443.35,-583.78 453.88,-582.64 450.87,-576.32"/>
</g>
<!-- 8&#45;&gt;3 -->
<g id="edge35" class="edge">
<title>8&#45;&gt;3</title>
<path fill="none" stroke="black" d="M166.9,-24.92C114.86,-38.86 0,-78.91 0,-161 0,-307 0,-307 0,-307 0,-391.51 117.3,-428.72 178.22,-442.34"/>
<polygon fill="black" stroke="black" points="177.68,-445.81 188.19,-444.48 179.14,-438.96 177.68,-445.81"/>
</g>
<!-- 8&#45;&gt;9 -->
<g id="edge36" class="edge">
<title>8&#45;&gt;9</title>
<path fill="none" stroke="black" d="M209.9,-31.77C248.97,-60.49 342.75,-134.11 397,-216 409.66,-235.11 418.58,-259.61 424.09,-278.06"/>
<polygon fill="black" stroke="black" points="420.78,-279.22 426.88,-287.88 427.52,-277.31 420.78,-279.22"/>
</g>
<!-- 9&#45;&gt;1 -->
<g id="edge37" class="edge">
<title>9&#45;&gt;1</title>
<path fill="none" stroke="black" d="M439.38,-323.32C452.01,-361.61 469.6,-460.07 453,-540 450.85,-550.35 446.57,-561.16 441.66,-570.3"/>
<polygon fill="black" stroke="black" points="438.5,-568.75 436.36,-579.13 444.51,-572.35 438.5,-568.75"/>
</g>
<!-- 9&#45;&gt;3 -->
<g id="edge38" class="edge">
<title>9&#45;&gt;3</title>
<path fill="none" stroke="black" d="M414.69,-320.39C377.99,-346.6 289.51,-404.57 243.16,-432.85"/>
<polygon fill="black" stroke="black" points="241.23,-429.93 234.48,-438.09 244.85,-435.92 241.23,-429.93"/>
</g>
<!-- 9&#45;&gt;5 -->
<g id="edge39" class="edge">
<title>9&#45;&gt;5</title>
<path fill="none" stroke="black" d="M408.84,-295.7C386.19,-284.76 351.31,-266.33 327.07,-252.64"/>
<polygon fill="black" stroke="black" points="328.76,-249.58 318.35,-247.65 325.29,-255.66 328.76,-249.58"/>
</g>
</g>
</svg>
