<?xml version="1.0" encoding="UTF-8" standalone="no"?>
<!DOCTYPE svg PUBLIC "-//W3C//DTD SVG 1.1//EN"
 "http://www.w3.org/Graphics/SVG/1.1/DTD/svg11.dtd">
<!-- Generated by graphviz version 2.40.1 (20161225.0304)
 -->
<!-- Title: G Pages: 1 -->
<svg width="646pt" height="692pt"
 viewBox="0.00 0.00 646.00 692.00" xmlns="http://www.w3.org/2000/svg" xmlns:xlink="http://www.w3.org/1999/xlink">
<g id="graph0" class="graph" transform="scale(1 1) rotate(0) translate(4 688)">
<title>G</title>
<polygon fill="#ffffff" stroke="transparent" points="-4,4 -4,-688 642,-688 642,4 -4,4"/>
<!-- 0 -->
<g id="node1" class="node">
<title>0</title>
<ellipse fill="none" stroke="#000000" cx="510" cy="-666" rx="27" ry="18"/>
<text text-anchor="middle" x="510" y="-662.3" font-family="Times,serif" font-size="14.00" fill="#000000">0</text>
</g>
<!-- 1 -->
<g id="node2" class="node">
<title>1</title>
<ellipse fill="none" stroke="#000000" cx="421" cy="-594" rx="27" ry="18"/>
<text text-anchor="middle" x="421" y="-590.3" font-family="Times,serif" font-size="14.00" fill="#000000">1</text>
</g>
<!-- 0&#45;&gt;1 -->
<g id="edge1" class="edge">
<title>0&#45;&gt;1</title>
<path fill="none" stroke="#000000" d="M492.4165,-651.7751C479.166,-641.0557 460.8155,-626.2103 446.0339,-614.2522"/>
<polygon fill="#000000" stroke="#000000" points="448.22,-611.5188 438.2442,-607.9503 443.8173,-616.9609 448.22,-611.5188"/>
</g>
<!-- 3 -->
<g id="node4" class="node">
<title>3</title>
<ellipse fill="none" stroke="#000000" cx="214" cy="-450" rx="27" ry="18"/>
<text text-anchor="middle" x="214" y="-446.3" font-family="Times,serif" font-size="14.00" fill="#000000">3</text>
</g>
<!-- 0&#45;&gt;3 -->
<g id="edge2" class="edge">
<title>0&#45;&gt;3</title>
<path fill="none" stroke="#000000" d="M483.9251,-660.9183C430.9792,-649.2382 310.3676,-615.4759 245,-540 229.9378,-522.6086 222.0899,-497.516 218.0642,-478.2417"/>
<polygon fill="#000000" stroke="#000000" points="221.4695,-477.4094 216.1994,-468.2182 214.5876,-478.6898 221.4695,-477.4094"/>
</g>
<!-- 5 -->
<g id="node6" class="node">
<title>5</title>
<ellipse fill="none" stroke="#000000" cx="300" cy="-234" rx="27" ry="18"/>
<text text-anchor="middle" x="300" y="-230.3" font-family="Times,serif" font-size="14.00" fill="#000000">5</text>
</g>
<!-- 0&#45;&gt;5 -->
<g id="edge3" class="edge">
<title>0&#45;&gt;5</title>
<path fill="none" stroke="#000000" d="M515.2334,-648.2618C522.076,-624.057 533.6965,-579.2037 538,-540 550.6969,-424.3344 549.478,-370.0801 467,-288 448.3543,-269.4443 378.8951,-251.3548 335.6458,-241.5433"/>
<polygon fill="#000000" stroke="#000000" points="336.311,-238.1058 325.7892,-239.3472 334.7886,-244.9382 336.311,-238.1058"/>
</g>
<!-- 9 -->
<g id="node10" class="node">
<title>9</title>
<ellipse fill="none" stroke="#000000" cx="431" cy="-306" rx="27" ry="18"/>
<text text-anchor="middle" x="431" y="-302.3" font-family="Times,serif" font-size="14.00" fill="#000000">9</text>
</g>
<!-- 0&#45;&gt;9 -->
<g id="edge4" class="edge">
<title>0&#45;&gt;9</title>
<path fill="none" stroke="#000000" d="M517.6468,-648.3662C529.592,-618.461 550.118,-555.9797 538,-504 522.1343,-435.9448 476.2147,-366.3428 449.9763,-330.5699"/>
<polygon fill="#000000" stroke="#000000" points="452.5408,-328.1537 443.7598,-322.2254 446.9274,-332.3357 452.5408,-328.1537"/>
</g>
<!-- 2 -->
<g id="node3" class="node">
<title>2</title>
<ellipse fill="none" stroke="#000000" cx="355" cy="-522" rx="27" ry="18"/>
<text text-anchor="middle" x="355" y="-518.3" font-family="Times,serif" font-size="14.00" fill="#000000">2</text>
</g>
<!-- 1&#45;&gt;2 -->
<g id="edge5" class="edge">
<title>1&#45;&gt;2</title>
<path fill="none" stroke="#000000" d="M406.679,-578.3771C397.7708,-568.659 386.1548,-555.987 376.1925,-545.1191"/>
<polygon fill="#000000" stroke="#000000" points="378.6304,-542.599 369.2931,-537.5924 373.4703,-547.3291 378.6304,-542.599"/>
</g>
<!-- 1&#45;&gt;3 -->
<g id="edge6" class="edge">
<title>1&#45;&gt;3</title>
<path fill="none" stroke="#000000" d="M394.7665,-589.6109C363.4334,-582.7254 311.4299,-567.2716 275,-540 252.258,-522.9752 233.015,-496.7536 222.0809,-476.9973"/>
<polygon fill="#000000" stroke="#000000" points="225.0839,-475.1832 217.4019,-467.8868 218.8571,-478.3812 225.0839,-475.1832"/>
</g>
<!-- 1&#45;&gt;5 -->
<g id="edge7" class="edge">
<title>1&#45;&gt;5</title>
<path fill="none" stroke="#000000" d="M412.5649,-576.7398C395.9982,-529.6019 360.8642,-395.0559 318,-288 314.4717,-279.1877 310.0607,-269.8524 306.2317,-261.467"/>
<polygon fill="#000000" stroke="#000000" points="309.3502,-259.8656 302.0918,-252.1478 302.953,-262.7075 309.3502,-259.8656"/>
</g>
<!-- 1&#45;&gt;9 -->
<g id="edge8" class="edge">
<title>1&#45;&gt;9</title>
<path fill="none" stroke="#000000" d="M423.0463,-575.6094C426.9981,-565.4366 432.4733,-552.3803 435,-540 449.9204,-466.8941 436.7944,-378.4524 431.4548,-334.1583"/>
<polygon fill="#000000" stroke="#000000" points="434.9225,-333.6751 430.313,-324.1356 427.9675,-334.4676 434.9225,-333.6751"/>
</g>
<!-- 2&#45;&gt;3 -->
<g id="edge9" class="edge">
<title>2&#45;&gt;3</title>
<path fill="none" stroke="#000000" d="M333.2778,-510.9078C309.5067,-498.7694 271.2239,-479.2207 244.4594,-465.5538"/>
<polygon fill="#000000" stroke="#000000" points="246.0133,-462.4174 235.5155,-460.9867 242.8299,-468.6516 246.0133,-462.4174"/>
</g>
<!-- 2&#45;&gt;5 -->
<g id="edge10" class="edge">
<title>2&#45;&gt;5</title>
<path fill="none" stroke="#000000" d="M351.5595,-503.9843C342.261,-455.2939 316.5757,-320.7961 305.3582,-262.0573"/>
<polygon fill="#000000" stroke="#000000" points="308.753,-261.1748 303.4392,-252.0089 301.8772,-262.4879 308.753,-261.1748"/>
</g>
<!-- 2&#45;&gt;9 -->
<g id="edge11" class="edge">
<title>2&#45;&gt;9</title>
<path fill="none" stroke="#000000" d="M361.2194,-504.3238C374.4738,-466.6534 405.5801,-378.2461 421.3986,-333.2881"/>
<polygon fill="#000000" stroke="#000000" points="424.7837,-334.2123 424.8013,-323.6175 418.1805,-331.8889 424.7837,-334.2123"/>
</g>
<!-- 3&#45;&gt;1 -->
<g id="edge12" class="edge">
<title>3&#45;&gt;1</title>
<path fill="none" stroke="#000000" d="M228.6322,-465.4332C242.998,-485.1991 265.4273,-519.3589 293,-540 321.3106,-561.1934 359.0264,-575.2498 386.2975,-583.6942"/>
<polygon fill="#000000" stroke="#000000" points="385.6129,-587.1427 396.1967,-586.6591 387.6213,-580.437 385.6129,-587.1427"/>
</g>
<!-- 4 -->
<g id="node5" class="node">
<title>4</title>
<ellipse fill="none" stroke="#000000" cx="225" cy="-378" rx="27" ry="18"/>
<text text-anchor="middle" x="225" y="-374.3" font-family="Times,serif" font-size="14.00" fill="#000000">4</text>
</g>
<!-- 3&#45;&gt;4 -->
<g id="edge13" class="edge">
<title>3&#45;&gt;4</title>
<path fill="none" stroke="#000000" d="M216.7758,-431.8314C217.9703,-424.0125 219.3942,-414.6923 220.7188,-406.0221"/>
<polygon fill="#000000" stroke="#000000" points="224.2127,-406.3273 222.2632,-395.9134 217.293,-405.2701 224.2127,-406.3273"/>
</g>
<!-- 3&#45;&gt;5 -->
<g id="edge14" class="edge">
<title>3&#45;&gt;5</title>
<path fill="none" stroke="#000000" d="M197.8897,-435.1296C184.719,-417.1042 170.6151,-385.9216 180,-360 196.8911,-313.3459 240.3859,-273.0332 270.2887,-251.2516"/>
<polygon fill="#000000" stroke="#000000" points="272.5251,-253.9584 278.708,-245.3547 268.5093,-248.2248 272.5251,-253.9584"/>
</g>
<!-- 3&#45;&gt;9 -->
<g id="edge15" class="edge">
<title>3&#45;&gt;9</title>
<path fill="none" stroke="#000000" d="M230.9907,-435.9305C267.9058,-409.2591 354.9111,-351.4536 401.1595,-322.7997"/>
<polygon fill="#000000" stroke="#000000" points="403.145,-325.6878 409.8389,-317.4755 399.4847,-319.721 403.145,-325.6878"/>
</g>
<!-- 4&#45;&gt;1 -->
<g id="edge16" class="edge">
<title>4&#45;&gt;1</title>
<path fill="none" stroke="#000000" d="M233.4371,-395.1816C251.8154,-432.1215 295.6819,-517.5711 319,-540 338.5358,-558.7908 365.9081,-572.8015 387.3793,-581.8367"/>
<polygon fill="#000000" stroke="#000000" points="386.197,-585.1339 396.7798,-585.6372 388.8207,-578.6442 386.197,-585.1339"/>
</g>
<!-- 4&#45;&gt;5 -->
<g id="edge17" class="edge">
<title>4&#45;&gt;5</title>
<path fill="none" stroke="#000000" d="M233.898,-360.9158C246.8664,-336.0165 271.0707,-289.5442 286.3161,-260.2732"/>
<polygon fill="#000000" stroke="#000000" points="289.5984,-261.5479 291.1136,-251.0619 283.39,-258.3143 289.5984,-261.5479"/>
</g>
<!-- 4&#45;&gt;9 -->
<g id="edge18" class="edge">
<title>4&#45;&gt;9</title>
<path fill="none" stroke="#000000" d="M247.3932,-367.6987C253.389,-365.07 259.9001,-362.3308 266,-360 310.3977,-343.0353 362.7038,-326.4816 396.3306,-316.2692"/>
<polygon fill="#000000" stroke="#000000" points="397.5749,-319.5497 406.1374,-313.31 395.5526,-312.8481 397.5749,-319.5497"/>
</g>
<!-- 5&#45;&gt;1 -->
<g id="edge19" class="edge">
<title>5&#45;&gt;1</title>
<path fill="none" stroke="#000000" d="M315.7754,-248.823C322.982,-259.5044 330.5455,-274.3772 336,-288 375.8947,-387.6394 409.0932,-511.092 419.1301,-565.7228"/>
<polygon fill="#000000" stroke="#000000" points="415.7,-566.4303 420.8237,-575.7038 422.6014,-565.2592 415.7,-566.4303"/>
</g>
<!-- 5&#45;&gt;3 -->
<g id="edge20" class="edge">
<title>5&#45;&gt;3</title>
<path fill="none" stroke="#000000" d="M285.0357,-249.453C260.8608,-270.7641 215.3676,-312.0299 198,-360 190.5007,-380.7135 197.9997,-404.7862 205.3465,-422.8207"/>
<polygon fill="#000000" stroke="#000000" points="202.1829,-424.3252 209.3162,-432.1589 208.625,-421.5866 202.1829,-424.3252"/>
</g>
<!-- 6 -->
<g id="node7" class="node">
<title>6</title>
<ellipse fill="none" stroke="#000000" cx="192" cy="-90" rx="27" ry="18"/>
<text text-anchor="middle" x="192" y="-86.3" font-family="Times,serif" font-size="14.00" fill="#000000">6</text>
</g>
<!-- 5&#45;&gt;6 -->
<g id="edge22" class="edge">
<title>5&#45;&gt;6</title>
<path fill="none" stroke="#000000" d="M287.821,-217.7613C268.9423,-192.5897 232.4922,-143.9895 210.3941,-114.5254"/>
<polygon fill="#000000" stroke="#000000" points="213.1003,-112.3003 204.3002,-106.4003 207.5003,-116.5003 213.1003,-112.3003"/>
</g>
<!-- 7 -->
<g id="node8" class="node">
<title>7</title>
<ellipse fill="none" stroke="#000000" cx="109" cy="-162" rx="27" ry="18"/>
<text text-anchor="middle" x="109" y="-158.3" font-family="Times,serif" font-size="14.00" fill="#000000">7</text>
</g>
<!-- 5&#45;&gt;7 -->
<g id="edge21" class="edge">
<title>5&#45;&gt;7</title>
<path fill="none" stroke="#000000" d="M276.1959,-225.0267C242.4141,-212.2922 180.4259,-188.9249 142.1579,-174.4993"/>
<polygon fill="#000000" stroke="#000000" points="143.0959,-171.1125 132.5041,-170.8602 140.6267,-177.6626 143.0959,-171.1125"/>
</g>
<!-- 5&#45;&gt;9 -->
<g id="edge23" class="edge">
<title>5&#45;&gt;9</title>
<path fill="none" stroke="#000000" d="M322.8044,-243.8839C345.3975,-255.1436 379.6922,-273.7832 403.6895,-287.7117"/>
<polygon fill="#000000" stroke="#000000" points="401.942,-290.7444 412.3367,-292.7941 405.489,-284.7095 401.942,-290.7444"/>
</g>
<!-- 6&#45;&gt;1 -->
<g id="edge24" class="edge">
<title>6&#45;&gt;1</title>
<path fill="none" stroke="#000000" d="M218.0515,-95.3974C296.3174,-112.3535 524,-167.4033 524,-234 524,-450 524,-450 524,-450 524,-502.5387 478.081,-549.1152 447.5627,-574.2689"/>
<polygon fill="#000000" stroke="#000000" points="445.04,-571.8046 439.4143,-580.7826 449.4108,-577.2724 445.04,-571.8046"/>
</g>
<!-- 6&#45;&gt;3 -->
<g id="edge25" class="edge">
<title>6&#45;&gt;3</title>
<path fill="none" stroke="#000000" d="M187.5904,-108.0453C176.6594,-156.0304 151.2678,-290.3292 181,-396 183.9461,-406.4706 189.5487,-416.9186 195.3127,-425.7956"/>
<polygon fill="#000000" stroke="#000000" points="192.4774,-427.8493 201.038,-434.0916 198.2386,-423.8733 192.4774,-427.8493"/>
</g>
<!-- 6&#45;&gt;7 -->
<g id="edge26" class="edge">
<title>6&#45;&gt;7</title>
<path fill="none" stroke="#000000" d="M179.3576,-105.9233C167.9905,-116.8843 151.2509,-131.4957 136.8645,-143.0555"/>
<polygon fill="#000000" stroke="#000000" points="134.4203,-140.5251 128.7243,-149.4586 138.7481,-146.027 134.4203,-140.5251"/>
</g>
<!-- 8 -->
<g id="node9" class="node">
<title>8</title>
<ellipse fill="none" stroke="#000000" cx="192" cy="-18" rx="27" ry="18"/>
<text text-anchor="middle" x="192" y="-14.3" font-family="Times,serif" font-size="14.00" fill="#000000">8</text>
</g>
<!-- 6&#45;&gt;8 -->
<g id="edge27" class="edge">
<title>6&#45;&gt;8</title>
<path fill="none" stroke="#000000" d="M192,-71.8314C192,-64.131 192,-54.9743 192,-46.4166"/>
<polygon fill="#000000" stroke="#000000" points="195.5001,-46.4132 192,-36.4133 188.5001,-46.4133 195.5001,-46.4132"/>
</g>
<!-- 6&#45;&gt;9 -->
<g id="edge28" class="edge">
<title>6&#45;&gt;9</title>
<path fill="none" stroke="#000000" d="M213.0233,-101.5049C248.3101,-121.5078 320.4475,-165.4298 370,-216 388.8461,-235.2331 405.6304,-260.9785 416.7986,-280.0057"/>
<polygon fill="#000000" stroke="#000000" points="413.8023,-281.8165 421.8144,-288.7487 419.874,-278.3331 413.8023,-281.8165"/>
</g>
<!-- 7&#45;&gt;1 -->
<g id="edge29" class="edge">
<title>7&#45;&gt;1</title>
<path fill="none" stroke="#000000" d="M95.3105,-177.5939C74.6787,-202.7602 38,-254.7125 38,-306 38,-450 38,-450 38,-450 38,-523.606 288.9748,-572.4055 384.5973,-588.3271"/>
<polygon fill="#000000" stroke="#000000" points="384.2404,-591.8152 394.6749,-589.9786 385.3726,-584.9074 384.2404,-591.8152"/>
</g>
<!-- 7&#45;&gt;3 -->
<g id="edge30" class="edge">
<title>7&#45;&gt;3</title>
<path fill="none" stroke="#000000" d="M102.1056,-179.5797C87.0768,-221.031 56.0847,-326.605 100,-396 116.9783,-422.8291 151.2884,-436.5893 177.8542,-443.4783"/>
<polygon fill="#000000" stroke="#000000" points="177.0661,-446.8885 187.6044,-445.7951 178.6844,-440.0781 177.0661,-446.8885"/>
</g>
<!-- 7&#45;&gt;6 -->
<g id="edge31" class="edge">
<title>7&#45;&gt;6</title>
<path fill="none" stroke="#000000" d="M121.7004,-146.0209C133.055,-135.0771 149.7401,-120.5139 164.0924,-108.9791"/>
<polygon fill="#000000" stroke="#000000" points="166.5206,-111.5221 172.2153,-102.5878 162.1921,-106.0208 166.5206,-111.5221"/>
</g>
<!-- 7&#45;&gt;8 -->
<g id="edge32" class="edge">
<title>7&#45;&gt;8</title>
<path fill="none" stroke="#000000" d="M117.3053,-144.7854C126.3088,-126.4498 141.36,-96.723 156,-72 161.6836,-62.4019 168.3551,-52.1516 174.4005,-43.1889"/>
<polygon fill="#000000" stroke="#000000" points="177.4295,-44.9595 180.1774,-34.7272 171.6484,-41.0126 177.4295,-44.9595"/>
</g>
<!-- 7&#45;&gt;9 -->
<g id="edge33" class="edge">
<title>7&#45;&gt;9</title>
<path fill="none" stroke="#000000" d="M136.1279,-163.8944C180.41,-167.951 269.909,-180.2402 336,-216 352.4264,-224.8878 386.9385,-259.4822 409.53,-283.0974"/>
<polygon fill="#000000" stroke="#000000" points="407.2651,-285.7948 416.6911,-290.6321 412.339,-280.9724 407.2651,-285.7948"/>
</g>
<!-- 8&#45;&gt;1 -->
<g id="edge34" class="edge">
<title>8&#45;&gt;1</title>
<path fill="none" stroke="#000000" d="M218.8949,-20.7505C315.3206,-31.344 638,-73.4123 638,-162 638,-306 638,-306 638,-306 638,-424.7565 590.9961,-454.0945 509,-540 493.0858,-556.673 470.9568,-570.2205 452.8712,-579.5759"/>
<polygon fill="#000000" stroke="#000000" points="451.2243,-576.4861 443.8366,-584.0804 454.3477,-582.7506 451.2243,-576.4861"/>
</g>
<!-- 8&#45;&gt;3 -->
<g id="edge35" class="edge">
<title>8&#45;&gt;3</title>
<path fill="none" stroke="#000000" d="M166.5039,-24.2304C114.2761,-38.683 0,-79.7083 0,-162 0,-306 0,-306 0,-306 0,-390.6639 116.7198,-428.8154 177.7584,-442.9783"/>
<polygon fill="#000000" stroke="#000000" points="177.2384,-446.448 187.7594,-445.1998 178.7563,-439.6145 177.2384,-446.448"/>
</g>
<!-- 8&#45;&gt;9 -->
<g id="edge36" class="edge">
<title>8&#45;&gt;9</title>
<path fill="none" stroke="#000000" d="M210.6634,-31.2198C250.4422,-60.2873 344.3118,-133.7535 398,-216 410.5112,-235.1662 419.1039,-259.7146 424.3775,-278.3306"/>
<polygon fill="#000000" stroke="#000000" points="420.9975,-279.2393 426.9696,-287.9906 427.7583,-277.4251 420.9975,-279.2393"/>
</g>
<!-- 9&#45;&gt;1 -->
<g id="edge37" class="edge">
<title>9&#45;&gt;1</title>
<path fill="none" stroke="#000000" d="M439.6385,-323.2471C452.1847,-362.2951 469.2726,-460.2683 453,-540 450.913,-550.2259 446.8143,-560.9131 442.0714,-570.0555"/>
<polygon fill="#000000" stroke="#000000" points="438.9124,-568.5276 436.9529,-578.9397 444.9778,-572.0221 438.9124,-568.5276"/>
</g>
<!-- 9&#45;&gt;3 -->
<g id="edge38" class="edge">
<title>9&#45;&gt;3</title>
<path fill="none" stroke="#000000" d="M413.958,-320.1065C377.0434,-346.7729 290.207,-404.4669 243.9519,-433.1313"/>
<polygon fill="#000000" stroke="#000000" points="241.9616,-430.2461 235.2687,-438.4593 245.6226,-436.2125 241.9616,-430.2461"/>
</g>
<!-- 9&#45;&gt;5 -->
<g id="edge39" class="edge">
<title>9&#45;&gt;5</title>
<path fill="none" stroke="#000000" d="M408.2428,-296.1397C385.6253,-284.8699 351.2483,-266.185 327.2306,-252.2419"/>
<polygon fill="#000000" stroke="#000000" points="328.9733,-249.2064 318.5789,-247.1555 325.4256,-255.2409 328.9733,-249.2064"/>
</g>
</g>
</svg>
